<svg xmlns="http://www.w3.org/2000/svg" xmlns:xlink="http://www.w3.org/1999/xlink" contentStyleType="text/css" height="1117px" preserveAspectRatio="none" style="width:1076px;height:1117px;background:#FFFFFF;" version="1.1" viewBox="0 0 1076 1117" width="1076px" zoomAndPan="magnify"><title>API Gateway Pattern Implementation</title><defs/><g><text fill="#000000" font-family="Verdana" font-size="22" font-weight="bold" lengthAdjust="spacing" textLength="466.9844" x="303.0457" y="37.1182">API Gateway Pattern Implementation</text><rect fill="#FFFFFF" height="485.1577" style="stroke:#000000;stroke-width:1;" width="10" x="213.5889" y="206.3506"/><rect fill="#FFFFFF" height="89.3979" style="stroke:#000000;stroke-width:1;" width="10" x="213.5889" y="765.1069"/><rect fill="#FFFFFF" height="89.3979" style="stroke:#000000;stroke-width:1;" width="10" x="213.5889" y="928.1035"/><rect fill="#FFFFFF" height="29.7993" style="stroke:#000000;stroke-width:1;" width="10" x="381.4673" y="236.1499"/><rect fill="#FFFFFF" height="29.7993" style="stroke:#000000;stroke-width:1;" width="10" x="381.4673" y="794.9063"/><rect fill="#FFFFFF" height="29.7993" style="stroke:#000000;stroke-width:1;" width="10" x="513.0767" y="295.7485"/><rect fill="#FFFFFF" height="29.7993" style="stroke:#000000;stroke-width:1;" width="10" x="513.0767" y="957.9028"/><rect fill="#FFFFFF" height="29.7993" style="stroke:#000000;stroke-width:1;" width="10" x="662.2202" y="447.5444"/><rect fill="#FFFFFF" height="89.3979" style="stroke:#000000;stroke-width:1;" width="10" x="816.7402" y="522.5117"/><rect fill="#FFFFFF" height="29.7993" style="stroke:#000000;stroke-width:1;" width="10" x="968.0576" y="552.311"/><rect fill="#FFFFFF" height="211.9639" style="stroke:#000000;stroke-width:1;" width="912.5356" x="146.54" y="407.9458"/><rect fill="#FFFFFF" height="134.5659" style="stroke:none;stroke-width:1;" width="912.5356" x="146.54" y="485.3438"/><line style="stroke:#000000;stroke-width:1;" x1="33" x2="33" y1="130.752" y2="1035.5015"/><line style="stroke:#000000;stroke-width:1;" x1="218.54" x2="218.54" y1="130.752" y2="1035.5015"/><line style="stroke:#000000;stroke-width:1;" x1="385.7808" x2="385.7808" y1="130.752" y2="1035.5015"/><line style="stroke:#000000;stroke-width:1;" x1="517.1538" x2="517.1538" y1="130.752" y2="1035.5015"/><line style="stroke:#000000;stroke-width:1;" x1="666.9995" x2="666.9995" y1="130.752" y2="1035.5015"/><line style="stroke:#000000;stroke-width:1;" x1="821.4409" x2="821.4409" y1="130.752" y2="1035.5015"/><line style="stroke:#000000;stroke-width:1;" x1="973.0396" x2="973.0396" y1="130.752" y2="1035.5015"/><text fill="#000000" font-family="Verdana" font-size="14" lengthAdjust="spacing" textLength="40.1748" x="10" y="127.8125">Client</text><ellipse cx="33.0874" cy="61.7373" fill="#FFFFFF" rx="8" ry="8" style="stroke:#000000;stroke-width:1;"/><path d="M33.0874,69.7373 L33.0874,96.7373 M20.0874,77.7373 L46.0874,77.7373 M33.0874,96.7373 L20.0874,111.7373 M33.0874,96.7373 L46.0874,111.7373 " fill="none" style="stroke:#000000;stroke-width:1;"/><text fill="#000000" font-family="Verdana" font-size="14" lengthAdjust="spacing" textLength="40.1748" x="10" y="1048.5767">Client</text><ellipse cx="33.0874" cy="1060.5161" fill="#FFFFFF" rx="8" ry="8" style="stroke:#000000;stroke-width:1;"/><path d="M33.0874,1068.5161 L33.0874,1095.5161 M20.0874,1076.5161 L46.0874,1076.5161 M33.0874,1095.5161 L20.0874,1110.5161 M33.0874,1095.5161 L46.0874,1110.5161 " fill="none" style="stroke:#000000;stroke-width:1;"/><rect fill="#FFFFFF" height="31.0146" rx="2.5" ry="2.5" style="stroke:#000000;stroke-width:1;" width="104.0977" x="166.54" y="98.7373"/><text fill="#000000" font-family="Verdana" font-size="14" lengthAdjust="spacing" textLength="90.0977" x="173.54" y="119.8125">API Gateway</text><rect fill="#FFFFFF" height="31.0146" rx="2.5" ry="2.5" style="stroke:#000000;stroke-width:1;" width="104.0977" x="166.54" y="1034.5015"/><text fill="#000000" font-family="Verdana" font-size="14" lengthAdjust="spacing" textLength="90.0977" x="173.54" y="1055.5767">API Gateway</text><rect fill="#FFFFFF" height="31.0146" rx="2.5" ry="2.5" style="stroke:#000000;stroke-width:1;" width="103.373" x="334.7808" y="98.7373"/><text fill="#000000" font-family="Verdana" font-size="14" lengthAdjust="spacing" textLength="89.373" x="341.7808" y="119.8125">Auth Service</text><rect fill="#FFFFFF" height="31.0146" rx="2.5" ry="2.5" style="stroke:#000000;stroke-width:1;" width="103.373" x="334.7808" y="1034.5015"/><text fill="#000000" font-family="Verdana" font-size="14" lengthAdjust="spacing" textLength="89.373" x="341.7808" y="1055.5767">Auth Service</text><rect fill="#FFFFFF" height="31.0146" rx="2.5" ry="2.5" style="stroke:#000000;stroke-width:1;" width="99.8457" x="468.1538" y="98.7373"/><text fill="#000000" font-family="Verdana" font-size="14" lengthAdjust="spacing" textLength="85.8457" x="475.1538" y="119.8125">Rate Limiter</text><rect fill="#FFFFFF" height="31.0146" rx="2.5" ry="2.5" style="stroke:#000000;stroke-width:1;" width="99.8457" x="468.1538" y="1034.5015"/><text fill="#000000" font-family="Verdana" font-size="14" lengthAdjust="spacing" textLength="85.8457" x="475.1538" y="1055.5767">Rate Limiter</text><rect fill="#FFFFFF" height="31.0146" rx="2.5" ry="2.5" style="stroke:#000000;stroke-width:1;" width="138.4414" x="597.9995" y="98.7373"/><text fill="#000000" font-family="Verdana" font-size="14" lengthAdjust="spacing" textLength="124.4414" x="604.9995" y="119.8125">Customer Service</text><rect fill="#FFFFFF" height="31.0146" rx="2.5" ry="2.5" style="stroke:#000000;stroke-width:1;" width="138.4414" x="597.9995" y="1034.5015"/><text fill="#000000" font-family="Verdana" font-size="14" lengthAdjust="spacing" textLength="124.4414" x="604.9995" y="1055.5767">Customer Service</text><rect fill="#FFFFFF" height="31.0146" rx="2.5" ry="2.5" style="stroke:#000000;stroke-width:1;" width="110.5986" x="766.4409" y="98.7373"/><text fill="#000000" font-family="Verdana" font-size="14" lengthAdjust="spacing" textLength="96.5986" x="773.4409" y="119.8125">Order Service</text><rect fill="#FFFFFF" height="31.0146" rx="2.5" ry="2.5" style="stroke:#000000;stroke-width:1;" width="110.5986" x="766.4409" y="1034.5015"/><text fill="#000000" font-family="Verdana" font-size="14" lengthAdjust="spacing" textLength="96.5986" x="773.4409" y="1055.5767">Order Service</text><rect fill="#FFFFFF" height="31.0146" rx="2.5" ry="2.5" style="stroke:#000000;stroke-width:1;" width="132.0361" x="907.0396" y="98.7373"/><text fill="#000000" font-family="Verdana" font-size="14" lengthAdjust="spacing" textLength="118.0361" x="914.0396" y="119.8125">Payment Service</text><rect fill="#FFFFFF" height="31.0146" rx="2.5" ry="2.5" style="stroke:#000000;stroke-width:1;" width="132.0361" x="907.0396" y="1034.5015"/><text fill="#000000" font-family="Verdana" font-size="14" lengthAdjust="spacing" textLength="118.0361" x="914.0396" y="1055.5767">Payment Service</text><rect fill="#FFFFFF" height="485.1577" style="stroke:#000000;stroke-width:1;" width="10" x="213.5889" y="206.3506"/><rect fill="#FFFFFF" height="89.3979" style="stroke:#000000;stroke-width:1;" width="10" x="213.5889" y="765.1069"/><rect fill="#FFFFFF" height="89.3979" style="stroke:#000000;stroke-width:1;" width="10" x="213.5889" y="928.1035"/><rect fill="#FFFFFF" height="29.7993" style="stroke:#000000;stroke-width:1;" width="10" x="381.4673" y="236.1499"/><rect fill="#FFFFFF" height="29.7993" style="stroke:#000000;stroke-width:1;" width="10" x="381.4673" y="794.9063"/><rect fill="#FFFFFF" height="29.7993" style="stroke:#000000;stroke-width:1;" width="10" x="513.0767" y="295.7485"/><rect fill="#FFFFFF" height="29.7993" style="stroke:#000000;stroke-width:1;" width="10" x="513.0767" y="957.9028"/><rect fill="#FFFFFF" height="29.7993" style="stroke:#000000;stroke-width:1;" width="10" x="662.2202" y="447.5444"/><rect fill="#FFFFFF" height="89.3979" style="stroke:#000000;stroke-width:1;" width="10" x="816.7402" y="522.5117"/><rect fill="#FFFFFF" height="29.7993" style="stroke:#000000;stroke-width:1;" width="10" x="968.0576" y="552.311"/><rect fill="#FFFFFF" height="3" style="stroke:#FFFFFF;stroke-width:1;" width="1064.0757" x="5" y="161.6516"/><line style="stroke:#000000;stroke-width:0.5;" x1="5" x2="1069.0757" y1="161.6516" y2="161.6516"/><line style="stroke:#000000;stroke-width:0.5;" x1="5" x2="1069.0757" y1="164.6516" y2="164.6516"/><rect fill="#FFFFFF" height="23.7993" style="stroke:#000000;stroke-width:1;" width="161.7227" x="456.1765" y="150.752"/><text fill="#000000" font-family="Verdana" font-size="13" font-weight="bold" lengthAdjust="spacing" textLength="143.2793" x="462.1765" y="167.8218">Request Processing</text><polygon fill="#000000" points="201.5889,202.3506,211.5889,206.3506,201.5889,210.3506,205.5889,206.3506" style="stroke:#000000;stroke-width:1;"/><line style="stroke:#000000;stroke-width:1;" x1="33.0874" x2="207.5889" y1="206.3506" y2="206.3506"/><text fill="#000000" font-family="Verdana" font-size="13" lengthAdjust="spacing" textLength="90.9492" x="40.0874" y="201.6211">HTTP Request</text><polygon fill="#000000" points="369.4673,232.1499,379.4673,236.1499,369.4673,240.1499,373.4673,236.1499" style="stroke:#000000;stroke-width:1;"/><line style="stroke:#000000;stroke-width:1;" x1="223.5889" x2="375.4673" y1="236.1499" y2="236.1499"/><text fill="#000000" font-family="Verdana" font-size="13" lengthAdjust="spacing" textLength="96.7383" x="230.5889" y="231.4204">Validate Token</text><polygon fill="#000000" points="234.5889,261.9492,224.5889,265.9492,234.5889,269.9492,230.5889,265.9492" style="stroke:#000000;stroke-width:1;"/><line style="stroke:#000000;stroke-width:1;stroke-dasharray:2.0,2.0;" x1="228.5889" x2="385.4673" y1="265.9492" y2="265.9492"/><text fill="#000000" font-family="Verdana" font-size="13" lengthAdjust="spacing" textLength="76.064" x="240.5889" y="261.2197">Token Valid</text><polygon fill="#000000" points="501.0767,291.7485,511.0767,295.7485,501.0767,299.7485,505.0767,295.7485" style="stroke:#000000;stroke-width:1;"/><line style="stroke:#000000;stroke-width:1;" x1="223.5889" x2="507.0767" y1="295.7485" y2="295.7485"/><text fill="#000000" font-family="Verdana" font-size="13" lengthAdjust="spacing" textLength="110.5063" x="230.5889" y="291.019">Check Rate Limit</text><polygon fill="#000000" points="234.5889,321.5479,224.5889,325.5479,234.5889,329.5479,230.5889,325.5479" style="stroke:#000000;stroke-width:1;"/><line style="stroke:#000000;stroke-width:1;stroke-dasharray:2.0,2.0;" x1="228.5889" x2="517.0767" y1="325.5479" y2="325.5479"/><text fill="#000000" font-family="Verdana" font-size="13" lengthAdjust="spacing" textLength="78.2729" x="240.5889" y="320.8184">Within Limit</text><line style="stroke:#000000;stroke-width:1;" x1="223.5889" x2="265.5889" y1="367.6465" y2="367.6465"/><line style="stroke:#000000;stroke-width:1;" x1="265.5889" x2="265.5889" y1="367.6465" y2="380.6465"/><line style="stroke:#000000;stroke-width:1;" x1="224.5889" x2="265.5889" y1="380.6465" y2="380.6465"/><polygon fill="#000000" points="234.5889,376.6465,224.5889,380.6465,234.5889,384.6465,230.5889,380.6465" style="stroke:#000000;stroke-width:1;"/><text fill="#000000" font-family="Verdana" font-size="13" lengthAdjust="spacing" textLength="95.3418" x="230.5889" y="362.917">Route Request</text><path d="M347.3418,338.5479 L347.3418,395.5479 L629.3418,395.5479 L629.3418,348.5479 L619.3418,338.5479 L347.3418,338.5479 " fill="#FFFFFF" style="stroke:#000000;stroke-width:1;"/><path d="M619.3418,338.5479 L619.3418,348.5479 L629.3418,348.5479 L619.3418,338.5479 " fill="#FFFFFF" style="stroke:#000000;stroke-width:1;"/><text fill="#000000" font-family="Verdana" font-size="13" lengthAdjust="spacing" textLength="142.6255" x="353.3418" y="356.6177">Based on URL pattern</text><text fill="#000000" font-family="Verdana" font-size="13" lengthAdjust="spacing" textLength="261.8726" x="353.3418" y="372.417">/api/v1/customers -&gt; Customer Service</text><text fill="#000000" font-family="Verdana" font-size="13" lengthAdjust="spacing" textLength="210.1265" x="353.3418" y="388.2163">/api/v1/orders -&gt; Order Service</text><path d="M146.54,407.9458 L210.5894,407.9458 L210.5894,415.7451 L200.5894,425.7451 L146.54,425.7451 L146.54,407.9458 " fill="#FFFFFF" style="stroke:#000000;stroke-width:1;"/><rect fill="none" height="211.9639" style="stroke:#000000;stroke-width:1;" width="912.5356" x="146.54" y="407.9458"/><text fill="#000000" font-family="Verdana" font-size="13" font-weight="bold" lengthAdjust="spacing" textLength="19.0493" x="161.54" y="422.0156">alt</text><text fill="#000000" font-family="Verdana" font-size="11" font-weight="bold" lengthAdjust="spacing" textLength="125.2915" x="225.5894" y="421.0049">[Customer Request]</text><polygon fill="#000000" points="650.2202,443.5444,660.2202,447.5444,650.2202,451.5444,654.2202,447.5444" style="stroke:#000000;stroke-width:1;"/><line style="stroke:#000000;stroke-width:1;" x1="223.5889" x2="656.2202" y1="447.5444" y2="447.5444"/><text fill="#000000" font-family="Verdana" font-size="13" lengthAdjust="spacing" textLength="110.3223" x="230.5889" y="442.8149">Forward Request</text><polygon fill="#000000" points="234.5889,473.3438,224.5889,477.3438,234.5889,481.3438,230.5889,477.3438" style="stroke:#000000;stroke-width:1;"/><line style="stroke:#000000;stroke-width:1;stroke-dasharray:2.0,2.0;" x1="228.5889" x2="666.2202" y1="477.3438" y2="477.3438"/><text fill="#000000" font-family="Verdana" font-size="13" lengthAdjust="spacing" textLength="62.2896" x="240.5889" y="472.6143">Response</text><line style="stroke:#000000;stroke-width:1;stroke-dasharray:2.0,2.0;" x1="146.54" x2="1059.0757" y1="486.3438" y2="486.3438"/><text fill="#000000" font-family="Verdana" font-size="11" font-weight="bold" lengthAdjust="spacing" textLength="101.2773" x="151.54" y="497.4028">[Order Request]</text><polygon fill="#000000" points="804.7402,518.5117,814.7402,522.5117,804.7402,526.5117,808.7402,522.5117" style="stroke:#000000;stroke-width:1;"/><line style="stroke:#000000;stroke-width:1;" x1="223.5889" x2="810.7402" y1="522.5117" y2="522.5117"/><text fill="#000000" font-family="Verdana" font-size="13" lengthAdjust="spacing" textLength="110.3223" x="230.5889" y="517.7822">Forward Request</text><polygon fill="#000000" points="956.0576,548.311,966.0576,552.311,956.0576,556.311,960.0576,552.311" style="stroke:#000000;stroke-width:1;"/><line style="stroke:#000000;stroke-width:1;" x1="826.7402" x2="962.0576" y1="552.311" y2="552.311"/><text fill="#000000" font-family="Verdana" font-size="13" lengthAdjust="spacing" textLength="110.9888" x="833.7402" y="547.5815">Process Payment</text><polygon fill="#000000" points="837.7402,578.1104,827.7402,582.1104,837.7402,586.1104,833.7402,582.1104" style="stroke:#000000;stroke-width:1;"/><line style="stroke:#000000;stroke-width:1;stroke-dasharray:2.0,2.0;" x1="831.7402" x2="972.0576" y1="582.1104" y2="582.1104"/><text fill="#000000" font-family="Verdana" font-size="13" lengthAdjust="spacing" textLength="102.1211" x="843.7402" y="577.3809">Payment Result</text><polygon fill="#000000" points="234.5889,607.9097,224.5889,611.9097,234.5889,615.9097,230.5889,611.9097" style="stroke:#000000;stroke-width:1;"/><line style="stroke:#000000;stroke-width:1;stroke-dasharray:2.0,2.0;" x1="228.5889" x2="820.7402" y1="611.9097" y2="611.9097"/><text fill="#000000" font-family="Verdana" font-size="13" lengthAdjust="spacing" textLength="62.2896" x="240.5889" y="607.1802">Response</text><line style="stroke:#000000;stroke-width:1;" x1="223.5889" x2="265.5889" y1="648.709" y2="648.709"/><line style="stroke:#000000;stroke-width:1;" x1="265.5889" x2="265.5889" y1="648.709" y2="661.709"/><line style="stroke:#000000;stroke-width:1;" x1="224.5889" x2="265.5889" y1="661.709" y2="661.709"/><polygon fill="#000000" points="234.5889,657.709,224.5889,661.709,234.5889,665.709,230.5889,661.709" style="stroke:#000000;stroke-width:1;"/><text fill="#000000" font-family="Verdana" font-size="13" lengthAdjust="spacing" textLength="133.8784" x="230.5889" y="643.9795">Transform Response</text><polygon fill="#000000" points="44.0874,687.5083,34.0874,691.5083,44.0874,695.5083,40.0874,691.5083" style="stroke:#000000;stroke-width:1;"/><line style="stroke:#000000;stroke-width:1;stroke-dasharray:2.0,2.0;" x1="38.0874" x2="217.5889" y1="691.5083" y2="691.5083"/><text fill="#000000" font-family="Verdana" font-size="13" lengthAdjust="spacing" textLength="100.4897" x="50.0874" y="686.7788">HTTP Response</text><rect fill="#FFFFFF" height="3" style="stroke:#FFFFFF;stroke-width:1;" width="1064.0757" x="5" y="720.408"/><line style="stroke:#000000;stroke-width:0.5;" x1="5" x2="1069.0757" y1="720.408" y2="720.408"/><line style="stroke:#000000;stroke-width:0.5;" x1="5" x2="1069.0757" y1="723.408" y2="723.408"/><rect fill="#FFFFFF" height="23.7993" style="stroke:#000000;stroke-width:1;" width="125.2363" x="474.4197" y="709.5083"/><text fill="#000000" font-family="Verdana" font-size="13" font-weight="bold" lengthAdjust="spacing" textLength="106.793" x="480.4197" y="726.5781">Error Handling</text><polygon fill="#000000" points="201.5889,761.1069,211.5889,765.1069,201.5889,769.1069,205.5889,765.1069" style="stroke:#000000;stroke-width:1;"/><line style="stroke:#000000;stroke-width:1;" x1="33.0874" x2="207.5889" y1="765.1069" y2="765.1069"/><text fill="#000000" font-family="Verdana" font-size="13" lengthAdjust="spacing" textLength="101.7529" x="40.0874" y="760.3774">Invalid Request</text><polygon fill="#000000" points="369.4673,790.9063,379.4673,794.9063,369.4673,798.9063,373.4673,794.9063" style="stroke:#000000;stroke-width:1;"/><line style="stroke:#000000;stroke-width:1;" x1="223.5889" x2="375.4673" y1="794.9063" y2="794.9063"/><text fill="#000000" font-family="Verdana" font-size="13" lengthAdjust="spacing" textLength="96.7383" x="230.5889" y="790.1768">Validate Token</text><polygon fill="#000000" points="234.5889,820.7056,224.5889,824.7056,234.5889,828.7056,230.5889,824.7056" style="stroke:#000000;stroke-width:1;"/><line style="stroke:#000000;stroke-width:1;stroke-dasharray:2.0,2.0;" x1="228.5889" x2="385.4673" y1="824.7056" y2="824.7056"/><text fill="#000000" font-family="Verdana" font-size="13" lengthAdjust="spacing" textLength="88.5688" x="240.5889" y="819.9761">Token Invalid</text><polygon fill="#000000" points="44.0874,850.5049,34.0874,854.5049,44.0874,858.5049,40.0874,854.5049" style="stroke:#000000;stroke-width:1;"/><line style="stroke:#000000;stroke-width:1;stroke-dasharray:2.0,2.0;" x1="38.0874" x2="217.5889" y1="854.5049" y2="854.5049"/><text fill="#000000" font-family="Verdana" font-size="13" lengthAdjust="spacing" textLength="116.1685" x="50.0874" y="849.7754">401 Unauthorized</text><rect fill="#FFFFFF" height="3" style="stroke:#FFFFFF;stroke-width:1;" width="1064.0757" x="5" y="883.4045"/><line style="stroke:#000000;stroke-width:0.5;" x1="5" x2="1069.0757" y1="883.4045" y2="883.4045"/><line style="stroke:#000000;stroke-width:0.5;" x1="5" x2="1069.0757" y1="886.4045" y2="886.4045"/><rect fill="#FFFFFF" height="23.7993" style="stroke:#000000;stroke-width:1;" width="115.937" x="479.0693" y="872.5049"/><text fill="#000000" font-family="Verdana" font-size="13" font-weight="bold" lengthAdjust="spacing" textLength="97.4937" x="485.0693" y="889.5747">Rate Limiting</text><polygon fill="#000000" points="201.5889,924.1035,211.5889,928.1035,201.5889,932.1035,205.5889,928.1035" style="stroke:#000000;stroke-width:1;"/><line style="stroke:#000000;stroke-width:1;" x1="33.0874" x2="207.5889" y1="928.1035" y2="928.1035"/><text fill="#000000" font-family="Verdana" font-size="13" lengthAdjust="spacing" textLength="127.0737" x="40.0874" y="923.374">Excessive Requests</text><polygon fill="#000000" points="501.0767,953.9028,511.0767,957.9028,501.0767,961.9028,505.0767,957.9028" style="stroke:#000000;stroke-width:1;"/><line style="stroke:#000000;stroke-width:1;" x1="223.5889" x2="507.0767" y1="957.9028" y2="957.9028"/><text fill="#000000" font-family="Verdana" font-size="13" lengthAdjust="spacing" textLength="110.5063" x="230.5889" y="953.1733">Check Rate Limit</text><polygon fill="#000000" points="234.5889,983.7021,224.5889,987.7021,234.5889,991.7021,230.5889,987.7021" style="stroke:#000000;stroke-width:1;"/><line style="stroke:#000000;stroke-width:1;stroke-dasharray:2.0,2.0;" x1="228.5889" x2="517.0767" y1="987.7021" y2="987.7021"/><text fill="#000000" font-family="Verdana" font-size="13" lengthAdjust="spacing" textLength="133.1104" x="240.5889" y="982.9727">Rate Limit Exceeded</text><polygon fill="#000000" points="44.0874,1013.5015,34.0874,1017.5015,44.0874,1021.5015,40.0874,1017.5015" style="stroke:#000000;stroke-width:1;"/><line style="stroke:#000000;stroke-width:1;stroke-dasharray:2.0,2.0;" x1="38.0874" x2="217.5889" y1="1017.5015" y2="1017.5015"/><text fill="#000000" font-family="Verdana" font-size="13" lengthAdjust="spacing" textLength="156.5015" x="50.0874" y="1012.772">429 Too Many Requests</text><!--SRC=[lPJ1ZjCm48RlUOgXzweiuW9IaQ1Qs4gBY48NBboiP6YiTUnWkrdAqpDnxDWkkn4I4hTq-lsU-SSpVcPRx11wmRWiBBS2uMsvXm_CuWCxGyciHIrXt_M2E6cPvKeM1Qkjqh3Q2Kwn5J03jViiUgOjhtdFf8LLSf9ZZjFt1NIoBNn6FV0Q7SKea2CLwU2MTvngSOYOldDgTp9MTQYpmseVpD5FkhdWr1Z9ePATHySPra-nejXkeS8V9pGMIgrgD8RB8sotHJ4r0jPlWbru3JU7GnduiNTy61s5TXG19CredWHVcE3Do1pKFSeeSRrnp3fBuB19LJIOu-dnld6asBLOtqFiRCmHcXlOFDDNRbiklIP95LHfjgYgr8cOq06fw8VcnzRIN- -OmGQKXBlgblhhvksRtB2URuQhJRW_CvvtUSCHSzVdcEngQL25ZRAG7o0fCcIWKjuh_S1qat2plNcE80honbHeUYKD4f6qPTQXCEYBUxGCvs2vXcb6mQEayTD8AZ-3u6SsLVLpAE3h95qOSgh-96nUUrJwZ7_XTweHPVF481mqa-QxqbtKpznu6TFop1lZaIJ1l3IqWTTQqojqmsGZbhPlBuTnCVx30lfC2okOUdpv_0hkv0WepNzXyvJDkAHBBgz_kbTecDVCB1lzzwSWAbnoR78BVxu8cVaNhwXf2ZuoUOuLFzA1tm00]--></g></svg>