<svg xmlns="http://www.w3.org/2000/svg" xmlns:xlink="http://www.w3.org/1999/xlink" contentStyleType="text/css" height="963px" preserveAspectRatio="none" style="width:670px;height:963px;background:#FFFFFF;" version="1.1" viewBox="0 0 670 963" width="670px" zoomAndPan="magnify"><title>Circuit Breaker Pattern - Request Flow</title><defs/><g><text fill="#000000" font-family="Verdana" font-size="22" font-weight="bold" lengthAdjust="spacing" textLength="477.1143" x="95.4036" y="37.1182">Circuit Breaker Pattern - Request Flow</text><rect fill="#FFFFFF" height="89.3979" style="stroke:#000000;stroke-width:1;" width="10" x="215.2148" y="160.3506"/><rect fill="#FFFFFF" height="132.1973" style="stroke:#000000;stroke-width:1;" width="10" x="215.2148" y="323.3472"/><rect fill="#FFFFFF" height="132.1973" style="stroke:#000000;stroke-width:1;" width="10" x="215.2148" y="529.1431"/><rect fill="#FFFFFF" height="174.9966" style="stroke:#000000;stroke-width:1;" width="10" x="215.2148" y="734.939"/><rect fill="#FFFFFF" height="29.7993" style="stroke:#000000;stroke-width:1;" width="10" x="425.4067" y="190.1499"/><rect fill="#FFFFFF" height="29.7993" style="stroke:#000000;stroke-width:1;" width="10" x="425.4067" y="353.1465"/><rect fill="#FFFFFF" height="29.7993" style="stroke:#000000;stroke-width:1;" width="10" x="425.4067" y="807.5376"/><rect fill="#FFFFFF" height="29.7993" style="stroke:#000000;stroke-width:1;" width="10" x="578.7031" y="601.7417"/><line style="stroke:#000000;stroke-width:1;" x1="75" x2="75" y1="84.752" y2="927.9355"/><line style="stroke:#000000;stroke-width:1;" x1="219.7422" x2="219.7422" y1="84.752" y2="927.9355"/><line style="stroke:#000000;stroke-width:1;" x1="430.3286" x2="430.3286" y1="84.752" y2="927.9355"/><line style="stroke:#000000;stroke-width:1;" x1="583.4849" x2="583.4849" y1="84.752" y2="927.9355"/><rect fill="#FFFFFF" height="31.0146" rx="2.5" ry="2.5" style="stroke:#000000;stroke-width:1;" width="110.7422" x="20" y="52.7373"/><text fill="#000000" font-family="Verdana" font-size="14" lengthAdjust="spacing" textLength="96.7422" x="27" y="73.8125">Client Service</text><rect fill="#FFFFFF" height="31.0146" rx="2.5" ry="2.5" style="stroke:#000000;stroke-width:1;" width="110.7422" x="20" y="926.9355"/><text fill="#000000" font-family="Verdana" font-size="14" lengthAdjust="spacing" textLength="96.7422" x="27" y="948.0107">Client Service</text><rect fill="#FFFFFF" height="31.0146" rx="2.5" ry="2.5" style="stroke:#000000;stroke-width:1;" width="118.9453" x="160.7422" y="52.7373"/><text fill="#000000" font-family="Verdana" font-size="14" lengthAdjust="spacing" textLength="104.9453" x="167.7422" y="73.8125">Circuit Breaker</text><rect fill="#FFFFFF" height="31.0146" rx="2.5" ry="2.5" style="stroke:#000000;stroke-width:1;" width="118.9453" x="160.7422" y="926.9355"/><text fill="#000000" font-family="Verdana" font-size="14" lengthAdjust="spacing" textLength="104.9453" x="167.7422" y="948.0107">Circuit Breaker</text><rect fill="#FFFFFF" height="31.0146" rx="2.5" ry="2.5" style="stroke:#000000;stroke-width:1;" width="116.1563" x="372.3286" y="52.7373"/><text fill="#000000" font-family="Verdana" font-size="14" lengthAdjust="spacing" textLength="102.1563" x="379.3286" y="73.8125">Target Service</text><rect fill="#FFFFFF" height="31.0146" rx="2.5" ry="2.5" style="stroke:#000000;stroke-width:1;" width="116.1563" x="372.3286" y="926.9355"/><text fill="#000000" font-family="Verdana" font-size="14" lengthAdjust="spacing" textLength="102.1563" x="379.3286" y="948.0107">Target Service</text><rect fill="#FFFFFF" height="31.0146" rx="2.5" ry="2.5" style="stroke:#000000;stroke-width:1;" width="130.4365" x="518.4849" y="52.7373"/><text fill="#000000" font-family="Verdana" font-size="14" lengthAdjust="spacing" textLength="116.4365" x="525.4849" y="73.8125">Fallback Handler</text><rect fill="#FFFFFF" height="31.0146" rx="2.5" ry="2.5" style="stroke:#000000;stroke-width:1;" width="130.4365" x="518.4849" y="926.9355"/><text fill="#000000" font-family="Verdana" font-size="14" lengthAdjust="spacing" textLength="116.4365" x="525.4849" y="948.0107">Fallback Handler</text><rect fill="#FFFFFF" height="89.3979" style="stroke:#000000;stroke-width:1;" width="10" x="215.2148" y="160.3506"/><rect fill="#FFFFFF" height="132.1973" style="stroke:#000000;stroke-width:1;" width="10" x="215.2148" y="323.3472"/><rect fill="#FFFFFF" height="132.1973" style="stroke:#000000;stroke-width:1;" width="10" x="215.2148" y="529.1431"/><rect fill="#FFFFFF" height="174.9966" style="stroke:#000000;stroke-width:1;" width="10" x="215.2148" y="734.939"/><rect fill="#FFFFFF" height="29.7993" style="stroke:#000000;stroke-width:1;" width="10" x="425.4067" y="190.1499"/><rect fill="#FFFFFF" height="29.7993" style="stroke:#000000;stroke-width:1;" width="10" x="425.4067" y="353.1465"/><rect fill="#FFFFFF" height="29.7993" style="stroke:#000000;stroke-width:1;" width="10" x="425.4067" y="807.5376"/><rect fill="#FFFFFF" height="29.7993" style="stroke:#000000;stroke-width:1;" width="10" x="578.7031" y="601.7417"/><rect fill="#FFFFFF" height="3" style="stroke:#FFFFFF;stroke-width:1;" width="658.9214" x="5" y="115.6516"/><line style="stroke:#000000;stroke-width:0.5;" x1="5" x2="663.9214" y1="115.6516" y2="115.6516"/><line style="stroke:#000000;stroke-width:0.5;" x1="5" x2="663.9214" y1="118.6516" y2="118.6516"/><rect fill="#FFFFFF" height="23.7993" style="stroke:#000000;stroke-width:1;" width="258.2578" x="205.3318" y="104.752"/><text fill="#000000" font-family="Verdana" font-size="13" font-weight="bold" lengthAdjust="spacing" textLength="239.8145" x="211.3318" y="121.8218">Normal Operation (Closed State)</text><polygon fill="#000000" points="203.2148,156.3506,213.2148,160.3506,203.2148,164.3506,207.2148,160.3506" style="stroke:#000000;stroke-width:1;"/><line style="stroke:#000000;stroke-width:1;" x1="75.3711" x2="209.2148" y1="160.3506" y2="160.3506"/><text fill="#000000" font-family="Verdana" font-size="13" lengthAdjust="spacing" textLength="76.5464" x="82.3711" y="155.6211">Service Call</text><polygon fill="#000000" points="413.4067,186.1499,423.4067,190.1499,413.4067,194.1499,417.4067,190.1499" style="stroke:#000000;stroke-width:1;"/><line style="stroke:#000000;stroke-width:1;" x1="225.2148" x2="419.4067" y1="190.1499" y2="190.1499"/><text fill="#000000" font-family="Verdana" font-size="13" lengthAdjust="spacing" textLength="110.3223" x="232.2148" y="185.4204">Forward Request</text><polygon fill="#000000" points="236.2148,215.9492,226.2148,219.9492,236.2148,223.9492,232.2148,219.9492" style="stroke:#000000;stroke-width:1;"/><line style="stroke:#000000;stroke-width:1;stroke-dasharray:2.0,2.0;" x1="230.2148" x2="429.4067" y1="219.9492" y2="219.9492"/><text fill="#000000" font-family="Verdana" font-size="13" lengthAdjust="spacing" textLength="118.8091" x="242.2148" y="215.2197">Success Response</text><polygon fill="#000000" points="86.3711,245.7485,76.3711,249.7485,86.3711,253.7485,82.3711,249.7485" style="stroke:#000000;stroke-width:1;"/><line style="stroke:#000000;stroke-width:1;stroke-dasharray:2.0,2.0;" x1="80.3711" x2="219.2148" y1="249.7485" y2="249.7485"/><text fill="#000000" font-family="Verdana" font-size="13" lengthAdjust="spacing" textLength="110.7666" x="92.3711" y="245.019">Return Response</text><rect fill="#FFFFFF" height="3" style="stroke:#FFFFFF;stroke-width:1;" width="658.9214" x="5" y="278.6482"/><line style="stroke:#000000;stroke-width:0.5;" x1="5" x2="663.9214" y1="278.6482" y2="278.6482"/><line style="stroke:#000000;stroke-width:0.5;" x1="5" x2="663.9214" y1="281.6482" y2="281.6482"/><rect fill="#FFFFFF" height="23.7993" style="stroke:#000000;stroke-width:1;" width="143.4478" x="262.7368" y="267.7485"/><text fill="#000000" font-family="Verdana" font-size="13" font-weight="bold" lengthAdjust="spacing" textLength="125.0044" x="268.7368" y="284.8184">Failure Detection</text><polygon fill="#000000" points="203.2148,319.3472,213.2148,323.3472,203.2148,327.3472,207.2148,323.3472" style="stroke:#000000;stroke-width:1;"/><line style="stroke:#000000;stroke-width:1;" x1="75.3711" x2="209.2148" y1="323.3472" y2="323.3472"/><text fill="#000000" font-family="Verdana" font-size="13" lengthAdjust="spacing" textLength="76.5464" x="82.3711" y="318.6177">Service Call</text><polygon fill="#000000" points="413.4067,349.1465,423.4067,353.1465,413.4067,357.1465,417.4067,353.1465" style="stroke:#000000;stroke-width:1;"/><line style="stroke:#000000;stroke-width:1;" x1="225.2148" x2="419.4067" y1="353.1465" y2="353.1465"/><text fill="#000000" font-family="Verdana" font-size="13" lengthAdjust="spacing" textLength="110.3223" x="232.2148" y="348.417">Forward Request</text><polygon fill="#000000" points="236.2148,378.9458,226.2148,382.9458,236.2148,386.9458,232.2148,382.9458" style="stroke:#000000;stroke-width:1;"/><line style="stroke:#000000;stroke-width:1;stroke-dasharray:2.0,2.0;" x1="230.2148" x2="429.4067" y1="382.9458" y2="382.9458"/><text fill="#000000" font-family="Verdana" font-size="13" lengthAdjust="spacing" textLength="99.6138" x="242.2148" y="378.2163">Error Response</text><line style="stroke:#000000;stroke-width:1;" x1="225.2148" x2="267.2148" y1="412.7451" y2="412.7451"/><line style="stroke:#000000;stroke-width:1;" x1="267.2148" x2="267.2148" y1="412.7451" y2="425.7451"/><line style="stroke:#000000;stroke-width:1;" x1="226.2148" x2="267.2148" y1="425.7451" y2="425.7451"/><polygon fill="#000000" points="236.2148,421.7451,226.2148,425.7451,236.2148,429.7451,232.2148,425.7451" style="stroke:#000000;stroke-width:1;"/><text fill="#000000" font-family="Verdana" font-size="13" lengthAdjust="spacing" textLength="159.1167" x="232.2148" y="408.0156">Increment Failure Count</text><polygon fill="#000000" points="86.3711,451.5444,76.3711,455.5444,86.3711,459.5444,82.3711,455.5444" style="stroke:#000000;stroke-width:1;"/><line style="stroke:#000000;stroke-width:1;stroke-dasharray:2.0,2.0;" x1="80.3711" x2="219.2148" y1="455.5444" y2="455.5444"/><text fill="#000000" font-family="Verdana" font-size="13" lengthAdjust="spacing" textLength="81.231" x="92.3711" y="450.8149">Return Error</text><rect fill="#FFFFFF" height="3" style="stroke:#FFFFFF;stroke-width:1;" width="658.9214" x="5" y="484.4441"/><line style="stroke:#000000;stroke-width:0.5;" x1="5" x2="663.9214" y1="484.4441" y2="484.4441"/><line style="stroke:#000000;stroke-width:0.5;" x1="5" x2="663.9214" y1="487.4441" y2="487.4441"/><rect fill="#FFFFFF" height="23.7993" style="stroke:#000000;stroke-width:1;" width="188.3257" x="240.2979" y="473.5444"/><text fill="#000000" font-family="Verdana" font-size="13" font-weight="bold" lengthAdjust="spacing" textLength="169.8823" x="246.2979" y="490.6143">Circuit Open (Fast Fail)</text><polygon fill="#000000" points="203.2148,525.1431,213.2148,529.1431,203.2148,533.1431,207.2148,529.1431" style="stroke:#000000;stroke-width:1;"/><line style="stroke:#000000;stroke-width:1;" x1="75.3711" x2="209.2148" y1="529.1431" y2="529.1431"/><text fill="#000000" font-family="Verdana" font-size="13" lengthAdjust="spacing" textLength="76.5464" x="82.3711" y="524.4136">Service Call</text><line style="stroke:#000000;stroke-width:1;" x1="225.2148" x2="267.2148" y1="558.9424" y2="558.9424"/><line style="stroke:#000000;stroke-width:1;" x1="267.2148" x2="267.2148" y1="558.9424" y2="571.9424"/><line style="stroke:#000000;stroke-width:1;" x1="226.2148" x2="267.2148" y1="571.9424" y2="571.9424"/><polygon fill="#000000" points="236.2148,567.9424,226.2148,571.9424,236.2148,575.9424,232.2148,571.9424" style="stroke:#000000;stroke-width:1;"/><text fill="#000000" font-family="Verdana" font-size="13" lengthAdjust="spacing" textLength="134.564" x="232.2148" y="554.2129">Check State = OPEN</text><polygon fill="#000000" points="566.7031,597.7417,576.7031,601.7417,566.7031,605.7417,570.7031,601.7417" style="stroke:#000000;stroke-width:1;"/><line style="stroke:#000000;stroke-width:1;" x1="225.2148" x2="572.7031" y1="601.7417" y2="601.7417"/><text fill="#000000" font-family="Verdana" font-size="13" lengthAdjust="spacing" textLength="108.8813" x="232.2148" y="597.0122">Execute Fallback</text><polygon fill="#000000" points="236.2148,627.541,226.2148,631.541,236.2148,635.541,232.2148,631.541" style="stroke:#000000;stroke-width:1;"/><line style="stroke:#000000;stroke-width:1;stroke-dasharray:2.0,2.0;" x1="230.2148" x2="582.7031" y1="631.541" y2="631.541"/><text fill="#000000" font-family="Verdana" font-size="13" lengthAdjust="spacing" textLength="119.647" x="242.2148" y="626.8115">Fallback Response</text><polygon fill="#000000" points="86.3711,657.3403,76.3711,661.3403,86.3711,665.3403,82.3711,661.3403" style="stroke:#000000;stroke-width:1;"/><line style="stroke:#000000;stroke-width:1;stroke-dasharray:2.0,2.0;" x1="80.3711" x2="219.2148" y1="661.3403" y2="661.3403"/><text fill="#000000" font-family="Verdana" font-size="13" lengthAdjust="spacing" textLength="101.2642" x="92.3711" y="656.6108">Return Fallback</text><rect fill="#FFFFFF" height="3" style="stroke:#FFFFFF;stroke-width:1;" width="658.9214" x="5" y="690.24"/><line style="stroke:#000000;stroke-width:0.5;" x1="5" x2="663.9214" y1="690.24" y2="690.24"/><line style="stroke:#000000;stroke-width:0.5;" x1="5" x2="663.9214" y1="693.24" y2="693.24"/><rect fill="#FFFFFF" height="23.7993" style="stroke:#000000;stroke-width:1;" width="150.5889" x="259.1663" y="679.3403"/><text fill="#000000" font-family="Verdana" font-size="13" font-weight="bold" lengthAdjust="spacing" textLength="132.1455" x="265.1663" y="696.4102">Half-Open Testing</text><polygon fill="#000000" points="203.2148,730.939,213.2148,734.939,203.2148,738.939,207.2148,734.939" style="stroke:#000000;stroke-width:1;"/><line style="stroke:#000000;stroke-width:1;" x1="75.3711" x2="209.2148" y1="734.939" y2="734.939"/><text fill="#000000" font-family="Verdana" font-size="13" lengthAdjust="spacing" textLength="76.5464" x="82.3711" y="730.2095">Service Call</text><line style="stroke:#000000;stroke-width:1;" x1="225.2148" x2="267.2148" y1="764.7383" y2="764.7383"/><line style="stroke:#000000;stroke-width:1;" x1="267.2148" x2="267.2148" y1="764.7383" y2="777.7383"/><line style="stroke:#000000;stroke-width:1;" x1="226.2148" x2="267.2148" y1="777.7383" y2="777.7383"/><polygon fill="#000000" points="236.2148,773.7383,226.2148,777.7383,236.2148,781.7383,232.2148,777.7383" style="stroke:#000000;stroke-width:1;"/><text fill="#000000" font-family="Verdana" font-size="13" lengthAdjust="spacing" textLength="176.1919" x="232.2148" y="760.0088">Check State = HALF_OPEN</text><polygon fill="#000000" points="413.4067,803.5376,423.4067,807.5376,413.4067,811.5376,417.4067,807.5376" style="stroke:#000000;stroke-width:1;"/><line style="stroke:#000000;stroke-width:1;" x1="225.2148" x2="419.4067" y1="807.5376" y2="807.5376"/><text fill="#000000" font-family="Verdana" font-size="13" lengthAdjust="spacing" textLength="84.9697" x="232.2148" y="802.8081">Test Request</text><polygon fill="#000000" points="236.2148,833.3369,226.2148,837.3369,236.2148,841.3369,232.2148,837.3369" style="stroke:#000000;stroke-width:1;"/><line style="stroke:#000000;stroke-width:1;stroke-dasharray:2.0,2.0;" x1="230.2148" x2="429.4067" y1="837.3369" y2="837.3369"/><text fill="#000000" font-family="Verdana" font-size="13" lengthAdjust="spacing" textLength="118.8091" x="242.2148" y="832.6074">Success Response</text><line style="stroke:#000000;stroke-width:1;" x1="225.2148" x2="267.2148" y1="867.1362" y2="867.1362"/><line style="stroke:#000000;stroke-width:1;" x1="267.2148" x2="267.2148" y1="867.1362" y2="880.1362"/><line style="stroke:#000000;stroke-width:1;" x1="226.2148" x2="267.2148" y1="880.1362" y2="880.1362"/><polygon fill="#000000" points="236.2148,876.1362,226.2148,880.1362,236.2148,884.1362,232.2148,880.1362" style="stroke:#000000;stroke-width:1;"/><text fill="#000000" font-family="Verdana" font-size="13" lengthAdjust="spacing" textLength="167.1338" x="232.2148" y="862.4067">Increment Success Count</text><polygon fill="#000000" points="86.3711,905.9355,76.3711,909.9355,86.3711,913.9355,82.3711,909.9355" style="stroke:#000000;stroke-width:1;"/><line style="stroke:#000000;stroke-width:1;stroke-dasharray:2.0,2.0;" x1="80.3711" x2="219.2148" y1="909.9355" y2="909.9355"/><text fill="#000000" font-family="Verdana" font-size="13" lengthAdjust="spacing" textLength="110.7666" x="92.3711" y="905.2061">Return Response</text><!--SRC=[nLD1Ri8m4Bpx5LjExI4VG4gbDYMYKWMeSAyMPm4BOwUs0tr-JH8RWe3sKDHJ8cjcTdOyldChsX2K4eLYJZX9a0d3A-7WsH2koS04dIEZ885t-gp8EiYbtZ5Med62YnALWruc1VdlbCnMSEe1Mk3rqGcigrtZvir_5pX3iwIkdgkFkh0SfPmZNyCGLI5RmKLxo5YQmaYR3KeObsJG2QtWFfFQKW5JXuuU84qPQvn2yXYyG3zCXioBCUHER3qyUWquJsbiUKQkpGvD4L8wa5hZBJ3fZgau9sizoPPQMM85dVBYB4zidVOztbN-JixHWiVzzZaAMHc25tB4w_N_UT-1CThyQjjZrglYnjVKUmuBPRfIrwEf9rtA9VJGry8t8aVRAFz17GwKR4M-c7ND88NnP30wneMIxZFv8bvvK2ZpGJysEQAxQSRwdmiqag-b56TU26g8Sf7KASty7Gkrl5r2mwUt_ECqfjYs_VZRFQtpPGiAFvVjsZly1W00]--></g></svg>