<svg xmlns="http://www.w3.org/2000/svg" xmlns:xlink="http://www.w3.org/1999/xlink" contentStyleType="text/css" height="723px" preserveAspectRatio="none" style="width:1852px;height:723px;background:#FFFFFF;" version="1.1" viewBox="0 0 1852 723" width="1852px" zoomAndPan="magnify"><title>Microservices Architecture Overview</title><defs/><g><text fill="#000000" font-family="Verdana" font-size="22" font-weight="bold" lengthAdjust="spacing" textLength="452.9014" x="695.1035" y="37.1182">Microservices Architecture Overview</text><!--cluster Client Layer--><g id="cluster_Client Layer"><path d="M764.35,58.7373 L859.1254,58.7373 A3.75,3.75 0 0 1 861.6254,61.2373 L868.6254,81.752 L1198.35,81.752 A2.5,2.5 0 0 1 1200.85,84.252 L1200.85,155.2573 A2.5,2.5 0 0 1 1198.35,157.7573 L764.35,157.7573 A2.5,2.5 0 0 1 761.85,155.2573 L761.85,61.2373 A2.5,2.5 0 0 1 764.35,58.7373 " fill="#FFFFFF" style="stroke:#000000;stroke-width:1;"/><line style="stroke:#000000;stroke-width:1;" x1="761.85" x2="868.6254" y1="81.752" y2="81.752"/><text fill="#000000" font-family="Verdana" font-size="14" font-weight="bold" lengthAdjust="spacing" textLength="93.7754" x="765.85" y="74.8125">Client Layer</text></g><!--cluster API Gateway Layer--><g id="cluster_API Gateway Layer"><path d="M893.35,190.7573 L1044.891,190.7573 A3.75,3.75 0 0 1 1047.391,193.2573 L1054.391,213.772 L1054.35,213.772 A2.5,2.5 0 0 1 1056.85,216.272 L1056.85,287.2673 A2.5,2.5 0 0 1 1054.35,289.7673 L893.35,289.7673 A2.5,2.5 0 0 1 890.85,287.2673 L890.85,193.2573 A2.5,2.5 0 0 1 893.35,190.7573 " fill="#FFFFFF" style="stroke:#000000;stroke-width:1;"/><line style="stroke:#000000;stroke-width:1;" x1="890.85" x2="1054.391" y1="213.772" y2="213.772"/><text fill="#000000" font-family="Verdana" font-size="14" font-weight="bold" lengthAdjust="spacing" textLength="150.541" x="894.85" y="206.8325">API Gateway Layer</text></g><!--cluster Microservices Layer--><g id="cluster_Microservices Layer"><path d="M33.35,349.8573 L189.9223,349.8573 A3.75,3.75 0 0 1 192.4223,352.3573 L199.4223,372.872 L829.35,372.872 A2.5,2.5 0 0 1 831.85,375.372 L831.85,583.4873 A2.5,2.5 0 0 1 829.35,585.9873 L33.35,585.9873 A2.5,2.5 0 0 1 30.85,583.4873 L30.85,352.3573 A2.5,2.5 0 0 1 33.35,349.8573 " fill="#FFFFFF" style="stroke:#000000;stroke-width:1;"/><line style="stroke:#000000;stroke-width:1;" x1="30.85" x2="199.4223" y1="372.872" y2="372.872"/><text fill="#000000" font-family="Verdana" font-size="14" font-weight="bold" lengthAdjust="spacing" textLength="155.5723" x="34.85" y="365.9325">Microservices Layer</text></g><!--cluster Data Layer--><g id="cluster_Data Layer"><path d="M187.35,618.9873 L273.4779,618.9873 A3.75,3.75 0 0 1 275.9779,621.4873 L282.9779,642.002 L738.35,642.002 A2.5,2.5 0 0 1 740.85,644.502 L740.85,714.4973 A2.5,2.5 0 0 1 738.35,716.9973 L187.35,716.9973 A2.5,2.5 0 0 1 184.85,714.4973 L184.85,621.4873 A2.5,2.5 0 0 1 187.35,618.9873 " fill="#FFFFFF" style="stroke:#000000;stroke-width:1;"/><line style="stroke:#000000;stroke-width:1;" x1="184.85" x2="282.9779" y1="642.002" y2="642.002"/><text fill="#000000" font-family="Verdana" font-size="14" font-weight="bold" lengthAdjust="spacing" textLength="85.1279" x="188.85" y="635.0625">Data Layer</text></g><!--cluster Infrastructure Layer--><g id="cluster_Infrastructure Layer"><path d="M965.35,349.8573 L1127.0766,349.8573 A3.75,3.75 0 0 1 1129.5766,352.3573 L1136.5766,372.872 L1661.35,372.872 A2.5,2.5 0 0 1 1663.85,375.372 L1663.85,446.3773 A2.5,2.5 0 0 1 1661.35,448.8773 L965.35,448.8773 A2.5,2.5 0 0 1 962.85,446.3773 L962.85,352.3573 A2.5,2.5 0 0 1 965.35,349.8573 " fill="#FFFFFF" style="stroke:#000000;stroke-width:1;"/><line style="stroke:#000000;stroke-width:1;" x1="962.85" x2="1136.5766" y1="372.872" y2="372.872"/><text fill="#000000" font-family="Verdana" font-size="14" font-weight="bold" lengthAdjust="spacing" textLength="160.7266" x="966.85" y="365.9325">Infrastructure Layer</text></g><!--entity web--><g id="elem_web"><rect fill="#FFFFFF" height="47.0146" rx="2.5" ry="2.5" style="stroke:#000000;stroke-width:1;" width="102.8428" x="777.43" y="94.7373"/><rect fill="#FFFFFF" height="10" style="stroke:#000000;stroke-width:1;" width="15" x="860.2728" y="99.7373"/><rect fill="#FFFFFF" height="2" style="stroke:#000000;stroke-width:1;" width="4" x="858.2728" y="101.7373"/><rect fill="#FFFFFF" height="2" style="stroke:#000000;stroke-width:1;" width="4" x="858.2728" y="105.7373"/><text fill="#000000" font-family="Verdana" font-size="14" lengthAdjust="spacing" textLength="62.8428" x="792.43" y="128.8125">Web App</text></g><!--entity mobile--><g id="elem_mobile"><rect fill="#FFFFFF" height="47.0146" rx="2.5" ry="2.5" style="stroke:#000000;stroke-width:1;" width="116.9795" x="915.36" y="94.7373"/><rect fill="#FFFFFF" height="10" style="stroke:#000000;stroke-width:1;" width="15" x="1012.3395" y="99.7373"/><rect fill="#FFFFFF" height="2" style="stroke:#000000;stroke-width:1;" width="4" x="1010.3395" y="101.7373"/><rect fill="#FFFFFF" height="2" style="stroke:#000000;stroke-width:1;" width="4" x="1010.3395" y="105.7373"/><text fill="#000000" font-family="Verdana" font-size="14" lengthAdjust="spacing" textLength="76.9795" x="930.36" y="128.8125">Mobile App</text></g><!--entity thirdparty--><g id="elem_thirdparty"><rect fill="#FFFFFF" height="47.0146" rx="2.5" ry="2.5" style="stroke:#000000;stroke-width:1;" width="117.5742" x="1067.06" y="94.7373"/><rect fill="#FFFFFF" height="10" style="stroke:#000000;stroke-width:1;" width="15" x="1164.6342" y="99.7373"/><rect fill="#FFFFFF" height="2" style="stroke:#000000;stroke-width:1;" width="4" x="1162.6342" y="101.7373"/><rect fill="#FFFFFF" height="2" style="stroke:#000000;stroke-width:1;" width="4" x="1162.6342" y="105.7373"/><text fill="#000000" font-family="Verdana" font-size="14" lengthAdjust="spacing" textLength="77.5742" x="1082.06" y="128.8125">Third Party</text></g><!--entity gateway--><g id="elem_gateway"><rect fill="#FFFFFF" height="47.0146" rx="2.5" ry="2.5" style="stroke:#000000;stroke-width:1;" width="130.0977" x="908.8" y="226.7573"/><rect fill="#FFFFFF" height="10" style="stroke:#000000;stroke-width:1;" width="15" x="1018.8977" y="231.7573"/><rect fill="#FFFFFF" height="2" style="stroke:#000000;stroke-width:1;" width="4" x="1016.8977" y="233.7573"/><rect fill="#FFFFFF" height="2" style="stroke:#000000;stroke-width:1;" width="4" x="1016.8977" y="237.7573"/><text fill="#000000" font-family="Verdana" font-size="14" lengthAdjust="spacing" textLength="90.0977" x="923.8" y="260.8325">API Gateway</text></g><!--entity customer--><g id="elem_customer"><rect fill="#FFFFFF" height="47.0146" rx="2.5" ry="2.5" style="stroke:#000000;stroke-width:1;" width="164.4414" x="450.63" y="522.9673"/><rect fill="#FFFFFF" height="10" style="stroke:#000000;stroke-width:1;" width="15" x="595.0714" y="527.9673"/><rect fill="#FFFFFF" height="2" style="stroke:#000000;stroke-width:1;" width="4" x="593.0714" y="529.9673"/><rect fill="#FFFFFF" height="2" style="stroke:#000000;stroke-width:1;" width="4" x="593.0714" y="533.9673"/><text fill="#000000" font-family="Verdana" font-size="14" lengthAdjust="spacing" textLength="124.4414" x="465.63" y="557.0425">Customer Service</text></g><!--entity order--><g id="elem_order"><rect fill="#FFFFFF" height="47.0146" rx="2.5" ry="2.5" style="stroke:#000000;stroke-width:1;" width="136.5986" x="328.55" y="385.8573"/><rect fill="#FFFFFF" height="10" style="stroke:#000000;stroke-width:1;" width="15" x="445.1486" y="390.8573"/><rect fill="#FFFFFF" height="2" style="stroke:#000000;stroke-width:1;" width="4" x="443.1486" y="392.8573"/><rect fill="#FFFFFF" height="2" style="stroke:#000000;stroke-width:1;" width="4" x="443.1486" y="396.8573"/><text fill="#000000" font-family="Verdana" font-size="14" lengthAdjust="spacing" textLength="96.5986" x="343.55" y="419.9325">Order Service</text></g><!--entity payment--><g id="elem_payment"><rect fill="#FFFFFF" height="47.0146" rx="2.5" ry="2.5" style="stroke:#000000;stroke-width:1;" width="158.0361" x="257.83" y="522.9673"/><rect fill="#FFFFFF" height="10" style="stroke:#000000;stroke-width:1;" width="15" x="395.8661" y="527.9673"/><rect fill="#FFFFFF" height="2" style="stroke:#000000;stroke-width:1;" width="4" x="393.8661" y="529.9673"/><rect fill="#FFFFFF" height="2" style="stroke:#000000;stroke-width:1;" width="4" x="393.8661" y="533.9673"/><text fill="#000000" font-family="Verdana" font-size="14" lengthAdjust="spacing" textLength="118.0361" x="272.83" y="557.0425">Payment Service</text></g><!--entity inventory--><g id="elem_inventory"><rect fill="#FFFFFF" height="47.0146" rx="2.5" ry="2.5" style="stroke:#000000;stroke-width:1;" width="165.0771" x="650.31" y="522.9673"/><rect fill="#FFFFFF" height="10" style="stroke:#000000;stroke-width:1;" width="15" x="795.3871" y="527.9673"/><rect fill="#FFFFFF" height="2" style="stroke:#000000;stroke-width:1;" width="4" x="793.3871" y="529.9673"/><rect fill="#FFFFFF" height="2" style="stroke:#000000;stroke-width:1;" width="4" x="793.3871" y="533.9673"/><text fill="#000000" font-family="Verdana" font-size="14" lengthAdjust="spacing" textLength="125.0771" x="665.31" y="557.0425">Inventory Service</text></g><!--entity notification--><g id="elem_notification"><rect fill="#FFFFFF" height="47.0146" rx="2.5" ry="2.5" style="stroke:#000000;stroke-width:1;" width="176.0762" x="46.81" y="522.9673"/><rect fill="#FFFFFF" height="10" style="stroke:#000000;stroke-width:1;" width="15" x="202.8862" y="527.9673"/><rect fill="#FFFFFF" height="2" style="stroke:#000000;stroke-width:1;" width="4" x="200.8862" y="529.9673"/><rect fill="#FFFFFF" height="2" style="stroke:#000000;stroke-width:1;" width="4" x="200.8862" y="533.9673"/><text fill="#000000" font-family="Verdana" font-size="14" lengthAdjust="spacing" textLength="136.0762" x="61.81" y="557.0425">Notification Service</text></g><!--entity customerdb--><g id="elem_customerdb"><path d="M463.26,664.9873 C463.26,654.9873 519.8503,654.9873 519.8503,654.9873 C519.8503,654.9873 576.4407,654.9873 576.4407,664.9873 L576.4407,691.002 C576.4407,701.002 519.8503,701.002 519.8503,701.002 C519.8503,701.002 463.26,701.002 463.26,691.002 L463.26,664.9873 " fill="#FFFFFF" style="stroke:#000000;stroke-width:1;"/><path d="M463.26,664.9873 C463.26,674.9873 519.8503,674.9873 519.8503,674.9873 C519.8503,674.9873 576.4407,674.9873 576.4407,664.9873 " fill="none" style="stroke:#000000;stroke-width:1;"/><text fill="#000000" font-family="Verdana" font-size="14" lengthAdjust="spacing" textLength="93.1807" x="473.26" y="693.0625">Customer DB</text></g><!--entity orderdb--><g id="elem_orderdb"><path d="M201.18,664.9873 C201.18,654.9873 243.8489,654.9873 243.8489,654.9873 C243.8489,654.9873 286.5179,654.9873 286.5179,664.9873 L286.5179,691.002 C286.5179,701.002 243.8489,701.002 243.8489,701.002 C243.8489,701.002 201.18,701.002 201.18,691.002 L201.18,664.9873 " fill="#FFFFFF" style="stroke:#000000;stroke-width:1;"/><path d="M201.18,664.9873 C201.18,674.9873 243.8489,674.9873 243.8489,674.9873 C243.8489,674.9873 286.5179,674.9873 286.5179,664.9873 " fill="none" style="stroke:#000000;stroke-width:1;"/><text fill="#000000" font-family="Verdana" font-size="14" lengthAdjust="spacing" textLength="65.3379" x="211.18" y="693.0625">Order DB</text></g><!--entity paymentdb--><g id="elem_paymentdb"><path d="M321.46,664.9873 C321.46,654.9873 374.8477,654.9873 374.8477,654.9873 C374.8477,654.9873 428.2354,654.9873 428.2354,664.9873 L428.2354,691.002 C428.2354,701.002 374.8477,701.002 374.8477,701.002 C374.8477,701.002 321.46,701.002 321.46,691.002 L321.46,664.9873 " fill="#FFFFFF" style="stroke:#000000;stroke-width:1;"/><path d="M321.46,664.9873 C321.46,674.9873 374.8477,674.9873 374.8477,674.9873 C374.8477,674.9873 428.2354,674.9873 428.2354,664.9873 " fill="none" style="stroke:#000000;stroke-width:1;"/><text fill="#000000" font-family="Verdana" font-size="14" lengthAdjust="spacing" textLength="86.7754" x="331.46" y="693.0625">Payment DB</text></g><!--entity inventorydb--><g id="elem_inventorydb"><path d="M610.94,664.9873 C610.94,654.9873 667.8482,654.9873 667.8482,654.9873 C667.8482,654.9873 724.7564,654.9873 724.7564,664.9873 L724.7564,691.002 C724.7564,701.002 667.8482,701.002 667.8482,701.002 C667.8482,701.002 610.94,701.002 610.94,691.002 L610.94,664.9873 " fill="#FFFFFF" style="stroke:#000000;stroke-width:1;"/><path d="M610.94,664.9873 C610.94,674.9873 667.8482,674.9873 667.8482,674.9873 C667.8482,674.9873 724.7564,674.9873 724.7564,664.9873 " fill="none" style="stroke:#000000;stroke-width:1;"/><text fill="#000000" font-family="Verdana" font-size="14" lengthAdjust="spacing" textLength="93.8164" x="620.94" y="693.0625">Inventory DB</text></g><!--entity discovery--><g id="elem_discovery"><rect fill="#FFFFFF" height="47.0146" rx="2.5" ry="2.5" style="stroke:#000000;stroke-width:1;" width="165.166" x="979.27" y="385.8573"/><rect fill="#FFFFFF" height="10" style="stroke:#000000;stroke-width:1;" width="15" x="1124.436" y="390.8573"/><rect fill="#FFFFFF" height="2" style="stroke:#000000;stroke-width:1;" width="4" x="1122.436" y="392.8573"/><rect fill="#FFFFFF" height="2" style="stroke:#000000;stroke-width:1;" width="4" x="1122.436" y="396.8573"/><text fill="#000000" font-family="Verdana" font-size="14" lengthAdjust="spacing" textLength="125.166" x="994.27" y="419.9325">Service Discovery</text></g><!--entity lb--><g id="elem_lb"><rect fill="#FFFFFF" height="47.0146" rx="2.5" ry="2.5" style="stroke:#000000;stroke-width:1;" width="139.0664" x="1179.32" y="385.8573"/><rect fill="#FFFFFF" height="10" style="stroke:#000000;stroke-width:1;" width="15" x="1298.3864" y="390.8573"/><rect fill="#FFFFFF" height="2" style="stroke:#000000;stroke-width:1;" width="4" x="1296.3864" y="392.8573"/><rect fill="#FFFFFF" height="2" style="stroke:#000000;stroke-width:1;" width="4" x="1296.3864" y="396.8573"/><text fill="#000000" font-family="Verdana" font-size="14" lengthAdjust="spacing" textLength="99.0664" x="1194.32" y="419.9325">Load Balancer</text></g><!--entity cb--><g id="elem_cb"><rect fill="#FFFFFF" height="47.0146" rx="2.5" ry="2.5" style="stroke:#000000;stroke-width:1;" width="144.9453" x="1353.38" y="385.8573"/><rect fill="#FFFFFF" height="10" style="stroke:#000000;stroke-width:1;" width="15" x="1478.3253" y="390.8573"/><rect fill="#FFFFFF" height="2" style="stroke:#000000;stroke-width:1;" width="4" x="1476.3253" y="392.8573"/><rect fill="#FFFFFF" height="2" style="stroke:#000000;stroke-width:1;" width="4" x="1476.3253" y="396.8573"/><text fill="#000000" font-family="Verdana" font-size="14" lengthAdjust="spacing" textLength="104.9453" x="1368.38" y="419.9325">Circuit Breaker</text></g><!--entity monitor--><g id="elem_monitor"><rect fill="#FFFFFF" height="47.0146" rx="2.5" ry="2.5" style="stroke:#000000;stroke-width:1;" width="114.4092" x="1533.65" y="385.8573"/><rect fill="#FFFFFF" height="10" style="stroke:#000000;stroke-width:1;" width="15" x="1628.0592" y="390.8573"/><rect fill="#FFFFFF" height="2" style="stroke:#000000;stroke-width:1;" width="4" x="1626.0592" y="392.8573"/><rect fill="#FFFFFF" height="2" style="stroke:#000000;stroke-width:1;" width="4" x="1626.0592" y="396.8573"/><text fill="#000000" font-family="Verdana" font-size="14" lengthAdjust="spacing" textLength="74.4092" x="1548.65" y="419.9325">Monitoring</text></g><g id="elem_GMN51"><path d="M1073.85,213.6673 L1073.85,246.2673 L1039.27,250.2673 L1073.85,254.2673 L1073.85,286.8646 A0,0 0 0 0 1073.85,286.8646 L1297.8544,286.8646 A0,0 0 0 0 1297.8544,286.8646 L1297.8544,223.6673 L1287.8544,213.6673 L1073.85,213.6673 A0,0 0 0 0 1073.85,213.6673 " fill="#FFFFFF" style="stroke:#000000;stroke-width:1;"/><path d="M1287.8544,213.6673 L1287.8544,223.6673 L1297.8544,223.6673 L1287.8544,213.6673 " fill="#FFFFFF" style="stroke:#000000;stroke-width:1;"/><text fill="#000000" font-family="Verdana" font-size="13" lengthAdjust="spacing" textLength="117.9648" x="1079.85" y="231.7371">- Request Routing</text><text fill="#000000" font-family="Verdana" font-size="13" lengthAdjust="spacing" textLength="104.9839" x="1079.85" y="247.5364">- Authentication</text><text fill="#000000" font-family="Verdana" font-size="13" lengthAdjust="spacing" textLength="96.7891" x="1079.85" y="263.3358">- Rate Limiting</text><text fill="#000000" font-family="Verdana" font-size="13" lengthAdjust="spacing" textLength="203.0044" x="1079.85" y="279.1351">- Request/Response Transform</text></g><g id="elem_GMN54"><path d="M1682.6,372.7673 L1682.6,445.9646 L1845.1083,445.9646 L1845.1083,382.7673 L1835.1083,372.7673 L1682.6,372.7673 " fill="#FFFFFF" style="stroke:#000000;stroke-width:1;"/><path d="M1835.1083,372.7673 L1835.1083,382.7673 L1845.1083,382.7673 L1835.1083,372.7673 " fill="#FFFFFF" style="stroke:#000000;stroke-width:1;"/><text fill="#000000" font-family="Verdana" font-size="13" lengthAdjust="spacing" textLength="141.5083" x="1688.6" y="390.8371">- Service Registration</text><text fill="#000000" font-family="Verdana" font-size="13" lengthAdjust="spacing" textLength="116.689" x="1688.6" y="406.6364">- Health Checking</text><text fill="#000000" font-family="Verdana" font-size="13" lengthAdjust="spacing" textLength="109.0654" x="1688.6" y="422.4358">- Load Balancing</text><text fill="#000000" font-family="Verdana" font-size="13" lengthAdjust="spacing" textLength="61.7627" x="1688.6" y="438.2351">- Failover</text></g><!--link web to gateway--><g id="link_web_gateway"><path d="M854.44,142.1973 C880.94,165.9573 917.6428,198.8618 944.0528,222.5418 " fill="none" id="web-to-gateway" style="stroke:#000000;stroke-width:1;"/><polygon fill="#000000" points="948.52,226.5473,944.4894,217.5609,944.7973,223.2094,939.1488,223.5173,948.52,226.5473" style="stroke:#000000;stroke-width:1;"/></g><!--link mobile to gateway--><g id="link_mobile_gateway"><path d="M973.85,142.1973 C973.85,165.9573 973.85,196.8673 973.85,220.5473 " fill="none" id="mobile-to-gateway" style="stroke:#000000;stroke-width:1;"/><polygon fill="#000000" points="973.85,226.5473,977.85,217.5473,973.85,221.5473,969.85,217.5473,973.85,226.5473" style="stroke:#000000;stroke-width:1;"/></g><!--link thirdparty to gateway--><g id="link_thirdparty_gateway"><path d="M1099.03,142.1973 C1071.33,165.8873 1032.9198,198.7376 1005.2198,222.4276 " fill="none" id="thirdparty-to-gateway" style="stroke:#000000;stroke-width:1;"/><polygon fill="#000000" points="1000.66,226.3273,1010.0996,223.5176,1004.4599,223.0775,1004.8999,217.4378,1000.66,226.3273" style="stroke:#000000;stroke-width:1;"/></g><!--link gateway to customer--><g id="link_gateway_customer"><path d="M964.22,274.0673 C942.26,322.9973 883.55,438.1073 795.85,492.9673 C733.4,532.0373 705.02,508.2073 632.85,522.9673 C627.18,524.1273 627.2064,524.0981 621.3364,525.3581 " fill="none" id="gateway-to-customer" style="stroke:#000000;stroke-width:1;"/><polygon fill="#000000" points="615.47,526.6173,625.109,528.6394,620.3586,525.568,623.4301,520.8176,615.47,526.6173" style="stroke:#000000;stroke-width:1;"/></g><!--link gateway to order--><g id="link_gateway_order"><path d="M908.44,261.7473 C842.91,272.9173 739.48,292.3473 651.85,316.8573 C582.43,336.2773 510.3236,363.0412 459.1436,383.1712 " fill="none" id="gateway-to-order" style="stroke:#000000;stroke-width:1;"/><polygon fill="#000000" points="453.56,385.3673,463.3995,385.7955,458.213,383.5372,460.4714,378.3507,453.56,385.3673" style="stroke:#000000;stroke-width:1;"/></g><!--link gateway to payment--><g id="link_gateway_payment"><path d="M935.52,274.1973 C906.87,291.7973 867.08,317.1673 833.85,341.8573 C750.56,403.7573 750.65,450.7673 655.85,492.9673 C564.49,533.6373 531.2,504.8673 432.85,522.9673 C427.46,523.9573 427.794,523.834 422.224,524.994 " fill="none" id="gateway-to-payment" style="stroke:#000000;stroke-width:1;"/><polygon fill="#000000" points="416.35,526.2173,425.9765,528.2983,421.245,525.1979,424.3454,520.4664,416.35,526.2173" style="stroke:#000000;stroke-width:1;"/></g><!--link gateway to inventory--><g id="link_gateway_inventory"><path d="M970.33,273.9073 C967.67,292.1873 964.26,318.6173 962.85,341.8573 C959.76,392.8873 950.64,407.2373 962.85,456.8773 C966.83,473.0373 983.29,479.9973 972.85,492.9673 C953.19,517.3873 882.9388,530.375 821.5988,537.605 " fill="none" id="gateway-to-inventory" style="stroke:#000000;stroke-width:1;"/><polygon fill="#000000" points="815.64,538.3073,825.0464,541.2263,820.6056,537.722,824.1099,533.2813,815.64,538.3073" style="stroke:#000000;stroke-width:1;"/></g><!--link order to customer--><g id="link_order_customer"><path d="M389.16,433.1073 C384.63,450.9573 381.86,475.6173 393.85,492.9673 C401.29,503.7373 419.0137,512.2733 444.5337,521.0133 " fill="none" id="order-to-customer" style="stroke:#000000;stroke-width:1;"/><polygon fill="#000000" points="450.21,522.9573,442.9915,516.2571,445.4797,521.3373,440.3995,523.8255,450.21,522.9573" style="stroke:#000000;stroke-width:1;"/><text fill="#000000" font-family="Verdana" font-size="13" lengthAdjust="spacing" textLength="120.1992" x="394.85" y="490.0371">Validate Customer</text></g><!--link order to payment--><g id="link_order_payment"><path d="M328.09,421.6073 C296.19,430.6373 261.14,446.8573 241.85,475.9673 C229.15,495.1373 240.6137,508.1538 263.4437,519.7838 " fill="none" id="order-to-payment" style="stroke:#000000;stroke-width:1;"/><polygon fill="#000000" points="268.79,522.5073,262.5862,514.8579,264.3348,520.2377,258.9549,521.9863,268.79,522.5073" style="stroke:#000000;stroke-width:1;"/><text fill="#000000" font-family="Verdana" font-size="13" lengthAdjust="spacing" textLength="110.9888" x="242.85" y="490.0371">Process Payment</text></g><!--link order to inventory--><g id="link_order_inventory"><path d="M451.46,433.3273 C491.59,450.0973 547.49,473.2473 596.85,492.9673 C621.53,502.8273 643.2389,511.276 666.8789,520.356 " fill="none" id="order-to-inventory" style="stroke:#000000;stroke-width:1;"/><polygon fill="#000000" points="672.48,522.5073,665.5126,515.5463,667.8125,520.7145,662.6442,523.0143,672.48,522.5073" style="stroke:#000000;stroke-width:1;"/><text fill="#000000" font-family="Verdana" font-size="13" lengthAdjust="spacing" textLength="94.6118" x="597.85" y="490.0371">Reserve Items</text></g><!--link order to notification--><g id="link_order_notification"><path d="M328.23,416.1773 C251.39,424.2673 134.04,441.9473 106.85,475.9673 C95.89,489.6873 100.7775,503.3885 111.1575,517.8885 " fill="none" id="order-to-notification" style="stroke:#000000;stroke-width:1;"/><polygon fill="#000000" points="114.65,522.7673,112.6637,513.1208,111.7396,518.7017,106.1587,517.7775,114.65,522.7673" style="stroke:#000000;stroke-width:1;"/><text fill="#000000" font-family="Verdana" font-size="13" lengthAdjust="spacing" textLength="121.6655" x="107.85" y="490.0371">Send Confirmation</text></g><!--link customer to customerdb--><g id="link_customer_customerdb"><path d="M530.56,570.3273 C528.16,594.1473 525.0378,625.2572 522.6778,648.8272 " fill="none" id="customer-to-customerdb" style="stroke:#000000;stroke-width:1;"/><polygon fill="#000000" points="522.08,654.7973,526.9568,646.2406,522.5781,649.8222,518.9966,645.4436,522.08,654.7973" style="stroke:#000000;stroke-width:1;"/></g><!--link order to orderdb--><g id="link_order_orderdb"><path d="M328.15,417.0773 C265.04,425.0973 170.04,441.9773 93.85,475.9673 C61.29,490.4973 45.07,491.2173 28.85,522.9673 C14.49,551.0773 11,567.9573 28.85,593.9873 C67.44,650.2373 144.0293,667.6914 194.8693,673.5414 " fill="none" id="order-to-orderdb" style="stroke:#000000;stroke-width:1;"/><polygon fill="#000000" points="200.83,674.2273,192.3462,669.2247,195.8628,673.6557,191.4317,677.1723,200.83,674.2273" style="stroke:#000000;stroke-width:1;"/></g><!--link payment to paymentdb--><g id="link_payment_paymentdb"><path d="M343.56,570.3273 C350.54,594.1473 359.7298,625.4703 366.6498,649.0403 " fill="none" id="payment-to-paymentdb" style="stroke:#000000;stroke-width:1;"/><polygon fill="#000000" points="368.34,654.7973,369.6427,645.035,366.9315,649.9998,361.9667,647.2886,368.34,654.7973" style="stroke:#000000;stroke-width:1;"/></g><!--link inventory to inventorydb--><g id="link_inventory_inventorydb"><path d="M721.38,570.3273 C709.42,594.1473 693.5115,625.8648 681.6815,649.4348 " fill="none" id="inventory-to-inventorydb" style="stroke:#000000;stroke-width:1;"/><polygon fill="#000000" points="678.99,654.7973,686.6022,648.5479,681.2329,650.3286,679.4522,644.9593,678.99,654.7973" style="stroke:#000000;stroke-width:1;"/></g><!--link gateway to discovery--><g id="link_gateway_discovery"><path d="M986.65,274.1073 C1003.33,303.8973 1029.4181,350.4624 1046.1081,380.2624 " fill="none" id="gateway-to-discovery" style="stroke:#000000;stroke-width:1;"/><polygon fill="#000000" points="1049.04,385.4973,1048.1321,375.6904,1046.5968,381.1349,1041.1522,379.5996,1049.04,385.4973" style="stroke:#000000;stroke-width:1;"/><text fill="#000000" font-family="Verdana" font-size="13" lengthAdjust="spacing" textLength="99.563" x="1018.85" y="330.9271">Service Lookup</text></g><!--link gateway to lb--><g id="link_gateway_lb"><path d="M1009.59,274.1473 C1023.62,282.4273 1040.1,291.3073 1055.85,297.7673 C1086.08,310.1773 1097.31,302.8973 1126.85,316.8573 C1164.19,334.5073 1196.857,360.6283 1220.167,381.4683 " fill="none" id="gateway-to-lb" style="stroke:#000000;stroke-width:1;"/><polygon fill="#000000" points="1224.64,385.4673,1220.5965,376.4868,1220.9125,382.1348,1215.2645,382.4508,1224.64,385.4673" style="stroke:#000000;stroke-width:1;"/><text fill="#000000" font-family="Verdana" font-size="13" lengthAdjust="spacing" textLength="86.4424" x="1156.98" y="330.9271">Load Balance</text></g><!--link gateway to cb--><g id="link_gateway_cb"><path d="M1006.69,274.0873 C1021.13,282.9873 1038.69,292.3373 1055.85,297.7673 C1175.96,335.7873 1223.13,285.6173 1335.85,341.8573 C1359.14,353.4873 1378.0864,367.3434 1395.2564,381.5434 " fill="none" id="gateway-to-cb" style="stroke:#000000;stroke-width:1;"/><polygon fill="#000000" points="1399.88,385.3673,1395.4938,376.5491,1396.027,382.1808,1390.3953,382.7139,1399.88,385.3673" style="stroke:#000000;stroke-width:1;"/><text fill="#000000" font-family="Verdana" font-size="13" lengthAdjust="spacing" textLength="104.0508" x="1317.24" y="330.9271">Circuit Breaking</text></g><!--link customer to discovery--><g id="link_customer_discovery"><path d="M615.4,526.2373 C621.29,525.0673 627.15,523.9573 632.85,522.9673 C739.18,504.4273 770.19,523.0573 873.85,492.9673 C890.84,488.0373 893.72,483.2573 909.85,475.9673 C942.07,461.4173 972.9004,448.0498 1001.9704,435.6598 " fill="none" id="customer-to-discovery" style="stroke:#000000;stroke-width:1;"/><polygon fill="#000000" points="1007.49,433.3073,997.6423,433.1564,1002.8904,435.2677,1000.779,440.5158,1007.49,433.3073" style="stroke:#000000;stroke-width:1;"/><text fill="#000000" font-family="Verdana" font-size="13" lengthAdjust="spacing" textLength="53.6377" x="910.85" y="490.0371">Register</text></g><!--link order to discovery--><g id="link_order_discovery"><path d="M465.51,409.3673 C588.54,409.3673 840.09,409.3673 972.82,409.3673 " fill="none" id="order-to-discovery" style="stroke:#000000;stroke-width:1;"/><polygon fill="#000000" points="978.82,409.3673,969.82,405.3673,973.82,409.3673,969.82,413.3673,978.82,409.3673" style="stroke:#000000;stroke-width:1;"/><text fill="#000000" font-family="Verdana" font-size="13" lengthAdjust="spacing" textLength="53.6377" x="695.71" y="403.4371">Register</text></g><!--link payment to discovery--><g id="link_payment_discovery"><path d="M416.33,526.0873 C421.9,524.9573 427.45,523.9073 432.85,522.9673 C549.2,502.7873 583.27,525.2773 696.85,492.9673 C713.87,488.1273 716.03,481.4673 732.85,475.9673 C775.44,462.0473 787.89,465.5573 831.85,456.8773 C880.61,447.2473 929.2503,437.4229 972.9703,428.5329 " fill="none" id="payment-to-discovery" style="stroke:#000000;stroke-width:1;"/><polygon fill="#000000" points="978.85,427.3373,969.2334,425.2109,973.9503,428.3336,970.8275,433.0504,978.85,427.3373" style="stroke:#000000;stroke-width:1;"/><text fill="#000000" font-family="Verdana" font-size="13" lengthAdjust="spacing" textLength="53.6377" x="733.85" y="490.0371">Register</text></g><!--link inventory to discovery--><g id="link_inventory_discovery"><path d="M815.69,542.6873 C898.87,538.0473 1019.11,525.7173 1050.85,492.9673 C1065.95,477.3873 1067.6474,457.685 1066.0374,439.085 " fill="none" id="inventory-to-discovery" style="stroke:#000000;stroke-width:1;"/><polygon fill="#000000" points="1065.52,433.1073,1062.311,442.4187,1065.9512,438.0887,1070.2812,441.7288,1065.52,433.1073" style="stroke:#000000;stroke-width:1;"/><text fill="#000000" font-family="Verdana" font-size="13" lengthAdjust="spacing" textLength="53.6377" x="1062.15" y="490.0371">Register</text></g><!--link monitor to customer--><g id="link_monitor_customer"><path d="M1561.93,433.1873 C1548.66,442.3173 1532.25,451.8473 1515.85,456.8773 C1415.28,487.7373 1147.12,462.0073 1042.85,475.9673 C1009.4,480.4473 1002.18,487.6773 968.85,492.9673 C820.78,516.4773 780.97,499.7873 632.85,522.9673 C627.14,523.8573 627.1547,523.7683 621.2547,524.8883 " fill="none" id="monitor-to-customer" style="stroke:#000000;stroke-width:1;"/><polygon fill="#000000" points="615.36,526.0073,624.9481,528.2586,620.2723,525.0748,623.4561,520.399,615.36,526.0073" style="stroke:#000000;stroke-width:1;"/></g><!--link monitor to order--><g id="link_monitor_order"><path d="M1574.64,385.4573 C1558.3,363.6773 1530.88,332.9873 1498.35,319.8173 C1431.2,292.6373 918.44,312.7073 846.35,319.8173 C709.75,333.2873 558.9688,367.8038 471.3388,389.8438 " fill="none" id="monitor-to-order" style="stroke:#000000;stroke-width:1;"/><polygon fill="#000000" points="465.52,391.3073,475.2238,392.9913,470.369,390.0877,473.2725,385.2329,465.52,391.3073" style="stroke:#000000;stroke-width:1;"/></g><!--link monitor to payment--><g id="link_monitor_payment"><path d="M1561.95,433.2673 C1548.69,442.4173 1532.28,451.9373 1515.85,456.8773 C1446.66,477.6873 937.52,466.7773 865.85,475.9673 C832.38,480.2573 825.19,487.7673 791.85,492.9673 C633.65,517.6173 591,497.9573 432.85,522.9673 C427.44,523.8273 427.7707,523.6772 422.1907,524.7572 " fill="none" id="monitor-to-payment" style="stroke:#000000;stroke-width:1;"/><polygon fill="#000000" points="416.3,525.8973,425.8961,528.1142,421.2089,524.9472,424.3759,520.26,416.3,525.8973" style="stroke:#000000;stroke-width:1;"/></g><!--link monitor to inventory--><g id="link_monitor_inventory"><path d="M1560.67,433.3473 C1547.57,442.1573 1531.63,451.4073 1515.85,456.8773 C1387.97,501.2273 995.9686,529.5773 821.8286,540.3373 " fill="none" id="monitor-to-inventory" style="stroke:#000000;stroke-width:1;"/><polygon fill="#000000" points="815.84,540.7073,825.0696,544.1446,820.8305,540.3989,824.5762,536.1599,815.84,540.7073" style="stroke:#000000;stroke-width:1;"/></g><!--link monitor to gateway--><g id="link_monitor_gateway"><path d="M1570.21,385.4473 C1556.15,371.0873 1536.42,353.2073 1515.85,341.8573 C1481,322.6373 1469.1,323.4773 1429.85,316.8573 C1347.79,303.0373 1135.75,321.0473 1055.85,297.7673 C1038.41,292.6873 1025.7731,286.4391 1011.2731,277.4091 " fill="none" id="monitor-to-gateway" style="stroke:#000000;stroke-width:1;"/><polygon fill="#000000" points="1006.18,274.2373,1011.7052,282.3904,1010.4243,276.8805,1015.9342,275.5996,1006.18,274.2373" style="stroke:#000000;stroke-width:1;"/></g><!--link discovery to GMN54--><g id="link_discovery_GMN54"><path d="M1083.44,385.7473 C1105.2,363.8573 1140.95,332.7773 1179.35,319.8173 C1228.51,303.2173 1597.19,303.2173 1646.35,319.8173 C1677.46,330.3173 1706.83,352.7073 1728.43,372.4673 " fill="none" id="discovery-GMN54" style="stroke:#000000;stroke-width:1;stroke-dasharray:7.0,7.0;"/></g><!--SRC=[TPLDZzem48Rl-HMpkVI4Uk-X4WlRBHAxYrZK7geUZ3F0YCHERMSHglhVQoTsCaRY5h_pslFXn_3WJjWWjBKWLJXoDS8BIQCjcW-IQ65kv8aSIjSPXBUF8EEbA1ugF912s3ujTlFNv_KJo5fOMnIja6TnH2WNDQ5oi1PND2NyBG1-_SGzpDlsDmWB5zm7wKNloUTCQjClGs1t8bF1HXXtxICkhDkmBFwnBFFD2fw5mukuPgcOtcy_3j_PthnHldlHMQSRDF0-HFiZP1I3uSrKDr4Tb13QY6iJ6kV1Tj12UAK-_9Ssryn0IGsML-teG58uqYfpAHR8EbaA9tW3bL_lXGsta3fPFfQyYMgVsOP-egTlvSQGkegMsD2DQUejsiQsl97Nkr878wmptO0L7tti5vPafVQu3TTNfLMmhBMeu57KGaaqVRZkMLgGaHqvU3GepZ4Y8sMAV1caZf6oVXbA-WIHKwcLyfJxoTh2imcpsTSHce7AJ9fmp6H_NgBHwCxvX4KCzROH8IuEv70buSArYH2V8msfmXPLXKeIsg8_9qi3Nw3y8MhoDuIGI2YPCIOAletH_XLOY1VDNMFguDjYU348AuUDvIuEPp2- -yfWeTM1JDEBPQXycM3XynxhvSLxPAR34vAfO5QyLwS2it9zn6UyOOtdvVCT2Hjg7-QxrlhSjMLchFV1mHdCuxAFPonw3CgyoIpR5ezaNNupTmoy_pkMV1XtJ7ukqvieudl84UNYW2XN4g9Scn3bwlWqF208Xeud1_emoW0psEAV3gs3RNmoGPjt_fz9kVHhrzi2ncjgQ3J5ZPyzbAs_K8IT4SeUj6cAG5_8U9kN_vBCneSqJCPCkRwZgDq95YUKvvIDtNcIlWcgmsbJkly0]--></g></svg>