<svg xmlns="http://www.w3.org/2000/svg" xmlns:xlink="http://www.w3.org/1999/xlink" contentStyleType="text/css" height="394px" preserveAspectRatio="none" style="width:3696px;height:394px;background:#FFFFFF;" version="1.1" viewBox="0 0 3696 394" width="3696px" zoomAndPan="magnify"><title>Service Discovery Pattern</title><defs/><g><text fill="#000000" font-family="Verdana" font-size="22" font-weight="bold" lengthAdjust="spacing" textLength="318.71" x="1684.4455" y="37.1182">Service Discovery Pattern</text><!--cluster Service Registry--><g id="cluster_Service Registry"><path d="M1038.5,116.4473 L1167.4824,116.4473 A3.75,3.75 0 0 1 1169.9824,118.9473 L1176.9824,139.462 L1749.5,139.462 A2.5,2.5 0 0 1 1752,141.962 L1752,384.8673 A2.5,2.5 0 0 1 1749.5,387.3673 L1038.5,387.3673 A2.5,2.5 0 0 1 1036,384.8673 L1036,118.9473 A2.5,2.5 0 0 1 1038.5,116.4473 " fill="#FFFFFF" style="stroke:#000000;stroke-width:1;"/><line style="stroke:#000000;stroke-width:1;" x1="1036" x2="1176.9824" y1="139.462" y2="139.462"/><text fill="#000000" font-family="Verdana" font-size="14" font-weight="bold" lengthAdjust="spacing" textLength="127.9824" x="1040" y="132.5225">Service Registry</text></g><!--cluster Service Instances--><g id="cluster_Service Instances"><path d="M13.5,116.4473 L154.3701,116.4473 A3.75,3.75 0 0 1 156.8701,118.9473 L163.8701,139.462 L998.5,139.462 A2.5,2.5 0 0 1 1001,141.962 L1001,232.9573 A2.5,2.5 0 0 1 998.5,235.4573 L13.5,235.4573 A2.5,2.5 0 0 1 11,232.9573 L11,118.9473 A2.5,2.5 0 0 1 13.5,116.4473 " fill="#FFFFFF" style="stroke:#000000;stroke-width:1;"/><line style="stroke:#000000;stroke-width:1;" x1="11" x2="163.8701" y1="139.462" y2="139.462"/><text fill="#000000" font-family="Verdana" font-size="14" font-weight="bold" lengthAdjust="spacing" textLength="139.8701" x="15" y="132.5225">Service Instances</text></g><!--cluster Client Services--><g id="cluster_Client Services"><path d="M2742.5,116.4473 L2859.5605,116.4473 A3.75,3.75 0 0 1 2862.0605,118.9473 L2869.0605,139.462 L3200.5,139.462 A2.5,2.5 0 0 1 3203,141.962 L3203,232.9573 A2.5,2.5 0 0 1 3200.5,235.4573 L2742.5,235.4573 A2.5,2.5 0 0 1 2740,232.9573 L2740,118.9473 A2.5,2.5 0 0 1 2742.5,116.4473 " fill="#FFFFFF" style="stroke:#000000;stroke-width:1;"/><line style="stroke:#000000;stroke-width:1;" x1="2740" x2="2869.0605" y1="139.462" y2="139.462"/><text fill="#000000" font-family="Verdana" font-size="14" font-weight="bold" lengthAdjust="spacing" textLength="116.0605" x="2744" y="132.5225">Client Services</text></g><!--cluster Health Monitoring--><g id="cluster_Health Monitoring"><path d="M2538.5,116.4473 L2680.9287,116.4473 A3.75,3.75 0 0 1 2683.4287,118.9473 L2690.4287,139.462 L2713.5,139.462 A2.5,2.5 0 0 1 2716,141.962 L2716,232.9573 A2.5,2.5 0 0 1 2713.5,235.4573 L2538.5,235.4573 A2.5,2.5 0 0 1 2536,232.9573 L2536,118.9473 A2.5,2.5 0 0 1 2538.5,116.4473 " fill="#FFFFFF" style="stroke:#000000;stroke-width:1;"/><line style="stroke:#000000;stroke-width:1;" x1="2536" x2="2690.4287" y1="139.462" y2="139.462"/><text fill="#000000" font-family="Verdana" font-size="14" font-weight="bold" lengthAdjust="spacing" textLength="141.4287" x="2540" y="132.5225">Health Monitoring</text></g><!--entity registry--><g id="elem_registry"><rect fill="#FFFFFF" height="47.0146" rx="2.5" ry="2.5" style="stroke:#000000;stroke-width:1;" width="154.2764" x="1179.86" y="172.4473"/><rect fill="#FFFFFF" height="10" style="stroke:#000000;stroke-width:1;" width="15" x="1314.1364" y="177.4473"/><rect fill="#FFFFFF" height="2" style="stroke:#000000;stroke-width:1;" width="4" x="1312.1364" y="179.4473"/><rect fill="#FFFFFF" height="2" style="stroke:#000000;stroke-width:1;" width="4" x="1312.1364" y="183.4473"/><text fill="#000000" font-family="Verdana" font-size="14" lengthAdjust="spacing" textLength="114.2764" x="1194.86" y="206.5225">Service Registry</text></g><!--entity servicedb--><g id="elem_servicedb"><path d="M1277.77,335.3573 C1277.77,325.3573 1348.9961,325.3573 1348.9961,325.3573 C1348.9961,325.3573 1420.2221,325.3573 1420.2221,335.3573 L1420.2221,361.372 C1420.2221,371.372 1348.9961,371.372 1348.9961,371.372 C1348.9961,371.372 1277.77,371.372 1277.77,361.372 L1277.77,335.3573 " fill="#FFFFFF" style="stroke:#000000;stroke-width:1;"/><path d="M1277.77,335.3573 C1277.77,345.3573 1348.9961,345.3573 1348.9961,345.3573 C1348.9961,345.3573 1420.2221,345.3573 1420.2221,335.3573 " fill="none" style="stroke:#000000;stroke-width:1;"/><text fill="#000000" font-family="Verdana" font-size="14" lengthAdjust="spacing" textLength="122.4521" x="1287.77" y="363.4325">Service Database</text></g><!--entity customer1--><g id="elem_customer1"><rect fill="#FFFFFF" height="47.0146" rx="2.5" ry="2.5" style="stroke:#000000;stroke-width:1;" width="178.9336" x="26.53" y="172.4473"/><rect fill="#FFFFFF" height="10" style="stroke:#000000;stroke-width:1;" width="15" x="185.4636" y="177.4473"/><rect fill="#FFFFFF" height="2" style="stroke:#000000;stroke-width:1;" width="4" x="183.4636" y="179.4473"/><rect fill="#FFFFFF" height="2" style="stroke:#000000;stroke-width:1;" width="4" x="183.4636" y="183.4473"/><text fill="#000000" font-family="Verdana" font-size="14" lengthAdjust="spacing" textLength="138.9336" x="41.53" y="206.5225">Customer Service A</text></g><!--entity customer2--><g id="elem_customer2"><rect fill="#FFFFFF" height="47.0146" rx="2.5" ry="2.5" style="stroke:#000000;stroke-width:1;" width="178.9609" x="240.52" y="172.4473"/><rect fill="#FFFFFF" height="10" style="stroke:#000000;stroke-width:1;" width="15" x="399.4809" y="177.4473"/><rect fill="#FFFFFF" height="2" style="stroke:#000000;stroke-width:1;" width="4" x="397.4809" y="179.4473"/><rect fill="#FFFFFF" height="2" style="stroke:#000000;stroke-width:1;" width="4" x="397.4809" y="183.4473"/><text fill="#000000" font-family="Verdana" font-size="14" lengthAdjust="spacing" textLength="138.9609" x="255.52" y="206.5225">Customer Service B</text></g><!--entity order1--><g id="elem_order1"><rect fill="#FFFFFF" height="47.0146" rx="2.5" ry="2.5" style="stroke:#000000;stroke-width:1;" width="151.0908" x="454.45" y="172.4473"/><rect fill="#FFFFFF" height="10" style="stroke:#000000;stroke-width:1;" width="15" x="585.5408" y="177.4473"/><rect fill="#FFFFFF" height="2" style="stroke:#000000;stroke-width:1;" width="4" x="583.5408" y="179.4473"/><rect fill="#FFFFFF" height="2" style="stroke:#000000;stroke-width:1;" width="4" x="583.5408" y="183.4473"/><text fill="#000000" font-family="Verdana" font-size="14" lengthAdjust="spacing" textLength="111.0908" x="469.45" y="206.5225">Order Service A</text></g><!--entity order2--><g id="elem_order2"><rect fill="#FFFFFF" height="47.0146" rx="2.5" ry="2.5" style="stroke:#000000;stroke-width:1;" width="151.1182" x="640.44" y="172.4473"/><rect fill="#FFFFFF" height="10" style="stroke:#000000;stroke-width:1;" width="15" x="771.5582" y="177.4473"/><rect fill="#FFFFFF" height="2" style="stroke:#000000;stroke-width:1;" width="4" x="769.5582" y="179.4473"/><rect fill="#FFFFFF" height="2" style="stroke:#000000;stroke-width:1;" width="4" x="769.5582" y="183.4473"/><text fill="#000000" font-family="Verdana" font-size="14" lengthAdjust="spacing" textLength="111.1182" x="655.44" y="206.5225">Order Service B</text></g><!--entity payment--><g id="elem_payment"><rect fill="#FFFFFF" height="47.0146" rx="2.5" ry="2.5" style="stroke:#000000;stroke-width:1;" width="158.0361" x="826.98" y="172.4473"/><rect fill="#FFFFFF" height="10" style="stroke:#000000;stroke-width:1;" width="15" x="965.0161" y="177.4473"/><rect fill="#FFFFFF" height="2" style="stroke:#000000;stroke-width:1;" width="4" x="963.0161" y="179.4473"/><rect fill="#FFFFFF" height="2" style="stroke:#000000;stroke-width:1;" width="4" x="963.0161" y="183.4473"/><text fill="#000000" font-family="Verdana" font-size="14" lengthAdjust="spacing" textLength="118.0361" x="841.98" y="206.5225">Payment Service</text></g><!--entity gateway--><g id="elem_gateway"><rect fill="#FFFFFF" height="47.0146" rx="2.5" ry="2.5" style="stroke:#000000;stroke-width:1;" width="130.0977" x="2755.95" y="172.4473"/><rect fill="#FFFFFF" height="10" style="stroke:#000000;stroke-width:1;" width="15" x="2866.0477" y="177.4473"/><rect fill="#FFFFFF" height="2" style="stroke:#000000;stroke-width:1;" width="4" x="2864.0477" y="179.4473"/><rect fill="#FFFFFF" height="2" style="stroke:#000000;stroke-width:1;" width="4" x="2864.0477" y="183.4473"/><text fill="#000000" font-family="Verdana" font-size="14" lengthAdjust="spacing" textLength="90.0977" x="2770.95" y="206.5225">API Gateway</text></g><!--entity orderclient--><g id="elem_orderclient"><rect fill="#FFFFFF" height="47.0146" rx="2.5" ry="2.5" style="stroke:#000000;stroke-width:1;" width="136.5986" x="3050.7" y="172.4473"/><rect fill="#FFFFFF" height="10" style="stroke:#000000;stroke-width:1;" width="15" x="3167.2986" y="177.4473"/><rect fill="#FFFFFF" height="2" style="stroke:#000000;stroke-width:1;" width="4" x="3165.2986" y="179.4473"/><rect fill="#FFFFFF" height="2" style="stroke:#000000;stroke-width:1;" width="4" x="3165.2986" y="183.4473"/><text fill="#000000" font-family="Verdana" font-size="14" lengthAdjust="spacing" textLength="96.5986" x="3065.7" y="206.5225">Order Service</text></g><!--entity health--><g id="elem_health"><rect fill="#FFFFFF" height="47.0146" rx="2.5" ry="2.5" style="stroke:#000000;stroke-width:1;" width="147.2764" x="2552.36" y="172.4473"/><rect fill="#FFFFFF" height="10" style="stroke:#000000;stroke-width:1;" width="15" x="2679.6364" y="177.4473"/><rect fill="#FFFFFF" height="2" style="stroke:#000000;stroke-width:1;" width="4" x="2677.6364" y="179.4473"/><rect fill="#FFFFFF" height="2" style="stroke:#000000;stroke-width:1;" width="4" x="2677.6364" y="183.4473"/><text fill="#000000" font-family="Verdana" font-size="14" lengthAdjust="spacing" textLength="107.2764" x="2567.36" y="206.5225">Health Checker</text></g><g id="elem_GMN40"><path d="M3222.41,143.5573 L3222.41,248.3532 L3483.599,248.3532 L3483.599,153.5573 L3473.599,143.5573 L3222.41,143.5573 " fill="#FFFFFF" style="stroke:#000000;stroke-width:1;"/><path d="M3473.599,143.5573 L3473.599,153.5573 L3483.599,153.5573 L3473.599,143.5573 " fill="#FFFFFF" style="stroke:#000000;stroke-width:1;"/><text fill="#000000" font-family="Verdana" font-size="13" font-weight="bold" lengthAdjust="spacing" textLength="192.2769" x="3228.41" y="161.6271">Service Registry Features:</text><text fill="#000000" font-family="Verdana" font-size="13" lengthAdjust="spacing" textLength="240.189" x="3228.41" y="177.4264">- Service Registration/Deregistration</text><text fill="#000000" font-family="Verdana" font-size="13" lengthAdjust="spacing" textLength="172.8848" x="3228.41" y="193.2258">- Health Status Monitoring</text><text fill="#000000" font-family="Verdana" font-size="13" lengthAdjust="spacing" textLength="180.0513" x="3228.41" y="209.0251">- Load Balancing Strategies</text><text fill="#000000" font-family="Verdana" font-size="13" lengthAdjust="spacing" textLength="179.1372" x="3228.41" y="224.8244">- Service Metadata Storage</text><text fill="#000000" font-family="Verdana" font-size="13" lengthAdjust="spacing" textLength="199.894" x="3228.41" y="240.6237">- Failure Detection &amp; Recovery</text></g><g id="elem_GMN43"><path d="M3518.39,151.4573 L3518.39,240.4539 L3689.6009,240.4539 L3689.6009,161.4573 L3679.6009,151.4573 L3518.39,151.4573 " fill="#FFFFFF" style="stroke:#000000;stroke-width:1;"/><path d="M3679.6009,151.4573 L3679.6009,161.4573 L3689.6009,161.4573 L3679.6009,151.4573 " fill="#FFFFFF" style="stroke:#000000;stroke-width:1;"/><text fill="#000000" font-family="Verdana" font-size="13" font-weight="bold" lengthAdjust="spacing" textLength="148.3765" x="3524.39" y="169.5271">Health Check Types:</text><text fill="#000000" font-family="Verdana" font-size="13" lengthAdjust="spacing" textLength="150.2109" x="3524.39" y="185.3264">- HTTP Endpoint Check</text><text fill="#000000" font-family="Verdana" font-size="13" lengthAdjust="spacing" textLength="110.4556" x="3524.39" y="201.1258">- TCP Port Check</text><text fill="#000000" font-family="Verdana" font-size="13" lengthAdjust="spacing" textLength="145.1519" x="3524.39" y="216.9251">- Custom Health Logic</text><text fill="#000000" font-family="Verdana" font-size="13" lengthAdjust="spacing" textLength="135.167" x="3524.39" y="232.7244">- Periodic Monitoring</text></g><!--link customer1 to registry--><g id="link_customer1_registry"><path d="M136.1,172.1173 C155.74,150.8173 187.76,121.0973 223,108.4473 C304.36,79.2473 915.8,93.8273 1001,108.4473 C1073.22,120.8373 1146.948,148.2941 1197.858,169.6741 " fill="none" id="customer1-to-registry" style="stroke:#000000;stroke-width:1;"/><polygon fill="#000000" points="1203.39,171.9973,1196.6408,164.8245,1198.78,170.0613,1193.5432,172.2005,1203.39,171.9973" style="stroke:#000000;stroke-width:1;"/><text fill="#000000" font-family="Verdana" font-size="13" lengthAdjust="spacing" textLength="106.1646" x="720" y="97.5171">Register Service</text></g><!--link customer2 to registry--><g id="link_customer2_registry"><path d="M350.1,172.1173 C369.74,150.8173 401.76,121.0873 437,108.4473 C502.89,84.8073 998.68,91.3773 1067,106.6373 C1123.03,119.1473 1176.8657,147.0127 1213.9757,168.9627 " fill="none" id="customer2-to-registry" style="stroke:#000000;stroke-width:1;"/><polygon fill="#000000" points="1219.14,172.0173,1213.43,163.9926,1214.8365,169.4718,1209.3572,170.8783,1219.14,172.0173" style="stroke:#000000;stroke-width:1;"/><text fill="#000000" font-family="Verdana" font-size="13" lengthAdjust="spacing" textLength="106.1646" x="960" y="97.5171">Register Service</text></g><!--link order1 to registry--><g id="link_order1_registry"><path d="M542.29,172.2273 C554.97,150.5973 576.98,120.0473 606,106.6373 C637,92.3073 792.39,73.0973 1001,108.4473 C1073.47,120.7273 1147.4808,148.3674 1198.3608,169.8074 " fill="none" id="order1-to-registry" style="stroke:#000000;stroke-width:1;"/><polygon fill="#000000" points="1203.89,172.1373,1197.1495,164.9564,1199.2824,170.1957,1194.043,172.3286,1203.89,172.1373" style="stroke:#000000;stroke-width:1;"/><text fill="#000000" font-family="Verdana" font-size="13" lengthAdjust="spacing" textLength="106.1646" x="607" y="97.5171">Register Service</text></g><!--link order1 to registry--><g id="link_order1_registry"><path d="M542.29,172.2273 C554.97,150.5973 576.98,120.0473 606,106.6373 C637,92.3073 792.39,73.0973 1001,108.4473 C1073.47,120.7273 1147.4808,148.3674 1198.3608,169.8074 " fill="none" id="order1-to-registry-1" style="stroke:#000000;stroke-width:1;"/><polygon fill="#000000" points="1203.89,172.1373,1197.1495,164.9564,1199.2824,170.1957,1194.043,172.3286,1203.89,172.1373" style="stroke:#000000;stroke-width:1;"/><text fill="#000000" font-family="Verdana" font-size="13" lengthAdjust="spacing" textLength="120.4341" x="600" y="97.5171">Deregister Service</text></g><!--link order2 to registry--><g id="link_order2_registry"><path d="M732.79,172.2173 C749.38,150.9873 776.89,121.3073 809,108.4473 C847.27,93.1173 1142.52,89.4573 1180,106.6373 C1209.22,120.0273 1228.4849,145.4352 1241.3949,167.0652 " fill="none" id="order2-to-registry" style="stroke:#000000;stroke-width:1;"/><polygon fill="#000000" points="1244.47,172.2173,1243.2921,162.4391,1241.9075,167.9239,1236.4227,166.5392,1244.47,172.2173" style="stroke:#000000;stroke-width:1;"/><text fill="#000000" font-family="Verdana" font-size="13" lengthAdjust="spacing" textLength="106.1646" x="1073" y="97.5171">Register Service</text></g><!--link payment to registry--><g id="link_payment_registry"><path d="M985.21,195.9573 C1043.34,195.9573 1115.89,195.9573 1173.59,195.9573 " fill="none" id="payment-to-registry" style="stroke:#000000;stroke-width:1;"/><polygon fill="#000000" points="1179.59,195.9573,1170.59,191.9573,1174.59,195.9573,1170.59,199.9573,1179.59,195.9573" style="stroke:#000000;stroke-width:1;"/><text fill="#000000" font-family="Verdana" font-size="13" lengthAdjust="spacing" textLength="106.1646" x="1029.44" y="190.0271">Register Service</text></g><!--link registry to servicedb--><g id="link_registry_servicedb"><path d="M1179.5,212.0273 C1118.99,227.2673 1050.35,254.4673 1084,295.3573 C1108.09,324.6373 1201.5493,337.196 1271.5093,342.826 " fill="none" id="registry-to-servicedb" style="stroke:#000000;stroke-width:1;"/><polygon fill="#000000" points="1277.49,343.3073,1268.8399,338.5983,1272.5061,342.9062,1268.1981,346.5725,1277.49,343.3073" style="stroke:#000000;stroke-width:1;"/><text fill="#000000" font-family="Verdana" font-size="13" lengthAdjust="spacing" textLength="118.4473" x="1085" y="292.4271">Store Service Info</text></g><!--link registry to servicedb--><g id="link_registry_servicedb"><path d="M1246.11,219.8173 C1237.75,240.9673 1229.82,272.5173 1244,295.3573 C1251.94,308.1473 1258.8201,314.9644 1272.0501,322.3444 " fill="none" id="registry-to-servicedb-1" style="stroke:#000000;stroke-width:1;"/><polygon fill="#000000" points="1277.29,325.2673,1271.3788,317.3896,1272.9234,322.8315,1267.4815,324.3762,1277.29,325.2673" style="stroke:#000000;stroke-width:1;"/><text fill="#000000" font-family="Verdana" font-size="13" lengthAdjust="spacing" textLength="162.0557" x="1245" y="292.4271">Query Available Services</text></g><!--link servicedb to registry--><g id="link_servicedb_registry"><path d="M1420.43,343.6673 C1483.9,337.5673 1562.06,321.3573 1530,278.3573 C1506.47,246.7773 1412.4681,224.0884 1340.3181,210.6184 " fill="none" id="servicedb-to-registry" style="stroke:#000000;stroke-width:1;"/><polygon fill="#000000" points="1334.42,209.5173,1342.533,215.1011,1339.3351,210.4349,1344.0012,207.237,1334.42,209.5173" style="stroke:#000000;stroke-width:1;"/><text fill="#000000" font-family="Verdana" font-size="13" lengthAdjust="spacing" textLength="136.5" x="1538.16" y="292.4271">Healthy Services List</text></g><!--link registry to servicedb--><g id="link_registry_servicedb"><path d="M1334.27,218.4273 C1363.94,230.8573 1394.79,249.8673 1412,278.3573 C1422.4,295.5673 1412.827,308.8023 1395.147,321.4723 " fill="none" id="registry-to-servicedb-2" style="stroke:#000000;stroke-width:1;"/><polygon fill="#000000" points="1390.27,324.9673,1399.9155,322.9761,1394.3342,322.0548,1395.2555,316.4735,1390.27,324.9673" style="stroke:#000000;stroke-width:1;"/><text fill="#000000" font-family="Verdana" font-size="13" lengthAdjust="spacing" textLength="105.2822" x="1416.48" y="292.4271">Remove Service</text></g><!--link health to customer1--><g id="link_health_customer1"><path d="M2614.2,172.2473 C2601.96,150.6273 2580.61,120.0873 2552,106.6373 C2516.61,89.9973 2503.11,106.6173 2464,106.6373 C2339.5,106.6873 340.24,66.5573 223,108.4473 C187.75,121.0473 159.7851,146.3743 140.1551,167.6843 " fill="none" id="health-to-customer1" style="stroke:#000000;stroke-width:1;"/><polygon fill="#000000" points="136.09,172.0973,145.1297,168.1878,139.4776,168.4198,139.2457,162.7677,136.09,172.0973" style="stroke:#000000;stroke-width:1;"/><text fill="#000000" font-family="Verdana" font-size="13" lengthAdjust="spacing" textLength="86.3218" x="2465" y="97.5171">Health Check</text></g><!--link customer1 to health--><g id="link_customer1_health"><path d="M136.09,172.0973 C155.73,150.7873 187.75,121.0573 223,108.4473 C302.98,79.8473 1667.18,103.8073 1752,108.4473 C2049.3,124.7173 2395.5582,166.3184 2545.9782,185.4984 " fill="none" id="customer1-to-health" style="stroke:#000000;stroke-width:1;"/><polygon fill="#000000" points="2551.93,186.2573,2543.5082,181.1511,2546.9702,185.6249,2542.4963,189.0868,2551.93,186.2573" style="stroke:#000000;stroke-width:1;"/><text fill="#000000" font-family="Verdana" font-size="13" lengthAdjust="spacing" textLength="49.9307" x="1512.5" y="97.5171">Healthy</text></g><!--link health to customer2--><g id="link_health_customer2"><path d="M2551.94,186.0573 C2401.54,166.5073 2049.36,123.5273 1752,108.4473 C1220.24,81.4873 1086.44,107.0373 554,106.6373 C486.56,106.5873 449.43,103.5673 437,108.4473 C402.37,122.0373 374.5723,146.8877 354.7723,167.8277 " fill="none" id="health-to-customer2" style="stroke:#000000;stroke-width:1;"/><polygon fill="#000000" points="350.65,172.1873,359.7399,168.396,354.0853,168.5543,353.927,162.8996,350.65,172.1873" style="stroke:#000000;stroke-width:1;"/><text fill="#000000" font-family="Verdana" font-size="13" lengthAdjust="spacing" textLength="86.3218" x="467" y="97.5171">Health Check</text></g><!--link customer2 to health--><g id="link_customer2_health"><path d="M350.09,172.0973 C369.73,150.7973 401.75,121.0573 437,108.4473 C574.57,59.2273 1606.12,100.1673 1752,108.4473 C2049.27,125.3173 2395.5473,166.6055 2545.9773,185.6055 " fill="none" id="customer2-to-health" style="stroke:#000000;stroke-width:1;"/><polygon fill="#000000" points="2551.93,186.3573,2543.5022,181.2611,2546.9694,185.7308,2542.4997,189.198,2551.93,186.3573" style="stroke:#000000;stroke-width:1;"/><text fill="#000000" font-family="Verdana" font-size="13" lengthAdjust="spacing" textLength="49.9307" x="1568.5" y="97.5171">Healthy</text></g><!--link health to order1--><g id="link_health_order1"><path d="M2593.16,172.0473 C2560.87,150.1273 2509.23,119.2273 2459,106.6373 C2421.06,97.1273 2410.11,106.6173 2371,106.6373 C2273.89,106.6873 713.26,72.6073 623,108.4473 C590.86,121.2073 567.0409,146.1868 550.4609,167.4368 " fill="none" id="health-to-order1" style="stroke:#000000;stroke-width:1;"/><polygon fill="#000000" points="546.77,172.1673,555.46,167.5322,549.8457,168.2252,549.1527,162.611,546.77,172.1673" style="stroke:#000000;stroke-width:1;"/><text fill="#000000" font-family="Verdana" font-size="13" lengthAdjust="spacing" textLength="86.3218" x="2372" y="97.5171">Health Check</text></g><!--link order1 to health--><g id="link_order1_health"><path d="M546.77,172.1773 C563.36,150.9273 590.86,121.2273 623,108.4473 C739.57,62.1073 1626.82,100.2973 1752,108.4473 C2049.12,127.7873 2395.4636,167.8049 2545.9436,186.0549 " fill="none" id="order1-to-health" style="stroke:#000000;stroke-width:1;"/><polygon fill="#000000" points="2551.9,186.7773,2543.4471,181.7228,2546.9364,186.1753,2542.4839,189.6646,2551.9,186.7773" style="stroke:#000000;stroke-width:1;"/><text fill="#000000" font-family="Verdana" font-size="13" lengthAdjust="spacing" textLength="66.1299" x="1625" y="97.5171">Unhealthy</text></g><!--link health to registry--><g id="link_health_registry"><path d="M2552.25,195.9573 C2315.57,195.9573 1582.47,195.9573 1340.53,195.9573 " fill="none" id="health-to-registry" style="stroke:#000000;stroke-width:1;"/><polygon fill="#000000" points="1334.53,195.9573,1343.53,199.9573,1339.53,195.9573,1343.53,191.9573,1334.53,195.9573" style="stroke:#000000;stroke-width:1;"/><text fill="#000000" font-family="Verdana" font-size="13" lengthAdjust="spacing" textLength="145.4248" x="1870.75" y="190.0271">Update Service Status</text></g><!--link gateway to registry--><g id="link_gateway_registry"><path d="M2801.38,172.1273 C2782.17,150.8273 2750.79,121.1073 2716,108.4473 C2615.69,71.9473 2154.29,94.0973 1957,106.6373 C1729.58,121.0873 1469.0308,160.7155 1340.3008,181.8455 " fill="none" id="gateway-to-registry" style="stroke:#000000;stroke-width:1;"/><polygon fill="#000000" points="1334.38,182.8173,1343.9091,185.3067,1339.314,182.0074,1342.6133,177.4124,1334.38,182.8173" style="stroke:#000000;stroke-width:1;"/><text fill="#000000" font-family="Verdana" font-size="13" lengthAdjust="spacing" textLength="182.9014" x="1958" y="97.5171">Discover Customer Services</text></g><!--link registry to gateway--><g id="link_registry_gateway"><path d="M1334.26,175.3973 C1421.66,153.2873 1568.61,119.5673 1697.5,106.6373 C1738.26,102.5473 2579.12,58.7373 2716,108.4473 C2750.8,121.0873 2778.1516,146.3617 2797.3616,167.6617 " fill="none" id="registry-to-gateway" style="stroke:#000000;stroke-width:1;"/><polygon fill="#000000" points="2801.38,172.1173,2798.3228,162.755,2798.0313,168.4043,2792.382,168.1128,2801.38,172.1173" style="stroke:#000000;stroke-width:1;"/><text fill="#000000" font-family="Verdana" font-size="13" lengthAdjust="spacing" textLength="75.2261" x="1698.5" y="97.5171">Service List</text></g><!--link orderclient to registry--><g id="link_orderclient_registry"><path d="M3104.15,172.2273 C3089.33,151.0073 3064.42,121.3273 3034,108.4473 C2955.83,75.3473 1590.89,106.6873 1506,106.6373 C1429.56,106.5873 1403.5,74.7873 1334,106.6373 C1304.78,120.0273 1285.5151,145.4352 1272.6051,167.0652 " fill="none" id="orderclient-to-registry" style="stroke:#000000;stroke-width:1;"/><polygon fill="#000000" points="1269.53,172.2173,1277.5773,166.5392,1272.0925,167.9239,1270.7079,162.4391,1269.53,172.2173" style="stroke:#000000;stroke-width:1;"/><text fill="#000000" font-family="Verdana" font-size="13" lengthAdjust="spacing" textLength="170.1807" x="1335" y="97.5171">Discover Payment Service</text></g><!--link registry to orderclient--><g id="link_registry_orderclient"><path d="M1334.45,178.4973 C1436.08,156.5673 1620.3,120.1773 1780,106.6373 C1828.92,102.4873 2973.18,82.6773 3034,108.4473 C3064.42,121.3373 3085.8934,146.099 3100.7134,167.309 " fill="none" id="registry-to-orderclient" style="stroke:#000000;stroke-width:1;"/><polygon fill="#000000" points="3104.15,172.2273,3102.274,162.5588,3101.2862,168.1287,3095.7163,167.1409,3104.15,172.2273" style="stroke:#000000;stroke-width:1;"/><text fill="#000000" font-family="Verdana" font-size="13" lengthAdjust="spacing" textLength="170.3203" x="1781" y="97.5171">Payment Service Instance</text></g><!--link gateway to gateway--><g id="link_gateway_gateway"><path d="M2886.43,178.9473 C2905.9,179.4573 2921.05,185.1273 2921.05,195.9573 C2921.05,206.7873 2911.898,212.3033 2892.428,212.8033 " fill="none" id="gateway-to-gateway" style="stroke:#000000;stroke-width:1;"/><polygon fill="#000000" points="2886.43,212.9573,2895.5297,216.7249,2891.4284,212.8289,2895.3243,208.7276,2886.43,212.9573" style="stroke:#000000;stroke-width:1;"/><text fill="#000000" font-family="Verdana" font-size="13" lengthAdjust="spacing" textLength="100.5532" x="2927.05" y="201.5271">Select Instance</text></g><!--link gateway to customer1--><g id="link_gateway_customer1"><path d="M2801.37,172.1273 C2782.16,150.8373 2750.78,121.1173 2716,108.4473 C2619.43,73.2673 2356.28,106.8373 2253.5,106.6373 C2140.69,106.4173 329.23,70.4873 223,108.4473 C187.75,121.0473 159.7962,146.3753 140.1562,167.6853 " fill="none" id="gateway-to-customer1" style="stroke:#000000;stroke-width:1;"/><polygon fill="#000000" points="136.09,172.0973,145.1307,168.1901,139.4785,168.4206,139.248,162.7685,136.09,172.0973" style="stroke:#000000;stroke-width:1;"/><text fill="#000000" font-family="Verdana" font-size="13" lengthAdjust="spacing" textLength="105.2759" x="2147.5" y="97.5171">Service Request</text></g><!--link orderclient to payment--><g id="link_orderclient_payment"><path d="M3104.15,172.2373 C3089.33,151.0273 3064.41,121.3573 3034,108.4473 C2965.62,79.4273 2439.78,106.7373 2365.5,106.6373 C2217.78,106.4373 1177.26,65.2173 1036,108.4473 C995.42,120.8673 960.5488,146.7116 935.9588,168.0816 " fill="none" id="orderclient-to-payment" style="stroke:#000000;stroke-width:1;"/><polygon fill="#000000" points="931.43,172.0173,940.847,169.1329,935.204,168.7375,935.5993,163.0945,931.43,172.0173" style="stroke:#000000;stroke-width:1;"/><text fill="#000000" font-family="Verdana" font-size="13" lengthAdjust="spacing" textLength="105.2759" x="2259.5" y="97.5171">Service Request</text></g><!--link registry to GMN40--><g id="link_registry_GMN40"><path d="M1334.32,187.6973 C1535.14,166.7173 2089.86,111.7473 2553.5,93.4473 C2623.67,90.6773 3117.91,74.4073 3185.5,93.4473 C3221.11,103.4773 3256.62,123.4173 3285.72,143.0673 " fill="none" id="registry-GMN40" style="stroke:#000000;stroke-width:1;stroke-dasharray:7.0,7.0;"/></g><!--link health to GMN43--><g id="link_health_GMN43"><path d="M2646.91,172.1873 C2670.76,147.0673 2712.33,108.9773 2757.5,93.4473 C2795.64,80.3373 3445.65,79.5273 3483.5,93.4473 C3515.21,105.1073 3544.26,129.2273 3565.9,151.1373 " fill="none" id="health-GMN43" style="stroke:#000000;stroke-width:1;stroke-dasharray:7.0,7.0;"/></g><!--SRC=[XLLDZzem4BtdLqmvj18IgfOZXqeiMxf8h9ekx6dLWqbc4sk3dTg65Qhwt-klnCu7uWOpRvvddkSvdrI9HuIw8fGbYgeAOOVYJ3E41oepVaPnWPGeXO8bIKsoTr8WJ1hCCnPKAd6PmDy4uBKV_Wr4Wl1_D20dYXo8Z0WUV6HYaD85yqFoR-Ii3PEAi0obFsnraeeVKRGDB-rncG_VZMBkEvYvmVmK-O24czZTC7iVihOs9PSZCjNaRRPsiSuCguf6i6Q2PRg17qJX1t5A5UxtuDXmQ6PvEjIFI2fLmXDdL751MU79VNnLOlQEmbAKDcIglq3lgeYYdC6wuXz9Ao3ClhMN1mkF35srmFaD843YzBn5w7IzXVBwte8bRL83sytIo9sMAMpvXhrneyT0HYU6aynG15aM46iRwwLXlg31N4OOvjSOvhSOl8ozyaRSkFQ5bOFgIAsNMbinYB1JH9ral1R1_5O6lvazbWO4VPl9g-B_EXdEvPdGYXp2OoEJ09fr3_4gj4ZOwap4hz5DTuksVOj98ijSwxndu2vlNB_eGzltoCYsvII7UrBf_-tgH9h53LQOgL0RWU852-xySyAHKHeFZ22ZEqGnCFUe4HjWv9vhz_UCHwrRC1dZUeq4BKe5_2r-wgVJ_iS0rgYtJA1SJASQC1jzWhvscxOul-nkIIE7scHF-Pqfr0Hwe-8Zdb0Hy_6nvjVFfaskzHBgVlJuIj-9aUYpxiMjVO8i1pDSVqJ_Xfe1OnF2_bA7oHxt-nI-ixpcL5-ISwc9xrSff5p48MUTPiOjBsXcuoaAodEQnVEsFVq7]--></g></svg>