<svg xmlns="http://www.w3.org/2000/svg" xmlns:xlink="http://www.w3.org/1999/xlink" contentStyleType="text/css" height="506px" preserveAspectRatio="none" style="width:1041px;height:506px;background:#FFFFFF;" version="1.1" viewBox="0 0 1041 506" width="1041px" zoomAndPan="magnify"><title>&#31995;&#32113;&#19978;&#19979;&#25991;&#27010;&#35261;&#22294;</title><defs/><g><text fill="#000000" font-family="sans-serif" font-size="14" font-weight="bold" lengthAdjust="spacing" textLength="112" x="457.75" y="23.5352">&#31995;&#32113;&#19978;&#19979;&#25991;&#27010;&#35261;&#22294;</text><!--cluster System--><g id="cluster_System"><path d="M8.5,190.4783 L159.3369,190.4783 A3.75,3.75 0 0 1 161.8369,192.9783 L168.8369,212.9666 L905.5,212.9666 A2.5,2.5 0 0 1 908,215.4666 L908,301.4683 A2.5,2.5 0 0 1 905.5,303.9683 L8.5,303.9683 A2.5,2.5 0 0 1 6,301.4683 L6,192.9783 A2.5,2.5 0 0 1 8.5,190.4783 " fill="none" style="stroke:#000000;stroke-width:1.5;"/><line style="stroke:#000000;stroke-width:1.5;" x1="6" x2="168.8369" y1="212.9666" y2="212.9666"/><text fill="#000000" font-family="sans-serif" font-size="14" font-weight="bold" lengthAdjust="spacing" textLength="149.8369" x="10" y="206.0134">GenAI Demo &#38651;&#21830;&#31995;&#32113;</text></g><!--cluster ExternalSystems--><g id="cluster_ExternalSystems"><path d="M181.5,386.3083 L238.5,386.3083 A3.75,3.75 0 0 1 241,388.8083 L248,408.7966 L905.5,408.7966 A2.5,2.5 0 0 1 908,411.2966 L908,497.2983 A2.5,2.5 0 0 1 905.5,499.7983 L181.5,499.7983 A2.5,2.5 0 0 1 179,497.2983 L179,388.8083 A2.5,2.5 0 0 1 181.5,386.3083 " fill="none" style="stroke:#000000;stroke-width:1.5;"/><line style="stroke:#000000;stroke-width:1.5;" x1="179" x2="248" y1="408.7966" y2="408.7966"/><text fill="#000000" font-family="sans-serif" font-size="14" font-weight="bold" lengthAdjust="spacing" textLength="56" x="183" y="401.8434">&#22806;&#37096;&#31995;&#32113;</text></g><!--entity CustomerService--><g id="elem_CustomerService"><rect fill="#F1F1F1" height="46.4883" rx="2.5" ry="2.5" style="stroke:#181818;stroke-width:0.5;" width="124" x="161" y="233.4783"/><rect fill="#F1F1F1" height="10" style="stroke:#181818;stroke-width:0.5;" width="15" x="265" y="238.4783"/><rect fill="#F1F1F1" height="2" style="stroke:#181818;stroke-width:0.5;" width="4" x="263" y="240.4783"/><rect fill="#F1F1F1" height="2" style="stroke:#181818;stroke-width:0.5;" width="4" x="263" y="244.4783"/><text fill="#000000" font-family="sans-serif" font-size="14" lengthAdjust="spacing" textLength="84" x="176" y="267.0134">&#23458;&#25142;&#31649;&#29702;&#26381;&#21209;</text></g><!--entity ProductService--><g id="elem_ProductService"><rect fill="#F1F1F1" height="46.4883" rx="2.5" ry="2.5" style="stroke:#181818;stroke-width:0.5;" width="124" x="320" y="233.4783"/><rect fill="#F1F1F1" height="10" style="stroke:#181818;stroke-width:0.5;" width="15" x="424" y="238.4783"/><rect fill="#F1F1F1" height="2" style="stroke:#181818;stroke-width:0.5;" width="4" x="422" y="240.4783"/><rect fill="#F1F1F1" height="2" style="stroke:#181818;stroke-width:0.5;" width="4" x="422" y="244.4783"/><text fill="#000000" font-family="sans-serif" font-size="14" lengthAdjust="spacing" textLength="84" x="335" y="267.0134">&#29986;&#21697;&#31649;&#29702;&#26381;&#21209;</text></g><!--entity OrderService--><g id="elem_OrderService"><rect fill="#F1F1F1" height="46.4883" rx="2.5" ry="2.5" style="stroke:#181818;stroke-width:0.5;" width="124" x="479" y="233.4783"/><rect fill="#F1F1F1" height="10" style="stroke:#181818;stroke-width:0.5;" width="15" x="583" y="238.4783"/><rect fill="#F1F1F1" height="2" style="stroke:#181818;stroke-width:0.5;" width="4" x="581" y="240.4783"/><rect fill="#F1F1F1" height="2" style="stroke:#181818;stroke-width:0.5;" width="4" x="581" y="244.4783"/><text fill="#000000" font-family="sans-serif" font-size="14" lengthAdjust="spacing" textLength="84" x="494" y="267.0134">&#35330;&#21934;&#31649;&#29702;&#26381;&#21209;</text></g><!--entity PaymentService--><g id="elem_PaymentService"><rect fill="#F1F1F1" height="46.4883" rx="2.5" ry="2.5" style="stroke:#181818;stroke-width:0.5;" width="96" x="30" y="233.4783"/><rect fill="#F1F1F1" height="10" style="stroke:#181818;stroke-width:0.5;" width="15" x="106" y="238.4783"/><rect fill="#F1F1F1" height="2" style="stroke:#181818;stroke-width:0.5;" width="4" x="104" y="240.4783"/><rect fill="#F1F1F1" height="2" style="stroke:#181818;stroke-width:0.5;" width="4" x="104" y="244.4783"/><text fill="#000000" font-family="sans-serif" font-size="14" lengthAdjust="spacing" textLength="56" x="45" y="267.0134">&#25903;&#20184;&#26381;&#21209;</text></g><!--entity DeliveryService--><g id="elem_DeliveryService"><rect fill="#F1F1F1" height="46.4883" rx="2.5" ry="2.5" style="stroke:#181818;stroke-width:0.5;" width="96" x="638" y="233.4783"/><rect fill="#F1F1F1" height="10" style="stroke:#181818;stroke-width:0.5;" width="15" x="714" y="238.4783"/><rect fill="#F1F1F1" height="2" style="stroke:#181818;stroke-width:0.5;" width="4" x="712" y="240.4783"/><rect fill="#F1F1F1" height="2" style="stroke:#181818;stroke-width:0.5;" width="4" x="712" y="244.4783"/><text fill="#000000" font-family="sans-serif" font-size="14" lengthAdjust="spacing" textLength="56" x="653" y="267.0134">&#37197;&#36865;&#26381;&#21209;</text></g><!--entity NotificationService--><g id="elem_NotificationService"><rect fill="#F1F1F1" height="46.4883" rx="2.5" ry="2.5" style="stroke:#181818;stroke-width:0.5;" width="96" x="769" y="233.4783"/><rect fill="#F1F1F1" height="10" style="stroke:#181818;stroke-width:0.5;" width="15" x="845" y="238.4783"/><rect fill="#F1F1F1" height="2" style="stroke:#181818;stroke-width:0.5;" width="4" x="843" y="240.4783"/><rect fill="#F1F1F1" height="2" style="stroke:#181818;stroke-width:0.5;" width="4" x="843" y="244.4783"/><text fill="#000000" font-family="sans-serif" font-size="14" lengthAdjust="spacing" textLength="56" x="784" y="267.0134">&#36890;&#30693;&#26381;&#21209;</text></g><!--entity PaymentGateway--><g id="elem_PaymentGateway"><rect fill="#F1F1F1" height="46.4883" rx="2.5" ry="2.5" style="stroke:#181818;stroke-width:0.5;" width="96" x="203" y="429.3083"/><rect fill="#F1F1F1" height="10" style="stroke:#181818;stroke-width:0.5;" width="15" x="279" y="434.3083"/><rect fill="#F1F1F1" height="2" style="stroke:#181818;stroke-width:0.5;" width="4" x="277" y="436.3083"/><rect fill="#F1F1F1" height="2" style="stroke:#181818;stroke-width:0.5;" width="4" x="277" y="440.3083"/><text fill="#000000" font-family="sans-serif" font-size="14" lengthAdjust="spacing" textLength="56" x="218" y="462.8434">&#25903;&#20184;&#38296;&#36947;</text></g><!--entity LogisticsSystem--><g id="elem_LogisticsSystem"><rect fill="#F1F1F1" height="46.4883" rx="2.5" ry="2.5" style="stroke:#181818;stroke-width:0.5;" width="96" x="479" y="429.3083"/><rect fill="#F1F1F1" height="10" style="stroke:#181818;stroke-width:0.5;" width="15" x="555" y="434.3083"/><rect fill="#F1F1F1" height="2" style="stroke:#181818;stroke-width:0.5;" width="4" x="553" y="436.3083"/><rect fill="#F1F1F1" height="2" style="stroke:#181818;stroke-width:0.5;" width="4" x="553" y="440.3083"/><text fill="#000000" font-family="sans-serif" font-size="14" lengthAdjust="spacing" textLength="56" x="494" y="462.8434">&#29289;&#27969;&#31995;&#32113;</text></g><!--entity SMSService--><g id="elem_SMSService"><rect fill="#F1F1F1" height="46.4883" rx="2.5" ry="2.5" style="stroke:#181818;stroke-width:0.5;" width="96" x="769" y="429.3083"/><rect fill="#F1F1F1" height="10" style="stroke:#181818;stroke-width:0.5;" width="15" x="845" y="434.3083"/><rect fill="#F1F1F1" height="2" style="stroke:#181818;stroke-width:0.5;" width="4" x="843" y="436.3083"/><rect fill="#F1F1F1" height="2" style="stroke:#181818;stroke-width:0.5;" width="4" x="843" y="440.3083"/><text fill="#000000" font-family="sans-serif" font-size="14" lengthAdjust="spacing" textLength="56" x="784" y="462.8434">&#31777;&#35338;&#26381;&#21209;</text></g><!--entity EmailService--><g id="elem_EmailService"><rect fill="#F1F1F1" height="46.4883" rx="2.5" ry="2.5" style="stroke:#181818;stroke-width:0.5;" width="124" x="610" y="429.3083"/><rect fill="#F1F1F1" height="10" style="stroke:#181818;stroke-width:0.5;" width="15" x="714" y="434.3083"/><rect fill="#F1F1F1" height="2" style="stroke:#181818;stroke-width:0.5;" width="4" x="712" y="436.3083"/><rect fill="#F1F1F1" height="2" style="stroke:#181818;stroke-width:0.5;" width="4" x="712" y="440.3083"/><text fill="#000000" font-family="sans-serif" font-size="14" lengthAdjust="spacing" textLength="84" x="625" y="462.8434">&#38651;&#23376;&#37109;&#20214;&#26381;&#21209;</text></g><!--entity AuthService--><g id="elem_AuthService"><rect fill="#F1F1F1" height="46.4883" rx="2.5" ry="2.5" style="stroke:#181818;stroke-width:0.5;" width="110" x="334" y="429.3083"/><rect fill="#F1F1F1" height="10" style="stroke:#181818;stroke-width:0.5;" width="15" x="424" y="434.3083"/><rect fill="#F1F1F1" height="2" style="stroke:#181818;stroke-width:0.5;" width="4" x="422" y="436.3083"/><rect fill="#F1F1F1" height="2" style="stroke:#181818;stroke-width:0.5;" width="4" x="422" y="440.3083"/><text fill="#000000" font-family="sans-serif" font-size="14" lengthAdjust="spacing" textLength="70" x="349" y="462.8434">&#31532;&#19977;&#26041;&#35469;&#35657;</text></g><!--entity Customer--><g id="elem_Customer"><ellipse cx="247" cy="51.4883" fill="#F1F1F1" rx="8" ry="8" style="stroke:#181818;stroke-width:0.5;"/><path d="M247,59.4883 L247,86.4883 M234,67.4883 L260,67.4883 M247,86.4883 L234,101.4883 M247,86.4883 L260,101.4883 " fill="none" style="stroke:#181818;stroke-width:0.5;"/><text fill="#000000" font-family="sans-serif" font-size="14" lengthAdjust="spacing" textLength="28" x="233" y="116.5234">&#23458;&#25142;</text></g><!--entity Seller--><g id="elem_Seller"><ellipse cx="566" cy="51.4883" fill="#F1F1F1" rx="8" ry="8" style="stroke:#181818;stroke-width:0.5;"/><path d="M566,59.4883 L566,86.4883 M553,67.4883 L579,67.4883 M566,86.4883 L553,101.4883 M566,86.4883 L579,101.4883 " fill="none" style="stroke:#181818;stroke-width:0.5;"/><text fill="#000000" font-family="sans-serif" font-size="14" lengthAdjust="spacing" textLength="28" x="552" y="116.5234">&#36067;&#23478;</text></g><!--entity Admin--><g id="elem_Admin"><ellipse cx="900" cy="51.4883" fill="#F1F1F1" rx="8" ry="8" style="stroke:#181818;stroke-width:0.5;"/><path d="M900,59.4883 L900,86.4883 M887,67.4883 L913,67.4883 M900,86.4883 L887,101.4883 M900,86.4883 L913,101.4883 " fill="none" style="stroke:#181818;stroke-width:0.5;"/><text fill="#000000" font-family="sans-serif" font-size="14" lengthAdjust="spacing" textLength="42" x="879" y="116.5234">&#31649;&#29702;&#21729;</text></g><!--entity DeliveryPerson--><g id="elem_DeliveryPerson"><ellipse cx="754" cy="51.4883" fill="#F1F1F1" rx="8" ry="8" style="stroke:#181818;stroke-width:0.5;"/><path d="M754,59.4883 L754,86.4883 M741,67.4883 L767,67.4883 M754,86.4883 L741,101.4883 M754,86.4883 L767,101.4883 " fill="none" style="stroke:#181818;stroke-width:0.5;"/><text fill="#000000" font-family="sans-serif" font-size="14" lengthAdjust="spacing" textLength="42" x="733" y="116.5234">&#37197;&#36865;&#21729;</text></g><g id="elem_GMN33"><path d="M935.5,198.1383 L935.5,315.3121 L1034.5,315.3121 L1034.5,208.1383 L1024.5,198.1383 L935.5,198.1383 " fill="#FEFFDD" style="stroke:#181818;stroke-width:0.5;"/><path d="M1024.5,198.1383 L1024.5,208.1383 L1034.5,208.1383 L1024.5,198.1383 " fill="#FEFFDD" style="stroke:#181818;stroke-width:1;"/><text fill="#000000" font-family="sans-serif" font-size="13" lengthAdjust="spacing" textLength="78" x="941.5" y="215.7066">&#26680;&#24515;&#38651;&#21830;&#21151;&#33021;</text><text fill="#000000" font-family="sans-serif" font-size="13" lengthAdjust="spacing" textLength="76.6353" x="941.5" y="231.0172">- &#20351;&#29992;&#32773;&#31649;&#29702;</text><text fill="#000000" font-family="sans-serif" font-size="13" lengthAdjust="spacing" textLength="63.6353" x="941.5" y="246.3277">- &#21830;&#21697;&#31649;&#29702;</text><text fill="#000000" font-family="sans-serif" font-size="13" lengthAdjust="spacing" textLength="63.6353" x="941.5" y="261.6383">- &#35330;&#21934;&#34389;&#29702;</text><text fill="#000000" font-family="sans-serif" font-size="13" lengthAdjust="spacing" textLength="63.6353" x="941.5" y="276.9488">- &#25903;&#20184;&#34389;&#29702;</text><text fill="#000000" font-family="sans-serif" font-size="13" lengthAdjust="spacing" textLength="63.6353" x="941.5" y="292.2594">- &#37197;&#36865;&#31649;&#29702;</text><text fill="#000000" font-family="sans-serif" font-size="13" lengthAdjust="spacing" textLength="63.6353" x="941.5" y="307.5699">- &#36890;&#30693;&#26381;&#21209;</text></g><g id="elem_GMN36"><path d="M935.5,409.2783 L935.5,495.831 L1034.5,495.831 L1034.5,419.2783 L1024.5,409.2783 L935.5,409.2783 " fill="#FEFFDD" style="stroke:#181818;stroke-width:0.5;"/><path d="M1024.5,409.2783 L1024.5,419.2783 L1034.5,419.2783 L1024.5,409.2783 " fill="#FEFFDD" style="stroke:#181818;stroke-width:1;"/><text fill="#000000" font-family="sans-serif" font-size="13" lengthAdjust="spacing" textLength="78" x="941.5" y="426.8466">&#22806;&#37096;&#25972;&#21512;&#26381;&#21209;</text><text fill="#000000" font-family="sans-serif" font-size="13" lengthAdjust="spacing" textLength="63.6353" x="941.5" y="442.1572">- &#37329;&#27969;&#26381;&#21209;</text><text fill="#000000" font-family="sans-serif" font-size="13" lengthAdjust="spacing" textLength="63.6353" x="941.5" y="457.4677">- &#29289;&#27969;&#26381;&#21209;</text><text fill="#000000" font-family="sans-serif" font-size="13" lengthAdjust="spacing" textLength="63.6353" x="941.5" y="472.7783">- &#36890;&#35338;&#26381;&#21209;</text><text fill="#000000" font-family="sans-serif" font-size="13" lengthAdjust="spacing" textLength="63.6353" x="941.5" y="488.0888">- &#35469;&#35657;&#26381;&#21209;</text></g><!--link Customer to CustomerService--><g id="link_Customer_CustomerService"><path d="M232.53,94.9683 C219.62,107.3883 201.6,127.5683 194,149.4783 C184.17,177.8383 194.4647,206.0905 206.0947,227.7805 " fill="none" id="Customer-to-CustomerService" style="stroke:#181818;stroke-width:1;"/><polygon fill="#181818" points="208.93,233.0683,208.2023,223.2463,206.5673,228.6618,201.1518,227.0267,208.93,233.0683" style="stroke:#181818;stroke-width:1;"/><text fill="#000000" font-family="sans-serif" font-size="13" lengthAdjust="spacing" textLength="58.8174" x="195" y="163.0466">&#35387;&#20874;/&#30331;&#20837;</text></g><!--link Customer to ProductService--><g id="link_Customer_ProductService"><path d="M261.41,112.7183 C269.88,129.2983 281.38,149.7783 294,166.4783 C297.03,170.4883 298.46,170.9083 302,174.4783 C321.66,194.2883 339.7255,212.6478 355.7655,228.9778 " fill="none" id="Customer-to-ProductService" style="stroke:#181818;stroke-width:1;"/><polygon fill="#181818" points="359.97,233.2583,356.517,224.0346,356.4663,229.6912,350.8097,229.6405,359.97,233.2583" style="stroke:#181818;stroke-width:1;"/><text fill="#000000" font-family="sans-serif" font-size="13" lengthAdjust="spacing" textLength="52" x="295" y="163.0466">&#28687;&#35261;&#21830;&#21697;</text></g><!--link Customer to OrderService--><g id="link_Customer_OrderService"><path d="M261.21,90.3983 C290.65,107.0083 360.87,144.9583 424,166.4783 C439.92,171.9083 446.26,166.3683 461,174.4783 C487.19,188.8883 506.6265,209.8398 521.1865,228.4798 " fill="none" id="Customer-to-OrderService" style="stroke:#181818;stroke-width:1;"/><polygon fill="#181818" points="524.88,233.2083,522.4921,223.6533,521.8021,229.2679,516.1875,228.5779,524.88,233.2083" style="stroke:#181818;stroke-width:1;"/><text fill="#000000" font-family="sans-serif" font-size="13" lengthAdjust="spacing" textLength="39" x="425" y="163.0466">&#19979;&#35330;&#21934;</text></g><!--link Customer to PaymentService--><g id="link_Customer_PaymentService"><path d="M232.54,90.7983 C213.45,102.5283 179.43,124.9483 155,149.4783 C129.28,175.3083 108.8041,205.2566 94.6841,227.9066 " fill="none" id="Customer-to-PaymentService" style="stroke:#181818;stroke-width:1;"/><polygon fill="#181818" points="91.51,232.9983,99.6656,227.4769,94.1551,228.7552,92.8768,223.2447,91.51,232.9983" style="stroke:#181818;stroke-width:1;"/><text fill="#000000" font-family="sans-serif" font-size="13" lengthAdjust="spacing" textLength="26" x="156" y="163.0466">&#20184;&#27454;</text></g><!--link Seller to ProductService--><g id="link_Seller_ProductService"><path d="M551.6,94.4683 C531.27,111.8583 493.16,144.9083 462,174.4783 C441.61,193.8283 423.3868,212.3815 407.4968,228.9215 " fill="none" id="Seller-to-ProductService" style="stroke:#181818;stroke-width:1;"/><polygon fill="#181818" points="403.34,233.2483,412.4597,229.5292,406.804,229.6426,406.6906,223.9869,403.34,233.2483" style="stroke:#181818;stroke-width:1;"/><text fill="#000000" font-family="sans-serif" font-size="13" lengthAdjust="spacing" textLength="52" x="488.17" y="163.0466">&#31649;&#29702;&#21830;&#21697;</text></g><!--link Seller to OrderService--><g id="link_Seller_OrderService"><path d="M560.58,119.8783 C555.61,154.3583 549.2655,198.3396 545.1255,227.0796 " fill="none" id="Seller-to-OrderService" style="stroke:#181818;stroke-width:1;"/><polygon fill="#181818" points="544.27,233.0183,549.5123,224.6805,544.9829,228.0694,541.5941,223.5399,544.27,233.0183" style="stroke:#181818;stroke-width:1;"/><text fill="#000000" font-family="sans-serif" font-size="13" lengthAdjust="spacing" textLength="52" x="556.74" y="163.0466">&#34389;&#29702;&#35330;&#21934;</text></g><!--link Seller to DeliveryService--><g id="link_Seller_DeliveryService"><path d="M580.35,99.8883 C591.04,113.2683 605.84,132.2283 618,149.4783 C637.93,177.7683 656.0241,206.493 669.3641,228.253 " fill="none" id="Seller-to-DeliveryService" style="stroke:#181818;stroke-width:1;"/><polygon fill="#181818" points="672.5,233.3683,671.2063,223.6048,669.8867,229.1056,664.3859,227.786,672.5,233.3683" style="stroke:#181818;stroke-width:1;"/><text fill="#000000" font-family="sans-serif" font-size="13" lengthAdjust="spacing" textLength="52" x="630.7" y="163.0466">&#23433;&#25490;&#37197;&#36865;</text></g><!--link Admin to System--><g id="link_Admin_System"><path d="M900,119.8783 C900,132.4358 900,147.0395 900,161.9219 C900,169.363 900,176.8739 900,184.2334 C900,186.0733 900,187.9037 900,189.7212 C900,189.9484 900,206.6636 900,206.8904 " fill="none" id="Admin-to-System" style="stroke:#181818;stroke-width:1;"/><polygon fill="#181818" points="900,212.8904,904,203.8904,900,207.8904,896,203.8904,900,212.8904" style="stroke:#181818;stroke-width:1;"/><text fill="#000000" font-family="sans-serif" font-size="13" lengthAdjust="spacing" textLength="52" x="901" y="163.0466">&#31995;&#32113;&#31649;&#29702;</text></g><!--link DeliveryPerson to DeliveryService--><g id="link_DeliveryPerson_DeliveryService"><path d="M739.25,119.8783 C725.73,154.3583 708.3604,198.6924 697.0904,227.4324 " fill="none" id="DeliveryPerson-to-DeliveryService" style="stroke:#181818;stroke-width:1;"/><polygon fill="#181818" points="694.9,233.0183,701.9096,226.0997,696.7254,228.3634,694.4617,223.1792,694.9,233.0183" style="stroke:#181818;stroke-width:1;"/><text fill="#000000" font-family="sans-serif" font-size="13" lengthAdjust="spacing" textLength="78" x="727.09" y="163.0466">&#26356;&#26032;&#37197;&#36865;&#29376;&#24907;</text></g><!--link PaymentService to PaymentGateway--><g id="link_PaymentService_PaymentGateway"><path d="M98.18,280.3383 C131.52,317.6883 193.6951,387.3516 226.9451,424.6116 " fill="none" id="PaymentService-to-PaymentGateway" style="stroke:#181818;stroke-width:1;"/><polygon fill="#181818" points="230.94,429.0883,227.9321,419.71,227.6109,425.3577,221.9632,425.0365,230.94,429.0883" style="stroke:#181818;stroke-width:1;"/><text fill="#000000" font-family="sans-serif" font-size="13" lengthAdjust="spacing" textLength="52" x="170.69" y="358.8766">&#34389;&#29702;&#20184;&#27454;</text></g><!--link DeliveryService to LogisticsSystem--><g id="link_DeliveryService_LogisticsSystem"><path d="M667.42,280.1083 C648.61,302.7983 618.71,338.9283 593,370.3083 C576.76,390.1283 562.167,408.1063 548.937,424.4363 " fill="none" id="DeliveryService-to-LogisticsSystem" style="stroke:#181818;stroke-width:1;"/><polygon fill="#181818" points="545.16,429.0983,553.9335,424.6233,548.3075,425.2133,547.7175,419.5873,545.16,429.0983" style="stroke:#181818;stroke-width:1;"/><text fill="#000000" font-family="sans-serif" font-size="13" lengthAdjust="spacing" textLength="52" x="614.31" y="358.8766">&#29289;&#27969;&#36861;&#36452;</text></g><!--link NotificationService to SMSService--><g id="link_NotificationService_SMSService"><path d="M817,280.3383 C817,317.6883 817,385.8283 817,423.0883 " fill="none" id="NotificationService-to-SMSService" style="stroke:#181818;stroke-width:1;"/><polygon fill="#181818" points="817,429.0883,821,420.0883,817,424.0883,813,420.0883,817,429.0883" style="stroke:#181818;stroke-width:1;"/><text fill="#000000" font-family="sans-serif" font-size="13" lengthAdjust="spacing" textLength="52" x="818" y="358.8766">&#30332;&#36865;&#31777;&#35338;</text></g><!--link NotificationService to EmailService--><g id="link_NotificationService_EmailService"><path d="M800.08,280.3383 C772.14,317.6883 720.2738,387.0236 692.4038,424.2836 " fill="none" id="NotificationService-to-EmailService" style="stroke:#181818;stroke-width:1;"/><polygon fill="#181818" points="688.81,429.0883,697.4038,424.2772,691.8048,425.0844,690.9976,419.4855,688.81,429.0883" style="stroke:#181818;stroke-width:1;"/><text fill="#000000" font-family="sans-serif" font-size="13" lengthAdjust="spacing" textLength="52" x="749.85" y="358.8766">&#30332;&#36865;&#37109;&#20214;</text></g><!--link CustomerService to AuthService--><g id="link_CustomerService_AuthService"><path d="M242.37,280.3383 C274.35,317.6883 333.9472,387.2711 365.8572,424.5311 " fill="none" id="CustomerService-to-AuthService" style="stroke:#181818;stroke-width:1;"/><polygon fill="#181818" points="369.76,429.0883,366.9439,419.6506,366.5076,425.2906,360.8676,424.8544,369.76,429.0883" style="stroke:#181818;stroke-width:1;"/><text fill="#000000" font-family="sans-serif" font-size="13" lengthAdjust="spacing" textLength="65" x="311.98" y="358.8766">&#31532;&#19977;&#26041;&#30331;&#20837;</text></g><!--link System to GMN33--><g id="link_System_GMN33"><path d="M908.0914,256.7183 C908.1365,256.7183 908.1815,256.7183 908.2266,256.7183 C908.5869,256.7183 908.9472,256.7183 909.3075,256.7183 C912.19,256.7183 915.0725,256.7183 917.955,256.7183 C923.72,256.7183 929.485,256.7183 935.25,256.7183 " fill="none" id="System-GMN33" style="stroke:#181818;stroke-width:1;stroke-dasharray:7.0,7.0;"/></g><!--link ExternalSystems to GMN36--><g id="link_ExternalSystems_GMN36"><path d="M908.0914,452.5583 C908.1365,452.5583 908.1815,452.5583 908.2266,452.5583 C908.5869,452.5583 908.9472,452.5583 909.3075,452.5583 C912.19,452.5583 915.0725,452.5583 917.955,452.5583 C923.72,452.5583 929.485,452.5583 935.25,452.5583 " fill="none" id="ExternalSystems-GMN36" style="stroke:#181818;stroke-width:1;stroke-dasharray:7.0,7.0;"/></g><!--SRC=[TLJRJjj047tVhrZnqYVKTnugeHQXIhqWvGiiPm6hiOtiXJQgAYMa0PA8ba9Y4K2YK41f1IaL5uMcAJ_ZNTj_qRN73XkdtiUTStPcpfnPgj42mTvLtxlvvVRgRg_1dNL-jkgV3TY1Wv2YKjF24wnxp3Tk9x1YuwVBDZLrOYKX_-eRwq8eHmg5Xu3NFVAsrjZEKHIRpkkQaOI2wcPGAYUXPwIWhH2hE4SispGGMbBKDye2mHEpn9X-BiAwYOFzFckjGPsGgsXJekFt28kZclgIQH239fL2RdwmoHhjaQfpn5hHL99cUSrZjbCUOyrPPdvPfHaalxFAdEuOwRMLpyp3cp_T_gwSGIdg8f811vqaU29L5hwqvnsUIlXN9jNcDLMXccaad0-Imkp42IeTITQPTvHOXb80UUrnVQ63mDaDoZjo1xCA9M-LufYmjU_yfYmbU64kQ3RLL1ioZE4lZ_nENUeWzpANrQomnCLMKBbn-xSIOKPNj4BMcC_FtLwDEtV-Zqt_eWR6NAQBaZIFi3kuzveTlrJrDzQXS6_le_jxcpLQAB4HdfnyalOKdi9-fy_Mwe-zTfzLJqV1erOIMA_qELoobjYGyYXKDf00Yfq4fwKU775EY1F6El-B46nXHbBOIKWg0LCf_NPBmEAi4YnbFu5atHh_j0q-HIXQyWWPh-TK_BL0NZIwwHbFylrhxbp2arwZnAkDS2hmZXW9M1O6BWR3MzTiQmEbr904Yeqvx2gMAPqtPAIy6LOVsTU_7_Xt9-W_omIz3YqQCjf_mheZ6sSoP8yEEU1ab7PLY9Sy6i8J5yS-GuP92RQqXKMApNayN2p-jSVkA_1pilgXNnc8oya7VyT32U_04T85p1uKYovWxwMBU40F5FdpGSJ8ux2iT76f_qKGutb6Oup9qMlhNuJoqWMCGaQKzePV1TGSBNMwW7y0]--></g></svg>