<svg xmlns="http://www.w3.org/2000/svg" xmlns:xlink="http://www.w3.org/1999/xlink" contentStyleType="text/css" height="679px" preserveAspectRatio="none" style="width:4472px;height:679px;background:#FFFFFF;" version="1.1" viewBox="0 0 4472 679" width="4472px" zoomAndPan="magnify"><title>Application Services Overview</title><defs/><g><text fill="#000000" font-family="Verdana" font-size="22" font-weight="bold" lengthAdjust="spacing" textLength="374" x="2044.5" y="37.1182">Application Services Overview</text><text fill="#000000" font-family="Verdana" font-size="22" font-weight="bold" lengthAdjust="spacing" textLength="410.0615" x="2026.4692" y="63.8555">Generated: 2025-09-24 22:16:44</text><text fill="#000000" font-family="Verdana" font-size="22" font-weight="bold" lengthAdjust="spacing" textLength="7.5195" x="2227.7402" y="90.5928">&#160;</text><text fill="#000000" font-family="Verdana" font-size="22" font-weight="bold" lengthAdjust="spacing" textLength="7.5195" x="2227.7402" y="117.3301">&#160;</text><!--cluster Customer Application Services--><g id="cluster_Customer Application Services"><path d="M760.5,189.9892 L1000.8193,189.9892 A3.75,3.75 0 0 1 1003.3193,192.4892 L1010.3193,213.0039 L1592.5,213.0039 A2.5,2.5 0 0 1 1595,215.5039 L1595,399.1792 A2.5,2.5 0 0 1 1592.5,401.6792 L760.5,401.6792 A2.5,2.5 0 0 1 758,399.1792 L758,192.4892 A2.5,2.5 0 0 1 760.5,189.9892 " fill="#FFFFFF" style="stroke:#000000;stroke-width:1;"/><line style="stroke:#000000;stroke-width:1;" x1="758" x2="1010.3193" y1="213.0039" y2="213.0039"/><text fill="#000000" font-family="Verdana" font-size="14" font-weight="bold" lengthAdjust="spacing" textLength="239.3193" x="762" y="206.0644">Customer Application Services</text></g><!--cluster Shoppingcart Application Services--><g id="cluster_Shoppingcart Application Services"><path d="M1621.5,189.9892 L1890.9336,189.9892 A3.75,3.75 0 0 1 1893.4336,192.4892 L1900.4336,213.0039 L2016.5,213.0039 A2.5,2.5 0 0 1 2019,215.5039 L2019,399.1792 A2.5,2.5 0 0 1 2016.5,401.6792 L1621.5,401.6792 A2.5,2.5 0 0 1 1619,399.1792 L1619,192.4892 A2.5,2.5 0 0 1 1621.5,189.9892 " fill="#FFFFFF" style="stroke:#000000;stroke-width:1;"/><line style="stroke:#000000;stroke-width:1;" x1="1619" x2="1900.4336" y1="213.0039" y2="213.0039"/><text fill="#000000" font-family="Verdana" font-size="14" font-weight="bold" lengthAdjust="spacing" textLength="268.4336" x="1623" y="206.0644">Shoppingcart Application Services</text></g><!--cluster Inventory Application Services--><g id="cluster_Inventory Application Services"><path d="M2045.5,215.5092 L2288.3965,215.5092 A3.75,3.75 0 0 1 2290.8965,218.0092 L2297.8965,238.5239 L2368.5,238.5239 A2.5,2.5 0 0 1 2371,241.0239 L2371,373.6592 A2.5,2.5 0 0 1 2368.5,376.1592 L2045.5,376.1592 A2.5,2.5 0 0 1 2043,373.6592 L2043,218.0092 A2.5,2.5 0 0 1 2045.5,215.5092 " fill="#FFFFFF" style="stroke:#000000;stroke-width:1;"/><line style="stroke:#000000;stroke-width:1;" x1="2043" x2="2297.8965" y1="238.5239" y2="238.5239"/><text fill="#000000" font-family="Verdana" font-size="14" font-weight="bold" lengthAdjust="spacing" textLength="241.8965" x="2047" y="231.5844">Inventory Application Services</text></g><!--cluster Common Application Services--><g id="cluster_Common Application Services"><path d="M2397.5,189.9892 L2631.3047,189.9892 A3.75,3.75 0 0 1 2633.8047,192.4892 L2640.8047,213.0039 L2714.5,213.0039 A2.5,2.5 0 0 1 2717,215.5039 L2717,399.1792 A2.5,2.5 0 0 1 2714.5,401.6792 L2397.5,401.6792 A2.5,2.5 0 0 1 2395,399.1792 L2395,192.4892 A2.5,2.5 0 0 1 2397.5,189.9892 " fill="#FFFFFF" style="stroke:#000000;stroke-width:1;"/><line style="stroke:#000000;stroke-width:1;" x1="2395" x2="2640.8047" y1="213.0039" y2="213.0039"/><text fill="#000000" font-family="Verdana" font-size="14" font-weight="bold" lengthAdjust="spacing" textLength="232.8047" x="2399" y="206.0644">Common Application Services</text></g><!--cluster Product Application Services--><g id="cluster_Product Application Services"><path d="M2743.5,198.4992 L2969.5596,198.4992 A3.75,3.75 0 0 1 2972.0596,200.9992 L2979.0596,221.5139 L3054.5,221.5139 A2.5,2.5 0 0 1 3057,224.0139 L3057,390.6692 A2.5,2.5 0 0 1 3054.5,393.1692 L2743.5,393.1692 A2.5,2.5 0 0 1 2741,390.6692 L2741,200.9992 A2.5,2.5 0 0 1 2743.5,198.4992 " fill="#FFFFFF" style="stroke:#000000;stroke-width:1;"/><line style="stroke:#000000;stroke-width:1;" x1="2741" x2="2979.0596" y1="221.5139" y2="221.5139"/><text fill="#000000" font-family="Verdana" font-size="14" font-weight="bold" lengthAdjust="spacing" textLength="225.0596" x="2745" y="214.5744">Product Application Services</text></g><!--cluster Observability Application Services--><g id="cluster_Observability Application Services"><path d="M13.5,138.9492 L282.6875,138.9492 A3.75,3.75 0 0 1 285.1875,141.4492 L292.1875,161.9639 L731.5,161.9639 A2.5,2.5 0 0 1 734,164.4639 L734,669.9092 A2.5,2.5 0 0 1 731.5,672.4092 L13.5,672.4092 A2.5,2.5 0 0 1 11,669.9092 L11,141.4492 A2.5,2.5 0 0 1 13.5,138.9492 " fill="#FFFFFF" style="stroke:#000000;stroke-width:1;"/><line style="stroke:#000000;stroke-width:1;" x1="11" x2="292.1875" y1="161.9639" y2="161.9639"/><text fill="#000000" font-family="Verdana" font-size="14" font-weight="bold" lengthAdjust="spacing" textLength="268.1875" x="15" y="155.0244">Observability Application Services</text></g><!--cluster Payment Application Services--><g id="cluster_Payment Application Services"><path d="M3083.5,189.9892 L3317.5371,189.9892 A3.75,3.75 0 0 1 3320.0371,192.4892 L3327.0371,213.0039 L3426.5,213.0039 A2.5,2.5 0 0 1 3429,215.5039 L3429,399.1792 A2.5,2.5 0 0 1 3426.5,401.6792 L3083.5,401.6792 A2.5,2.5 0 0 1 3081,399.1792 L3081,192.4892 A2.5,2.5 0 0 1 3083.5,189.9892 " fill="#FFFFFF" style="stroke:#000000;stroke-width:1;"/><line style="stroke:#000000;stroke-width:1;" x1="3081" x2="3327.0371" y1="213.0039" y2="213.0039"/><text fill="#000000" font-family="Verdana" font-size="14" font-weight="bold" lengthAdjust="spacing" textLength="233.0371" x="3085" y="206.0644">Payment Application Services</text></g><!--cluster Notification Application Services--><g id="cluster_Notification Application Services"><path d="M3455.5,215.5092 L3712.0137,215.5092 A3.75,3.75 0 0 1 3714.5137,218.0092 L3721.5137,238.5239 L3744.5,238.5239 A2.5,2.5 0 0 1 3747,241.0239 L3747,373.6592 A2.5,2.5 0 0 1 3744.5,376.1592 L3455.5,376.1592 A2.5,2.5 0 0 1 3453,373.6592 L3453,218.0092 A2.5,2.5 0 0 1 3455.5,215.5092 " fill="#FFFFFF" style="stroke:#000000;stroke-width:1;"/><line style="stroke:#000000;stroke-width:1;" x1="3453" x2="3721.5137" y1="238.5239" y2="238.5239"/><text fill="#000000" font-family="Verdana" font-size="14" font-weight="bold" lengthAdjust="spacing" textLength="255.5137" x="3457" y="231.5844">Notification Application Services</text></g><!--cluster Order Application Services--><g id="cluster_Order Application Services"><path d="M3773.5,189.9892 L3983.2559,189.9892 A3.75,3.75 0 0 1 3985.7559,192.4892 L3992.7559,213.0039 L4054.5,213.0039 A2.5,2.5 0 0 1 4057,215.5039 L4057,399.1792 A2.5,2.5 0 0 1 4054.5,401.6792 L3773.5,401.6792 A2.5,2.5 0 0 1 3771,399.1792 L3771,192.4892 A2.5,2.5 0 0 1 3773.5,189.9892 " fill="#FFFFFF" style="stroke:#000000;stroke-width:1;"/><line style="stroke:#000000;stroke-width:1;" x1="3771" x2="3992.7559" y1="213.0039" y2="213.0039"/><text fill="#000000" font-family="Verdana" font-size="14" font-weight="bold" lengthAdjust="spacing" textLength="208.7559" x="3775" y="206.0644">Order Application Services</text></g><!--cluster Promotion Application Services--><g id="cluster_Promotion Application Services"><path d="M4083.5,189.9892 L4330.3545,189.9892 A3.75,3.75 0 0 1 4332.8545,192.4892 L4339.8545,213.0039 L4462.5,213.0039 A2.5,2.5 0 0 1 4465,215.5039 L4465,399.1792 A2.5,2.5 0 0 1 4462.5,401.6792 L4083.5,401.6792 A2.5,2.5 0 0 1 4081,399.1792 L4081,192.4892 A2.5,2.5 0 0 1 4083.5,189.9892 " fill="#FFFFFF" style="stroke:#000000;stroke-width:1;"/><line style="stroke:#000000;stroke-width:1;" x1="4081" x2="4339.8545" y1="213.0039" y2="213.0039"/><text fill="#000000" font-family="Verdana" font-size="14" font-weight="bold" lengthAdjust="spacing" textLength="245.8545" x="4085" y="206.0644">Promotion Application Services</text></g><!--class OptimisticLockingCustomerService--><g id="elem_OptimisticLockingCustomerService"><rect codeLine="7" fill="#FFFFFF" height="125.6572" id="OptimisticLockingCustomerService" rx="2.5" ry="2.5" style="stroke:#000000;stroke-width:1;" width="354.6104" x="773.69" y="243.0092"/><ellipse cx="825.586" cy="263.8085" fill="#FFFFFF" rx="9" ry="9" style="stroke:#000000;stroke-width:1;"/><path d="M828.0591,269.9516 Q827.4781,270.2504 826.8389,270.3998 Q826.1998,270.5493 825.4942,270.5493 Q822.9874,270.5493 821.6675,268.8974 Q820.3477,267.2455 820.3477,264.1245 Q820.3477,260.9951 821.6675,259.3432 Q822.9874,257.6913 825.4942,257.6913 Q826.1998,257.6913 826.8472,257.8408 Q827.4947,257.9902 828.0591,258.289 L828.0591,261.0117 Q827.4283,260.4306 826.8348,260.1608 Q826.2413,259.8911 825.6104,259.8911 Q824.2657,259.8911 823.5809,260.9577 Q822.8961,262.0244 822.8961,264.1245 Q822.8961,266.2163 823.5809,267.2829 Q824.2657,268.3496 825.6104,268.3496 Q826.2413,268.3496 826.8348,268.0798 Q827.4283,267.81 828.0591,267.2289 Z " fill="#000000"/><text fill="#000000" font-family="Verdana" font-size="12" font-style="italic" lengthAdjust="spacing" textLength="125.8125" x="901.8389" y="260.0737">&#171;ApplicationService&#187;</text><text fill="#000000" font-family="Verdana" font-size="14" lengthAdjust="spacing" textLength="243.3184" x="843.086" y="276.6684">OptimisticLockingCustomerService</text><line style="stroke:#000000;stroke-width:1;" x1="774.69" x2="1127.3004" y1="284.6079" y2="284.6079"/><line style="stroke:#000000;stroke-width:1;" x1="774.69" x2="1127.3004" y1="292.6079" y2="292.6079"/><text fill="#000000" font-family="Verdana" font-size="14" lengthAdjust="spacing" textLength="301.752" x="779.69" y="310.683">+upgradeCustomerMembership(): boolean</text><text fill="#000000" font-family="Verdana" font-size="14" lengthAdjust="spacing" textLength="281.4697" x="779.69" y="327.6977">+addRewardPointsWithRetry(): boolean</text><text fill="#000000" font-family="Verdana" font-size="14" lengthAdjust="spacing" textLength="342.6104" x="779.69" y="344.7123">+updateCustomerSpendingWithRetry(): boolean</text><text fill="#000000" font-family="Verdana" font-size="14" lengthAdjust="spacing" textLength="217.5947" x="779.69" y="361.727">+batchUpdateCustomers(): int</text></g><!--class CustomerApplicationService--><g id="elem_CustomerApplicationService"><rect codeLine="14" fill="#FFFFFF" height="159.6865" id="CustomerApplicationService" rx="2.5" ry="2.5" style="stroke:#000000;stroke-width:1;" width="415.8125" x="1163.09" y="225.9892"/><ellipse cx="1268.9284" cy="246.7885" fill="#FFFFFF" rx="9" ry="9" style="stroke:#000000;stroke-width:1;"/><path d="M1271.4015,252.9316 Q1270.8205,253.2304 1270.1813,253.3798 Q1269.5421,253.5293 1268.8366,253.5293 Q1266.3297,253.5293 1265.0099,251.8774 Q1263.6901,250.2255 1263.6901,247.1045 Q1263.6901,243.9751 1265.0099,242.3232 Q1266.3297,240.6713 1268.8366,240.6713 Q1269.5421,240.6713 1270.1896,240.8208 Q1270.8371,240.9702 1271.4015,241.269 L1271.4015,243.9917 Q1270.7707,243.4106 1270.1772,243.1408 Q1269.5837,242.8711 1268.9528,242.8711 Q1267.6081,242.8711 1266.9233,243.9377 Q1266.2384,245.0044 1266.2384,247.1045 Q1266.2384,249.1963 1266.9233,250.2629 Q1267.6081,251.3296 1268.9528,251.3296 Q1269.5837,251.3296 1270.1772,251.0598 Q1270.7707,250.79 1271.4015,250.2089 Z " fill="#000000"/><text fill="#000000" font-family="Verdana" font-size="12" font-style="italic" lengthAdjust="spacing" textLength="125.8125" x="1321.84" y="243.0537">&#171;ApplicationService&#187;</text><text fill="#000000" font-family="Verdana" font-size="14" lengthAdjust="spacing" textLength="196.6357" x="1286.4284" y="259.6484">CustomerApplicationService</text><line style="stroke:#000000;stroke-width:1;" x1="1164.09" x2="1577.9025" y1="267.5879" y2="267.5879"/><line style="stroke:#000000;stroke-width:1;" x1="1164.09" x2="1577.9025" y1="275.5879" y2="275.5879"/><text fill="#000000" font-family="Verdana" font-size="14" lengthAdjust="spacing" textLength="403.8125" x="1169.09" y="293.663">+upgradeCustomerMembershipBasedOnSpending(): void</text><text fill="#000000" font-family="Verdana" font-size="14" lengthAdjust="spacing" textLength="185.7393" x="1169.09" y="310.6777">+addRewardPoints(): void</text><text fill="#000000" font-family="Verdana" font-size="14" lengthAdjust="spacing" textLength="246.8799" x="1169.09" y="327.6923">+updateCustomerSpending(): void</text><text fill="#000000" font-family="Verdana" font-size="14" lengthAdjust="spacing" textLength="259.7861" x="1169.09" y="344.707">+getCustomers(): CustomerPageDto</text><text fill="#000000" font-family="Verdana" font-size="14" lengthAdjust="spacing" textLength="300.2002" x="1169.09" y="361.7216">+getCustomer(): Optional&lt;CustomerDto&gt;</text><text fill="#000000" font-family="Verdana" font-size="14" lengthAdjust="spacing" textLength="160.3916" x="1169.09" y="378.7363">+... (1 more methods)</text></g><!--class ShoppingCartApplicationService--><g id="elem_ShoppingCartApplicationService"><rect codeLine="26" fill="#FFFFFF" height="159.6865" id="ShoppingCartApplicationService" rx="2.5" ry="2.5" style="stroke:#000000;stroke-width:1;" width="367.3936" x="1635.3" y="225.9892"/><ellipse cx="1703.1306" cy="246.7885" fill="#FFFFFF" rx="9" ry="9" style="stroke:#000000;stroke-width:1;"/><path d="M1705.6037,252.9316 Q1705.0227,253.2304 1704.3835,253.3798 Q1703.7443,253.5293 1703.0388,253.5293 Q1700.5319,253.5293 1699.2121,251.8774 Q1697.8923,250.2255 1697.8923,247.1045 Q1697.8923,243.9751 1699.2121,242.3232 Q1700.5319,240.6713 1703.0388,240.6713 Q1703.7443,240.6713 1704.3918,240.8208 Q1705.0393,240.9702 1705.6037,241.269 L1705.6037,243.9917 Q1704.9729,243.4106 1704.3793,243.1408 Q1703.7858,242.8711 1703.155,242.8711 Q1701.8103,242.8711 1701.1254,243.9377 Q1700.4406,245.0044 1700.4406,247.1045 Q1700.4406,249.1963 1701.1254,250.2629 Q1701.8103,251.3296 1703.155,251.3296 Q1703.7858,251.3296 1704.3793,251.0598 Q1704.9729,250.79 1705.6037,250.2089 Z " fill="#000000"/><text fill="#000000" font-family="Verdana" font-size="12" font-style="italic" lengthAdjust="spacing" textLength="125.8125" x="1769.8405" y="243.0537">&#171;ApplicationService&#187;</text><text fill="#000000" font-family="Verdana" font-size="14" lengthAdjust="spacing" textLength="224.2324" x="1720.6306" y="259.6484">ShoppingCartApplicationService</text><line style="stroke:#000000;stroke-width:1;" x1="1636.3" x2="2001.6936" y1="267.5879" y2="267.5879"/><line style="stroke:#000000;stroke-width:1;" x1="1636.3" x2="2001.6936" y1="275.5879" y2="275.5879"/><text fill="#000000" font-family="Verdana" font-size="14" lengthAdjust="spacing" textLength="295.0664" x="1641.3" y="293.663">+createShoppingCart(): ShoppingCartDto</text><text fill="#000000" font-family="Verdana" font-size="14" lengthAdjust="spacing" textLength="261.7412" x="1641.3" y="310.6777">+addItemToCart(): ShoppingCartDto</text><text fill="#000000" font-family="Verdana" font-size="14" lengthAdjust="spacing" textLength="297.9648" x="1641.3" y="327.6923">+updateItemQuantity(): ShoppingCartDto</text><text fill="#000000" font-family="Verdana" font-size="14" lengthAdjust="spacing" textLength="307.9521" x="1641.3" y="344.707">+removeItemFromCart(): ShoppingCartDto</text><text fill="#000000" font-family="Verdana" font-size="14" lengthAdjust="spacing" textLength="355.3936" x="1641.3" y="361.7216">+getShoppingCart(): Optional&lt;ShoppingCartDto&gt;</text><text fill="#000000" font-family="Verdana" font-size="14" lengthAdjust="spacing" textLength="160.3916" x="1641.3" y="378.7363">+... (2 more methods)</text></g><!--class InventoryApplicationService--><g id="elem_InventoryApplicationService"><rect codeLine="38" fill="#FFFFFF" height="108.6426" id="InventoryApplicationService" rx="2.5" ry="2.5" style="stroke:#000000;stroke-width:1;" width="295.1719" x="2059.41" y="251.5092"/><ellipse cx="2104.6102" cy="272.3085" fill="#FFFFFF" rx="9" ry="9" style="stroke:#000000;stroke-width:1;"/><path d="M2107.0833,278.4516 Q2106.5023,278.7504 2105.8631,278.8998 Q2105.224,279.0493 2104.5184,279.0493 Q2102.0116,279.0493 2100.6917,277.3974 Q2099.3719,275.7455 2099.3719,272.6245 Q2099.3719,269.4951 2100.6917,267.8432 Q2102.0116,266.1913 2104.5184,266.1913 Q2105.224,266.1913 2105.8714,266.3408 Q2106.5189,266.4902 2107.0833,266.789 L2107.0833,269.5117 Q2106.4525,268.9306 2105.859,268.6608 Q2105.2655,268.3911 2104.6346,268.3911 Q2103.2899,268.3911 2102.6051,269.4577 Q2101.9203,270.5244 2101.9203,272.6245 Q2101.9203,274.7163 2102.6051,275.7829 Q2103.2899,276.8496 2104.6346,276.8496 Q2105.2655,276.8496 2105.859,276.5798 Q2106.4525,276.31 2107.0833,275.7289 Z " fill="#000000"/><text fill="#000000" font-family="Verdana" font-size="12" font-style="italic" lengthAdjust="spacing" textLength="125.8125" x="2157.8397" y="268.5737">&#171;ApplicationService&#187;</text><text fill="#000000" font-family="Verdana" font-size="14" lengthAdjust="spacing" textLength="197.2715" x="2122.1102" y="285.1684">InventoryApplicationService</text><line style="stroke:#000000;stroke-width:1;" x1="2060.41" x2="2353.5819" y1="293.1079" y2="293.1079"/><line style="stroke:#000000;stroke-width:1;" x1="2060.41" x2="2353.5819" y1="301.1079" y2="301.1079"/><text fill="#000000" font-family="Verdana" font-size="14" lengthAdjust="spacing" textLength="283.1719" x="2065.41" y="319.183">+adjustInventory(): InventoryResponse</text><text fill="#000000" font-family="Verdana" font-size="14" lengthAdjust="spacing" textLength="262.1309" x="2065.41" y="336.1977">+getInventory(): InventoryResponse</text><text fill="#000000" font-family="Verdana" font-size="14" lengthAdjust="spacing" textLength="185.8555" x="2065.41" y="353.2123">+reserveInventory(): void</text></g><!--class DomainEventApplicationService--><g id="elem_DomainEventApplicationService"><rect codeLine="47" fill="#FFFFFF" height="159.6865" id="DomainEventApplicationService" rx="2.5" ry="2.5" style="stroke:#000000;stroke-width:1;" width="289.833" x="2411.08" y="225.9892"/><ellipse cx="2441.7232" cy="246.7885" fill="#FFFFFF" rx="9" ry="9" style="stroke:#000000;stroke-width:1;"/><path d="M2444.1963,252.9316 Q2443.6153,253.2304 2442.9761,253.3798 Q2442.3369,253.5293 2441.6314,253.5293 Q2439.1245,253.5293 2437.8047,251.8774 Q2436.4849,250.2255 2436.4849,247.1045 Q2436.4849,243.9751 2437.8047,242.3232 Q2439.1245,240.6713 2441.6314,240.6713 Q2442.3369,240.6713 2442.9844,240.8208 Q2443.6319,240.9702 2444.1963,241.269 L2444.1963,243.9917 Q2443.5654,243.4106 2442.9719,243.1408 Q2442.3784,242.8711 2441.7476,242.8711 Q2440.4029,242.8711 2439.718,243.9377 Q2439.0332,245.0044 2439.0332,247.1045 Q2439.0332,249.1963 2439.718,250.2629 Q2440.4029,251.3296 2441.7476,251.3296 Q2442.3784,251.3296 2442.9719,251.0598 Q2443.5654,250.79 2444.1963,250.2089 Z " fill="#000000"/><text fill="#000000" font-family="Verdana" font-size="12" font-style="italic" lengthAdjust="spacing" textLength="125.8125" x="2506.0506" y="243.0537">&#171;ApplicationService&#187;</text><text fill="#000000" font-family="Verdana" font-size="14" lengthAdjust="spacing" textLength="222.626" x="2457.6439" y="259.6484">DomainEventApplicationService</text><line style="stroke:#000000;stroke-width:1;" x1="2412.08" x2="2699.913" y1="267.5879" y2="267.5879"/><line style="stroke:#000000;stroke-width:1;" x1="2412.08" x2="2699.913" y1="275.5879" y2="275.5879"/><text fill="#000000" font-family="Verdana" font-size="14" lengthAdjust="spacing" textLength="270.5391" x="2417.08" y="293.663">+publishEventsFromAggregate(): void</text><text fill="#000000" font-family="Verdana" font-size="14" lengthAdjust="spacing" textLength="154.793" x="2417.08" y="310.6777">+publishEvent(): void</text><text fill="#000000" font-family="Verdana" font-size="14" lengthAdjust="spacing" textLength="162.0869" x="2417.08" y="327.6923">+publishEvents(): void</text><text fill="#000000" font-family="Verdana" font-size="14" lengthAdjust="spacing" textLength="277.833" x="2417.08" y="344.707">+publishEventsFromAggregates(): void</text><text fill="#000000" font-family="Verdana" font-size="14" lengthAdjust="spacing" textLength="178.0898" x="2417.08" y="361.7216">+setCorrelationId(): void</text><text fill="#000000" font-family="Verdana" font-size="14" lengthAdjust="spacing" textLength="160.3916" x="2417.08" y="378.7363">+... (5 more methods)</text></g><!--class ProductApplicationService--><g id="elem_ProductApplicationService"><rect codeLine="59" fill="#FFFFFF" height="142.6719" id="ProductApplicationService" rx="2.5" ry="2.5" style="stroke:#000000;stroke-width:1;" width="283.0654" x="2757.47" y="234.4992"/><ellipse cx="2804.2185" cy="255.2985" fill="#FFFFFF" rx="9" ry="9" style="stroke:#000000;stroke-width:1;"/><path d="M2806.6917,261.4416 Q2806.1106,261.7404 2805.4715,261.8898 Q2804.8323,262.0393 2804.1267,262.0393 Q2801.6199,262.0393 2800.3001,260.3874 Q2798.9803,258.7355 2798.9803,255.6145 Q2798.9803,252.4851 2800.3001,250.8332 Q2801.6199,249.1813 2804.1267,249.1813 Q2804.8323,249.1813 2805.4798,249.3308 Q2806.1272,249.4802 2806.6917,249.779 L2806.6917,252.5017 Q2806.0608,251.9206 2805.4673,251.6508 Q2804.8738,251.3811 2804.2429,251.3811 Q2802.8982,251.3811 2802.2134,252.4477 Q2801.5286,253.5144 2801.5286,255.6145 Q2801.5286,257.7063 2802.2134,258.7729 Q2802.8982,259.8396 2804.2429,259.8396 Q2804.8738,259.8396 2805.4673,259.5698 Q2806.0608,259.3 2806.6917,258.7189 Z " fill="#000000"/><text fill="#000000" font-family="Verdana" font-size="12" font-style="italic" lengthAdjust="spacing" textLength="125.8125" x="2849.8465" y="251.5637">&#171;ApplicationService&#187;</text><text fill="#000000" font-family="Verdana" font-size="14" lengthAdjust="spacing" textLength="182.0684" x="2821.7185" y="268.1584">ProductApplicationService</text><line style="stroke:#000000;stroke-width:1;" x1="2758.47" x2="3039.5354" y1="276.0979" y2="276.0979"/><line style="stroke:#000000;stroke-width:1;" x1="2758.47" x2="3039.5354" y1="284.0979" y2="284.0979"/><text fill="#000000" font-family="Verdana" font-size="14" lengthAdjust="spacing" textLength="271.0654" x="2763.47" y="302.173">+getProduct(): Optional&lt;ProductDto&gt;</text><text fill="#000000" font-family="Verdana" font-size="14" lengthAdjust="spacing" textLength="230.6514" x="2763.47" y="319.1877">+getProducts(): ProductPageDto</text><text fill="#000000" font-family="Verdana" font-size="14" lengthAdjust="spacing" textLength="185.2881" x="2763.47" y="336.2023">+productExists(): boolean</text><text fill="#000000" font-family="Verdana" font-size="14" lengthAdjust="spacing" textLength="215.4346" x="2763.47" y="353.217">+updateProduct(): ProductDto</text><text fill="#000000" font-family="Verdana" font-size="14" lengthAdjust="spacing" textLength="161.2051" x="2763.47" y="370.2316">+deleteProduct(): void</text></g><!--class ObservabilityEventService--><g id="elem_ObservabilityEventService"><rect codeLine="70" fill="#FFFFFF" height="125.6572" id="ObservabilityEventService" rx="2.5" ry="2.5" style="stroke:#000000;stroke-width:1;" width="268.9424" x="26.53" y="243.0092"/><ellipse cx="65.4548" cy="263.8085" fill="#FFFFFF" rx="9" ry="9" style="stroke:#000000;stroke-width:1;"/><path d="M67.9279,269.9516 Q67.3469,270.2504 66.7077,270.3998 Q66.0686,270.5493 65.363,270.5493 Q62.8562,270.5493 61.5363,268.8974 Q60.2165,267.2455 60.2165,264.1245 Q60.2165,260.9951 61.5363,259.3432 Q62.8562,257.6913 65.363,257.6913 Q66.0686,257.6913 66.716,257.8408 Q67.3635,257.9902 67.9279,258.289 L67.9279,261.0117 Q67.2971,260.4306 66.7036,260.1608 Q66.1101,259.8911 65.4792,259.8911 Q64.1345,259.8911 63.4497,260.9577 Q62.7649,262.0244 62.7649,264.1245 Q62.7649,266.2163 63.4497,267.2829 Q64.1345,268.3496 65.4792,268.3496 Q66.1101,268.3496 66.7036,268.0798 Q67.2971,267.81 67.9279,267.2289 Z " fill="#000000"/><text fill="#000000" font-family="Verdana" font-size="12" font-style="italic" lengthAdjust="spacing" textLength="125.8125" x="111.8449" y="260.0737">&#171;ApplicationService&#187;</text><text fill="#000000" font-family="Verdana" font-size="14" lengthAdjust="spacing" textLength="183.5928" x="82.9548" y="276.6684">ObservabilityEventService</text><line style="stroke:#000000;stroke-width:1;" x1="27.53" x2="294.4724" y1="284.6079" y2="284.6079"/><line style="stroke:#000000;stroke-width:1;" x1="27.53" x2="294.4724" y1="292.6079" y2="292.6079"/><text fill="#000000" font-family="Verdana" font-size="14" lengthAdjust="spacing" textLength="228.2725" x="32.53" y="310.683">+processAnalyticsEvents(): void</text><text fill="#000000" font-family="Verdana" font-size="14" lengthAdjust="spacing" textLength="256.9424" x="32.53" y="327.6977">+processPerformanceMetrics(): void</text><text fill="#000000" font-family="Verdana" font-size="14" lengthAdjust="spacing" textLength="220.9785" x="32.53" y="344.7123">+processAnalyticsEvent(): void</text><text fill="#000000" font-family="Verdana" font-size="14" lengthAdjust="spacing" textLength="249.6484" x="32.53" y="361.727">+processPerformanceMetric(): void</text></g><!--class AnalyticsQueryService--><g id="elem_AnalyticsQueryService"><rect codeLine="95" fill="#FFFFFF" height="261.7744" id="AnalyticsQueryService" rx="2.5" ry="2.5" style="stroke:#000000;stroke-width:1;" width="387.8057" x="330.1" y="174.9492"/><ellipse cx="441.7353" cy="195.7485" fill="#FFFFFF" rx="9" ry="9" style="stroke:#000000;stroke-width:1;"/><path d="M444.2084,201.8916 Q443.6273,202.1904 442.9882,202.3398 Q442.349,202.4893 441.6435,202.4893 Q439.1366,202.4893 437.8168,200.8374 Q436.497,199.1855 436.497,196.0645 Q436.497,192.9351 437.8168,191.2832 Q439.1366,189.6313 441.6435,189.6313 Q442.349,189.6313 442.9965,189.7808 Q443.6439,189.9302 444.2084,190.229 L444.2084,192.9517 Q443.5775,192.3706 442.984,192.1008 Q442.3905,191.8311 441.7597,191.8311 Q440.4149,191.8311 439.7301,192.8977 Q439.0453,193.9644 439.0453,196.0645 Q439.0453,198.1563 439.7301,199.2229 Q440.4149,200.2896 441.7597,200.2896 Q442.3905,200.2896 442.984,200.0198 Q443.5775,199.75 444.2084,199.1689 Z " fill="#000000"/><text fill="#000000" font-family="Verdana" font-size="12" font-style="italic" lengthAdjust="spacing" textLength="125.8125" x="474.8466" y="192.0137">&#171;ApplicationService&#187;</text><text fill="#000000" font-family="Verdana" font-size="14" lengthAdjust="spacing" textLength="157.0352" x="459.2353" y="208.6084">AnalyticsQueryService</text><line style="stroke:#000000;stroke-width:1;" x1="331.1" x2="716.9057" y1="216.5479" y2="216.5479"/><line style="stroke:#000000;stroke-width:1;" x1="331.1" x2="716.9057" y1="224.5479" y2="224.5479"/><text fill="#000000" font-family="Verdana" font-size="14" lengthAdjust="spacing" textLength="281.2646" x="336.1" y="242.623">+getAnalyticsStats(): AnalyticsStatsDto</text><text fill="#000000" font-family="Verdana" font-size="14" lengthAdjust="spacing" textLength="305.71" x="336.1" y="259.6377">+getBusinessMetrics(): BusinessMetricsDto</text><text fill="#000000" font-family="Verdana" font-size="14" lengthAdjust="spacing" textLength="332.7803" x="336.1" y="276.6523">+getPerformanceStats(): PerformanceStatsDto</text><text fill="#000000" font-family="Verdana" font-size="14" lengthAdjust="spacing" textLength="323.4561" x="336.1" y="293.667">+getUserActivityStats(): UserActivityStatsDto</text><text fill="#000000" font-family="Verdana" font-size="14" lengthAdjust="spacing" textLength="309.1416" x="336.1" y="310.6816">+getRealTimeStats(): Map&lt;String, Object&gt;</text><text fill="#000000" font-family="Verdana" font-size="14" lengthAdjust="spacing" textLength="160.3916" x="336.1" y="327.6963">+... (4 more methods)</text><text fill="#000000" font-family="Verdana" font-size="14" lengthAdjust="spacing" textLength="317.96" x="336.1" y="344.7109">+getUserBehaviorStats(): UserBehaviorStats</text><text fill="#000000" font-family="Verdana" font-size="14" lengthAdjust="spacing" textLength="375.8057" x="336.1" y="361.7256">+getPagePerformanceStats(): PagePerformanceStats</text><text fill="#000000" font-family="Verdana" font-size="14" lengthAdjust="spacing" textLength="353.5205" x="336.1" y="378.7402">+getBusinessMetricsStats(): BusinessMetricsStats</text><text fill="#000000" font-family="Verdana" font-size="14" lengthAdjust="spacing" textLength="238.0342" x="336.1" y="395.7549">+getSessionStats(): SessionStats</text><text fill="#000000" font-family="Verdana" font-size="14" lengthAdjust="spacing" textLength="368.5527" x="336.1" y="412.7695">+getAnalyticsEvents(): Page&lt;AnalyticsEventEntity&gt;</text><text fill="#000000" font-family="Verdana" font-size="14" lengthAdjust="spacing" textLength="169.292" x="336.1" y="429.7842">+... (10 more methods)</text></g><!--class DataRetentionService--><g id="elem_DataRetentionService"><rect codeLine="86" fill="#FFFFFF" height="159.6865" id="DataRetentionService" rx="2.5" ry="2.5" style="stroke:#000000;stroke-width:1;" width="357.0166" x="27.49" y="496.7192"/><ellipse cx="126.113" cy="517.5185" fill="#FFFFFF" rx="9" ry="9" style="stroke:#000000;stroke-width:1;"/><path d="M128.5862,523.6616 Q128.0051,523.9604 127.366,524.1098 Q126.7268,524.2593 126.0213,524.2593 Q123.5144,524.2593 122.1946,522.6074 Q120.8748,520.9555 120.8748,517.8345 Q120.8748,514.7051 122.1946,513.0532 Q123.5144,511.4013 126.0213,511.4013 Q126.7268,511.4013 127.3743,511.5508 Q128.0217,511.7002 128.5862,511.999 L128.5862,514.7217 Q127.9553,514.1406 127.3618,513.8708 Q126.7683,513.6011 126.1375,513.6011 Q124.7927,513.6011 124.1079,514.6677 Q123.4231,515.7344 123.4231,517.8345 Q123.4231,519.9263 124.1079,520.9929 Q124.7927,522.0596 126.1375,522.0596 Q126.7683,522.0596 127.3618,521.7898 Q127.9553,521.52 128.5862,520.9389 Z " fill="#000000"/><text fill="#000000" font-family="Verdana" font-size="12" font-style="italic" lengthAdjust="spacing" textLength="125.8125" x="156.8421" y="513.7837">&#171;ApplicationService&#187;</text><text fill="#000000" font-family="Verdana" font-size="14" lengthAdjust="spacing" textLength="152.2705" x="143.613" y="530.3784">DataRetentionService</text><line style="stroke:#000000;stroke-width:1;" x1="28.49" x2="383.5066" y1="538.3179" y2="538.3179"/><line style="stroke:#000000;stroke-width:1;" x1="28.49" x2="383.5066" y1="546.3179" y2="546.3179"/><text fill="#000000" font-family="Verdana" font-size="14" lengthAdjust="spacing" textLength="227.8281" x="33.49" y="564.393">+performManualCleanup(): void</text><text fill="#000000" font-family="Verdana" font-size="14" lengthAdjust="spacing" textLength="199.6436" x="33.49" y="581.4077">+performDataCleanup(): int</text><text fill="#000000" font-family="Verdana" font-size="14" lengthAdjust="spacing" textLength="345.0166" x="33.49" y="598.4223">+getDataRetentionStats(): Map&lt;String, Object&gt;</text><text fill="#000000" font-family="Verdana" font-size="14" lengthAdjust="spacing" textLength="226.7754" x="33.49" y="615.437">+setDataRetentionPolicy(): void</text><text fill="#000000" font-family="Verdana" font-size="14" lengthAdjust="spacing" textLength="326.0947" x="33.49" y="632.4516">+checkStorageHealth(): Map&lt;String, Object&gt;</text><text fill="#000000" font-family="Verdana" font-size="14" lengthAdjust="spacing" textLength="160.3916" x="33.49" y="649.4663">+... (1 more methods)</text></g><!--class PaymentApplicationService--><g id="elem_PaymentApplicationService"><rect codeLine="107" fill="#FFFFFF" height="159.6865" id="PaymentApplicationService" rx="2.5" ry="2.5" style="stroke:#000000;stroke-width:1;" width="315.6865" x="3097.16" y="225.9892"/><ellipse cx="3156.138" cy="246.7885" fill="#FFFFFF" rx="9" ry="9" style="stroke:#000000;stroke-width:1;"/><path d="M3158.6112,252.9316 Q3158.0301,253.2304 3157.391,253.3798 Q3156.7518,253.5293 3156.0462,253.5293 Q3153.5394,253.5293 3152.2196,251.8774 Q3150.8997,250.2255 3150.8997,247.1045 Q3150.8997,243.9751 3152.2196,242.3232 Q3153.5394,240.6713 3156.0462,240.6713 Q3156.7518,240.6713 3157.3993,240.8208 Q3158.0467,240.9702 3158.6112,241.269 L3158.6112,243.9917 Q3157.9803,243.4106 3157.3868,243.1408 Q3156.7933,242.8711 3156.1624,242.8711 Q3154.8177,242.8711 3154.1329,243.9377 Q3153.4481,245.0044 3153.4481,247.1045 Q3153.4481,249.1963 3154.1329,250.2629 Q3154.8177,251.3296 3156.1624,251.3296 Q3156.7933,251.3296 3157.3868,251.0598 Q3157.9803,250.79 3158.6112,250.2089 Z " fill="#000000"/><text fill="#000000" font-family="Verdana" font-size="12" font-style="italic" lengthAdjust="spacing" textLength="125.8125" x="3205.847" y="243.0537">&#171;ApplicationService&#187;</text><text fill="#000000" font-family="Verdana" font-size="14" lengthAdjust="spacing" textLength="190.2305" x="3173.638" y="259.6484">PaymentApplicationService</text><line style="stroke:#000000;stroke-width:1;" x1="3098.16" x2="3411.8465" y1="267.5879" y2="267.5879"/><line style="stroke:#000000;stroke-width:1;" x1="3098.16" x2="3411.8465" y1="275.5879" y2="275.5879"/><text fill="#000000" font-family="Verdana" font-size="14" lengthAdjust="spacing" textLength="303.6865" x="3103.16" y="293.663">+processPayment(): PaymentResponseDto</text><text fill="#000000" font-family="Verdana" font-size="14" lengthAdjust="spacing" textLength="303.6865" x="3103.16" y="310.6777">+processPayment(): PaymentResponseDto</text><text fill="#000000" font-family="Verdana" font-size="14" lengthAdjust="spacing" textLength="211.8047" x="3103.16" y="327.6923">+processPayment(): Payment</text><text fill="#000000" font-family="Verdana" font-size="14" lengthAdjust="spacing" textLength="262.5889" x="3103.16" y="344.707">+getPayment(): Optional&lt;Payment&gt;</text><text fill="#000000" font-family="Verdana" font-size="14" lengthAdjust="spacing" textLength="297.6504" x="3103.16" y="361.7216">+getPaymentDto(): PaymentResponseDto</text><text fill="#000000" font-family="Verdana" font-size="14" lengthAdjust="spacing" textLength="160.3916" x="3103.16" y="378.7363">+... (6 more methods)</text></g><!--class NotificationApplicationService--><g id="elem_NotificationApplicationService"><rect codeLine="119" fill="#FFFFFF" height="108.6426" id="NotificationApplicationService" rx="2.5" ry="2.5" style="stroke:#000000;stroke-width:1;" width="261.2656" x="3469.37" y="251.5092"/><ellipse cx="3493.6178" cy="272.3085" fill="#FFFFFF" rx="9" ry="9" style="stroke:#000000;stroke-width:1;"/><path d="M3496.0909,278.4516 Q3495.5099,278.7504 3494.8707,278.8998 Q3494.2316,279.0493 3493.526,279.0493 Q3491.0192,279.0493 3489.6993,277.3974 Q3488.3795,275.7455 3488.3795,272.6245 Q3488.3795,269.4951 3489.6993,267.8432 Q3491.0192,266.1913 3493.526,266.1913 Q3494.2316,266.1913 3494.879,266.3408 Q3495.5265,266.4902 3496.0909,266.789 L3496.0909,269.5117 Q3495.4601,268.9306 3494.8666,268.6608 Q3494.2731,268.3911 3493.6422,268.3911 Q3492.2975,268.3911 3491.6127,269.4577 Q3490.9279,270.5244 3490.9279,272.6245 Q3490.9279,274.7163 3491.6127,275.7829 Q3492.2975,276.8496 3493.6422,276.8496 Q3494.2731,276.8496 3494.8666,276.5798 Q3495.4601,276.31 3496.0909,275.7289 Z " fill="#000000"/><text fill="#000000" font-family="Verdana" font-size="12" font-style="italic" lengthAdjust="spacing" textLength="125.8125" x="3549.3463" y="268.5737">&#171;ApplicationService&#187;</text><text fill="#000000" font-family="Verdana" font-size="14" lengthAdjust="spacing" textLength="208.2705" x="3508.1173" y="285.1684">NotificationApplicationService</text><line style="stroke:#000000;stroke-width:1;" x1="3470.37" x2="3729.6356" y1="293.1079" y2="293.1079"/><line style="stroke:#000000;stroke-width:1;" x1="3470.37" x2="3729.6356" y1="301.1079" y2="301.1079"/><text fill="#000000" font-family="Verdana" font-size="14" lengthAdjust="spacing" textLength="200.3477" x="3475.37" y="319.183">+sendWelcomeEmail(): void</text><text fill="#000000" font-family="Verdana" font-size="14" lengthAdjust="spacing" textLength="217.5537" x="3475.37" y="336.1977">+sendOrderNotification(): void</text><text fill="#000000" font-family="Verdana" font-size="14" lengthAdjust="spacing" textLength="249.2656" x="3475.37" y="353.2123">+sendPromotionNotification(): void</text></g><!--class OrderApplicationService--><g id="elem_OrderApplicationService"><rect codeLine="128" fill="#FFFFFF" height="159.6865" id="OrderApplicationService" rx="2.5" ry="2.5" style="stroke:#000000;stroke-width:1;" width="253.8145" x="3787.09" y="225.9892"/><ellipse cx="3825.8507" cy="246.7885" fill="#FFFFFF" rx="9" ry="9" style="stroke:#000000;stroke-width:1;"/><path d="M3828.3239,252.9316 Q3827.7428,253.2304 3827.1037,253.3798 Q3826.4645,253.5293 3825.7589,253.5293 Q3823.2521,253.5293 3821.9323,251.8774 Q3820.6125,250.2255 3820.6125,247.1045 Q3820.6125,243.9751 3821.9323,242.3232 Q3823.2521,240.6713 3825.7589,240.6713 Q3826.4645,240.6713 3827.112,240.8208 Q3827.7594,240.9702 3828.3239,241.269 L3828.3239,243.9917 Q3827.693,243.4106 3827.0995,243.1408 Q3826.506,242.8711 3825.8752,242.8711 Q3824.5304,242.8711 3823.8456,243.9377 Q3823.1608,245.0044 3823.1608,247.1045 Q3823.1608,249.1963 3823.8456,250.2629 Q3824.5304,251.3296 3825.8752,251.3296 Q3826.506,251.3296 3827.0995,251.0598 Q3827.693,250.79 3828.3239,250.2089 Z " fill="#000000"/><text fill="#000000" font-family="Verdana" font-size="12" font-style="italic" lengthAdjust="spacing" textLength="125.8125" x="3864.841" y="243.0537">&#171;ApplicationService&#187;</text><text fill="#000000" font-family="Verdana" font-size="14" lengthAdjust="spacing" textLength="168.793" x="3843.3507" y="259.6484">OrderApplicationService</text><line style="stroke:#000000;stroke-width:1;" x1="3788.09" x2="4039.9045" y1="267.5879" y2="267.5879"/><line style="stroke:#000000;stroke-width:1;" x1="3788.09" x2="4039.9045" y1="275.5879" y2="275.5879"/><text fill="#000000" font-family="Verdana" font-size="14" lengthAdjust="spacing" textLength="226.4678" x="3793.09" y="293.663">+createOrder(): OrderResponse</text><text fill="#000000" font-family="Verdana" font-size="14" lengthAdjust="spacing" textLength="241.8145" x="3793.09" y="310.6777">+addOrderItem(): OrderResponse</text><text fill="#000000" font-family="Verdana" font-size="14" lengthAdjust="spacing" textLength="230.4463" x="3793.09" y="327.6923">+submitOrder(): OrderResponse</text><text fill="#000000" font-family="Verdana" font-size="14" lengthAdjust="spacing" textLength="226.6318" x="3793.09" y="344.707">+cancelOrder(): OrderResponse</text><text fill="#000000" font-family="Verdana" font-size="14" lengthAdjust="spacing" textLength="205.1738" x="3793.09" y="361.7216">+getOrder(): OrderResponse</text><text fill="#000000" font-family="Verdana" font-size="14" lengthAdjust="spacing" textLength="160.3916" x="3793.09" y="378.7363">+... (2 more methods)</text></g><!--class PromotionApplicationService--><g id="elem_PromotionApplicationService"><rect codeLine="140" fill="#FFFFFF" height="159.6865" id="PromotionApplicationService" rx="2.5" ry="2.5" style="stroke:#000000;stroke-width:1;" width="352.4365" x="4096.78" y="225.9892"/><ellipse cx="4168.9958" cy="246.7885" fill="#FFFFFF" rx="9" ry="9" style="stroke:#000000;stroke-width:1;"/><path d="M4171.469,252.9316 Q4170.8879,253.2304 4170.2488,253.3798 Q4169.6096,253.5293 4168.904,253.5293 Q4166.3972,253.5293 4165.0774,251.8774 Q4163.7575,250.2255 4163.7575,247.1045 Q4163.7575,243.9751 4165.0774,242.3232 Q4166.3972,240.6713 4168.904,240.6713 Q4169.6096,240.6713 4170.2571,240.8208 Q4170.9045,240.9702 4171.469,241.269 L4171.469,243.9917 Q4170.8381,243.4106 4170.2446,243.1408 Q4169.6511,242.8711 4169.0202,242.8711 Q4167.6755,242.8711 4166.9907,243.9377 Q4166.3059,245.0044 4166.3059,247.1045 Q4166.3059,249.1963 4166.9907,250.2629 Q4167.6755,251.3296 4169.0202,251.3296 Q4169.6511,251.3296 4170.2446,251.0598 Q4170.8381,250.79 4171.469,250.2089 Z " fill="#000000"/><text fill="#000000" font-family="Verdana" font-size="12" font-style="italic" lengthAdjust="spacing" textLength="125.8125" x="4223.842" y="243.0537">&#171;ApplicationService&#187;</text><text fill="#000000" font-family="Verdana" font-size="14" lengthAdjust="spacing" textLength="200.5049" x="4186.4958" y="259.6484">PromotionApplicationService</text><line style="stroke:#000000;stroke-width:1;" x1="4097.78" x2="4448.2165" y1="267.5879" y2="267.5879"/><line style="stroke:#000000;stroke-width:1;" x1="4097.78" x2="4448.2165" y1="275.5879" y2="275.5879"/><text fill="#000000" font-family="Verdana" font-size="14" lengthAdjust="spacing" textLength="314.2207" x="4102.78" y="293.663">+createFlashSalePromotion(): PromotionDto</text><text fill="#000000" font-family="Verdana" font-size="14" lengthAdjust="spacing" textLength="323.8184" x="4102.78" y="310.6777">+getActivePromotions(): List&lt;PromotionDto&gt;</text><text fill="#000000" font-family="Verdana" font-size="14" lengthAdjust="spacing" textLength="332.8281" x="4102.78" y="327.6923">+getPromotionsByType(): List&lt;PromotionDto&gt;</text><text fill="#000000" font-family="Verdana" font-size="14" lengthAdjust="spacing" textLength="340.4365" x="4102.78" y="344.707">+getPromotionById(): Optional&lt;PromotionDto&gt;</text><text fill="#000000" font-family="Verdana" font-size="14" lengthAdjust="spacing" textLength="270.7031" x="4102.78" y="361.7216">+getFlashSales(): List&lt;FlashSaleDto&gt;</text><text fill="#000000" font-family="Verdana" font-size="14" lengthAdjust="spacing" textLength="160.3916" x="4102.78" y="378.7363">+... (3 more methods)</text></g><!--SRC=[fLTHRziu37xFhz3sj65RqUQw0Ik20adNtHLObwpfi9U-A3ONQxKbGvApUOVzzwCiMvOS9qvwRp7raI8_KYJpJ2UG0SbJolX8FJAUKqap4gLKgQdMagqA3JUHu4ls6yZfQAIPJe5Cypnb4TLCSB84kM4HA3BVc5_myu7_3HmarH1VaF7f-EsRq_TlnkTaFBuuUtTnVlx07_XebDFeaQw1FBygb1OPo5wZpyc_8sBT8VDSiumfpQ9F8a9Nrurc3IQJYMUY5bvULXO8ULNaQqbZQ9Hk8Lk1L0dBNxoy82iXKg3S8caSty5FAkE5O5ohRqmdTw1bkGKiyXYZT6xam6DqQpT-HNMKV0sKb07XBGZuCtAXDgVRyJmro1bL4CzvuwEvTIDOt1jmUDWVP8XPWmu2QZuMcE4FMco13CQaKt2QJXeX0YyjykJaXBmu8vcGG3BGYOZLIqlG7wzmbed8StGbeb8F5ay3laBmqQn64f02tuG9mFzsGIALDngoUx4NPJarm2y5vVYcofrG2PdOLD2FKcHxhIB1NHyToHq5d-Zn4D4tV0DS2raEikoGHrDCunzO1axV-Eu-xa3bWYjmKHu2aw3m3WYWTS5smhiIMORn3CNsGMJO9A-DkQEZoujLobHIAIkJn-bwBM6DDH2-8n-t-qJjEGgCTu0A7w2G4jBAoPiuFArguUrGBIoaY8je-BtLkAEPmkpMga7vrhAsSbjS5MJzE-WtkPLT_yAPeNRqRk-kzWeBY2650D1VFVELgJEwOYc-uk4PvgEhZ1rOG5AW9JL5BaeSWAgt3Ync0VAxa1db4TpY549mBomqTPYba8Kc9cVfIm6oF3ZDJcsfgGqbbFXjRLOenj4ZBw2Eo4TxVZlRNPcF_uevcKQQRJ0dJc5Bw6lS0KtlMTQQlwNvP8cEyFLhpF4FYBJVOS_xNfNhArHJN1Sm2OUt4nlCBUK5JQzCJHTv9uCMOMnxvtRFi264rmx6eJeQ2u7UbU6bKGBHunARBJwCVv0XdGnJSxQFcYTMbadT31AwOK86-Go4RRcWkxqbqoFVLP5EgK_UJcSyyDdslxVVHVl6ZIUJK7vTRGq1awU3lPkM6QeEzswBEtxArMt3gbl7gv_DPFPRy_z5UkbpH-suiBBBBWZDxhkiul7T48sVXMRV6_w6kFJ1HnEgSDV-1cc4s_4rBXzfTvppU2vZaFuTsn2SO9amHpjWtNbcB0xFCODwuXvTwLRfCZ_2hGtNvqfgzjqT45MiCgRt6OdCSqtt8R0YzXqVjXOxOWzPXYpoYOnzH2l9agRW3DKBY_tm9rCribfSrJu-uG8qyT713bK3P-LzcSEXy5bfrqT_GUl1EyTRFvoeyo_ahnrq_mS0]--></g></svg>