<svg xmlns="http://www.w3.org/2000/svg" xmlns:xlink="http://www.w3.org/1999/xlink" contentStyleType="text/css" data-diagram-type="DESCRIPTION" height="2624px" preserveAspectRatio="none" style="width:1032px;height:2624px;background:#FFFFFF;" version="1.1" viewBox="0 0 1032 2624" width="1032px" zoomAndPan="magnify"><title>Bounded Contexts Overview
Generated: 2025-09-21 19:48:57

</title><defs/><g><g class="title" data-source-line="3"><text fill="#000000" font-family="Verdana" font-size="22" font-weight="bold" lengthAdjust="spacing" textLength="349.2607" x="337.2473" y="37.1182">Bounded Contexts Overview</text><text fill="#000000" font-family="Verdana" font-size="22" font-weight="bold" lengthAdjust="spacing" textLength="410.0615" x="306.8469" y="63.8555">Generated: 2025-09-21 19:48:57</text><text fill="#000000" font-family="Verdana" font-size="22" font-weight="bold" lengthAdjust="spacing" textLength="7.5195" x="508.1179" y="90.5928">&#160;</text><text fill="#000000" font-family="Verdana" font-size="22" font-weight="bold" lengthAdjust="spacing" textLength="7.5195" x="508.1179" y="117.3301">&#160;</text></g><!--cluster Customer--><g class="cluster" data-entity="Customer" data-source-line="5" data-uid="ent0002" id="cluster_Customer"><rect fill="#FFFFFF" height="311.06" rx="2.5" ry="2.5" style="stroke:#000000;stroke-width:1;" width="539" x="12" y="139.9492"/><text fill="#000000" font-family="Verdana" font-size="14" font-weight="bold" lengthAdjust="spacing" textLength="141.3877" x="210.8062" y="156.0244">Customer Context</text></g><!--cluster Delivery--><g class="cluster" data-entity="Delivery" data-source-line="12" data-uid="ent0007" id="cluster_Delivery"><rect fill="#FFFFFF" height="132.03" rx="2.5" ry="2.5" style="stroke:#000000;stroke-width:1;" width="375" x="591" y="318.9792"/><text fill="#000000" font-family="Verdana" font-size="14" font-weight="bold" lengthAdjust="spacing" textLength="130.874" x="713.063" y="335.0544">Delivery Context</text></g><!--cluster Inventory--><g class="cluster" data-entity="Inventory" data-source-line="16" data-uid="ent0009" id="cluster_Inventory"><rect fill="#FFFFFF" height="132.03" rx="2.5" ry="2.5" style="stroke:#000000;stroke-width:1;" width="333" x="633" y="516.0092"/><text fill="#000000" font-family="Verdana" font-size="14" font-weight="bold" lengthAdjust="spacing" textLength="143.9648" x="727.5176" y="532.0844">Inventory Context</text></g><!--cluster Notification--><g class="cluster" data-entity="Notification" data-source-line="20" data-uid="ent0011" id="cluster_Notification"><rect fill="#FFFFFF" height="132.03" rx="2.5" ry="2.5" style="stroke:#000000;stroke-width:1;" width="745" x="221" y="713.0392"/><text fill="#000000" font-family="Verdana" font-size="14" font-weight="bold" lengthAdjust="spacing" textLength="157.582" x="514.709" y="729.1144">Notification Context</text></g><!--cluster Observability--><g class="cluster" data-entity="Observability" data-source-line="25" data-uid="ent0014" id="cluster_Observability"><rect fill="#FFFFFF" height="132.03" rx="2.5" ry="2.5" style="stroke:#000000;stroke-width:1;" width="479" x="487" y="910.0692"/><text fill="#000000" font-family="Verdana" font-size="14" font-weight="bold" lengthAdjust="spacing" textLength="170.2559" x="641.3721" y="926.1444">Observability Context</text></g><!--cluster Order--><g class="cluster" data-entity="Order" data-source-line="30" data-uid="ent0017" id="cluster_Order"><rect fill="#FFFFFF" height="132.02" rx="2.5" ry="2.5" style="stroke:#000000;stroke-width:1;" width="857" x="109" y="1107.0992"/><text fill="#000000" font-family="Verdana" font-size="14" font-weight="bold" lengthAdjust="spacing" textLength="110.8242" x="482.0879" y="1123.1744">Order Context</text></g><!--cluster Payment--><g class="cluster" data-entity="Payment" data-source-line="35" data-uid="ent0020" id="cluster_Payment"><rect fill="#FFFFFF" height="132.03" rx="2.5" ry="2.5" style="stroke:#000000;stroke-width:1;" width="689" x="277" y="1304.1192"/><text fill="#000000" font-family="Verdana" font-size="14" font-weight="bold" lengthAdjust="spacing" textLength="135.1055" x="553.9473" y="1320.1944">Payment Context</text></g><!--cluster Pricing--><g class="cluster" data-entity="Pricing" data-source-line="40" data-uid="ent0023" id="cluster_Pricing"><rect fill="#FFFFFF" height="132.03" rx="2.5" ry="2.5" style="stroke:#000000;stroke-width:1;" width="459" x="507" y="1501.1492"/><text fill="#000000" font-family="Verdana" font-size="14" font-weight="bold" lengthAdjust="spacing" textLength="120.709" x="676.1455" y="1517.2244">Pricing Context</text></g><!--cluster Product--><g class="cluster" data-entity="Product" data-source-line="44" data-uid="ent0025" id="cluster_Product"><rect fill="#FFFFFF" height="132.03" rx="2.5" ry="2.5" style="stroke:#000000;stroke-width:1;" width="333" x="633" y="1698.1792"/><text fill="#000000" font-family="Verdana" font-size="14" font-weight="bold" lengthAdjust="spacing" textLength="127.1279" x="735.936" y="1714.2544">Product Context</text></g><!--cluster Promotion--><g class="cluster" data-entity="Promotion" data-source-line="48" data-uid="ent0027" id="cluster_Promotion"><rect fill="#FFFFFF" height="132.03" rx="2.5" ry="2.5" style="stroke:#000000;stroke-width:1;" width="731" x="235" y="1895.2092"/><text fill="#000000" font-family="Verdana" font-size="14" font-weight="bold" lengthAdjust="spacing" textLength="147.9229" x="526.5386" y="1911.2844">Promotion Context</text></g><!--cluster Review--><g class="cluster" data-entity="Review" data-source-line="53" data-uid="ent0030" id="cluster_Review"><rect fill="#FFFFFF" height="132.03" rx="2.5" ry="2.5" style="stroke:#000000;stroke-width:1;" width="417" x="549" y="2092.2392"/><text fill="#000000" font-family="Verdana" font-size="14" font-weight="bold" lengthAdjust="spacing" textLength="123.0605" x="695.9697" y="2108.3144">Review Context</text></g><!--cluster Seller--><g class="cluster" data-entity="Seller" data-source-line="57" data-uid="ent0032" id="cluster_Seller"><rect fill="#FFFFFF" height="132.03" rx="2.5" ry="2.5" style="stroke:#000000;stroke-width:1;" width="361" x="605" y="2289.2692"/><text fill="#000000" font-family="Verdana" font-size="14" font-weight="bold" lengthAdjust="spacing" textLength="110.9883" x="730.0059" y="2305.3444">Seller Context</text></g><!--cluster ShoppingCart--><g class="cluster" data-entity="ShoppingCart" data-source-line="61" data-uid="ent0034" id="cluster_ShoppingCart"><rect fill="#FFFFFF" height="132.03" rx="2.5" ry="2.5" style="stroke:#000000;stroke-width:1;" width="445" x="521" y="2486.2992"/><text fill="#000000" font-family="Verdana" font-size="14" font-weight="bold" lengthAdjust="spacing" textLength="172.3955" x="657.3022" y="2502.3744">ShoppingCart Context</text></g><!--entity Customer_1--><g class="entity" data-entity="Customer_1" data-source-line="6" data-uid="ent0003" id="entity_Customer_1"><rect fill="#FFFFFF" height="64.0293" rx="2.5" ry="2.5" style="stroke:#000000;stroke-width:1;" width="321.2783" x="36.36" y="183.9492"/><rect fill="#FFFFFF" height="10" style="stroke:#000000;stroke-width:1;" width="15" x="337.6383" y="188.9492"/><rect fill="#FFFFFF" height="2" style="stroke:#000000;stroke-width:1;" width="4" x="335.6383" y="190.9492"/><rect fill="#FFFFFF" height="2" style="stroke:#000000;stroke-width:1;" width="4" x="335.6383" y="194.9492"/><text fill="#000000" font-family="Verdana" font-size="14" font-weight="bold" lengthAdjust="spacing" textLength="75.4688" x="51.36" y="218.0244">Customer</text><text fill="#000000" font-family="Verdana" font-size="14" lengthAdjust="spacing" textLength="281.2783" x="51.36" y="235.0391">&#22686;&#24375;&#30340;&#23458;&#25142;&#32858;&#21512;&#26681;&#65292;&#25903;&#25588;&#23436;&#25972;&#30340;&#28040;&#36027;&#32773;&#21151;&#33021;...</text></g><!--entity Customer_2--><g class="entity" data-entity="Customer_2" data-source-line="7" data-uid="ent0004" id="entity_Customer_2"><rect fill="#FFFFFF" height="64.0293" rx="2.5" ry="2.5" style="stroke:#000000;stroke-width:1;" width="115.4688" x="392.27" y="183.9492"/><rect fill="#FFFFFF" height="10" style="stroke:#000000;stroke-width:1;" width="15" x="487.7388" y="188.9492"/><rect fill="#FFFFFF" height="2" style="stroke:#000000;stroke-width:1;" width="4" x="485.7388" y="190.9492"/><rect fill="#FFFFFF" height="2" style="stroke:#000000;stroke-width:1;" width="4" x="485.7388" y="194.9492"/><text fill="#000000" font-family="Verdana" font-size="14" font-weight="bold" lengthAdjust="spacing" textLength="75.4688" x="407.27" y="218.0244">Customer</text><text fill="#000000" font-family="Verdana" font-size="14" lengthAdjust="spacing" textLength="15.2783" x="407.27" y="235.0391">...</text></g><!--entity Customer_3--><g class="entity" data-entity="Customer_3" data-source-line="8" data-uid="ent0005" id="entity_Customer_3"><rect fill="#FFFFFF" height="64.0293" rx="2.5" ry="2.5" style="stroke:#000000;stroke-width:1;" width="115.4688" x="139.27" y="362.9792"/><rect fill="#FFFFFF" height="10" style="stroke:#000000;stroke-width:1;" width="15" x="234.7388" y="367.9792"/><rect fill="#FFFFFF" height="2" style="stroke:#000000;stroke-width:1;" width="4" x="232.7388" y="369.9792"/><rect fill="#FFFFFF" height="2" style="stroke:#000000;stroke-width:1;" width="4" x="232.7388" y="373.9792"/><text fill="#000000" font-family="Verdana" font-size="14" font-weight="bold" lengthAdjust="spacing" textLength="75.4688" x="154.27" y="397.0544">Customer</text><text fill="#000000" font-family="Verdana" font-size="14" lengthAdjust="spacing" textLength="15.2783" x="154.27" y="414.0691">...</text></g><!--entity Customer_4--><g class="entity" data-entity="Customer_4" data-source-line="9" data-uid="ent0006" id="entity_Customer_4"><rect fill="#FFFFFF" height="64.0293" rx="2.5" ry="2.5" style="stroke:#000000;stroke-width:1;" width="115.4688" x="289.27" y="362.9792"/><rect fill="#FFFFFF" height="10" style="stroke:#000000;stroke-width:1;" width="15" x="384.7388" y="367.9792"/><rect fill="#FFFFFF" height="2" style="stroke:#000000;stroke-width:1;" width="4" x="382.7388" y="369.9792"/><rect fill="#FFFFFF" height="2" style="stroke:#000000;stroke-width:1;" width="4" x="382.7388" y="373.9792"/><text fill="#000000" font-family="Verdana" font-size="14" font-weight="bold" lengthAdjust="spacing" textLength="75.4688" x="304.27" y="397.0544">Customer</text><text fill="#000000" font-family="Verdana" font-size="14" lengthAdjust="spacing" textLength="15.2783" x="304.27" y="414.0691">...</text></g><!--entity Delivery_1--><g class="entity" data-entity="Delivery_1" data-source-line="13" data-uid="ent0008" id="entity_Delivery_1"><rect fill="#FFFFFF" height="64.0293" rx="2.5" ry="2.5" style="stroke:#000000;stroke-width:1;" width="307.2783" x="615.36" y="362.9792"/><rect fill="#FFFFFF" height="10" style="stroke:#000000;stroke-width:1;" width="15" x="902.6383" y="367.9792"/><rect fill="#FFFFFF" height="2" style="stroke:#000000;stroke-width:1;" width="4" x="900.6383" y="369.9792"/><rect fill="#FFFFFF" height="2" style="stroke:#000000;stroke-width:1;" width="4" x="900.6383" y="373.9792"/><text fill="#000000" font-family="Verdana" font-size="14" font-weight="bold" lengthAdjust="spacing" textLength="64.9551" x="630.36" y="397.0544">Delivery</text><text fill="#000000" font-family="Verdana" font-size="14" lengthAdjust="spacing" textLength="267.2783" x="630.36" y="414.0691">&#37197;&#36865;&#32858;&#21512;&#26681;&#65292;&#31649;&#29702;&#35330;&#21934;&#30340;&#37197;&#36865;&#27969;&#31243;&#21644;&#29376;&#24907;...</text></g><!--entity Inventory_1--><g class="entity" data-entity="Inventory_1" data-source-line="17" data-uid="ent0010" id="entity_Inventory_1"><rect fill="#FFFFFF" height="64.0293" rx="2.5" ry="2.5" style="stroke:#000000;stroke-width:1;" width="265.2783" x="657.36" y="560.0092"/><rect fill="#FFFFFF" height="10" style="stroke:#000000;stroke-width:1;" width="15" x="902.6383" y="565.0092"/><rect fill="#FFFFFF" height="2" style="stroke:#000000;stroke-width:1;" width="4" x="900.6383" y="567.0092"/><rect fill="#FFFFFF" height="2" style="stroke:#000000;stroke-width:1;" width="4" x="900.6383" y="571.0092"/><text fill="#000000" font-family="Verdana" font-size="14" font-weight="bold" lengthAdjust="spacing" textLength="78.0459" x="672.36" y="594.0844">Inventory</text><text fill="#000000" font-family="Verdana" font-size="14" lengthAdjust="spacing" textLength="225.2783" x="672.36" y="611.0991">&#24235;&#23384;&#32858;&#21512;&#26681;&#65292;&#31649;&#29702;&#29986;&#21697;&#24235;&#23384;&#21644;&#38928;&#30041;...</text></g><!--entity Notification_1--><g class="entity" data-entity="Notification_1" data-source-line="21" data-uid="ent0012" id="entity_Notification_1"><rect fill="#FFFFFF" height="64.0293" rx="2.5" ry="2.5" style="stroke:#000000;stroke-width:1;" width="307.2783" x="245.36" y="757.0392"/><rect fill="#FFFFFF" height="10" style="stroke:#000000;stroke-width:1;" width="15" x="532.6383" y="762.0392"/><rect fill="#FFFFFF" height="2" style="stroke:#000000;stroke-width:1;" width="4" x="530.6383" y="764.0392"/><rect fill="#FFFFFF" height="2" style="stroke:#000000;stroke-width:1;" width="4" x="530.6383" y="768.0392"/><text fill="#000000" font-family="Verdana" font-size="14" font-weight="bold" lengthAdjust="spacing" textLength="91.6631" x="260.36" y="791.1144">Notification</text><text fill="#000000" font-family="Verdana" font-size="14" lengthAdjust="spacing" textLength="267.2783" x="260.36" y="808.1291">&#36890;&#30693;&#32858;&#21512;&#26681;&#65292;&#31649;&#29702;&#31995;&#32113;&#36890;&#30693;&#30340;&#30332;&#36865;&#21644;&#29376;&#24907;...</text></g><!--entity NotificationTemplate--><g class="entity" data-entity="NotificationTemplate" data-source-line="22" data-uid="ent0013" id="entity_NotificationTemplate"><rect fill="#FFFFFF" height="64.0293" rx="2.5" ry="2.5" style="stroke:#000000;stroke-width:1;" width="335.2783" x="587.36" y="757.0392"/><rect fill="#FFFFFF" height="10" style="stroke:#000000;stroke-width:1;" width="15" x="902.6383" y="762.0392"/><rect fill="#FFFFFF" height="2" style="stroke:#000000;stroke-width:1;" width="4" x="900.6383" y="764.0392"/><rect fill="#FFFFFF" height="2" style="stroke:#000000;stroke-width:1;" width="4" x="900.6383" y="768.0392"/><text fill="#000000" font-family="Verdana" font-size="14" font-weight="bold" lengthAdjust="spacing" textLength="164.917" x="602.36" y="791.1144">NotificationTemplate</text><text fill="#000000" font-family="Verdana" font-size="14" lengthAdjust="spacing" textLength="295.2783" x="602.36" y="808.1291">&#36890;&#30693;&#27169;&#26495;&#32858;&#21512;&#26681;&#65292;&#31649;&#29702;&#36890;&#30693;&#27169;&#26495;&#30340;&#20839;&#23481;&#21644;&#26684;&#24335;...</text></g><!--entity AnalyticsSession--><g class="entity" data-entity="AnalyticsSession" data-source-line="26" data-uid="ent0015" id="entity_AnalyticsSession"><rect fill="#FFFFFF" height="64.0293" rx="2.5" ry="2.5" style="stroke:#000000;stroke-width:1;" width="172.0225" x="510.99" y="954.0692"/><rect fill="#FFFFFF" height="10" style="stroke:#000000;stroke-width:1;" width="15" x="663.0125" y="959.0692"/><rect fill="#FFFFFF" height="2" style="stroke:#000000;stroke-width:1;" width="4" x="661.0125" y="961.0692"/><rect fill="#FFFFFF" height="2" style="stroke:#000000;stroke-width:1;" width="4" x="661.0125" y="965.0692"/><text fill="#000000" font-family="Verdana" font-size="14" font-weight="bold" lengthAdjust="spacing" textLength="132.0225" x="525.99" y="988.1444">AnalyticsSession</text><text fill="#000000" font-family="Verdana" font-size="14" lengthAdjust="spacing" textLength="113.2783" x="525.99" y="1005.1591">&#20998;&#26512;&#26371;&#35441;&#32858;&#21512;&#26681;...</text></g><!--entity ObservabilitySession--><g class="entity" data-entity="ObservabilitySession" data-source-line="27" data-uid="ent0016" id="entity_ObservabilitySession"><rect fill="#FFFFFF" height="64.0293" rx="2.5" ry="2.5" style="stroke:#000000;stroke-width:1;" width="204.5615" x="717.72" y="954.0692"/><rect fill="#FFFFFF" height="10" style="stroke:#000000;stroke-width:1;" width="15" x="902.2815" y="959.0692"/><rect fill="#FFFFFF" height="2" style="stroke:#000000;stroke-width:1;" width="4" x="900.2815" y="961.0692"/><rect fill="#FFFFFF" height="2" style="stroke:#000000;stroke-width:1;" width="4" x="900.2815" y="965.0692"/><text fill="#000000" font-family="Verdana" font-size="14" font-weight="bold" lengthAdjust="spacing" textLength="164.5615" x="732.72" y="988.1444">ObservabilitySession</text><text fill="#000000" font-family="Verdana" font-size="14" lengthAdjust="spacing" textLength="141.2783" x="732.72" y="1005.1591">&#21487;&#35264;&#28204;&#24615;&#26371;&#35441;&#32858;&#21512;&#26681;...</text></g><!--entity Order_1--><g class="entity" data-entity="Order_1" data-source-line="31" data-uid="ent0018" id="entity_Order_1"><rect fill="#FFFFFF" height="64.0293" rx="2.5" ry="2.5" style="stroke:#000000;stroke-width:1;" width="335.2783" x="133.36" y="1151.0992"/><rect fill="#FFFFFF" height="10" style="stroke:#000000;stroke-width:1;" width="15" x="448.6383" y="1156.0992"/><rect fill="#FFFFFF" height="2" style="stroke:#000000;stroke-width:1;" width="4" x="446.6383" y="1158.0992"/><rect fill="#FFFFFF" height="2" style="stroke:#000000;stroke-width:1;" width="4" x="446.6383" y="1162.0992"/><text fill="#000000" font-family="Verdana" font-size="14" font-weight="bold" lengthAdjust="spacing" textLength="44.9053" x="148.36" y="1185.1744">Order</text><text fill="#000000" font-family="Verdana" font-size="14" lengthAdjust="spacing" textLength="295.2783" x="148.36" y="1202.1891">&#35330;&#21934;&#32858;&#21512;&#26681;&#65292;&#23553;&#35037;&#35330;&#21934;&#30456;&#38364;&#30340;&#26989;&#21209;&#35215;&#21063;&#21644;&#34892;&#28858;...</text></g><!--entity OrderWorkflow--><g class="entity" data-entity="OrderWorkflow" data-source-line="32" data-uid="ent0019" id="entity_OrderWorkflow"><rect fill="#FFFFFF" height="64.0293" rx="2.5" ry="2.5" style="stroke:#000000;stroke-width:1;" width="419.2783" x="503.36" y="1151.0992"/><rect fill="#FFFFFF" height="10" style="stroke:#000000;stroke-width:1;" width="15" x="902.6383" y="1156.0992"/><rect fill="#FFFFFF" height="2" style="stroke:#000000;stroke-width:1;" width="4" x="900.6383" y="1158.0992"/><rect fill="#FFFFFF" height="2" style="stroke:#000000;stroke-width:1;" width="4" x="900.6383" y="1162.0992"/><text fill="#000000" font-family="Verdana" font-size="14" font-weight="bold" lengthAdjust="spacing" textLength="120.6885" x="518.36" y="1185.1744">OrderWorkflow</text><text fill="#000000" font-family="Verdana" font-size="14" lengthAdjust="spacing" textLength="379.2783" x="518.36" y="1202.1891">&#35330;&#21934;&#24037;&#20316;&#27969;&#32858;&#21512;&#26681;&#65292;&#31649;&#29702;&#35330;&#21934;&#24478;&#21109;&#24314;&#21040;&#23436;&#25104;&#30340;&#25972;&#20491;&#29983;&#21629;&#36913;&#26399;...</text></g><!--entity Payment_1--><g class="entity" data-entity="Payment_1" data-source-line="36" data-uid="ent0021" id="entity_Payment_1"><rect fill="#FFFFFF" height="64.0293" rx="2.5" ry="2.5" style="stroke:#000000;stroke-width:1;" width="265.2783" x="301.36" y="1348.1192"/><rect fill="#FFFFFF" height="10" style="stroke:#000000;stroke-width:1;" width="15" x="546.6383" y="1353.1192"/><rect fill="#FFFFFF" height="2" style="stroke:#000000;stroke-width:1;" width="4" x="544.6383" y="1355.1192"/><rect fill="#FFFFFF" height="2" style="stroke:#000000;stroke-width:1;" width="4" x="544.6383" y="1359.1192"/><text fill="#000000" font-family="Verdana" font-size="14" font-weight="bold" lengthAdjust="spacing" textLength="69.1865" x="316.36" y="1382.1944">Payment</text><text fill="#000000" font-family="Verdana" font-size="14" lengthAdjust="spacing" textLength="225.2783" x="316.36" y="1399.2091">&#25903;&#20184;&#32858;&#21512;&#26681;&#65292;&#31649;&#29702;&#25903;&#20184;&#27969;&#31243;&#21644;&#29376;&#24907;...</text></g><!--entity PaymentMethod--><g class="entity" data-entity="PaymentMethod" data-source-line="37" data-uid="ent0022" id="entity_PaymentMethod"><rect fill="#FFFFFF" height="64.0293" rx="2.5" ry="2.5" style="stroke:#000000;stroke-width:1;" width="321.2783" x="601.36" y="1348.1192"/><rect fill="#FFFFFF" height="10" style="stroke:#000000;stroke-width:1;" width="15" x="902.6383" y="1353.1192"/><rect fill="#FFFFFF" height="2" style="stroke:#000000;stroke-width:1;" width="4" x="900.6383" y="1355.1192"/><rect fill="#FFFFFF" height="2" style="stroke:#000000;stroke-width:1;" width="4" x="900.6383" y="1359.1192"/><text fill="#000000" font-family="Verdana" font-size="14" font-weight="bold" lengthAdjust="spacing" textLength="127.5039" x="616.36" y="1382.1944">PaymentMethod</text><text fill="#000000" font-family="Verdana" font-size="14" lengthAdjust="spacing" textLength="281.2783" x="616.36" y="1399.2091">&#25903;&#20184;&#26041;&#24335;&#32858;&#21512;&#26681;&#65292;&#31649;&#29702;&#23458;&#25142;&#30340;&#25903;&#20184;&#26041;&#24335;&#37197;&#32622;...</text></g><!--entity PricingRule--><g class="entity" data-entity="PricingRule" data-source-line="41" data-uid="ent0024" id="entity_PricingRule"><rect fill="#FFFFFF" height="64.0293" rx="2.5" ry="2.5" style="stroke:#000000;stroke-width:1;" width="391.2783" x="531.36" y="1545.1492"/><rect fill="#FFFFFF" height="10" style="stroke:#000000;stroke-width:1;" width="15" x="902.6383" y="1550.1492"/><rect fill="#FFFFFF" height="2" style="stroke:#000000;stroke-width:1;" width="4" x="900.6383" y="1552.1492"/><rect fill="#FFFFFF" height="2" style="stroke:#000000;stroke-width:1;" width="4" x="900.6383" y="1556.1492"/><text fill="#000000" font-family="Verdana" font-size="14" font-weight="bold" lengthAdjust="spacing" textLength="89.7969" x="546.36" y="1579.2244">PricingRule</text><text fill="#000000" font-family="Verdana" font-size="14" lengthAdjust="spacing" textLength="351.2783" x="546.36" y="1596.2391">&#23450;&#20729;&#35215;&#21063;&#32858;&#21512;&#26681;&#65292;&#36000;&#36012;&#31649;&#29702;&#29986;&#21697;&#23450;&#20729;&#12289;&#25240;&#25187;&#21644;&#20323;&#37329;&#36027;&#29575;...</text></g><!--entity Product_1--><g class="entity" data-entity="Product_1" data-source-line="45" data-uid="ent0026" id="entity_Product_1"><rect fill="#FFFFFF" height="64.0293" rx="2.5" ry="2.5" style="stroke:#000000;stroke-width:1;" width="265.2783" x="657.36" y="1742.1792"/><rect fill="#FFFFFF" height="10" style="stroke:#000000;stroke-width:1;" width="15" x="902.6383" y="1747.1792"/><rect fill="#FFFFFF" height="2" style="stroke:#000000;stroke-width:1;" width="4" x="900.6383" y="1749.1792"/><rect fill="#FFFFFF" height="2" style="stroke:#000000;stroke-width:1;" width="4" x="900.6383" y="1753.1792"/><text fill="#000000" font-family="Verdana" font-size="14" font-weight="bold" lengthAdjust="spacing" textLength="61.209" x="672.36" y="1776.2544">Product</text><text fill="#000000" font-family="Verdana" font-size="14" lengthAdjust="spacing" textLength="225.2783" x="672.36" y="1793.2691">&#29986;&#21697;&#32858;&#21512;&#26681;&#65292;&#31649;&#29702;&#29986;&#21697;&#20449;&#24687;&#21644;&#24235;&#23384;...</text></g><!--entity Promotion_1--><g class="entity" data-entity="Promotion_1" data-source-line="49" data-uid="ent0028" id="entity_Promotion_1"><rect fill="#FFFFFF" height="64.0293" rx="2.5" ry="2.5" style="stroke:#000000;stroke-width:1;" width="279.2783" x="259.36" y="1939.2092"/><rect fill="#FFFFFF" height="10" style="stroke:#000000;stroke-width:1;" width="15" x="518.6383" y="1944.2092"/><rect fill="#FFFFFF" height="2" style="stroke:#000000;stroke-width:1;" width="4" x="516.6383" y="1946.2092"/><rect fill="#FFFFFF" height="2" style="stroke:#000000;stroke-width:1;" width="4" x="516.6383" y="1950.2092"/><text fill="#000000" font-family="Verdana" font-size="14" font-weight="bold" lengthAdjust="spacing" textLength="82.0039" x="274.36" y="1973.2844">Promotion</text><text fill="#000000" font-family="Verdana" font-size="14" lengthAdjust="spacing" textLength="239.2783" x="274.36" y="1990.2991">&#20419;&#37559;&#32858;&#21512;&#26681;&#65292;&#31649;&#29702;&#21508;&#31278;&#20419;&#37559;&#27963;&#21205;&#35215;&#21063;...</text></g><!--entity Voucher--><g class="entity" data-entity="Voucher" data-source-line="50" data-uid="ent0029" id="entity_Voucher"><rect fill="#FFFFFF" height="64.0293" rx="2.5" ry="2.5" style="stroke:#000000;stroke-width:1;" width="349.2783" x="573.36" y="1939.2092"/><rect fill="#FFFFFF" height="10" style="stroke:#000000;stroke-width:1;" width="15" x="902.6383" y="1944.2092"/><rect fill="#FFFFFF" height="2" style="stroke:#000000;stroke-width:1;" width="4" x="900.6383" y="1946.2092"/><rect fill="#FFFFFF" height="2" style="stroke:#000000;stroke-width:1;" width="4" x="900.6383" y="1950.2092"/><text fill="#000000" font-family="Verdana" font-size="14" font-weight="bold" lengthAdjust="spacing" textLength="64.7432" x="588.36" y="1973.2844">Voucher</text><text fill="#000000" font-family="Verdana" font-size="14" lengthAdjust="spacing" textLength="309.2783" x="588.36" y="1990.2991">&#36229;&#21830;&#20778;&#24800;&#21048;&#32858;&#21512;&#26681;&#65292;&#31649;&#29702;&#20778;&#24800;&#21048;&#30340;&#23436;&#25972;&#29983;&#21629;&#36913;&#26399;...</text></g><!--entity ProductReview--><g class="entity" data-entity="ProductReview" data-source-line="54" data-uid="ent0031" id="entity_ProductReview"><rect fill="#FFFFFF" height="64.0293" rx="2.5" ry="2.5" style="stroke:#000000;stroke-width:1;" width="349.2783" x="573.36" y="2136.2392"/><rect fill="#FFFFFF" height="10" style="stroke:#000000;stroke-width:1;" width="15" x="902.6383" y="2141.2392"/><rect fill="#FFFFFF" height="2" style="stroke:#000000;stroke-width:1;" width="4" x="900.6383" y="2143.2392"/><rect fill="#FFFFFF" height="2" style="stroke:#000000;stroke-width:1;" width="4" x="900.6383" y="2147.2392"/><text fill="#000000" font-family="Verdana" font-size="14" font-weight="bold" lengthAdjust="spacing" textLength="118.3506" x="588.36" y="2170.3144">ProductReview</text><text fill="#000000" font-family="Verdana" font-size="14" lengthAdjust="spacing" textLength="309.2783" x="588.36" y="2187.3291">&#21830;&#21697;&#35413;&#20729;&#32858;&#21512;&#26681;&#65292;&#31649;&#29702;&#28040;&#36027;&#32773;&#30340;&#21830;&#21697;&#35413;&#20729;&#21644;&#35413;&#20998;...</text></g><!--entity Seller_1--><g class="entity" data-entity="Seller_1" data-source-line="58" data-uid="ent0033" id="entity_Seller_1"><rect fill="#FFFFFF" height="64.0293" rx="2.5" ry="2.5" style="stroke:#000000;stroke-width:1;" width="293.2783" x="629.36" y="2333.2692"/><rect fill="#FFFFFF" height="10" style="stroke:#000000;stroke-width:1;" width="15" x="902.6383" y="2338.2692"/><rect fill="#FFFFFF" height="2" style="stroke:#000000;stroke-width:1;" width="4" x="900.6383" y="2340.2692"/><rect fill="#FFFFFF" height="2" style="stroke:#000000;stroke-width:1;" width="4" x="900.6383" y="2344.2692"/><text fill="#000000" font-family="Verdana" font-size="14" font-weight="bold" lengthAdjust="spacing" textLength="45.0693" x="644.36" y="2367.3444">Seller</text><text fill="#000000" font-family="Verdana" font-size="14" lengthAdjust="spacing" textLength="253.2783" x="644.36" y="2384.3591">&#36067;&#23478;&#32858;&#21512;&#26681;&#65292;&#31649;&#29702;&#36067;&#23478;&#22522;&#26412;&#36039;&#35338;&#21644;&#29376;&#24907;...</text></g><!--entity ShoppingCart_1--><g class="entity" data-entity="ShoppingCart_1" data-source-line="62" data-uid="ent0035" id="entity_ShoppingCart_1"><rect fill="#FFFFFF" height="64.0293" rx="2.5" ry="2.5" style="stroke:#000000;stroke-width:1;" width="377.2783" x="545.36" y="2530.2992"/><rect fill="#FFFFFF" height="10" style="stroke:#000000;stroke-width:1;" width="15" x="902.6383" y="2535.2992"/><rect fill="#FFFFFF" height="2" style="stroke:#000000;stroke-width:1;" width="4" x="900.6383" y="2537.2992"/><rect fill="#FFFFFF" height="2" style="stroke:#000000;stroke-width:1;" width="4" x="900.6383" y="2541.2992"/><text fill="#000000" font-family="Verdana" font-size="14" font-weight="bold" lengthAdjust="spacing" textLength="106.4766" x="560.36" y="2564.3744">ShoppingCart</text><text fill="#000000" font-family="Verdana" font-size="14" lengthAdjust="spacing" textLength="337.2783" x="560.36" y="2581.3891">&#36092;&#29289;&#36554;&#32858;&#21512;&#26681;&#65292;&#31649;&#29702;&#28040;&#36027;&#32773;&#30340;&#36092;&#29289;&#36554;&#29376;&#24907;&#21644;&#21830;&#21697;&#38917;&#30446;...</text></g><!--link Customer to Delivery--><g class="link" data-entity-1="Customer" data-entity-2="Delivery" data-source-line="65" data-uid="lnk36" id="link_Customer_Delivery"><path d="M551.1584,217.5541 C551.5979,217.5873 552.054,217.6219 552.5265,217.6579 C554.4164,217.8021 556.5676,217.9695 558.9623,218.1605 C568.5413,218.9248 582.0156,220.0689 598.2375,221.6305 C630.6813,224.7536 674.115,229.5467 719.355,236.3117 C809.835,249.8417 907.54,271.2592 939,302.9792 C942.5813,306.5892 945.5689,310.6888 948.0548,315.1027 C948.6763,316.2062 949.2664,317.3293 949.8266,318.4694 C949.8966,318.6119 947.3564,313.352 947.4255,313.495" fill="none" id="Customer-to-Delivery" style="stroke:#000000;stroke-width:1;stroke-dasharray:7,7;"/><polygon fill="#000000" points="950.0353,318.8977,949.7223,309.0538,947.8604,314.3955,942.5188,312.5336,950.0353,318.8977" style="stroke:#000000;stroke-width:1;"/><text fill="#000000" font-family="Verdana" font-size="13" lengthAdjust="spacing" textLength="65.7554" x="925.81" y="292.049">integrates</text></g><!--link Delivery to Inventory--><g class="link" data-entity-1="Delivery" data-entity-2="Inventory" data-source-line="66" data-uid="lnk37" id="link_Delivery_Inventory"><path d="M958,451.6085 C958,451.9455 958,452.2833 958,452.6219 C958,453.2992 958,453.9796 958,454.6631 C958,456.0301 958,457.4093 958,458.7993 C958,469.9191 958,481.7314 958,493.543 C958,499.4488 958,505.3544 958,511.1731 C958,512.6278 958,508.0771 958,509.5196" fill="none" id="Delivery-to-Inventory" style="stroke:#000000;stroke-width:1;stroke-dasharray:7,7;"/><polygon fill="#000000" points="958,515.5196,962,506.5196,958,510.5196,954,506.5196,958,515.5196" style="stroke:#000000;stroke-width:1;"/><text fill="#000000" font-family="Verdana" font-size="13" lengthAdjust="spacing" textLength="65.7554" x="959" y="489.079">integrates</text></g><!--link Inventory to Notification--><g class="link" data-entity-1="Inventory" data-entity-2="Notification" data-source-line="67" data-uid="lnk38" id="link_Inventory_Notification"><path d="M958,648.6381 C958,648.9751 958,649.3129 958,649.6515 C958,650.3287 958,651.0092 958,651.6927 C958,653.0596 958,654.4388 958,655.8288 C958,666.9484 958,678.7605 958,690.5717 C958,696.4773 958,702.3828 958,708.2014 C958,709.656 958,705.1052 958,706.5477" fill="none" id="Inventory-to-Notification" style="stroke:#000000;stroke-width:1;stroke-dasharray:7,7;"/><polygon fill="#000000" points="958,712.5477,962,703.5477,958,707.5477,954,703.5477,958,712.5477" style="stroke:#000000;stroke-width:1;"/><text fill="#000000" font-family="Verdana" font-size="13" lengthAdjust="spacing" textLength="65.7554" x="959" y="686.109">integrates</text></g><!--link Notification to Observability--><g class="link" data-entity-1="Notification" data-entity-2="Observability" data-source-line="68" data-uid="lnk39" id="link_Notification_Observability"><path d="M958,845.6681 C958,846.0051 958,846.3429 958,846.6815 C958,847.3587 958,848.0392 958,848.7227 C958,850.0896 958,851.4688 958,852.8588 C958,863.9784 958,875.7905 958,887.6017 C958,893.5073 958,899.4128 958,905.2314 C958,906.686 958,902.1352 958,903.5777" fill="none" id="Notification-to-Observability" style="stroke:#000000;stroke-width:1;stroke-dasharray:7,7;"/><polygon fill="#000000" points="958,909.5777,962,900.5777,958,904.5777,954,900.5777,958,909.5777" style="stroke:#000000;stroke-width:1;"/><text fill="#000000" font-family="Verdana" font-size="13" lengthAdjust="spacing" textLength="65.7554" x="959" y="883.139">integrates</text></g><!--link Observability to Order--><g class="link" data-entity-1="Observability" data-entity-2="Order" data-source-line="69" data-uid="lnk40" id="link_Observability_Order"><path d="M958,1042.6981 C958,1043.0351 958,1043.3729 958,1043.7115 C958,1044.3887 958,1045.0692 958,1045.7527 C958,1047.1196 958,1048.4988 958,1049.8888 C958,1061.0084 958,1072.8205 958,1084.6317 C958,1090.5373 958,1096.4428 958,1102.2614 C958,1103.716 958,1099.1652 958,1100.6077" fill="none" id="Observability-to-Order" style="stroke:#000000;stroke-width:1;stroke-dasharray:7,7;"/><polygon fill="#000000" points="958,1106.6077,962,1097.6077,958,1101.6077,954,1097.6077,958,1106.6077" style="stroke:#000000;stroke-width:1;"/><text fill="#000000" font-family="Verdana" font-size="13" lengthAdjust="spacing" textLength="65.7554" x="959" y="1080.169">integrates</text></g><!--link Order to Payment--><g class="link" data-entity-1="Order" data-entity-2="Payment" data-source-line="70" data-uid="lnk41" id="link_Order_Payment"><path d="M958,1239.7237 C958,1240.0607 958,1240.3985 958,1240.7371 C958,1241.4143 958,1242.0948 958,1242.7782 C958,1244.1452 958,1245.5244 958,1246.9144 C958,1258.0341 958,1269.8464 958,1281.658 C958,1287.5638 958,1293.4694 958,1299.2881 C958,1300.7428 958,1296.1921 958,1297.6346" fill="none" id="Order-to-Payment" style="stroke:#000000;stroke-width:1;stroke-dasharray:7,7;"/><polygon fill="#000000" points="958,1303.6346,962,1294.6346,958,1298.6346,954,1294.6346,958,1303.6346" style="stroke:#000000;stroke-width:1;"/><text fill="#000000" font-family="Verdana" font-size="13" lengthAdjust="spacing" textLength="65.7554" x="959" y="1277.189">integrates</text></g><!--link Payment to Pricing--><g class="link" data-entity-1="Payment" data-entity-2="Pricing" data-source-line="71" data-uid="lnk42" id="link_Payment_Pricing"><path d="M958,1436.7537 C958,1437.0907 958,1437.4285 958,1437.7671 C958,1438.4443 958,1439.1248 958,1439.8082 C958,1441.1752 958,1442.5544 958,1443.9444 C958,1455.0641 958,1466.8764 958,1478.688 C958,1484.5938 958,1490.4994 958,1496.3181 C958,1497.7728 958,1493.2221 958,1494.6646" fill="none" id="Payment-to-Pricing" style="stroke:#000000;stroke-width:1;stroke-dasharray:7,7;"/><polygon fill="#000000" points="958,1500.6646,962,1491.6646,958,1495.6646,954,1491.6646,958,1500.6646" style="stroke:#000000;stroke-width:1;"/><text fill="#000000" font-family="Verdana" font-size="13" lengthAdjust="spacing" textLength="65.7554" x="959" y="1474.219">integrates</text></g><!--link Pricing to Product--><g class="link" data-entity-1="Pricing" data-entity-2="Product" data-source-line="72" data-uid="lnk43" id="link_Pricing_Product"><path d="M958,1633.7837 C958,1634.1207 958,1634.4585 958,1634.7971 C958,1635.4743 958,1636.1548 958,1636.8382 C958,1638.2052 958,1639.5844 958,1640.9744 C958,1652.0941 958,1663.9064 958,1675.718 C958,1681.6238 958,1687.5294 958,1693.3481 C958,1694.8028 958,1690.2521 958,1691.6946" fill="none" id="Pricing-to-Product" style="stroke:#000000;stroke-width:1;stroke-dasharray:7,7;"/><polygon fill="#000000" points="958,1697.6946,962,1688.6946,958,1692.6946,954,1688.6946,958,1697.6946" style="stroke:#000000;stroke-width:1;"/><text fill="#000000" font-family="Verdana" font-size="13" lengthAdjust="spacing" textLength="65.7554" x="959" y="1671.249">integrates</text></g><!--link Product to Promotion--><g class="link" data-entity-1="Product" data-entity-2="Promotion" data-source-line="73" data-uid="lnk44" id="link_Product_Promotion"><path d="M958,1830.8137 C958,1831.1507 958,1831.4885 958,1831.8271 C958,1832.5043 958,1833.1848 958,1833.8682 C958,1835.2352 958,1836.6144 958,1838.0044 C958,1849.1241 958,1860.9364 958,1872.748 C958,1878.6538 958,1884.5594 958,1890.3781 C958,1891.8328 958,1887.2821 958,1888.7246" fill="none" id="Product-to-Promotion" style="stroke:#000000;stroke-width:1;stroke-dasharray:7,7;"/><polygon fill="#000000" points="958,1894.7246,962,1885.7246,958,1889.7246,954,1885.7246,958,1894.7246" style="stroke:#000000;stroke-width:1;"/><text fill="#000000" font-family="Verdana" font-size="13" lengthAdjust="spacing" textLength="65.7554" x="959" y="1868.279">integrates</text></g><!--link Promotion to Review--><g class="link" data-entity-1="Promotion" data-entity-2="Review" data-source-line="74" data-uid="lnk45" id="link_Promotion_Review"><path d="M958,2027.8437 C958,2028.1807 958,2028.5185 958,2028.8571 C958,2029.5343 958,2030.2148 958,2030.8982 C958,2032.2652 958,2033.6444 958,2035.0344 C958,2046.1541 958,2057.9664 958,2069.778 C958,2075.6838 958,2081.5894 958,2087.4081 C958,2088.8628 958,2084.3121 958,2085.7546" fill="none" id="Promotion-to-Review" style="stroke:#000000;stroke-width:1;stroke-dasharray:7,7;"/><polygon fill="#000000" points="958,2091.7546,962,2082.7546,958,2086.7546,954,2082.7546,958,2091.7546" style="stroke:#000000;stroke-width:1;"/><text fill="#000000" font-family="Verdana" font-size="13" lengthAdjust="spacing" textLength="65.7554" x="959" y="2065.309">integrates</text></g><!--link Review to Seller--><g class="link" data-entity-1="Review" data-entity-2="Seller" data-source-line="75" data-uid="lnk46" id="link_Review_Seller"><path d="M958,2224.8737 C958,2225.2107 958,2225.5485 958,2225.8871 C958,2226.5643 958,2227.2448 958,2227.9282 C958,2229.2952 958,2230.6744 958,2232.0644 C958,2243.1841 958,2254.9964 958,2266.808 C958,2272.7138 958,2278.6194 958,2284.4381 C958,2285.8928 958,2281.3421 958,2282.7846" fill="none" id="Review-to-Seller" style="stroke:#000000;stroke-width:1;stroke-dasharray:7,7;"/><polygon fill="#000000" points="958,2288.7846,962,2279.7846,958,2283.7846,954,2279.7846,958,2288.7846" style="stroke:#000000;stroke-width:1;"/><text fill="#000000" font-family="Verdana" font-size="13" lengthAdjust="spacing" textLength="65.7554" x="959" y="2262.339">integrates</text></g><!--link Seller to ShoppingCart--><g class="link" data-entity-1="Seller" data-entity-2="ShoppingCart" data-source-line="76" data-uid="lnk47" id="link_Seller_ShoppingCart"><path d="M958,2421.9013 C958,2422.2383 958,2422.5761 958,2422.9147 C958,2423.5919 958,2424.2723 958,2424.9558 C958,2426.3227 958,2427.7018 958,2429.0917 C958,2440.2111 958,2452.023 958,2463.8342 C958,2469.7398 958,2475.6453 958,2481.464 C958,2482.9187 958,2478.3679 958,2479.8104" fill="none" id="Seller-to-ShoppingCart" style="stroke:#000000;stroke-width:1;stroke-dasharray:7,7;"/><polygon fill="#000000" points="958,2485.8104,962,2476.8104,958,2480.8104,954,2476.8104,958,2485.8104" style="stroke:#000000;stroke-width:1;"/><text fill="#000000" font-family="Verdana" font-size="13" lengthAdjust="spacing" textLength="65.7554" x="959" y="2459.369">integrates</text></g><!--SRC=[ZLPTRnj557tthrZwNjE4Lj2eYWH1GZn0KOFWWI2qiQV9YlLkPAzJ8eHart7Ys86u49ScTMCdKOW3wQRv_h1DVWoUsVKJVu7PdG_Fx6vGtppd7fyvz-wzT_STQngaW3AZgveHYrcQfGFb8pDh945I6JCD2_nWPPI7io0zgu4d4yOdm01frGB94MNupl2zstVktnuUKeRkZzpzOEJU-nF611P9WuIb6bDOwDPODcEPAP1cKhSKDQDmyCUOedppO7AK0G_UdHoTCE3M1koSE-lpqDv2fJCtlmwh9TIy_BUpZ5OFqCe9j9THxGGJq5d9FMgxkI8iDzn2DnwFVolgVpSKgH-Y3RyTxRstezsD_IILu6EWQxXySr89ECXAm00YsY_-tC_bnSmTUzEfBhYjf_2vZJCd17IQTreL-EkoKycXOeLPOLeuVzdAfyOiC2mpu6M0CZCSeG_awY_u-aNOZREw1N_BaoWsqMzMdTeQCy4rGYu-DotjiPPGBSqq92DIW7aHGLgStBhJs8cmSznsJWz959V8MUlW4eMA8-hn1X71Bq4A3uC5nCjGQnEzkWvVAKQzXYtkGliINucQ7TXPYRgIgGTgyd0oWoTCdTHqpPAVZXnXLVdGKFKvIqjana4cmoi3Imjeeuhg1NVla9jbBe9_eKgIlgosSk3kvj35Fihjtg0PzUTWPkbaOFm9mZBnJ-H2qjrYbU6RlBlzYdRzoul-xtLlwdTUmygQ-ySAN5h4jNOtbvsdLzoH9yUVgt_wsan__rWtduYNmFETNhUEv-Uc6OD_Ry2bKzY-WgKtthufLRsRQoSmLt5M6_1PjvyxHFM6T2sxA521BzIv51u5gGOCOrMWPs8HRxbUEsBU27x3q5C5dZezVmQiQJCfwgBdbxWtm-fastfP2ZIyPvok7RY3Q0QpJ6i9pPYIiwGOpvAS7sLrEbtGNeU5I_8eHKVkKTCzsfUsZC_y1- -yyWkqj8tJxtMt-ulFyFvtVbda1WSNXEoPoMmYy10eDh3dduarSkrDIwztlOdo1zW5sNw3-ts5qCh3UCeCxRi1AZWW2F7Gkoxqo-SHZwewxxHi4aKdRLYfaH8ADeWCxuQlp6nYci_PMH7M5k3ydwZGXAMB27qMyb_2_iisekUfPY3LHy3xK93of52Wp0IbVO3ju6BlrRnk2FSzUyrxTWIcD_puHsaXK7wY7F0r3dGzi8Wen7oH8otHyJQqpoAMWu_3nXMgxxl7Yswh71f48XDgWV5fSsO6z-QOcfQxK0fmBmB877MSfJstNVx_-d0QCULrg5-nVhFelEI3BCeJf_oRB1uV7NoTZ2WQDZhbVV1bOXprA8EF1eapW3sIz4ANU5B4eyglEOahXtoo_mQHIJxa1TbgbS8Cz0bqAya42X82sGi10W4fWGvka49XZqIxNc9Gp0lJvfF25FF3ObT8fFy0]--></g></svg>