<svg xmlns="http://www.w3.org/2000/svg" xmlns:xlink="http://www.w3.org/1999/xlink" contentStyleType="text/css" height="493px" preserveAspectRatio="none" style="width:674px;height:493px;background:#FFFFFF;" version="1.1" viewBox="0 0 674 493" width="674px" zoomAndPan="magnify"><title>Customer Bounded Context - Aggregate Details</title><defs/><g><text fill="#000000" font-family="Verdana" font-size="22" font-weight="bold" lengthAdjust="spacing" textLength="585.1807" x="40.0297" y="37.1182">Customer Bounded Context - Aggregate Details</text><text fill="#000000" font-family="Verdana" font-size="22" font-weight="bold" lengthAdjust="spacing" textLength="410.0615" x="127.5892" y="63.8555">Generated: 2025-09-24 22:16:44</text><text fill="#000000" font-family="Verdana" font-size="22" font-weight="bold" lengthAdjust="spacing" textLength="7.5195" x="328.8602" y="90.5928">&#160;</text><text fill="#000000" font-family="Verdana" font-size="22" font-weight="bold" lengthAdjust="spacing" textLength="7.5195" x="328.8602" y="117.3301">&#160;</text><!--class Customer--><g id="elem_Customer"><rect codeLine="38" fill="#FFFFFF" height="346.8477" id="Customer" rx="2.5" ry="2.5" style="stroke:#000000;stroke-width:1;" width="352.4707" x="12" y="139.9492"/><ellipse cx="133.9707" cy="160.7485" fill="#FFFFFF" rx="9" ry="9" style="stroke:#000000;stroke-width:1;"/><path d="M136.4438,166.8916 Q135.8628,167.1904 135.2236,167.3398 Q134.5845,167.4893 133.8789,167.4893 Q131.3721,167.4893 130.0522,165.8374 Q128.7324,164.1855 128.7324,161.0645 Q128.7324,157.9351 130.0522,156.2832 Q131.3721,154.6313 133.8789,154.6313 Q134.5845,154.6313 135.2319,154.7808 Q135.8794,154.9302 136.4438,155.229 L136.4438,157.9517 Q135.813,157.3706 135.2195,157.1008 Q134.626,156.8311 133.9951,156.8311 Q132.6504,156.8311 131.9656,157.8977 Q131.2808,158.9644 131.2808,161.0645 Q131.2808,163.1563 131.9656,164.2229 Q132.6504,165.2896 133.9951,165.2896 Q134.626,165.2896 135.2195,165.0198 Q135.813,164.75 136.4438,164.1689 Z " fill="#000000"/><text fill="#000000" font-family="Verdana" font-size="12" font-style="italic" lengthAdjust="spacing" textLength="105.0293" x="149.4707" y="157.0137">&#171;AggregateRoot&#187;</text><text fill="#000000" font-family="Verdana" font-size="14" font-weight="bold" lengthAdjust="spacing" textLength="75.4688" x="164.251" y="173.6084">Customer</text><line style="stroke:#000000;stroke-width:1;" x1="13" x2="363.4707" y1="181.5479" y2="181.5479"/><text fill="#000000" font-family="Verdana" font-size="14" lengthAdjust="spacing" textLength="112.6904" x="18" y="199.623">-id: CustomerId</text><text fill="#000000" font-family="Verdana" font-size="14" lengthAdjust="spacing" textLength="165.5732" x="18" y="216.6377">-name: CustomerName</text><text fill="#000000" font-family="Verdana" font-size="14" lengthAdjust="spacing" textLength="94.2471" x="18" y="233.6523">-email: Email</text><text fill="#000000" font-family="Verdana" font-size="14" lengthAdjust="spacing" textLength="103.9131" x="18" y="250.667">-phone: Phone</text><text fill="#000000" font-family="Verdana" font-size="14" lengthAdjust="spacing" textLength="128.3105" x="18" y="267.6816">-address: Address</text><text fill="#000000" font-family="Verdana" font-size="14" lengthAdjust="spacing" textLength="140.3076" x="18" y="284.6963">-... (10 more fields)</text><line style="stroke:#000000;stroke-width:1;" x1="13" x2="363.4707" y1="291.6357" y2="291.6357"/><text fill="#000000" font-family="Verdana" font-size="14" lengthAdjust="spacing" textLength="155.1348" x="18" y="309.7109">+getId(): CustomerId</text><text fill="#000000" font-family="Verdana" font-size="14" lengthAdjust="spacing" textLength="207.5801" x="18" y="326.7256">+getName(): CustomerName</text><text fill="#000000" font-family="Verdana" font-size="14" lengthAdjust="spacing" textLength="135.1533" x="18" y="343.7402">+getEmail(): Email</text><text fill="#000000" font-family="Verdana" font-size="14" lengthAdjust="spacing" textLength="169.292" x="18" y="360.7549">+... (64 more methods)</text><text fill="#000000" font-family="Verdana" font-size="14" lengthAdjust="spacing" textLength="157.2266" x="18" y="377.7695">+updateProfile(): void</text><text fill="#000000" font-family="Verdana" font-size="14" lengthAdjust="spacing" textLength="149.2764" x="18" y="394.7842">+collectEvent(): void</text><text fill="#000000" font-family="Verdana" font-size="14" lengthAdjust="spacing" textLength="340.4707" x="18" y="411.7988">+getUncommittedEvents(): List&lt;DomainEvent&gt;</text><text fill="#000000" font-family="Verdana" font-size="14" lengthAdjust="spacing" textLength="160.3916" x="18" y="428.8135">+... (2 more methods)</text><text fill="#000000" font-family="Verdana" font-size="14" lengthAdjust="spacing" textLength="157.2266" x="18" y="445.8281">+updateProfile(): void</text><text fill="#000000" font-family="Verdana" font-size="14" lengthAdjust="spacing" textLength="118.3574" x="18" y="462.8428">+getId(): Object</text><text fill="#000000" font-family="Verdana" font-size="14" lengthAdjust="spacing" textLength="157.2266" x="18" y="479.8574">+updateProfile(): void</text></g><g id="elem_GMN3"><path d="M399.24,292.5792 L399.24,309.3792 L364.78,313.3792 L399.24,317.3792 L399.24,334.1779 A0,0 0 0 0 399.24,334.1779 L667.24,334.1779 A0,0 0 0 0 667.24,334.1779 L667.24,302.5792 L657.24,292.5792 L399.24,292.5792 A0,0 0 0 0 399.24,292.5792 " fill="#FFFFFF" style="stroke:#000000;stroke-width:1;"/><path d="M657.24,292.5792 L657.24,302.5792 L667.24,302.5792 L657.24,292.5792 " fill="#FFFFFF" style="stroke:#000000;stroke-width:1;"/><text fill="#000000" font-family="Verdana" font-size="13" lengthAdjust="spacing" textLength="247" x="405.24" y="310.649">&#22686;&#24375;&#30340;&#23458;&#25142;&#32858;&#21512;&#26681;&#65292;&#25903;&#25588;&#23436;&#25972;&#30340;&#28040;&#36027;&#32773;&#21151;&#33021;</text><text fill="#000000" font-family="Verdana" font-size="13" lengthAdjust="spacing" textLength="80.3677" x="405.24" y="326.4484">Version: 2.0</text></g><!--SRC=[fL5DQnH14BtthoXF9YopR8OruB0ih4cK1T6GeAUzp4xNphJsT0_JjS4F14M5HG9wq4iEAla14IH4nFXpPjoRVy7gYTc4U15owUvwLVLUrUihb66EKEXO6U4UAbF4PPn3ecFd1aIb6ay9Xuars-e9GkTYoKrhQ9iUQuInrL88KiJljQaZcsC9D-pKI9ImncNuY220GPgMcCQ4i8uKA-r6vXOQB1cH4OITy5hGkHw4NGZ3Q6KrwdP7PcI4QCJEU7kz1S-MjTJlmrC142YcEAqPIe-OECSpx0v77iMSbIFOy9UFYymQBjlqbuzZAKjqBeB1oSDZxNORbbOwaDiIOQ9GIxViyO2FLeeqb4lB5zGzx2NF9_wEu5EDlC-Tpj5gD5Qx9nevKcQzo3CXZ6N3IfLc17QouEAMQlzZTVpjrzwhwc2_dXtDN-nLxsRrv- -_ZtVhzr_gjuVLmMxzuP0BwgFP_EkF-VFNrPjFyvS_kVS-bavPmwwtEmAD1A_odrQtfeLaPBEq4wMR1NUiQdPEhDQOqCOE6ZgFyyBtJ6BpN15_TPDsFdzREUgjMxR0D61_OKJuhm-Nd6tnJNV73tZ6op9okxWAMwXZOXzTfWed_W00]--></g></svg>