<svg xmlns="http://www.w3.org/2000/svg" xmlns:xlink="http://www.w3.org/1999/xlink" contentStyleType="text/css" data-diagram-type="CLASS" height="662px" preserveAspectRatio="none" style="width:643px;height:662px;background:#FFFFFF;" version="1.1" viewBox="0 0 643 662" width="643px" zoomAndPan="magnify"><title>Notification Bounded Context - Aggregate Details
Generated: 2025-09-21 19:48:57

</title><defs/><g><g class="title" data-source-line="5"><text fill="#000000" font-family="Verdana" font-size="22" font-weight="bold" lengthAdjust="spacing" textLength="610.6289" x="15" y="37.1182">Notification Bounded Context - Aggregate Details</text><text fill="#000000" font-family="Verdana" font-size="22" font-weight="bold" lengthAdjust="spacing" textLength="410.0615" x="115.2837" y="63.8555">Generated: 2025-09-21 19:48:57</text><text fill="#000000" font-family="Verdana" font-size="22" font-weight="bold" lengthAdjust="spacing" textLength="7.5195" x="316.5547" y="90.5928">&#160;</text><text fill="#000000" font-family="Verdana" font-size="22" font-weight="bold" lengthAdjust="spacing" textLength="7.5195" x="316.5547" y="117.3301">&#160;</text></g><!--class Notification--><g class="entity" data-entity="Notification" data-source-line="7" data-uid="ent0002" id="entity_Notification"><rect fill="#FFFFFF" height="227.7451" rx="2.5" ry="2.5" style="stroke:#000000;stroke-width:1;" width="196.4199" x="70.9945" y="427.6892"/><ellipse cx="114.9398" cy="448.4885" fill="#FFFFFF" rx="9" ry="9" style="stroke:#000000;stroke-width:1;"/><path d="M117.4129,454.6316 Q116.8319,454.9304 116.1927,455.0798 Q115.5535,455.2293 114.848,455.2293 Q112.3411,455.2293 111.0213,453.5774 Q109.7015,451.9255 109.7015,448.8045 Q109.7015,445.6751 111.0213,444.0232 Q112.3411,442.3713 114.848,442.3713 Q115.5535,442.3713 116.201,442.5208 Q116.8485,442.6702 117.4129,442.969 L117.4129,445.6917 Q116.7821,445.1106 116.1885,444.8408 Q115.595,444.5711 114.9642,444.5711 Q113.6195,444.5711 112.9346,445.6377 Q112.2498,446.7044 112.2498,448.8045 Q112.2498,450.8963 112.9346,451.9629 Q113.6195,453.0296 114.9642,453.0296 Q115.595,453.0296 116.1885,452.7598 Q116.7821,452.49 117.4129,451.9089 Z " fill="#000000"/><text fill="#000000" font-family="Verdana" font-size="12" font-style="italic" lengthAdjust="spacing" textLength="105.0293" x="130.4398" y="444.7537">&#171;AggregateRoot&#187;</text><text fill="#000000" font-family="Verdana" font-size="14" font-weight="bold" lengthAdjust="spacing" textLength="91.6631" x="137.1229" y="461.3484">Notification</text><line style="stroke:#000000;stroke-width:1;" x1="71.9945" x2="266.4144" y1="469.2879" y2="469.2879"/><text fill="#000000" font-family="Verdana" font-size="14" lengthAdjust="spacing" textLength="124.3252" x="76.9945" y="487.363">-id: NotificationId</text><text fill="#000000" font-family="Verdana" font-size="14" lengthAdjust="spacing" textLength="140.1299" x="76.9945" y="504.3777">-customerId: String</text><text fill="#000000" font-family="Verdana" font-size="14" lengthAdjust="spacing" textLength="161.9844" x="76.9945" y="521.3923">-type: NotificationType</text><text fill="#000000" font-family="Verdana" font-size="14" lengthAdjust="spacing" textLength="110.9678" x="76.9945" y="538.407">-subject: String</text><text fill="#000000" font-family="Verdana" font-size="14" lengthAdjust="spacing" textLength="113.0049" x="76.9945" y="555.4216">-content: String</text><text fill="#000000" font-family="Verdana" font-size="14" lengthAdjust="spacing" textLength="140.3076" x="76.9945" y="572.4363">-... (10 more fields)</text><line style="stroke:#000000;stroke-width:1;" x1="71.9945" x2="266.4144" y1="579.3757" y2="579.3757"/><text fill="#000000" font-family="Verdana" font-size="14" lengthAdjust="spacing" textLength="98.0137" x="76.9945" y="597.4509">+send(): void</text><text fill="#000000" font-family="Verdana" font-size="14" lengthAdjust="spacing" textLength="184.4199" x="76.9945" y="614.4656">+markAsDelivered(): void</text><text fill="#000000" font-family="Verdana" font-size="14" lengthAdjust="spacing" textLength="153.1523" x="76.9945" y="631.4802">+markAsRead(): void</text><text fill="#000000" font-family="Verdana" font-size="14" lengthAdjust="spacing" textLength="169.292" x="76.9945" y="648.4949">+... (18 more methods)</text></g><g class="entity" data-entity="GMN3" data-source-line="22" data-uid="ent0004" id="entity_GMN3"><path d="M302.7045,520.7692 L302.7045,537.5692 L267.8445,541.5692 L302.7045,545.5692 L302.7045,562.3679 A0,0 0 0 0 302.7045,562.3679 L557.7045,562.3679 A0,0 0 0 0 557.7045,562.3679 L557.7045,530.7692 L547.7045,520.7692 L302.7045,520.7692 A0,0 0 0 0 302.7045,520.7692" fill="#FFFFFF" style="stroke:#000000;stroke-width:1;"/><path d="M547.7045,520.7692 L547.7045,530.7692 L557.7045,530.7692 L547.7045,520.7692" fill="#FFFFFF" style="stroke:#000000;stroke-width:1;"/><text fill="#000000" font-family="Verdana" font-size="13" lengthAdjust="spacing" textLength="234" x="308.7045" y="538.839">&#36890;&#30693;&#32858;&#21512;&#26681;&#65292;&#31649;&#29702;&#31995;&#32113;&#36890;&#30693;&#30340;&#30332;&#36865;&#21644;&#29376;&#24907;</text><text fill="#000000" font-family="Verdana" font-size="13" lengthAdjust="spacing" textLength="80.3677" x="308.7045" y="554.6384">Version: 1.0</text></g><!--class NotificationTemplate--><g class="entity" data-entity="NotificationTemplate" data-source-line="26" data-uid="ent0006" id="entity_NotificationTemplate"><rect fill="#FFFFFF" height="227.7451" rx="2.5" ry="2.5" style="stroke:#000000;stroke-width:1;" width="220.5508" x="58.9245" y="139.9492"/><ellipse cx="84.3597" cy="160.7485" fill="#FFFFFF" rx="9" ry="9" style="stroke:#000000;stroke-width:1;"/><path d="M86.8328,166.8916 Q86.2517,167.1904 85.6126,167.3398 Q84.9734,167.4893 84.2679,167.4893 Q81.761,167.4893 80.4412,165.8374 Q79.1214,164.1855 79.1214,161.0645 Q79.1214,157.9351 80.4412,156.2832 Q81.761,154.6313 84.2679,154.6313 Q84.9734,154.6313 85.6209,154.7808 Q86.2683,154.9302 86.8328,155.229 L86.8328,157.9517 Q86.2019,157.3706 85.6084,157.1008 Q85.0149,156.8311 84.3841,156.8311 Q83.0393,156.8311 82.3545,157.8977 Q81.6697,158.9644 81.6697,161.0645 Q81.6697,163.1563 82.3545,164.2229 Q83.0393,165.2896 84.3841,165.2896 Q85.0149,165.2896 85.6084,165.0198 Q86.2019,164.75 86.8328,164.1689 Z " fill="#000000"/><text fill="#000000" font-family="Verdana" font-size="12" font-style="italic" lengthAdjust="spacing" textLength="105.0293" x="129.0669" y="157.0137">&#171;AggregateRoot&#187;</text><text fill="#000000" font-family="Verdana" font-size="14" font-weight="bold" lengthAdjust="spacing" textLength="164.917" x="99.123" y="173.6084">NotificationTemplate</text><line style="stroke:#000000;stroke-width:1;" x1="59.9245" x2="278.4752" y1="181.5479" y2="181.5479"/><text fill="#000000" font-family="Verdana" font-size="14" lengthAdjust="spacing" textLength="137.04" x="64.9245" y="199.623">-templateId: String</text><text fill="#000000" font-family="Verdana" font-size="14" lengthAdjust="spacing" textLength="161.9844" x="64.9245" y="216.6377">-type: NotificationType</text><text fill="#000000" font-family="Verdana" font-size="14" lengthAdjust="spacing" textLength="208.5508" x="64.9245" y="233.6523">-channel: NotificationChannel</text><text fill="#000000" font-family="Verdana" font-size="14" lengthAdjust="spacing" textLength="99.3467" x="64.9245" y="250.667">-name: String</text><text fill="#000000" font-family="Verdana" font-size="14" lengthAdjust="spacing" textLength="110.9678" x="64.9245" y="267.6816">-subject: String</text><text fill="#000000" font-family="Verdana" font-size="14" lengthAdjust="spacing" textLength="131.4072" x="64.9245" y="284.6963">-... (7 more fields)</text><line style="stroke:#000000;stroke-width:1;" x1="59.9245" x2="278.4752" y1="291.6357" y2="291.6357"/><text fill="#000000" font-family="Verdana" font-size="14" lengthAdjust="spacing" textLength="168.7314" x="64.9245" y="309.7109">+updateContent(): void</text><text fill="#000000" font-family="Verdana" font-size="14" lengthAdjust="spacing" textLength="177.7686" x="64.9245" y="326.7256">+updateVariables(): void</text><text fill="#000000" font-family="Verdana" font-size="14" lengthAdjust="spacing" textLength="120.4082" x="64.9245" y="343.7402">+activate(): void</text><text fill="#000000" font-family="Verdana" font-size="14" lengthAdjust="spacing" textLength="169.292" x="64.9245" y="360.7549">+... (13 more methods)</text></g><g class="entity" data-entity="GMN7" data-source-line="41" data-uid="ent0008" id="entity_GMN7"><path d="M314.7045,233.0192 L314.7045,249.8192 L279.8045,253.8192 L314.7045,257.8192 L314.7045,274.6179 A0,0 0 0 0 314.7045,274.6179 L595.7045,274.6179 A0,0 0 0 0 595.7045,274.6179 L595.7045,243.0192 L585.7045,233.0192 L314.7045,233.0192 A0,0 0 0 0 314.7045,233.0192" fill="#FFFFFF" style="stroke:#000000;stroke-width:1;"/><path d="M585.7045,233.0192 L585.7045,243.0192 L595.7045,243.0192 L585.7045,233.0192" fill="#FFFFFF" style="stroke:#000000;stroke-width:1;"/><text fill="#000000" font-family="Verdana" font-size="13" lengthAdjust="spacing" textLength="260" x="320.7045" y="251.089">&#36890;&#30693;&#27169;&#26495;&#32858;&#21512;&#26681;&#65292;&#31649;&#29702;&#36890;&#30693;&#27169;&#26495;&#30340;&#20839;&#23481;&#21644;&#26684;&#24335;</text><text fill="#000000" font-family="Verdana" font-size="13" lengthAdjust="spacing" textLength="80.3677" x="320.7045" y="266.8884">Version: 1.0</text></g><!--link NotificationTemplate to Notification--><g class="link" data-entity-1="NotificationTemplate" data-entity-2="Notification" data-source-line="47" data-uid="lnk10" id="link_NotificationTemplate_Notification"><path codeLine="47" d="M169.2045,368.1692 C169.2045,387.6392 169.2045,401.8892 169.2045,421.3592" fill="none" id="NotificationTemplate-to-Notification" style="stroke:#000000;stroke-width:1;"/><polygon fill="#000000" points="169.2045,427.3592,173.2045,418.3592,169.2045,422.3592,165.2045,418.3592,169.2045,427.3592" style="stroke:#000000;stroke-width:1;"/></g><!--SRC=[bP91QnD15CVlyocU9rlAXYHQsYub45EKN3mafQTS9hilcx6xCs7c9LX5IC4MeGMBDmEbxK7qL13nK0puQJPhJtu5PxDQTcqAUbcM___D_xrvlxb7VOmG1Y4NafbT8GTSymYya1jJ9zAYEoHiUagsnGk4yjybZvMaDks525qL-eoH8Fl_L97e2O-JK18UgQ7qqOU6BSNd10xKWq1Zm0bX2ucBq7Ja4vIehUAxK2rNLvtoXbEjG6N3VRZkhgvrP4SoDczOpDxSlCbgAKMr6hna08wmCVcwff-gtj2GYb0thTksDvD1gjBU08lLsrP97JFiFaEFyiLUUWTPa4gb4YnLoX0fZT0J6FfcETKT-ranAFsbPHT6IgGZh4HSxzRD5ePYX1eNM2ta1JLBNy_I8wI-IkDVCIQLNPyMGPz0zGhZssFNuqbozk77_YG-UJCxl_evFKukBvAJm-JBj-JhvynD9g-JzzFhyNxyxZWv6iyEZkp17TJ6HhXGAPMPdHtIDeislusHVJ9sX3i8q6__NtVjzRcK61RDHYQclkGHvfCMi9clQcqnX-70jyCqCdhv_MR63jU2TqCqUOjx94RMl8tZmV_W-BEf6oopJnUpq- -tuUHT2oS- -1XVNbaui_DfF7rxDnns7reOpdkPlXWOjf2JuzIAh-GN]--></g></svg>