<svg xmlns="http://www.w3.org/2000/svg" xmlns:xlink="http://www.w3.org/1999/xlink" contentStyleType="text/css" data-diagram-type="CLASS" height="374px" preserveAspectRatio="none" style="width:997px;height:374px;background:#FFFFFF;" version="1.1" viewBox="0 0 997 374" width="997px" zoomAndPan="magnify"><title>Observability Bounded Context - Aggregate Details
Generated: 2025-09-21 19:48:57

</title><defs/><g><g class="title" data-source-line="5"><text fill="#000000" font-family="Verdana" font-size="22" font-weight="bold" lengthAdjust="spacing" textLength="630.5449" x="179.0075" y="37.1182">Observability Bounded Context - Aggregate Details</text><text fill="#000000" font-family="Verdana" font-size="22" font-weight="bold" lengthAdjust="spacing" textLength="410.0615" x="289.2492" y="63.8555">Generated: 2025-09-21 19:48:57</text><text fill="#000000" font-family="Verdana" font-size="22" font-weight="bold" lengthAdjust="spacing" textLength="7.5195" x="490.5202" y="90.5928">&#160;</text><text fill="#000000" font-family="Verdana" font-size="22" font-weight="bold" lengthAdjust="spacing" textLength="7.5195" x="490.5202" y="117.3301">&#160;</text></g><!--class AnalyticsSession--><g class="entity" data-entity="AnalyticsSession" data-source-line="7" data-uid="ent0002" id="entity_AnalyticsSession"><rect fill="#FFFFFF" height="227.7451" rx="2.5" ry="2.5" style="stroke:#000000;stroke-width:1;" width="305.1113" x="12" y="139.9492"/><ellipse cx="94.7944" cy="160.7485" fill="#FFFFFF" rx="9" ry="9" style="stroke:#000000;stroke-width:1;"/><path d="M97.2676,166.8916 Q96.6865,167.1904 96.0474,167.3398 Q95.4082,167.4893 94.7026,167.4893 Q92.1958,167.4893 90.876,165.8374 Q89.5562,164.1855 89.5562,161.0645 Q89.5562,157.9351 90.876,156.2832 Q92.1958,154.6313 94.7026,154.6313 Q95.4082,154.6313 96.0557,154.7808 Q96.7031,154.9302 97.2676,155.229 L97.2676,157.9517 Q96.6367,157.3706 96.0432,157.1008 Q95.4497,156.8311 94.8188,156.8311 Q93.4741,156.8311 92.7893,157.8977 Q92.1045,158.9644 92.1045,161.0645 Q92.1045,163.1563 92.7893,164.2229 Q93.4741,165.2896 94.8188,165.2896 Q95.4497,165.2896 96.0432,165.0198 Q96.6367,164.75 97.2676,164.1689 Z " fill="#000000"/><text fill="#000000" font-family="Verdana" font-size="12" font-style="italic" lengthAdjust="spacing" textLength="105.0293" x="125.791" y="157.0137">&#171;AggregateRoot&#187;</text><text fill="#000000" font-family="Verdana" font-size="14" font-weight="bold" lengthAdjust="spacing" textLength="132.0225" x="112.2944" y="173.6084">AnalyticsSession</text><line style="stroke:#000000;stroke-width:1;" x1="13" x2="316.1113" y1="181.5479" y2="181.5479"/><text fill="#000000" font-family="Verdana" font-size="14" lengthAdjust="spacing" textLength="151.9834" x="18" y="199.623">-sessionId: SessionId</text><text fill="#000000" font-family="Verdana" font-size="14" lengthAdjust="spacing" textLength="190.8115" x="18" y="216.6377">-userId: Optional&lt;UserId&gt;</text><text fill="#000000" font-family="Verdana" font-size="14" lengthAdjust="spacing" textLength="110.2705" x="18" y="233.6523">-traceId: String</text><text fill="#000000" font-family="Verdana" font-size="14" lengthAdjust="spacing" textLength="188.084" x="18" y="250.667">-startTime: LocalDateTime</text><text fill="#000000" font-family="Verdana" font-size="14" lengthAdjust="spacing" textLength="213.2471" x="18" y="267.6816">-lastActivityAt: LocalDateTime</text><text fill="#000000" font-family="Verdana" font-size="14" lengthAdjust="spacing" textLength="131.4072" x="18" y="284.6963">-... (7 more fields)</text><line style="stroke:#000000;stroke-width:1;" x1="13" x2="316.1113" y1="291.6357" y2="291.6357"/><text fill="#000000" font-family="Verdana" font-size="14" lengthAdjust="spacing" textLength="195.9316" x="18" y="309.7109">+create(): AnalyticsSession</text><text fill="#000000" font-family="Verdana" font-size="14" lengthAdjust="spacing" textLength="293.1113" x="18" y="326.7256">+createWithMetadata(): AnalyticsSession</text><text fill="#000000" font-family="Verdana" font-size="14" lengthAdjust="spacing" textLength="176.7227" x="18" y="343.7402">+recordPageView(): void</text><text fill="#000000" font-family="Verdana" font-size="14" lengthAdjust="spacing" textLength="169.292" x="18" y="360.7549">+... (34 more methods)</text></g><g class="entity" data-entity="GMN3" data-source-line="22" data-uid="ent0004" id="entity_GMN3"><path d="M352.56,233.0292 L352.56,249.8292 L317.53,253.8292 L352.56,257.8292 L352.56,274.6279 A0,0 0 0 0 352.56,274.6279 L464.56,274.6279 A0,0 0 0 0 464.56,274.6279 L464.56,243.0292 L454.56,233.0292 L352.56,233.0292 A0,0 0 0 0 352.56,233.0292" fill="#FFFFFF" style="stroke:#000000;stroke-width:1;"/><path d="M454.56,233.0292 L454.56,243.0292 L464.56,243.0292 L454.56,233.0292" fill="#FFFFFF" style="stroke:#000000;stroke-width:1;"/><text fill="#000000" font-family="Verdana" font-size="13" lengthAdjust="spacing" textLength="91" x="358.56" y="251.099">&#20998;&#26512;&#26371;&#35441;&#32858;&#21512;&#26681;</text><text fill="#000000" font-family="Verdana" font-size="13" lengthAdjust="spacing" textLength="80.3677" x="358.56" y="266.8984">Version: 1.0</text></g><!--class ObservabilitySession--><g class="entity" data-entity="ObservabilitySession" data-source-line="26" data-uid="ent0006" id="entity_ObservabilitySession"><rect fill="#FFFFFF" height="227.7451" rx="2.5" ry="2.5" style="stroke:#000000;stroke-width:1;" width="318.585" x="499.26" y="139.9492"/><ellipse cx="572.5217" cy="160.7485" fill="#FFFFFF" rx="9" ry="9" style="stroke:#000000;stroke-width:1;"/><path d="M574.9949,166.8916 Q574.4138,167.1904 573.7746,167.3398 Q573.1355,167.4893 572.4299,167.4893 Q569.9231,167.4893 568.6033,165.8374 Q567.2834,164.1855 567.2834,161.0645 Q567.2834,157.9351 568.6033,156.2832 Q569.9231,154.6313 572.4299,154.6313 Q573.1355,154.6313 573.7829,154.7808 Q574.4304,154.9302 574.9949,155.229 L574.9949,157.9517 Q574.364,157.3706 573.7705,157.1008 Q573.177,156.8311 572.5461,156.8311 Q571.2014,156.8311 570.5166,157.8977 Q569.8318,158.9644 569.8318,161.0645 Q569.8318,163.1563 570.5166,164.2229 Q571.2014,165.2896 572.5461,165.2896 Q573.177,165.2896 573.7705,165.0198 Q574.364,164.75 574.9949,164.1689 Z " fill="#000000"/><text fill="#000000" font-family="Verdana" font-size="12" font-style="italic" lengthAdjust="spacing" textLength="105.0293" x="619.7878" y="157.0137">&#171;AggregateRoot&#187;</text><text fill="#000000" font-family="Verdana" font-size="14" font-weight="bold" lengthAdjust="spacing" textLength="164.5615" x="590.0217" y="173.6084">ObservabilitySession</text><line style="stroke:#000000;stroke-width:1;" x1="500.26" x2="816.845" y1="181.5479" y2="181.5479"/><text fill="#000000" font-family="Verdana" font-size="14" lengthAdjust="spacing" textLength="151.9834" x="505.26" y="199.623">-sessionId: SessionId</text><text fill="#000000" font-family="Verdana" font-size="14" lengthAdjust="spacing" textLength="190.8115" x="505.26" y="216.6377">-userId: Optional&lt;UserId&gt;</text><text fill="#000000" font-family="Verdana" font-size="14" lengthAdjust="spacing" textLength="188.084" x="505.26" y="233.6523">-startTime: LocalDateTime</text><text fill="#000000" font-family="Verdana" font-size="14" lengthAdjust="spacing" textLength="198.1602" x="505.26" y="250.667">-lastActivity: LocalDateTime</text><text fill="#000000" font-family="Verdana" font-size="14" lengthAdjust="spacing" textLength="306.585" x="505.26" y="267.6816">-behaviorEvents: List&lt;UserBehaviorEvent&gt;</text><text fill="#000000" font-family="Verdana" font-size="14" lengthAdjust="spacing" textLength="140.3076" x="505.26" y="284.6963">-... (18 more fields)</text><line style="stroke:#000000;stroke-width:1;" x1="500.26" x2="816.845" y1="291.6357" y2="291.6357"/><text fill="#000000" font-family="Verdana" font-size="14" lengthAdjust="spacing" textLength="203.2598" x="505.26" y="309.7109">+recordUserBehavior(): void</text><text fill="#000000" font-family="Verdana" font-size="14" lengthAdjust="spacing" textLength="241.0352" x="505.26" y="326.7256">+recordPerformanceMetric(): void</text><text fill="#000000" font-family="Verdana" font-size="14" lengthAdjust="spacing" textLength="144.416" x="505.26" y="343.7402">+endSession(): void</text><text fill="#000000" font-family="Verdana" font-size="14" lengthAdjust="spacing" textLength="169.292" x="505.26" y="360.7549">+... (21 more methods)</text></g><g class="entity" data-entity="GMN7" data-source-line="41" data-uid="ent0008" id="entity_GMN7"><path d="M852.56,233.0292 L852.56,249.8292 L818.31,253.8292 L852.56,257.8292 L852.56,274.6279 A0,0 0 0 0 852.56,274.6279 L990.56,274.6279 A0,0 0 0 0 990.56,274.6279 L990.56,243.0292 L980.56,233.0292 L852.56,233.0292 A0,0 0 0 0 852.56,233.0292" fill="#FFFFFF" style="stroke:#000000;stroke-width:1;"/><path d="M980.56,233.0292 L980.56,243.0292 L990.56,243.0292 L980.56,233.0292" fill="#FFFFFF" style="stroke:#000000;stroke-width:1;"/><text fill="#000000" font-family="Verdana" font-size="13" lengthAdjust="spacing" textLength="117" x="858.56" y="251.099">&#21487;&#35264;&#28204;&#24615;&#26371;&#35441;&#32858;&#21512;&#26681;</text><text fill="#000000" font-family="Verdana" font-size="13" lengthAdjust="spacing" textLength="80.3677" x="858.56" y="266.8984">Version: 1.0</text></g><!--SRC=[jL91QnD16BtFh_WysL8s9B6bxH82gLKfA9L6woMNoUwNtGzdPyBCbzKeGaMGtknPHBmLGH1l-eCQyZESsRGrsXLxyRBCllVsVVEzjpSunm9Xh2HfuPwI7aih2qYKTAx7R6auOTnBZExJ2uJcdvAxHdEVfmfXQ5Gg11Fxy_xGeItba1Jn57RCHAUOmcslnUSC4VIop68c6M4NMP9o0tqFDLgFf36qc-sDgBaTjLlGsexNj-ADpO4UQ26gYT3JKasP4jT7vyXew7Gk_GwCuMuNNWg0o2teFU_OlpW6VEBl5i3zCNjCgixZ2kW6ZgrCiFh2RwwpoeQbvKTKO0ptJIBLhXyJNWFdxyEzXAdqQ_QuHj1eD61b4mfZ4KQ4AdMh0OxyOosnw9Khg_6LZNwnJuZp1pwYLBBycz9YOcpwK6PuIFWig4f3OTErQlgjzSNu0ZatOVuh8RJnqLlASWOpgZCzEtux-tWo-_1c_ldR_FNxivFZsQSV7Zz46nGnj1fDWJg5u7HHp6-j_uTohjj43Jt4N9Pax9qIDJil8CULzSuoqRsihBLLtzaYw-KFb_C-RmBjoDX2wWHzTPQIPOdFx7pVAqNvt_qVHTK57CfwztL-UZJx_cLsT7hjoiHDE40bGyekfx4JFm40]--></g></svg>