<svg xmlns="http://www.w3.org/2000/svg" xmlns:xlink="http://www.w3.org/1999/xlink" contentStyleType="text/css" height="662px" preserveAspectRatio="none" style="width:623px;height:662px;background:#FFFFFF;" version="1.1" viewBox="0 0 623 662" width="623px" zoomAndPan="magnify"><title>Order Bounded Context - Aggregate Details</title><defs/><g><text fill="#000000" font-family="Verdana" font-size="22" font-weight="bold" lengthAdjust="spacing" textLength="537.1523" x="38.8938" y="37.1182">Order Bounded Context - Aggregate Details</text><text fill="#000000" font-family="Verdana" font-size="22" font-weight="bold" lengthAdjust="spacing" textLength="410.0615" x="102.4392" y="63.8555">Generated: 2025-09-24 22:16:44</text><text fill="#000000" font-family="Verdana" font-size="22" font-weight="bold" lengthAdjust="spacing" textLength="7.5195" x="303.7102" y="90.5928">&#160;</text><text fill="#000000" font-family="Verdana" font-size="22" font-weight="bold" lengthAdjust="spacing" textLength="7.5195" x="303.7102" y="117.3301">&#160;</text><!--class Order--><g id="elem_Order"><rect codeLine="7" fill="#FFFFFF" height="227.7451" id="Order" rx="2.5" ry="2.5" style="stroke:#000000;stroke-width:1;" width="192.1338" x="21.37" y="427.6892"/><ellipse cx="63.1722" cy="448.4885" fill="#FFFFFF" rx="9" ry="9" style="stroke:#000000;stroke-width:1;"/><path d="M65.6454,454.6316 Q65.0643,454.9304 64.4252,455.0798 Q63.786,455.2293 63.0804,455.2293 Q60.5736,455.2293 59.2538,453.5774 Q57.934,451.9255 57.934,448.8045 Q57.934,445.6751 59.2538,444.0232 Q60.5736,442.3713 63.0804,442.3713 Q63.786,442.3713 64.4335,442.5208 Q65.0809,442.6702 65.6454,442.969 L65.6454,445.6917 Q65.0145,445.1106 64.421,444.8408 Q63.8275,444.5711 63.1967,444.5711 Q61.8519,444.5711 61.1671,445.6377 Q60.4823,446.7044 60.4823,448.8045 Q60.4823,450.8963 61.1671,451.9629 Q61.8519,453.0296 63.1967,453.0296 Q63.8275,453.0296 64.421,452.7598 Q65.0145,452.49 65.6454,451.9089 Z " fill="#000000"/><text fill="#000000" font-family="Verdana" font-size="12" font-style="italic" lengthAdjust="spacing" textLength="105.0293" x="78.6722" y="444.7537">&#171;AggregateRoot&#187;</text><text fill="#000000" font-family="Verdana" font-size="14" font-weight="bold" lengthAdjust="spacing" textLength="44.9053" x="108.7343" y="461.3484">Order</text><line style="stroke:#000000;stroke-width:1;" x1="22.37" x2="212.5038" y1="469.2879" y2="469.2879"/><text fill="#000000" font-family="Verdana" font-size="14" lengthAdjust="spacing" textLength="84.8477" x="27.37" y="487.363">-id: OrderId</text><text fill="#000000" font-family="Verdana" font-size="14" lengthAdjust="spacing" textLength="180.1338" x="27.37" y="504.3777">-customerId: CustomerId</text><text fill="#000000" font-family="Verdana" font-size="14" lengthAdjust="spacing" textLength="174.9043" x="27.37" y="521.3923">-shippingAddress: String</text><text fill="#000000" font-family="Verdana" font-size="14" lengthAdjust="spacing" textLength="177.0029" x="27.37" y="538.407">-items: List&lt;OrderItem&gt;</text><text fill="#000000" font-family="Verdana" font-size="14" lengthAdjust="spacing" textLength="145.7217" x="27.37" y="555.4216">-status: OrderStatus</text><text fill="#000000" font-family="Verdana" font-size="14" lengthAdjust="spacing" textLength="131.4072" x="27.37" y="572.4363">-... (5 more fields)</text><line style="stroke:#000000;stroke-width:1;" x1="22.37" x2="212.5038" y1="579.3757" y2="579.3757"/><text fill="#000000" font-family="Verdana" font-size="14" lengthAdjust="spacing" textLength="124.0176" x="27.37" y="597.4509">+addItem(): void</text><text fill="#000000" font-family="Verdana" font-size="14" lengthAdjust="spacing" textLength="112.6494" x="27.37" y="614.4656">+submit(): void</text><text fill="#000000" font-family="Verdana" font-size="14" lengthAdjust="spacing" textLength="117.8037" x="27.37" y="631.4802">+confirm(): void</text><text fill="#000000" font-family="Verdana" font-size="14" lengthAdjust="spacing" textLength="169.292" x="27.37" y="648.4949">+... (18 more methods)</text></g><g id="elem_GMN3"><path d="M248.94,520.7692 L248.94,537.5692 L213.86,541.5692 L248.94,545.5692 L248.94,562.3679 A0,0 0 0 0 248.94,562.3679 L529.94,562.3679 A0,0 0 0 0 529.94,562.3679 L529.94,530.7692 L519.94,520.7692 L248.94,520.7692 A0,0 0 0 0 248.94,520.7692 " fill="#FFFFFF" style="stroke:#000000;stroke-width:1;"/><path d="M519.94,520.7692 L519.94,530.7692 L529.94,530.7692 L519.94,520.7692 " fill="#FFFFFF" style="stroke:#000000;stroke-width:1;"/><text fill="#000000" font-family="Verdana" font-size="13" lengthAdjust="spacing" textLength="260" x="254.94" y="538.839">&#35330;&#21934;&#32858;&#21512;&#26681;&#65292;&#23553;&#35037;&#35330;&#21934;&#30456;&#38364;&#30340;&#26989;&#21209;&#35215;&#21063;&#21644;&#34892;&#28858;</text><text fill="#000000" font-family="Verdana" font-size="13" lengthAdjust="spacing" textLength="80.3677" x="254.94" y="554.6384">Version: 1.0</text></g><!--class OrderWorkflow--><g id="elem_OrderWorkflow"><rect codeLine="26" fill="#FFFFFF" height="227.7451" id="OrderWorkflow" rx="2.5" ry="2.5" style="stroke:#000000;stroke-width:1;" width="210.8779" x="12" y="139.9492"/><ellipse cx="53.3447" cy="160.7485" fill="#FFFFFF" rx="9" ry="9" style="stroke:#000000;stroke-width:1;"/><path d="M55.8179,166.8916 Q55.2368,167.1904 54.5977,167.3398 Q53.9585,167.4893 53.2529,167.4893 Q50.7461,167.4893 49.4263,165.8374 Q48.1064,164.1855 48.1064,161.0645 Q48.1064,157.9351 49.4263,156.2832 Q50.7461,154.6313 53.2529,154.6313 Q53.9585,154.6313 54.606,154.7808 Q55.2534,154.9302 55.8179,155.229 L55.8179,157.9517 Q55.187,157.3706 54.5935,157.1008 Q54,156.8311 53.3691,156.8311 Q52.0244,156.8311 51.3396,157.8977 Q50.6548,158.9644 50.6548,161.0645 Q50.6548,163.1563 51.3396,164.2229 Q52.0244,165.2896 53.3691,165.2896 Q54,165.2896 54.5935,165.0198 Q55.187,164.75 55.8179,164.1689 Z " fill="#000000"/><text fill="#000000" font-family="Verdana" font-size="12" font-style="italic" lengthAdjust="spacing" textLength="105.0293" x="78.6743" y="157.0137">&#171;AggregateRoot&#187;</text><text fill="#000000" font-family="Verdana" font-size="14" font-weight="bold" lengthAdjust="spacing" textLength="120.6885" x="70.8447" y="173.6084">OrderWorkflow</text><line style="stroke:#000000;stroke-width:1;" x1="13" x2="221.8779" y1="181.5479" y2="181.5479"/><text fill="#000000" font-family="Verdana" font-size="14" lengthAdjust="spacing" textLength="110.1338" x="18" y="199.623">-id: WorkflowId</text><text fill="#000000" font-family="Verdana" font-size="14" lengthAdjust="spacing" textLength="124.4072" x="18" y="216.6377">-orderId: OrderId</text><text fill="#000000" font-family="Verdana" font-size="14" lengthAdjust="spacing" textLength="171.0078" x="18" y="233.6523">-status: WorkflowStatus</text><text fill="#000000" font-family="Verdana" font-size="14" lengthAdjust="spacing" textLength="182.9775" x="18" y="250.667">-productIds: List&lt;String&gt;</text><text fill="#000000" font-family="Verdana" font-size="14" lengthAdjust="spacing" textLength="198.8779" x="18" y="267.6816">-inventoryChecked: boolean</text><text fill="#000000" font-family="Verdana" font-size="14" lengthAdjust="spacing" textLength="131.4072" x="18" y="284.6963">-... (8 more fields)</text><line style="stroke:#000000;stroke-width:1;" x1="13" x2="221.8779" y1="291.6357" y2="291.6357"/><text fill="#000000" font-family="Verdana" font-size="14" lengthAdjust="spacing" textLength="143.958" x="18" y="309.7109">+addProduct(): void</text><text fill="#000000" font-family="Verdana" font-size="14" lengthAdjust="spacing" textLength="152.6807" x="18" y="326.7256">+submitOrder(): void</text><text fill="#000000" font-family="Verdana" font-size="14" lengthAdjust="spacing" textLength="186.0127" x="18" y="343.7402">+validateOrder(): boolean</text><text fill="#000000" font-family="Verdana" font-size="14" lengthAdjust="spacing" textLength="169.292" x="18" y="360.7549">+... (21 more methods)</text></g><g id="elem_GMN7"><path d="M257.94,233.0192 L257.94,249.8192 L223.38,253.8192 L257.94,257.8192 L257.94,274.6179 A0,0 0 0 0 257.94,274.6179 L616.94,274.6179 A0,0 0 0 0 616.94,274.6179 L616.94,243.0192 L606.94,233.0192 L257.94,233.0192 A0,0 0 0 0 257.94,233.0192 " fill="#FFFFFF" style="stroke:#000000;stroke-width:1;"/><path d="M606.94,233.0192 L606.94,243.0192 L616.94,243.0192 L606.94,233.0192 " fill="#FFFFFF" style="stroke:#000000;stroke-width:1;"/><text fill="#000000" font-family="Verdana" font-size="13" lengthAdjust="spacing" textLength="338" x="263.94" y="251.089">&#35330;&#21934;&#24037;&#20316;&#27969;&#32858;&#21512;&#26681;&#65292;&#31649;&#29702;&#35330;&#21934;&#24478;&#21109;&#24314;&#21040;&#23436;&#25104;&#30340;&#25972;&#20491;&#29983;&#21629;&#36913;&#26399;</text><text fill="#000000" font-family="Verdana" font-size="13" lengthAdjust="spacing" textLength="80.3677" x="263.94" y="266.8884">Version: 1.0</text></g><!--link OrderWorkflow to Order--><g id="link_OrderWorkflow_Order"><path codeLine="47" d="M117.44,368.1692 C117.44,387.6392 117.44,401.8892 117.44,421.3592 " fill="none" id="OrderWorkflow-to-Order" style="stroke:#000000;stroke-width:1;"/><polygon fill="#000000" points="117.44,427.3592,121.44,418.3592,117.44,422.3592,113.44,418.3592,117.44,427.3592" style="stroke:#000000;stroke-width:1;"/></g><!--SRC=[ZL9TQnD157tVNt5zigLiI48gTGc16542WjA0lkHbavbiXkpEX9dPQ1MXAQ8f3HZ53wpHMgJYYw62HQtMN-DaqoV_WhExIPee5L-6cNFFFNVcd3aZwzZ3q7HjGWtH8BHfSzk3gciBaPUIauelSR7AQ8dSnf3yatA9KLcIQow62dEHOKWYzVugHvZ31UPJX14KD0VVac12td4uTco9uIAMDd55cLx657ED80lIoVIocJnlfZEGJbkfSrOcKwPbQXZHfB5eDZiLMMLCvd9mnm0mYUwF24KK7gk-aCmBJnOKflkm8kgasIJKoIF4iH0MbFGRgHDfIEnfu0eHCXjhQI0NDKbR-c8yeHGTGZYHIC32CdYCOwWHx2An6CAcNfPiXCBsXKKBMeo4evU4N_68d4MqhJN2vqYHPceb5lMmhBDGzQvXKAPjuyIfIs2r-2QQFtg_ePuDHkrjrUiCttpzzRshzjkZjwzYF7ZvvVXvFzY-DzpxeBPUZDuzL9iFrEFkQBSRR1pgzkkO2yAe1Qb4qi0KGJXbpl0RZ3TgBhlvB-CddDXX5iSmbyV4m0dpnCCcPyYloYAQE1_d4TbEQ0jJoVXQeOwhZV2BL1XpiKsdvg-SQlwrMFTl_wDRpS8jsoL8lsfQE1aIfv5E_LSQaxTDKr6VztuUzOS7xTbuWi5kqBi_9lnuhJOFrBT3rTbNW-wmqmkZUlf9hMy5JtRKewFZzO_3_ixfEHbdOHMxjjIby5yBOpuoqyoDFyfl]--></g></svg>