<svg xmlns="http://www.w3.org/2000/svg" xmlns:xlink="http://www.w3.org/1999/xlink" contentStyleType="text/css" data-diagram-type="CLASS" height="662px" preserveAspectRatio="none" style="width:608px;height:662px;background:#FFFFFF;" version="1.1" viewBox="0 0 608 662" width="608px" zoomAndPan="magnify"><title>Payment Bounded Context - Aggregate Details
Generated: 2025-09-21 19:48:57

</title><defs/><g><g class="title" data-source-line="5"><text fill="#000000" font-family="Verdana" font-size="22" font-weight="bold" lengthAdjust="spacing" textLength="575.3086" x="15" y="37.1182">Payment Bounded Context - Aggregate Details</text><text fill="#000000" font-family="Verdana" font-size="22" font-weight="bold" lengthAdjust="spacing" textLength="410.0615" x="97.6235" y="63.8555">Generated: 2025-09-21 19:48:57</text><text fill="#000000" font-family="Verdana" font-size="22" font-weight="bold" lengthAdjust="spacing" textLength="7.5195" x="298.8945" y="90.5928">&#160;</text><text fill="#000000" font-family="Verdana" font-size="22" font-weight="bold" lengthAdjust="spacing" textLength="7.5195" x="298.8945" y="117.3301">&#160;</text></g><!--class Payment--><g class="entity" data-entity="Payment" data-source-line="7" data-uid="ent0002" id="entity_Payment"><rect fill="#FFFFFF" height="227.7451" rx="2.5" ry="2.5" style="stroke:#000000;stroke-width:1;" width="256.3232" x="44.0743" y="139.9492"/><ellipse cx="117.9713" cy="160.7485" fill="#FFFFFF" rx="9" ry="9" style="stroke:#000000;stroke-width:1;"/><path d="M120.4444,166.8916 Q119.8634,167.1904 119.2242,167.3398 Q118.585,167.4893 117.8795,167.4893 Q115.3726,167.4893 114.0528,165.8374 Q112.733,164.1855 112.733,161.0645 Q112.733,157.9351 114.0528,156.2832 Q115.3726,154.6313 117.8795,154.6313 Q118.585,154.6313 119.2325,154.7808 Q119.88,154.9302 120.4444,155.229 L120.4444,157.9517 Q119.8136,157.3706 119.22,157.1008 Q118.6265,156.8311 117.9957,156.8311 Q116.651,156.8311 115.9661,157.8977 Q115.2813,158.9644 115.2813,161.0645 Q115.2813,163.1563 115.9661,164.2229 Q116.651,165.2896 117.9957,165.2896 Q118.6265,165.2896 119.22,165.0198 Q119.8136,164.75 120.4444,164.1689 Z " fill="#000000"/><text fill="#000000" font-family="Verdana" font-size="12" font-style="italic" lengthAdjust="spacing" textLength="105.0293" x="133.4713" y="157.0137">&#171;AggregateRoot&#187;</text><text fill="#000000" font-family="Verdana" font-size="14" font-weight="bold" lengthAdjust="spacing" textLength="69.1865" x="151.3927" y="173.6084">Payment</text><line style="stroke:#000000;stroke-width:1;" x1="45.0743" x2="299.3975" y1="181.5479" y2="181.5479"/><text fill="#000000" font-family="Verdana" font-size="14" lengthAdjust="spacing" textLength="106.2852" x="50.0743" y="199.623">-id: PaymentId</text><text fill="#000000" font-family="Verdana" font-size="14" lengthAdjust="spacing" textLength="124.4072" x="50.0743" y="216.6377">-orderId: OrderId</text><text fill="#000000" font-family="Verdana" font-size="14" lengthAdjust="spacing" textLength="117.1748" x="50.0743" y="233.6523">-amount: Money</text><text fill="#000000" font-family="Verdana" font-size="14" lengthAdjust="spacing" textLength="167.1592" x="50.0743" y="250.667">-status: PaymentStatus</text><text fill="#000000" font-family="Verdana" font-size="14" lengthAdjust="spacing" textLength="244.3232" x="50.0743" y="267.6816">-paymentMethod: PaymentMethod</text><text fill="#000000" font-family="Verdana" font-size="14" lengthAdjust="spacing" textLength="131.4072" x="50.0743" y="284.6963">-... (5 more fields)</text><line style="stroke:#000000;stroke-width:1;" x1="45.0743" x2="299.3975" y1="291.6357" y2="291.6357"/><text fill="#000000" font-family="Verdana" font-size="14" lengthAdjust="spacing" textLength="128.9668" x="50.0743" y="309.7109">+complete(): void</text><text fill="#000000" font-family="Verdana" font-size="14" lengthAdjust="spacing" textLength="85.8115" x="50.0743" y="326.7256">+fail(): void</text><text fill="#000000" font-family="Verdana" font-size="14" lengthAdjust="spacing" textLength="110.4756" x="50.0743" y="343.7402">+refund(): void</text><text fill="#000000" font-family="Verdana" font-size="14" lengthAdjust="spacing" textLength="169.292" x="50.0743" y="360.7549">+... (15 more methods)</text></g><g class="entity" data-entity="GMN3" data-source-line="22" data-uid="ent0004" id="entity_GMN3"><path d="M335.2343,233.0192 L335.2343,249.8192 L300.8543,253.8192 L335.2343,257.8192 L335.2343,274.6179 A0,0 0 0 0 335.2343,274.6179 L551.2343,274.6179 A0,0 0 0 0 551.2343,274.6179 L551.2343,243.0192 L541.2343,233.0192 L335.2343,233.0192 A0,0 0 0 0 335.2343,233.0192" fill="#FFFFFF" style="stroke:#000000;stroke-width:1;"/><path d="M541.2343,233.0192 L541.2343,243.0192 L551.2343,243.0192 L541.2343,233.0192" fill="#FFFFFF" style="stroke:#000000;stroke-width:1;"/><text fill="#000000" font-family="Verdana" font-size="13" lengthAdjust="spacing" textLength="195" x="341.2343" y="251.089">&#25903;&#20184;&#32858;&#21512;&#26681;&#65292;&#31649;&#29702;&#25903;&#20184;&#27969;&#31243;&#21644;&#29376;&#24907;</text><text fill="#000000" font-family="Verdana" font-size="13" lengthAdjust="spacing" textLength="80.3677" x="341.2343" y="266.8884">Version: 1.0</text></g><!--class PaymentMethod--><g class="entity" data-entity="PaymentMethod" data-source-line="26" data-uid="ent0006" id="entity_PaymentMethod"><rect fill="#FFFFFF" height="227.7451" rx="2.5" ry="2.5" style="stroke:#000000;stroke-width:1;" width="200.2207" x="72.1243" y="427.6892"/><ellipse cx="105.2469" cy="448.4885" fill="#FFFFFF" rx="9" ry="9" style="stroke:#000000;stroke-width:1;"/><path d="M107.72,454.6316 Q107.1389,454.9304 106.4998,455.0798 Q105.8606,455.2293 105.1551,455.2293 Q102.6482,455.2293 101.3284,453.5774 Q100.0086,451.9255 100.0086,448.8045 Q100.0086,445.6751 101.3284,444.0232 Q102.6482,442.3713 105.1551,442.3713 Q105.8606,442.3713 106.5081,442.5208 Q107.1555,442.6702 107.72,442.969 L107.72,445.6917 Q107.0891,445.1106 106.4956,444.8408 Q105.9021,444.5711 105.2713,444.5711 Q103.9265,444.5711 103.2417,445.6377 Q102.5569,446.7044 102.5569,448.8045 Q102.5569,450.8963 103.2417,451.9629 Q103.9265,453.0296 105.2713,453.0296 Q105.9021,453.0296 106.4956,452.7598 Q107.0891,452.49 107.72,451.9089 Z " fill="#000000"/><text fill="#000000" font-family="Verdana" font-size="12" font-style="italic" lengthAdjust="spacing" textLength="105.0293" x="132.9558" y="444.7537">&#171;AggregateRoot&#187;</text><text fill="#000000" font-family="Verdana" font-size="14" font-weight="bold" lengthAdjust="spacing" textLength="127.5039" x="121.7185" y="461.3484">PaymentMethod</text><line style="stroke:#000000;stroke-width:1;" x1="73.1243" x2="271.345" y1="469.2879" y2="469.2879"/><text fill="#000000" font-family="Verdana" font-size="14" lengthAdjust="spacing" textLength="188.2207" x="78.1243" y="487.363">-paymentMethodId: String</text><text fill="#000000" font-family="Verdana" font-size="14" lengthAdjust="spacing" textLength="180.1338" x="78.1243" y="504.3777">-customerId: CustomerId</text><text fill="#000000" font-family="Verdana" font-size="14" lengthAdjust="spacing" textLength="90.9863" x="78.1243" y="521.3923">-type: String</text><text fill="#000000" font-family="Verdana" font-size="14" lengthAdjust="spacing" textLength="150.0762" x="78.1243" y="538.407">-displayName: String</text><text fill="#000000" font-family="Verdana" font-size="14" lengthAdjust="spacing" textLength="118.4805" x="78.1243" y="555.4216">-provider: String</text><text fill="#000000" font-family="Verdana" font-size="14" lengthAdjust="spacing" textLength="131.4072" x="78.1243" y="572.4363">-... (6 more fields)</text><line style="stroke:#000000;stroke-width:1;" x1="73.1243" x2="271.345" y1="579.3757" y2="579.3757"/><text fill="#000000" font-family="Verdana" font-size="14" lengthAdjust="spacing" textLength="153.4873" x="78.1243" y="597.4509">+setAsDefault(): void</text><text fill="#000000" font-family="Verdana" font-size="14" lengthAdjust="spacing" textLength="171.2061" x="78.1243" y="614.4656">+unsetAsDefault(): void</text><text fill="#000000" font-family="Verdana" font-size="14" lengthAdjust="spacing" textLength="120.4082" x="78.1243" y="631.4802">+activate(): void</text><text fill="#000000" font-family="Verdana" font-size="14" lengthAdjust="spacing" textLength="169.292" x="78.1243" y="648.4949">+... (14 more methods)</text></g><g class="entity" data-entity="GMN7" data-source-line="41" data-uid="ent0008" id="entity_GMN7"><path d="M307.2343,520.7692 L307.2343,537.5692 L272.5843,541.5692 L307.2343,545.5692 L307.2343,562.3679 A0,0 0 0 0 307.2343,562.3679 L575.2343,562.3679 A0,0 0 0 0 575.2343,562.3679 L575.2343,530.7692 L565.2343,520.7692 L307.2343,520.7692 A0,0 0 0 0 307.2343,520.7692" fill="#FFFFFF" style="stroke:#000000;stroke-width:1;"/><path d="M565.2343,520.7692 L565.2343,530.7692 L575.2343,530.7692 L565.2343,520.7692" fill="#FFFFFF" style="stroke:#000000;stroke-width:1;"/><text fill="#000000" font-family="Verdana" font-size="13" lengthAdjust="spacing" textLength="247" x="313.2343" y="538.839">&#25903;&#20184;&#26041;&#24335;&#32858;&#21512;&#26681;&#65292;&#31649;&#29702;&#23458;&#25142;&#30340;&#25903;&#20184;&#26041;&#24335;&#37197;&#32622;</text><text fill="#000000" font-family="Verdana" font-size="13" lengthAdjust="spacing" textLength="80.3677" x="313.2343" y="554.6384">Version: 1.0</text></g><!--link Payment to PaymentMethod--><g class="link" data-entity-1="Payment" data-entity-2="PaymentMethod" data-source-line="47" data-uid="lnk10" id="link_Payment_PaymentMethod"><path codeLine="47" d="M172.2343,368.1692 C172.2343,387.6392 172.2343,401.8892 172.2343,421.3592" fill="none" id="Payment-to-PaymentMethod" style="stroke:#000000;stroke-width:1;"/><polygon fill="#000000" points="172.2343,427.3592,176.2343,418.3592,172.2343,422.3592,168.2343,418.3592,172.2343,427.3592" style="stroke:#000000;stroke-width:1;"/></g><!--SRC=[ZP91QnD15CVlyocU9rlAXYGqQfSIY2rA3bLfm5Ckq-pRP71tPfbv6umYMB1IICKY8jAJUl8KJmh5-crCLaz-1MUoQTn40rw6cV_xptzcVc-kK0zZX2JYGZBpGCY4Qnv39-B6D8YqE4W9cnqbM-8HGddPSaj9Qj4WGZXGKS0O2RBpUtmGeoIugL8PO00xreKF2JneTBiQkvmGTf6uY4nRtaQ9sYg13zLojUQLjxng1IfR_kODltQzBTkIiUbPyzZjxNdClb9KhyDZ1k09cp2pD0CdA1sWRbhrRZvn6e_jdSY7FILnu0H3d58ptzcQBbqXoOKzf9xwavmlNRrKAi5Q3MAb4KA1KM3MdUpPOQEZuYH2mhLr7_fAEFz6Q9zRN6iCBPsYCasip2BZwK4symbZKbbWMdHx12gyl8dTCNdzwVlNjpyEpyQdnvDtvxykJhBH- -pqUQvFFXzc7uVZLoVPyEdaQ6Zzzr4ReQGFbLAPeGp01I_HpH-uYl4258UsPR-8xBfI9pMauXpupdpkAZH8iEWCXB7_RN27nmjoebLVs4OLjIcIQ_-6R90QPXT3daPKn9ZALHNU8T7dYst9eM_-9_Hv-sU8tvoFBrx-tO3nwCFa-4jszgne-tdq8lisMjq6TXNsCU9aIwOd4iCk_xldrPVE_mq0]--></g></svg>