<svg xmlns="http://www.w3.org/2000/svg" xmlns:xlink="http://www.w3.org/1999/xlink" contentStyleType="text/css" height="374px" preserveAspectRatio="none" style="width:1033px;height:374px;background:#FFFFFF;" version="1.1" viewBox="0 0 1033 374" width="1033px" zoomAndPan="magnify"><title>Promotion Bounded Context - Aggregate Details</title><defs/><g><text fill="#000000" font-family="Verdana" font-size="22" font-weight="bold" lengthAdjust="spacing" textLength="595.4502" x="214.6449" y="37.1182">Promotion Bounded Context - Aggregate Details</text><text fill="#000000" font-family="Verdana" font-size="22" font-weight="bold" lengthAdjust="spacing" textLength="410.0615" x="307.3392" y="63.8555">Generated: 2025-09-24 22:16:44</text><text fill="#000000" font-family="Verdana" font-size="22" font-weight="bold" lengthAdjust="spacing" textLength="7.5195" x="508.6102" y="90.5928">&#160;</text><text fill="#000000" font-family="Verdana" font-size="22" font-weight="bold" lengthAdjust="spacing" textLength="7.5195" x="508.6102" y="117.3301">&#160;</text><!--class Promotion--><g id="elem_Promotion"><rect codeLine="7" fill="#FFFFFF" height="227.7451" id="Promotion" rx="2.5" ry="2.5" style="stroke:#000000;stroke-width:1;" width="191.4844" x="12" y="139.9492"/><ellipse cx="53.4775" cy="160.7485" fill="#FFFFFF" rx="9" ry="9" style="stroke:#000000;stroke-width:1;"/><path d="M55.9507,166.8916 Q55.3696,167.1904 54.7305,167.3398 Q54.0913,167.4893 53.3857,167.4893 Q50.8789,167.4893 49.5591,165.8374 Q48.2393,164.1855 48.2393,161.0645 Q48.2393,157.9351 49.5591,156.2832 Q50.8789,154.6313 53.3857,154.6313 Q54.0913,154.6313 54.7388,154.7808 Q55.3862,154.9302 55.9507,155.229 L55.9507,157.9517 Q55.3198,157.3706 54.7263,157.1008 Q54.1328,156.8311 53.502,156.8311 Q52.1572,156.8311 51.4724,157.8977 Q50.7876,158.9644 50.7876,161.0645 Q50.7876,163.1563 51.4724,164.2229 Q52.1572,165.2896 53.502,165.2896 Q54.1328,165.2896 54.7263,165.0198 Q55.3198,164.75 55.9507,164.1689 Z " fill="#000000"/><text fill="#000000" font-family="Verdana" font-size="12" font-style="italic" lengthAdjust="spacing" textLength="105.0293" x="68.9775" y="157.0137">&#171;AggregateRoot&#187;</text><text fill="#000000" font-family="Verdana" font-size="14" font-weight="bold" lengthAdjust="spacing" textLength="82.0039" x="80.4902" y="173.6084">Promotion</text><line style="stroke:#000000;stroke-width:1;" x1="13" x2="202.4844" y1="181.5479" y2="181.5479"/><text fill="#000000" font-family="Verdana" font-size="14" lengthAdjust="spacing" textLength="116.5596" x="18" y="199.623">-id: PromotionId</text><text fill="#000000" font-family="Verdana" font-size="14" lengthAdjust="spacing" textLength="99.3467" x="18" y="216.6377">-name: String</text><text fill="#000000" font-family="Verdana" font-size="14" lengthAdjust="spacing" textLength="137.0264" x="18" y="233.6523">-description: String</text><text fill="#000000" font-family="Verdana" font-size="14" lengthAdjust="spacing" textLength="154.2188" x="18" y="250.667">-type: PromotionType</text><text fill="#000000" font-family="Verdana" font-size="14" lengthAdjust="spacing" textLength="147.1709" x="18" y="267.6816">-rule: PromotionRule</text><text fill="#000000" font-family="Verdana" font-size="14" lengthAdjust="spacing" textLength="131.4072" x="18" y="284.6963">-... (6 more fields)</text><line style="stroke:#000000;stroke-width:1;" x1="13" x2="202.4844" y1="291.6357" y2="291.6357"/><text fill="#000000" font-family="Verdana" font-size="14" lengthAdjust="spacing" textLength="159.0039" x="18" y="309.7109">+getId(): PromotionId</text><text fill="#000000" font-family="Verdana" font-size="14" lengthAdjust="spacing" textLength="141.3535" x="18" y="326.7256">+getName(): String</text><text fill="#000000" font-family="Verdana" font-size="14" lengthAdjust="spacing" textLength="179.4844" x="18" y="343.7402">+getDescription(): String</text><text fill="#000000" font-family="Verdana" font-size="14" lengthAdjust="spacing" textLength="169.292" x="18" y="360.7549">+... (24 more methods)</text></g><g id="elem_GMN3"><path d="M238.24,233.0292 L238.24,249.8292 L203.92,253.8292 L238.24,257.8292 L238.24,274.6279 A0,0 0 0 0 238.24,274.6279 L467.24,274.6279 A0,0 0 0 0 467.24,274.6279 L467.24,243.0292 L457.24,233.0292 L238.24,233.0292 A0,0 0 0 0 238.24,233.0292 " fill="#FFFFFF" style="stroke:#000000;stroke-width:1;"/><path d="M457.24,233.0292 L457.24,243.0292 L467.24,243.0292 L457.24,233.0292 " fill="#FFFFFF" style="stroke:#000000;stroke-width:1;"/><text fill="#000000" font-family="Verdana" font-size="13" lengthAdjust="spacing" textLength="208" x="244.24" y="251.099">&#20419;&#37559;&#32858;&#21512;&#26681;&#65292;&#31649;&#29702;&#21508;&#31278;&#20419;&#37559;&#27963;&#21205;&#35215;&#21063;</text><text fill="#000000" font-family="Verdana" font-size="13" lengthAdjust="spacing" textLength="80.3677" x="244.24" y="266.8984">Version: 1.0</text></g><!--class Voucher--><g id="elem_Voucher"><rect codeLine="26" fill="#FFFFFF" height="227.7451" id="Voucher" rx="2.5" ry="2.5" style="stroke:#000000;stroke-width:1;" width="195.374" x="502.06" y="139.9492"/><ellipse cx="545.4824" cy="160.7485" fill="#FFFFFF" rx="9" ry="9" style="stroke:#000000;stroke-width:1;"/><path d="M547.9555,166.8916 Q547.3745,167.1904 546.7353,167.3398 Q546.0961,167.4893 545.3906,167.4893 Q542.8837,167.4893 541.5639,165.8374 Q540.2441,164.1855 540.2441,161.0645 Q540.2441,157.9351 541.5639,156.2832 Q542.8837,154.6313 545.3906,154.6313 Q546.0961,154.6313 546.7436,154.7808 Q547.3911,154.9302 547.9555,155.229 L547.9555,157.9517 Q547.3246,157.3706 546.7311,157.1008 Q546.1376,156.8311 545.5068,156.8311 Q544.1621,156.8311 543.4772,157.8977 Q542.7924,158.9644 542.7924,161.0645 Q542.7924,163.1563 543.4772,164.2229 Q544.1621,165.2896 545.5068,165.2896 Q546.1376,165.2896 546.7311,165.0198 Q547.3246,164.75 547.9555,164.1689 Z " fill="#000000"/><text fill="#000000" font-family="Verdana" font-size="12" font-style="italic" lengthAdjust="spacing" textLength="105.0293" x="560.9824" y="157.0137">&#171;AggregateRoot&#187;</text><text fill="#000000" font-family="Verdana" font-size="14" font-weight="bold" lengthAdjust="spacing" textLength="64.7432" x="581.1254" y="173.6084">Voucher</text><line style="stroke:#000000;stroke-width:1;" x1="503.06" x2="696.434" y1="181.5479" y2="181.5479"/><text fill="#000000" font-family="Verdana" font-size="14" lengthAdjust="spacing" textLength="102.2109" x="508.06" y="199.623">-id: VoucherId</text><text fill="#000000" font-family="Verdana" font-size="14" lengthAdjust="spacing" textLength="139.8701" x="508.06" y="216.6377">-type: VoucherType</text><text fill="#000000" font-family="Verdana" font-size="14" lengthAdjust="spacing" textLength="99.3467" x="508.06" y="233.6523">-name: String</text><text fill="#000000" font-family="Verdana" font-size="14" lengthAdjust="spacing" textLength="137.0264" x="508.06" y="250.667">-description: String</text><text fill="#000000" font-family="Verdana" font-size="14" lengthAdjust="spacing" textLength="101.1514" x="508.06" y="267.6816">-value: Money</text><text fill="#000000" font-family="Verdana" font-size="14" lengthAdjust="spacing" textLength="131.4072" x="508.06" y="284.6963">-... (9 more fields)</text><line style="stroke:#000000;stroke-width:1;" x1="503.06" x2="696.434" y1="291.6357" y2="291.6357"/><text fill="#000000" font-family="Verdana" font-size="14" lengthAdjust="spacing" textLength="144.6553" x="508.06" y="309.7109">+getId(): VoucherId</text><text fill="#000000" font-family="Verdana" font-size="14" lengthAdjust="spacing" textLength="183.374" x="508.06" y="326.7256">+getType(): VoucherType</text><text fill="#000000" font-family="Verdana" font-size="14" lengthAdjust="spacing" textLength="141.3535" x="508.06" y="343.7402">+getName(): String</text><text fill="#000000" font-family="Verdana" font-size="14" lengthAdjust="spacing" textLength="169.292" x="508.06" y="360.7549">+... (25 more methods)</text></g><g id="elem_GMN7"><path d="M732.74,233.0292 L732.74,249.8292 L697.91,253.8292 L732.74,257.8292 L732.74,274.6279 A0,0 0 0 0 732.74,274.6279 L1026.74,274.6279 A0,0 0 0 0 1026.74,274.6279 L1026.74,243.0292 L1016.74,233.0292 L732.74,233.0292 A0,0 0 0 0 732.74,233.0292 " fill="#FFFFFF" style="stroke:#000000;stroke-width:1;"/><path d="M1016.74,233.0292 L1016.74,243.0292 L1026.74,243.0292 L1016.74,233.0292 " fill="#FFFFFF" style="stroke:#000000;stroke-width:1;"/><text fill="#000000" font-family="Verdana" font-size="13" lengthAdjust="spacing" textLength="273" x="738.74" y="251.099">&#36229;&#21830;&#20778;&#24800;&#21048;&#32858;&#21512;&#26681;&#65292;&#31649;&#29702;&#20778;&#24800;&#21048;&#30340;&#23436;&#25972;&#29983;&#21629;&#36913;&#26399;</text><text fill="#000000" font-family="Verdana" font-size="13" lengthAdjust="spacing" textLength="80.3677" x="738.74" y="266.8984">Version: 1.0</text></g><!--SRC=[ZP7FQzH05CVlyrSyJxP8bctO5hgKGhKeUr1aLthQIxfvJGOdCs5c8guYA5rhrO8hT2-bq7efnSE2KFo1Yl-CIROd_mLdzbTZgTPBoFk-xtlVbq-kw10ZX9Xvb1Drd_BOaru4BUOfjQArfEk9nbfBy0PzX50-Rxafk6xeDaDO5ymdH5DjtkzA4GbD1OVh8k4- -d33-F2X1WTMWa1Yu6c4LTGUPQh9Ro57QHI_2cxPdNVAYuvR0TUjpYrKAvKcRt92Xcc5nKjBqqLr8VJoCZmc00urEwQcccybxaLOXORv51xOsaVLaZIsXgAisp4MPk-PqieoOKMvRaehbqebc5c0I4Y43OhCLxDMTipZMe2wvi_CdZ_4wdVCBROpZRNYwjb1V_Q68OR4C2L27GeRyuGGBWm-IODGWzWuYp4pFtzidhxwD7YsbtQtiyCllxxjvFrtUNShxNRou_wecvryJL_t1aTlqfSlpCWQIZLaCLSg4-G-sEqJu6iYQOKe_uLxR1d17b4SInE6__a77dWiCRxRWcDxodZn4iR5TAlQp88-Fk5YzYE-yvVn7Qyo4uEFpzFULjfvdsqUfjkVBy0yQULxdRI_a_LEyjs3zEttqwSVils3lyCcLw6EpBD4L4XZHNu3]--></g></svg>