<svg xmlns="http://www.w3.org/2000/svg" xmlns:xlink="http://www.w3.org/1999/xlink" contentStyleType="text/css" height="670px" preserveAspectRatio="none" style="width:2122px;height:670px;background:#FFFFFF;" version="1.1" viewBox="0 0 2122 670" width="2122px" zoomAndPan="magnify"><defs/><g><!--cluster InterfacesLayer--><g id="cluster_InterfacesLayer"><path d="M8.5,6 L181.8887,6 A3.75,3.75 0 0 1 184.3887,8.5 L191.3887,28.4883 L660.5,28.4883 A2.5,2.5 0 0 1 663,30.9883 L663,116.98 A2.5,2.5 0 0 1 660.5,119.48 L8.5,119.48 A2.5,2.5 0 0 1 6,116.98 L6,8.5 A2.5,2.5 0 0 1 8.5,6 " fill="none" style="stroke:#000000;stroke-width:1.5;"/><line style="stroke:#000000;stroke-width:1.5;" x1="6" x2="191.3887" y1="28.4883" y2="28.4883"/><text fill="#000000" font-family="sans-serif" font-size="14" font-weight="bold" lengthAdjust="spacing" textLength="172.3887" x="10" y="21.5352">&#20171;&#38754;&#23652; (Interfaces Layer)</text></g><!--cluster ApplicationLayer--><g id="cluster_ApplicationLayer"><path d="M193.5,202.48 L377.2178,202.48 A3.75,3.75 0 0 1 379.7178,204.98 L386.7178,224.9683 L498.5,224.9683 A2.5,2.5 0 0 1 501,227.4683 L501,431.68 A2.5,2.5 0 0 1 498.5,434.18 L193.5,434.18 A2.5,2.5 0 0 1 191,431.68 L191,204.98 A2.5,2.5 0 0 1 193.5,202.48 " fill="none" style="stroke:#000000;stroke-width:1.5;"/><line style="stroke:#000000;stroke-width:1.5;" x1="191" x2="386.7178" y1="224.9683" y2="224.9683"/><text fill="#000000" font-family="sans-serif" font-size="14" font-weight="bold" lengthAdjust="spacing" textLength="182.7178" x="195" y="218.0152">&#25033;&#29992;&#23652; (Application Layer)</text></g><!--cluster DomainLayer--><g id="cluster_DomainLayer"><path d="M543.5,320.69 L700.8037,320.69 A3.75,3.75 0 0 1 703.3037,323.19 L710.3037,343.1783 L910.5,343.1783 A2.5,2.5 0 0 1 913,345.6783 L913,661.38 A2.5,2.5 0 0 1 910.5,663.88 L543.5,663.88 A2.5,2.5 0 0 1 541,661.38 L541,323.19 A2.5,2.5 0 0 1 543.5,320.69 " fill="none" style="stroke:#000000;stroke-width:1.5;"/><line style="stroke:#000000;stroke-width:1.5;" x1="541" x2="710.3037" y1="343.1783" y2="343.1783"/><text fill="#000000" font-family="sans-serif" font-size="14" font-weight="bold" lengthAdjust="spacing" textLength="156.3037" x="545" y="336.2252">&#38936;&#22495;&#23652; (Domain Layer)</text></g><!--cluster InfrastructureLayer--><g id="cluster_InfrastructureLayer"><path d="M955.5,159.48 L1185.4766,159.48 A3.75,3.75 0 0 1 1187.9766,161.98 L1194.9766,181.9683 L1752.5,181.9683 A2.5,2.5 0 0 1 1755,184.4683 L1755,566.89 A2.5,2.5 0 0 1 1752.5,569.39 L955.5,569.39 A2.5,2.5 0 0 1 953,566.89 L953,161.98 A2.5,2.5 0 0 1 955.5,159.48 " fill="none" style="stroke:#000000;stroke-width:1.5;"/><line style="stroke:#000000;stroke-width:1.5;" x1="953" x2="1194.9766" y1="181.9683" y2="181.9683"/><text fill="#000000" font-family="sans-serif" font-size="14" font-weight="bold" lengthAdjust="spacing" textLength="228.9766" x="957" y="175.0152">&#22522;&#30990;&#35373;&#26045;&#23652; (Infrastructure Layer)</text></g><!--cluster Persistence--><g id="cluster_Persistence"><path d="M995.5,210.48 L1135.7549,210.48 A3.75,3.75 0 0 1 1138.2549,212.98 L1145.2549,232.9683 L1145.5,232.9683 A2.5,2.5 0 0 1 1148,235.4683 L1148,534.89 A2.5,2.5 0 0 1 1145.5,537.39 L995.5,537.39 A2.5,2.5 0 0 1 993,534.89 L993,212.98 A2.5,2.5 0 0 1 995.5,210.48 " fill="none" style="stroke:#000000;stroke-width:1.5;"/><line style="stroke:#000000;stroke-width:1.5;" x1="993" x2="1145.2549" y1="232.9683" y2="232.9683"/><text fill="#000000" font-family="sans-serif" font-size="14" font-weight="bold" lengthAdjust="spacing" textLength="139.2549" x="997" y="226.0152">&#25345;&#20037;&#21270; (Persistence)</text></g><!--cluster External--><g id="cluster_External"><path d="M1174.5,210.48 L1305.3896,210.48 A3.75,3.75 0 0 1 1307.8896,212.98 L1314.8896,232.9683 L1478.5,232.9683 A2.5,2.5 0 0 1 1481,235.4683 L1481,423.68 A2.5,2.5 0 0 1 1478.5,426.18 L1174.5,426.18 A2.5,2.5 0 0 1 1172,423.68 L1172,212.98 A2.5,2.5 0 0 1 1174.5,210.48 " fill="none" style="stroke:#000000;stroke-width:1.5;"/><line style="stroke:#000000;stroke-width:1.5;" x1="1172" x2="1314.8896" y1="232.9683" y2="232.9683"/><text fill="#000000" font-family="sans-serif" font-size="14" font-weight="bold" lengthAdjust="spacing" textLength="129.8896" x="1176" y="226.0152">&#22806;&#37096;&#31995;&#32113; (External)</text></g><!--cluster CrossCutting--><g id="cluster_CrossCutting"><path d="M1507.5,210.48 L1711.042,210.48 A3.75,3.75 0 0 1 1713.542,212.98 L1720.542,232.9683 L1720.5,232.9683 A2.5,2.5 0 0 1 1723,235.4683 L1723,423.68 A2.5,2.5 0 0 1 1720.5,426.18 L1507.5,426.18 A2.5,2.5 0 0 1 1505,423.68 L1505,212.98 A2.5,2.5 0 0 1 1507.5,210.48 " fill="none" style="stroke:#000000;stroke-width:1.5;"/><line style="stroke:#000000;stroke-width:1.5;" x1="1505" x2="1720.542" y1="232.9683" y2="232.9683"/><text fill="#000000" font-family="sans-serif" font-size="14" font-weight="bold" lengthAdjust="spacing" textLength="202.542" x="1509" y="226.0152">&#36328;&#20999;&#38754;&#38364;&#27880;&#40670; (Cross-Cutting)</text></g><!--entity WebControllers--><g id="elem_WebControllers"><rect fill="#F1F1F1" height="46.4883" rx="2.5" ry="2.5" style="stroke:#181818;stroke-width:0.5;" width="148.3154" x="176.84" y="49"/><rect fill="#F1F1F1" height="10" style="stroke:#181818;stroke-width:0.5;" width="15" x="305.1554" y="54"/><rect fill="#F1F1F1" height="2" style="stroke:#181818;stroke-width:0.5;" width="4" x="303.1554" y="56"/><rect fill="#F1F1F1" height="2" style="stroke:#181818;stroke-width:0.5;" width="4" x="303.1554" y="60"/><text fill="#000000" font-family="sans-serif" font-size="14" lengthAdjust="spacing" textLength="108.3154" x="191.84" y="82.5352">Web Controllers</text></g><!--entity RestAPI--><g id="elem_RestAPI"><rect fill="#F1F1F1" height="46.4883" rx="2.5" ry="2.5" style="stroke:#181818;stroke-width:0.5;" width="98.6934" x="360.65" y="49"/><rect fill="#F1F1F1" height="10" style="stroke:#181818;stroke-width:0.5;" width="15" x="439.3434" y="54"/><rect fill="#F1F1F1" height="2" style="stroke:#181818;stroke-width:0.5;" width="4" x="437.3434" y="56"/><rect fill="#F1F1F1" height="2" style="stroke:#181818;stroke-width:0.5;" width="4" x="437.3434" y="60"/><text fill="#000000" font-family="sans-serif" font-size="14" lengthAdjust="spacing" textLength="58.6934" x="375.65" y="82.5352">REST API</text></g><!--entity GraphQLAPI--><g id="elem_GraphQLAPI"><rect fill="#F1F1F1" height="46.4883" rx="2.5" ry="2.5" style="stroke:#181818;stroke-width:0.5;" width="125.2783" x="494.36" y="49"/><rect fill="#F1F1F1" height="10" style="stroke:#181818;stroke-width:0.5;" width="15" x="599.6383" y="54"/><rect fill="#F1F1F1" height="2" style="stroke:#181818;stroke-width:0.5;" width="4" x="597.6383" y="56"/><rect fill="#F1F1F1" height="2" style="stroke:#181818;stroke-width:0.5;" width="4" x="597.6383" y="60"/><text fill="#000000" font-family="sans-serif" font-size="14" lengthAdjust="spacing" textLength="85.2783" x="509.36" y="82.5352">GraphQL API</text></g><!--entity InterfaceDTO--><g id="elem_InterfaceDTO"><rect fill="#F1F1F1" height="46.4883" rx="2.5" ry="2.5" style="stroke:#181818;stroke-width:0.5;" width="112.2148" x="29.89" y="49"/><rect fill="#F1F1F1" height="10" style="stroke:#181818;stroke-width:0.5;" width="15" x="122.1048" y="54"/><rect fill="#F1F1F1" height="2" style="stroke:#181818;stroke-width:0.5;" width="4" x="120.1048" y="56"/><rect fill="#F1F1F1" height="2" style="stroke:#181818;stroke-width:0.5;" width="4" x="120.1048" y="60"/><text fill="#000000" font-family="sans-serif" font-size="14" lengthAdjust="spacing" textLength="72.2148" x="44.89" y="82.5352">&#20171;&#38754;&#23652;DTO</text></g><!--entity ApplicationServices--><g id="elem_ApplicationServices"><rect fill="#F1F1F1" height="46.4883" rx="2.5" ry="2.5" style="stroke:#181818;stroke-width:0.5;" width="96" x="362" y="245.48"/><rect fill="#F1F1F1" height="10" style="stroke:#181818;stroke-width:0.5;" width="15" x="438" y="250.48"/><rect fill="#F1F1F1" height="2" style="stroke:#181818;stroke-width:0.5;" width="4" x="436" y="252.48"/><rect fill="#F1F1F1" height="2" style="stroke:#181818;stroke-width:0.5;" width="4" x="436" y="256.48"/><text fill="#000000" font-family="sans-serif" font-size="14" lengthAdjust="spacing" textLength="56" x="377" y="279.0152">&#25033;&#29992;&#26381;&#21209;</text></g><!--entity ApplicationDTO--><g id="elem_ApplicationDTO"><rect fill="#F1F1F1" height="46.4883" rx="2.5" ry="2.5" style="stroke:#181818;stroke-width:0.5;" width="112.2148" x="214.89" y="245.48"/><rect fill="#F1F1F1" height="10" style="stroke:#181818;stroke-width:0.5;" width="15" x="307.1048" y="250.48"/><rect fill="#F1F1F1" height="2" style="stroke:#181818;stroke-width:0.5;" width="4" x="305.1048" y="252.48"/><rect fill="#F1F1F1" height="2" style="stroke:#181818;stroke-width:0.5;" width="4" x="305.1048" y="256.48"/><text fill="#000000" font-family="sans-serif" font-size="14" lengthAdjust="spacing" textLength="72.2148" x="229.89" y="279.0152">&#25033;&#29992;&#23652;DTO</text></g><!--entity Mappers--><g id="elem_Mappers"><rect fill="#F1F1F1" height="46.4883" rx="2.5" ry="2.5" style="stroke:#181818;stroke-width:0.5;" width="82" x="233" y="363.69"/><rect fill="#F1F1F1" height="10" style="stroke:#181818;stroke-width:0.5;" width="15" x="295" y="368.69"/><rect fill="#F1F1F1" height="2" style="stroke:#181818;stroke-width:0.5;" width="4" x="293" y="370.69"/><rect fill="#F1F1F1" height="2" style="stroke:#181818;stroke-width:0.5;" width="4" x="293" y="374.69"/><text fill="#000000" font-family="sans-serif" font-size="14" lengthAdjust="spacing" textLength="42" x="248" y="397.2252">&#26144;&#23556;&#22120;</text></g><!--entity Commands--><g id="elem_Commands"><rect fill="#F1F1F1" height="46.4883" rx="2.5" ry="2.5" style="stroke:#181818;stroke-width:0.5;" width="103.3418" x="354.33" y="363.69"/><rect fill="#F1F1F1" height="10" style="stroke:#181818;stroke-width:0.5;" width="15" x="437.6718" y="368.69"/><rect fill="#F1F1F1" height="2" style="stroke:#181818;stroke-width:0.5;" width="4" x="435.6718" y="370.69"/><rect fill="#F1F1F1" height="2" style="stroke:#181818;stroke-width:0.5;" width="4" x="435.6718" y="374.69"/><text fill="#000000" font-family="sans-serif" font-size="14" lengthAdjust="spacing" textLength="63.3418" x="369.33" y="397.2252">&#21629;&#20196;/&#26597;&#35426;</text></g><!--entity AggregateRoots--><g id="elem_AggregateRoots"><rect fill="#F1F1F1" height="46.4883" rx="2.5" ry="2.5" style="stroke:#181818;stroke-width:0.5;" width="82" x="568" y="474.9"/><rect fill="#F1F1F1" height="10" style="stroke:#181818;stroke-width:0.5;" width="15" x="630" y="479.9"/><rect fill="#F1F1F1" height="2" style="stroke:#181818;stroke-width:0.5;" width="4" x="628" y="481.9"/><rect fill="#F1F1F1" height="2" style="stroke:#181818;stroke-width:0.5;" width="4" x="628" y="485.9"/><text fill="#000000" font-family="sans-serif" font-size="14" lengthAdjust="spacing" textLength="42" x="583" y="508.4352">&#32858;&#21512;&#26681;</text></g><!--entity Entities--><g id="elem_Entities"><rect fill="#F1F1F1" height="46.4883" rx="2.5" ry="2.5" style="stroke:#181818;stroke-width:0.5;" width="68" x="565" y="593.39"/><rect fill="#F1F1F1" height="10" style="stroke:#181818;stroke-width:0.5;" width="15" x="613" y="598.39"/><rect fill="#F1F1F1" height="2" style="stroke:#181818;stroke-width:0.5;" width="4" x="611" y="600.39"/><rect fill="#F1F1F1" height="2" style="stroke:#181818;stroke-width:0.5;" width="4" x="611" y="604.39"/><text fill="#000000" font-family="sans-serif" font-size="14" lengthAdjust="spacing" textLength="28" x="580" y="626.9252">&#23526;&#39636;</text></g><!--entity ValueObjects--><g id="elem_ValueObjects"><rect fill="#F1F1F1" height="46.4883" rx="2.5" ry="2.5" style="stroke:#181818;stroke-width:0.5;" width="82" x="668" y="593.39"/><rect fill="#F1F1F1" height="10" style="stroke:#181818;stroke-width:0.5;" width="15" x="730" y="598.39"/><rect fill="#F1F1F1" height="2" style="stroke:#181818;stroke-width:0.5;" width="4" x="728" y="600.39"/><rect fill="#F1F1F1" height="2" style="stroke:#181818;stroke-width:0.5;" width="4" x="728" y="604.39"/><text fill="#000000" font-family="sans-serif" font-size="14" lengthAdjust="spacing" textLength="42" x="683" y="626.9252">&#20540;&#23565;&#35937;</text></g><!--entity DomainEvents--><g id="elem_DomainEvents"><rect fill="#F1F1F1" height="46.4883" rx="2.5" ry="2.5" style="stroke:#181818;stroke-width:0.5;" width="96" x="785" y="593.39"/><rect fill="#F1F1F1" height="10" style="stroke:#181818;stroke-width:0.5;" width="15" x="861" y="598.39"/><rect fill="#F1F1F1" height="2" style="stroke:#181818;stroke-width:0.5;" width="4" x="859" y="600.39"/><rect fill="#F1F1F1" height="2" style="stroke:#181818;stroke-width:0.5;" width="4" x="859" y="604.39"/><text fill="#000000" font-family="sans-serif" font-size="14" lengthAdjust="spacing" textLength="56" x="800" y="626.9252">&#38936;&#22495;&#20107;&#20214;</text></g><!--entity DomainServices--><g id="elem_DomainServices"><rect fill="#F1F1F1" height="46.4883" rx="2.5" ry="2.5" style="stroke:#181818;stroke-width:0.5;" width="96" x="565" y="363.69"/><rect fill="#F1F1F1" height="10" style="stroke:#181818;stroke-width:0.5;" width="15" x="641" y="368.69"/><rect fill="#F1F1F1" height="2" style="stroke:#181818;stroke-width:0.5;" width="4" x="639" y="370.69"/><rect fill="#F1F1F1" height="2" style="stroke:#181818;stroke-width:0.5;" width="4" x="639" y="374.69"/><text fill="#000000" font-family="sans-serif" font-size="14" lengthAdjust="spacing" textLength="56" x="580" y="397.2252">&#38936;&#22495;&#26381;&#21209;</text></g><!--entity RepositoryInterfaces--><g id="elem_RepositoryInterfaces"><rect fill="#F1F1F1" height="46.4883" rx="2.5" ry="2.5" style="stroke:#181818;stroke-width:0.5;" width="110" x="696" y="363.69"/><rect fill="#F1F1F1" height="10" style="stroke:#181818;stroke-width:0.5;" width="15" x="786" y="368.69"/><rect fill="#F1F1F1" height="2" style="stroke:#181818;stroke-width:0.5;" width="4" x="784" y="370.69"/><rect fill="#F1F1F1" height="2" style="stroke:#181818;stroke-width:0.5;" width="4" x="784" y="374.69"/><text fill="#000000" font-family="sans-serif" font-size="14" lengthAdjust="spacing" textLength="70" x="711" y="397.2252">&#20786;&#23384;&#24235;&#25509;&#21475;</text></g><!--entity Specifications--><g id="elem_Specifications"><rect fill="#F1F1F1" height="46.4883" rx="2.5" ry="2.5" style="stroke:#181818;stroke-width:0.5;" width="68" x="685" y="474.9"/><rect fill="#F1F1F1" height="10" style="stroke:#181818;stroke-width:0.5;" width="15" x="733" y="479.9"/><rect fill="#F1F1F1" height="2" style="stroke:#181818;stroke-width:0.5;" width="4" x="731" y="481.9"/><rect fill="#F1F1F1" height="2" style="stroke:#181818;stroke-width:0.5;" width="4" x="731" y="485.9"/><text fill="#000000" font-family="sans-serif" font-size="14" lengthAdjust="spacing" textLength="28" x="700" y="508.4352">&#35215;&#26684;</text></g><!--entity RepositoryImplementations--><g id="elem_RepositoryImplementations"><rect fill="#F1F1F1" height="46.4883" rx="2.5" ry="2.5" style="stroke:#181818;stroke-width:0.5;" width="110" x="1009" y="245.48"/><rect fill="#F1F1F1" height="10" style="stroke:#181818;stroke-width:0.5;" width="15" x="1099" y="250.48"/><rect fill="#F1F1F1" height="2" style="stroke:#181818;stroke-width:0.5;" width="4" x="1097" y="252.48"/><rect fill="#F1F1F1" height="2" style="stroke:#181818;stroke-width:0.5;" width="4" x="1097" y="256.48"/><text fill="#000000" font-family="sans-serif" font-size="14" lengthAdjust="spacing" textLength="70" x="1024" y="279.0152">&#20786;&#23384;&#24235;&#23526;&#29694;</text></g><!--entity ORM--><g id="elem_ORM"><rect fill="#F1F1F1" height="46.4883" rx="2.5" ry="2.5" style="stroke:#181818;stroke-width:0.5;" width="99.7871" x="1014.11" y="363.69"/><rect fill="#F1F1F1" height="10" style="stroke:#181818;stroke-width:0.5;" width="15" x="1093.8971" y="368.69"/><rect fill="#F1F1F1" height="2" style="stroke:#181818;stroke-width:0.5;" width="4" x="1091.8971" y="370.69"/><rect fill="#F1F1F1" height="2" style="stroke:#181818;stroke-width:0.5;" width="4" x="1091.8971" y="374.69"/><text fill="#000000" font-family="sans-serif" font-size="14" lengthAdjust="spacing" textLength="59.7871" x="1029.11" y="397.2252">ORM&#26144;&#23556;</text></g><!--entity Database--><g id="elem_Database"><rect fill="#F1F1F1" height="46.4883" rx="2.5" ry="2.5" style="stroke:#181818;stroke-width:0.5;" width="82" x="1023" y="474.9"/><rect fill="#F1F1F1" height="10" style="stroke:#181818;stroke-width:0.5;" width="15" x="1085" y="479.9"/><rect fill="#F1F1F1" height="2" style="stroke:#181818;stroke-width:0.5;" width="4" x="1083" y="481.9"/><rect fill="#F1F1F1" height="2" style="stroke:#181818;stroke-width:0.5;" width="4" x="1083" y="485.9"/><text fill="#000000" font-family="sans-serif" font-size="14" lengthAdjust="spacing" textLength="42" x="1038" y="508.4352">&#25976;&#25818;&#24235;</text></g><!--entity ExternalAdapters--><g id="elem_ExternalAdapters"><rect fill="#F1F1F1" height="46.4883" rx="2.5" ry="2.5" style="stroke:#181818;stroke-width:0.5;" width="138" x="1259" y="245.48"/><rect fill="#F1F1F1" height="10" style="stroke:#181818;stroke-width:0.5;" width="15" x="1377" y="250.48"/><rect fill="#F1F1F1" height="2" style="stroke:#181818;stroke-width:0.5;" width="4" x="1375" y="252.48"/><rect fill="#F1F1F1" height="2" style="stroke:#181818;stroke-width:0.5;" width="4" x="1375" y="256.48"/><text fill="#000000" font-family="sans-serif" font-size="14" lengthAdjust="spacing" textLength="98" x="1274" y="279.0152">&#22806;&#37096;&#26381;&#21209;&#36969;&#37197;&#22120;</text></g><!--entity MessageQueue--><g id="elem_MessageQueue"><rect fill="#F1F1F1" height="46.4883" rx="2.5" ry="2.5" style="stroke:#181818;stroke-width:0.5;" width="96" x="1369" y="363.69"/><rect fill="#F1F1F1" height="10" style="stroke:#181818;stroke-width:0.5;" width="15" x="1445" y="368.69"/><rect fill="#F1F1F1" height="2" style="stroke:#181818;stroke-width:0.5;" width="4" x="1443" y="370.69"/><rect fill="#F1F1F1" height="2" style="stroke:#181818;stroke-width:0.5;" width="4" x="1443" y="374.69"/><text fill="#000000" font-family="sans-serif" font-size="14" lengthAdjust="spacing" textLength="56" x="1384" y="397.2252">&#28040;&#24687;&#38538;&#21015;</text></g><!--entity ThirdPartyClients--><g id="elem_ThirdPartyClients"><rect fill="#F1F1F1" height="46.4883" rx="2.5" ry="2.5" style="stroke:#181818;stroke-width:0.5;" width="145.4307" x="1188.28" y="363.69"/><rect fill="#F1F1F1" height="10" style="stroke:#181818;stroke-width:0.5;" width="15" x="1313.7107" y="368.69"/><rect fill="#F1F1F1" height="2" style="stroke:#181818;stroke-width:0.5;" width="4" x="1311.7107" y="370.69"/><rect fill="#F1F1F1" height="2" style="stroke:#181818;stroke-width:0.5;" width="4" x="1311.7107" y="374.69"/><text fill="#000000" font-family="sans-serif" font-size="14" lengthAdjust="spacing" textLength="105.4307" x="1203.28" y="397.2252">&#31532;&#19977;&#26041;API&#23458;&#25142;&#31471;</text></g><!--entity Logging--><g id="elem_Logging"><rect fill="#F1F1F1" height="46.4883" rx="2.5" ry="2.5" style="stroke:#181818;stroke-width:0.5;" width="68" x="1528" y="245.48"/><rect fill="#F1F1F1" height="10" style="stroke:#181818;stroke-width:0.5;" width="15" x="1576" y="250.48"/><rect fill="#F1F1F1" height="2" style="stroke:#181818;stroke-width:0.5;" width="4" x="1574" y="252.48"/><rect fill="#F1F1F1" height="2" style="stroke:#181818;stroke-width:0.5;" width="4" x="1574" y="256.48"/><text fill="#000000" font-family="sans-serif" font-size="14" lengthAdjust="spacing" textLength="28" x="1543" y="279.0152">&#26085;&#35468;</text></g><!--entity Security--><g id="elem_Security"><rect fill="#F1F1F1" height="46.4883" rx="2.5" ry="2.5" style="stroke:#181818;stroke-width:0.5;" width="68" x="1631" y="245.48"/><rect fill="#F1F1F1" height="10" style="stroke:#181818;stroke-width:0.5;" width="15" x="1679" y="250.48"/><rect fill="#F1F1F1" height="2" style="stroke:#181818;stroke-width:0.5;" width="4" x="1677" y="252.48"/><rect fill="#F1F1F1" height="2" style="stroke:#181818;stroke-width:0.5;" width="4" x="1677" y="256.48"/><text fill="#000000" font-family="sans-serif" font-size="14" lengthAdjust="spacing" textLength="28" x="1646" y="279.0152">&#23433;&#20840;</text></g><!--entity Configuration--><g id="elem_Configuration"><rect fill="#F1F1F1" height="46.4883" rx="2.5" ry="2.5" style="stroke:#181818;stroke-width:0.5;" width="68" x="1528" y="363.69"/><rect fill="#F1F1F1" height="10" style="stroke:#181818;stroke-width:0.5;" width="15" x="1576" y="368.69"/><rect fill="#F1F1F1" height="2" style="stroke:#181818;stroke-width:0.5;" width="4" x="1574" y="370.69"/><rect fill="#F1F1F1" height="2" style="stroke:#181818;stroke-width:0.5;" width="4" x="1574" y="374.69"/><text fill="#000000" font-family="sans-serif" font-size="14" lengthAdjust="spacing" textLength="28" x="1543" y="397.2252">&#37197;&#32622;</text></g><g id="elem_GMN57"><path d="M690.5,44.27 L690.5,100.2016 L815.5,100.2016 L815.5,54.27 L805.5,44.27 L690.5,44.27 " fill="#FEFFDD" style="stroke:#181818;stroke-width:0.5;"/><path d="M805.5,44.27 L805.5,54.27 L815.5,54.27 L805.5,44.27 " fill="#FEFFDD" style="stroke:#181818;stroke-width:1;"/><text fill="#000000" font-family="sans-serif" font-size="13" lengthAdjust="spacing" textLength="78" x="696.5" y="61.8384">&#34389;&#29702;&#29992;&#25142;&#20132;&#20114;</text><text fill="#000000" font-family="sans-serif" font-size="13" lengthAdjust="spacing" textLength="78" x="696.5" y="77.1489">&#21482;&#20381;&#36084;&#25033;&#29992;&#23652;</text><text fill="#000000" font-family="sans-serif" font-size="13" lengthAdjust="spacing" textLength="104" x="696.5" y="92.4595">&#19981;&#30452;&#25509;&#20381;&#36084;&#38936;&#22495;&#23652;</text></g><g id="elem_GMN60"><path d="M1778.5,240.76 L1778.5,296.6916 L1929.5,296.6916 L1929.5,250.76 L1919.5,240.76 L1778.5,240.76 " fill="#FEFFDD" style="stroke:#181818;stroke-width:0.5;"/><path d="M1919.5,240.76 L1919.5,250.76 L1929.5,250.76 L1919.5,240.76 " fill="#FEFFDD" style="stroke:#181818;stroke-width:1;"/><text fill="#000000" font-family="sans-serif" font-size="13" lengthAdjust="spacing" textLength="130" x="1784.5" y="258.3284">&#21332;&#35519;&#38936;&#22495;&#23565;&#35937;&#23436;&#25104;&#29992;&#20363;</text><text fill="#000000" font-family="sans-serif" font-size="13" lengthAdjust="spacing" textLength="78" x="1784.5" y="273.6389">&#21482;&#20381;&#36084;&#38936;&#22495;&#23652;</text><text fill="#000000" font-family="sans-serif" font-size="13" lengthAdjust="spacing" textLength="78" x="1784.5" y="288.9495">&#36000;&#36012;&#25976;&#25818;&#36681;&#25563;</text></g><g id="elem_GMN63"><path d="M1778.5,358.97 L1778.5,414.9016 L1955.5,414.9016 L1955.5,368.97 L1945.5,358.97 L1778.5,358.97 " fill="#FEFFDD" style="stroke:#181818;stroke-width:0.5;"/><path d="M1945.5,358.97 L1945.5,368.97 L1955.5,368.97 L1945.5,358.97 " fill="#FEFFDD" style="stroke:#181818;stroke-width:1;"/><text fill="#000000" font-family="sans-serif" font-size="13" lengthAdjust="spacing" textLength="143" x="1784.5" y="376.5384">&#21253;&#21547;&#26989;&#21209;&#26680;&#24515;&#37007;&#36655;&#21644;&#35215;&#21063;</text><text fill="#000000" font-family="sans-serif" font-size="13" lengthAdjust="spacing" textLength="78" x="1784.5" y="391.8489">&#19981;&#20381;&#36084;&#20854;&#20182;&#23652;</text><text fill="#000000" font-family="sans-serif" font-size="13" lengthAdjust="spacing" textLength="156" x="1784.5" y="407.1595">&#23450;&#32681;&#25509;&#21475;&#30001;&#22522;&#30990;&#35373;&#26045;&#23652;&#23526;&#29694;</text></g><g id="elem_GMN66"><path d="M1964.5,240.76 L1964.5,296.6916 L2115.5,296.6916 L2115.5,250.76 L2105.5,240.76 L1964.5,240.76 " fill="#FEFFDD" style="stroke:#181818;stroke-width:0.5;"/><path d="M2105.5,240.76 L2105.5,250.76 L2115.5,250.76 L2105.5,240.76 " fill="#FEFFDD" style="stroke:#181818;stroke-width:1;"/><text fill="#000000" font-family="sans-serif" font-size="13" lengthAdjust="spacing" textLength="78" x="1970.5" y="258.3284">&#25552;&#20379;&#25216;&#34899;&#23526;&#29694;</text><text fill="#000000" font-family="sans-serif" font-size="13" lengthAdjust="spacing" textLength="65" x="1970.5" y="273.6389">&#20381;&#36084;&#38936;&#22495;&#23652;</text><text fill="#000000" font-family="sans-serif" font-size="13" lengthAdjust="spacing" textLength="130" x="1970.5" y="288.9495">&#23526;&#29694;&#38936;&#22495;&#23652;&#23450;&#32681;&#30340;&#25509;&#21475;</text></g><g id="elem_GMN69"><path d="M185.5,477.84 L185.5,518.4611 A0,0 0 0 0 185.5,518.4611 L362.5,518.4611 A0,0 0 0 0 362.5,518.4611 L362.5,487.84 L352.5,477.84 L264.33,477.84 L260.33,410.52 L256.33,477.84 L185.5,477.84 A0,0 0 0 0 185.5,477.84 " fill="#FEFFDD" style="stroke:#181818;stroke-width:0.5;"/><path d="M352.5,477.84 L352.5,487.84 L362.5,487.84 L352.5,477.84 " fill="#FEFFDD" style="stroke:#181818;stroke-width:0.5;"/><text fill="#000000" font-family="sans-serif" font-size="13" lengthAdjust="spacing" textLength="156" x="191.5" y="495.4084">&#36000;&#36012;&#22312;&#19981;&#21516;&#23652;&#20043;&#38291;&#36681;&#25563;&#25976;&#25818;</text><text fill="#000000" font-family="sans-serif" font-size="13" lengthAdjust="spacing" textLength="143" x="191.5" y="510.7189">&#38450;&#27490;&#38936;&#22495;&#27169;&#22411;&#27945;&#38706;&#21040;&#22806;&#37096;</text></g><!--link InterfaceDTO to ApplicationDTO--><g id="link_InterfaceDTO_ApplicationDTO"><path d="M86,95.96 C86,148.26 86,268.88 86,268.88 C86,268.88 154.08,268.88 208.49,268.88 " fill="none" id="InterfaceDTO-to-ApplicationDTO" style="stroke:#0000FF;stroke-width:1;"/><polygon fill="#0000FF" points="214.49,268.88,205.49,264.88,209.49,268.88,205.49,272.88,214.49,268.88" style="stroke:#0000FF;stroke-width:1;"/><text fill="#000000" font-family="sans-serif" font-size="13" lengthAdjust="spacing" textLength="26" x="59" y="243.2284">&#36681;&#25563;</text></g><!--link ApplicationDTO to Mappers--><g id="link_ApplicationDTO_Mappers"><path d="M274,292.37 C274,312.98 274,336.74 274,357.34 " fill="none" id="ApplicationDTO-to-Mappers" style="stroke:#0000FF;stroke-width:1;"/><polygon fill="#0000FF" points="274,363.34,278,354.34,274,358.34,270,354.34,274,363.34" style="stroke:#0000FF;stroke-width:1;"/></g><!--link Mappers to AggregateRoots--><g id="link_Mappers_AggregateRoots"><path d="M287.67,410.5 C287.67,426.55 287.67,444.88 287.67,444.88 C287.67,444.88 595.33,444.88 595.33,444.88 C595.33,444.88 595.33,454.36 595.33,468.63 " fill="none" id="Mappers-to-AggregateRoots" style="stroke:#0000FF;stroke-width:1;"/><polygon fill="#0000FF" points="595.33,474.63,599.33,465.63,595.33,469.63,591.33,465.63,595.33,474.63" style="stroke:#0000FF;stroke-width:1;"/></g><!--link WebControllers to ApplicationServices--><g id="link_WebControllers_ApplicationServices"><path d="M325.5,71.88 C334.57,71.88 340.72,71.88 340.72,71.88 C340.72,71.88 340.72,268.88 340.72,268.88 C340.72,268.88 343.86,268.88 355.51,268.88 " fill="none" id="WebControllers-to-ApplicationServices" style="stroke:#0000FF;stroke-width:1;"/><polygon fill="#0000FF" points="361.51,268.88,352.51,264.88,356.51,268.88,352.51,272.88,361.51,268.88" style="stroke:#0000FF;stroke-width:1;"/><text fill="#000000" font-family="sans-serif" font-size="13" lengthAdjust="spacing" textLength="26" x="313.72" y="169.7284">&#20351;&#29992;</text></g><!--link RestAPI to ApplicationServices--><g id="link_RestAPI_ApplicationServices"><path d="M410,95.94 C410,133.81 410,201.52 410,239.25 " fill="none" id="RestAPI-to-ApplicationServices" style="stroke:#0000FF;stroke-width:1;"/><polygon fill="#0000FF" points="410,245.25,414,236.25,410,240.25,406,236.25,410,245.25" style="stroke:#0000FF;stroke-width:1;"/><text fill="#000000" font-family="sans-serif" font-size="13" lengthAdjust="spacing" textLength="26" x="383" y="167.1584">&#20351;&#29992;</text></g><!--link GraphQLAPI to ApplicationServices--><g id="link_GraphQLAPI_ApplicationServices"><path d="M529.68,95.62 C529.68,145.31 529.68,256.88 529.68,256.88 C529.68,256.88 497.55,256.88 464.33,256.88 " fill="none" id="GraphQLAPI-to-ApplicationServices" style="stroke:#0000FF;stroke-width:1;"/><polygon fill="#0000FF" points="458.33,256.88,467.33,260.88,463.33,256.88,467.33,252.88,458.33,256.88" style="stroke:#0000FF;stroke-width:1;"/><text fill="#000000" font-family="sans-serif" font-size="13" lengthAdjust="spacing" textLength="26" x="502.68" y="208.4984">&#20351;&#29992;</text></g><!--link ApplicationServices to Commands--><g id="link_ApplicationServices_Commands"><path d="M409.84,292.37 C409.84,312.98 409.84,336.74 409.84,357.34 " fill="none" id="ApplicationServices-to-Commands" style="stroke:#0000FF;stroke-width:1;"/><polygon fill="#0000FF" points="409.84,363.34,413.84,354.34,409.84,358.34,405.84,354.34,409.84,363.34" style="stroke:#0000FF;stroke-width:1;"/><text fill="#000000" font-family="sans-serif" font-size="13" lengthAdjust="spacing" textLength="26" x="382.84" y="324.4184">&#34389;&#29702;</text></g><!--link ApplicationServices to AggregateRoots--><g id="link_ApplicationServices_AggregateRoots"><path d="M458.42,287.88 C468.26,287.88 475.67,287.88 475.67,287.88 C475.67,287.88 475.67,497.88 475.67,497.88 C475.67,497.88 522.41,497.88 561.55,497.88 " fill="none" id="ApplicationServices-to-AggregateRoots" style="stroke:#0000FF;stroke-width:1;"/><polygon fill="#0000FF" points="567.55,497.88,558.55,493.88,562.55,497.88,558.55,501.88,567.55,497.88" style="stroke:#0000FF;stroke-width:1;"/><text fill="#000000" font-family="sans-serif" font-size="13" lengthAdjust="spacing" textLength="26" x="448.67" y="426.7584">&#25805;&#20316;</text></g><!--link ApplicationServices to DomainServices--><g id="link_ApplicationServices_DomainServices"><path d="M458.38,282.88 C512.39,282.88 592.32,282.88 592.32,282.88 C592.32,282.88 592.32,326.62 592.32,357.33 " fill="none" id="ApplicationServices-to-DomainServices" style="stroke:#0000FF;stroke-width:1;"/><polygon fill="#0000FF" points="592.32,363.33,596.32,354.33,592.32,358.33,588.32,354.33,592.32,363.33" style="stroke:#0000FF;stroke-width:1;"/><text fill="#000000" font-family="sans-serif" font-size="13" lengthAdjust="spacing" textLength="26" x="538.57" y="279.4484">&#20351;&#29992;</text></g><!--link ApplicationServices to RepositoryInterfaces--><g id="link_ApplicationServices_RepositoryInterfaces"><path d="M458.31,273.88 C548.32,273.88 732.67,273.88 732.67,273.88 C732.67,273.88 732.67,324.08 732.67,357.24 " fill="none" id="ApplicationServices-to-RepositoryInterfaces" style="stroke:#0000FF;stroke-width:1;"/><polygon fill="#0000FF" points="732.67,363.24,736.67,354.24,732.67,358.24,728.67,354.24,732.67,363.24" style="stroke:#0000FF;stroke-width:1;"/><text fill="#000000" font-family="sans-serif" font-size="13" lengthAdjust="spacing" textLength="26" x="613.17" y="270.4484">&#20351;&#29992;</text></g><!--link AggregateRoots to Entities--><g id="link_AggregateRoots_Entities"><path d="M600.5,521.84 C600.5,542.51 600.5,566.33 600.5,586.98 " fill="none" id="AggregateRoots-to-Entities" style="stroke:#0000FF;stroke-width:1;"/><polygon fill="#0000FF" points="600.5,592.98,604.5,583.98,600.5,587.98,596.5,583.98,600.5,592.98" style="stroke:#0000FF;stroke-width:1;"/><text fill="#000000" font-family="sans-serif" font-size="13" lengthAdjust="spacing" textLength="26" x="573.5" y="553.9784">&#21253;&#21547;</text></g><!--link AggregateRoots to ValueObjects--><g id="link_AggregateRoots_ValueObjects"><path d="M644.33,521.89 C644.33,556.54 644.33,616.88 644.33,616.88 C644.33,616.88 649.01,616.88 661.68,616.88 " fill="none" id="AggregateRoots-to-ValueObjects" style="stroke:#0000FF;stroke-width:1;"/><polygon fill="#0000FF" points="667.68,616.88,658.68,612.88,662.68,616.88,658.68,620.88,667.68,616.88" style="stroke:#0000FF;stroke-width:1;"/><text fill="#000000" font-family="sans-serif" font-size="13" lengthAdjust="spacing" textLength="26" x="617.33" y="577.6284">&#20351;&#29992;</text></g><!--link AggregateRoots to DomainEvents--><g id="link_AggregateRoots_DomainEvents"><path d="M638.67,521.64 C638.67,542.56 638.67,569.88 638.67,569.88 C638.67,569.88 795.5,569.88 795.5,569.88 C795.5,569.88 795.5,575.39 795.5,586.98 " fill="none" id="AggregateRoots-to-DomainEvents" style="stroke:#0000FF;stroke-width:1;"/><polygon fill="#0000FF" points="795.5,592.98,799.5,583.98,795.5,587.98,791.5,583.98,795.5,592.98" style="stroke:#0000FF;stroke-width:1;"/><text fill="#000000" font-family="sans-serif" font-size="13" lengthAdjust="spacing" textLength="26" x="677.51" y="566.4484">&#30332;&#24067;</text></g><!--link DomainServices to AggregateRoots--><g id="link_DomainServices_AggregateRoots"><path d="M622.67,410.52 C622.67,429.4 622.67,449.73 622.67,468.6 " fill="none" id="DomainServices-to-AggregateRoots" style="stroke:#0000FF;stroke-width:1;"/><polygon fill="#0000FF" points="622.67,474.6,626.67,465.6,622.67,469.6,618.67,465.6,622.67,474.6" style="stroke:#0000FF;stroke-width:1;"/><text fill="#000000" font-family="sans-serif" font-size="13" lengthAdjust="spacing" textLength="26" x="595.67" y="439.1284">&#21332;&#35519;</text></g><!--link DomainServices to Specifications--><g id="link_DomainServices_Specifications"><path d="M655.5,410.44 C655.5,445.1 655.5,505.88 655.5,505.88 C655.5,505.88 663.69,505.88 678.65,505.88 " fill="none" id="DomainServices-to-Specifications" style="stroke:#0000FF;stroke-width:1;"/><polygon fill="#0000FF" points="684.65,505.88,675.65,501.88,679.65,505.88,675.65,509.88,684.65,505.88" style="stroke:#0000FF;stroke-width:1;"/><text fill="#000000" font-family="sans-serif" font-size="13" lengthAdjust="spacing" textLength="26" x="628.5" y="469.2984">&#20351;&#29992;</text></g><!--link RepositoryInterfaces to AggregateRoots--><g id="link_RepositoryInterfaces_AggregateRoots"><path d="M695.69,386.88 C684.71,386.88 676.5,386.88 676.5,386.88 C676.5,386.88 676.5,490.88 676.5,490.88 C676.5,490.88 670.26,490.88 656.21,490.88 " fill="none" id="RepositoryInterfaces-to-AggregateRoots" style="stroke:#0000FF;stroke-width:1;"/><polygon fill="#0000FF" points="650.21,490.88,659.21,494.88,655.21,490.88,659.21,486.88,650.21,490.88" style="stroke:#0000FF;stroke-width:1;"/><text fill="#000000" font-family="sans-serif" font-size="13" lengthAdjust="spacing" textLength="26" x="649.5" y="438.9984">&#31649;&#29702;</text></g><!--link RepositoryImplementations to RepositoryInterfaces--><g id="link_RepositoryImplementations_RepositoryInterfaces"><path d="M1008.58,278.88 C923.22,278.88 769.33,278.88 769.33,278.88 C769.33,278.88 769.33,325.42 769.33,357.22 " fill="none" id="RepositoryImplementations-to-RepositoryInterfaces" style="stroke:#0000FF;stroke-width:1;"/><polygon fill="#0000FF" points="769.33,363.22,773.33,354.22,769.33,358.22,765.33,354.22,769.33,363.22" style="stroke:#0000FF;stroke-width:1;"/><text fill="#000000" font-family="sans-serif" font-size="13" lengthAdjust="spacing" textLength="26" x="819.78" y="275.4484">&#23526;&#29694;</text></g><!--link RepositoryImplementations to ORM--><g id="link_RepositoryImplementations_ORM"><path d="M1064,292.37 C1064,312.98 1064,336.74 1064,357.34 " fill="none" id="RepositoryImplementations-to-ORM" style="stroke:#0000FF;stroke-width:1;"/><polygon fill="#0000FF" points="1064,363.34,1068,354.34,1064,358.34,1060,354.34,1064,363.34" style="stroke:#0000FF;stroke-width:1;"/><text fill="#000000" font-family="sans-serif" font-size="13" lengthAdjust="spacing" textLength="26" x="1037" y="324.4184">&#20351;&#29992;</text></g><!--link ORM to Database--><g id="link_ORM_Database"><path d="M1064,410.52 C1064,429.4 1064,449.73 1064,468.6 " fill="none" id="ORM-to-Database" style="stroke:#0000FF;stroke-width:1;"/><polygon fill="#0000FF" points="1064,474.6,1068,465.6,1064,469.6,1060,465.6,1064,474.6" style="stroke:#0000FF;stroke-width:1;"/><text fill="#000000" font-family="sans-serif" font-size="13" lengthAdjust="spacing" textLength="26" x="1037" y="439.1284">&#35370;&#21839;</text></g><!--link ExternalAdapters to ThirdPartyClients--><g id="link_ExternalAdapters_ThirdPartyClients"><path d="M1296.36,292.37 C1296.36,312.98 1296.36,336.74 1296.36,357.34 " fill="none" id="ExternalAdapters-to-ThirdPartyClients" style="stroke:#0000FF;stroke-width:1;"/><polygon fill="#0000FF" points="1296.36,363.34,1300.36,354.34,1296.36,358.34,1292.36,354.34,1296.36,363.34" style="stroke:#0000FF;stroke-width:1;"/><text fill="#000000" font-family="sans-serif" font-size="13" lengthAdjust="spacing" textLength="26" x="1269.36" y="324.4184">&#20351;&#29992;</text></g><!--link ExternalAdapters to MessageQueue--><g id="link_ExternalAdapters_MessageQueue"><path d="M1383,292.37 C1383,312.98 1383,336.74 1383,357.34 " fill="none" id="ExternalAdapters-to-MessageQueue" style="stroke:#0000FF;stroke-width:1;"/><polygon fill="#0000FF" points="1383,363.34,1387,354.34,1383,358.34,1379,354.34,1383,363.34" style="stroke:#0000FF;stroke-width:1;"/><text fill="#000000" font-family="sans-serif" font-size="13" lengthAdjust="spacing" textLength="26" x="1356" y="324.4184">&#20351;&#29992;</text></g><!--link InterfacesLayer to ApplicationLayer--><g id="link_InterfacesLayer_ApplicationLayer"><path d="M655,120.4374 C655,120.7627 655,121.0889 655,121.4162 C655,122.0706 655,122.729 655,123.3911 C655,128.6879 655,134.224 655,139.9122 C655,151.2886 655,163.2731 655,175.1675 C655,222.745 655,268.88 655,268.88 C655,268.88 617.6025,268.88 578.7438,268.88 C559.3144,268.88 539.5197,268.88 523.8517,268.88 C516.0177,268.88 509.2154,268.88 504.0063,268.88 C503.3552,268.88 502.7289,268.88 502.1287,268.88 C501.8285,268.88 507.5349,268.88 507.2479,268.88 " fill="none" id="InterfacesLayer-to-ApplicationLayer" style="stroke:#FF0000;stroke-width:1;"/><polygon fill="#FF0000" points="501.2479,268.88,510.2479,272.88,506.2479,268.88,510.2479,264.88,501.2479,268.88" style="stroke:#FF0000;stroke-width:1;"/><text fill="#000000" font-family="sans-serif" font-size="13" lengthAdjust="spacing" textLength="26" x="628" y="248.0484">&#20381;&#36084;</text></g><!--link ApplicationLayer to DomainLayer--><g id="link_ApplicationLayer_DomainLayer"><path d="M493,435.6454 C493,436.6744 493,437.7013 493,438.7258 C493,446.9214 493,454.9622 493,462.7253 C493,478.2513 493,492.6661 493,504.9853 C493,529.6238 493,545.88 493,545.88 C493,545.88 499.4375,545.88 510.7031,545.88 C516.3359,545.88 523.1758,545.88 531.0215,545.88 C532.9829,545.88 535.0072,545.88 537.0912,545.88 C538.1332,545.88 533.1902,545.88 534.2616,545.88 " fill="none" id="ApplicationLayer-to-DomainLayer" style="stroke:#FF0000;stroke-width:1;"/><polygon fill="#FF0000" points="540.2616,545.88,531.2616,541.88,535.2616,545.88,531.2616,549.88,540.2616,545.88" style="stroke:#FF0000;stroke-width:1;"/><text fill="#000000" font-family="sans-serif" font-size="13" lengthAdjust="spacing" textLength="26" x="612.94" y="542.4484">&#20381;&#36084;</text></g><!--link InfrastructureLayer to DomainLayer--><g id="link_InfrastructureLayer_DomainLayer"><path d="M952.9764,268.88 C951.7854,268.88 950.4937,268.88 949.1239,268.88 C943.6447,268.88 936.9156,268.88 930.3788,268.88 C917.305,268.88 905,268.88 905,268.88 C905,268.88 905,275.5831 905,285.7948 C905,290.9007 905,296.8837 905,303.3446 C905,306.575 905,309.9248 905,313.3443 C905,315.054 905,316.7811 905,318.5193 C905,318.9539 905,319.3891 905,319.825 C905,320.0429 905,336.7493 905,336.9675 " fill="none" id="InfrastructureLayer-to-DomainLayer" style="stroke:#FF0000;stroke-width:1;"/><polygon fill="#FF0000" points="905,342.9675,909,333.9675,905,337.9675,901,333.9675,905,342.9675" style="stroke:#FF0000;stroke-width:1;"/><text fill="#000000" font-family="sans-serif" font-size="13" lengthAdjust="spacing" textLength="26" x="878" y="296.4184">&#20381;&#36084;</text></g><!--link InterfacesLayer to GMN57--><g id="link_InterfacesLayer_GMN57"><path d="M663.1023,71.88 C663.1421,71.88 663.1821,71.88 663.2221,71.88 C663.3022,71.88 663.3828,71.88 663.4639,71.88 C664.7611,71.88 666.1831,71.88 667.7125,71.88 C673.83,71.88 681.665,71.88 690.1,71.88 " fill="none" id="InterfacesLayer-GMN57" style="stroke:#181818;stroke-width:1;stroke-dasharray:7.0,7.0;"/></g><!--link ApplicationLayer to GMN60--><g id="link_ApplicationLayer_GMN60"><path d="M493,224.6539 C493,223.7519 493,199.0093 493,198.1123 C493,196.3182 493,194.5357 493,192.7711 C493,189.2419 493,185.7845 493,182.4504 C493,175.7822 493,169.6072 493,164.3375 C493,153.7981 493,146.88 493,146.88 C493,146.88 1854,146.88 1854,146.88 C1854,146.88 1854,204.47 1854,240.47 " fill="none" id="ApplicationLayer-GMN60" style="stroke:#181818;stroke-width:1;stroke-dasharray:7.0,7.0;"/></g><!--link DomainLayer to GMN63--><g id="link_DomainLayer_GMN63"><path d="M913.1057,386.88 C913.1966,386.88 913.2878,386.88 913.3795,386.88 C913.5628,386.88 913.7477,386.88 913.9339,386.88 C914.6789,386.88 915.446,386.88 916.2251,386.88 C917.7832,386.88 919.3891,386.88 920.9613,386.88 C927.25,386.88 933,386.88 933,386.88 C933,386.88 933,327.88 933,327.88 C933,327.88 1854,327.88 1854,327.88 C1854,327.88 1854,343.58 1854,358.79 " fill="none" id="DomainLayer-GMN63" style="stroke:#181818;stroke-width:1;stroke-dasharray:7.0,7.0;"/></g><!--link InfrastructureLayer to GMN66--><g id="link_InfrastructureLayer_GMN66"><path d="M1756.5055,193.88 C1760.2665,193.88 1764.0059,193.88 1767.7227,193.88 C1775.1563,193.88 1782.4994,193.88 1789.7437,193.88 C1818.7207,193.88 1846.1172,193.88 1871.4063,193.88 C1972.5625,193.88 2040,193.88 2040,193.88 C2040,193.88 2040,219.24 2040,240.43 " fill="none" id="InfrastructureLayer-GMN66" style="stroke:#181818;stroke-width:1;stroke-dasharray:7.0,7.0;"/></g><!--SRC=[ZLPRJzj857xthnXr7vPzGFk-3oiXYgfAL510kmyL3oOCmTl4jkn9jMY5L1ROXYPfqWBXsX8eTCCjNCi28V1dF6FxN-nuPeB7vlg0Wi_rEsVEV7FirvfkgfQQ1YbDXsZ4XC2mqB2XA3y2N5jqBpVnmJhPMLLCDV5QJKBmnAdd_CzhL0fQdki8MaDg0jgWKns1razFW6g3KCg4u2y5W5U_mm7GRkZ8Cb8fQDdzWI6LIQB0ggUZjm-qTJzdwXve8_f_87zcgURmoyvhbVWMscj4J_kw-YC8g40PLKBivDsKErDbsDjCCwKbLAGPkWnU4alekHzPBk3SGd_Ch1TQRpHQR6Wd8P7i0Yo1oNm5xq_WXIhJlr1DKzIEFpQS-lhFP6N3srnZodOZdLRrGJjIWb-Pnoihh8IdHbhL8kYvH0BkZItYKfPKpZYQPDA2IHN17iD0FEdUDtzxXYaxTAGXZTU1trxW_O9tiCeqlwcf3EmQ-0Cck1E7u9pddFf9VvYsumtKPGEfNTn0xXIUECIxy_XyctpOmCMlui1DmzQGOOs48yIA-5OabGjcqcl2X3OaEXfj35uvTzS_UDLTKcw8wHooL1jPcGJAM30weR8cR5Su9_anvsmIvykWfPiUZsOZg2SWTvO4p4akXhRJBLx6YqcRAPYclH6WcKjNpmi-2SoOVd4ncJqbquiq4c-RYjG1rOPKDqh_P8HulUoFLzsZkllz0BHq_4dxfQifZh3vTGsFsVBZyCSs_Sb2S_oQbcs3gedu70OWJh9aRCzVV8-pStnAeMtJh2ypC0EvYRkpuvnEaV8PlOAujaQo9-xs7hFj6zQimMxLGYFjAKqCH1oyzryLPz_HE-lFBPEZgb__0bhQBSEsMzip26bwajV1H4BIh8NCRNXRUPQfqqWcgKRKM9l2axoeNfZ8M1eQuGfQhTkeYVka3sd9ZCNEWS4Q3McETvvy7yEbZufC8A3rrGy3z0Bqj_uQkyxW5-0rfaXnIOd99O_c1HU_aM3HsnXbmpkoDgyGJUqqhYZNA88b7sqVKkUZNPJRj99pawU2VYpCkgL_7dA8LaxTo7J1QIm_v1PbaH3V0swtqOfSN1ICvDXaH6gCyvEuj7sFhSoH4h8xxMNAfFRkmWK-7LTY5TxNCboOyRQkxl68KgKyCBUquxvCRcqrE5FbJaPxHBCvCJuk12N346tm8RTDC68mQjKjF5jKuXGcMz_WeZ3kVMuotKc3qcGAv_ApTtHCkI_256BPeM4iE1YxKbn58p5FvOOcT98Vy6lxsvwh1rmeMAzQz_xzgkW6Wi3IaiC864FntOoI8B-nmNQJFN7ErvtpJrI8YrkYokP2GuNEQS5TEgRlDLTTBo8Ar0T1a4Q99OlN6GHcKojSsOQ1QtcIBT4apcLEpXo6fnWFAzxX3cTemRXtvPIw4KHZrvPixDANZrHEyTMu_tVHkzZ3d_9qgS1JxtXPF2EUF77gPPvHl0biDt5d3cAxXPZckp3SSbuq92cMdCibylwjjpej0W1mirQkkfPm8ExY1CSIppbW86IaWwJX9icxXPUhj39SojCWpbdEBq_ppl4kKZD__f3ihebLhRgAl-J8yQQ_V8Yp-tnX27Fz3m00]--></g></svg>