<svg xmlns="http://www.w3.org/2000/svg" xmlns:xlink="http://www.w3.org/1999/xlink" contentStyleType="text/css" height="1883px" preserveAspectRatio="none" style="width:1142px;height:1883px;background:#FFFFFF;" version="1.1" viewBox="0 0 1142 1883" width="1142px" zoomAndPan="magnify"><title>&#35330;&#21934;&#34389;&#29702;Saga&#27169;&#24335;</title><defs/><g><text fill="#000000" font-family="sans-serif" font-size="14" font-weight="bold" lengthAdjust="spacing" textLength="117.6943" x="508.2227" y="28.5352">&#35330;&#21934;&#34389;&#29702;Saga&#27169;&#24335;</text><rect fill="#FFFFFF" height="1599.7715" style="stroke:#4682B4;stroke-width:1;" width="10" x="115.3574" y="148.5977"/><rect fill="#FFFFFF" height="29.3105" style="stroke:#4682B4;stroke-width:1;" width="10" x="120.3574" y="682.877"/><rect fill="#FFFFFF" height="29.3105" style="stroke:#4682B4;stroke-width:1;" width="10" x="120.3574" y="1091.5586"/><rect fill="#FFFFFF" height="29.3105" style="stroke:#4682B4;stroke-width:1;" width="10" x="120.3574" y="1405.3086"/><rect fill="#FFFFFF" height="29.3105" style="stroke:#4682B4;stroke-width:1;" width="10" x="120.3574" y="1617.127"/><rect fill="#FFFFFF" height="1519.8398" style="stroke:#4682B4;stroke-width:1;" width="10" x="375.4546" y="207.2188"/><rect fill="#FFFFFF" height="53.6211" style="stroke:#4682B4;stroke-width:1;" width="10" x="565.4546" y="430.3926"/><rect fill="#FFFFFF" height="29.3105" style="stroke:#4682B4;stroke-width:1;" width="10" x="565.4546" y="887.6953"/><rect fill="#FFFFFF" height="53.6211" style="stroke:#4682B4;stroke-width:1;" width="10" x="695.3604" y="556.6348"/><rect fill="#FFFFFF" height="53.6211" style="stroke:#4682B4;stroke-width:1;" width="10" x="828.144" y="304.1504"/><rect fill="#FFFFFF" height="29.3105" style="stroke:#4682B4;stroke-width:1;" width="10" x="828.144" y="989.627"/><rect fill="#FFFFFF" height="29.3105" style="stroke:#4682B4;stroke-width:1;" width="10" x="828.144" y="1303.377"/><rect fill="#FFFFFF" height="29.3105" style="stroke:#4682B4;stroke-width:1;" width="10" x="970.5903" y="741.498"/><rect fill="#FFFFFF" height="29.3105" style="stroke:#4682B4;stroke-width:1;" width="10" x="970.5903" y="1150.1797"/><rect fill="#FFFFFF" height="29.3105" style="stroke:#4682B4;stroke-width:1;" width="10" x="970.5903" y="1463.9297"/><rect fill="#FFFFFF" height="29.3105" style="stroke:#4682B4;stroke-width:1;" width="10" x="970.5903" y="1675.748"/><rect fill="#FFFFFF" height="29.3105" style="stroke:#4682B4;stroke-width:1;" width="10" x="1087.9214" y="177.9082"/><rect fill="none" height="1497.8398" style="stroke:#4682B4;stroke-width:1.5;" width="1055.4839" x="30.2192" y="222.2188"/><rect fill="none" height="1393.9082" style="stroke:#4682B4;stroke-width:1.5;" width="1035.4839" x="40.2192" y="319.1504"/><rect fill="none" height="1055.8477" style="stroke:#4682B4;stroke-width:1.5;" width="1015.4839" x="50.2192" y="445.3926"/><rect fill="none" height="615.8555" style="stroke:#4682B4;stroke-width:1.5;" width="995.4839" x="60.2192" y="571.6348"/><line style="stroke:#4682B4;stroke-width:0.5;stroke-dasharray:5.0,5.0;" x1="120.2192" x2="120.2192" y1="73.9766" y2="1847.6113"/><line style="stroke:#4682B4;stroke-width:0.5;stroke-dasharray:5.0,5.0;" x1="380.1162" x2="380.1162" y1="73.9766" y2="1847.6113"/><line style="stroke:#4682B4;stroke-width:0.5;stroke-dasharray:5.0,5.0;" x1="569.999" x2="569.999" y1="73.9766" y2="1847.6113"/><line style="stroke:#4682B4;stroke-width:0.5;stroke-dasharray:5.0,5.0;" x1="699.9102" x2="699.9102" y1="73.9766" y2="1847.6113"/><line style="stroke:#4682B4;stroke-width:0.5;stroke-dasharray:5.0,5.0;" x1="832.8105" x2="832.8105" y1="73.9766" y2="1847.6113"/><line style="stroke:#4682B4;stroke-width:0.5;stroke-dasharray:5.0,5.0;" x1="975.4775" x2="975.4775" y1="73.9766" y2="1847.6113"/><line style="stroke:#4682B4;stroke-width:0.5;stroke-dasharray:5.0,5.0;" x1="1092.7031" x2="1092.7031" y1="73.9766" y2="1847.6113"/><rect fill="#E2E2F0" height="30.4883" rx="2.5" ry="2.5" style="stroke:#181818;stroke-width:0.5;" width="100.2764" x="70.2192" y="42.4883"/><text fill="#000000" font-family="sans-serif" font-size="14" lengthAdjust="spacing" textLength="86.2764" x="77.2192" y="63.0234">OrderService</text><rect fill="#E2E2F0" height="30.4883" rx="2.5" ry="2.5" style="stroke:#181818;stroke-width:0.5;" width="100.2764" x="70.2192" y="1846.6113"/><text fill="#000000" font-family="sans-serif" font-size="14" lengthAdjust="spacing" textLength="86.2764" x="77.2192" y="1867.1465">OrderService</text><rect fill="#E2E2F0" height="30.4883" rx="2.5" ry="2.5" style="stroke:#181818;stroke-width:0.5;" width="84.6768" x="338.1162" y="42.4883"/><text fill="#000000" font-family="sans-serif" font-size="14" lengthAdjust="spacing" textLength="70.6768" x="345.1162" y="63.0234">OrderSaga</text><rect fill="#E2E2F0" height="30.4883" rx="2.5" ry="2.5" style="stroke:#181818;stroke-width:0.5;" width="84.6768" x="338.1162" y="1846.6113"/><text fill="#000000" font-family="sans-serif" font-size="14" lengthAdjust="spacing" textLength="70.6768" x="345.1162" y="1867.1465">OrderSaga</text><rect fill="#E2E2F0" height="30.4883" rx="2.5" ry="2.5" style="stroke:#181818;stroke-width:0.5;" width="118.9111" x="510.999" y="42.4883"/><text fill="#000000" font-family="sans-serif" font-size="14" lengthAdjust="spacing" textLength="104.9111" x="517.999" y="63.0234">PaymentService</text><rect fill="#E2E2F0" height="30.4883" rx="2.5" ry="2.5" style="stroke:#181818;stroke-width:0.5;" width="118.9111" x="510.999" y="1846.6113"/><text fill="#000000" font-family="sans-serif" font-size="14" lengthAdjust="spacing" textLength="104.9111" x="517.999" y="1867.1465">PaymentService</text><rect fill="#E2E2F0" height="30.4883" rx="2.5" ry="2.5" style="stroke:#181818;stroke-width:0.5;" width="120.9004" x="639.9102" y="42.4883"/><text fill="#000000" font-family="sans-serif" font-size="14" lengthAdjust="spacing" textLength="106.9004" x="646.9102" y="63.0234">LogisticsService</text><rect fill="#E2E2F0" height="30.4883" rx="2.5" ry="2.5" style="stroke:#181818;stroke-width:0.5;" width="120.9004" x="639.9102" y="1846.6113"/><text fill="#000000" font-family="sans-serif" font-size="14" lengthAdjust="spacing" textLength="106.9004" x="646.9102" y="1867.1465">LogisticsService</text><rect fill="#E2E2F0" height="30.4883" rx="2.5" ry="2.5" style="stroke:#181818;stroke-width:0.5;" width="124.667" x="770.8105" y="42.4883"/><text fill="#000000" font-family="sans-serif" font-size="14" lengthAdjust="spacing" textLength="110.667" x="777.8105" y="63.0234">InventoryService</text><rect fill="#E2E2F0" height="30.4883" rx="2.5" ry="2.5" style="stroke:#181818;stroke-width:0.5;" width="124.667" x="770.8105" y="1846.6113"/><text fill="#000000" font-family="sans-serif" font-size="14" lengthAdjust="spacing" textLength="110.667" x="777.8105" y="1867.1465">InventoryService</text><rect fill="#E2E2F0" height="30.4883" rx="2.5" ry="2.5" style="stroke:#181818;stroke-width:0.5;" width="140.2256" x="905.4775" y="42.4883"/><text fill="#000000" font-family="sans-serif" font-size="14" lengthAdjust="spacing" textLength="126.2256" x="912.4775" y="63.0234">NotificationService</text><rect fill="#E2E2F0" height="30.4883" rx="2.5" ry="2.5" style="stroke:#181818;stroke-width:0.5;" width="140.2256" x="905.4775" y="1846.6113"/><text fill="#000000" font-family="sans-serif" font-size="14" lengthAdjust="spacing" textLength="126.2256" x="912.4775" y="1867.1465">NotificationService</text><rect fill="#E2E2F0" height="30.4883" rx="2.5" ry="2.5" style="stroke:#181818;stroke-width:0.5;" width="74.4365" x="1055.7031" y="42.4883"/><text fill="#000000" font-family="sans-serif" font-size="14" lengthAdjust="spacing" textLength="60.4365" x="1062.7031" y="63.0234">EventBus</text><rect fill="#E2E2F0" height="30.4883" rx="2.5" ry="2.5" style="stroke:#181818;stroke-width:0.5;" width="74.4365" x="1055.7031" y="1846.6113"/><text fill="#000000" font-family="sans-serif" font-size="14" lengthAdjust="spacing" textLength="60.4365" x="1062.7031" y="1867.1465">EventBus</text><rect fill="#FFFFFF" height="1599.7715" style="stroke:#4682B4;stroke-width:1;" width="10" x="115.3574" y="148.5977"/><rect fill="#FFFFFF" height="29.3105" style="stroke:#4682B4;stroke-width:1;" width="10" x="120.3574" y="682.877"/><rect fill="#FFFFFF" height="29.3105" style="stroke:#4682B4;stroke-width:1;" width="10" x="120.3574" y="1091.5586"/><rect fill="#FFFFFF" height="29.3105" style="stroke:#4682B4;stroke-width:1;" width="10" x="120.3574" y="1405.3086"/><rect fill="#FFFFFF" height="29.3105" style="stroke:#4682B4;stroke-width:1;" width="10" x="120.3574" y="1617.127"/><rect fill="#FFFFFF" height="1519.8398" style="stroke:#4682B4;stroke-width:1;" width="10" x="375.4546" y="207.2188"/><rect fill="#FFFFFF" height="53.6211" style="stroke:#4682B4;stroke-width:1;" width="10" x="565.4546" y="430.3926"/><rect fill="#FFFFFF" height="29.3105" style="stroke:#4682B4;stroke-width:1;" width="10" x="565.4546" y="887.6953"/><rect fill="#FFFFFF" height="53.6211" style="stroke:#4682B4;stroke-width:1;" width="10" x="695.3604" y="556.6348"/><rect fill="#FFFFFF" height="53.6211" style="stroke:#4682B4;stroke-width:1;" width="10" x="828.144" y="304.1504"/><rect fill="#FFFFFF" height="29.3105" style="stroke:#4682B4;stroke-width:1;" width="10" x="828.144" y="989.627"/><rect fill="#FFFFFF" height="29.3105" style="stroke:#4682B4;stroke-width:1;" width="10" x="828.144" y="1303.377"/><rect fill="#FFFFFF" height="29.3105" style="stroke:#4682B4;stroke-width:1;" width="10" x="970.5903" y="741.498"/><rect fill="#FFFFFF" height="29.3105" style="stroke:#4682B4;stroke-width:1;" width="10" x="970.5903" y="1150.1797"/><rect fill="#FFFFFF" height="29.3105" style="stroke:#4682B4;stroke-width:1;" width="10" x="970.5903" y="1463.9297"/><rect fill="#FFFFFF" height="29.3105" style="stroke:#4682B4;stroke-width:1;" width="10" x="970.5903" y="1675.748"/><rect fill="#FFFFFF" height="29.3105" style="stroke:#4682B4;stroke-width:1;" width="10" x="1087.9214" y="177.9082"/><rect fill="#EEEEEE" height="3" style="stroke:#EEEEEE;stroke-width:1;" width="1135.1396" x="0" y="104.6318"/><line style="stroke:#000000;stroke-width:1;" x1="0" x2="1135.1396" y1="104.6318" y2="104.6318"/><line style="stroke:#000000;stroke-width:1;" x1="0" x2="1135.1396" y1="107.6318" y2="107.6318"/><rect fill="#EEEEEE" height="23.3105" style="stroke:#000000;stroke-width:2;" width="96.2847" x="519.4275" y="93.9766"/><text fill="#000000" font-family="sans-serif" font-size="13" font-weight="bold" lengthAdjust="spacing" textLength="78" x="525.4275" y="110.5449">&#35330;&#21934;&#21109;&#24314;&#38542;&#27573;</text><polygon fill="#181818" points="103.3574,144.5977,113.3574,148.5977,103.3574,152.5977,107.3574,148.5977" style="stroke:#181818;stroke-width:1;"/><line style="stroke:#181818;stroke-width:1;" x1="0" x2="109.3574" y1="148.5977" y2="148.5977"/><text fill="#000000" font-family="sans-serif" font-size="13" lengthAdjust="spacing" textLength="83.1226" x="16.1174" y="143.8555">createOrder()</text><polygon fill="#181818" points="1075.9214,173.9082,1085.9214,177.9082,1075.9214,181.9082,1079.9214,177.9082" style="stroke:#181818;stroke-width:1;"/><line style="stroke:#181818;stroke-width:1;" x1="125.3574" x2="1081.9214" y1="177.9082" y2="177.9082"/><text fill="#000000" font-family="sans-serif" font-size="13" lengthAdjust="spacing" textLength="174.2305" x="519.5242" y="173.166">publish(OrderCreatedEvent)</text><polygon fill="#181818" points="396.4546,203.2188,386.4546,207.2188,396.4546,211.2188,392.4546,207.2188" style="stroke:#181818;stroke-width:1;"/><line style="stroke:#181818;stroke-width:1;" x1="390.4546" x2="1091.9214" y1="207.2188" y2="207.2188"/><text fill="#000000" font-family="sans-serif" font-size="13" lengthAdjust="spacing" textLength="170.0854" x="654.1453" y="202.4766">handle(OrderCreatedEvent)</text><path d="M30.2192,222.2188 L158.5068,222.2188 L158.5068,229.5293 L148.5068,239.5293 L30.2192,239.5293 L30.2192,222.2188 " fill="#E0FFFF" style="stroke:#4682B4;stroke-width:1.5;"/><rect fill="none" height="1497.8398" style="stroke:#4682B4;stroke-width:1.5;" width="1055.4839" x="30.2192" y="222.2188"/><text fill="#000000" font-family="sans-serif" font-size="13" font-weight="bold" lengthAdjust="spacing" textLength="83.2876" x="45.2192" y="235.7871">&#35330;&#21934;&#34389;&#29702;Saga</text><rect fill="#EEEEEE" height="3" style="stroke:#EEEEEE;stroke-width:1;" width="1135.1396" x="0" y="260.1846"/><line style="stroke:#000000;stroke-width:1;" x1="0" x2="1135.1396" y1="260.1846" y2="260.1846"/><line style="stroke:#000000;stroke-width:1;" x1="0" x2="1135.1396" y1="263.1846" y2="263.1846"/><rect fill="#EEEEEE" height="23.3105" style="stroke:#000000;stroke-width:2;" width="96.2847" x="519.4275" y="249.5293"/><text fill="#000000" font-family="sans-serif" font-size="13" font-weight="bold" lengthAdjust="spacing" textLength="78" x="525.4275" y="266.0977">&#24235;&#23384;&#27298;&#26597;&#38542;&#27573;</text><polygon fill="#181818" points="816.144,300.1504,826.144,304.1504,816.144,308.1504,820.144,304.1504" style="stroke:#181818;stroke-width:1;"/><line style="stroke:#181818;stroke-width:1;" x1="385.4546" x2="822.144" y1="304.1504" y2="304.1504"/><text fill="#000000" font-family="sans-serif" font-size="13" lengthAdjust="spacing" textLength="149.4683" x="532.0652" y="299.4082">checkInventory(orderId)</text><path d="M40.2192,319.1504 L102.3579,319.1504 L102.3579,326.4609 L92.3579,336.4609 L40.2192,336.4609 L40.2192,319.1504 " fill="#E0FFFF" style="stroke:#4682B4;stroke-width:1.5;"/><rect fill="none" height="1393.9082" style="stroke:#4682B4;stroke-width:1.5;" width="1035.4839" x="40.2192" y="319.1504"/><text fill="#000000" font-family="sans-serif" font-size="13" font-weight="bold" lengthAdjust="spacing" textLength="17.1387" x="55.2192" y="332.7188">alt</text><text fill="#000000" font-family="sans-serif" font-size="11" font-weight="bold" lengthAdjust="spacing" textLength="52.1533" x="117.3579" y="331.7852">[&#24235;&#23384;&#20805;&#36275;]</text><polygon fill="#181818" points="396.4546,353.7715,386.4546,357.7715,396.4546,361.7715,392.4546,357.7715" style="stroke:#181818;stroke-width:1;"/><line style="stroke:#181818;stroke-width:1;stroke-dasharray:2.0,2.0;" x1="390.4546" x2="832.144" y1="357.7715" y2="357.7715"/><text fill="#000000" font-family="sans-serif" font-size="13" lengthAdjust="spacing" textLength="149.5635" x="534.5176" y="353.0293">InventoryReservedEvent</text><rect fill="#EEEEEE" height="3" style="stroke:#EEEEEE;stroke-width:1;" width="1135.1396" x="0" y="386.4268"/><line style="stroke:#000000;stroke-width:1;" x1="0" x2="1135.1396" y1="386.4268" y2="386.4268"/><line style="stroke:#000000;stroke-width:1;" x1="0" x2="1135.1396" y1="389.4268" y2="389.4268"/><rect fill="#EEEEEE" height="23.3105" style="stroke:#000000;stroke-width:2;" width="96.2847" x="519.4275" y="375.7715"/><text fill="#000000" font-family="sans-serif" font-size="13" font-weight="bold" lengthAdjust="spacing" textLength="78" x="525.4275" y="392.3398">&#25903;&#20184;&#34389;&#29702;&#38542;&#27573;</text><polygon fill="#181818" points="553.4546,426.3926,563.4546,430.3926,553.4546,434.3926,557.4546,430.3926" style="stroke:#181818;stroke-width:1;"/><line style="stroke:#181818;stroke-width:1;" x1="385.4546" x2="559.4546" y1="430.3926" y2="430.3926"/><text fill="#000000" font-family="sans-serif" font-size="13" lengthAdjust="spacing" textLength="156.5396" x="397.1848" y="425.6504">processPayment(orderId)</text><path d="M50.2192,445.3926 L112.3579,445.3926 L112.3579,452.7031 L102.3579,462.7031 L50.2192,462.7031 L50.2192,445.3926 " fill="#E0FFFF" style="stroke:#4682B4;stroke-width:1.5;"/><rect fill="none" height="1055.8477" style="stroke:#4682B4;stroke-width:1.5;" width="1015.4839" x="50.2192" y="445.3926"/><text fill="#000000" font-family="sans-serif" font-size="13" font-weight="bold" lengthAdjust="spacing" textLength="17.1387" x="65.2192" y="458.9609">alt</text><text fill="#000000" font-family="sans-serif" font-size="11" font-weight="bold" lengthAdjust="spacing" textLength="52.1533" x="127.3579" y="458.0273">[&#25903;&#20184;&#25104;&#21151;]</text><polygon fill="#181818" points="396.4546,480.0137,386.4546,484.0137,396.4546,488.0137,392.4546,484.0137" style="stroke:#181818;stroke-width:1;"/><line style="stroke:#181818;stroke-width:1;stroke-dasharray:2.0,2.0;" x1="390.4546" x2="569.4546" y1="484.0137" y2="484.0137"/><text fill="#000000" font-family="sans-serif" font-size="13" lengthAdjust="spacing" textLength="156" x="399.9546" y="479.2715">PaymentCompletedEvent</text><rect fill="#EEEEEE" height="3" style="stroke:#EEEEEE;stroke-width:1;" width="1135.1396" x="0" y="512.6689"/><line style="stroke:#000000;stroke-width:1;" x1="0" x2="1135.1396" y1="512.6689" y2="512.6689"/><line style="stroke:#000000;stroke-width:1;" x1="0" x2="1135.1396" y1="515.6689" y2="515.6689"/><rect fill="#EEEEEE" height="23.3105" style="stroke:#000000;stroke-width:2;" width="96.2847" x="519.4275" y="502.0137"/><text fill="#000000" font-family="sans-serif" font-size="13" font-weight="bold" lengthAdjust="spacing" textLength="78" x="525.4275" y="518.582">&#29289;&#27969;&#34389;&#29702;&#38542;&#27573;</text><polygon fill="#181818" points="683.3604,552.6348,693.3604,556.6348,683.3604,560.6348,687.3604,556.6348" style="stroke:#181818;stroke-width:1;"/><line style="stroke:#181818;stroke-width:1;" x1="385.4546" x2="689.3604" y1="556.6348" y2="556.6348"/><text fill="#000000" font-family="sans-serif" font-size="13" lengthAdjust="spacing" textLength="153.4229" x="463.696" y="551.8926">arrangeDelivery(orderId)</text><path d="M60.2192,571.6348 L122.3579,571.6348 L122.3579,578.9453 L112.3579,588.9453 L60.2192,588.9453 L60.2192,571.6348 " fill="#E0FFFF" style="stroke:#4682B4;stroke-width:1.5;"/><rect fill="none" height="615.8555" style="stroke:#4682B4;stroke-width:1.5;" width="995.4839" x="60.2192" y="571.6348"/><text fill="#000000" font-family="sans-serif" font-size="13" font-weight="bold" lengthAdjust="spacing" textLength="17.1387" x="75.2192" y="585.2031">alt</text><text fill="#000000" font-family="sans-serif" font-size="11" font-weight="bold" lengthAdjust="spacing" textLength="74.1533" x="137.3579" y="584.2695">[&#29289;&#27969;&#23433;&#25490;&#25104;&#21151;]</text><polygon fill="#181818" points="396.4546,606.2559,386.4546,610.2559,396.4546,614.2559,392.4546,610.2559" style="stroke:#181818;stroke-width:1;"/><line style="stroke:#181818;stroke-width:1;stroke-dasharray:2.0,2.0;" x1="390.4546" x2="699.3604" y1="610.2559" y2="610.2559"/><text fill="#000000" font-family="sans-serif" font-size="13" lengthAdjust="spacing" textLength="142.9111" x="471.4519" y="605.5137">DeliveryArrangedEvent</text><rect fill="#EEEEEE" height="3" style="stroke:#EEEEEE;stroke-width:1;" width="1135.1396" x="0" y="638.9111"/><line style="stroke:#000000;stroke-width:1;" x1="0" x2="1135.1396" y1="638.9111" y2="638.9111"/><line style="stroke:#000000;stroke-width:1;" x1="0" x2="1135.1396" y1="641.9111" y2="641.9111"/><rect fill="#EEEEEE" height="23.3105" style="stroke:#000000;stroke-width:2;" width="96.2847" x="519.4275" y="628.2559"/><text fill="#000000" font-family="sans-serif" font-size="13" font-weight="bold" lengthAdjust="spacing" textLength="78" x="525.4275" y="644.8242">&#23436;&#25104;&#35330;&#21934;&#38542;&#27573;</text><polygon fill="#181818" points="141.3574,678.877,131.3574,682.877,141.3574,686.877,137.3574,682.877" style="stroke:#181818;stroke-width:1;"/><line style="stroke:#181818;stroke-width:1;" x1="135.3574" x2="374.4546" y1="682.877" y2="682.877"/><text fill="#000000" font-family="sans-serif" font-size="13" lengthAdjust="spacing" textLength="148.6621" x="178.575" y="678.1348">completeOrder(orderId)</text><polygon fill="#181818" points="363.4546,708.1875,373.4546,712.1875,363.4546,716.1875,367.4546,712.1875" style="stroke:#181818;stroke-width:1;"/><line style="stroke:#181818;stroke-width:1;stroke-dasharray:2.0,2.0;" x1="125.3574" x2="369.4546" y1="712.1875" y2="712.1875"/><text fill="#000000" font-family="sans-serif" font-size="13" lengthAdjust="spacing" textLength="138.6963" x="181.0579" y="707.4453">OrderCompletedEvent</text><polygon fill="#181818" points="958.5903,737.498,968.5903,741.498,958.5903,745.498,962.5903,741.498" style="stroke:#181818;stroke-width:1;"/><line style="stroke:#181818;stroke-width:1;" x1="385.4546" x2="964.5903" y1="741.498" y2="741.498"/><text fill="#000000" font-family="sans-serif" font-size="13" lengthAdjust="spacing" textLength="203.6074" x="576.2188" y="736.7559">sendOrderConfirmation(orderId)</text><polygon fill="#181818" points="396.4546,766.8086,386.4546,770.8086,396.4546,774.8086,392.4546,770.8086" style="stroke:#181818;stroke-width:1;"/><line style="stroke:#181818;stroke-width:1;stroke-dasharray:2.0,2.0;" x1="390.4546" x2="974.5903" y1="770.8086" y2="770.8086"/><text fill="#000000" font-family="sans-serif" font-size="13" lengthAdjust="spacing" textLength="134.3799" x="613.3325" y="766.0664">NotificationSentEvent</text><line style="stroke:#4682B4;stroke-width:1;stroke-dasharray:2.0,2.0;" x1="60.2192" x2="1055.7031" y1="779.8086" y2="779.8086"/><text fill="#000000" font-family="sans-serif" font-size="11" font-weight="bold" lengthAdjust="spacing" textLength="74.1533" x="65.2192" y="790.4434">[&#29289;&#27969;&#23433;&#25490;&#22833;&#25943;]</text><polygon fill="#181818" points="396.4546,811.0742,386.4546,815.0742,396.4546,819.0742,392.4546,815.0742" style="stroke:#181818;stroke-width:1;"/><line style="stroke:#181818;stroke-width:1;stroke-dasharray:2.0,2.0;" x1="390.4546" x2="699.3604" y1="815.0742" y2="815.0742"/><text fill="#000000" font-family="sans-serif" font-size="13" lengthAdjust="spacing" textLength="121.6147" x="482.1001" y="810.332">DeliveryFailedEvent</text><rect fill="#EEEEEE" height="3" style="stroke:#EEEEEE;stroke-width:1;" width="1135.1396" x="0" y="843.7295"/><line style="stroke:#000000;stroke-width:1;" x1="0" x2="1135.1396" y1="843.7295" y2="843.7295"/><line style="stroke:#000000;stroke-width:1;" x1="0" x2="1135.1396" y1="846.7295" y2="846.7295"/><rect fill="#EEEEEE" height="23.3105" style="stroke:#000000;stroke-width:2;" width="129.7813" x="502.6792" y="833.0742"/><text fill="#000000" font-family="sans-serif" font-size="13" font-weight="bold" lengthAdjust="spacing" textLength="111.4966" x="508.6792" y="849.6426">&#35036;&#20767;&#20107;&#21209;: &#21462;&#28040;&#25903;&#20184;</text><polygon fill="#181818" points="553.4546,883.6953,563.4546,887.6953,553.4546,891.6953,557.4546,887.6953" style="stroke:#181818;stroke-width:1;"/><line style="stroke:#181818;stroke-width:1;" x1="385.4546" x2="559.4546" y1="887.6953" y2="887.6953"/><text fill="#000000" font-family="sans-serif" font-size="13" lengthAdjust="spacing" textLength="149.5571" x="400.676" y="882.9531">refundPayment(orderId)</text><polygon fill="#181818" points="396.4546,913.0059,386.4546,917.0059,396.4546,921.0059,392.4546,917.0059" style="stroke:#181818;stroke-width:1;"/><line style="stroke:#181818;stroke-width:1;stroke-dasharray:2.0,2.0;" x1="390.4546" x2="569.4546" y1="917.0059" y2="917.0059"/><text fill="#000000" font-family="sans-serif" font-size="13" lengthAdjust="spacing" textLength="147.3989" x="404.2551" y="912.2637">PaymentRefundedEvent</text><rect fill="#EEEEEE" height="3" style="stroke:#EEEEEE;stroke-width:1;" width="1135.1396" x="0" y="945.6611"/><line style="stroke:#000000;stroke-width:1;" x1="0" x2="1135.1396" y1="945.6611" y2="945.6611"/><line style="stroke:#000000;stroke-width:1;" x1="0" x2="1135.1396" y1="948.6611" y2="948.6611"/><rect fill="#EEEEEE" height="23.3105" style="stroke:#000000;stroke-width:2;" width="129.7813" x="502.6792" y="935.0059"/><text fill="#000000" font-family="sans-serif" font-size="13" font-weight="bold" lengthAdjust="spacing" textLength="111.4966" x="508.6792" y="951.5742">&#35036;&#20767;&#20107;&#21209;: &#37323;&#25918;&#24235;&#23384;</text><polygon fill="#181818" points="816.144,985.627,826.144,989.627,816.144,993.627,820.144,989.627" style="stroke:#181818;stroke-width:1;"/><line style="stroke:#181818;stroke-width:1;" x1="385.4546" x2="822.144" y1="989.627" y2="989.627"/><text fill="#000000" font-family="sans-serif" font-size="13" lengthAdjust="spacing" textLength="157.8535" x="527.8726" y="984.8848">releaseInventory(orderId)</text><polygon fill="#181818" points="396.4546,1014.9375,386.4546,1018.9375,396.4546,1022.9375,392.4546,1018.9375" style="stroke:#181818;stroke-width:1;"/><line style="stroke:#181818;stroke-width:1;stroke-dasharray:2.0,2.0;" x1="390.4546" x2="832.144" y1="1018.9375" y2="1018.9375"/><text fill="#000000" font-family="sans-serif" font-size="13" lengthAdjust="spacing" textLength="148.4526" x="535.073" y="1014.1953">InventoryReleasedEvent</text><rect fill="#EEEEEE" height="3" style="stroke:#EEEEEE;stroke-width:1;" width="1135.1396" x="0" y="1047.5928"/><line style="stroke:#000000;stroke-width:1;" x1="0" x2="1135.1396" y1="1047.5928" y2="1047.5928"/><line style="stroke:#000000;stroke-width:1;" x1="0" x2="1135.1396" y1="1050.5928" y2="1050.5928"/><rect fill="#EEEEEE" height="23.3105" style="stroke:#000000;stroke-width:2;" width="70.2847" x="532.4275" y="1036.9375"/><text fill="#000000" font-family="sans-serif" font-size="13" font-weight="bold" lengthAdjust="spacing" textLength="52" x="538.4275" y="1053.5059">&#21462;&#28040;&#35330;&#21934;</text><polygon fill="#181818" points="141.3574,1087.5586,131.3574,1091.5586,141.3574,1095.5586,137.3574,1091.5586" style="stroke:#181818;stroke-width:1;"/><line style="stroke:#181818;stroke-width:1;" x1="135.3574" x2="374.4546" y1="1091.5586" y2="1091.5586"/><text fill="#000000" font-family="sans-serif" font-size="13" lengthAdjust="spacing" textLength="226.0972" x="139.8574" y="1086.8164">cancelOrder(orderId, "&#29289;&#27969;&#23433;&#25490;&#22833;&#25943;")</text><polygon fill="#181818" points="363.4546,1116.8691,373.4546,1120.8691,363.4546,1124.8691,367.4546,1120.8691" style="stroke:#181818;stroke-width:1;"/><line style="stroke:#181818;stroke-width:1;stroke-dasharray:2.0,2.0;" x1="125.3574" x2="369.4546" y1="1120.8691" y2="1120.8691"/><text fill="#000000" font-family="sans-serif" font-size="13" lengthAdjust="spacing" textLength="131.1934" x="184.8093" y="1116.127">OrderCancelledEvent</text><polygon fill="#181818" points="958.5903,1146.1797,968.5903,1150.1797,958.5903,1154.1797,962.5903,1150.1797" style="stroke:#181818;stroke-width:1;"/><line style="stroke:#181818;stroke-width:1;" x1="385.4546" x2="964.5903" y1="1150.1797" y2="1150.1797"/><text fill="#000000" font-family="sans-serif" font-size="13" lengthAdjust="spacing" textLength="334.2739" x="510.8855" y="1145.4375">sendOrderCancellationNotice(orderId, "&#29289;&#27969;&#23433;&#25490;&#22833;&#25943;")</text><polygon fill="#181818" points="396.4546,1175.4902,386.4546,1179.4902,396.4546,1183.4902,392.4546,1179.4902" style="stroke:#181818;stroke-width:1;"/><line style="stroke:#181818;stroke-width:1;stroke-dasharray:2.0,2.0;" x1="390.4546" x2="974.5903" y1="1179.4902" y2="1179.4902"/><text fill="#000000" font-family="sans-serif" font-size="13" lengthAdjust="spacing" textLength="134.3799" x="613.3325" y="1174.748">NotificationSentEvent</text><line style="stroke:#4682B4;stroke-width:1;stroke-dasharray:2.0,2.0;" x1="50.2192" x2="1065.7031" y1="1195.4902" y2="1195.4902"/><text fill="#000000" font-family="sans-serif" font-size="11" font-weight="bold" lengthAdjust="spacing" textLength="52.1533" x="55.2192" y="1206.125">[&#25903;&#20184;&#22833;&#25943;]</text><polygon fill="#181818" points="396.4546,1226.7559,386.4546,1230.7559,396.4546,1234.7559,392.4546,1230.7559" style="stroke:#181818;stroke-width:1;"/><line style="stroke:#181818;stroke-width:1;stroke-dasharray:2.0,2.0;" x1="390.4546" x2="569.4546" y1="1230.7559" y2="1230.7559"/><text fill="#000000" font-family="sans-serif" font-size="13" lengthAdjust="spacing" textLength="124.5029" x="415.7031" y="1226.0137">PaymentFailedEvent</text><rect fill="#EEEEEE" height="3" style="stroke:#EEEEEE;stroke-width:1;" width="1135.1396" x="0" y="1259.4111"/><line style="stroke:#000000;stroke-width:1;" x1="0" x2="1135.1396" y1="1259.4111" y2="1259.4111"/><line style="stroke:#000000;stroke-width:1;" x1="0" x2="1135.1396" y1="1262.4111" y2="1262.4111"/><rect fill="#EEEEEE" height="23.3105" style="stroke:#000000;stroke-width:2;" width="129.7813" x="502.6792" y="1248.7559"/><text fill="#000000" font-family="sans-serif" font-size="13" font-weight="bold" lengthAdjust="spacing" textLength="111.4966" x="508.6792" y="1265.3242">&#35036;&#20767;&#20107;&#21209;: &#37323;&#25918;&#24235;&#23384;</text><polygon fill="#181818" points="816.144,1299.377,826.144,1303.377,816.144,1307.377,820.144,1303.377" style="stroke:#181818;stroke-width:1;"/><line style="stroke:#181818;stroke-width:1;" x1="385.4546" x2="822.144" y1="1303.377" y2="1303.377"/><text fill="#000000" font-family="sans-serif" font-size="13" lengthAdjust="spacing" textLength="157.8535" x="527.8726" y="1298.6348">releaseInventory(orderId)</text><polygon fill="#181818" points="396.4546,1328.6875,386.4546,1332.6875,396.4546,1336.6875,392.4546,1332.6875" style="stroke:#181818;stroke-width:1;"/><line style="stroke:#181818;stroke-width:1;stroke-dasharray:2.0,2.0;" x1="390.4546" x2="832.144" y1="1332.6875" y2="1332.6875"/><text fill="#000000" font-family="sans-serif" font-size="13" lengthAdjust="spacing" textLength="148.4526" x="535.073" y="1327.9453">InventoryReleasedEvent</text><rect fill="#EEEEEE" height="3" style="stroke:#EEEEEE;stroke-width:1;" width="1135.1396" x="0" y="1361.3428"/><line style="stroke:#000000;stroke-width:1;" x1="0" x2="1135.1396" y1="1361.3428" y2="1361.3428"/><line style="stroke:#000000;stroke-width:1;" x1="0" x2="1135.1396" y1="1364.3428" y2="1364.3428"/><rect fill="#EEEEEE" height="23.3105" style="stroke:#000000;stroke-width:2;" width="70.2847" x="532.4275" y="1350.6875"/><text fill="#000000" font-family="sans-serif" font-size="13" font-weight="bold" lengthAdjust="spacing" textLength="52" x="538.4275" y="1367.2559">&#21462;&#28040;&#35330;&#21934;</text><polygon fill="#181818" points="141.3574,1401.3086,131.3574,1405.3086,141.3574,1409.3086,137.3574,1405.3086" style="stroke:#181818;stroke-width:1;"/><line style="stroke:#181818;stroke-width:1;" x1="135.3574" x2="374.4546" y1="1405.3086" y2="1405.3086"/><text fill="#000000" font-family="sans-serif" font-size="13" lengthAdjust="spacing" textLength="200.0972" x="152.8574" y="1400.5664">cancelOrder(orderId, "&#25903;&#20184;&#22833;&#25943;")</text><polygon fill="#181818" points="363.4546,1430.6191,373.4546,1434.6191,363.4546,1438.6191,367.4546,1434.6191" style="stroke:#181818;stroke-width:1;"/><line style="stroke:#181818;stroke-width:1;stroke-dasharray:2.0,2.0;" x1="125.3574" x2="369.4546" y1="1434.6191" y2="1434.6191"/><text fill="#000000" font-family="sans-serif" font-size="13" lengthAdjust="spacing" textLength="131.1934" x="184.8093" y="1429.877">OrderCancelledEvent</text><polygon fill="#181818" points="958.5903,1459.9297,968.5903,1463.9297,958.5903,1467.9297,962.5903,1463.9297" style="stroke:#181818;stroke-width:1;"/><line style="stroke:#181818;stroke-width:1;" x1="385.4546" x2="964.5903" y1="1463.9297" y2="1463.9297"/><text fill="#000000" font-family="sans-serif" font-size="13" lengthAdjust="spacing" textLength="308.2739" x="523.8855" y="1459.1875">sendOrderCancellationNotice(orderId, "&#25903;&#20184;&#22833;&#25943;")</text><polygon fill="#181818" points="396.4546,1489.2402,386.4546,1493.2402,396.4546,1497.2402,392.4546,1493.2402" style="stroke:#181818;stroke-width:1;"/><line style="stroke:#181818;stroke-width:1;stroke-dasharray:2.0,2.0;" x1="390.4546" x2="974.5903" y1="1493.2402" y2="1493.2402"/><text fill="#000000" font-family="sans-serif" font-size="13" lengthAdjust="spacing" textLength="134.3799" x="613.3325" y="1488.498">NotificationSentEvent</text><line style="stroke:#4682B4;stroke-width:1;stroke-dasharray:2.0,2.0;" x1="40.2192" x2="1075.7031" y1="1509.2402" y2="1509.2402"/><text fill="#000000" font-family="sans-serif" font-size="11" font-weight="bold" lengthAdjust="spacing" textLength="52.1533" x="45.2192" y="1519.875">[&#24235;&#23384;&#19981;&#36275;]</text><polygon fill="#181818" points="396.4546,1540.5059,386.4546,1544.5059,396.4546,1548.5059,392.4546,1544.5059" style="stroke:#181818;stroke-width:1;"/><line style="stroke:#181818;stroke-width:1;stroke-dasharray:2.0,2.0;" x1="390.4546" x2="832.144" y1="1544.5059" y2="1544.5059"/><text fill="#000000" font-family="sans-serif" font-size="13" lengthAdjust="spacing" textLength="163.1729" x="527.7129" y="1539.7637">InventoryInsufficientEvent</text><rect fill="#EEEEEE" height="3" style="stroke:#EEEEEE;stroke-width:1;" width="1135.1396" x="0" y="1573.1611"/><line style="stroke:#000000;stroke-width:1;" x1="0" x2="1135.1396" y1="1573.1611" y2="1573.1611"/><line style="stroke:#000000;stroke-width:1;" x1="0" x2="1135.1396" y1="1576.1611" y2="1576.1611"/><rect fill="#EEEEEE" height="23.3105" style="stroke:#000000;stroke-width:2;" width="70.2847" x="532.4275" y="1562.5059"/><text fill="#000000" font-family="sans-serif" font-size="13" font-weight="bold" lengthAdjust="spacing" textLength="52" x="538.4275" y="1579.0742">&#21462;&#28040;&#35330;&#21934;</text><polygon fill="#181818" points="141.3574,1613.127,131.3574,1617.127,141.3574,1621.127,137.3574,1617.127" style="stroke:#181818;stroke-width:1;"/><line style="stroke:#181818;stroke-width:1;" x1="135.3574" x2="374.4546" y1="1617.127" y2="1617.127"/><text fill="#000000" font-family="sans-serif" font-size="13" lengthAdjust="spacing" textLength="200.0972" x="152.8574" y="1612.3848">cancelOrder(orderId, "&#24235;&#23384;&#19981;&#36275;")</text><polygon fill="#181818" points="363.4546,1642.4375,373.4546,1646.4375,363.4546,1650.4375,367.4546,1646.4375" style="stroke:#181818;stroke-width:1;"/><line style="stroke:#181818;stroke-width:1;stroke-dasharray:2.0,2.0;" x1="125.3574" x2="369.4546" y1="1646.4375" y2="1646.4375"/><text fill="#000000" font-family="sans-serif" font-size="13" lengthAdjust="spacing" textLength="131.1934" x="184.8093" y="1641.6953">OrderCancelledEvent</text><polygon fill="#181818" points="958.5903,1671.748,968.5903,1675.748,958.5903,1679.748,962.5903,1675.748" style="stroke:#181818;stroke-width:1;"/><line style="stroke:#181818;stroke-width:1;" x1="385.4546" x2="964.5903" y1="1675.748" y2="1675.748"/><text fill="#000000" font-family="sans-serif" font-size="13" lengthAdjust="spacing" textLength="308.2739" x="523.8855" y="1671.0059">sendOrderCancellationNotice(orderId, "&#24235;&#23384;&#19981;&#36275;")</text><polygon fill="#181818" points="396.4546,1701.0586,386.4546,1705.0586,396.4546,1709.0586,392.4546,1705.0586" style="stroke:#181818;stroke-width:1;"/><line style="stroke:#181818;stroke-width:1;stroke-dasharray:2.0,2.0;" x1="390.4546" x2="974.5903" y1="1705.0586" y2="1705.0586"/><text fill="#000000" font-family="sans-serif" font-size="13" lengthAdjust="spacing" textLength="134.3799" x="613.3325" y="1700.3164">NotificationSentEvent</text><polygon fill="#181818" points="11,1744.3691,1,1748.3691,11,1752.3691,7,1748.3691" style="stroke:#181818;stroke-width:1;"/><line style="stroke:#181818;stroke-width:1;stroke-dasharray:2.0,2.0;" x1="5" x2="119.3574" y1="1748.3691" y2="1748.3691"/><text fill="#000000" font-family="sans-serif" font-size="13" lengthAdjust="spacing" textLength="96.3574" x="12" y="1743.627">OrderResponse</text><path d="M283,1761.3691 L283,1832.3691 L476,1832.3691 L476,1771.3691 L466,1761.3691 L283,1761.3691 " fill="#FEFFDD" style="stroke:#181818;stroke-width:0.5;"/><path d="M466,1761.3691 L466,1771.3691 L476,1771.3691 L466,1761.3691 " fill="#FEFFDD" style="stroke:#181818;stroke-width:0.5;"/><text fill="#000000" font-family="sans-serif" font-size="13" lengthAdjust="spacing" textLength="98.5791" x="289" y="1778.9375">Saga&#21332;&#35519;&#22120;&#36000;&#36012;:</text><text fill="#000000" font-family="sans-serif" font-size="13" lengthAdjust="spacing" textLength="172.4468" x="289" y="1794.248">1. &#21332;&#35519;&#22810;&#20491;&#24494;&#26381;&#21209;&#20043;&#38291;&#30340;&#20107;&#21209;</text><text fill="#000000" font-family="sans-serif" font-size="13" lengthAdjust="spacing" textLength="94.4468" x="289" y="1809.5586">2. &#34389;&#29702;&#35036;&#20767;&#20107;&#21209;</text><text fill="#000000" font-family="sans-serif" font-size="13" lengthAdjust="spacing" textLength="97.9126" x="289" y="1824.8691">3. &#32173;&#35703;Saga&#29376;&#24907;</text><!--SRC=[jLTRRnj557wVNp4oBwb48YW18OiWnQaBAndRYX_xDAp7pYgRMJEx3kfRgHfeQj9Ma8OcgXGkHGg5656K02agVoQpTlu5PsQtxbvcxNNIZcHvT_QSyvtlt7RMNRLOXt2oXbtwMPSoatv2NPUqwQ9jjHasAVCeHsvAwYFkT3ibXpSfNt9iX-Ctvjzx_t9fFbEKcAjjk63DKBpyrbLO6l5bsg9SNgHKG7vnwSeubOyf0OSqYkNvqhlZ51SvTpwVHAHYjU37g8usyYpFfdXuS5Fiz8Ux3mRtlsoGDl4FVX3_taC837cMQNK8yt2X9jKRbAzR9YrWuk9QGoS0wk5Jk8eBrCdrDSXCr4OzOQFYj2qNRjseK2KXPB1rCEFmwr4X8o5KTJohPPd4inmMbQicvChILgdhgeVb4a8B2s4ynEQHU7PojdVNxn_XXGLqRVP3O5N49gV4euhjp2L4JCzQXtiPZbe3WqovLCITxgUsvQxCAAabfT1KI14502kNi38AeIhY5SAQDjMfD6bKAO8eGunaqNHIEKGO5d0H9x-AmuV-an_z_PzVSf4FbRh4DoIf5MgkZW8xesh5Q5vIWYD0YB6y3pPjBxGjDZQ6nt-gJRaC2C9BKYEJozI5B8IKHi8HPg7n4K3elx_z- -cpXm6lkFyn3dNWqE6E2MCWBBCuXnYFkWPAyWcm_DltnPtzqGEvwZ5E8S2IizQngPUabA0LmOhXXVG6cx_uHrzaqOjHh015mZbXRNg5sjOwJUOfnRCo1blo3S15VzE_-us6jLoL6FCNk8k16nhc2VO93r9Ul2ZI_jU07vImFWgnIAWk3ACVzA4s3h5Or1eQUr5kGTzbvpJ1h9Q3sSZXAZZiKjOCCLZBucjgCkLml9e6giOSZqywvarqlJh1TMgxD5ORul4V_eFlSjR6LMBPhwuoXZyz4hVsJqzwehTRnEBUZdzyEsZJiHKYnm6dBNYPPaw3SLDXRDylAxivADRFG_7igvw__JoOh6Cf6egYJObBC-QsbgMHTYfpOYlZataQEPjS9IzeyidjJU3eOiUQ-qrSI1TbuU8jhv3irzlo0OPgKTck9ZqtgTS-3i1d_Lj3ZOMWzpG3GTigMRCW__inVtESep6oAdZgXiXk1ZH54-HeW6Zu2nba4cKwNSbdbpkwO9ddSJrHYjCMjhweemMDHeKS5D7ftrivpgu6SxijWBPIg9FFhra9pv7ig8i5pJ4sag3yITOd65qWiPFSZAHYceIcaoaJANyena5-wrpxO7PM1L9v2vyQ7OUvD2w747FWme4pIgY5iVmJMzl39_-9tOFXq- -7JtyhmlRRSpZSVRmdRlJ4yxx_Q0i6qEa_lRETRmTxju9v19ANvt1mTe_EATX_PmuFZW-7Xtz9X47lXh_HawvZwGBw7m00]--></g></svg>