<svg xmlns="http://www.w3.org/2000/svg" xmlns:xlink="http://www.w3.org/1999/xlink" contentStyleType="text/css" data-diagram-type="STATE" height="1573px" preserveAspectRatio="none" style="width:608px;height:1573px;background:#FFFFFF;" version="1.1" viewBox="0 0 608 1573" width="608px" zoomAndPan="magnify"><defs/><g><path d="M140,103 L228,103 A12.5,12.5 0 0 1 240.5,115.5 L240.5,129.4883 L127.5,129.4883 L127.5,115.5 A12.5,12.5 0 0 1 140,103" fill="#85BBF0"/><rect fill="none" height="332.4883" rx="12.5" ry="12.5" style="stroke:#181818;stroke-width:0.5;" width="113" x="127.5" y="103"/><line style="stroke:#181818;stroke-width:0.5;" x1="127.5" x2="240.5" y1="129.4883" y2="129.4883"/><text fill="#000000" font-family="sans-serif" font-size="14" lengthAdjust="spacing" textLength="62.7129" x="152.6436" y="121.5352">CREATED</text><g id="CREATED.VALIDATING"><rect fill="#F1F1F1" height="50" rx="12.5" ry="12.5" style="stroke:#181818;stroke-width:0.5;" width="76" x="139.5" y="197.4883"/><line style="stroke:#181818;stroke-width:0.5;" x1="139.5" x2="215.5" y1="223.9766" y2="223.9766"/><text fill="#000000" font-family="sans-serif" font-size="14" lengthAdjust="spacing" textLength="56" x="149.5" y="216.0234">&#39511;&#35657;&#35330;&#21934;</text></g><g id="CREATED.CALCULATING"><rect fill="#F1F1F1" height="50" rx="12.5" ry="12.5" style="stroke:#181818;stroke-width:0.5;" width="76" x="139.5" y="300.4883"/><line style="stroke:#181818;stroke-width:0.5;" x1="139.5" x2="215.5" y1="326.9766" y2="326.9766"/><text fill="#000000" font-family="sans-serif" font-size="14" lengthAdjust="spacing" textLength="56" x="149.5" y="319.0234">&#35336;&#31639;&#32317;&#38989;</text></g><ellipse cx="177.5" cy="150.4883" fill="#222222" rx="10" ry="10" style="stroke:#222222;stroke-width:1;"/><ellipse cx="177.5" cy="414.4883" fill="none" rx="11" ry="11" style="stroke:#222222;stroke-width:1;"/><ellipse cx="177.5" cy="414.4883" fill="#222222" rx="6" ry="6" style="stroke:#222222;stroke-width:1;"/><!--link *start*CREATED to VALIDATING--><g class="link" data-entity-1=".start.CREATED" data-entity-2="VALIDATING" data-source-line="11" data-uid="lnk5" id="link_.start.CREATED_VALIDATING"><path d="M177.5,160.9283 C177.5,170.1883 177.5,178.6783 177.5,191.1683" fill="none" id="*start*CREATED-to-VALIDATING" style="stroke:#181818;stroke-width:1;"/><polygon fill="#181818" points="177.5,197.1683,181.5,188.1683,177.5,192.1683,173.5,188.1683,177.5,197.1683" style="stroke:#181818;stroke-width:1;"/></g><!--link VALIDATING to CALCULATING--><g class="link" data-entity-1="VALIDATING" data-entity-2="CALCULATING" data-source-line="12" data-uid="lnk6" id="link_VALIDATING_CALCULATING"><path d="M177.5,247.9383 C177.5,263.8183 177.5,278.4283 177.5,294.2683" fill="none" id="VALIDATING-to-CALCULATING" style="stroke:#181818;stroke-width:1;"/><polygon fill="#181818" points="177.5,300.2683,181.5,291.2683,177.5,295.2683,173.5,291.2683,177.5,300.2683" style="stroke:#181818;stroke-width:1;"/><text fill="#000000" font-family="sans-serif" font-size="13" lengthAdjust="spacing" textLength="52" x="178.5" y="279.0566">&#39511;&#35657;&#36890;&#36942;</text></g><!--link CALCULATING to *end*CREATED--><g class="link" data-entity-1="CALCULATING" data-entity-2=".end.CREATED" data-source-line="13" data-uid="lnk8" id="link_CALCULATING_.end.CREATED"><path d="M177.5,350.7183 C177.5,368.0183 177.5,384.4083 177.5,397.2383" fill="none" id="CALCULATING-to-*end*CREATED" style="stroke:#181818;stroke-width:1;"/><polygon fill="#181818" points="177.5,403.2383,181.5,394.2383,177.5,398.2383,173.5,394.2383,177.5,403.2383" style="stroke:#181818;stroke-width:1;"/><text fill="#000000" font-family="sans-serif" font-size="13" lengthAdjust="spacing" textLength="52" x="178.5" y="382.0566">&#35336;&#31639;&#23436;&#25104;</text></g><path d="M19.5,512.48 L160.5,512.48 A12.5,12.5 0 0 1 173,524.98 L173,538.9683 L7,538.9683 L7,524.98 A12.5,12.5 0 0 1 19.5,512.48" fill="#F1F1F1"/><rect fill="none" height="332.4883" rx="12.5" ry="12.5" style="stroke:#181818;stroke-width:0.5;" width="166" x="7" y="512.48"/><line style="stroke:#181818;stroke-width:0.5;" x1="7" x2="173" y1="538.9683" y2="538.9683"/><text fill="#000000" font-family="sans-serif" font-size="14" lengthAdjust="spacing" textLength="132.6104" x="23.6948" y="531.0152">PENDING_PAYMENT</text><g id="PENDING_PAYMENT.INIT_PAYMENT"><rect fill="#F1F1F1" height="50" rx="12.5" ry="12.5" style="stroke:#181818;stroke-width:0.5;" width="90" x="26" y="606.9683"/><line style="stroke:#181818;stroke-width:0.5;" x1="26" x2="116" y1="633.4566" y2="633.4566"/><text fill="#000000" font-family="sans-serif" font-size="14" lengthAdjust="spacing" textLength="70" x="36" y="625.5034">&#21021;&#22987;&#21270;&#25903;&#20184;</text></g><g id="PENDING_PAYMENT.WAITING_PAYMENT"><rect fill="#F1F1F1" height="50" rx="12.5" ry="12.5" style="stroke:#181818;stroke-width:0.5;" width="104" x="19" y="709.9683"/><line style="stroke:#181818;stroke-width:0.5;" x1="19" x2="123" y1="736.4566" y2="736.4566"/><text fill="#000000" font-family="sans-serif" font-size="14" lengthAdjust="spacing" textLength="84" x="29" y="728.5034">&#31561;&#24453;&#25903;&#20184;&#30906;&#35469;</text></g><ellipse cx="71" cy="559.9683" fill="#222222" rx="10" ry="10" style="stroke:#222222;stroke-width:1;"/><ellipse cx="71" cy="823.9683" fill="none" rx="11" ry="11" style="stroke:#222222;stroke-width:1;"/><ellipse cx="71" cy="823.9683" fill="#222222" rx="6" ry="6" style="stroke:#222222;stroke-width:1;"/><!--link *start*PENDING_PAYMENT to INIT_PAYMENT--><g class="link" data-entity-1=".start.PENDING_PAYMENT" data-entity-2="INIT_PAYMENT" data-source-line="20" data-uid="lnk11" id="link_.start.PENDING_PAYMENT_INIT_PAYMENT"><path d="M71,570.4083 C71,579.6683 71,588.1583 71,600.6483" fill="none" id="*start*PENDING_PAYMENT-to-INIT_PAYMENT" style="stroke:#181818;stroke-width:1;"/><polygon fill="#181818" points="71,606.6483,75,597.6483,71,601.6483,67,597.6483,71,606.6483" style="stroke:#181818;stroke-width:1;"/></g><!--link INIT_PAYMENT to WAITING_PAYMENT--><g class="link" data-entity-1="INIT_PAYMENT" data-entity-2="WAITING_PAYMENT" data-source-line="21" data-uid="lnk12" id="link_INIT_PAYMENT_WAITING_PAYMENT"><path d="M71,657.4183 C71,673.2983 71,687.9083 71,703.7483" fill="none" id="INIT_PAYMENT-to-WAITING_PAYMENT" style="stroke:#181818;stroke-width:1;"/><polygon fill="#181818" points="71,709.7483,75,700.7483,71,704.7483,67,700.7483,71,709.7483" style="stroke:#181818;stroke-width:1;"/><text fill="#000000" font-family="sans-serif" font-size="13" lengthAdjust="spacing" textLength="91" x="72" y="688.5366">&#25903;&#20184;&#35531;&#27714;&#24050;&#30332;&#36865;</text></g><!--link WAITING_PAYMENT to *end*PENDING_PAYMENT--><g class="link" data-entity-1="WAITING_PAYMENT" data-entity-2=".end.PENDING_PAYMENT" data-source-line="22" data-uid="lnk14" id="link_WAITING_PAYMENT_.end.PENDING_PAYMENT"><path d="M71,760.1983 C71,777.4983 71,793.8883 71,806.7183" fill="none" id="WAITING_PAYMENT-to-*end*PENDING_PAYMENT" style="stroke:#181818;stroke-width:1;"/><polygon fill="#181818" points="71,812.7183,75,803.7183,71,807.7183,67,803.7183,71,812.7183" style="stroke:#181818;stroke-width:1;"/><text fill="#000000" font-family="sans-serif" font-size="13" lengthAdjust="spacing" textLength="78" x="72" y="791.5366">&#25903;&#20184;&#32080;&#26524;&#36820;&#22238;</text></g><path d="M39.5,921.97 L140.5,921.97 A12.5,12.5 0 0 1 153,934.47 L153,948.4583 L27,948.4583 L27,934.47 A12.5,12.5 0 0 1 39.5,921.97" fill="#F1F1F1"/><rect fill="none" height="435.4883" rx="12.5" ry="12.5" style="stroke:#181818;stroke-width:0.5;" width="126" x="27" y="921.97"/><line style="stroke:#181818;stroke-width:0.5;" x1="27" x2="153" y1="948.4583" y2="948.4583"/><text fill="#000000" font-family="sans-serif" font-size="14" lengthAdjust="spacing" textLength="81.4297" x="49.2852" y="940.5052">CONFIRMED</text><g id="CONFIRMED.ARRANGING_DELIVERY"><rect fill="#F1F1F1" height="50" rx="12.5" ry="12.5" style="stroke:#181818;stroke-width:0.5;" width="76" x="39" y="1016.4583"/><line style="stroke:#181818;stroke-width:0.5;" x1="39" x2="115" y1="1042.9466" y2="1042.9466"/><text fill="#000000" font-family="sans-serif" font-size="14" lengthAdjust="spacing" textLength="56" x="49" y="1034.9934">&#23433;&#25490;&#37197;&#36865;</text></g><g id="CONFIRMED.SHIPPING"><rect fill="#F1F1F1" height="50" rx="12.5" ry="12.5" style="stroke:#181818;stroke-width:0.5;" width="62" x="46" y="1119.4583"/><line style="stroke:#181818;stroke-width:0.5;" x1="46" x2="108" y1="1145.9466" y2="1145.9466"/><text fill="#000000" font-family="sans-serif" font-size="14" lengthAdjust="spacing" textLength="42" x="56" y="1137.9934">&#37197;&#36865;&#20013;</text></g><g id="CONFIRMED.WAITING_RECEIPT"><rect fill="#F1F1F1" height="50" rx="12.5" ry="12.5" style="stroke:#181818;stroke-width:0.5;" width="76" x="39" y="1222.4583"/><line style="stroke:#181818;stroke-width:0.5;" x1="39" x2="115" y1="1248.9466" y2="1248.9466"/><text fill="#000000" font-family="sans-serif" font-size="14" lengthAdjust="spacing" textLength="56" x="49" y="1240.9934">&#31561;&#24453;&#31805;&#25910;</text></g><ellipse cx="77" cy="969.4583" fill="#222222" rx="10" ry="10" style="stroke:#222222;stroke-width:1;"/><ellipse cx="77" cy="1336.4583" fill="none" rx="11" ry="11" style="stroke:#222222;stroke-width:1;"/><ellipse cx="77" cy="1336.4583" fill="#222222" rx="6" ry="6" style="stroke:#222222;stroke-width:1;"/><!--link *start*CONFIRMED to ARRANGING_DELIVERY--><g class="link" data-entity-1=".start.CONFIRMED" data-entity-2="ARRANGING_DELIVERY" data-source-line="32" data-uid="lnk19" id="link_.start.CONFIRMED_ARRANGING_DELIVERY"><path d="M77,979.8983 C77,989.1583 77,997.6483 77,1010.1383" fill="none" id="*start*CONFIRMED-to-ARRANGING_DELIVERY" style="stroke:#181818;stroke-width:1;"/><polygon fill="#181818" points="77,1016.1383,81,1007.1383,77,1011.1383,73,1007.1383,77,1016.1383" style="stroke:#181818;stroke-width:1;"/></g><!--link ARRANGING_DELIVERY to SHIPPING--><g class="link" data-entity-1="ARRANGING_DELIVERY" data-entity-2="SHIPPING" data-source-line="33" data-uid="lnk20" id="link_ARRANGING_DELIVERY_SHIPPING"><path d="M77,1066.9083 C77,1082.7883 77,1097.3983 77,1113.2383" fill="none" id="ARRANGING_DELIVERY-to-SHIPPING" style="stroke:#181818;stroke-width:1;"/><polygon fill="#181818" points="77,1119.2383,81,1110.2383,77,1114.2383,73,1110.2383,77,1119.2383" style="stroke:#181818;stroke-width:1;"/><text fill="#000000" font-family="sans-serif" font-size="13" lengthAdjust="spacing" textLength="52" x="78" y="1098.0266">&#38283;&#22987;&#37197;&#36865;</text></g><!--link SHIPPING to WAITING_RECEIPT--><g class="link" data-entity-1="SHIPPING" data-entity-2="WAITING_RECEIPT" data-source-line="34" data-uid="lnk21" id="link_SHIPPING_WAITING_RECEIPT"><path d="M77,1169.9083 C77,1185.7883 77,1200.3983 77,1216.2383" fill="none" id="SHIPPING-to-WAITING_RECEIPT" style="stroke:#181818;stroke-width:1;"/><polygon fill="#181818" points="77,1222.2383,81,1213.2383,77,1217.2383,73,1213.2383,77,1222.2383" style="stroke:#181818;stroke-width:1;"/><text fill="#000000" font-family="sans-serif" font-size="13" lengthAdjust="spacing" textLength="65" x="78" y="1201.0266">&#21040;&#36948;&#30446;&#30340;&#22320;</text></g><!--link WAITING_RECEIPT to *end*CONFIRMED--><g class="link" data-entity-1="WAITING_RECEIPT" data-entity-2=".end.CONFIRMED" data-source-line="35" data-uid="lnk23" id="link_WAITING_RECEIPT_.end.CONFIRMED"><path d="M77,1272.6883 C77,1289.9883 77,1306.3783 77,1319.2083" fill="none" id="WAITING_RECEIPT-to-*end*CONFIRMED" style="stroke:#181818;stroke-width:1;"/><polygon fill="#181818" points="77,1325.2083,81,1316.2083,77,1320.2083,73,1316.2083,77,1325.2083" style="stroke:#181818;stroke-width:1;"/><text fill="#000000" font-family="sans-serif" font-size="13" lengthAdjust="spacing" textLength="52" x="78" y="1304.0266">&#23458;&#25142;&#31805;&#25910;</text></g><ellipse cx="184" cy="16" fill="#222222" rx="10" ry="10" style="stroke:#222222;stroke-width:1;"/><g id="FAILED"><rect fill="#FF6347" height="50" rx="12.5" ry="12.5" style="stroke:#181818;stroke-width:0.5;" width="66.7373" x="322.63" y="1114.72"/><line style="stroke:#181818;stroke-width:0.5;" x1="322.63" x2="389.3673" y1="1141.2083" y2="1141.2083"/><text fill="#000000" font-family="sans-serif" font-size="14" lengthAdjust="spacing" textLength="46.7373" x="332.63" y="1133.2552">FAILED</text></g><g id="DELIVERED"><rect fill="#F1F1F1" height="50" rx="12.5" ry="12.5" style="stroke:#181818;stroke-width:0.5;" width="93.2402" x="48.38" y="1434.46"/><line style="stroke:#181818;stroke-width:0.5;" x1="48.38" x2="141.6202" y1="1460.9483" y2="1460.9483"/><text fill="#000000" font-family="sans-serif" font-size="14" lengthAdjust="spacing" textLength="73.2402" x="58.38" y="1452.9952">DELIVERED</text></g><ellipse cx="225" cy="1556.46" fill="none" rx="11" ry="11" style="stroke:#222222;stroke-width:1;"/><ellipse cx="225" cy="1556.46" fill="#222222" rx="6" ry="6" style="stroke:#222222;stroke-width:1;"/><g class="entity" data-entity="GMN2" data-source-line="48" data-uid="ent0003" id="entity_GMN2"><path d="M275,248.93 L275,265.24 L240.77,269.24 L275,273.24 L275,289.5511 A0,0 0 0 0 275,289.5511 L439,289.5511 A0,0 0 0 0 439,289.5511 L439,258.93 L429,248.93 L275,248.93 A0,0 0 0 0 275,248.93" fill="#FEFFDD" style="stroke:#181818;stroke-width:0.5;"/><path d="M429,248.93 L429,258.93 L439,258.93 L429,248.93" fill="#FEFFDD" style="stroke:#181818;stroke-width:0.5;"/><text fill="#000000" font-family="sans-serif" font-size="13" lengthAdjust="spacing" textLength="104" x="281" y="266.4984">&#35330;&#21934;&#21083;&#24314;&#31435;&#30340;&#29376;&#24907;</text><text fill="#000000" font-family="sans-serif" font-size="13" lengthAdjust="spacing" textLength="143" x="281" y="281.8089">&#21487;&#20197;&#28155;&#21152;&#25110;&#20462;&#25913;&#35330;&#21934;&#38917;&#30446;</text></g><g class="entity" data-entity="GMN5" data-source-line="53" data-uid="ent0006" id="entity_GMN5"><path d="M208,658.42 L208,674.73 L173.27,678.73 L208,682.73 L208,699.0411 A0,0 0 0 0 208,699.0411 L346,699.0411 A0,0 0 0 0 346,699.0411 L346,668.42 L336,658.42 L208,658.42 A0,0 0 0 0 208,658.42" fill="#FEFFDD" style="stroke:#181818;stroke-width:0.5;"/><path d="M336,658.42 L336,668.42 L346,668.42 L336,658.42" fill="#FEFFDD" style="stroke:#181818;stroke-width:0.5;"/><text fill="#000000" font-family="sans-serif" font-size="13" lengthAdjust="spacing" textLength="78" x="214" y="675.9884">&#31561;&#24453;&#25903;&#20184;&#23436;&#25104;</text><text fill="#000000" font-family="sans-serif" font-size="13" lengthAdjust="spacing" textLength="117" x="214" y="691.2989">&#27492;&#38542;&#27573;&#35330;&#21934;&#19981;&#21487;&#20462;&#25913;</text></g><g class="entity" data-entity="GMN8" data-source-line="58" data-uid="ent0009" id="entity_GMN8"><path d="M188.5,1119.41 L188.5,1135.72 L153.3,1139.72 L188.5,1143.72 L188.5,1160.0311 A0,0 0 0 0 188.5,1160.0311 L287.5,1160.0311 A0,0 0 0 0 287.5,1160.0311 L287.5,1129.41 L277.5,1119.41 L188.5,1119.41 A0,0 0 0 0 188.5,1119.41" fill="#FEFFDD" style="stroke:#181818;stroke-width:0.5;"/><path d="M277.5,1119.41 L277.5,1129.41 L287.5,1129.41 L277.5,1119.41" fill="#FEFFDD" style="stroke:#181818;stroke-width:0.5;"/><text fill="#000000" font-family="sans-serif" font-size="13" lengthAdjust="spacing" textLength="65" x="194.5" y="1136.9784">&#35330;&#21934;&#24050;&#30906;&#35469;</text><text fill="#000000" font-family="sans-serif" font-size="13" lengthAdjust="spacing" textLength="78" x="194.5" y="1152.2889">&#38283;&#22987;&#29289;&#27969;&#34389;&#29702;</text></g><g class="entity" data-entity="GMN11" data-source-line="63" data-uid="ent0012" id="entity_GMN11"><path d="M176.5,1439.15 L176.5,1455.46 L141.97,1459.46 L176.5,1463.46 L176.5,1479.7711 A0,0 0 0 0 176.5,1479.7711 L301.5,1479.7711 A0,0 0 0 0 301.5,1479.7711 L301.5,1449.15 L291.5,1439.15 L176.5,1439.15 A0,0 0 0 0 176.5,1439.15" fill="#FEFFDD" style="stroke:#181818;stroke-width:0.5;"/><path d="M291.5,1439.15 L291.5,1449.15 L301.5,1449.15 L291.5,1439.15" fill="#FEFFDD" style="stroke:#181818;stroke-width:0.5;"/><text fill="#000000" font-family="sans-serif" font-size="13" lengthAdjust="spacing" textLength="65" x="182.5" y="1456.7184">&#35330;&#21934;&#24050;&#23436;&#25104;</text><text fill="#000000" font-family="sans-serif" font-size="13" lengthAdjust="spacing" textLength="104" x="182.5" y="1472.0289">&#21487;&#36914;&#34892;&#35413;&#20729;&#21644;&#21806;&#24460;</text></g><g class="entity" data-entity="GMN14" data-source-line="68" data-uid="ent0015" id="entity_GMN14"><path d="M424.5,1119.41 L424.5,1135.72 L389.73,1139.72 L424.5,1143.72 L424.5,1160.0311 A0,0 0 0 0 424.5,1160.0311 L601.5,1160.0311 A0,0 0 0 0 601.5,1160.0311 L601.5,1129.41 L591.5,1119.41 L424.5,1119.41 A0,0 0 0 0 424.5,1119.41" fill="#FEFFDD" style="stroke:#181818;stroke-width:0.5;"/><path d="M591.5,1119.41 L591.5,1129.41 L601.5,1129.41 L591.5,1119.41" fill="#FEFFDD" style="stroke:#181818;stroke-width:0.5;"/><text fill="#000000" font-family="sans-serif" font-size="13" lengthAdjust="spacing" textLength="78" x="430.5" y="1136.9784">&#35330;&#21934;&#34389;&#29702;&#22833;&#25943;</text><text fill="#000000" font-family="sans-serif" font-size="13" lengthAdjust="spacing" textLength="156" x="430.5" y="1152.2889">&#21487;&#33021;&#26159;&#25903;&#20184;&#22833;&#25943;&#25110;&#24235;&#23384;&#19981;&#36275;</text></g><!--link *start* to CREATED--><g class="link" data-entity-1=".start." data-entity-2="CREATED" data-source-line="7" data-uid="lnk3" id="link_.start._CREATED"><path d="M184,26.24 C184,40.44 184,63.53 184,96.76" fill="none" id="*start*-to-CREATED" style="stroke:#181818;stroke-width:1;"/><polygon fill="#181818" points="184,102.76,188,93.76,184,97.76,180,93.76,184,102.76" style="stroke:#181818;stroke-width:1;"/><text fill="#000000" font-family="sans-serif" font-size="13" lengthAdjust="spacing" textLength="52" x="185" y="69.5684">&#24314;&#31435;&#35330;&#21934;</text></g><!--link CREATED to PENDING_PAYMENT--><g class="link" data-entity-1="CREATED" data-entity-2="PENDING_PAYMENT" data-source-line="16" data-uid="lnk9" id="link_CREATED_PENDING_PAYMENT"><path d="M127.17,362.75 C110.86,394.19 95.26,430.29 87,465.48 C83.48,480.46 81.7167,490.2223 80.3467,506.0723" fill="none" id="CREATED-to-PENDING_PAYMENT" style="stroke:#181818;stroke-width:1;"/><polygon fill="#181818" points="79.83,512.05,84.5902,503.4279,80.2606,507.0686,76.6199,502.739,79.83,512.05" style="stroke:#181818;stroke-width:1;"/><text fill="#000000" font-family="sans-serif" font-size="13" lengthAdjust="spacing" textLength="52" x="88" y="479.0484">&#25552;&#20132;&#35330;&#21934;</text></g><!--link PENDING_PAYMENT to CREATED--><g class="link" data-entity-1="PENDING_PAYMENT" data-entity-2="CREATED" data-source-line="43" data-uid="lnk29" id="link_PENDING_PAYMENT_CREATED"><path d="M137.8,512.1 C140.33,502.1 142.75,492.17 145,482.48 C148.5,467.43 150.6832,457.5994 153.8932,441.8294" fill="none" id="PENDING_PAYMENT-to-CREATED" style="stroke:#181818;stroke-width:1;"/><polygon fill="#181818" points="155.09,435.95,149.3752,443.9713,154.0927,440.8495,157.2145,445.567,155.09,435.95" style="stroke:#181818;stroke-width:1;"/><text fill="#000000" font-family="sans-serif" font-size="13" lengthAdjust="spacing" textLength="84.8174" x="148.58" y="479.0484">&#25903;&#20184;&#21462;&#28040;/&#37325;&#35430;</text></g><!--link PENDING_PAYMENT to CONFIRMED--><g class="link" data-entity-1="PENDING_PAYMENT" data-entity-2="CONFIRMED" data-source-line="25" data-uid="lnk15" id="link_PENDING_PAYMENT_CONFIRMED"><path d="M90,845.43 C90,870.21 90,890.07 90,915.72" fill="none" id="PENDING_PAYMENT-to-CONFIRMED" style="stroke:#181818;stroke-width:1;"/><polygon fill="#181818" points="90,921.72,94,912.72,90,916.72,86,912.72,90,921.72" style="stroke:#181818;stroke-width:1;"/><text fill="#000000" font-family="sans-serif" font-size="13" lengthAdjust="spacing" textLength="52" x="91" y="888.5384">&#25903;&#20184;&#25104;&#21151;</text></g><!--link PENDING_PAYMENT to FAILED--><g class="link" data-entity-1="PENDING_PAYMENT" data-entity-2="FAILED" data-source-line="26" data-uid="lnk17" id="link_PENDING_PAYMENT_FAILED"><path d="M173.18,825.74 C178.6,832.46 184.21,838.91 190,844.97 C232.49,889.45 269.97,871.41 305,921.97 C346.61,982.03 354.3948,1065.5429 355.7148,1108.2929" fill="none" id="PENDING_PAYMENT-to-FAILED" style="stroke:#181818;stroke-width:1;"/><polygon fill="#181818" points="355.9,1114.29,359.6203,1105.1708,355.7457,1109.2924,351.6241,1105.4177,355.9,1114.29" style="stroke:#181818;stroke-width:1;"/><text fill="#000000" font-family="sans-serif" font-size="13" lengthAdjust="spacing" textLength="52" x="273.74" y="888.5384">&#25903;&#20184;&#22833;&#25943;</text></g><!--link CONFIRMED to DELIVERED--><g class="link" data-entity-1="CONFIRMED" data-entity-2="DELIVERED" data-source-line="38" data-uid="lnk25" id="link_CONFIRMED_DELIVERED"><path d="M93.42,1357.92 C93.9,1388.47 94.2353,1409.6707 94.5253,1428.0507" fill="none" id="CONFIRMED-to-DELIVERED" style="stroke:#181818;stroke-width:1;"/><polygon fill="#181818" points="94.62,1434.05,98.4775,1424.988,94.5411,1429.0506,90.4785,1425.1142,94.62,1434.05" style="stroke:#181818;stroke-width:1;"/><text fill="#000000" font-family="sans-serif" font-size="13" lengthAdjust="spacing" textLength="78" x="95.04" y="1401.0284">&#29289;&#27969;&#37197;&#36865;&#23436;&#25104;</text></g><!--link DELIVERED to *end*--><g class="link" data-entity-1="DELIVERED" data-entity-2=".end." data-source-line="39" data-uid="lnk27" id="link_DELIVERED_.end."><path d="M128.48,1484.92 C157.97,1506.48 194.0353,1532.8303 211.5953,1545.6603" fill="none" id="DELIVERED-to-*end*" style="stroke:#181818;stroke-width:1;"/><polygon fill="#181818" points="216.44,1549.2,211.5328,1540.6607,212.4028,1546.2503,206.8132,1547.1202,216.44,1549.2" style="stroke:#181818;stroke-width:1;"/></g><!--link FAILED to *end*--><g class="link" data-entity-1="FAILED" data-entity-2=".end." data-source-line="40" data-uid="lnk28" id="link_FAILED_.end."><path d="M359.62,1165.18 C367.14,1224.42 379.07,1378.45 319,1484.46 C299.34,1519.16 260.5591,1539.7225 240.5891,1548.7325" fill="none" id="FAILED-to-*end*" style="stroke:#181818;stroke-width:1;"/><polygon fill="#181818" points="235.12,1551.2,244.9687,1551.1448,239.6776,1549.1437,241.6787,1543.8526,235.12,1551.2" style="stroke:#181818;stroke-width:1;"/></g><!--link FAILED to CREATED--><g class="link" data-entity-1="FAILED" data-entity-2="CREATED" data-source-line="44" data-uid="lnk30" id="link_FAILED_CREATED"><path d="M359.25,1114.54 C372.5,1012.83 419.1,620.02 364,512.48 C337.28,460.34 293.91,480.99 257,435.48 C251.27,428.42 249.1134,425.907 244.1034,418.007" fill="none" id="FAILED-to-CREATED" style="stroke:#181818;stroke-width:1;"/><polygon fill="#181818" points="240.89,412.94,242.3321,422.6827,243.5678,417.1625,249.088,418.3982,240.89,412.94" style="stroke:#181818;stroke-width:1;"/><text fill="#000000" font-family="sans-serif" font-size="13" lengthAdjust="spacing" textLength="52" x="391.27" y="683.7984">&#37325;&#26032;&#19979;&#21934;</text></g><!--SRC=[TLHRJnf157xVNp6n3qsQc9hqOcECoGgBtGGfeTJ6D4r3wgL42mtIfwQ9Q6b1G8X1l62jMbkbXXLjH8IYVuQPdVqNdPtPky0RUxxpdUzyvvnPc0j7FeHYeVTW8HwAJuDF722_qT3RkTbOz6DaoXMTZyQ6XyEHS3mScXyP0NUUF1eTzGnqXys48mpayV03Wtntq7Gi5eqnqEC73mUvpnptwjvhqDy_0bm1WGyARZ04OAifdsJmyH8iIHoJfWUjQfXS5kzJAXkuccOvVI2q02Puh-ZcWw9lp0h3nobPsf0RRMK_Hs4ktkjwuJLnkXf7klcNQJMpY5vMMrdSLXAh56qDgt2LT0Ymsb3AebH1RLplIKNu1P-ReD_u-SbnmHSaQ9GlT9g7DXES89i1CFKT7cLWjeIAfvtM9crEz8b17Mt5ojKql4uoe7pGn7-O5ozvCMZXj_bnYyhwWI8SsMeBj00-oQ2p9NXvBc_zKnOJDDc9DKtIH5qKqEuElYd2ygvgbRDpEeDdFeyO6ASRmxA8ht3bHrUmXnUzT7tq1THpuE4PMj_Wz3KpEEtUIccqkgOaSqG_TOeF17ZVc5h4BNZ52I4mQTj52kmqgXJx_AdezplMa0r0hhLHiMwpFY2u1D5ljxv7iTkVALelf-vbAKDMWgcXAKRCEY-jf7ftgPgIACfbITx-0dTgjadfA7DIK3f0gJhhWQwpuPsAqJJHwSZf2hf8C1tQ-fjXdT1uG3XjLhS3t5q0ywTukKtqoPb5bCpWTXhboztNmtXEj47dIwYUkgzyo-7ARsiD4qXYg5JhD3BgoP5Y-BY5ZtvoaIWPMImy-ouEeZCwd9Z3RXEco-ozCaIH497PQVr2bosuieTIfSwDX8fN3A_i9Od3t7Ha2gZ4d8FUqGhXiXwhvXu0g7geRAyYwOAHTXevjIGjqvFQ692fdHmbFN_oXIqB6nNUMfSBNtiI6SEp4XdIY11byHplPt5b7IvVmRKiB4hmEjkJZit2u6B5jRi4siJHvgdrNecdi7a2gvkaSLp_QrB_1m00]--></g></svg>