<svg xmlns="http://www.w3.org/2000/svg" xmlns:xlink="http://www.w3.org/1999/xlink" contentStyleType="text/css" height="986px" preserveAspectRatio="none" style="width:2415px;height:986px;background:#FFFFFF;" version="1.1" viewBox="0 0 2415 986" width="2415px" zoomAndPan="magnify"><defs/><g><!--cluster Client--><g id="cluster_Client"><polygon fill="#85BBF0" points="16,16,26,6,324,6,324,170.49,314,180.49,16,180.49,16,16" style="stroke:#181818;stroke-width:1;"/><line style="stroke:#181818;stroke-width:1;" x1="314" x2="324" y1="16" y2="6"/><line style="stroke:#181818;stroke-width:1;" x1="16" x2="314" y1="16" y2="16"/><line style="stroke:#181818;stroke-width:1;" x1="314" x2="314" y1="16" y2="180.49"/><text fill="#000000" font-family="sans-serif" font-size="14" font-style="italic" lengthAdjust="spacing" textLength="73.3701" x="129.3149" y="32.5352">&#171;frontend&#187;</text><text fill="#000000" font-family="sans-serif" font-size="14" font-weight="bold" lengthAdjust="spacing" textLength="42" x="145" y="49.0234">&#23458;&#25142;&#31471;</text></g><!--cluster LoadBalancer--><g id="cluster_LoadBalancer"><path d="M150.8455,297.8282 C154.089,291.4675 159.4489,292.4869 163.1582,297.3156 C167.0355,290.935 171.9444,288.4842 177.3331,295.7452 C181.4629,288.689 185.4284,289.478 190.0954,295.2091 C194.8671,288.4274 199.4931,290.4562 203.1513,296.3556 C206.8451,289.6134 212.2469,288.8061 217.7728,294.1366 C221.7012,288.7927 225.8413,289.1994 229.1984,294.7366 C232.6981,288.8077 239.0229,289.2218 242.3797,294.8989 C245.9944,287.9922 253.3114,286.3834 257.5501,294.2584 C261.8933,289.5164 266.0413,289.4269 269.7807,294.976 C274.2911,288.2836 279.918,289.4457 282.7531,296.5511 C287.6484,288.7779 293.2625,290.9681 297.5738,297.1705 C305.2994,290.4376 313.3109,291.7768 316,302.49 C317.0046,302.7313 317.3504,303.515 316.5604,304.3091 C322.1716,307.426 323.0524,311.5205 317.8329,315.8333 C324.7026,319.9317 325.9107,324.7836 319.5962,330.4704 C325.8519,332.7404 326.8715,337.0072 322.2789,341.8374 C328.3702,344.8746 330.363,349.8861 323.9487,354.5641 C330.396,358.8527 330.0222,364.7968 323.6737,368.8388 C328.2145,373.5744 326.708,378.4359 320.3409,379.8784 C326.8208,384.2558 325.0341,390.6265 318.6439,393.3872 C324.892,404.82 320.4266,409.7099 309,411.97 C310.105,411.2738 311.0847,411.8718 311.0505,413.1519 C307.8051,419.8886 301.4074,421.5757 296.2208,415.3774 C291.3341,421.2787 287.1646,420.4757 283.333,414.2556 C280.485,420.2576 273.7967,422.2068 269.512,415.8642 C266.3876,422.6753 261.513,422.716 257.5166,416.6783 C253.3965,423.6842 248.3325,423.8085 243.1382,417.8715 C240.7775,425.2221 234.3437,425.2608 230.3631,419.443 C225.695,425.3171 220.3256,425.1871 215.8281,419.2334 C211.0074,423.3647 207.1014,423.5909 203.9862,417.2963 C200.3806,424.355 193.995,423.2974 190.732,416.9574 C185.0644,423.9839 180.5684,423.3118 176.475,415.45 C172.3736,421.4983 165.5692,421.5486 163.0258,413.9183 C152.078,419.7963 145.5236,416.5365 142,404.97 C142.9932,404.597 143.5815,405.1847 143.5431,406.155 C138.1954,403.5373 136.6423,397.9213 142.0463,393.9817 C134.5087,390.1039 134.364,384.8114 141.1499,380.0144 C135.7207,376.309 136.8737,370.8128 142.0659,367.9114 C134.7776,365.4959 133.7085,360.1761 139.9071,355.4282 C134.9213,350.5178 135.6869,345.6696 141.7127,342.2703 C135.8816,337.9784 136.6244,333.3252 142.0002,329.2815 C135.5738,325.3873 136.2033,321.5749 141.5073,317.2021 C133.6581,307.8997 136.9126,297.9124 149,295.49 C150.5384,295.2655 151.5443,296.2869 150.8455,297.8282 " fill="none" style="stroke:#181818;stroke-width:1;"/><text fill="#000000" font-family="sans-serif" font-size="14" font-weight="bold" lengthAdjust="spacing" textLength="70" x="194" y="314.0252">&#36000;&#36617;&#22343;&#34913;&#22120;</text></g><!--cluster AppServer--><g id="cluster_AppServer"><polygon fill="#98FB98" points="489,494.97,499,484.97,1272,484.97,1272,721.46,1262,731.46,489,731.46,489,494.97" style="stroke:#181818;stroke-width:1;"/><line style="stroke:#181818;stroke-width:1;" x1="1262" x2="1272" y1="494.97" y2="484.97"/><line style="stroke:#181818;stroke-width:1;" x1="489" x2="1262" y1="494.97" y2="494.97"/><line style="stroke:#181818;stroke-width:1;" x1="1262" x2="1262" y1="494.97" y2="731.46"/><text fill="#000000" font-family="sans-serif" font-size="14" font-style="italic" lengthAdjust="spacing" textLength="61.5986" x="845.7007" y="511.5052">&#171;service&#187;</text><text fill="#000000" font-family="sans-serif" font-size="14" font-weight="bold" lengthAdjust="spacing" textLength="98" x="827.5" y="527.9934">&#25033;&#29992;&#26381;&#21209;&#22120;&#32676;&#38598;</text></g><!--cluster Container1--><g id="cluster_Container1"><polygon fill="none" points="521,582.97,531,572.97,780,572.97,780,689.46,770,699.46,521,699.46,521,582.97" style="stroke:#181818;stroke-width:1;"/><line style="stroke:#181818;stroke-width:1;" x1="770" x2="780" y1="582.97" y2="572.97"/><line style="stroke:#181818;stroke-width:1;" x1="521" x2="770" y1="582.97" y2="582.97"/><line style="stroke:#181818;stroke-width:1;" x1="770" x2="770" y1="582.97" y2="699.46"/><text fill="#000000" font-family="sans-serif" font-size="14" font-weight="bold" lengthAdjust="spacing" textLength="69.8496" x="611.5752" y="599.5052">&#26381;&#21209;&#23481;&#22120; 1</text></g><!--cluster Container2--><g id="cluster_Container2"><polygon fill="none" points="804,582.97,814,572.97,1063,572.97,1063,689.46,1053,699.46,804,699.46,804,582.97" style="stroke:#181818;stroke-width:1;"/><line style="stroke:#181818;stroke-width:1;" x1="1053" x2="1063" y1="582.97" y2="572.97"/><line style="stroke:#181818;stroke-width:1;" x1="804" x2="1053" y1="582.97" y2="582.97"/><line style="stroke:#181818;stroke-width:1;" x1="1053" x2="1053" y1="582.97" y2="699.46"/><text fill="#000000" font-family="sans-serif" font-size="14" font-weight="bold" lengthAdjust="spacing" textLength="69.8496" x="894.5752" y="599.5052">&#26381;&#21209;&#23481;&#22120; 2</text></g><!--cluster Container3--><g id="cluster_Container3"><polygon fill="none" points="1087,582.97,1097,572.97,1232,572.97,1232,689.46,1222,699.46,1087,699.46,1087,582.97" style="stroke:#181818;stroke-width:1;"/><line style="stroke:#181818;stroke-width:1;" x1="1222" x2="1232" y1="582.97" y2="572.97"/><line style="stroke:#181818;stroke-width:1;" x1="1087" x2="1222" y1="582.97" y2="582.97"/><line style="stroke:#181818;stroke-width:1;" x1="1222" x2="1222" y1="582.97" y2="699.46"/><text fill="#000000" font-family="sans-serif" font-size="14" font-weight="bold" lengthAdjust="spacing" textLength="69.8496" x="1120.5752" y="599.5052">&#26381;&#21209;&#23481;&#22120; 3</text></g><!--cluster Database--><g id="cluster_Database"><polygon fill="#FFB6C1" points="471,806.46,481,796.46,989,796.46,989,959.95,979,969.95,471,969.95,471,806.46" style="stroke:#181818;stroke-width:1;"/><line style="stroke:#181818;stroke-width:1;" x1="979" x2="989" y1="806.46" y2="796.46"/><line style="stroke:#181818;stroke-width:1;" x1="471" x2="979" y1="806.46" y2="806.46"/><line style="stroke:#181818;stroke-width:1;" x1="979" x2="979" y1="806.46" y2="969.95"/><text fill="#000000" font-family="sans-serif" font-size="14" font-style="italic" lengthAdjust="spacing" textLength="75.6602" x="688.1699" y="822.9952">&#171;database&#187;</text><text fill="#000000" font-family="sans-serif" font-size="14" font-weight="bold" lengthAdjust="spacing" textLength="70" x="691" y="839.4834">&#36039;&#26009;&#24235;&#32676;&#38598;</text></g><!--cluster Cache--><g id="cluster_Cache"><polygon fill="#FFDAB9" points="1712,543.47,1722,533.47,1864,533.47,1864,696.96,1854,706.96,1712,706.96,1712,543.47" style="stroke:#181818;stroke-width:1;"/><line style="stroke:#181818;stroke-width:1;" x1="1854" x2="1864" y1="543.47" y2="533.47"/><line style="stroke:#181818;stroke-width:1;" x1="1712" x2="1854" y1="543.47" y2="543.47"/><line style="stroke:#181818;stroke-width:1;" x1="1854" x2="1854" y1="543.47" y2="706.96"/><text fill="#000000" font-family="sans-serif" font-size="14" font-style="italic" lengthAdjust="spacing" textLength="53.2314" x="1757.3843" y="560.0052">&#171;cache&#187;</text><text fill="#000000" font-family="sans-serif" font-size="14" font-weight="bold" lengthAdjust="spacing" textLength="56" x="1756" y="576.4934">&#24555;&#21462;&#26381;&#21209;</text></g><!--cluster MessageBroker--><g id="cluster_MessageBroker"><polygon fill="#DDA0DD" points="1498,552.97,1508,542.97,1672,542.97,1672,950.45,1662,960.45,1498,960.45,1498,552.97" style="stroke:#181818;stroke-width:1;"/><line style="stroke:#181818;stroke-width:1;" x1="1662" x2="1672" y1="552.97" y2="542.97"/><line style="stroke:#181818;stroke-width:1;" x1="1498" x2="1662" y1="552.97" y2="552.97"/><line style="stroke:#181818;stroke-width:1;" x1="1662" x2="1662" y1="552.97" y2="960.45"/><text fill="#000000" font-family="sans-serif" font-size="14" font-style="italic" lengthAdjust="spacing" textLength="98.7109" x="1531.6445" y="569.5052">&#171;messagebus&#187;</text><text fill="#000000" font-family="sans-serif" font-size="14" font-weight="bold" lengthAdjust="spacing" textLength="70" x="1546" y="585.9934">&#28040;&#24687;&#20013;&#38291;&#20214;</text></g><!--cluster External--><g id="cluster_External"><polygon fill="#F0E68C" points="1021,813.96,1031,803.96,1425,803.96,1425,952.45,1415,962.45,1021,962.45,1021,813.96" style="stroke:#181818;stroke-width:1;"/><line style="stroke:#181818;stroke-width:1;" x1="1415" x2="1425" y1="813.96" y2="803.96"/><line style="stroke:#181818;stroke-width:1;" x1="1021" x2="1415" y1="813.96" y2="813.96"/><line style="stroke:#181818;stroke-width:1;" x1="1415" x2="1415" y1="813.96" y2="962.45"/><text fill="#000000" font-family="sans-serif" font-size="14" font-style="italic" lengthAdjust="spacing" textLength="70.2871" x="1183.8564" y="830.4952">&#171;external&#187;</text><text fill="#000000" font-family="sans-serif" font-size="14" font-weight="bold" lengthAdjust="spacing" textLength="56" x="1191" y="846.9834">&#22806;&#37096;&#26381;&#21209;</text></g><!--cluster Monitoring--><g id="cluster_Monitoring"><polygon fill="#D3D3D3" points="1696,255.49,1706,245.49,2256,245.49,2256,409.97,2246,419.97,1696,419.97,1696,255.49" style="stroke:#181818;stroke-width:1;"/><line style="stroke:#181818;stroke-width:1;" x1="2246" x2="2256" y1="255.49" y2="245.49"/><line style="stroke:#181818;stroke-width:1;" x1="1696" x2="2246" y1="255.49" y2="255.49"/><line style="stroke:#181818;stroke-width:1;" x1="2246" x2="2246" y1="255.49" y2="419.97"/><text fill="#000000" font-family="sans-serif" font-size="14" font-style="italic" lengthAdjust="spacing" textLength="90.1045" x="1926.9478" y="272.0252">&#171;monitoring&#187;</text><text fill="#000000" font-family="sans-serif" font-size="14" font-weight="bold" lengthAdjust="spacing" textLength="70" x="1937" y="288.5134">&#30435;&#25511;&#33287;&#26085;&#35468;</text></g><!--entity WebBrowser--><g id="elem_WebBrowser"><rect fill="#F1F1F1" height="46.4883" rx="2.5" ry="2.5" style="stroke:#181818;stroke-width:0.5;" width="110.5879" x="39.71" y="110"/><rect fill="#F1F1F1" height="10" style="stroke:#181818;stroke-width:0.5;" width="15" x="130.2979" y="115"/><rect fill="#F1F1F1" height="2" style="stroke:#181818;stroke-width:0.5;" width="4" x="128.2979" y="117"/><rect fill="#F1F1F1" height="2" style="stroke:#181818;stroke-width:0.5;" width="4" x="128.2979" y="121"/><text fill="#000000" font-family="sans-serif" font-size="14" lengthAdjust="spacing" textLength="70.5879" x="54.71" y="143.5352">Web&#28687;&#35261;&#22120;</text></g><!--entity MobileApp--><g id="elem_MobileApp"><rect fill="#F1F1F1" height="46.4883" rx="2.5" ry="2.5" style="stroke:#181818;stroke-width:0.5;" width="96" x="185" y="110"/><rect fill="#F1F1F1" height="10" style="stroke:#181818;stroke-width:0.5;" width="15" x="261" y="115"/><rect fill="#F1F1F1" height="2" style="stroke:#181818;stroke-width:0.5;" width="4" x="259" y="117"/><rect fill="#F1F1F1" height="2" style="stroke:#181818;stroke-width:0.5;" width="4" x="259" y="121"/><text fill="#000000" font-family="sans-serif" font-size="14" lengthAdjust="spacing" textLength="56" x="200" y="143.5352">&#31227;&#21205;&#25033;&#29992;</text></g><!--entity ApiGateway--><g id="elem_ApiGateway"><rect fill="#F1F1F1" height="46.4883" rx="2.5" ry="2.5" style="stroke:#181818;stroke-width:0.5;" width="122.5781" x="157.71" y="349.49"/><rect fill="#F1F1F1" height="10" style="stroke:#181818;stroke-width:0.5;" width="15" x="260.2881" y="354.49"/><rect fill="#F1F1F1" height="2" style="stroke:#181818;stroke-width:0.5;" width="4" x="258.2881" y="356.49"/><rect fill="#F1F1F1" height="2" style="stroke:#181818;stroke-width:0.5;" width="4" x="258.2881" y="360.49"/><text fill="#000000" font-family="sans-serif" font-size="14" lengthAdjust="spacing" textLength="82.5781" x="172.71" y="383.0252">API Gateway</text></g><!--entity OrderService1--><g id="elem_OrderService1"><rect fill="#F1F1F1" height="46.4883" rx="2.5" ry="2.5" style="stroke:#181818;stroke-width:0.5;" width="96" x="537" y="636.97"/><rect fill="#F1F1F1" height="10" style="stroke:#181818;stroke-width:0.5;" width="15" x="613" y="641.97"/><rect fill="#F1F1F1" height="2" style="stroke:#181818;stroke-width:0.5;" width="4" x="611" y="643.97"/><rect fill="#F1F1F1" height="2" style="stroke:#181818;stroke-width:0.5;" width="4" x="611" y="647.97"/><text fill="#000000" font-family="sans-serif" font-size="14" lengthAdjust="spacing" textLength="56" x="552" y="670.5052">&#35330;&#21934;&#26381;&#21209;</text></g><!--entity PaymentService1--><g id="elem_PaymentService1"><rect fill="#F1F1F1" height="46.4883" rx="2.5" ry="2.5" style="stroke:#181818;stroke-width:0.5;" width="96" x="668" y="636.97"/><rect fill="#F1F1F1" height="10" style="stroke:#181818;stroke-width:0.5;" width="15" x="744" y="641.97"/><rect fill="#F1F1F1" height="2" style="stroke:#181818;stroke-width:0.5;" width="4" x="742" y="643.97"/><rect fill="#F1F1F1" height="2" style="stroke:#181818;stroke-width:0.5;" width="4" x="742" y="647.97"/><text fill="#000000" font-family="sans-serif" font-size="14" lengthAdjust="spacing" textLength="56" x="683" y="670.5052">&#25903;&#20184;&#26381;&#21209;</text></g><!--entity OrderService2--><g id="elem_OrderService2"><rect fill="#F1F1F1" height="46.4883" rx="2.5" ry="2.5" style="stroke:#181818;stroke-width:0.5;" width="96" x="820" y="636.97"/><rect fill="#F1F1F1" height="10" style="stroke:#181818;stroke-width:0.5;" width="15" x="896" y="641.97"/><rect fill="#F1F1F1" height="2" style="stroke:#181818;stroke-width:0.5;" width="4" x="894" y="643.97"/><rect fill="#F1F1F1" height="2" style="stroke:#181818;stroke-width:0.5;" width="4" x="894" y="647.97"/><text fill="#000000" font-family="sans-serif" font-size="14" lengthAdjust="spacing" textLength="56" x="835" y="670.5052">&#35330;&#21934;&#26381;&#21209;</text></g><!--entity PaymentService2--><g id="elem_PaymentService2"><rect fill="#F1F1F1" height="46.4883" rx="2.5" ry="2.5" style="stroke:#181818;stroke-width:0.5;" width="96" x="951" y="636.97"/><rect fill="#F1F1F1" height="10" style="stroke:#181818;stroke-width:0.5;" width="15" x="1027" y="641.97"/><rect fill="#F1F1F1" height="2" style="stroke:#181818;stroke-width:0.5;" width="4" x="1025" y="643.97"/><rect fill="#F1F1F1" height="2" style="stroke:#181818;stroke-width:0.5;" width="4" x="1025" y="647.97"/><text fill="#000000" font-family="sans-serif" font-size="14" lengthAdjust="spacing" textLength="56" x="966" y="670.5052">&#25903;&#20184;&#26381;&#21209;</text></g><!--entity LogisticsService--><g id="elem_LogisticsService"><rect fill="#F1F1F1" height="46.4883" rx="2.5" ry="2.5" style="stroke:#181818;stroke-width:0.5;" width="96" x="1103" y="636.97"/><rect fill="#F1F1F1" height="10" style="stroke:#181818;stroke-width:0.5;" width="15" x="1179" y="641.97"/><rect fill="#F1F1F1" height="2" style="stroke:#181818;stroke-width:0.5;" width="4" x="1177" y="643.97"/><rect fill="#F1F1F1" height="2" style="stroke:#181818;stroke-width:0.5;" width="4" x="1177" y="647.97"/><text fill="#000000" font-family="sans-serif" font-size="14" lengthAdjust="spacing" textLength="56" x="1118" y="670.5052">&#29289;&#27969;&#26381;&#21209;</text></g><!--entity OrderDBMaster--><g id="elem_OrderDBMaster"><path d="M514,910.46 C514,900.46 580,900.46 580,900.46 C580,900.46 646,900.46 646,910.46 L646,935.9483 C646,945.9483 580,945.9483 580,945.9483 C580,945.9483 514,945.9483 514,935.9483 L514,910.46 " fill="#F1F1F1" style="stroke:#181818;stroke-width:0.5;"/><path d="M514,910.46 C514,920.46 580,920.46 580,920.46 C580,920.46 646,920.46 646,910.46 " fill="none" style="stroke:#181818;stroke-width:0.5;"/><text fill="#000000" font-family="sans-serif" font-size="14" lengthAdjust="spacing" textLength="112" x="524" y="937.9952">&#35330;&#21934;&#36039;&#26009;&#24235;&#20027;&#31680;&#40670;</text></g><!--entity OrderDBSlave--><g id="elem_OrderDBSlave"><path d="M708,910.46 C708,900.46 774,900.46 774,900.46 C774,900.46 840,900.46 840,910.46 L840,935.9483 C840,945.9483 774,945.9483 774,945.9483 C774,945.9483 708,945.9483 708,935.9483 L708,910.46 " fill="#F1F1F1" style="stroke:#181818;stroke-width:0.5;"/><path d="M708,910.46 C708,920.46 774,920.46 774,920.46 C774,920.46 840,920.46 840,910.46 " fill="none" style="stroke:#181818;stroke-width:0.5;"/><text fill="#000000" font-family="sans-serif" font-size="14" lengthAdjust="spacing" textLength="112" x="718" y="937.9952">&#35330;&#21934;&#36039;&#26009;&#24235;&#24478;&#31680;&#40670;</text></g><!--entity PaymentDB--><g id="elem_PaymentDB"><path d="M875,910.46 C875,900.46 920,900.46 920,900.46 C920,900.46 965,900.46 965,910.46 L965,935.9483 C965,945.9483 920,945.9483 920,945.9483 C920,945.9483 875,945.9483 875,935.9483 L875,910.46 " fill="#F1F1F1" style="stroke:#181818;stroke-width:0.5;"/><path d="M875,910.46 C875,920.46 920,920.46 920,920.46 C920,920.46 965,920.46 965,910.46 " fill="none" style="stroke:#181818;stroke-width:0.5;"/><text fill="#000000" font-family="sans-serif" font-size="14" lengthAdjust="spacing" textLength="70" x="885" y="937.9952">&#25903;&#20184;&#36039;&#26009;&#24235;</text></g><!--entity Redis--><g id="elem_Redis"><path d="M1735.68,647.47 C1735.68,637.47 1778.0037,637.47 1778.0037,637.47 C1778.0037,637.47 1820.3275,637.47 1820.3275,647.47 L1820.3275,672.9583 C1820.3275,682.9583 1778.0037,682.9583 1778.0037,682.9583 C1778.0037,682.9583 1735.68,682.9583 1735.68,672.9583 L1735.68,647.47 " fill="#F1F1F1" style="stroke:#181818;stroke-width:0.5;"/><path d="M1735.68,647.47 C1735.68,657.47 1778.0037,657.47 1778.0037,657.47 C1778.0037,657.47 1820.3275,657.47 1820.3275,647.47 " fill="none" style="stroke:#181818;stroke-width:0.5;"/><text fill="#000000" font-family="sans-serif" font-size="14" lengthAdjust="spacing" textLength="64.6475" x="1745.68" y="675.0052">Redis&#38598;&#32676;</text></g><!--entity EventBus--><g id="elem_EventBus"><path d="M1558,646.97 L1624,646.97 C1629,646.97 1629,660.2141 1629,660.2141 C1629,660.2141 1629,673.4583 1624,673.4583 L1558,673.4583 C1553,673.4583 1553,660.2141 1553,660.2141 C1553,660.2141 1553,646.97 1558,646.97 " fill="#F1F1F1" style="stroke:#181818;stroke-width:0.5;"/><path d="M1624,646.97 C1619,646.97 1619,660.2141 1619,660.2141 C1619,673.4583 1624,673.4583 1624,673.4583 " fill="none" style="stroke:#181818;stroke-width:0.5;"/><text fill="#000000" font-family="sans-serif" font-size="14" lengthAdjust="spacing" textLength="56" x="1558" y="665.5052">&#20107;&#20214;&#32317;&#32218;</text></g><!--entity DeadLetterQueue--><g id="elem_DeadLetterQueue"><path d="M1556,909.96 L1622,909.96 C1627,909.96 1627,923.2041 1627,923.2041 C1627,923.2041 1627,936.4483 1622,936.4483 L1556,936.4483 C1551,936.4483 1551,923.2041 1551,923.2041 C1551,923.2041 1551,909.96 1556,909.96 " fill="#F1F1F1" style="stroke:#181818;stroke-width:0.5;"/><path d="M1622,909.96 C1617,909.96 1617,923.2041 1617,923.2041 C1617,936.4483 1622,936.4483 1622,936.4483 " fill="none" style="stroke:#181818;stroke-width:0.5;"/><text fill="#000000" font-family="sans-serif" font-size="14" lengthAdjust="spacing" textLength="56" x="1556" y="928.4952">&#27515;&#20449;&#38538;&#21015;</text></g><!--entity PaymentGateway--><g id="elem_PaymentGateway"><rect fill="#F1F1F1" height="46.4883" rx="2.5" ry="2.5" style="stroke:#181818;stroke-width:0.5;" width="96" x="1037" y="899.96"/><rect fill="#F1F1F1" height="10" style="stroke:#181818;stroke-width:0.5;" width="15" x="1113" y="904.96"/><rect fill="#F1F1F1" height="2" style="stroke:#181818;stroke-width:0.5;" width="4" x="1111" y="906.96"/><rect fill="#F1F1F1" height="2" style="stroke:#181818;stroke-width:0.5;" width="4" x="1111" y="910.96"/><text fill="#000000" font-family="sans-serif" font-size="14" lengthAdjust="spacing" textLength="56" x="1052" y="933.4952">&#25903;&#20184;&#32178;&#38364;</text></g><!--entity LogisticsProvider--><g id="elem_LogisticsProvider"><rect fill="#F1F1F1" height="46.4883" rx="2.5" ry="2.5" style="stroke:#181818;stroke-width:0.5;" width="110" x="1168" y="899.96"/><rect fill="#F1F1F1" height="10" style="stroke:#181818;stroke-width:0.5;" width="15" x="1258" y="904.96"/><rect fill="#F1F1F1" height="2" style="stroke:#181818;stroke-width:0.5;" width="4" x="1256" y="906.96"/><rect fill="#F1F1F1" height="2" style="stroke:#181818;stroke-width:0.5;" width="4" x="1256" y="910.96"/><text fill="#000000" font-family="sans-serif" font-size="14" lengthAdjust="spacing" textLength="70" x="1183" y="933.4952">&#29289;&#27969;&#26381;&#21209;&#21830;</text></g><!--entity NotificationService--><g id="elem_NotificationService"><rect fill="#F1F1F1" height="46.4883" rx="2.5" ry="2.5" style="stroke:#181818;stroke-width:0.5;" width="96" x="1313" y="899.96"/><rect fill="#F1F1F1" height="10" style="stroke:#181818;stroke-width:0.5;" width="15" x="1389" y="904.96"/><rect fill="#F1F1F1" height="2" style="stroke:#181818;stroke-width:0.5;" width="4" x="1387" y="906.96"/><rect fill="#F1F1F1" height="2" style="stroke:#181818;stroke-width:0.5;" width="4" x="1387" y="910.96"/><text fill="#000000" font-family="sans-serif" font-size="14" lengthAdjust="spacing" textLength="56" x="1328" y="933.4952">&#36890;&#30693;&#26381;&#21209;</text></g><!--entity LogCollector--><g id="elem_LogCollector"><rect fill="#F1F1F1" height="46.4883" rx="2.5" ry="2.5" style="stroke:#181818;stroke-width:0.5;" width="110" x="1720" y="349.49"/><rect fill="#F1F1F1" height="10" style="stroke:#181818;stroke-width:0.5;" width="15" x="1810" y="354.49"/><rect fill="#F1F1F1" height="2" style="stroke:#181818;stroke-width:0.5;" width="4" x="1808" y="356.49"/><rect fill="#F1F1F1" height="2" style="stroke:#181818;stroke-width:0.5;" width="4" x="1808" y="360.49"/><text fill="#000000" font-family="sans-serif" font-size="14" lengthAdjust="spacing" textLength="70" x="1735" y="383.0252">&#26085;&#35468;&#25910;&#38598;&#22120;</text></g><!--entity Dashboard--><g id="elem_Dashboard"><rect fill="#F1F1F1" height="46.4883" rx="2.5" ry="2.5" style="stroke:#181818;stroke-width:0.5;" width="110" x="1919" y="349.49"/><rect fill="#F1F1F1" height="10" style="stroke:#181818;stroke-width:0.5;" width="15" x="2009" y="354.49"/><rect fill="#F1F1F1" height="2" style="stroke:#181818;stroke-width:0.5;" width="4" x="2007" y="356.49"/><rect fill="#F1F1F1" height="2" style="stroke:#181818;stroke-width:0.5;" width="4" x="2007" y="360.49"/><text fill="#000000" font-family="sans-serif" font-size="14" lengthAdjust="spacing" textLength="70" x="1934" y="383.0252">&#30435;&#25511;&#20736;&#34920;&#26495;</text></g><!--entity AlertSystem--><g id="elem_AlertSystem"><rect fill="#F1F1F1" height="46.4883" rx="2.5" ry="2.5" style="stroke:#181818;stroke-width:0.5;" width="96" x="2117" y="349.49"/><rect fill="#F1F1F1" height="10" style="stroke:#181818;stroke-width:0.5;" width="15" x="2193" y="354.49"/><rect fill="#F1F1F1" height="2" style="stroke:#181818;stroke-width:0.5;" width="4" x="2191" y="356.49"/><rect fill="#F1F1F1" height="2" style="stroke:#181818;stroke-width:0.5;" width="4" x="2191" y="360.49"/><text fill="#000000" font-family="sans-serif" font-size="14" lengthAdjust="spacing" textLength="56" x="2132" y="383.0252">&#21578;&#35686;&#31995;&#32113;</text></g><g id="elem_GMN60"><path d="M1891.73,632.25 L1891.73,688.1816 L2048.2715,688.1816 L2048.2715,642.25 L2038.2715,632.25 L1891.73,632.25 " fill="#FEFFDD" style="stroke:#181818;stroke-width:0.5;"/><path d="M2038.2715,632.25 L2038.2715,642.25 L2048.2715,642.25 L2038.2715,632.25 " fill="#FEFFDD" style="stroke:#181818;stroke-width:1;"/><text fill="#000000" font-family="sans-serif" font-size="13" lengthAdjust="spacing" textLength="135.5415" x="1897.73" y="649.8184">&#20351;&#29992;Docker&#23481;&#22120;&#21270;&#37096;&#32626;</text><text fill="#000000" font-family="sans-serif" font-size="13" lengthAdjust="spacing" textLength="97.3413" x="1897.73" y="665.1289">Kubernetes&#32232;&#25490;</text><text fill="#000000" font-family="sans-serif" font-size="13" lengthAdjust="spacing" textLength="78" x="1897.73" y="680.4395">&#25903;&#25588;&#27700;&#24179;&#25844;&#23637;</text></g><g id="elem_GMN63"><path d="M1696.5,895.24 L1696.5,951.1716 L1795.5,951.1716 L1795.5,905.24 L1785.5,895.24 L1696.5,895.24 " fill="#FEFFDD" style="stroke:#181818;stroke-width:0.5;"/><path d="M1785.5,895.24 L1785.5,905.24 L1795.5,905.24 L1785.5,895.24 " fill="#FEFFDD" style="stroke:#181818;stroke-width:1;"/><text fill="#000000" font-family="sans-serif" font-size="13" lengthAdjust="spacing" textLength="78" x="1702.5" y="912.8084">&#20351;&#29992;&#20027;&#24478;&#35079;&#35069;</text><text fill="#000000" font-family="sans-serif" font-size="13" lengthAdjust="spacing" textLength="78" x="1702.5" y="928.1189">&#25903;&#25588;&#25925;&#38556;&#36681;&#31227;</text><text fill="#000000" font-family="sans-serif" font-size="13" lengthAdjust="spacing" textLength="52" x="1702.5" y="943.4295">&#23450;&#26399;&#20633;&#20221;</text></g><g id="elem_GMN66"><path d="M2083.64,632.25 L2083.64,688.1816 L2234.3607,688.1816 L2234.3607,642.25 L2224.3607,632.25 L2083.64,632.25 " fill="#FEFFDD" style="stroke:#181818;stroke-width:0.5;"/><path d="M2224.3607,632.25 L2224.3607,642.25 L2234.3607,642.25 L2224.3607,632.25 " fill="#FEFFDD" style="stroke:#181818;stroke-width:1;"/><text fill="#000000" font-family="sans-serif" font-size="13" lengthAdjust="spacing" textLength="129.7207" x="2089.64" y="649.8184">&#20351;&#29992;Kafka/RabbitMQ</text><text fill="#000000" font-family="sans-serif" font-size="13" lengthAdjust="spacing" textLength="91" x="2089.64" y="665.1289">&#30906;&#20445;&#21487;&#38752;&#24615;&#20659;&#36958;</text><text fill="#000000" font-family="sans-serif" font-size="13" lengthAdjust="spacing" textLength="91" x="2089.64" y="680.4395">&#25903;&#25588;&#28040;&#24687;&#25345;&#20037;&#21270;</text></g><g id="elem_GMN69"><path d="M2269,632.25 L2269,688.1816 L2381,688.1816 L2381,642.25 L2371,632.25 L2269,632.25 " fill="#FEFFDD" style="stroke:#181818;stroke-width:0.5;"/><path d="M2371,632.25 L2371,642.25 L2381,642.25 L2371,632.25 " fill="#FEFFDD" style="stroke:#181818;stroke-width:1;"/><text fill="#000000" font-family="sans-serif" font-size="13" lengthAdjust="spacing" textLength="65" x="2275" y="649.8184">&#20998;&#25955;&#24335;&#24555;&#21462;</text><text fill="#000000" font-family="sans-serif" font-size="13" lengthAdjust="spacing" textLength="78" x="2275" y="665.1289">&#25552;&#39640;&#35712;&#21462;&#24615;&#33021;</text><text fill="#000000" font-family="sans-serif" font-size="13" lengthAdjust="spacing" textLength="91" x="2275" y="680.4395">&#28187;&#36629;&#36039;&#26009;&#24235;&#36000;&#36617;</text></g><g id="elem_GMN72"><path d="M2283.49,344.76 L2283.49,400.6916 L2408.509,400.6916 L2408.509,354.76 L2398.509,344.76 L2283.49,344.76 " fill="#FEFFDD" style="stroke:#181818;stroke-width:0.5;"/><path d="M2398.509,344.76 L2398.509,354.76 L2408.509,354.76 L2398.509,344.76 " fill="#FEFFDD" style="stroke:#181818;stroke-width:1;"/><text fill="#000000" font-family="sans-serif" font-size="13" lengthAdjust="spacing" textLength="104.019" x="2289.49" y="362.3284">ELK/Prometheus</text><text fill="#000000" font-family="sans-serif" font-size="13" lengthAdjust="spacing" textLength="52" x="2289.49" y="377.6389">&#21363;&#26178;&#30435;&#25511;</text><text fill="#000000" font-family="sans-serif" font-size="13" lengthAdjust="spacing" textLength="52" x="2289.49" y="392.9495">&#30064;&#24120;&#21578;&#35686;</text></g><!--link Client to LoadBalancer--><g id="link_Client_LoadBalancer"><path d="M316,181.0233 C316,183.9989 316,187.0714 316,190.2268 C316,196.5376 316,203.1802 316,210.044 C316,223.7716 316,238.3841 316,252.9963 C316,260.3023 316,267.6084 316,274.8037 C316,278.4014 316,281.9714 316,285.4999 C316,285.941 316,286.3814 316,286.8211 C316,287.041 316,281.2607 316,281.4802 " fill="none" id="Client-to-LoadBalancer" style="stroke:#181818;stroke-width:1;"/><polygon fill="#181818" points="316,287.4802,320,278.4802,316,282.4802,312,278.4802,316,287.4802" style="stroke:#181818;stroke-width:1;"/><text fill="#000000" font-family="sans-serif" font-size="13" lengthAdjust="spacing" textLength="40.1807" x="317" y="218.0584">HTTPS</text></g><!--link LoadBalancer to AppServer--><g id="link_LoadBalancer_AppServer"><path d="M324.5805,374.746 C324.8482,374.7776 325.1219,374.8099 325.4016,374.8429 C326.5204,374.975 327.7353,375.1182 329.0445,375.2725 C331.6627,375.581 334.6576,375.9335 338.0133,376.3278 C351.4359,377.905 370.6306,380.1513 394.5788,382.9302 C442.475,388.4878 509.385,396.1756 587.16,404.9013 C742.71,422.3525 941.72,443.955 1119,460.97 C1129.65,462 1206.82,462.07 1215,468.97 C1219.1056,472.4344 1222.8915,476.1926 1226.3815,480.1953 C1227.254,481.196 1228.108,482.212 1228.9439,483.2425 C1229.3618,483.7577 1226.0769,479.5519 1226.4858,480.0744 " fill="none" id="LoadBalancer-to-AppServer" style="stroke:#181818;stroke-width:1;"/><polygon fill="#181818" points="1230.1841,484.799,1227.7864,475.2465,1227.1022,480.8618,1221.4869,480.1776,1230.1841,484.799" style="stroke:#181818;stroke-width:1;"/><text fill="#000000" font-family="sans-serif" font-size="13" lengthAdjust="spacing" textLength="70.4844" x="1120" y="457.5384">HTTP/REST</text></g><!--link OrderService1 to OrderDBMaster--><g id="link_OrderService1_OrderDBMaster"><path d="M584.16,683.68 C583.48,702.78 582.54,730.91 582,755.46 C580.86,807.27 580.3794,862.1501 580.1694,894.0901 " fill="none" id="OrderService1-to-OrderDBMaster" style="stroke:#181818;stroke-width:1;"/><polygon fill="#181818" points="580.13,900.09,584.1891,891.1165,580.1629,895.0901,576.1893,891.0639,580.13,900.09" style="stroke:#181818;stroke-width:1;"/><text fill="#000000" font-family="sans-serif" font-size="13" lengthAdjust="spacing" textLength="66.7456" x="583" y="769.0284">JDBC/R+W</text></g><!--link OrderService2 to OrderDBMaster--><g id="link_OrderService2_OrderDBMaster"><path d="M868.19,683.73 C867.07,709.67 860.86,751.4 834,772.46 C808.96,792.1 719.21,765.73 691,780.46 C640.57,806.79 608.3599,861.9222 592.4399,894.7222 " fill="none" id="OrderService2-to-OrderDBMaster" style="stroke:#181818;stroke-width:1;"/><polygon fill="#181818" points="589.82,900.12,597.3484,893.7699,592.0033,895.6218,590.1513,890.2767,589.82,900.12" style="stroke:#181818;stroke-width:1;"/><text fill="#000000" font-family="sans-serif" font-size="13" lengthAdjust="spacing" textLength="66.7456" x="849.45" y="769.0284">JDBC/R+W</text></g><!--link OrderDBMaster to OrderDBSlave--><g id="link_OrderDBMaster_OrderDBSlave"><path d="M646.49,923.21 C666.24,923.21 681.86,923.21 701.59,923.21 " fill="none" id="OrderDBMaster-to-OrderDBSlave" style="stroke:#181818;stroke-width:1;"/><polygon fill="#181818" points="707.59,923.21,698.59,919.21,702.59,923.21,698.59,927.21,707.59,923.21" style="stroke:#181818;stroke-width:1;"/><text fill="#000000" font-family="sans-serif" font-size="13" lengthAdjust="spacing" textLength="26" x="664" y="916.7784">&#35079;&#35069;</text></g><!--link PaymentService1 to PaymentDB--><g id="link_PaymentService1_PaymentDB"><path d="M700.47,683.51 C685.17,708.45 667.15,748.49 690,772.46 C702.82,785.91 841.67,769.97 857,780.46 C897.33,808.07 911.1877,861.8561 916.3977,894.2661 " fill="none" id="PaymentService1-to-PaymentDB" style="stroke:#181818;stroke-width:1;"/><polygon fill="#181818" points="917.35,900.19,919.8709,890.6692,916.5564,895.2534,911.9723,891.9389,917.35,900.19" style="stroke:#181818;stroke-width:1;"/><text fill="#000000" font-family="sans-serif" font-size="13" lengthAdjust="spacing" textLength="30.2529" x="691" y="769.0284">JDBC</text></g><!--link PaymentService2 to PaymentDB--><g id="link_PaymentService2_PaymentDB"><path d="M992.13,683.92 C977.11,733.53 943.2675,845.3171 928.4275,894.3671 " fill="none" id="PaymentService2-to-PaymentDB" style="stroke:#181818;stroke-width:1;"/><polygon fill="#181818" points="926.69,900.11,933.1249,892.654,928.1379,895.3242,925.4677,890.3373,926.69,900.11" style="stroke:#181818;stroke-width:1;"/><text fill="#000000" font-family="sans-serif" font-size="13" lengthAdjust="spacing" textLength="30.2529" x="969.9" y="769.0284">JDBC</text></g><!--link OrderService1 to Redis--><g id="link_OrderService1_Redis"><path d="M586.54,636.66 C590.4,599.39 603.89,527.78 651,495.93 C745.72,431.9 1580.58,439.47 1680,495.93 C1733.86,526.52 1759.5853,593.9685 1770.4853,631.4685 " fill="none" id="OrderService1-to-Redis" style="stroke:#181818;stroke-width:1;"/><polygon fill="#181818" points="1772.16,637.23,1773.489,627.4712,1770.7644,632.4287,1765.8069,629.7041,1772.16,637.23" style="stroke:#181818;stroke-width:1;"/><text fill="#000000" font-family="sans-serif" font-size="13" lengthAdjust="spacing" textLength="84.8174" x="1559" y="457.5384">&#35712;&#21462;/&#23531;&#20837;&#24555;&#21462;</text></g><!--link OrderService2 to Redis--><g id="link_OrderService2_Redis"><path d="M869.54,636.66 C873.4,599.39 886.89,527.78 934,495.93 C1002.67,449.51 1607.92,455 1680,495.93 C1733.86,526.52 1759.5853,593.9685 1770.4853,631.4685 " fill="none" id="OrderService2-to-Redis" style="stroke:#181818;stroke-width:1;"/><polygon fill="#181818" points="1772.16,637.23,1773.489,627.4712,1770.7644,632.4287,1765.8069,629.7041,1772.16,637.23" style="stroke:#181818;stroke-width:1;"/><text fill="#000000" font-family="sans-serif" font-size="13" lengthAdjust="spacing" textLength="84.8174" x="1650" y="457.5384">&#35712;&#21462;/&#23531;&#20837;&#24555;&#21462;</text></g><!--link OrderService1 to EventBus--><g id="link_OrderService1_EventBus"><path d="M586.54,636.66 C590.4,599.39 603.89,527.78 651,495.93 C766.8,417.65 1144.33,462.3 1280,495.93 C1401.21,525.98 1522.3888,609.302 1568.1888,643.032 " fill="none" id="OrderService1-to-EventBus" style="stroke:#181818;stroke-width:1;"/><polygon fill="#181818" points="1573.02,646.59,1568.1452,638.0322,1568.994,643.625,1563.4012,644.4738,1573.02,646.59" style="stroke:#181818;stroke-width:1;"/><text fill="#000000" font-family="sans-serif" font-size="13" lengthAdjust="spacing" textLength="52" x="1441" y="457.5384">&#30332;&#24067;&#20107;&#20214;</text></g><!--link OrderService2 to EventBus--><g id="link_OrderService2_EventBus"><path d="M869.54,636.66 C873.4,599.39 886.89,527.78 934,495.93 C1061.4,409.81 1130.74,458.93 1280,495.93 C1401.21,525.98 1522.3888,609.302 1568.1888,643.032 " fill="none" id="OrderService2-to-EventBus" style="stroke:#181818;stroke-width:1;"/><polygon fill="#181818" points="1573.02,646.59,1568.1452,638.0322,1568.994,643.625,1563.4012,644.4738,1573.02,646.59" style="stroke:#181818;stroke-width:1;"/><text fill="#000000" font-family="sans-serif" font-size="13" lengthAdjust="spacing" textLength="52" x="1500" y="457.5384">&#30332;&#24067;&#20107;&#20214;</text></g><!--link PaymentService1 to EventBus--><g id="link_PaymentService1_EventBus"><path d="M720.63,636.72 C729.43,599.17 752.51,526.76 804,495.93 C894.75,441.59 1177.33,470.48 1280,495.93 C1401.21,525.98 1522.3888,609.302 1568.1888,643.032 " fill="none" id="PaymentService1-to-EventBus" style="stroke:#181818;stroke-width:1;"/><polygon fill="#181818" points="1573.02,646.59,1568.1452,638.0322,1568.994,643.625,1563.4012,644.4738,1573.02,646.59" style="stroke:#181818;stroke-width:1;"/><text fill="#000000" font-family="sans-serif" font-size="13" lengthAdjust="spacing" textLength="84.8174" x="1350" y="457.5384">&#30332;&#24067;/&#35330;&#38321;&#20107;&#20214;</text></g><!--link PaymentService2 to EventBus--><g id="link_PaymentService2_EventBus"><path d="M1003.63,636.72 C1012.43,599.17 1035.51,526.76 1087,495.93 C1160.59,451.86 1196.74,475.29 1280,495.93 C1401.21,525.98 1522.3888,609.302 1568.1888,643.032 " fill="none" id="PaymentService2-to-EventBus" style="stroke:#181818;stroke-width:1;"/><polygon fill="#181818" points="1573.02,646.59,1568.1452,638.0322,1568.994,643.625,1563.4012,644.4738,1573.02,646.59" style="stroke:#181818;stroke-width:1;"/><text fill="#000000" font-family="sans-serif" font-size="13" lengthAdjust="spacing" textLength="84.8174" x="1259" y="457.5384">&#30332;&#24067;/&#35330;&#38321;&#20107;&#20214;</text></g><!--link LogisticsService to EventBus--><g id="link_LogisticsService_EventBus"><path d="M1150.48,636.56 C1151.12,599.48 1158.47,528.54 1203,495.93 C1333.43,400.41 1523.7219,587.8675 1574.4419,642.1075 " fill="none" id="LogisticsService-to-EventBus" style="stroke:#181818;stroke-width:1;"/><polygon fill="#181818" points="1578.54,646.49,1575.3146,637.1843,1575.125,642.8379,1569.4713,642.6483,1578.54,646.49" style="stroke:#181818;stroke-width:1;"/><text fill="#000000" font-family="sans-serif" font-size="13" lengthAdjust="spacing" textLength="52" x="1200" y="457.5384">&#35330;&#38321;&#20107;&#20214;</text></g><!--link EventBus to DeadLetterQueue--><g id="link_EventBus_DeadLetterQueue"><path d="M1590.9,673.81 C1590.56,718 1589.475,859.7502 1589.145,903.7402 " fill="none" id="EventBus-to-DeadLetterQueue" style="stroke:#181818;stroke-width:1;"/><polygon fill="#181818" points="1589.1,909.74,1593.1674,900.7703,1589.1375,904.7401,1585.1676,900.7102,1589.1,909.74" style="stroke:#181818;stroke-width:1;"/><text fill="#000000" font-family="sans-serif" font-size="13" lengthAdjust="spacing" textLength="52" x="1591.24" y="769.0284">&#22833;&#25943;&#28040;&#24687;</text></g><!--link PaymentService1 to PaymentGateway--><g id="link_PaymentService1_PaymentGateway"><path d="M717.38,683.51 C720.33,709.65 729.5,751.99 758,772.46 C778.14,786.92 959.09,768.86 981,780.46 C1029.83,806.31 1059.1994,860.9612 1073.6194,893.9912 " fill="none" id="PaymentService1-to-PaymentGateway" style="stroke:#181818;stroke-width:1;"/><polygon fill="#181818" points="1076.02,899.49,1076.0849,889.6414,1074.0195,894.9077,1068.7532,892.8422,1076.02,899.49" style="stroke:#181818;stroke-width:1;"/><text fill="#000000" font-family="sans-serif" font-size="13" lengthAdjust="spacing" textLength="66.8979" x="759" y="769.0284">HTTPS/API</text></g><!--link PaymentService2 to PaymentGateway--><g id="link_PaymentService2_PaymentGateway"><path d="M1006.48,683.92 C1022.79,733.4 1059.4817,844.7716 1075.7217,894.0416 " fill="none" id="PaymentService2-to-PaymentGateway" style="stroke:#181818;stroke-width:1;"/><polygon fill="#181818" points="1077.6,899.74,1078.5815,889.9402,1076.0348,894.9913,1070.9836,892.4445,1077.6,899.74" style="stroke:#181818;stroke-width:1;"/><text fill="#000000" font-family="sans-serif" font-size="13" lengthAdjust="spacing" textLength="66.8979" x="1035.3" y="769.0284">HTTPS/API</text></g><!--link LogisticsService to LogisticsProvider--><g id="link_LogisticsService_LogisticsProvider"><path d="M1157.26,683.92 C1170.91,733.4 1201.6146,844.686 1215.2046,893.956 " fill="none" id="LogisticsService-to-LogisticsProvider" style="stroke:#181818;stroke-width:1;"/><polygon fill="#181818" points="1216.8,899.74,1218.2629,890.0004,1215.4705,894.92,1210.5509,892.1276,1216.8,899.74" style="stroke:#181818;stroke-width:1;"/><text fill="#000000" font-family="sans-serif" font-size="13" lengthAdjust="spacing" textLength="66.8979" x="1181.55" y="769.0284">HTTPS/API</text></g><!--link EventBus to NotificationService--><g id="link_EventBus_NotificationService"><path d="M1579.91,673.81 C1543.56,715.04 1431.7174,841.9689 1384.8874,895.0989 " fill="none" id="EventBus-to-NotificationService" style="stroke:#181818;stroke-width:1;"/><polygon fill="#181818" points="1380.92,899.6,1389.8718,895.4933,1384.2261,895.8491,1383.8703,890.2034,1380.92,899.6" style="stroke:#181818;stroke-width:1;"/><text fill="#000000" font-family="sans-serif" font-size="13" lengthAdjust="spacing" textLength="66.8979" x="1504.36" y="769.0284">HTTPS/API</text></g><!--reverse link LogCollector to AppServer--><g id="link_LogCollector_AppServer"><path d="M1770.4554,402.1016 C1766.1154,422.7416 1757.57,446.37 1736,460.97 C1717.49,473.5 1556.17,461.82 1535,468.97 C1466.385,492.165 1399.6625,538.615 1349.5925,579.8088 C1324.5575,600.4056 1303.6856,619.6884 1288.8219,634.0933 C1285.1059,637.6945 1281.7655,640.9908 1278.8294,643.9266 C1277.3614,645.3945 1275.9944,646.7722 1274.7321,648.0529 C1274.101,648.6932 1273.496,649.3093 1272.9177,649.9002 C1272.6285,650.1956 1272.346,650.4848 1272.0702,650.7676 " fill="none" id="LogCollector-backto-AppServer" style="stroke:#181818;stroke-width:1;"/><polygon fill="#181818" points="1771.69,396.23,1765.9237,404.2143,1770.6611,401.123,1773.7525,405.8605,1771.69,396.23" style="stroke:#181818;stroke-width:1;"/><text fill="#000000" font-family="sans-serif" font-size="13" lengthAdjust="spacing" textLength="52" x="1753.11" y="457.5384">&#30332;&#36865;&#26085;&#35468;</text></g><!--reverse link LogCollector to Database--><g id="link_LogCollector_Database"><path d="M1713.71,373.4223 C1475.8,372.7223 553.44,376.02 467,468.97 C398.93,542.18 401.3525,654.2975 421.0775,748.7013 C430.94,795.9031 445.1281,838.6766 456.9931,869.9439 C459.9594,877.7607 462.7804,884.8584 465.3524,891.1264 C466.6384,894.2604 467.8621,897.187 469.0106,899.8923 C469.5848,901.245 470.1402,902.5423 470.6752,903.7826 " fill="none" id="LogCollector-backto-Database" style="stroke:#181818;stroke-width:1;"/><polygon fill="#181818" points="1719.71,373.44,1710.7218,369.4135,1714.71,373.4253,1710.6983,377.4135,1719.71,373.44" style="stroke:#181818;stroke-width:1;"/><text fill="#000000" font-family="sans-serif" font-size="13" lengthAdjust="spacing" textLength="52" x="468" y="665.2884">&#30332;&#36865;&#26085;&#35468;</text></g><!--reverse link LogCollector to MessageBroker--><g id="link_LogCollector_MessageBroker"><path d="M1809.8227,400.4242 C1831.0727,419.0442 1848.17,441.44 1830,460.97 C1813.31,478.92 1739.08,453.59 1720,468.97 C1703.115,482.585 1691.1494,501.0206 1682.7044,521.0797 C1678.4819,531.1092 1675.1395,541.5446 1672.5025,551.9862 C1672.3377,552.6388 1672.1756,553.2914 1672.0163,553.944 " fill="none" id="LogCollector-backto-MessageBroker" style="stroke:#181818;stroke-width:1;"/><polygon fill="#181818" points="1805.31,396.47,1809.4429,405.4097,1809.0706,399.7652,1814.7152,399.3928,1805.31,396.47" style="stroke:#181818;stroke-width:1;"/><text fill="#000000" font-family="sans-serif" font-size="13" lengthAdjust="spacing" textLength="52" x="1837.76" y="457.5384">&#30332;&#36865;&#26085;&#35468;</text></g><!--link LogCollector to Dashboard--><g id="link_LogCollector_Dashboard"><path d="M1830.43,372.73 C1857.92,372.73 1885.03,372.73 1912.52,372.73 " fill="none" id="LogCollector-to-Dashboard" style="stroke:#181818;stroke-width:1;"/><polygon fill="#181818" points="1918.52,372.73,1909.52,368.73,1913.52,372.73,1909.52,376.73,1918.52,372.73" style="stroke:#181818;stroke-width:1;"/><text fill="#000000" font-family="sans-serif" font-size="13" lengthAdjust="spacing" textLength="52" x="1848.5" y="366.2984">&#23637;&#31034;&#25976;&#25818;</text></g><!--link Dashboard to AlertSystem--><g id="link_Dashboard_AlertSystem"><path d="M2029.25,372.73 C2056.9,372.73 2084.07,372.73 2110.69,372.73 " fill="none" id="Dashboard-to-AlertSystem" style="stroke:#181818;stroke-width:1;"/><polygon fill="#181818" points="2116.69,372.73,2107.69,368.73,2111.69,372.73,2107.69,376.73,2116.69,372.73" style="stroke:#181818;stroke-width:1;"/><text fill="#000000" font-family="sans-serif" font-size="13" lengthAdjust="spacing" textLength="52" x="2047" y="366.2984">&#35320;&#30332;&#21578;&#35686;</text></g><!--link AppServer to GMN60--><g id="link_AppServer_GMN60"><path d="M1272.3013,651.0237 C1272.584,650.7176 1272.8735,650.4046 1273.1699,650.0848 C1277.912,644.9682 1284.3984,638.1198 1292.4056,630.0189 C1308.42,613.8172 1330.5175,592.6056 1356.91,570.2188 C1409.695,525.445 1479.66,475.97 1552.5,452.47 C1584.44,442.17 1823.31,440.09 1854.5,452.47 C1927.56,481.49 1955.84,582.36 1965.53,632.08 " fill="none" id="AppServer-GMN60" style="stroke:#181818;stroke-width:1;stroke-dasharray:7.0,7.0;"/></g><!--link Database to GMN63--><g id="link_Database_GMN63"><path d="M483.2446,795.7657 C483.6903,794.8197 484.1518,793.8855 484.6296,792.9639 C485.5852,791.1208 486.6059,789.3282 487.6953,787.5929 C489.874,784.1222 492.3276,780.8802 495.0848,777.9199 C500.5991,771.9992 507.3275,767.205 515.5,763.96 C544.49,752.45 1609.51,752.45 1638.5,763.96 C1694.15,786.06 1724.61,855.46 1737.85,894.96 " fill="none" id="Database-GMN63" style="stroke:#181818;stroke-width:1;stroke-dasharray:7.0,7.0;"/></g><!--link MessageBroker to GMN66--><g id="link_MessageBroker_GMN66"><path d="M1671.917,542.7603 C1672.2733,541.3263 1672.6426,539.8947 1673.0253,538.4667 C1673.7906,535.6106 1674.6094,532.7686 1675.4851,529.9489 C1678.988,518.6703 1683.4016,507.7495 1688.9444,497.7186 C1700.03,477.6569 1715.6325,461.155 1737.5,452.47 C1769.62,439.72 2016.38,439.72 2048.5,452.47 C2120.83,481.19 2146.7,582.21 2155.2,632.02 " fill="none" id="MessageBroker-GMN66" style="stroke:#181818;stroke-width:1;stroke-dasharray:7.0,7.0;"/></g><!--link Cache to GMN69--><g id="link_Cache_GMN69"><path d="M1842.1101,532.4332 C1842.1488,532.0784 1842.1884,531.7238 1842.2289,531.3697 C1842.3101,530.6613 1842.3951,529.9543 1842.4841,529.2488 C1843.9077,517.9604 1846.3427,507.0508 1850.1184,497.0603 C1857.67,477.0794 1870.585,460.775 1891.5,452.47 C1926.92,438.41 2199.08,438.41 2234.5,452.47 C2304.15,480.13 2320.26,581.66 2323.94,631.81 " fill="none" id="Cache-GMN69" style="stroke:#181818;stroke-width:1;stroke-dasharray:7.0,7.0;"/></g><!--link Monitoring to GMN72--><g id="link_Monitoring_GMN72"><path d="M2256.06,372.73 C2256.15,372.73 2256.24,372.73 2256.33,372.73 C2256.69,372.73 2257.05,372.73 2257.41,372.73 C2260.29,372.73 2263.17,372.73 2266.05,372.73 C2271.81,372.73 2277.57,372.73 2283.33,372.73 " fill="none" id="Monitoring-GMN72" style="stroke:#181818;stroke-width:1;stroke-dasharray:7.0,7.0;"/></g><!--SRC=[dLPRJnj767tVNx5o7_fG8ODH8wWY98oX5w0b62aFLHx6zW0hx5rtTmr1LIG3vHP8t1PiOdD9213S8d2uX3WOnt_6ivT_qTcPzNftRISq826nSyvt_ywCDCNnSI226CiB4SZ-ph3unm_2KnEYaE0ZVK9K4E_V7nS5NePyfAU7_QhhMxz_eBqvJeBYD1U61goxQy3VtTKS5W4o2069u0O6_FVwEfhZOb2Im0GC9IG36GZqjWS2pP7miGn57aI9nVR-UrrzpN5X49uqtGPw_Tqjt0ey9miYnqyGjvt6B_E4OKY5FEZijR9ohPuKF2oGsBue1tcPTPI85Z4inE82Rnp- -X26r6HAUrD6sVmZWuK_-4LX1fVB3LMFIsWjhIolgfiKEYo4k2ZiZSUD2C9H8H5XFTh5A-rs5UqkQ_lxs2G9P4W04J-80ZuCnSO8UaT-PBy7Cfm1iyHgRvmp_wqdHfqgEy_GMXPRLJyUwjjB7egE1t5diM5xYwaJaqjPPnymaUsWbS7r01mFnGuJwGf9oy-Zp1abafX-4IDG35Bp7SqOocQXMdfXOuo0sHW-SN2UaB-jGlCvG_DzGMY-BmZDTuVGEfsXTJOFJLtzHtatPtCq94nmaio59TELwSdggdQvh6IowER4ri-0kN-iOnMflze7p2HLiFZLOaaj9FNIdiUgIC0_32JP7EAMHFHnhv4OZ89fwEBH8beyZwsE0Rzj0IidA9MX9Q0rCvQQhI-tEv5H6E4ad3kk0C6J_srpVxsYp1MgnLCzir4jNHF8C5KUlAHJPEeTIaJj_vQ02SoktgnXabeig-zpXDe_ZUFr9oGxI3ajLIlxUkufMjcY7O0WCWHbNBi71iAMt656NyZRakitbOrrY5p3WjFQgTSN-jQEVG1hM_w9CKBf9USaZOZ2D1Tfr2OzcLDV7jbcxsT1viQvC90vWQ-DdvM9kdsWF3_MLfQLhIFjttLQLajPMPVCDYP4MChcDMvSJJPnX5YYep2CQGqP4NVeZwIsdrTsAu_ed4kJ8G684JSO_VLKEtsZNfRKT-TK3wDGb8EpU9XZHWPViteIcpl2nQnMvXbJvDiYmWpVrkEKskzOpmzZOoD13-FuNCFMfTC4UaVxWsCUXd6edGLth9L1-IdWx_EEVlFGuo3uxaomZjf4Rc9IhZF80Xe4xN1PEoXx69UOMXwi3QnPTqDzduAwywn5GNQGk3zBuctsei89MZoYgzsGwzr8hLpL5j8WgjbRL5oWEzlIJMj2GurQKxnO1VNCUNEcxtymtGBVdEhaM2UrphZqnc2WmtCblKN53nVlC-qtTSGQToz-KNns49gJ6XEoziebG2vYGrPDzCT5OUhxrvQ8Kn-MX9WbrvDpfaGnriLu5x3pZhWBmt5gjT5IATALyxHwUAEaYyf6peYdTcIXRKf5-dvSDAQ6w9d742ujNzAE3x06ov0b75OOhwiG5i9gkOAVUG4XZAEcJm-qRjmvQla2dmucGlYEWJAKrFTvvVdV-1E-MfJKbVBs2dsuL3QkS8GCVkUoXWV6vQTMFyiDVZJWwvzAJDrKUb7FxMZbLVpOnH_HMKxPUOdcizLIkQLbHx4jyuDWV0fuHq4enCd33_1dzVLDjRABKWLzzvMIF4Rpb_hSNjqn6NPbVQxwOH4dtT8PUL0OaQqiAUa3T9kY4cFOIVsfdxoWyeFjQmiag-AsTfkstYtqTTuw4-lQmzJ-eK4ldlOOb2SXUJAWPvTATfvUPaO-wRUeMAJjhLly3m00]--></g></svg>