<svg xmlns="http://www.w3.org/2000/svg" xmlns:xlink="http://www.w3.org/1999/xlink" contentStyleType="text/css" height="1285px" preserveAspectRatio="none" style="width:1256px;height:1285px;background:#FFFFFF;" version="1.1" viewBox="0 0 1256 1285" width="1256px" zoomAndPan="magnify"><defs/><g><!--cluster ??????--><g id="cluster_&#35330;&#21934;&#31649;&#29702;&#31995;&#32113;"><rect fill="none" height="854" rx="2.5" ry="2.5" style="stroke:#181818;stroke-width:1;" width="924.42" x="123" y="99.24"/><text fill="#000000" font-family="sans-serif" font-size="14" font-weight="bold" lengthAdjust="spacing" textLength="84" x="543.21" y="114.7752">&#35330;&#21934;&#31649;&#29702;&#31995;&#32113;</text></g><g id="elem_Register"><ellipse cx="205.5374" cy="149.2436" fill="#F1F1F1" rx="51.2674" ry="14.7036" style="stroke:#181818;stroke-width:0.5;"/><text fill="#000000" font-family="sans-serif" font-size="14" lengthAdjust="spacing" textLength="56" x="174.5593" y="153.2567">&#35387;&#20874;&#24115;&#25142;</text></g><g id="elem_Login"><ellipse cx="205.5374" cy="213.2436" fill="#F1F1F1" rx="51.2674" ry="14.7036" style="stroke:#181818;stroke-width:0.5;"/><text fill="#000000" font-family="sans-serif" font-size="14" lengthAdjust="spacing" textLength="56" x="174.5593" y="217.2567">&#30331;&#20837;&#31995;&#32113;</text></g><g id="elem_BrowseProducts"><ellipse cx="452.7374" cy="245.2436" fill="#F1F1F1" rx="51.2674" ry="14.7036" style="stroke:#181818;stroke-width:0.5;"/><text fill="#000000" font-family="sans-serif" font-size="14" lengthAdjust="spacing" textLength="56" x="421.7593" y="249.2567">&#28687;&#35261;&#21830;&#21697;</text></g><g id="elem_SearchProducts"><ellipse cx="452.7374" cy="181.2436" fill="#F1F1F1" rx="51.2674" ry="14.7036" style="stroke:#181818;stroke-width:0.5;"/><text fill="#000000" font-family="sans-serif" font-size="14" lengthAdjust="spacing" textLength="56" x="421.7593" y="185.2567">&#25628;&#32034;&#21830;&#21697;</text></g><g id="elem_CreateOrder"><ellipse cx="205.5432" cy="288.2407" fill="#FEFECE" rx="48.2432" ry="24.9407" style="stroke:#FF6347;stroke-width:0.5;"/><text fill="#000000" font-family="sans-serif" font-size="14" font-style="italic" lengthAdjust="spacing" textLength="43.9688" x="178.9697" y="283.4716">&#171;core&#187;</text><text fill="#000000" font-family="sans-serif" font-size="14" lengthAdjust="spacing" textLength="56" x="172.9541" y="299.9599">&#24314;&#31435;&#35330;&#21934;</text></g><g id="elem_AddOrderItem"><ellipse cx="205.5394" cy="372.2428" fill="#FEFECE" rx="64.8994" ry="24.2628" style="stroke:#FF6347;stroke-width:0.5;"/><text fill="#000000" font-family="sans-serif" font-size="14" font-style="italic" lengthAdjust="spacing" textLength="43.9688" x="178.5619" y="366.0939">&#171;core&#187;</text><text fill="#000000" font-family="sans-serif" font-size="14" lengthAdjust="spacing" textLength="84" x="158.5463" y="382.5822">&#26032;&#22686;&#35330;&#21934;&#38917;&#30446;</text></g><g id="elem_RemoveOrderItem"><ellipse cx="205.5394" cy="456.2428" fill="#FEFECE" rx="64.8994" ry="24.2628" style="stroke:#FF6347;stroke-width:0.5;"/><text fill="#000000" font-family="sans-serif" font-size="14" font-style="italic" lengthAdjust="spacing" textLength="43.9688" x="178.5619" y="450.0939">&#171;core&#187;</text><text fill="#000000" font-family="sans-serif" font-size="14" lengthAdjust="spacing" textLength="84" x="158.5463" y="466.5822">&#31227;&#38500;&#35330;&#21934;&#38917;&#30446;</text></g><g id="elem_ProcessPayment"><ellipse cx="452.7432" cy="695.2407" fill="#FEFECE" rx="48.2432" ry="24.9407" style="stroke:#FF6347;stroke-width:0.5;"/><text fill="#000000" font-family="sans-serif" font-size="14" font-style="italic" lengthAdjust="spacing" textLength="43.9688" x="426.1697" y="690.4716">&#171;core&#187;</text><text fill="#000000" font-family="sans-serif" font-size="14" lengthAdjust="spacing" textLength="56" x="420.1541" y="706.9599">&#34389;&#29702;&#25903;&#20184;</text></g><g id="elem_ArrangeDelivery"><ellipse cx="720.6432" cy="764.2407" fill="#FEFECE" rx="48.2432" ry="24.9407" style="stroke:#FF6347;stroke-width:0.5;"/><text fill="#000000" font-family="sans-serif" font-size="14" font-style="italic" lengthAdjust="spacing" textLength="43.9688" x="694.0697" y="759.4716">&#171;core&#187;</text><text fill="#000000" font-family="sans-serif" font-size="14" lengthAdjust="spacing" textLength="56" x="688.0541" y="775.9599">&#23433;&#25490;&#37197;&#36865;</text></g><g id="elem_CheckOrderStatus"><ellipse cx="205.5361" cy="531.2372" fill="#F1F1F1" rx="66.5361" ry="15.7072" style="stroke:#181818;stroke-width:0.5;"/><text fill="#000000" font-family="sans-serif" font-size="14" lengthAdjust="spacing" textLength="84" x="160.5361" y="535.2548">&#26597;&#35426;&#35330;&#21934;&#29376;&#24907;</text></g><g id="elem_CancelOrder"><ellipse cx="205.5445" cy="608.2376" fill="#B4EEB4" rx="59.6645" ry="25.9976" style="stroke:#3CB371;stroke-width:0.5;"/><text fill="#000000" font-family="sans-serif" font-size="14" font-style="italic" lengthAdjust="spacing" textLength="81.252" x="164.9185" y="605.1938">&#171;extension&#187;</text><text fill="#000000" font-family="sans-serif" font-size="14" lengthAdjust="spacing" textLength="56" x="177.5445" y="621.6821">&#21462;&#28040;&#35330;&#21934;</text></g><g id="elem_ApplyDiscount"><ellipse cx="452.7445" cy="841.2376" fill="#B4EEB4" rx="59.6645" ry="25.9976" style="stroke:#3CB371;stroke-width:0.5;"/><text fill="#000000" font-family="sans-serif" font-size="14" font-style="italic" lengthAdjust="spacing" textLength="81.252" x="412.1185" y="838.1938">&#171;extension&#187;</text><text fill="#000000" font-family="sans-serif" font-size="14" lengthAdjust="spacing" textLength="56" x="424.7445" y="854.6821">&#22871;&#29992;&#25240;&#25187;</text></g><g id="elem_RequestRefund"><ellipse cx="205.5445" cy="695.2376" fill="#B4EEB4" rx="59.6645" ry="25.9976" style="stroke:#3CB371;stroke-width:0.5;"/><text fill="#000000" font-family="sans-serif" font-size="14" font-style="italic" lengthAdjust="spacing" textLength="81.252" x="164.9185" y="692.1938">&#171;extension&#187;</text><text fill="#000000" font-family="sans-serif" font-size="14" lengthAdjust="spacing" textLength="56" x="177.5445" y="708.6821">&#30003;&#35531;&#36864;&#27454;</text></g><g id="elem_RateOrder"><ellipse cx="205.5445" cy="782.2376" fill="#B4EEB4" rx="59.6645" ry="25.9976" style="stroke:#3CB371;stroke-width:0.5;"/><text fill="#000000" font-family="sans-serif" font-size="14" font-style="italic" lengthAdjust="spacing" textLength="81.252" x="164.9185" y="779.1938">&#171;extension&#187;</text><text fill="#000000" font-family="sans-serif" font-size="14" lengthAdjust="spacing" textLength="56" x="177.5445" y="795.6821">&#35413;&#20729;&#35330;&#21934;</text></g><g id="elem_ManageOrders"><ellipse cx="205.5374" cy="858.2436" fill="#F1F1F1" rx="51.2674" ry="14.7036" style="stroke:#181818;stroke-width:0.5;"/><text fill="#000000" font-family="sans-serif" font-size="14" lengthAdjust="spacing" textLength="56" x="174.5593" y="862.2567">&#31649;&#29702;&#35330;&#21934;</text></g><g id="elem_GenerateReports"><ellipse cx="205.5374" cy="922.2436" fill="#F1F1F1" rx="51.2674" ry="14.7036" style="stroke:#181818;stroke-width:0.5;"/><text fill="#000000" font-family="sans-serif" font-size="14" lengthAdjust="spacing" textLength="56" x="174.5593" y="926.2567">&#29983;&#25104;&#22577;&#34920;</text></g><g id="elem_SendNotification"><ellipse cx="980.1474" cy="702.2436" fill="#F1F1F1" rx="51.2674" ry="14.7036" style="stroke:#181818;stroke-width:0.5;"/><text fill="#000000" font-family="sans-serif" font-size="14" lengthAdjust="spacing" textLength="56" x="949.1693" y="706.2567">&#30332;&#36865;&#36890;&#30693;</text></g><!--entity Customer--><g id="elem_Customer"><ellipse cx="41" cy="434" fill="#F1F1F1" rx="16" ry="16" style="stroke:#181818;stroke-width:0.5;"/><path d="M41,454 C45,454 48,454 52,450 C60,450 68,458 68,466 L68,470 C68,474 64,478 60,478 L22,478 C18,478 14,474 14,470 L14,466 C14,458 22,450 30,450 C34,454 37,454 41,454 " fill="#F1F1F1" style="stroke:#181818;stroke-width:0.5;"/><text fill="#000000" font-family="sans-serif" font-size="14" lengthAdjust="spacing" textLength="28" x="27" y="492.0352">&#23458;&#25142;</text></g><!--entity Admin--><g id="elem_Admin"><ellipse cx="41" cy="836" fill="#F1F1F1" rx="16" ry="16" style="stroke:#181818;stroke-width:0.5;"/><path d="M41,856 C45,856 48,856 52,852 C60,852 68,860 68,868 L68,872 C68,876 64,880 60,880 L22,880 C18,880 14,876 14,872 L14,868 C14,860 22,852 30,852 C34,856 37,856 41,856 " fill="#F1F1F1" style="stroke:#181818;stroke-width:0.5;"/><text fill="#000000" font-family="sans-serif" font-size="14" lengthAdjust="spacing" textLength="70" x="6" y="894.0352">&#31995;&#32113;&#31649;&#29702;&#21729;</text></g><!--entity PaymentSystem--><g id="elem_PaymentSystem"><ellipse cx="720.64" cy="986" fill="#F1F1F1" rx="16" ry="16" style="stroke:#181818;stroke-width:0.5;"/><path d="M720.64,1006 C724.64,1006 727.64,1006 731.64,1002 C739.64,1002 747.64,1010 747.64,1018 L747.64,1022 C747.64,1026 743.64,1030 739.64,1030 L701.64,1030 C697.64,1030 693.64,1026 693.64,1022 L693.64,1018 C693.64,1010 701.64,1002 709.64,1002 C713.64,1006 716.64,1006 720.64,1006 " fill="#F1F1F1" style="stroke:#181818;stroke-width:0.5;"/><text fill="#000000" font-family="sans-serif" font-size="14" lengthAdjust="spacing" textLength="56" x="692.64" y="1044.0352">&#25903;&#20184;&#31995;&#32113;</text></g><!--entity LogisticsSystem--><g id="elem_LogisticsSystem"><ellipse cx="980.15" cy="22" fill="#F1F1F1" rx="16" ry="16" style="stroke:#181818;stroke-width:0.5;"/><path d="M980.15,42 C984.15,42 987.15,42 991.15,38 C999.15,38 1007.15,46 1007.15,54 L1007.15,58 C1007.15,62 1003.15,66 999.15,66 L961.15,66 C957.15,66 953.15,62 953.15,58 L953.15,54 C953.15,46 961.15,38 969.15,38 C973.15,42 976.15,42 980.15,42 " fill="#F1F1F1" style="stroke:#181818;stroke-width:0.5;"/><text fill="#000000" font-family="sans-serif" font-size="14" lengthAdjust="spacing" textLength="56" x="952.15" y="80.0352">&#29289;&#27969;&#31995;&#32113;</text></g><!--entity NotificationSystem--><g id="elem_NotificationSystem"><ellipse cx="1221.42" cy="680" fill="#F1F1F1" rx="16" ry="16" style="stroke:#181818;stroke-width:0.5;"/><path d="M1221.42,700 C1225.42,700 1228.42,700 1232.42,696 C1240.42,696 1248.42,704 1248.42,712 L1248.42,716 C1248.42,720 1244.42,724 1240.42,724 L1202.42,724 C1198.42,724 1194.42,720 1194.42,716 L1194.42,712 C1194.42,704 1202.42,696 1210.42,696 C1214.42,700 1217.42,700 1221.42,700 " fill="#F1F1F1" style="stroke:#181818;stroke-width:0.5;"/><text fill="#000000" font-family="sans-serif" font-size="14" lengthAdjust="spacing" textLength="56" x="1193.42" y="738.0352">&#36890;&#30693;&#31995;&#32113;</text></g><g id="elem_N1"><path d="M930.65,969.59 L930.65,994.9005 L1029.65,994.9005 L1029.65,979.59 L1019.65,969.59 L930.65,969.59 " fill="#FEFFDD" style="stroke:#181818;stroke-width:0.5;"/><path d="M1019.65,969.59 L1019.65,979.59 L1029.65,979.59 L1019.65,969.59 " fill="#FEFFDD" style="stroke:#181818;stroke-width:1;"/><text fill="#000000" font-family="sans-serif" font-size="13" lengthAdjust="spacing" textLength="78" x="936.65" y="987.1584">&#26680;&#24515;&#26989;&#21209;&#27969;&#31243;</text></g><g id="elem_N2"><path d="M684.14,1153.59 L684.14,1178.9005 L757.14,1178.9005 L757.14,1163.59 L747.14,1153.59 L684.14,1153.59 " fill="#FEFFDD" style="stroke:#181818;stroke-width:0.5;"/><path d="M747.14,1153.59 L747.14,1163.59 L757.14,1163.59 L747.14,1153.59 " fill="#FEFFDD" style="stroke:#181818;stroke-width:1;"/><text fill="#000000" font-family="sans-serif" font-size="13" lengthAdjust="spacing" textLength="52" x="690.14" y="1171.1584">&#25844;&#23637;&#21151;&#33021;</text></g><g id="elem_N3"><path d="M416.24,1253.59 L416.24,1278.9005 L489.24,1278.9005 L489.24,1263.59 L479.24,1253.59 L416.24,1253.59 " fill="#FEFFDD" style="stroke:#181818;stroke-width:0.5;"/><path d="M479.24,1253.59 L479.24,1263.59 L489.24,1263.59 L479.24,1253.59 " fill="#FEFFDD" style="stroke:#181818;stroke-width:1;"/><text fill="#000000" font-family="sans-serif" font-size="13" lengthAdjust="spacing" textLength="52" x="422.24" y="1271.1584">&#31649;&#29702;&#21151;&#33021;</text></g><!--link Customer to Register--><g id="link_Customer_Register"><path d="M41.52,417.18 C42.92,358.5 54.15,247.42 115,181.24 C126.73,168.49 138.1306,162.4574 154.3106,157.8374 " fill="none" id="Customer-to-Register" style="stroke:#181818;stroke-width:1;"/><polygon fill="#181818" points="160.08,156.19,150.3276,154.8148,155.2722,157.5628,152.5241,162.5074,160.08,156.19" style="stroke:#181818;stroke-width:1;"/></g><!--link Customer to Login--><g id="link_Customer_Login"><path d="M45.56,417.33 C51.82,370.77 68.9,293.21 115,246.24 C127.42,233.59 139.3462,227.4512 155.7162,222.6112 " fill="none" id="Customer-to-Login" style="stroke:#181818;stroke-width:1;"/><polygon fill="#181818" points="161.47,220.91,151.7052,219.6259,156.6752,222.3276,153.9734,227.2976,161.47,220.91" style="stroke:#181818;stroke-width:1;"/></g><!--link Login to BrowseProducts--><g id="link_Login_BrowseProducts"><path d="M236.97,225.3 C255.47,231.99 279.76,239.67 302.07,243.24 C335.17,248.55 366.9225,249.1819 396.2225,248.3419 " fill="none" id="Login-to-BrowseProducts" style="stroke:#181818;stroke-width:1;"/><polygon fill="#181818" points="402.22,248.17,393.1091,244.4296,397.2221,248.3133,393.3383,252.4263,402.22,248.17" style="stroke:#181818;stroke-width:1;"/><text fill="#000000" font-family="sans-serif" font-size="13" lengthAdjust="spacing" textLength="59.3569" x="303.07" y="239.8084">&#171;include&#187;</text></g><!--link Login to SearchProducts--><g id="link_Login_SearchProducts"><path d="M252.94,207.19 C296.68,201.48 355.9005,193.7566 399.5705,188.0566 " fill="none" id="Login-to-SearchProducts" style="stroke:#181818;stroke-width:1;"/><polygon fill="#181818" points="405.52,187.28,396.078,184.4785,400.5621,187.9271,397.1134,192.4112,405.52,187.28" style="stroke:#181818;stroke-width:1;"/><text fill="#000000" font-family="sans-serif" font-size="13" lengthAdjust="spacing" textLength="59.3569" x="303.07" y="190.0084">&#171;include&#187;</text></g><!--link Customer to CreateOrder--><g id="link_Customer_CreateOrder"><path d="M57.18,417.1 C69.39,389.86 88.82,354.25 115,330.24 C128.92,317.48 141.8527,310.1919 158.4127,303.4519 " fill="none" id="Customer-to-CreateOrder" style="stroke:#181818;stroke-width:1;"/><polygon fill="#181818" points="163.97,301.19,154.1261,300.8779,159.3389,303.0749,157.1419,308.2877,163.97,301.19" style="stroke:#181818;stroke-width:1;"/></g><!--link Customer to AddOrderItem--><g id="link_Customer_AddOrderItem"><path d="M68.74,440.14 C82.43,432.09 99.44,422.35 115,414.24 C130.53,406.15 142.4546,400.3595 157.7346,393.2895 " fill="none" id="Customer-to-AddOrderItem" style="stroke:#181818;stroke-width:1;"/><polygon fill="#181818" points="163.18,390.77,153.3323,390.9191,158.6422,392.8696,156.6917,398.1796,163.18,390.77" style="stroke:#181818;stroke-width:1;"/></g><!--link Customer to RemoveOrderItem--><g id="link_Customer_RemoveOrderItem"><path d="M68.84,456.24 C88.32,456.24 109.51,456.24 134.44,456.24 " fill="none" id="Customer-to-RemoveOrderItem" style="stroke:#181818;stroke-width:1;"/><polygon fill="#181818" points="140.44,456.24,131.44,452.24,135.44,456.24,131.44,460.24,140.44,456.24" style="stroke:#181818;stroke-width:1;"/></g><!--link Customer to CheckOrderStatus--><g id="link_Customer_CheckOrderStatus"><path d="M68.8,473.12 C82.36,481.28 99.24,490.87 115,498.24 C131.06,505.76 143.6731,510.7501 159.5131,516.3501 " fill="none" id="Customer-to-CheckOrderStatus" style="stroke:#181818;stroke-width:1;"/><polygon fill="#181818" points="165.17,518.35,158.0179,511.5789,160.4559,516.6834,155.3514,519.1214,165.17,518.35" style="stroke:#181818;stroke-width:1;"/></g><!--link Customer to CancelOrder--><g id="link_Customer_CancelOrder"><path d="M61.82,495.45 C74.62,517.8 92.99,545.07 115,564.24 C127.93,575.51 138.7978,582.1352 153.9478,589.0952 " fill="none" id="Customer-to-CancelOrder" style="stroke:#181818;stroke-width:1;"/><polygon fill="#181818" points="159.4,591.6,152.8916,584.2081,154.8565,589.5127,149.5519,591.4776,159.4,591.6" style="stroke:#181818;stroke-width:1;"/></g><!--link Customer to RequestRefund--><g id="link_Customer_RequestRefund"><path d="M47.78,495.11 C55.98,537.99 74.71,606.78 115,651.24 C126.28,663.7 136.4033,670.5571 151.4133,677.3471 " fill="none" id="Customer-to-RequestRefund" style="stroke:#181818;stroke-width:1;"/><polygon fill="#181818" points="156.88,679.82,150.3286,672.4661,152.3244,677.7592,147.0314,679.7551,156.88,679.82" style="stroke:#181818;stroke-width:1;"/></g><!--link Customer to RateOrder--><g id="link_Customer_RateOrder"><path d="M42.2,495.42 C44.49,554.46 56.86,666.89 115,738.24 C125.61,751.27 135.5634,758.289 150.6234,765.029 " fill="none" id="Customer-to-RateOrder" style="stroke:#181818;stroke-width:1;"/><polygon fill="#181818" points="156.1,767.48,149.5192,760.1525,151.5362,765.4375,146.2512,767.4545,156.1,767.48" style="stroke:#181818;stroke-width:1;"/></g><!--link Admin to Login--><g id="link_Admin_Login"><path d="M46.09,819.38 C60.13,686.47 106.04,257.6 115,246.24 C125.78,232.59 137.0149,226.2523 153.3149,221.5523 " fill="none" id="Admin-to-Login" style="stroke:#181818;stroke-width:1;"/><polygon fill="#181818" points="159.08,219.89,149.3241,218.5401,154.2757,221.2753,151.5405,226.2269,159.08,219.89" style="stroke:#181818;stroke-width:1;"/></g><!--link Admin to ManageOrders--><g id="link_Admin_ManageOrders"><path d="M76.47,858.24 C99.02,858.24 122.86,858.24 148.07,858.24 " fill="none" id="Admin-to-ManageOrders" style="stroke:#181818;stroke-width:1;"/><polygon fill="#181818" points="154.07,858.24,145.07,854.24,149.07,858.24,145.07,862.24,154.07,858.24" style="stroke:#181818;stroke-width:1;"/></g><!--link Admin to GenerateReports--><g id="link_Admin_GenerateReports"><path d="M76.33,873.88 C88.47,879.25 102.27,885.19 115,890.24 C133.41,897.56 148.5632,903.0785 165.4932,908.9685 " fill="none" id="Admin-to-GenerateReports" style="stroke:#181818;stroke-width:1;"/><polygon fill="#181818" points="171.16,910.94,163.9741,904.2048,166.4376,909.2971,161.3454,911.7606,171.16,910.94" style="stroke:#181818;stroke-width:1;"/></g><!--link CreateOrder to ApplyDiscount--><g id="link_CreateOrder_ApplyDiscount"><path d="M243.54,303.91 C254.54,310.42 265.42,319.11 272.07,330.24 C316.67,404.85 261.64,643.3 302.07,720.24 C326.4,766.53 371.6878,798.4956 407.2878,818.6356 " fill="none" id="CreateOrder-to-ApplyDiscount" style="stroke:#181818;stroke-width:1;stroke-dasharray:7.0,7.0;"/><polygon fill="#181818" points="412.51,821.59,406.6462,813.677,408.1581,819.128,402.7071,820.6399,412.51,821.59" style="stroke:#181818;stroke-width:1;"/><text fill="#000000" font-family="sans-serif" font-size="13" lengthAdjust="spacing" textLength="57.1924" x="304.07" y="716.8084">&#171;extend&#187;</text></g><!--link CreateOrder to ProcessPayment--><g id="link_CreateOrder_ProcessPayment"><path d="M240.87,305.41 C251.81,312.07 263.34,320.47 272.07,330.24 C368.53,438.22 423.994,601.5736 442.944,664.6636 " fill="none" id="CreateOrder-to-ProcessPayment" style="stroke:#181818;stroke-width:1;"/><polygon fill="#181818" points="444.67,670.41,445.9119,660.6398,443.2317,665.6213,438.2501,662.9411,444.67,670.41" style="stroke:#181818;stroke-width:1;"/><text fill="#000000" font-family="sans-serif" font-size="13" lengthAdjust="spacing" textLength="59.3569" x="303.07" y="369.7984">&#171;include&#187;</text></g><!--link ProcessPayment to PaymentSystem--><g id="link_ProcessPayment_PaymentSystem"><path d="M469.37,718.99 C482.26,739.36 500.33,769.84 512.4,798.24 C530.88,841.73 511.94,864.12 542.4,900.24 C574.31,938.08 600.31,923.21 642.4,949.24 C659.77,959.99 673.2918,969.9931 687.6618,981.5331 " fill="none" id="ProcessPayment-to-PaymentSystem" style="stroke:#181818;stroke-width:1;"/><polygon fill="#181818" points="692.34,985.29,687.8273,976.5358,688.4415,982.1593,682.8181,982.7735,692.34,985.29" style="stroke:#181818;stroke-width:1;"/><text fill="#000000" font-family="sans-serif" font-size="13" lengthAdjust="spacing" textLength="98.376" x="543.4" y="896.8084">&#171;communicate&#187;</text></g><!--link ProcessPayment to ArrangeDelivery--><g id="link_ProcessPayment_ArrangeDelivery"><path d="M496.46,706.33 C546.08,719.21 621.6425,738.8125 671.2225,751.6825 " fill="none" id="ProcessPayment-to-ArrangeDelivery" style="stroke:#181818;stroke-width:1;"/><polygon fill="#181818" points="677.03,753.19,669.3237,747.057,672.1904,751.9337,667.3137,754.8004,677.03,753.19" style="stroke:#181818;stroke-width:1;"/><text fill="#000000" font-family="sans-serif" font-size="13" lengthAdjust="spacing" textLength="59.3569" x="562.9" y="716.0984">&#171;include&#187;</text></g><!--link ArrangeDelivery to LogisticsSystem--><g id="link_ArrangeDelivery_LogisticsSystem"><path d="M745.64,742.54 C754.04,733.84 762.86,723.27 768.89,712.24 C900.04,472.35 814.94,366.78 928.89,118.24 C935.04,104.83 940.1081,96.1016 948.3781,84.2416 " fill="none" id="ArrangeDelivery-to-LogisticsSystem" style="stroke:#181818;stroke-width:1;"/><polygon fill="#181818" points="951.81,79.32,943.3811,84.4145,948.9501,83.4214,949.9433,88.9903,951.81,79.32" style="stroke:#181818;stroke-width:1;"/><text fill="#000000" font-family="sans-serif" font-size="13" lengthAdjust="spacing" textLength="98.376" x="799.89" y="198.5884">&#171;communicate&#187;</text></g><!--link ProcessPayment to SendNotification--><g id="link_ProcessPayment_SendNotification"><path d="M501.13,694.61 C514.48,694.46 529.01,694.32 542.4,694.24 C700.84,693.35 740.55,691.39 898.89,697.24 C908.93,697.62 913.6906,697.8136 923.9406,698.4236 " fill="none" id="ProcessPayment-to-SendNotification" style="stroke:#181818;stroke-width:1;stroke-dasharray:7.0,7.0;"/><polygon fill="#181818" points="929.93,698.78,921.1835,694.2524,924.9388,698.483,920.7083,702.2383,929.93,698.78" style="stroke:#181818;stroke-width:1;"/><text fill="#000000" font-family="sans-serif" font-size="13" lengthAdjust="spacing" textLength="59.3569" x="691.14" y="689.7684">&#171;include&#187;</text></g><!--link ArrangeDelivery to SendNotification--><g id="link_ArrangeDelivery_SendNotification"><path d="M765.04,753.8 C813.91,742.03 886.8266,724.4742 933.9766,713.1242 " fill="none" id="ArrangeDelivery-to-SendNotification" style="stroke:#181818;stroke-width:1;stroke-dasharray:7.0,7.0;"/><polygon fill="#181818" points="939.81,711.72,930.1238,709.9374,934.9489,712.8902,931.9961,717.7152,939.81,711.72" style="stroke:#181818;stroke-width:1;"/><text fill="#000000" font-family="sans-serif" font-size="13" lengthAdjust="spacing" textLength="59.3569" x="819.39" y="718.8684">&#171;include&#187;</text></g><!--link SendNotification to NotificationSystem--><g id="link_SendNotification_NotificationSystem"><path d="M1031.9,702.24 C1081.14,702.24 1148.02,702.24 1187.17,702.24 " fill="none" id="SendNotification-to-NotificationSystem" style="stroke:#181818;stroke-width:1;"/><polygon fill="#181818" points="1193.17,702.24,1184.17,698.24,1188.17,702.24,1184.17,706.24,1193.17,702.24" style="stroke:#181818;stroke-width:1;"/><text fill="#000000" font-family="sans-serif" font-size="13" lengthAdjust="spacing" textLength="98.376" x="1064.42" y="698.8084">&#171;communicate&#187;</text></g><!--link CancelOrder to ProcessPayment--><g id="link_CancelOrder_ProcessPayment"><path d="M252.66,624.61 C298.71,640.95 363.0953,663.7939 406.6453,679.2439 " fill="none" id="CancelOrder-to-ProcessPayment" style="stroke:#181818;stroke-width:1;stroke-dasharray:7.0,7.0;"/><polygon fill="#181818" points="412.3,681.25,405.1553,674.4711,407.5878,679.5783,402.4806,682.0107,412.3,681.25" style="stroke:#181818;stroke-width:1;"/><text fill="#000000" font-family="sans-serif" font-size="13" lengthAdjust="spacing" textLength="57.1924" x="304.07" y="640.5184">&#171;extend&#187;</text></g><!--link RequestRefund to ProcessPayment--><g id="link_RequestRefund_ProcessPayment"><path d="M265.58,695.24 C308.09,695.24 358.7,695.24 398.28,695.24 " fill="none" id="RequestRefund-to-ProcessPayment" style="stroke:#181818;stroke-width:1;stroke-dasharray:7.0,7.0;"/><polygon fill="#181818" points="404.28,695.24,395.28,691.24,399.28,695.24,395.28,699.24,404.28,695.24" style="stroke:#181818;stroke-width:1;"/><text fill="#000000" font-family="sans-serif" font-size="13" lengthAdjust="spacing" textLength="57.1924" x="304.07" y="691.8084">&#171;extend&#187;</text></g><!--link CreateOrder to N1--><g id="link_CreateOrder_N1"><path d="M243.61,303.86 C254.62,310.37 265.48,319.07 272.07,330.24 C324.55,419.25 259.21,700.23 302.07,794.24 C325.67,846 348.7,848.65 393.07,884.24 C508.27,976.67 530.72,1022.55 672.4,1064.24 C779.75,1095.84 909.74,1025.76 958.96,995.4 " fill="none" id="CreateOrder-N1" style="stroke:#181818;stroke-width:1;stroke-dasharray:7.0,7.0;"/></g><!--link ProcessPayment to N1--><g id="link_ProcessPayment_N1"><path d="M482.89,714.89 C500,726.19 522.17,740.44 542.4,752.24 C694.34,840.87 883.39,935.23 952.38,969.16 " fill="none" id="ProcessPayment-N1" style="stroke:#181818;stroke-width:1;stroke-dasharray:7.0,7.0;"/></g><!--link ArrangeDelivery to N1--><g id="link_ArrangeDelivery_N1"><path d="M767.62,770.79 C807.94,778.95 865.25,796.85 898.89,835.24 C934.54,875.95 896.21,910.11 928.89,953.24 C933.81,959.75 940.66,965.04 947.71,969.24 " fill="none" id="ArrangeDelivery-N1" style="stroke:#181818;stroke-width:1;stroke-dasharray:7.0,7.0;"/></g><!--link CancelOrder to N2--><g id="link_CancelOrder_N2"><path d="M246.94,627.25 C256.73,633.79 266.09,642.09 272.07,652.24 C312.02,720.09 254.23,942.72 302.07,1005.24 C399.89,1133.1 494,1066.84 642.4,1129.24 C659.81,1136.56 678.96,1145.73 693.83,1153.1 " fill="none" id="CancelOrder-N2" style="stroke:#181818;stroke-width:1;stroke-dasharray:7.0,7.0;"/></g><!--link RequestRefund to N2--><g id="link_RequestRefund_N2"><path d="M246.92,714.26 C256.71,720.81 266.07,729.1 272.07,739.24 C310.35,803.96 252.29,1019.9 302.07,1076.24 C352.65,1133.49 592.22,1156.88 683.87,1163.84 " fill="none" id="RequestRefund-N2" style="stroke:#181818;stroke-width:1;stroke-dasharray:7.0,7.0;"/></g><!--link ApplyDiscount to N2--><g id="link_ApplyDiscount_N2"><path d="M472.47,866.27 C489.56,888.38 516.09,920.94 542.4,946.24 C583.02,985.32 605.95,981.25 642.4,1024.24 C677.97,1066.2 704.35,1127.15 714.77,1153.41 " fill="none" id="ApplyDiscount-N2" style="stroke:#181818;stroke-width:1;stroke-dasharray:7.0,7.0;"/></g><!--link RateOrder to N2--><g id="link_RateOrder_N2"><path d="M246.89,801.28 C256.68,807.82 266.05,816.11 272.07,826.24 C308.68,887.83 250.22,1097.81 302.07,1147.24 C407.25,1247.52 603.39,1202.55 683.82,1178.2 " fill="none" id="RateOrder-N2" style="stroke:#181818;stroke-width:1;stroke-dasharray:7.0,7.0;"/></g><!--link ManageOrders to N3--><g id="link_ManageOrders_N3"><path d="M243.58,868.55 C254.44,873.39 265.23,880.35 272.07,890.24 C312.81,949.18 258.38,1154.47 302.07,1211.24 C329.08,1246.35 380.79,1259.05 415.78,1263.65 " fill="none" id="ManageOrders-N3" style="stroke:#181818;stroke-width:1;stroke-dasharray:7.0,7.0;"/></g><!--link GenerateReports to N3--><g id="link_GenerateReports_N3"><path d="M208.61,937.1 C217.14,995.8 251.4,1210.33 302.07,1252.24 C333.54,1278.28 382.47,1277.71 415.75,1273.34 " fill="none" id="GenerateReports-N3" style="stroke:#181818;stroke-width:1;stroke-dasharray:7.0,7.0;"/></g><!--SRC=[ZLLjJnD977-_dsA3B-wL95Xo9WqXeRLSJ4xFb4-msHtAXdQ7cvcgpUMIAa8AzGw2W5QDF7YS9PueGOntFUJBCBlRR-4yRDkPQIk-QTBv_tx_Xz__OOjWbjW4siWlp17Ryn5mYGy32y_xmOA3d9Bjk0IY6L8f0jkv1p0i0SLOni1rCB1_ismxuxZp1GJBWPU5HOWc9bo8mEIaVMKwDvtBvWOXm7q20ipYSLXcF9VBZ7COH1v0ffFf7rFZrqshvY2LpQIkZrc_MrQQ7ks7jKzfsy5sjem9InfPwUYa5PqUHqTxqVeoVR8dh5DUoG-iTBZv_gBrJ0B4-nsdKW81cQbW0agCkd8OdZvGx3_3We-9x-8Eebrz7kqSA8ZRaFYplkjmEHEGnTLrWWAJCcu-fDj7CXT94XhQNKL7ucQBBg_IpoUia17kC0zuI5Q81eiQBRgKn1tfP1OOcEfQ_FSPtM9LFn2O38BtCBY3e5Ts2TR1uVhBwEE-0fu13dBd1eDfwx_eRLqM8y1P11m2Vk4jiZlDC_nlVw3xhoIblRiKlP34ASyJh9jCg27Cw4shtVYhZva79NWNN4QE6rjCQjbdGMC5kG3ZfD53MFHe9VnpextqHxignPX2Y3KGt015_ov0bM4rxXp4X_j9Z-lLSAaknPa3xhn8T8Ouf6ngkROTVggfMZg12ueTBPLHDtW7JwFDPhZwB5nvBNDSM2XMRlZOPPj6liMCDa_Yj_LsjHh-yoMHyjSom2GFPjcEVeiP7sxHnN-LNFDAruV74-Eki6uvWLEGF6ocjXFMrkdkSRpN5D2VG00G2v872n2POnWr_cSDaYkOp6pWgGl8Zy8FjhmA5sVdNA-zsiMNUllfoulpXrRdHjXNhqxszanxbMibViL_VONiDAlR3znYsUF3q8FfosF0j03AvkW6TJFCJBN9D_oPmwPRUxDb-bH6m31rysDQTi_e03d5KLLKw_tN6jvxDflB_8Uxd-dv8Z-wpMwNbDioEZffp7cwCtaULrQ1yW36ikjjC8m2hvv_0NTXgLGE-3WDePYNGOzXMZlYAD-GoyFmeit9lYJETr3wp3ot_g_NWFHucvvyfCTRUfkKiyN33z2-soVzu5o6vYjSMuvE7z6Dn-pp6BzvRGMGy7ihX-NW7QqtP2xY2jmUwzX5bdHr9ruyavPhYIKPOyMIien1usxw6i4V-xNchqRzF9HP9N_JXpV1QL6lMPQwBk8jPHchahn-1G00]--></g></svg>