<?xml version="1.0" encoding="us-ascii" standalone="no"?><svg xmlns="http://www.w3.org/2000/svg" xmlns:xlink="http://www.w3.org/1999/xlink" contentStyleType="text/css" height="945px" preserveAspectRatio="none" style="width:2001px;height:945px;background:#FFFFFF;" version="1.1" viewBox="0 0 2001 945" width="2001px" zoomAndPan="magnify"><defs><filter height="1" id="b1ncakp7x7j3wv0" width="1" x="0" y="0"><feFlood flood-color="#FFD700" result="flood"/><feComposite in="SourceGraphic" in2="flood" operator="over"/></filter><filter height="1" id="b1ncakp7x7j3wv1" width="1" x="0" y="0"><feFlood flood-color="#32CD32" result="flood"/><feComposite in="SourceGraphic" in2="flood" operator="over"/></filter><filter height="1" id="b1ncakp7x7j3wv2" width="1" x="0" y="0"><feFlood flood-color="#1E90FF" result="flood"/><feComposite in="SourceGraphic" in2="flood" operator="over"/></filter><filter height="1" id="b1ncakp7x7j3wv3" width="1" x="0" y="0"><feFlood flood-color="#FFFF00" result="flood"/><feComposite in="SourceGraphic" in2="flood" operator="over"/></filter><filter height="1" id="b1ncakp7x7j3wv4" width="1" x="0" y="0"><feFlood flood-color="#FFA500" result="flood"/><feComposite in="SourceGraphic" in2="flood" operator="over"/></filter><filter height="1" id="b1ncakp7x7j3wv5" width="1" x="0" y="0"><feFlood flood-color="#800080" result="flood"/><feComposite in="SourceGraphic" in2="flood" operator="over"/></filter></defs><g><text fill="#000000" font-family="sans-serif" font-size="20" font-weight="bold" lengthAdjust="spacing" textLength="327" x="830" y="29.3359">&#35330;&#21934;&#31995;&#32113;&#20107;&#20214;&#39080;&#26292;&#22294; - &#27969;&#31243;&#24314;&#27169;&#38542;&#27573;</text><!--entity Customer--><g id="elem_Customer"><rect fill="#FFD700" height="36.4883" rx="12.5" ry="12.5" style="stroke:#000000;stroke-width:0.5;" width="48" x="28" y="173.3047"/><text fill="#000000" font-family="sans-serif" font-size="14" font-weight="bold" lengthAdjust="spacing" textLength="28" x="38" y="196.8398">&#23458;&#25142;</text></g><!--entity Admin--><g id="elem_Admin"><rect fill="#FFD700" height="36.4883" rx="12.5" ry="12.5" style="stroke:#000000;stroke-width:0.5;" width="90" x="7" y="102.3047"/><text fill="#000000" font-family="sans-serif" font-size="14" font-weight="bold" lengthAdjust="spacing" textLength="70" x="17" y="125.8398">&#31995;&#32113;&#31649;&#29702;&#21729;</text></g><!--entity ProductCatalogReadModel--><g id="elem_ProductCatalogReadModel"><rect fill="#32CD32" height="36.4883" rx="12.5" ry="12.5" style="stroke:#000000;stroke-width:0.5;" width="76" x="158" y="173.3047"/><text fill="#000000" font-family="sans-serif" font-size="14" font-weight="bold" lengthAdjust="spacing" textLength="56" x="168" y="196.8398">&#29986;&#21697;&#30446;&#37636;</text></g><!--entity OrderSummaryReadModel--><g id="elem_OrderSummaryReadModel"><rect fill="#32CD32" height="36.4883" rx="12.5" ry="12.5" style="stroke:#000000;stroke-width:0.5;" width="76" x="795" y="174.3047"/><text fill="#000000" font-family="sans-serif" font-size="14" font-weight="bold" lengthAdjust="spacing" textLength="56" x="805" y="197.8398">&#35330;&#21934;&#25688;&#35201;</text></g><!--entity InventoryStatusReadModel--><g id="elem_InventoryStatusReadModel"><rect fill="#32CD32" height="36.4883" rx="12.5" ry="12.5" style="stroke:#000000;stroke-width:0.5;" width="76" x="1262" y="600.3047"/><text fill="#000000" font-family="sans-serif" font-size="14" font-weight="bold" lengthAdjust="spacing" textLength="56" x="1272" y="623.8398">&#24235;&#23384;&#29376;&#24907;</text></g><!--entity PaymentStatusReadModel--><g id="elem_PaymentStatusReadModel"><rect fill="#32CD32" height="36.4883" rx="12.5" ry="12.5" style="stroke:#000000;stroke-width:0.5;" width="76" x="1768" y="572.3047"/><text fill="#000000" font-family="sans-serif" font-size="14" font-weight="bold" lengthAdjust="spacing" textLength="56" x="1778" y="595.8398">&#25903;&#20184;&#29376;&#24907;</text></g><!--entity CreateOrderCommand--><g id="elem_CreateOrderCommand"><rect fill="#1E90FF" height="36.4883" rx="12.5" ry="12.5" style="stroke:#000000;stroke-width:0.5;" width="76" x="370" y="173.3047"/><text fill="#000000" font-family="sans-serif" font-size="14" font-weight="bold" lengthAdjust="spacing" textLength="56" x="380" y="196.8398">&#24314;&#31435;&#35330;&#21934;</text></g><!--entity AddOrderItemCommand--><g id="elem_AddOrderItemCommand"><rect fill="#1E90FF" height="36.4883" rx="12.5" ry="12.5" style="stroke:#000000;stroke-width:0.5;" width="104" x="932" y="217.3047"/><text fill="#000000" font-family="sans-serif" font-size="14" font-weight="bold" lengthAdjust="spacing" textLength="84" x="942" y="240.8398">&#28155;&#21152;&#35330;&#21934;&#38917;&#30446;</text></g><!--entity SubmitOrderCommand--><g id="elem_SubmitOrderCommand"><rect fill="#1E90FF" height="36.4883" rx="12.5" ry="12.5" style="stroke:#000000;stroke-width:0.5;" width="76" x="264" y="244.3047"/><text fill="#000000" font-family="sans-serif" font-size="14" font-weight="bold" lengthAdjust="spacing" textLength="56" x="274" y="267.8398">&#25552;&#20132;&#35330;&#21934;</text></g><!--entity CheckInventoryCommand--><g id="elem_CheckInventoryCommand"><rect fill="#1E90FF" height="36.4883" rx="12.5" ry="12.5" style="stroke:#000000;stroke-width:0.5;" width="76" x="795" y="434.3047"/><text fill="#000000" font-family="sans-serif" font-size="14" font-weight="bold" lengthAdjust="spacing" textLength="56" x="805" y="457.8398">&#27298;&#26597;&#24235;&#23384;</text></g><!--entity ReserveInventoryCommand--><g id="elem_ReserveInventoryCommand"><rect fill="#1E90FF" height="36.4883" rx="12.5" ry="12.5" style="stroke:#000000;stroke-width:0.5;" width="76" x="1413" y="415.3047"/><text fill="#000000" font-family="sans-serif" font-size="14" font-weight="bold" lengthAdjust="spacing" textLength="56" x="1423" y="438.8398">&#38928;&#30041;&#24235;&#23384;</text></g><!--entity ProcessPaymentCommand--><g id="elem_ProcessPaymentCommand"><rect fill="#1E90FF" height="36.4883" rx="12.5" ry="12.5" style="stroke:#000000;stroke-width:0.5;" width="76" x="1262" y="529.3047"/><text fill="#000000" font-family="sans-serif" font-size="14" font-weight="bold" lengthAdjust="spacing" textLength="56" x="1272" y="552.8398">&#34389;&#29702;&#25903;&#20184;</text></g><!--entity ConfirmOrderCommand--><g id="elem_ConfirmOrderCommand"><rect fill="#1E90FF" height="36.4883" rx="12.5" ry="12.5" style="stroke:#000000;stroke-width:0.5;" width="76" x="1919" y="466.3047"/><text fill="#000000" font-family="sans-serif" font-size="14" font-weight="bold" lengthAdjust="spacing" textLength="56" x="1929" y="489.8398">&#30906;&#35469;&#35330;&#21934;</text></g><!--entity CancelOrderCommand--><g id="elem_CancelOrderCommand"><rect fill="#1E90FF" height="36.4883" rx="12.5" ry="12.5" style="stroke:#000000;stroke-width:0.5;" width="76" x="370" y="315.3047"/><text fill="#000000" font-family="sans-serif" font-size="14" font-weight="bold" lengthAdjust="spacing" textLength="56" x="380" y="338.8398">&#21462;&#28040;&#35330;&#21934;</text></g><!--entity OrderAggregate--><g id="elem_OrderAggregate"><rect fill="#FFFF00" height="36.4883" rx="12.5" ry="12.5" style="stroke:#000000;stroke-width:0.5;" width="48" x="507" y="280.3047"/><text fill="#000000" font-family="sans-serif" font-size="14" font-weight="bold" lengthAdjust="spacing" textLength="28" x="517" y="303.8398">&#35330;&#21934;</text></g><!--entity InventoryAggregate--><g id="elem_InventoryAggregate"><rect fill="#FFFF00" height="36.4883" rx="12.5" ry="12.5" style="stroke:#000000;stroke-width:0.5;" width="48" x="960" y="442.3047"/><text fill="#000000" font-family="sans-serif" font-size="14" font-weight="bold" lengthAdjust="spacing" textLength="28" x="970" y="465.8398">&#24235;&#23384;</text></g><!--entity PaymentAggregate--><g id="elem_PaymentAggregate"><rect fill="#FFFF00" height="36.4883" rx="12.5" ry="12.5" style="stroke:#000000;stroke-width:0.5;" width="48" x="1427" y="529.3047"/><text fill="#000000" font-family="sans-serif" font-size="14" font-weight="bold" lengthAdjust="spacing" textLength="28" x="1437" y="552.8398">&#25903;&#20184;</text></g><!--entity OrderCreatedEvent--><g id="elem_OrderCreatedEvent"><rect fill="#FFA500" height="36.4883" rx="12.5" ry="12.5" style="stroke:#000000;stroke-width:0.5;" width="90" x="630" y="174.3047"/><text fill="#000000" font-family="sans-serif" font-size="14" font-weight="bold" lengthAdjust="spacing" textLength="70" x="640" y="197.8398">&#35330;&#21934;&#24050;&#24314;&#31435;</text></g><!--entity OrderItemAddedEvent--><g id="elem_OrderItemAddedEvent"><rect fill="#FFA500" height="36.4883" rx="12.5" ry="12.5" style="stroke:#000000;stroke-width:0.5;" width="118" x="616" y="742.3047"/><text fill="#000000" font-family="sans-serif" font-size="14" font-weight="bold" lengthAdjust="spacing" textLength="98" x="626" y="765.8398">&#35330;&#21934;&#38917;&#30446;&#24050;&#28155;&#21152;</text></g><!--entity OrderSubmittedEvent--><g id="elem_OrderSubmittedEvent"><rect fill="#FFA500" height="36.4883" rx="12.5" ry="12.5" style="stroke:#000000;stroke-width:0.5;" width="90" x="630" y="408.3047"/><text fill="#000000" font-family="sans-serif" font-size="14" font-weight="bold" lengthAdjust="spacing" textLength="70" x="640" y="431.8398">&#35330;&#21934;&#24050;&#25552;&#20132;</text></g><!--entity InventoryCheckedEvent--><g id="elem_InventoryCheckedEvent"><rect fill="#FFA500" height="36.4883" rx="12.5" ry="12.5" style="stroke:#000000;stroke-width:0.5;" width="90" x="1097" y="458.3047"/><text fill="#000000" font-family="sans-serif" font-size="14" font-weight="bold" lengthAdjust="spacing" textLength="70" x="1107" y="481.8398">&#24235;&#23384;&#24050;&#27298;&#26597;</text></g><!--entity InventoryReservedEvent--><g id="elem_InventoryReservedEvent"><rect fill="#FFA500" height="36.4883" rx="12.5" ry="12.5" style="stroke:#000000;stroke-width:0.5;" width="90" x="1097" y="529.3047"/><text fill="#000000" font-family="sans-serif" font-size="14" font-weight="bold" lengthAdjust="spacing" textLength="70" x="1107" y="552.8398">&#24235;&#23384;&#24050;&#38928;&#30041;</text></g><!--entity PaymentRequestedEvent--><g id="elem_PaymentRequestedEvent"><rect fill="#FFA500" height="36.4883" rx="12.5" ry="12.5" style="stroke:#000000;stroke-width:0.5;" width="90" x="1603" y="458.3047"/><text fill="#000000" font-family="sans-serif" font-size="14" font-weight="bold" lengthAdjust="spacing" textLength="70" x="1613" y="481.8398">&#25903;&#20184;&#24050;&#35531;&#27714;</text></g><!--entity PaymentCompletedEvent--><g id="elem_PaymentCompletedEvent"><rect fill="#FFA500" height="36.4883" rx="12.5" ry="12.5" style="stroke:#000000;stroke-width:0.5;" width="90" x="1603" y="600.3047"/><text fill="#000000" font-family="sans-serif" font-size="14" font-weight="bold" lengthAdjust="spacing" textLength="70" x="1613" y="623.8398">&#25903;&#20184;&#24050;&#23436;&#25104;</text></g><!--entity OrderConfirmedEvent--><g id="elem_OrderConfirmedEvent"><rect fill="#FFA500" height="36.4883" rx="12.5" ry="12.5" style="stroke:#000000;stroke-width:0.5;" width="90" x="630" y="103.3047"/><text fill="#000000" font-family="sans-serif" font-size="14" font-weight="bold" lengthAdjust="spacing" textLength="70" x="640" y="126.8398">&#35330;&#21934;&#24050;&#30906;&#35469;</text></g><!--entity OrderCancelledEvent--><g id="elem_OrderCancelledEvent"><rect fill="#FFA500" height="36.4883" rx="12.5" ry="12.5" style="stroke:#000000;stroke-width:0.5;" width="90" x="1603" y="529.3047"/><text fill="#000000" font-family="sans-serif" font-size="14" font-weight="bold" lengthAdjust="spacing" textLength="70" x="1613" y="552.8398">&#35330;&#21934;&#24050;&#21462;&#28040;</text></g><!--entity InventoryReservationPolicy--><g id="elem_InventoryReservationPolicy"><rect fill="#800080" height="36.4883" rx="12.5" ry="12.5" style="stroke:#000000;stroke-width:0.5;" width="104" x="1248" y="458.3047"/><text fill="#000000" font-family="sans-serif" font-size="14" font-weight="bold" lengthAdjust="spacing" textLength="84" x="1258" y="481.8398">&#24235;&#23384;&#38928;&#30041;&#31574;&#30053;</text></g><!--entity PaymentProcessingPolicy--><g id="elem_PaymentProcessingPolicy"><rect fill="#800080" height="36.4883" rx="12.5" ry="12.5" style="stroke:#000000;stroke-width:0.5;" width="104" x="1754" y="643.3047"/><text fill="#000000" font-family="sans-serif" font-size="14" font-weight="bold" lengthAdjust="spacing" textLength="84" x="1764" y="666.8398">&#25903;&#20184;&#34389;&#29702;&#31574;&#30053;</text></g><!--entity OrderCancellationPolicy--><g id="elem_OrderCancellationPolicy"><rect fill="#800080" height="36.4883" rx="12.5" ry="12.5" style="stroke:#000000;stroke-width:0.5;" width="104" x="1754" y="501.3047"/><text fill="#000000" font-family="sans-serif" font-size="14" font-weight="bold" lengthAdjust="spacing" textLength="84" x="1764" y="524.8398">&#35330;&#21934;&#21462;&#28040;&#31574;&#30053;</text></g><!--link Customer to ProductCatalogReadModel--><g id="link_Customer_ProductCatalogReadModel"><path d="M76.45,191.5547 C96.7,191.5547 126.49,191.5547 151.15,191.5547 " fill="none" id="Customer-to-ProductCatalogReadModel" style="stroke:#181818;stroke-width:1.0;"/><polygon fill="#181818" points="156.11,191.5547,147.11,187.5547,151.11,191.5547,147.11,195.5547,156.11,191.5547" style="stroke:#181818;stroke-width:1.0;"/></g><!--link ProductCatalogReadModel to CreateOrderCommand--><g id="link_ProductCatalogReadModel_CreateOrderCommand"><path d="M234.06,191.5547 C270.12,191.5547 324.93,191.5547 363.14,191.5547 " fill="none" id="ProductCatalogReadModel-to-CreateOrderCommand" style="stroke:#181818;stroke-width:1.0;"/><polygon fill="#181818" points="368.09,191.5547,359.09,187.5547,363.09,191.5547,359.09,195.5547,368.09,191.5547" style="stroke:#181818;stroke-width:1.0;"/></g><!--link CreateOrderCommand to OrderAggregate--><g id="link_CreateOrderCommand_OrderAggregate"><path d="M441.13,210.2047 C452.94,217.7247 466.08,226.8947 477,236.5547 C490,248.0447 502.69,262.7347 512.4,274.9247 " fill="none" id="CreateOrderCommand-to-OrderAggregate" style="stroke:#181818;stroke-width:1.0;"/><polygon fill="#181818" points="515.43,278.7947,513.0164,269.2461,512.3415,274.8626,506.7251,274.1877,515.43,278.7947" style="stroke:#181818;stroke-width:1.0;"/></g><!--link OrderAggregate to OrderCreatedEvent--><g id="link_OrderAggregate_OrderCreatedEvent"><path d="M545.03,280.0447 C554.9,266.9747 569.39,249.7047 585,237.5547 C596.83,228.3347 610.85,220.2047 624.21,213.4747 " fill="none" id="OrderAggregate-to-OrderCreatedEvent" style="stroke:#181818;stroke-width:1.0;"/><polygon fill="#181818" points="628.54,211.3447,618.6982,211.7164,624.0508,213.5464,622.2209,218.8991,628.54,211.3447" style="stroke:#181818;stroke-width:1.0;"/></g><!--link OrderCreatedEvent to OrderSummaryReadModel--><g id="link_OrderCreatedEvent_OrderSummaryReadModel"><path d="M720.29,192.5547 C741.59,192.5547 767.06,192.5547 788.29,192.5547 " fill="none" id="OrderCreatedEvent-to-OrderSummaryReadModel" style="stroke:#181818;stroke-width:1.0;"/><polygon fill="#181818" points="793.22,192.5547,784.22,188.5547,788.22,192.5547,784.22,196.5547,793.22,192.5547" style="stroke:#181818;stroke-width:1.0;"/></g><!--link Customer to OrderSummaryReadModel--><g id="link_Customer_OrderSummaryReadModel"><path d="M76.39,174.0247 C83.21,168.6247 90.56,162.5247 97,156.5547 C144.02,112.8947 130.84,50.5547 195,50.5547 C195,50.5547 195,50.5547 676,50.5547 C745.12,50.5547 797.11,127.7147 819.66,168.2847 " fill="none" id="Customer-to-OrderSummaryReadModel" style="stroke:#181818;stroke-width:1.0;"/><polygon fill="#181818" points="822.05,172.6547,821.2631,162.8373,819.6608,168.2625,814.2356,166.6601,822.05,172.6547" style="stroke:#181818;stroke-width:1.0;"/></g><!--link OrderSummaryReadModel to AddOrderItemCommand--><g id="link_OrderSummaryReadModel_AddOrderItemCommand"><path d="M871.21,203.2947 C887.63,208.0247 907.31,213.7047 925.54,218.9647 " fill="none" id="OrderSummaryReadModel-to-AddOrderItemCommand" style="stroke:#181818;stroke-width:1.0;"/><polygon fill="#181818" points="930.21,220.3147,922.6676,213.9813,925.4051,218.9317,920.4547,221.6692,930.21,220.3147" style="stroke:#181818;stroke-width:1.0;"/></g><!--link AddOrderItemCommand to OrderAggregate--><g id="link_AddOrderItemCommand_OrderAggregate"><path d="M931.83,242.6947 C836.95,255.9547 636.54,283.9447 561.34,294.4547 " fill="none" id="AddOrderItemCommand-to-OrderAggregate" style="stroke:#181818;stroke-width:1.0;"/><polygon fill="#181818" points="556.8,295.0847,566.2643,297.81,561.7526,294.3976,565.165,289.8859,556.8,295.0847" style="stroke:#181818;stroke-width:1.0;"/></g><!--link OrderAggregate to OrderItemAddedEvent--><g id="link_OrderAggregate_OrderItemAddedEvent"><path d="M532.1,317.0747 C532.84,389.1347 538.71,649.9647 585,715.5547 C591.8,725.1847 601.29,732.8847 611.54,738.9847 " fill="none" id="OrderAggregate-to-OrderItemAddedEvent" style="stroke:#181818;stroke-width:1.0;"/><polygon fill="#181818" points="615.65,741.2947,609.7755,733.3896,611.2948,738.8386,605.8458,740.358,615.65,741.2947" style="stroke:#181818;stroke-width:1.0;"/></g><!--link Customer to SubmitOrderCommand--><g id="link_Customer_SubmitOrderCommand"><path d="M76.16,200.1647 C97.31,207.8747 129.52,219.2047 158,227.5547 C191.06,237.2447 228.96,246.4347 257.43,252.9647 " fill="none" id="Customer-to-SubmitOrderCommand" style="stroke:#181818;stroke-width:1.0;"/><polygon fill="#181818" points="262.24,254.0647,254.3585,248.1586,257.3659,252.9498,252.5747,255.9572,262.24,254.0647" style="stroke:#181818;stroke-width:1.0;"/></g><!--link SubmitOrderCommand to OrderAggregate--><g id="link_SubmitOrderCommand_OrderAggregate"><path d="M340.44,267.2447 C375.75,271.8447 430.11,279.3247 477,287.5547 C484.59,288.8847 492.76,290.4947 500.36,292.0647 " fill="none" id="SubmitOrderCommand-to-OrderAggregate" style="stroke:#181818;stroke-width:1.0;"/><polygon fill="#181818" points="505.1,293.0547,497.1137,287.2911,500.2066,292.0275,495.4702,295.1205,505.1,293.0547" style="stroke:#181818;stroke-width:1.0;"/></g><!--link OrderAggregate to OrderSubmittedEvent--><g id="link_OrderAggregate_OrderSubmittedEvent"><path d="M546.07,317.1447 C556.22,329.9947 570.61,347.1247 585,360.5547 C602.08,376.4847 622.98,392.1547 640.24,404.2247 " fill="none" id="OrderAggregate-to-OrderSubmittedEvent" style="stroke:#181818;stroke-width:1.0;"/><polygon fill="#181818" points="644.22,406.9847,639.1032,398.5693,640.1111,404.1357,634.5448,405.1436,644.22,406.9847" style="stroke:#181818;stroke-width:1.0;"/></g><!--link OrderSubmittedEvent to CheckInventoryCommand--><g id="link_OrderSubmittedEvent_CheckInventoryCommand"><path d="M720.29,433.9347 C741.68,437.4947 767.27,441.7647 788.56,445.3147 " fill="none" id="OrderSubmittedEvent-to-CheckInventoryCommand" style="stroke:#181818;stroke-width:1.0;"/><polygon fill="#181818" points="793.24,446.0947,785.0124,440.6811,788.3069,445.2796,783.7083,448.5741,793.24,446.0947" style="stroke:#181818;stroke-width:1.0;"/></g><!--link CheckInventoryCommand to InventoryAggregate--><g id="link_CheckInventoryCommand_InventoryAggregate"><path d="M871.21,454.5447 C896.58,455.9147 929.73,457.6947 953.32,458.9547 " fill="none" id="CheckInventoryCommand-to-InventoryAggregate" style="stroke:#181818;stroke-width:1.0;"/><polygon fill="#181818" points="958.2,459.2147,949.4308,454.7314,953.2074,458.9429,948.9959,462.7195,958.2,459.2147" style="stroke:#181818;stroke-width:1.0;"/></g><!--link InventoryAggregate to InventoryCheckedEvent--><g id="link_InventoryAggregate_InventoryCheckedEvent"><path d="M1008.35,462.9447 C1030.01,465.1647 1062.95,468.5447 1090.59,471.3847 " fill="none" id="InventoryAggregate-to-InventoryCheckedEvent" style="stroke:#181818;stroke-width:1.0;"/><polygon fill="#181818" points="1095.25,471.8547,1086.7094,466.9498,1090.2765,471.3402,1085.8862,474.9074,1095.25,471.8547" style="stroke:#181818;stroke-width:1.0;"/></g><!--link InventoryCheckedEvent to InventoryReservationPolicy--><g id="link_InventoryCheckedEvent_InventoryReservationPolicy"><path d="M1187.29,476.5547 C1204.05,476.5547 1223.39,476.5547 1241.22,476.5547 " fill="none" id="InventoryCheckedEvent-to-InventoryReservationPolicy" style="stroke:#181818;stroke-width:1.0;"/><polygon fill="#181818" points="1246.2,476.5547,1237.2,472.5547,1241.2,476.5547,1237.2,480.5547,1246.2,476.5547" style="stroke:#181818;stroke-width:1.0;"/></g><!--link InventoryReservationPolicy to ReserveInventoryCommand--><g id="link_InventoryReservationPolicy_ReserveInventoryCommand"><path d="M1352.28,461.7547 C1369.97,456.6447 1389.61,450.9747 1406.61,446.0747 " fill="none" id="InventoryReservationPolicy-to-ReserveInventoryCommand" style="stroke:#181818;stroke-width:1.0;"/><polygon fill="#181818" points="1411.29,444.7247,1401.5347,443.3702,1406.4851,446.1077,1403.7476,451.0581,1411.29,444.7247" style="stroke:#181818;stroke-width:1.0;"/></g><!--link ReserveInventoryCommand to InventoryAggregate--><g id="link_ReserveInventoryCommand_InventoryAggregate"><path d="M1412.64,428.7547 C1402.7,427.8947 1391.95,427.3247 1382,427.5547 C1255.23,430.4447 1223.61,433.5747 1097,440.5547 C1083.21,441.3047 1079.67,440.6047 1066,442.5547 C1048.78,445.0047 1029.78,449.1447 1014.52,452.8447 " fill="none" id="ReserveInventoryCommand-to-InventoryAggregate" style="stroke:#181818;stroke-width:1.0;"/><polygon fill="#181818" points="1009.69,454.0247,1019.3819,455.7762,1014.5474,452.8389,1017.4846,448.0044,1009.69,454.0247" style="stroke:#181818;stroke-width:1.0;"/></g><!--link InventoryAggregate to InventoryReservedEvent--><g id="link_InventoryAggregate_InventoryReservedEvent"><path d="M1008.35,473.5747 C1033.16,487.4047 1072.78,509.5047 1102.27,525.9547 " fill="none" id="InventoryAggregate-to-InventoryReservedEvent" style="stroke:#181818;stroke-width:1.0;"/><polygon fill="#181818" points="1106.33,528.2147,1100.4248,520.3325,1101.9653,525.7756,1096.5222,527.3161,1106.33,528.2147" style="stroke:#181818;stroke-width:1.0;"/></g><!--link InventoryReservedEvent to InventoryStatusReadModel--><g id="link_InventoryReservedEvent_InventoryStatusReadModel"><path d="M1183.99,566.2047 C1206.11,576.2747 1233.41,588.6947 1255.86,598.9147 " fill="none" id="InventoryReservedEvent-to-InventoryStatusReadModel" style="stroke:#181818;stroke-width:1.0;"/><polygon fill="#181818" points="1260.38,600.9747,1253.8419,593.609,1255.8282,598.9057,1250.5315,600.8919,1260.38,600.9747" style="stroke:#181818;stroke-width:1.0;"/></g><!--link InventoryReservedEvent to ProcessPaymentCommand--><g id="link_InventoryReservedEvent_ProcessPaymentCommand"><path d="M1187.29,547.5547 C1208.59,547.5547 1234.06,547.5547 1255.29,547.5547 " fill="none" id="InventoryReservedEvent-to-ProcessPaymentCommand" style="stroke:#181818;stroke-width:1.0;"/><polygon fill="#181818" points="1260.22,547.5547,1251.22,543.5547,1255.22,547.5547,1251.22,551.5547,1260.22,547.5547" style="stroke:#181818;stroke-width:1.0;"/></g><!--link ProcessPaymentCommand to PaymentAggregate--><g id="link_ProcessPaymentCommand_PaymentAggregate"><path d="M1338.21,547.5547 C1363.58,547.5547 1396.73,547.5547 1420.32,547.5547 " fill="none" id="ProcessPaymentCommand-to-PaymentAggregate" style="stroke:#181818;stroke-width:1.0;"/><polygon fill="#181818" points="1425.2,547.5547,1416.2,543.5547,1420.2,547.5547,1416.2,551.5547,1425.2,547.5547" style="stroke:#181818;stroke-width:1.0;"/></g><!--link PaymentAggregate to PaymentRequestedEvent--><g id="link_PaymentAggregate_PaymentRequestedEvent"><path d="M1475.23,538.8047 C1488.11,533.9747 1504.43,527.8847 1519,522.5547 C1544.55,513.1947 1573.04,502.9347 1596.63,494.4947 " fill="none" id="PaymentAggregate-to-PaymentRequestedEvent" style="stroke:#181818;stroke-width:1.0;"/><polygon fill="#181818" points="1601.1,492.8947,1591.278,492.168,1596.3936,494.5827,1593.9788,499.6983,1601.1,492.8947" style="stroke:#181818;stroke-width:1.0;"/></g><!--link PaymentAggregate to PaymentCompletedEvent--><g id="link_PaymentAggregate_PaymentCompletedEvent"><path d="M1475.23,556.2947 C1488.11,561.1247 1504.43,567.2147 1519,572.5547 C1544.55,581.9047 1573.04,592.1647 1596.63,600.6047 " fill="none" id="PaymentAggregate-to-PaymentCompletedEvent" style="stroke:#181818;stroke-width:1.0;"/><polygon fill="#181818" points="1601.1,602.2047,1593.9723,595.408,1596.3919,600.5212,1591.2787,602.9409,1601.1,602.2047" style="stroke:#181818;stroke-width:1.0;"/><text fill="#000000" font-family="sans-serif" font-size="13" lengthAdjust="spacing" textLength="52" x="1520" y="569.123">&#25903;&#20184;&#25104;&#21151;</text></g><!--link PaymentAggregate to OrderCancelledEvent--><g id="link_PaymentAggregate_OrderCancelledEvent"><path d="M1475.13,547.5547 C1504.92,547.5547 1557.49,547.5547 1596.67,547.5547 " fill="none" id="PaymentAggregate-to-OrderCancelledEvent" style="stroke:#181818;stroke-width:1.0;"/><polygon fill="#181818" points="1601.33,547.5547,1592.33,543.5547,1596.33,547.5547,1592.33,551.5547,1601.33,547.5547" style="stroke:#181818;stroke-width:1.0;"/><text fill="#000000" font-family="sans-serif" font-size="13" lengthAdjust="spacing" textLength="52" x="1520" y="544.123">&#25903;&#20184;&#22833;&#36133;</text></g><!--link PaymentCompletedEvent to PaymentStatusReadModel--><g id="link_PaymentCompletedEvent_PaymentStatusReadModel"><path d="M1693.29,610.6047 C1714.68,606.7647 1740.27,602.1647 1761.56,598.3447 " fill="none" id="PaymentCompletedEvent-to-PaymentStatusReadModel" style="stroke:#181818;stroke-width:1.0;"/><polygon fill="#181818" points="1766.24,597.5047,1756.6744,595.1596,1761.3188,598.3891,1758.0894,603.0335,1766.24,597.5047" style="stroke:#181818;stroke-width:1.0;"/></g><!--link PaymentCompletedEvent to PaymentProcessingPolicy--><g id="link_PaymentCompletedEvent_PaymentProcessingPolicy"><path d="M1693.29,630.7547 C1710.2,635.4247 1729.73,640.8047 1747.69,645.7547 " fill="none" id="PaymentCompletedEvent-to-PaymentProcessingPolicy" style="stroke:#181818;stroke-width:1.0;"/><polygon fill="#181818" points="1752.25,647.0147,1744.6336,640.7704,1747.4292,645.6882,1742.5113,648.4838,1752.25,647.0147" style="stroke:#181818;stroke-width:1.0;"/></g><!--link PaymentProcessingPolicy to ConfirmOrderCommand--><g id="link_PaymentProcessingPolicy_ConfirmOrderCommand"><path d="M1838.08,642.8947 C1845.02,638.0247 1852.07,632.4647 1858,626.5547 C1894.54,590.1047 1926.28,538.4047 1943.13,508.4847 " fill="none" id="PaymentProcessingPolicy-to-ConfirmOrderCommand" style="stroke:#181818;stroke-width:1.0;"/><polygon fill="#181818" points="1945.37,504.4847,1937.4878,510.3899,1942.9309,508.8494,1944.4714,514.2925,1945.37,504.4847" style="stroke:#181818;stroke-width:1.0;"/></g><!--link ConfirmOrderCommand to OrderAggregate--><g id="link_ConfirmOrderCommand_OrderAggregate"><path d="M1948.13,465.8547 C1929.81,425.6447 1880.23,334.5547 1807,334.5547 C674,334.5547 674,334.5547 674,334.5547 C633.87,334.5547 589.27,320.8747 560.95,310.3847 " fill="none" id="ConfirmOrderCommand-to-OrderAggregate" style="stroke:#181818;stroke-width:1.0;"/><polygon fill="#181818" points="556.58,308.7347,563.5955,315.6472,561.2599,310.495,566.412,308.1594,556.58,308.7347" style="stroke:#181818;stroke-width:1.0;"/></g><!--link OrderAggregate to OrderConfirmedEvent--><g id="link_OrderAggregate_OrderConfirmedEvent"><path d="M539.39,280.0547 C551.74,250.9647 578.9,193.9847 616,156.5547 C620.63,151.8847 626,147.5847 631.57,143.7147 " fill="none" id="OrderAggregate-to-OrderConfirmedEvent" style="stroke:#181818;stroke-width:1.0;"/><polygon fill="#181818" points="635.46,141.1247,625.7501,142.7734,631.2954,143.8916,630.1772,149.4368,635.46,141.1247" style="stroke:#181818;stroke-width:1.0;"/></g><!--link CancelOrderCommand to OrderAggregate--><g id="link_CancelOrderCommand_OrderAggregate"><path d="M446.29,322.7647 C463.86,317.6847 484.49,311.7147 500.88,306.9747 " fill="none" id="CancelOrderCommand-to-OrderAggregate" style="stroke:#181818;stroke-width:1.0;"/><polygon fill="#181818" points="505.26,305.7047,495.5,304.3847,500.46,307.1047,497.74,312.0647,505.26,305.7047" style="stroke:#181818;stroke-width:1.0;"/></g><!--link OrderAggregate to OrderCancelledEvent--><g id="link_OrderAggregate_OrderCancelledEvent"><path d="M534.57,317.1447 C545.81,394.8547 593.75,689.5547 674,689.5547 C674,689.5547 674,689.5547 1452,689.5547 C1462.02,689.5547 1566.09,610.1547 1617.95,570.0947 " fill="none" id="OrderAggregate-to-OrderCancelledEvent" style="stroke:#181818;stroke-width:1.0;"/><polygon fill="#181818" points="1621.91,567.0447,1612.3424,569.3816,1617.9533,570.1015,1617.2333,575.7124,1621.91,567.0447" style="stroke:#181818;stroke-width:1.0;"/></g><!--link OrderCancelledEvent to OrderCancellationPolicy--><g id="link_OrderCancelledEvent_OrderCancellationPolicy"><path d="M1693.29,539.6047 C1710.2,536.5647 1729.73,533.0647 1747.69,529.8347 " fill="none" id="OrderCancelledEvent-to-OrderCancellationPolicy" style="stroke:#181818;stroke-width:1.0;"/><polygon fill="#181818" points="1752.22,529.0247,1742.6532,526.6845,1747.2993,529.9116,1744.0722,534.5576,1752.22,529.0247" style="stroke:#181818;stroke-width:1.0;"/></g><rect fill="#DDDDDD" height="129.418" id="_legend" rx="7.5" ry="7.5" style="stroke:#000000;stroke-width:1.0;" width="330" x="1645" y="795.793"/><text fill="#000000" font-family="sans-serif" font-size="14" font-weight="bold" lengthAdjust="spacing" textLength="56" x="1655" y="816.3281">&#20803;&#32032;&#39006;&#22411;</text><text fill="#000000" font-family="sans-serif" font-size="14" font-weight="bold" lengthAdjust="spacing" textLength="28" x="1721" y="816.3281">&#38991;&#33394;</text><text fill="#000000" font-family="sans-serif" font-size="14" font-weight="bold" lengthAdjust="spacing" textLength="28" x="1771" y="816.3281">&#35498;&#26126;</text><text fill="#000000" font-family="sans-serif" font-size="14" lengthAdjust="spacing" textLength="4" x="1650" y="832.8164">&#160;</text><text fill="#000000" filter="url(#b1ncakp7x7j3wv0)" font-family="sans-serif" font-size="14" lengthAdjust="spacing" textLength="12" x="1654" y="832.8164">&#160;&#160;&#160;</text><text fill="#000000" font-family="sans-serif" font-size="14" lengthAdjust="spacing" textLength="4" x="1666" y="832.8164">&#160;</text><text fill="#000000" font-family="sans-serif" font-size="14" lengthAdjust="spacing" textLength="42" x="1720" y="832.8164">&#21443;&#33287;&#32773;</text><text fill="#000000" font-family="sans-serif" font-size="14" lengthAdjust="spacing" textLength="126" x="1770" y="832.8164">&#22519;&#34892;&#21629;&#20196;&#30340;&#20154;&#25110;&#31995;&#32113;</text><text fill="#000000" font-family="sans-serif" font-size="14" lengthAdjust="spacing" textLength="4" x="1650" y="849.3047">&#160;</text><text fill="#000000" filter="url(#b1ncakp7x7j3wv1)" font-family="sans-serif" font-size="14" lengthAdjust="spacing" textLength="12" x="1654" y="849.3047">&#160;&#160;&#160;</text><text fill="#000000" font-family="sans-serif" font-size="14" lengthAdjust="spacing" textLength="4" x="1666" y="849.3047">&#160;</text><text fill="#000000" font-family="sans-serif" font-size="14" lengthAdjust="spacing" textLength="42" x="1720" y="849.3047">&#35712;&#27169;&#22411;</text><text fill="#000000" font-family="sans-serif" font-size="14" lengthAdjust="spacing" textLength="140" x="1770" y="849.3047">&#29992;&#25142;&#26597;&#30475;&#30340;&#20449;&#24687;&#25110;&#35222;&#22294;</text><text fill="#000000" font-family="sans-serif" font-size="14" lengthAdjust="spacing" textLength="4" x="1650" y="865.793">&#160;</text><text fill="#000000" filter="url(#b1ncakp7x7j3wv2)" font-family="sans-serif" font-size="14" lengthAdjust="spacing" textLength="12" x="1654" y="865.793">&#160;&#160;&#160;</text><text fill="#000000" font-family="sans-serif" font-size="14" lengthAdjust="spacing" textLength="4" x="1666" y="865.793">&#160;</text><text fill="#000000" font-family="sans-serif" font-size="14" lengthAdjust="spacing" textLength="28" x="1720" y="865.793">&#21629;&#20196;</text><text fill="#000000" font-family="sans-serif" font-size="14" lengthAdjust="spacing" textLength="140" x="1770" y="865.793">&#35320;&#30332;&#20107;&#20214;&#30340;&#34892;&#28858;&#25110;&#24847;&#22294;</text><text fill="#000000" font-family="sans-serif" font-size="14" lengthAdjust="spacing" textLength="4" x="1650" y="882.2813">&#160;</text><text fill="#000000" filter="url(#b1ncakp7x7j3wv3)" font-family="sans-serif" font-size="14" lengthAdjust="spacing" textLength="12" x="1654" y="882.2813">&#160;&#160;&#160;</text><text fill="#000000" font-family="sans-serif" font-size="14" lengthAdjust="spacing" textLength="4" x="1666" y="882.2813">&#160;</text><text fill="#000000" font-family="sans-serif" font-size="14" lengthAdjust="spacing" textLength="28" x="1720" y="882.2813">&#32858;&#21512;</text><text fill="#000000" font-family="sans-serif" font-size="14" lengthAdjust="spacing" textLength="126" x="1770" y="882.2813">&#30906;&#20445;&#26989;&#21209;&#35215;&#21063;&#30340;&#23526;&#39636;</text><text fill="#000000" font-family="sans-serif" font-size="14" lengthAdjust="spacing" textLength="4" x="1650" y="898.7695">&#160;</text><text fill="#000000" filter="url(#b1ncakp7x7j3wv4)" font-family="sans-serif" font-size="14" lengthAdjust="spacing" textLength="12" x="1654" y="898.7695">&#160;&#160;&#160;</text><text fill="#000000" font-family="sans-serif" font-size="14" lengthAdjust="spacing" textLength="4" x="1666" y="898.7695">&#160;</text><text fill="#000000" font-family="sans-serif" font-size="14" lengthAdjust="spacing" textLength="28" x="1720" y="898.7695">&#20107;&#20214;</text><text fill="#000000" font-family="sans-serif" font-size="14" lengthAdjust="spacing" textLength="112" x="1770" y="898.7695">&#31995;&#32113;&#20013;&#30332;&#29983;&#30340;&#20107;&#24773;</text><text fill="#000000" font-family="sans-serif" font-size="14" lengthAdjust="spacing" textLength="4" x="1650" y="915.2578">&#160;</text><text fill="#000000" filter="url(#b1ncakp7x7j3wv5)" font-family="sans-serif" font-size="14" lengthAdjust="spacing" textLength="12" x="1654" y="915.2578">&#160;&#160;&#160;</text><text fill="#000000" font-family="sans-serif" font-size="14" lengthAdjust="spacing" textLength="4" x="1666" y="915.2578">&#160;</text><text fill="#000000" font-family="sans-serif" font-size="14" lengthAdjust="spacing" textLength="28" x="1720" y="915.2578">&#31574;&#30053;</text><text fill="#000000" font-family="sans-serif" font-size="14" lengthAdjust="spacing" textLength="196" x="1770" y="915.2578">&#30070;&#20107;&#20214;&#30332;&#29983;&#26178;&#25033;&#22519;&#34892;&#30340;&#26989;&#21209;&#35215;&#21063;</text><line style="stroke:#000000;stroke-width:1.0;" x1="1650" x2="1970" y1="802.793" y2="802.793"/><line style="stroke:#000000;stroke-width:1.0;" x1="1650" x2="1970" y1="819.2813" y2="819.2813"/><line style="stroke:#000000;stroke-width:1.0;" x1="1650" x2="1970" y1="835.7695" y2="835.7695"/><line style="stroke:#000000;stroke-width:1.0;" x1="1650" x2="1970" y1="852.2578" y2="852.2578"/><line style="stroke:#000000;stroke-width:1.0;" x1="1650" x2="1970" y1="868.7461" y2="868.7461"/><line style="stroke:#000000;stroke-width:1.0;" x1="1650" x2="1970" y1="885.2344" y2="885.2344"/><line style="stroke:#000000;stroke-width:1.0;" x1="1650" x2="1970" y1="901.7227" y2="901.7227"/><line style="stroke:#000000;stroke-width:1.0;" x1="1650" x2="1970" y1="918.2109" y2="918.2109"/><line style="stroke:#000000;stroke-width:1.0;" x1="1650" x2="1650" y1="802.793" y2="918.2109"/><line style="stroke:#000000;stroke-width:1.0;" x1="1716" x2="1716" y1="802.793" y2="918.2109"/><line style="stroke:#000000;stroke-width:1.0;" x1="1766" x2="1766" y1="802.793" y2="918.2109"/><line style="stroke:#000000;stroke-width:1.0;" x1="1970" x2="1970" y1="802.793" y2="918.2109"/><!--SRC=[dLVRJXj76BwVfrY5YrwXkaHHKvGYKH9BkQY2u0aMxyHPiTvDr-j8jAd4CPWimQI0nI45x09588n8ETLkmyjuPjTlqJaOCxCxDb2kblN__OTl_wC5NtgQvsYkcNxbQORfmfHdEZO0sL7JVgsxUaQZhtGxRK7j5w2Hlo4dPni3Zcj3L-jvn5xzuBW6T0SSot6r4KjFZRAtISVsXhqn0XnnB0FyAYhrJA-baCcPFqEj9z46nwN3_KbKh0H_rOApathLhzVE6-Lzl7wAFXMrRWsVJGJxFgfLyNwfiRw0AsS0VAMXmcJzSY4Sdm4tOJn0bJBEdp_GzAmsaCjwJeP4qfLCFlqsaH35kAMWKWeMtw6b4fFlDpActH8c1iBZ6Z68Ddq9kLn6InF1HgKnFyrWWwvZv5BUWExfbfCUWhhnesD0I-jws3Fmz66FYELHue-huTu4mxwWt0xdCXdT7Uk8HDL3TBGQ-EDuncV8v_ORQ7kEEpRiwLuksn6Cbu_hDH4yg8zb8FqGQYZbzkE_zTgEv46j6XpwF09Ehmjr3xxWsK4Yi0sjwvjdtoMIISdsHGszt-QmnlOCuQt9jS6GppsOwOGkBDQhEuBHuTn8nlHkDNfGnbkxd3FkwokO6crHrW7Ps5uCLjO4v13CGlSDl0isN5iXsSJ9liwC5CnccsntG0RbQdZmGUJMiL-QRkQsE56XYC_p8awtKz1ImcW-JwoZnNmy8MzIiJ-TTc6QV5PQ1icaN3C2AoqwEW94AZW7SN7Y5g_tk5leuZDFkXl_UCuPpwXrggB_aMnHp3C2vybt0wVPHZBlLWKKoZ9FB5AQU9riSteeb6MVp1DBmBk0UGBAu6OEjaTpeWawFFJnoQJ8-13yAGUptbt0g3AFyuiYcEJGQmjwT-6Bfx3mfNW6tmNAirY0iYIseb2IAS5HCLZPZVF6IUE_ggZJwTmRT2mpDQPrFKua4eyL3F3o5PGqIMXMiMcdssjeni824JI8uQXy827nqHPURUA5NLgYbJBwi8Bo6tJOiPz0QunrT_Ur6pQWtH2Yc7YZ1ehUJINb7W0YBQ4b8LOXYDTbIouws5YyV1wmC1kblqcTgi9KmzNJaiehnWbGZPXx12dt2kOw7qRCTPNJyTa45EFg7Yx8FGUe-X3xlghXnePuTOaK1_vZd0x3t-ORvMbI9TUUAoSYLHVlxK3HxYL9iRi1TS-Jv6DL2JeKB4MscSAWtNJ-dt58ZHQqwRyI8h92TS8ejm6MLxm1xqpJxO5_7VNcmBH41Yc8JLP1Icx-7KKZhRwtwHKP2EZzbXgfQjQzhMXEmjDTe5Okc8toToiWser1koxDAYE-He5MamrAbR2oSrqEYeNhFXrHcdOtDlX4kBOHNyxkOq8Y6gZ8ZygA1KRRmSQN-XSVM30DYMbs5PARxEtt6fgP2awt6wLDSkhG_nkbGZZtcJw51mTuTK5xI-Mq9oFa-kjjtaTzv9XxyZLzqqT-GeMfC3zBJZ7wl7KHbkRv0H6iJzUhLPmlydjBLiIl3LbHM1dd9nTv3fRtoIb7UbVmoQUAhafuufZe2lUAz2oKTF4bD-8KSu4g_VCoMFk7hvb44V4kcAHEuUb2J15VIoDEiRsPUbIkrgz-nxj7o5yBzmfeRfQeGyTxZSFbg1QwiiXQk7sgXL-vbqV4gM1vYt7auwaPMGLV4MGLVBMW3oldpN2O2hmsYMVdEF54dUWWKKg-Dl_cu3y0]--></g></svg>