<?xml version="1.0" encoding="us-ascii" standalone="no"?><svg xmlns="http://www.w3.org/2000/svg" xmlns:xlink="http://www.w3.org/1999/xlink" contentStyleType="text/css" height="1288px" preserveAspectRatio="none" style="width:1261px;height:1288px;background:#FFFFFF;" version="1.1" viewBox="0 0 1261 1288" width="1261px" zoomAndPan="magnify"><defs/><g><!--cluster ??????--><g id="cluster_&#35330;&#21934;&#31649;&#29702;&#31995;&#32113;"><rect fill="none" height="854" rx="2.5" ry="2.5" style="stroke:#181818;stroke-width:1.0;" width="928.3" x="123" y="100.24"/><text fill="#000000" font-family="sans-serif" font-size="14" font-weight="bold" lengthAdjust="spacing" textLength="84" x="545.15" y="115.7752">&#35330;&#21934;&#31649;&#29702;&#31995;&#32113;</text></g><g id="elem_Register"><ellipse cx="205.5374" cy="150.2436" fill="#F1F1F1" rx="51.2674" ry="14.7036" style="stroke:#181818;stroke-width:0.5;"/><text fill="#000000" font-family="sans-serif" font-size="14" lengthAdjust="spacing" textLength="56" x="174.5593" y="154.2567">&#35387;&#20874;&#24115;&#25142;</text></g><g id="elem_Login"><ellipse cx="205.5374" cy="214.2436" fill="#F1F1F1" rx="51.2674" ry="14.7036" style="stroke:#181818;stroke-width:0.5;"/><text fill="#000000" font-family="sans-serif" font-size="14" lengthAdjust="spacing" textLength="56" x="174.5593" y="218.2567">&#30331;&#20837;&#31995;&#32113;</text></g><g id="elem_BrowseProducts"><ellipse cx="454.1674" cy="246.2436" fill="#F1F1F1" rx="51.2674" ry="14.7036" style="stroke:#181818;stroke-width:0.5;"/><text fill="#000000" font-family="sans-serif" font-size="14" lengthAdjust="spacing" textLength="56" x="423.1893" y="250.2567">&#28687;&#35261;&#21830;&#21697;</text></g><g id="elem_SearchProducts"><ellipse cx="454.1674" cy="182.2436" fill="#F1F1F1" rx="51.2674" ry="14.7036" style="stroke:#181818;stroke-width:0.5;"/><text fill="#000000" font-family="sans-serif" font-size="14" lengthAdjust="spacing" textLength="56" x="423.1893" y="186.2567">&#25628;&#32034;&#21830;&#21697;</text></g><g id="elem_CreateOrder"><ellipse cx="205.5377" cy="289.2428" fill="#FEFECE" rx="48.2477" ry="24.9428" style="stroke:#FF6347;stroke-width:0.5;"/><text fill="#000000" font-family="sans-serif" font-size="14" font-style="italic" lengthAdjust="spacing" textLength="44" x="178.9482" y="284.4767">&#171;core&#187;</text><text fill="#000000" font-family="sans-serif" font-size="14" lengthAdjust="spacing" textLength="56" x="172.9482" y="300.965">&#24314;&#31435;&#35330;&#21934;</text></g><g id="elem_AddOrderItem"><ellipse cx="205.5424" cy="373.2438" fill="#FEFECE" rx="64.9024" ry="24.2638" style="stroke:#FF6347;stroke-width:0.5;"/><text fill="#000000" font-family="sans-serif" font-size="14" font-style="italic" lengthAdjust="spacing" textLength="44" x="178.549" y="367.0964">&#171;core&#187;</text><text fill="#000000" font-family="sans-serif" font-size="14" lengthAdjust="spacing" textLength="84" x="158.549" y="383.5847">&#26032;&#22686;&#35330;&#21934;&#38917;&#30446;</text></g><g id="elem_RemoveOrderItem"><ellipse cx="205.5424" cy="457.2438" fill="#FEFECE" rx="64.9024" ry="24.2638" style="stroke:#FF6347;stroke-width:0.5;"/><text fill="#000000" font-family="sans-serif" font-size="14" font-style="italic" lengthAdjust="spacing" textLength="44" x="178.549" y="451.0964">&#171;core&#187;</text><text fill="#000000" font-family="sans-serif" font-size="14" lengthAdjust="spacing" textLength="84" x="158.549" y="467.5847">&#31227;&#38500;&#35330;&#21934;&#38917;&#30446;</text></g><g id="elem_ProcessPayment"><ellipse cx="454.1677" cy="696.2428" fill="#FEFECE" rx="48.2477" ry="24.9428" style="stroke:#FF6347;stroke-width:0.5;"/><text fill="#000000" font-family="sans-serif" font-size="14" font-style="italic" lengthAdjust="spacing" textLength="44" x="427.5782" y="691.4767">&#171;core&#187;</text><text fill="#000000" font-family="sans-serif" font-size="14" lengthAdjust="spacing" textLength="56" x="421.5782" y="707.965">&#34389;&#29702;&#25903;&#20184;</text></g><g id="elem_ArrangeDelivery"><ellipse cx="723.5177" cy="765.2428" fill="#FEFECE" rx="48.2477" ry="24.9428" style="stroke:#FF6347;stroke-width:0.5;"/><text fill="#000000" font-family="sans-serif" font-size="14" font-style="italic" lengthAdjust="spacing" textLength="44" x="696.9282" y="760.4767">&#171;core&#187;</text><text fill="#000000" font-family="sans-serif" font-size="14" lengthAdjust="spacing" textLength="56" x="690.9282" y="776.965">&#23433;&#25490;&#37197;&#36865;</text></g><g id="elem_CheckOrderStatus"><ellipse cx="205.5361" cy="532.2372" fill="#F1F1F1" rx="66.5361" ry="15.7072" style="stroke:#181818;stroke-width:0.5;"/><text fill="#000000" font-family="sans-serif" font-size="14" lengthAdjust="spacing" textLength="84" x="160.5361" y="536.2548">&#26597;&#35426;&#35330;&#21934;&#29376;&#24907;</text></g><g id="elem_CancelOrder"><ellipse cx="205.5392" cy="609.2426" fill="#B4EEB4" rx="60.0992" ry="25.9626" style="stroke:#3CB371;stroke-width:0.5;"/><text fill="#000000" font-family="sans-serif" font-size="14" font-style="italic" lengthAdjust="spacing" textLength="82" x="164.5392" y="606.2491">&#171;extension&#187;</text><text fill="#000000" font-family="sans-serif" font-size="14" lengthAdjust="spacing" textLength="56" x="177.5392" y="622.7374">&#21462;&#28040;&#35330;&#21934;</text></g><g id="elem_ApplyDiscount"><ellipse cx="454.1692" cy="842.2426" fill="#B4EEB4" rx="60.0992" ry="25.9626" style="stroke:#3CB371;stroke-width:0.5;"/><text fill="#000000" font-family="sans-serif" font-size="14" font-style="italic" lengthAdjust="spacing" textLength="82" x="413.1692" y="839.2491">&#171;extension&#187;</text><text fill="#000000" font-family="sans-serif" font-size="14" lengthAdjust="spacing" textLength="56" x="426.1692" y="855.7374">&#22871;&#29992;&#25240;&#25187;</text></g><g id="elem_RequestRefund"><ellipse cx="205.5392" cy="696.2426" fill="#B4EEB4" rx="60.0992" ry="25.9626" style="stroke:#3CB371;stroke-width:0.5;"/><text fill="#000000" font-family="sans-serif" font-size="14" font-style="italic" lengthAdjust="spacing" textLength="82" x="164.5392" y="693.2491">&#171;extension&#187;</text><text fill="#000000" font-family="sans-serif" font-size="14" lengthAdjust="spacing" textLength="56" x="177.5392" y="709.7374">&#30003;&#35531;&#36864;&#27454;</text></g><g id="elem_RateOrder"><ellipse cx="205.5392" cy="783.2426" fill="#B4EEB4" rx="60.0992" ry="25.9626" style="stroke:#3CB371;stroke-width:0.5;"/><text fill="#000000" font-family="sans-serif" font-size="14" font-style="italic" lengthAdjust="spacing" textLength="82" x="164.5392" y="780.2491">&#171;extension&#187;</text><text fill="#000000" font-family="sans-serif" font-size="14" lengthAdjust="spacing" textLength="56" x="177.5392" y="796.7374">&#35413;&#20729;&#35330;&#21934;</text></g><g id="elem_ManageOrders"><ellipse cx="205.5374" cy="859.2436" fill="#F1F1F1" rx="51.2674" ry="14.7036" style="stroke:#181818;stroke-width:0.5;"/><text fill="#000000" font-family="sans-serif" font-size="14" lengthAdjust="spacing" textLength="56" x="174.5593" y="863.2567">&#31649;&#29702;&#35330;&#21934;</text></g><g id="elem_GenerateReports"><ellipse cx="205.5374" cy="923.2436" fill="#F1F1F1" rx="51.2674" ry="14.7036" style="stroke:#181818;stroke-width:0.5;"/><text fill="#000000" font-family="sans-serif" font-size="14" lengthAdjust="spacing" textLength="56" x="174.5593" y="927.2567">&#29983;&#25104;&#22577;&#34920;</text></g><g id="elem_SendNotification"><ellipse cx="984.0274" cy="703.2436" fill="#F1F1F1" rx="51.2674" ry="14.7036" style="stroke:#181818;stroke-width:0.5;"/><text fill="#000000" font-family="sans-serif" font-size="14" lengthAdjust="spacing" textLength="56" x="953.0493" y="707.2567">&#30332;&#36865;&#36890;&#30693;</text></g><!--entity Customer--><g id="elem_Customer"><ellipse cx="41" cy="435" fill="#F1F1F1" rx="16" ry="16" style="stroke:#181818;stroke-width:1.5;"/><path d="M41,455 C45,455 48,455 52,451 C60,451 68,459 68,467 L68,471 C68,475 64,479 60,479 L22,479 C18,479 14,475 14,471 L14,467 C14,459 22,451 30,451 C34,455 37,455 41,455 " fill="#F1F1F1" style="stroke:#181818;stroke-width:1.5;"/><text fill="#000000" font-family="sans-serif" font-size="14" lengthAdjust="spacing" textLength="28" x="27" y="494.0352">&#23458;&#25142;</text></g><!--entity Admin--><g id="elem_Admin"><ellipse cx="41" cy="837" fill="#F1F1F1" rx="16" ry="16" style="stroke:#181818;stroke-width:1.5;"/><path d="M41,857 C45,857 48,857 52,853 C60,853 68,861 68,869 L68,873 C68,877 64,881 60,881 L22,881 C18,881 14,877 14,873 L14,869 C14,861 22,853 30,853 C34,857 37,857 41,857 " fill="#F1F1F1" style="stroke:#181818;stroke-width:1.5;"/><text fill="#000000" font-family="sans-serif" font-size="14" lengthAdjust="spacing" textLength="70" x="6" y="896.0352">&#31995;&#32113;&#31649;&#29702;&#21729;</text></g><!--entity PaymentSystem--><g id="elem_PaymentSystem"><ellipse cx="723.52" cy="988" fill="#F1F1F1" rx="16" ry="16" style="stroke:#181818;stroke-width:1.5;"/><path d="M723.52,1008 C727.52,1008 730.52,1008 734.52,1004 C742.52,1004 750.52,1012 750.52,1020 L750.52,1024 C750.52,1028 746.52,1032 742.52,1032 L704.52,1032 C700.52,1032 696.52,1028 696.52,1024 L696.52,1020 C696.52,1012 704.52,1004 712.52,1004 C716.52,1008 719.52,1008 723.52,1008 " fill="#F1F1F1" style="stroke:#181818;stroke-width:1.5;"/><text fill="#000000" font-family="sans-serif" font-size="14" lengthAdjust="spacing" textLength="56" x="695.52" y="1047.0352">&#25903;&#20184;&#31995;&#32113;</text></g><!--entity LogisticsSystem--><g id="elem_LogisticsSystem"><ellipse cx="984.03" cy="22" fill="#F1F1F1" rx="16" ry="16" style="stroke:#181818;stroke-width:1.5;"/><path d="M984.03,42 C988.03,42 991.03,42 995.03,38 C1003.03,38 1011.03,46 1011.03,54 L1011.03,58 C1011.03,62 1007.03,66 1003.03,66 L965.03,66 C961.03,66 957.03,62 957.03,58 L957.03,54 C957.03,46 965.03,38 973.03,38 C977.03,42 980.03,42 984.03,42 " fill="#F1F1F1" style="stroke:#181818;stroke-width:1.5;"/><text fill="#000000" font-family="sans-serif" font-size="14" lengthAdjust="spacing" textLength="56" x="956.03" y="81.0352">&#29289;&#27969;&#31995;&#32113;</text></g><!--entity NotificationSystem--><g id="elem_NotificationSystem"><ellipse cx="1226.8" cy="681" fill="#F1F1F1" rx="16" ry="16" style="stroke:#181818;stroke-width:1.5;"/><path d="M1226.8,701 C1230.8,701 1233.8,701 1237.8,697 C1245.8,697 1253.8,705 1253.8,713 L1253.8,717 C1253.8,721 1249.8,725 1245.8,725 L1207.8,725 C1203.8,725 1199.8,721 1199.8,717 L1199.8,713 C1199.8,705 1207.8,697 1215.8,697 C1219.8,701 1222.8,701 1226.8,701 " fill="#F1F1F1" style="stroke:#181818;stroke-width:1.5;"/><text fill="#000000" font-family="sans-serif" font-size="14" lengthAdjust="spacing" textLength="56" x="1198.8" y="740.0352">&#36890;&#30693;&#31995;&#32113;</text></g><g id="elem_N1"><path d="M934.53,970.59 L934.53,995.9005 L1033.53,995.9005 L1033.53,980.59 L1023.53,970.59 L934.53,970.59 " fill="#FEFFDD" style="stroke:#181818;stroke-width:0.5;"/><path d="M1023.53,970.59 L1023.53,980.59 L1033.53,980.59 L1023.53,970.59 " fill="#FEFFDD" style="stroke:#181818;stroke-width:1.0;"/><text fill="#000000" font-family="sans-serif" font-size="13" lengthAdjust="spacing" textLength="78" x="940.53" y="988.1584">&#26680;&#24515;&#26989;&#21209;&#27969;&#31243;</text></g><g id="elem_N2"><path d="M687.02,1156.59 L687.02,1181.9005 L760.02,1181.9005 L760.02,1166.59 L750.02,1156.59 L687.02,1156.59 " fill="#FEFFDD" style="stroke:#181818;stroke-width:0.5;"/><path d="M750.02,1156.59 L750.02,1166.59 L760.02,1166.59 L750.02,1156.59 " fill="#FEFFDD" style="stroke:#181818;stroke-width:1.0;"/><text fill="#000000" font-family="sans-serif" font-size="13" lengthAdjust="spacing" textLength="52" x="693.02" y="1174.1584">&#25844;&#23637;&#21151;&#33021;</text></g><g id="elem_N3"><path d="M417.67,1256.59 L417.67,1281.9005 L490.67,1281.9005 L490.67,1266.59 L480.67,1256.59 L417.67,1256.59 " fill="#FEFFDD" style="stroke:#181818;stroke-width:0.5;"/><path d="M480.67,1256.59 L480.67,1266.59 L490.67,1266.59 L480.67,1256.59 " fill="#FEFFDD" style="stroke:#181818;stroke-width:1.0;"/><text fill="#000000" font-family="sans-serif" font-size="13" lengthAdjust="spacing" textLength="52" x="423.67" y="1274.1584">&#31649;&#29702;&#21151;&#33021;</text></g><!--link Customer to Register--><g id="link_Customer_Register"><path d="M41.54,417.21 C43.05,358.28 54.48,248.06 115,182.24 C125.27,171.08 139.7,163.81 153.98,159.07 " fill="none" id="Customer-to-Register" style="stroke:#181818;stroke-width:1.0;"/><polygon fill="#181818" points="158.63,157.64,148.8509,156.4698,153.852,159.1134,151.2084,164.1146,158.63,157.64" style="stroke:#181818;stroke-width:1.0;"/></g><!--link Customer to Login--><g id="link_Customer_Login"><path d="M45.73,417.1 C52.13,370.4 69.3,293.8 115,247.24 C125.87,236.18 140.76,228.79 155.28,223.87 " fill="none" id="Customer-to-Login" style="stroke:#181818;stroke-width:1.0;"/><polygon fill="#181818" points="160.03,222.37,150.2417,221.2799,155.2642,223.8825,152.6616,228.9051,160.03,222.37" style="stroke:#181818;stroke-width:1.0;"/></g><!--link Login to BrowseProducts--><g id="link_Login_BrowseProducts"><path d="M236.97,226.3 C255.47,232.99 279.76,240.67 302.07,244.24 C333.26,249.24 368.53,249.98 397.15,249.36 " fill="none" id="Login-to-BrowseProducts" style="stroke:#181818;stroke-width:1.0;"/><polygon fill="#181818" points="402.01,249.24,392.9102,245.4727,397.0117,249.3685,393.1158,253.47,402.01,249.24" style="stroke:#181818;stroke-width:1.0;"/><text fill="#000000" font-family="sans-serif" font-size="13" lengthAdjust="spacing" textLength="60" x="303.07" y="240.8084">&#171;include&#187;</text></g><!--link Login to SearchProducts--><g id="link_Login_SearchProducts"><path d="M252.93,208.23 C294.95,202.77 356.83,194.74 400.66,189.06 " fill="none" id="Login-to-SearchProducts" style="stroke:#181818;stroke-width:1.0;"/><polygon fill="#181818" points="405.49,188.43,396.0503,185.6207,400.5315,189.073,397.0792,193.5542,405.49,188.43" style="stroke:#181818;stroke-width:1.0;"/><text fill="#000000" font-family="sans-serif" font-size="13" lengthAdjust="spacing" textLength="60" x="303.07" y="191.0084">&#171;include&#187;</text></g><!--link Customer to CreateOrder--><g id="link_Customer_CreateOrder"><path d="M57.58,417.23 C69.8,390.1 89.1,355 115,331.24 C127.29,319.98 143.14,311.21 158.08,304.68 " fill="none" id="Customer-to-CreateOrder" style="stroke:#181818;stroke-width:1.0;"/><polygon fill="#181818" points="162.58,302.78,152.7328,302.5969,157.974,304.7254,155.8455,309.9665,162.58,302.78" style="stroke:#181818;stroke-width:1.0;"/></g><!--link Customer to AddOrderItem--><g id="link_Customer_AddOrderItem"><path d="M69.78,440.54 C83.28,432.6 99.83,423.15 115,415.24 C128.59,408.16 143.59,400.92 157.36,394.48 " fill="none" id="Customer-to-AddOrderItem" style="stroke:#181818;stroke-width:1.0;"/><polygon fill="#181818" points="161.8,392.41,151.9528,392.5929,157.2694,394.5252,155.3372,399.8418,161.8,392.41" style="stroke:#181818;stroke-width:1.0;"/></g><!--link Customer to RemoveOrderItem--><g id="link_Customer_RemoveOrderItem"><path d="M69.94,457.24 C87.61,457.24 111.31,457.24 133.89,457.24 " fill="none" id="Customer-to-RemoveOrderItem" style="stroke:#181818;stroke-width:1.0;"/><polygon fill="#181818" points="138.71,457.24,129.71,453.24,133.71,457.24,129.71,461.24,138.71,457.24" style="stroke:#181818;stroke-width:1.0;"/></g><!--link Customer to CheckOrderStatus--><g id="link_Customer_CheckOrderStatus"><path d="M69.83,474.74 C83.21,482.76 99.64,492.06 115,499.24 C129.05,505.82 144.8,512 159.12,517.19 " fill="none" id="Customer-to-CheckOrderStatus" style="stroke:#181818;stroke-width:1.0;"/><polygon fill="#181818" points="163.74,518.84,156.6123,512.0433,159.0319,517.1565,153.9187,519.5762,163.74,518.84" style="stroke:#181818;stroke-width:1.0;"/></g><!--link Customer to CancelOrder--><g id="link_Customer_CancelOrder"><path d="M62.27,497.24 C75.05,519.43 93.24,546.29 115,565.24 C126.2,575 139.94,583.16 153.27,589.69 " fill="none" id="Customer-to-CancelOrder" style="stroke:#181818;stroke-width:1.0;"/><polygon fill="#181818" points="157.58,591.74,151.1648,584.267,153.0631,589.5959,147.7342,591.4941,157.58,591.74" style="stroke:#181818;stroke-width:1.0;"/></g><!--link Customer to RequestRefund--><g id="link_Customer_RequestRefund"><path d="M48.01,497.28 C56.32,540.23 75.07,608.18 115,652.24 C124.87,663.14 138.04,671.65 151.23,678.15 " fill="none" id="Customer-to-RequestRefund" style="stroke:#181818;stroke-width:1.0;"/><polygon fill="#181818" points="155.51,680.17,149.0664,672.7215,150.9849,678.0431,145.6633,679.9616,155.51,680.17" style="stroke:#181818;stroke-width:1.0;"/></g><!--link Customer to RateOrder--><g id="link_Customer_RateOrder"><path d="M42.24,497.4 C44.63,556.69 57.18,668.28 115,739.24 C124.19,750.52 136.99,759.14 150.04,765.62 " fill="none" id="Customer-to-RateOrder" style="stroke:#181818;stroke-width:1.0;"/><polygon fill="#181818" points="154.27,767.63,147.8457,760.1649,149.7504,765.4914,144.4239,767.3962,154.27,767.63" style="stroke:#181818;stroke-width:1.0;"/></g><!--link Admin to Login--><g id="link_Admin_Login"><path d="M46.18,819.46 C60.34,685.49 106.06,258.57 115,247.24 C124.43,235.3 138.62,227.68 152.95,222.81 " fill="none" id="Admin-to-Login" style="stroke:#181818;stroke-width:1.0;"/><polygon fill="#181818" points="157.64,221.34,147.8547,220.2232,152.8701,222.8395,150.2539,227.855,157.64,221.34" style="stroke:#181818;stroke-width:1.0;"/></g><!--link Admin to ManageOrders--><g id="link_Admin_ManageOrders"><path d="M76.47,859.24 C97.17,859.24 124.02,859.24 147.78,859.24 " fill="none" id="Admin-to-ManageOrders" style="stroke:#181818;stroke-width:1.0;"/><polygon fill="#181818" points="152.56,859.24,143.56,855.24,147.56,859.24,143.56,863.24,152.56,859.24" style="stroke:#181818;stroke-width:1.0;"/></g><!--link Admin to GenerateReports--><g id="link_Admin_GenerateReports"><path d="M76.33,874.88 C88.47,880.25 102.27,886.19 115,891.24 C131.25,897.7 149.39,904.29 165.06,909.81 " fill="none" id="Admin-to-GenerateReports" style="stroke:#181818;stroke-width:1.0;"/><polygon fill="#181818" points="169.73,911.44,162.5476,904.7011,165.0085,909.7946,159.915,912.2555,169.73,911.44" style="stroke:#181818;stroke-width:1.0;"/></g><!--link CreateOrder to ApplyDiscount--><g id="link_CreateOrder_ApplyDiscount"><path d="M243.54,304.91 C254.54,311.42 265.42,320.11 272.07,331.24 C316.67,405.85 261.46,644.39 302.07,721.24 C325.4,765.38 372.53,799.04 407.99,819.52 " fill="none" id="CreateOrder-to-ApplyDiscount" style="stroke:#181818;stroke-width:1.0;stroke-dasharray:7.0,7.0;"/><polygon fill="#181818" points="412.26,821.94,406.4051,814.0204,407.9109,819.4731,402.4581,820.9789,412.26,821.94" style="stroke:#181818;stroke-width:1.0;"/><text fill="#000000" font-family="sans-serif" font-size="13" lengthAdjust="spacing" textLength="57" x="304.57" y="717.8084">&#171;extend&#187;</text></g><!--link CreateOrder to ProcessPayment--><g id="link_CreateOrder_ProcessPayment"><path d="M240.85,306.43 C251.8,313.09 263.32,321.48 272.07,331.24 C365.83,435.86 423.11,597.82 444.08,665.2 " fill="none" id="CreateOrder-to-ProcessPayment" style="stroke:#181818;stroke-width:1.0;"/><polygon fill="#181818" points="445.55,669.97,446.7202,660.1909,444.0766,665.192,439.0754,662.5484,445.55,669.97" style="stroke:#181818;stroke-width:1.0;"/><text fill="#000000" font-family="sans-serif" font-size="13" lengthAdjust="spacing" textLength="60" x="303.07" y="370.8084">&#171;include&#187;</text></g><!--link ProcessPayment to PaymentSystem--><g id="link_ProcessPayment_PaymentSystem"><path d="M470.95,719.96 C483.96,740.32 502.17,770.79 514.27,799.24 C532.93,843.12 513.65,865.69 544.27,902.24 C576.43,940.64 602.62,925.98 645.27,952.24 C660.53,961.64 676.52,973.3 689.96,983.7 " fill="none" id="ProcessPayment-to-PaymentSystem" style="stroke:#181818;stroke-width:1.0;"/><polygon fill="#181818" points="693.59,986.53,688.9677,977.8332,689.6525,983.4485,684.0372,984.1332,693.59,986.53" style="stroke:#181818;stroke-width:1.0;"/><text fill="#000000" font-family="sans-serif" font-size="13" lengthAdjust="spacing" textLength="99" x="545.27" y="898.8084">&#171;communicate&#187;</text></g><!--link ProcessPayment to ArrangeDelivery--><g id="link_ProcessPayment_ArrangeDelivery"><path d="M497.83,707.25 C545.75,719.62 623.41,739.66 673.71,752.65 " fill="none" id="ProcessPayment-to-ArrangeDelivery" style="stroke:#181818;stroke-width:1.0;"/><polygon fill="#181818" points="678.55,753.9,670.8268,747.7883,673.7069,752.6571,668.8382,755.5372,678.55,753.9" style="stroke:#181818;stroke-width:1.0;"/><text fill="#000000" font-family="sans-serif" font-size="13" lengthAdjust="spacing" textLength="60" x="564.77" y="717.0984">&#171;include&#187;</text></g><!--link ArrangeDelivery to LogisticsSystem--><g id="link_ArrangeDelivery_LogisticsSystem"><path d="M748.51,743.53 C756.9,734.83 765.73,724.26 771.77,713.24 C903.17,473.35 819.34,368.15 932.77,119.24 C937.91,107.95 944.69,96.46 951.59,85.99 " fill="none" id="ArrangeDelivery-to-LogisticsSystem" style="stroke:#181818;stroke-width:1.0;"/><polygon fill="#181818" points="954.36,81.87,946.0187,87.1066,951.57,86.0192,952.6574,91.5706,954.36,81.87" style="stroke:#181818;stroke-width:1.0;"/><text fill="#000000" font-family="sans-serif" font-size="13" lengthAdjust="spacing" textLength="99" x="802.77" y="199.6884">&#171;communicate&#187;</text></g><!--link ProcessPayment to SendNotification--><g id="link_ProcessPayment_SendNotification"><path d="M502.8,695.61 C516.21,695.46 530.81,695.32 544.27,695.24 C703.6,694.35 743.54,692.36 902.77,698.24 C910.77,698.54 919.22,698.95 927.51,699.42 " fill="none" id="ProcessPayment-to-SendNotification" style="stroke:#181818;stroke-width:1.0;stroke-dasharray:7.0,7.0;"/><polygon fill="#181818" points="932.3,699.7,923.5429,695.1931,927.3081,699.4148,923.0865,703.18,932.3,699.7" style="stroke:#181818;stroke-width:1.0;"/><text fill="#000000" font-family="sans-serif" font-size="13" lengthAdjust="spacing" textLength="60" x="693.52" y="690.7584">&#171;include&#187;</text></g><!--link ArrangeDelivery to SendNotification--><g id="link_ArrangeDelivery_SendNotification"><path d="M767.79,754.87 C814.83,743.58 889.69,725.63 937.58,714.15 " fill="none" id="ArrangeDelivery-to-SendNotification" style="stroke:#181818;stroke-width:1.0;stroke-dasharray:7.0,7.0;"/><polygon fill="#181818" points="942.39,712.99,932.708,711.1846,937.5261,714.1487,934.562,718.9668,942.39,712.99" style="stroke:#181818;stroke-width:1.0;"/><text fill="#000000" font-family="sans-serif" font-size="13" lengthAdjust="spacing" textLength="60" x="822.27" y="719.8684">&#171;include&#187;</text></g><!--link SendNotification to NotificationSystem--><g id="link_SendNotification_NotificationSystem"><path d="M1035.8,703.24 C1082.68,703.24 1151.03,703.24 1191.7,703.24 " fill="none" id="SendNotification-to-NotificationSystem" style="stroke:#181818;stroke-width:1.0;"/><polygon fill="#181818" points="1196.46,703.24,1187.46,699.24,1191.46,703.24,1187.46,707.24,1196.46,703.24" style="stroke:#181818;stroke-width:1.0;"/><text fill="#000000" font-family="sans-serif" font-size="13" lengthAdjust="spacing" textLength="99" x="1068.3" y="699.8084">&#171;communicate&#187;</text></g><!--link CancelOrder to ProcessPayment--><g id="link_CancelOrder_ProcessPayment"><path d="M252.93,625.61 C297.17,641.22 363.42,664.58 407.44,680.11 " fill="none" id="CancelOrder-to-ProcessPayment" style="stroke:#181818;stroke-width:1.0;stroke-dasharray:7.0,7.0;"/><polygon fill="#181818" points="412.07,681.75,404.8994,674.9985,407.3514,680.0963,402.2536,682.5483,412.07,681.75" style="stroke:#181818;stroke-width:1.0;"/><text fill="#000000" font-family="sans-serif" font-size="13" lengthAdjust="spacing" textLength="57" x="304.57" y="641.5184">&#171;extend&#187;</text></g><!--link RequestRefund to ProcessPayment--><g id="link_RequestRefund_ProcessPayment"><path d="M265.93,696.24 C306.51,696.24 359.88,696.24 399.25,696.24 " fill="none" id="RequestRefund-to-ProcessPayment" style="stroke:#181818;stroke-width:1.0;stroke-dasharray:7.0,7.0;"/><polygon fill="#181818" points="403.93,696.24,394.93,692.24,398.93,696.24,394.93,700.24,403.93,696.24" style="stroke:#181818;stroke-width:1.0;"/><text fill="#000000" font-family="sans-serif" font-size="13" lengthAdjust="spacing" textLength="57" x="304.57" y="692.8084">&#171;extend&#187;</text></g><!--link CreateOrder to N1--><g id="link_CreateOrder_N1"><path d="M243.61,304.86 C254.62,311.37 265.48,320.07 272.07,331.24 C324.55,420.25 258.95,701.35 302.07,795.24 C325.94,847.23 349.39,849.53 394.07,885.24 C510.35,978.21 532.5,1025.07 675.27,1067.24 C783.63,1099.25 914.72,1026.91 963.51,996.2 " fill="none" id="CreateOrder-N1" style="stroke:#181818;stroke-width:1.0;stroke-dasharray:7.0,7.0;"/></g><!--link ProcessPayment to N1--><g id="link_ProcessPayment_N1"><path d="M484.48,715.89 C501.67,727.19 523.94,741.44 544.27,753.24 C696.94,841.87 886.84,936.23 956.14,970.16 " fill="none" id="ProcessPayment-N1" style="stroke:#181818;stroke-width:1.0;stroke-dasharray:7.0,7.0;"/></g><!--link ArrangeDelivery to N1--><g id="link_ArrangeDelivery_N1"><path d="M770.34,771.93 C810.91,780.25 868.81,798.44 902.77,837.24 C938.12,877.64 900.31,911.49 932.77,954.24 C937.7,960.75 944.54,966.04 951.6,970.23 " fill="none" id="ArrangeDelivery-N1" style="stroke:#181818;stroke-width:1.0;stroke-dasharray:7.0,7.0;"/></g><!--link CancelOrder to N2--><g id="link_CancelOrder_N2"><path d="M246.95,628.25 C256.74,634.79 266.09,643.09 272.07,653.24 C312.23,721.48 253.9,945.42 302.07,1008.24 C400.76,1136.94 495.68,1069.58 645.27,1132.24 C662.83,1139.6 682.14,1148.85 697.06,1156.26 " fill="none" id="CancelOrder-N2" style="stroke:#181818;stroke-width:1.0;stroke-dasharray:7.0,7.0;"/></g><!--link RequestRefund to N2--><g id="link_RequestRefund_N2"><path d="M246.92,715.26 C256.71,721.8 266.07,730.1 272.07,740.24 C310.56,805.35 251.97,1022.59 302.07,1079.24 C353.07,1136.91 594.8,1160.08 686.83,1166.9 " fill="none" id="RequestRefund-N2" style="stroke:#181818;stroke-width:1.0;stroke-dasharray:7.0,7.0;"/></g><!--link ApplyDiscount to N2--><g id="link_ApplyDiscount_N2"><path d="M473.24,866.93 C490.32,889.5 517.29,923.24 544.27,949.24 C585.11,988.61 608.49,984.07 645.27,1027.24 C680.95,1069.11 707.27,1130.11 717.66,1156.4 " fill="none" id="ApplyDiscount-N2" style="stroke:#181818;stroke-width:1.0;stroke-dasharray:7.0,7.0;"/></g><!--link RateOrder to N2--><g id="link_RateOrder_N2"><path d="M246.89,802.28 C256.68,808.82 266.05,817.11 272.07,827.24 C308.89,889.22 249.9,1100.5 302.07,1150.24 C408.09,1251.35 605.95,1205.74 686.75,1181.21 " fill="none" id="RateOrder-N2" style="stroke:#181818;stroke-width:1.0;stroke-dasharray:7.0,7.0;"/></g><!--link ManageOrders to N3--><g id="link_ManageOrders_N3"><path d="M243.58,869.55 C254.45,874.39 265.23,881.35 272.07,891.24 C313.05,950.55 258.04,1157.17 302.07,1214.24 C329.44,1249.72 381.89,1262.33 417.2,1266.8 " fill="none" id="ManageOrders-N3" style="stroke:#181818;stroke-width:1.0;stroke-dasharray:7.0,7.0;"/></g><!--link GenerateReports to N3--><g id="link_GenerateReports_N3"><path d="M208.6,938.19 C217.07,997.24 251.14,1213.08 302.07,1255.24 C334.03,1281.7 383.86,1280.91 417.47,1276.37 " fill="none" id="GenerateReports-N3" style="stroke:#181818;stroke-width:1.0;stroke-dasharray:7.0,7.0;"/></g><!--SRC=[ZLLjJnD977-_dsA3B-wL95Xo9WqXeRLSJ4xFb4-msHtAXdQ7cvcgpUMIAa8AzGw2W5QDF7YS9PueGOntFUJBCBlRR-4yRDkPQIk-QTBv_tx_Xz__OOjWbjW4siWlp17Ryn5mYGy32y_xmOA3d9Bjk0IY6L8f0jkv1p0i0SLOni1rCB1_ismxuxZp1GJBWPU5HOWc9bo8mEIaVMKwDvtBvWOXm7q20ipYSLXcF9VBZ7COH1v0ffFf7rFZrqshvY2LpQIkZrc_MrQQ7ks7jKzfsy5sjem9InfPwUYa5PqUHqTxqVeoVR8dh5DUoG-iTBZv_gBrJ0B4-nsdKW81cQbW0agCkd8OdZvGx3_3We-9x-8Eebrz7kqSA8ZRaFYplkjmEHEGnTLrWWAJCcu-fDj7CXT94XhQNKL7ucQBBg_IpoUia17kC0zuI5Q81eiQBRgKn1tfP1OOcEfQ_FSPtM9LFn2O38BtCBY3e5Ts2TR1uVhBwEE-0fu13dBd1eDfwx_eRLqM8y1P11m2Vk4jiZlDC_nlVw3xhoIblRiKlP34ASyJh9jCg27Cw4shtVYhZva79NWNN4QE6rjCQjbdGMC5kG3ZfD53MFHe9VnpextqHxignPX2Y3KGt015_ov0bM4rxXp4X_j9Z-lLSAaknPa3xhn8T8Ouf6ngkROTVggfMZg12ueTBPLHDtW7JwFDPhZwB5nvBNDSM2XMRlZOPPj6liMCDa_Yj_LsjHh-yoMHyjSom2GFPjcEVeiP7sxHnN-LNFDAruV74-Eki6uvWLEGF6ocjXFMrkdkSRpN5D2VG00G2v872n2POnWr_cSDaYkOp6pWgGl8Zy8FjhmA5sVdNA-zsiMNUllfoulpXrRdHjXNhqxszanxbMibViL_VONiDAlR3znYsUF3q8FfosF0j03AvkW6TJFCJBN9D_oPmwPRUxDb-bH6m31rysDQTi_e03d5KLLKw_tN6jvxDflB_8Uxd-dv8Z-wpMwNbDioEZffp7cwCtaULrQ1yW36ikjjC8m2hvv_0NTXgLGE-3WDePYNGOzXMZlYAD-GoyFmeit9lYJETr3wp3ot_g_NWFHucvvyfCTRUfkKiyN33z2-soVzu5o6vYjSMuvE7z6Dn-pp6BzvRGMGy7ihX-NW7QqtP2xY2jmUwzX5bdHr9ruyavPhYIKPOyMIien1usxw6i4V-xNchqRzF9HP9N_JXpV1QL6lMPQwBk8jPHchahn-1G00]--></g></svg>