<svg xmlns="http://www.w3.org/2000/svg" xmlns:xlink="http://www.w3.org/1999/xlink" contentStyleType="text/css" data-diagram-type="SEQUENCE" height="990px" preserveAspectRatio="none" style="width:1662px;height:990px;background:#FFFFFF;" version="1.1" viewBox="0 0 1662 990" width="1662px" zoomAndPan="magnify"><defs/><g><g><title>AggregateRoot</title><rect fill="#FFFFFF" height="361.4395" style="stroke:#181818;stroke-width:1;" width="10" x="124.7524" y="284.041"/></g><g><title>AggregateLifecycleAware</title><rect fill="#FFFFFF" height="318.1289" style="stroke:#181818;stroke-width:1;" width="10" x="284.374" y="313.3516"/></g><g><title>DomainEventPublisherService</title><rect fill="#FFFFFF" height="186.2422" style="stroke:#181818;stroke-width:1;" width="10" x="492.8794" y="366.9727"/></g><g><title>DomainEventBus</title><rect fill="#FFFFFF" height="142.9316" style="stroke:#181818;stroke-width:1;" width="10" x="673.0088" y="396.2832"/></g><g><title>DomainEventPublisherAdapter</title><rect fill="#FFFFFF" height="99.6211" style="stroke:#181818;stroke-width:1;" width="10" x="856.3613" y="425.5938"/></g><g><title>Spring</title><rect fill="#FFFFFF" height="14" style="stroke:#181818;stroke-width:1;" width="10" x="1108.2085" y="497.2148"/></g><g><title>DomainEventSubscriptionManager</title><rect fill="#FFFFFF" height="173.2422" style="stroke:#181818;stroke-width:1;" width="10" x="1336.333" y="718.1016"/></g><g><title>EventHandler</title><rect fill="#FFFFFF" height="14" style="stroke:#181818;stroke-width:1;" width="10" x="1578.7979" y="856.3438"/></g><rect fill="none" height="290.1289" style="stroke:#999999;stroke-width:1.5;" width="1030.7871" x="187.4683" y="328.3516"/><rect fill="none" height="60.6211" style="stroke:#999999;stroke-width:1.5;" width="437.3691" x="1208.2554" y="817.7227"/><g><title>Client</title><rect fill="#000000" fill-opacity="0.00000" height="827.8555" width="8" x="23.7524" y="81.4883"/><line style="stroke:#999999;stroke-width:0.5;stroke-dasharray:5,5;" x1="27" x2="27" y1="81.4883" y2="909.3438"/></g><g><title>AggregateRoot</title><rect fill="#000000" fill-opacity="0.00000" height="827.8555" width="8" x="125.7524" y="81.4883"/><line style="stroke:#999999;stroke-width:0.5;stroke-dasharray:5,5;" x1="129.0366" x2="129.0366" y1="81.4883" y2="909.3438"/></g><g><title>AggregateLifecycleAware</title><rect fill="#000000" fill-opacity="0.00000" height="827.8555" width="8" x="285.374" y="81.4883"/><line style="stroke:#999999;stroke-width:0.5;stroke-dasharray:5,5;" x1="288.4683" x2="288.4683" y1="81.4883" y2="909.3438"/></g><g><title>DomainEventPublisherService</title><rect fill="#000000" fill-opacity="0.00000" height="827.8555" width="8" x="493.8794" y="81.4883"/><line style="stroke:#999999;stroke-width:0.5;stroke-dasharray:5,5;" x1="497.2798" x2="497.2798" y1="81.4883" y2="909.3438"/></g><g><title>DomainEventBus</title><rect fill="#000000" fill-opacity="0.00000" height="827.8555" width="8" x="674.0088" y="81.4883"/><line style="stroke:#999999;stroke-width:0.5;stroke-dasharray:5,5;" x1="677.479" x2="677.479" y1="81.4883" y2="909.3438"/></g><g><title>DomainEventPublisherAdapter</title><rect fill="#000000" fill-opacity="0.00000" height="827.8555" width="8" x="857.3613" y="81.4883"/><line style="stroke:#999999;stroke-width:0.5;stroke-dasharray:5,5;" x1="860.5386" x2="860.5386" y1="81.4883" y2="909.3438"/></g><g><title>Spring</title><rect fill="#000000" fill-opacity="0.00000" height="827.8555" width="8" x="1109.2085" y="81.4883"/><line style="stroke:#999999;stroke-width:0.5;stroke-dasharray:5,5;" x1="1113.1616" x2="1113.1616" y1="81.4883" y2="909.3438"/></g><g><title>DomainEventSubscriptionManager</title><rect fill="#000000" fill-opacity="0.00000" height="827.8555" width="8" x="1337.333" y="81.4883"/><line style="stroke:#999999;stroke-width:0.5;stroke-dasharray:5,5;" x1="1341.2554" x2="1341.2554" y1="81.4883" y2="909.3438"/></g><g><title>EventHandler</title><rect fill="#000000" fill-opacity="0.00000" height="827.8555" width="8" x="1579.7979" y="81.4883"/><line style="stroke:#999999;stroke-width:0.5;stroke-dasharray:5,5;" x1="1582.9712" x2="1582.9712" y1="81.4883" y2="909.3438"/></g><g class="participant participant-head" data-participant="Client"><text fill="#000000" font-family="sans-serif" font-size="14" lengthAdjust="spacing" textLength="39.5049" x="5" y="78.5352">Client</text><ellipse cx="27.7524" cy="13.5" fill="#E2E2F0" rx="8" ry="8" style="stroke:#181818;stroke-width:0.5;"/><path d="M27.7524,21.5 L27.7524,48.5 M14.7524,29.5 L40.7524,29.5 M27.7524,48.5 L14.7524,63.5 M27.7524,48.5 L40.7524,63.5" fill="none" style="stroke:#181818;stroke-width:0.5;"/></g><g class="participant participant-tail" data-participant="Client"><text fill="#000000" font-family="sans-serif" font-size="14" lengthAdjust="spacing" textLength="39.5049" x="5" y="921.8789">Client</text><ellipse cx="27.7524" cy="933.332" fill="#E2E2F0" rx="8" ry="8" style="stroke:#181818;stroke-width:0.5;"/><path d="M27.7524,941.332 L27.7524,968.332 M14.7524,949.332 L40.7524,949.332 M27.7524,968.332 L14.7524,983.332 M27.7524,968.332 L40.7524,983.332" fill="none" style="stroke:#181818;stroke-width:0.5;"/></g><g class="participant participant-head" data-participant="AR"><rect fill="#E6F2FF" height="30.4883" rx="2.5" ry="2.5" style="stroke:#999999;stroke-width:0.5;" width="115.4316" x="72.0366" y="50"/><text fill="#000000" font-family="sans-serif" font-size="14" lengthAdjust="spacing" textLength="101.4316" x="79.0366" y="70.5352">AggregateRoot</text></g><g class="participant participant-tail" data-participant="AR"><rect fill="#E6F2FF" height="30.4883" rx="2.5" ry="2.5" style="stroke:#999999;stroke-width:0.5;" width="115.4316" x="72.0366" y="908.3438"/><text fill="#000000" font-family="sans-serif" font-size="14" lengthAdjust="spacing" textLength="101.4316" x="79.0366" y="928.8789">AggregateRoot</text></g><g class="participant participant-head" data-participant="ALA"><rect fill="#E6F2FF" height="30.4883" rx="2.5" ry="2.5" style="stroke:#999999;stroke-width:0.5;" width="183.8115" x="197.4683" y="50"/><text fill="#000000" font-family="sans-serif" font-size="14" lengthAdjust="spacing" textLength="169.8115" x="204.4683" y="70.5352">AggregateLifecycleAware</text></g><g class="participant participant-tail" data-participant="ALA"><rect fill="#E6F2FF" height="30.4883" rx="2.5" ry="2.5" style="stroke:#999999;stroke-width:0.5;" width="183.8115" x="197.4683" y="908.3438"/><text fill="#000000" font-family="sans-serif" font-size="14" lengthAdjust="spacing" textLength="169.8115" x="204.4683" y="928.8789">AggregateLifecycleAware</text></g><g class="participant participant-head" data-participant="DEPS"><rect fill="#E6F2FF" height="30.4883" rx="2.5" ry="2.5" style="stroke:#999999;stroke-width:0.5;" width="213.1992" x="391.2798" y="50"/><text fill="#000000" font-family="sans-serif" font-size="14" lengthAdjust="spacing" textLength="199.1992" x="398.2798" y="70.5352">DomainEventPublisherService</text></g><g class="participant participant-tail" data-participant="DEPS"><rect fill="#E6F2FF" height="30.4883" rx="2.5" ry="2.5" style="stroke:#999999;stroke-width:0.5;" width="213.1992" x="391.2798" y="908.3438"/><text fill="#000000" font-family="sans-serif" font-size="14" lengthAdjust="spacing" textLength="199.1992" x="398.2798" y="928.8789">DomainEventPublisherService</text></g><g class="participant participant-head" data-participant="DEB"><rect fill="#E6F2FF" height="30.4883" rx="2.5" ry="2.5" style="stroke:#999999;stroke-width:0.5;" width="127.0596" x="614.479" y="50"/><text fill="#000000" font-family="sans-serif" font-size="14" lengthAdjust="spacing" textLength="113.0596" x="621.479" y="70.5352">DomainEventBus</text></g><g class="participant participant-tail" data-participant="DEB"><rect fill="#E6F2FF" height="30.4883" rx="2.5" ry="2.5" style="stroke:#999999;stroke-width:0.5;" width="127.0596" x="614.479" y="908.3438"/><text fill="#000000" font-family="sans-serif" font-size="14" lengthAdjust="spacing" textLength="113.0596" x="621.479" y="928.8789">DomainEventBus</text></g><g class="participant participant-head" data-participant="DEPA"><rect fill="#E6F2FF" height="30.4883" rx="2.5" ry="2.5" style="stroke:#999999;stroke-width:0.5;" width="219.6455" x="751.5386" y="50"/><text fill="#000000" font-family="sans-serif" font-size="14" lengthAdjust="spacing" textLength="205.6455" x="758.5386" y="70.5352">DomainEventPublisherAdapter</text></g><g class="participant participant-tail" data-participant="DEPA"><rect fill="#E6F2FF" height="30.4883" rx="2.5" ry="2.5" style="stroke:#999999;stroke-width:0.5;" width="219.6455" x="751.5386" y="908.3438"/><text fill="#000000" font-family="sans-serif" font-size="14" lengthAdjust="spacing" textLength="205.6455" x="758.5386" y="928.8789">DomainEventPublisherAdapter</text></g><g class="participant participant-head" data-participant="SAEP"><rect fill="#E6F2FF" height="46.9766" rx="2.5" ry="2.5" style="stroke:#999999;stroke-width:0.5;" width="190.0938" x="1018.1616" y="33.5117"/><text fill="#000000" font-family="sans-serif" font-size="14" lengthAdjust="spacing" textLength="43.5449" x="1091.436" y="54.0469">Spring</text><text fill="#000000" font-family="sans-serif" font-size="14" lengthAdjust="spacing" textLength="176.0938" x="1025.1616" y="70.5352">ApplicationEventPublisher</text></g><g class="participant participant-tail" data-participant="SAEP"><rect fill="#E6F2FF" height="46.9766" rx="2.5" ry="2.5" style="stroke:#999999;stroke-width:0.5;" width="190.0938" x="1018.1616" y="908.3438"/><text fill="#000000" font-family="sans-serif" font-size="14" lengthAdjust="spacing" textLength="43.5449" x="1091.436" y="928.8789">Spring</text><text fill="#000000" font-family="sans-serif" font-size="14" lengthAdjust="spacing" textLength="176.0938" x="1025.1616" y="945.3672">ApplicationEventPublisher</text></g><g class="participant participant-head" data-participant="DESM"><rect fill="#E6F2FF" height="30.4883" rx="2.5" ry="2.5" style="stroke:#999999;stroke-width:0.5;" width="246.1553" x="1218.2554" y="50"/><text fill="#000000" font-family="sans-serif" font-size="14" lengthAdjust="spacing" textLength="232.1553" x="1225.2554" y="70.5352">DomainEventSubscriptionManager</text></g><g class="participant participant-tail" data-participant="DESM"><rect fill="#E6F2FF" height="30.4883" rx="2.5" ry="2.5" style="stroke:#999999;stroke-width:0.5;" width="246.1553" x="1218.2554" y="908.3438"/><text fill="#000000" font-family="sans-serif" font-size="14" lengthAdjust="spacing" textLength="232.1553" x="1225.2554" y="928.8789">DomainEventSubscriptionManager</text></g><g class="participant participant-head" data-participant="EH"><rect fill="#E6F2FF" height="30.4883" rx="2.5" ry="2.5" style="stroke:#999999;stroke-width:0.5;" width="103.6533" x="1531.9712" y="50"/><text fill="#000000" font-family="sans-serif" font-size="14" lengthAdjust="spacing" textLength="89.6533" x="1538.9712" y="70.5352">EventHandler</text></g><g class="participant participant-tail" data-participant="EH"><rect fill="#E6F2FF" height="30.4883" rx="2.5" ry="2.5" style="stroke:#999999;stroke-width:0.5;" width="103.6533" x="1531.9712" y="908.3438"/><text fill="#000000" font-family="sans-serif" font-size="14" lengthAdjust="spacing" textLength="89.6533" x="1538.9712" y="928.8789">EventHandler</text></g><g><title>AggregateRoot</title><rect fill="#FFFFFF" height="361.4395" style="stroke:#181818;stroke-width:1;" width="10" x="124.7524" y="284.041"/></g><g><title>AggregateLifecycleAware</title><rect fill="#FFFFFF" height="318.1289" style="stroke:#181818;stroke-width:1;" width="10" x="284.374" y="313.3516"/></g><g><title>DomainEventPublisherService</title><rect fill="#FFFFFF" height="186.2422" style="stroke:#181818;stroke-width:1;" width="10" x="492.8794" y="366.9727"/></g><g><title>DomainEventBus</title><rect fill="#FFFFFF" height="142.9316" style="stroke:#181818;stroke-width:1;" width="10" x="673.0088" y="396.2832"/></g><g><title>DomainEventPublisherAdapter</title><rect fill="#FFFFFF" height="99.6211" style="stroke:#181818;stroke-width:1;" width="10" x="856.3613" y="425.5938"/></g><g><title>Spring</title><rect fill="#FFFFFF" height="14" style="stroke:#181818;stroke-width:1;" width="10" x="1108.2085" y="497.2148"/></g><g><title>DomainEventSubscriptionManager</title><rect fill="#FFFFFF" height="173.2422" style="stroke:#181818;stroke-width:1;" width="10" x="1336.333" y="718.1016"/></g><g><title>EventHandler</title><rect fill="#FFFFFF" height="14" style="stroke:#181818;stroke-width:1;" width="10" x="1578.7979" y="856.3438"/></g><rect fill="#EEEEEE" height="3" style="stroke:#EEEEEE;stroke-width:1;" width="1655.6245" x="0" y="112.1436"/><line style="stroke:#000000;stroke-width:1;" x1="0" x2="1655.6245" y1="112.1436" y2="112.1436"/><line style="stroke:#000000;stroke-width:1;" x1="0" x2="1655.6245" y1="115.1436" y2="115.1436"/><rect fill="#EEEEEE" height="23.3105" style="stroke:#000000;stroke-width:2;" width="83.2847" x="786.1699" y="101.4883"/><text fill="#000000" font-family="sans-serif" font-size="13" font-weight="bold" lengthAdjust="spacing" textLength="65" x="792.1699" y="118.0566">&#21021;&#22987;&#21270;&#38454;&#27573;</text><g class="message" data-participant-1="DESM" data-participant-2="DESM"><line style="stroke:#181818;stroke-width:2;" x1="1341.333" x2="1383.333" y1="156.1094" y2="156.1094"/><line style="stroke:#181818;stroke-width:2;" x1="1383.333" x2="1383.333" y1="156.1094" y2="169.1094"/><line style="stroke:#181818;stroke-width:2;" x1="1342.333" x2="1383.333" y1="169.1094" y2="169.1094"/><polygon fill="#181818" points="1352.333,165.1094,1342.333,169.1094,1352.333,173.1094,1348.333,169.1094" style="stroke:#181818;stroke-width:1;"/><text fill="#000000" font-family="sans-serif" font-size="13" lengthAdjust="spacing" textLength="228.4648" x="1348.333" y="151.3672">&#25195;&#25551;&#24102;&#26377;@EventSubscriber&#27880;&#35299;&#30340;&#26041;&#27861;</text></g><g class="message" data-participant-1="DESM" data-participant-2="DESM"><line style="stroke:#181818;stroke-width:2;" x1="1341.333" x2="1383.333" y1="198.4199" y2="198.4199"/><line style="stroke:#181818;stroke-width:2;" x1="1383.333" x2="1383.333" y1="198.4199" y2="211.4199"/><line style="stroke:#181818;stroke-width:2;" x1="1342.333" x2="1383.333" y1="211.4199" y2="211.4199"/><polygon fill="#181818" points="1352.333,207.4199,1342.333,211.4199,1352.333,215.4199,1348.333,211.4199" style="stroke:#181818;stroke-width:1;"/><text fill="#000000" font-family="sans-serif" font-size="13" lengthAdjust="spacing" textLength="214.7222" x="1348.333" y="193.6777">&#27880;&#20876;&#20107;&#20214;&#35746;&#38405;&#32773;&#21040;subscriptions&#26144;&#23556;</text></g><rect fill="#EEEEEE" height="3" style="stroke:#EEEEEE;stroke-width:1;" width="1655.6245" x="0" y="240.0752"/><line style="stroke:#000000;stroke-width:1;" x1="0" x2="1655.6245" y1="240.0752" y2="240.0752"/><line style="stroke:#000000;stroke-width:1;" x1="0" x2="1655.6245" y1="243.0752" y2="243.0752"/><rect fill="#EEEEEE" height="23.3105" style="stroke:#000000;stroke-width:2;" width="96.2847" x="779.6699" y="229.4199"/><text fill="#000000" font-family="sans-serif" font-size="13" font-weight="bold" lengthAdjust="spacing" textLength="78" x="785.6699" y="245.9883">&#20107;&#20214;&#21457;&#24067;&#27969;&#31243;</text><g class="message" data-participant-1="Client" data-participant-2="AR"><polygon fill="#181818" points="112.7524,280.041,122.7524,284.041,112.7524,288.041,116.7524,284.041" style="stroke:#181818;stroke-width:1;"/><line style="stroke:#181818;stroke-width:2;" x1="27.7524" x2="118.7524" y1="284.041" y2="284.041"/><text fill="#000000" font-family="sans-serif" font-size="13" lengthAdjust="spacing" textLength="78" x="34.7524" y="279.2988">&#25191;&#34892;&#19994;&#21153;&#25805;&#20316;</text></g><g class="message" data-participant-1="AR" data-participant-2="ALA"><polygon fill="#181818" points="272.374,309.3516,282.374,313.3516,272.374,317.3516,276.374,313.3516" style="stroke:#181818;stroke-width:1;"/><line style="stroke:#181818;stroke-width:2;" x1="134.7524" x2="278.374" y1="313.3516" y2="313.3516"/><text fill="#000000" font-family="sans-serif" font-size="13" lengthAdjust="spacing" textLength="123.8047" x="141.7524" y="308.6094">apply(domainEvent)</text></g><path d="M187.4683,328.3516 L249.6069,328.3516 L249.6069,335.6621 L239.6069,345.6621 L187.4683,345.6621 L187.4683,328.3516" fill="#F5F5F5" style="stroke:#999999;stroke-width:1.5;"/><rect fill="none" height="290.1289" style="stroke:#999999;stroke-width:1.5;" width="1030.7871" x="187.4683" y="328.3516"/><text fill="#000000" font-family="sans-serif" font-size="13" font-weight="bold" lengthAdjust="spacing" textLength="17.1387" x="202.4683" y="341.9199">alt</text><text fill="#000000" font-family="sans-serif" font-size="11" font-weight="bold" lengthAdjust="spacing" textLength="52.1533" x="264.6069" y="340.9863">[&#20027;&#35201;&#36335;&#24452;]</text><g class="message" data-participant-1="ALA" data-participant-2="DEPS"><polygon fill="#181818" points="480.8794,362.9727,490.8794,366.9727,480.8794,370.9727,484.8794,366.9727" style="stroke:#181818;stroke-width:1;"/><line style="stroke:#181818;stroke-width:2;" x1="294.374" x2="486.8794" y1="366.9727" y2="366.9727"/><text fill="#000000" font-family="sans-serif" font-size="13" lengthAdjust="spacing" textLength="170.3013" x="301.374" y="362.2305">publishEvent(domainEvent)</text></g><g class="message" data-participant-1="DEPS" data-participant-2="DEB"><polygon fill="#181818" points="661.0088,392.2832,671.0088,396.2832,661.0088,400.2832,665.0088,396.2832" style="stroke:#181818;stroke-width:1;"/><line style="stroke:#181818;stroke-width:2;" x1="502.8794" x2="667.0088" y1="396.2832" y2="396.2832"/><text fill="#000000" font-family="sans-serif" font-size="13" lengthAdjust="spacing" textLength="136.354" x="509.8794" y="391.541">publish(domainEvent)</text></g><g class="message" data-participant-1="DEB" data-participant-2="DEPA"><polygon fill="#181818" points="844.3613,421.5938,854.3613,425.5938,844.3613,429.5938,848.3613,425.5938" style="stroke:#181818;stroke-width:1;"/><line style="stroke:#181818;stroke-width:2;" x1="683.0088" x2="850.3613" y1="425.5938" y2="425.5938"/><text fill="#000000" font-family="sans-serif" font-size="13" lengthAdjust="spacing" textLength="136.354" x="690.0088" y="420.8516">publish(domainEvent)</text></g><g class="message" data-participant-1="DEPA" data-participant-2="DEPA"><line style="stroke:#181818;stroke-width:2;" x1="866.3613" x2="908.3613" y1="454.9043" y2="454.9043"/><line style="stroke:#181818;stroke-width:2;" x1="908.3613" x2="908.3613" y1="454.9043" y2="467.9043"/><line style="stroke:#181818;stroke-width:2;" x1="867.3613" x2="908.3613" y1="467.9043" y2="467.9043"/><polygon fill="#181818" points="877.3613,463.9043,867.3613,467.9043,877.3613,471.9043,873.3613,467.9043" style="stroke:#181818;stroke-width:1;"/><text fill="#000000" font-family="sans-serif" font-size="13" lengthAdjust="spacing" textLength="161.3574" x="873.3613" y="450.1621">&#21019;&#24314;DomainEventWrapper</text></g><g class="message" data-participant-1="DEPA" data-participant-2="SAEP"><polygon fill="#181818" points="1096.2085,493.2148,1106.2085,497.2148,1096.2085,501.2148,1100.2085,497.2148" style="stroke:#181818;stroke-width:1;"/><line style="stroke:#181818;stroke-width:2;" x1="866.3613" x2="1102.2085" y1="497.2148" y2="497.2148"/><text fill="#000000" font-family="sans-serif" font-size="13" lengthAdjust="spacing" textLength="222.8472" x="873.3613" y="492.4727">publishEvent(domainEventWrapper)</text></g><g class="message" data-participant-1="SAEP" data-participant-2="DEPA"><polygon fill="#181818" points="877.3613,507.2148,867.3613,511.2148,877.3613,515.2148,873.3613,511.2148" style="stroke:#181818;stroke-width:1;"/><line style="stroke:#181818;stroke-width:2;stroke-dasharray:2,2;" x1="871.3613" x2="1112.2085" y1="511.2148" y2="511.2148"/></g><g class="message" data-participant-1="DEPA" data-participant-2="DEB"><polygon fill="#181818" points="694.0088,521.2148,684.0088,525.2148,694.0088,529.2148,690.0088,525.2148" style="stroke:#181818;stroke-width:1;"/><line style="stroke:#181818;stroke-width:2;stroke-dasharray:2,2;" x1="688.0088" x2="860.3613" y1="525.2148" y2="525.2148"/></g><g class="message" data-participant-1="DEB" data-participant-2="DEPS"><polygon fill="#181818" points="513.8794,535.2148,503.8794,539.2148,513.8794,543.2148,509.8794,539.2148" style="stroke:#181818;stroke-width:1;"/><line style="stroke:#181818;stroke-width:2;stroke-dasharray:2,2;" x1="507.8794" x2="677.0088" y1="539.2148" y2="539.2148"/></g><g class="message" data-participant-1="DEPS" data-participant-2="ALA"><polygon fill="#181818" points="305.374,549.2148,295.374,553.2148,305.374,557.2148,301.374,553.2148" style="stroke:#181818;stroke-width:1;"/><line style="stroke:#181818;stroke-width:2;stroke-dasharray:2,2;" x1="299.374" x2="496.8794" y1="553.2148" y2="553.2148"/></g><line style="stroke:#999999;stroke-width:1;stroke-dasharray:2,2;" x1="187.4683" x2="1218.2554" y1="562.2148" y2="562.2148"/><text fill="#000000" font-family="sans-serif" font-size="11" font-weight="bold" lengthAdjust="spacing" textLength="148.167" x="192.4683" y="572.8496">[EventBus&#20026;null (&#38477;&#32423;&#36335;&#24452;)]</text><g class="message" data-participant-1="ALA" data-participant-2="ALA"><line style="stroke:#181818;stroke-width:2;" x1="294.374" x2="336.374" y1="597.4805" y2="597.4805"/><line style="stroke:#181818;stroke-width:2;" x1="336.374" x2="336.374" y1="597.4805" y2="610.4805"/><line style="stroke:#181818;stroke-width:2;" x1="295.374" x2="336.374" y1="610.4805" y2="610.4805"/><polygon fill="#181818" points="305.374,606.4805,295.374,610.4805,305.374,614.4805,301.374,610.4805" style="stroke:#181818;stroke-width:1;"/><text fill="#000000" font-family="sans-serif" font-size="13" lengthAdjust="spacing" textLength="78" x="301.374" y="592.7383">&#35760;&#24405;&#35686;&#21578;&#26085;&#24535;</text></g><g class="message" data-participant-1="ALA" data-participant-2="AR"><polygon fill="#181818" points="145.7524,627.4805,135.7524,631.4805,145.7524,635.4805,141.7524,631.4805" style="stroke:#181818;stroke-width:1;"/><line style="stroke:#181818;stroke-width:2;stroke-dasharray:2,2;" x1="139.7524" x2="288.374" y1="631.4805" y2="631.4805"/></g><g class="message" data-participant-1="AR" data-participant-2="Client"><polygon fill="#181818" points="38.7524,641.4805,28.7524,645.4805,38.7524,649.4805,34.7524,645.4805" style="stroke:#181818;stroke-width:1;"/><line style="stroke:#181818;stroke-width:2;stroke-dasharray:2,2;" x1="32.7524" x2="128.7524" y1="645.4805" y2="645.4805"/></g><rect fill="#EEEEEE" height="3" style="stroke:#EEEEEE;stroke-width:1;" width="1655.6245" x="0" y="674.1357"/><line style="stroke:#000000;stroke-width:1;" x1="0" x2="1655.6245" y1="674.1357" y2="674.1357"/><line style="stroke:#000000;stroke-width:1;" x1="0" x2="1655.6245" y1="677.1357" y2="677.1357"/><rect fill="#EEEEEE" height="23.3105" style="stroke:#000000;stroke-width:2;" width="96.2847" x="779.6699" y="663.4805"/><text fill="#000000" font-family="sans-serif" font-size="13" font-weight="bold" lengthAdjust="spacing" textLength="78" x="785.6699" y="680.0488">&#20107;&#20214;&#22788;&#29702;&#27969;&#31243;</text><g class="message" data-participant-1="SAEP" data-participant-2="DESM"><polygon fill="#181818" points="1324.333,714.1016,1334.333,718.1016,1324.333,722.1016,1328.333,718.1016" style="stroke:#181818;stroke-width:1;"/><line style="stroke:#181818;stroke-width:2;" x1="1113.2085" x2="1330.333" y1="718.1016" y2="718.1016"/><text fill="#000000" font-family="sans-serif" font-size="13" lengthAdjust="spacing" textLength="203.8232" x="1120.2085" y="713.3594">onApplicationEvent(springEvent)</text></g><g class="message" data-participant-1="DESM" data-participant-2="DESM"><line style="stroke:#181818;stroke-width:2;" x1="1346.333" x2="1388.333" y1="747.4121" y2="747.4121"/><line style="stroke:#181818;stroke-width:2;" x1="1388.333" x2="1388.333" y1="747.4121" y2="760.4121"/><line style="stroke:#181818;stroke-width:2;" x1="1347.333" x2="1388.333" y1="760.4121" y2="760.4121"/><polygon fill="#181818" points="1357.333,756.4121,1347.333,760.4121,1357.333,764.4121,1353.333,760.4121" style="stroke:#181818;stroke-width:1;"/><text fill="#000000" font-family="sans-serif" font-size="13" lengthAdjust="spacing" textLength="108.8115" x="1353.333" y="742.6699">&#25552;&#21462;DomainEvent</text></g><g class="message" data-participant-1="DESM" data-participant-2="DESM"><line style="stroke:#181818;stroke-width:2;" x1="1346.333" x2="1388.333" y1="789.7227" y2="789.7227"/><line style="stroke:#181818;stroke-width:2;" x1="1388.333" x2="1388.333" y1="789.7227" y2="802.7227"/><line style="stroke:#181818;stroke-width:2;" x1="1347.333" x2="1388.333" y1="802.7227" y2="802.7227"/><polygon fill="#181818" points="1357.333,798.7227,1347.333,802.7227,1357.333,806.7227,1353.333,802.7227" style="stroke:#181818;stroke-width:1;"/><text fill="#000000" font-family="sans-serif" font-size="13" lengthAdjust="spacing" textLength="104" x="1353.333" y="784.9805">&#26597;&#25214;&#21305;&#37197;&#30340;&#35746;&#38405;&#32773;</text></g><path d="M1208.2554,817.7227 L1282.7021,817.7227 L1282.7021,825.0332 L1272.7021,835.0332 L1208.2554,835.0332 L1208.2554,817.7227" fill="#F5F5F5" style="stroke:#999999;stroke-width:1.5;"/><rect fill="none" height="60.6211" style="stroke:#999999;stroke-width:1.5;" width="437.3691" x="1208.2554" y="817.7227"/><text fill="#000000" font-family="sans-serif" font-size="13" font-weight="bold" lengthAdjust="spacing" textLength="29.4468" x="1223.2554" y="831.291">loop</text><text fill="#000000" font-family="sans-serif" font-size="11" font-weight="bold" lengthAdjust="spacing" textLength="107.1533" x="1297.7021" y="830.3574">[&#23545;&#27599;&#20010;&#21305;&#37197;&#30340;&#35746;&#38405;&#32773;]</text><g class="message" data-participant-1="DESM" data-participant-2="EH"><polygon fill="#181818" points="1566.7979,852.3438,1576.7979,856.3438,1566.7979,860.3438,1570.7979,856.3438" style="stroke:#181818;stroke-width:1;"/><line style="stroke:#181818;stroke-width:2;" x1="1346.333" x2="1572.7979" y1="856.3438" y2="856.3438"/><text fill="#000000" font-family="sans-serif" font-size="13" lengthAdjust="spacing" textLength="130" x="1353.333" y="851.6016">&#36890;&#36807;&#21453;&#23556;&#35843;&#29992;&#22788;&#29702;&#26041;&#27861;</text></g><g class="message" data-participant-1="EH" data-participant-2="DESM"><polygon fill="#181818" points="1357.333,866.3438,1347.333,870.3438,1357.333,874.3438,1353.333,870.3438" style="stroke:#181818;stroke-width:1;"/><line style="stroke:#181818;stroke-width:2;stroke-dasharray:2,2;" x1="1351.333" x2="1582.7979" y1="870.3438" y2="870.3438"/></g><g class="message" data-participant-1="DESM" data-participant-2="SAEP"><polygon fill="#181818" points="1124.2085,887.3438,1114.2085,891.3438,1124.2085,895.3438,1120.2085,891.3438" style="stroke:#181818;stroke-width:1;"/><line style="stroke:#181818;stroke-width:2;stroke-dasharray:2,2;" x1="1118.2085" x2="1340.333" y1="891.3438" y2="891.3438"/></g><!--SRC=[bLHDJzj04BtlhrZH2nou8BLI8wMg3L5p02cAA_NIo-9iWeMntRK3uWOYK3uI1TGIAALgQGk9MXKY8MW80lvCrd7-HNTj9t5Cqb97aTQxxysRdNbZSrRH34JG73JncopMP2mGeY-yd57aMGsR9Xm3vZt82w9d3L4dAKp6TLKdyD5Jzna8HV9iXYsqb0zFF-Q_Fl199St-6dvOy0GYbY8h1jAi_oU4Sy9FqcFfD018jjZhkAfWpG96bm27X4o6u0ooS5BNhI68J2Wa1o3uFUH5MSN20YBOmquAlU09VGufMcoUwIIoqwfYpc0YOJAlo1vX8fQG1ZB4hEc3n7z75LB8i31fHmtb8Hb4qJAlDS4mL4L6bgA7w2vF4cA9WKfITjgKYM9mxXJIKAOZ9atrabnu76afrOV4uW14ev2kVwBbBPeljVOlxTCB68q2JeQZpzmW4MXl_BIBHLexiGytdWT5fp6npojE-Llp86UNhkpptJ3pl4BNyetwLkFwqZdzsjfVTPPMwNhL32HjsljVQ3Ndfk8XQN67rbRiY-LcPOjdunc2HnMIF9koSvHlr0xevf7zhj2uEUI-KUPPwxafXAGBd1GY4B6gBWwdkhKQ2I2P9G1IBTYeNJidoyxlCtgR0v0zxCIxG4AAGCDhXClkZSIXdMYkN_WENtXiiKF-Aq_qQQAlAJoCnepaombT8bt_IA_h0M-y8gm4cFH0kPa6tyjdXFHS0_8Tle2Z7K5tBuNluponTXt2i43wOZkQr0yc1chQRcgVO1B0gebXUpWRjRgMLLKutFfGQDRBNcj7Whrr0pcdLNgpw_mweJkRzjunlTi3M4i1u69yhu6047SCDnSxyWmPEau67VmzrznUwphOgrjxAlHxypvikX-2i4dT6GvDL76R5ak17eVFFn_R6xSqVzLQBR2fx0mTK7NTWFJioZuhDce_-W2yKdknOl48R2qTE7TlQR70XjEfhZJVL_nRUOFUOn3s9U7liRZVJfv9k54Cm-lhINIC27fQoQxx1m00]--></g></svg>