<?xml version="1.0" encoding="us-ascii" standalone="no"?><svg xmlns="http://www.w3.org/2000/svg" xmlns:xlink="http://www.w3.org/1999/xlink" contentStyleType="text/css" height="1469px" preserveAspectRatio="none" style="width:1220px;height:1469px;background:#FFFFFF;" version="1.1" viewBox="0 0 1220 1469" width="1220px" zoomAndPan="magnify"><defs/><g><text fill="#000000" font-family="sans-serif" font-size="14" font-weight="bold" lengthAdjust="spacing" textLength="168" x="524.5" y="33.5352">&#35330;&#21934;&#31995;&#32113;&#20027;&#35201;&#26989;&#21209;&#27969;&#31243;&#27010;&#35261;</text><rect fill="none" height="16.4883" style="stroke:none;stroke-width:1.0;" width="1187" x="15" y="48.9414"/><ellipse cx="304" cy="80.4297" fill="#222222" rx="10" ry="10" style="stroke:#222222;stroke-width:1.0;"/><rect fill="#EEEEEE" height="33.7988" rx="12.5" ry="12.5" style="stroke:#333333;stroke-width:0.5;" width="68" x="270" y="110.4297"/><text fill="#000000" font-family="Arial" font-size="12" lengthAdjust="spacing" textLength="48" x="280" y="131.6855">&#28687;&#35261;&#21830;&#21697;</text><rect fill="#EEEEEE" height="33.7988" rx="12.5" ry="12.5" style="stroke:#333333;stroke-width:0.5;" width="68" x="270" y="164.2285"/><text fill="#000000" font-family="Arial" font-size="12" lengthAdjust="spacing" textLength="48" x="280" y="185.4844">&#36984;&#25799;&#21830;&#21697;</text><rect fill="#EEEEEE" height="33.7988" rx="12.5" ry="12.5" style="stroke:#333333;stroke-width:0.5;" width="68" x="270" y="218.0273"/><text fill="#000000" font-family="Arial" font-size="12" lengthAdjust="spacing" textLength="48" x="280" y="239.2832">&#24314;&#31435;&#35330;&#21934;</text><rect fill="#EEEEEE" height="33.7988" rx="12.5" ry="12.5" style="stroke:#333333;stroke-width:0.5;" width="92" x="258" y="271.8262"/><text fill="#000000" font-family="Arial" font-size="12" lengthAdjust="spacing" textLength="72" x="268" y="293.082">&#28155;&#21152;&#35330;&#21934;&#38917;&#30446;</text><rect fill="#EEEEEE" height="33.7988" rx="12.5" ry="12.5" style="stroke:#333333;stroke-width:0.5;" width="68" x="270" y="325.625"/><text fill="#000000" font-family="Arial" font-size="12" lengthAdjust="spacing" textLength="48" x="280" y="346.8809">&#25552;&#20132;&#35330;&#21934;</text><rect fill="#EEEEEE" height="33.7988" rx="12.5" ry="12.5" style="stroke:#333333;stroke-width:0.5;" width="68" x="21" y="1118.2109"/><text fill="#000000" font-family="Arial" font-size="12" lengthAdjust="spacing" textLength="48" x="31" y="1139.4668">&#25509;&#25910;&#35330;&#21934;</text><rect fill="#EEEEEE" height="33.7988" rx="12.5" ry="12.5" style="stroke:#333333;stroke-width:0.5;" width="68" x="21" y="1172.0098"/><text fill="#000000" font-family="Arial" font-size="12" lengthAdjust="spacing" textLength="48" x="31" y="1193.2656">&#30906;&#35469;&#25910;&#36008;</text><rect fill="#EEEEEE" height="33.7988" rx="12.5" ry="12.5" style="stroke:#333333;stroke-width:0.5;" width="116" x="99" y="903.0156"/><text fill="#000000" font-family="Arial" font-size="12" lengthAdjust="spacing" textLength="96" x="109" y="924.2715">&#25910;&#21040;&#25903;&#20184;&#22833;&#25943;&#36890;&#30693;</text><rect fill="#EEEEEE" height="33.7988" rx="12.5" ry="12.5" style="stroke:#333333;stroke-width:0.5;" width="116" x="225" y="697.6191"/><text fill="#000000" font-family="Arial" font-size="12" lengthAdjust="spacing" textLength="96" x="235" y="718.875">&#25910;&#21040;&#24235;&#23384;&#19981;&#36275;&#36890;&#30693;</text><rect fill="#EEEEEE" height="33.7988" rx="12.5" ry="12.5" style="stroke:#333333;stroke-width:0.5;" width="116" x="364" y="599.8203"/><text fill="#000000" font-family="Arial" font-size="12" lengthAdjust="spacing" textLength="96" x="374" y="621.0762">&#25910;&#21040;&#35330;&#21934;&#28961;&#25928;&#36890;&#30693;</text><rect fill="#EEEEEE" height="33.7988" rx="12.5" ry="12.5" style="stroke:#333333;stroke-width:0.5;" width="100" x="254" y="1381.6074"/><text fill="#000000" font-family="Arial" font-size="12" lengthAdjust="spacing" textLength="80" x="264" y="1402.8633">&#35413;&#20729;&#35330;&#21934;(&#21487;&#36984;)</text><ellipse cx="304" cy="1446.4063" fill="none" rx="11" ry="11" style="stroke:#222222;stroke-width:1.0;"/><ellipse cx="304" cy="1446.4063" fill="#222222" rx="6" ry="6" style="stroke:#111111;stroke-width:1.0;"/><line style="stroke:#333333;stroke-width:2.0;" x1="15" x2="15" y1="48.9414" y2="1457.4063"/><rect fill="#EEEEEE" height="33.7988" rx="12.5" ry="12.5" style="stroke:#333333;stroke-width:0.5;" width="68" x="781" y="379.4238"/><text fill="#000000" font-family="Arial" font-size="12" lengthAdjust="spacing" textLength="48" x="791" y="400.6797">&#39511;&#35657;&#35330;&#21934;</text><polygon fill="#EEEEEE" points="790,433.2227,840,433.2227,852,445.2227,840,457.2227,790,457.2227,778,445.2227,790,433.2227" style="stroke:#333333;stroke-width:0.5;"/><text fill="#000000" font-family="Arial" font-size="11" lengthAdjust="spacing" textLength="50" x="790" y="449.2161">&#35330;&#21934;&#26377;&#25928;?</text><text fill="#000000" font-family="sans-serif" font-size="11" lengthAdjust="spacing" textLength="11" x="767" y="442.9023">&#26159;</text><text fill="#000000" font-family="sans-serif" font-size="11" lengthAdjust="spacing" textLength="11" x="852" y="442.9023">&#21542;</text><rect fill="#EEEEEE" height="33.7988" rx="12.5" ry="12.5" style="stroke:#333333;stroke-width:0.5;" width="68" x="656" y="477.2227"/><text fill="#000000" font-family="Arial" font-size="12" lengthAdjust="spacing" textLength="48" x="666" y="498.4785">&#27298;&#26597;&#24235;&#23384;</text><polygon fill="#EEEEEE" points="665,531.0215,715,531.0215,727,543.0215,715,555.0215,665,555.0215,653,543.0215,665,531.0215" style="stroke:#333333;stroke-width:0.5;"/><text fill="#000000" font-family="Arial" font-size="11" lengthAdjust="spacing" textLength="50" x="665" y="547.0149">&#24235;&#23384;&#20805;&#36275;?</text><text fill="#000000" font-family="sans-serif" font-size="11" lengthAdjust="spacing" textLength="11" x="642" y="540.7012">&#26159;</text><text fill="#000000" font-family="sans-serif" font-size="11" lengthAdjust="spacing" textLength="11" x="727" y="540.7012">&#21542;</text><rect fill="#EEEEEE" height="33.7988" rx="12.5" ry="12.5" style="stroke:#333333;stroke-width:0.5;" width="68" x="552" y="575.0215"/><text fill="#000000" font-family="Arial" font-size="12" lengthAdjust="spacing" textLength="48" x="562" y="596.2773">&#34389;&#29702;&#25903;&#20184;</text><rect fill="#EEEEEE" height="33.7988" rx="12.5" ry="12.5" style="stroke:#333333;stroke-width:0.5;" width="68" x="490" y="795.418"/><text fill="#000000" font-family="Arial" font-size="12" lengthAdjust="spacing" textLength="48" x="500" y="816.6738">&#30906;&#35469;&#35330;&#21934;</text><rect fill="#EEEEEE" height="33.7988" rx="12.5" ry="12.5" style="stroke:#333333;stroke-width:0.5;" width="68" x="490" y="849.2168"/><text fill="#000000" font-family="Arial" font-size="12" lengthAdjust="spacing" textLength="48" x="500" y="870.4727">&#23433;&#25490;&#37197;&#36865;</text><rect fill="#EEEEEE" height="33.7988" rx="12.5" ry="12.5" style="stroke:#333333;stroke-width:0.5;" width="68" x="490" y="1225.8086"/><text fill="#000000" font-family="Arial" font-size="12" lengthAdjust="spacing" textLength="48" x="500" y="1247.0645">&#23436;&#25104;&#35330;&#21934;</text><rect fill="#EEEEEE" height="33.7988" rx="12.5" ry="12.5" style="stroke:#333333;stroke-width:0.5;" width="68" x="614" y="795.418"/><text fill="#000000" font-family="Arial" font-size="12" lengthAdjust="spacing" textLength="48" x="624" y="816.6738">&#21462;&#28040;&#35330;&#21934;</text><rect fill="#EEEEEE" height="33.7988" rx="12.5" ry="12.5" style="stroke:#333333;stroke-width:0.5;" width="116" x="590" y="849.2168"/><text fill="#000000" font-family="Arial" font-size="12" lengthAdjust="spacing" textLength="96" x="600" y="870.4727">&#36890;&#30693;&#23458;&#25142;&#25903;&#20184;&#22833;&#25943;</text><rect fill="#EEEEEE" height="33.7988" rx="12.5" ry="12.5" style="stroke:#333333;stroke-width:0.5;" width="68" x="760" y="575.0215"/><text fill="#000000" font-family="Arial" font-size="12" lengthAdjust="spacing" textLength="48" x="770" y="596.2773">&#21462;&#28040;&#35330;&#21934;</text><rect fill="#EEEEEE" height="33.7988" rx="12.5" ry="12.5" style="stroke:#333333;stroke-width:0.5;" width="116" x="736" y="643.8203"/><text fill="#000000" font-family="Arial" font-size="12" lengthAdjust="spacing" textLength="96" x="746" y="665.0762">&#36890;&#30693;&#23458;&#25142;&#24235;&#23384;&#19981;&#36275;</text><polygon fill="#EEEEEE" points="690,1303.6074,702,1315.6074,690,1327.6074,678,1315.6074,690,1303.6074" style="stroke:#333333;stroke-width:0.5;"/><rect fill="#EEEEEE" height="33.7988" rx="12.5" ry="12.5" style="stroke:#333333;stroke-width:0.5;" width="68" x="897" y="477.2227"/><text fill="#000000" font-family="Arial" font-size="12" lengthAdjust="spacing" textLength="48" x="907" y="498.4785">&#25298;&#32085;&#35330;&#21934;</text><rect fill="#EEEEEE" height="33.7988" rx="12.5" ry="12.5" style="stroke:#333333;stroke-width:0.5;" width="116" x="873" y="531.0215"/><text fill="#000000" font-family="Arial" font-size="12" lengthAdjust="spacing" textLength="96" x="883" y="552.2773">&#36890;&#30693;&#23458;&#25142;&#35330;&#21934;&#28961;&#25928;</text><polygon fill="#EEEEEE" points="815,1337.6074,827,1349.6074,815,1361.6074,803,1349.6074,815,1337.6074" style="stroke:#333333;stroke-width:0.5;"/><line style="stroke:#333333;stroke-width:2.0;" x1="484" x2="484" y1="48.9414" y2="1457.4063"/><rect fill="#EEEEEE" height="33.7988" rx="12.5" ry="12.5" style="stroke:#333333;stroke-width:0.5;" width="92" x="1000" y="643.8203"/><text fill="#000000" font-family="Arial" font-size="12" lengthAdjust="spacing" textLength="72" x="1010" y="665.0762">&#39511;&#35657;&#25903;&#20184;&#20449;&#24687;</text><rect fill="#EEEEEE" height="33.7988" rx="12.5" ry="12.5" style="stroke:#333333;stroke-width:0.5;" width="92" x="1000" y="697.6191"/><text fill="#000000" font-family="Arial" font-size="12" lengthAdjust="spacing" textLength="72" x="1010" y="718.875">&#22519;&#34892;&#25903;&#20184;&#20132;&#26131;</text><polygon fill="#EEEEEE" points="1021,751.418,1071,751.418,1083,763.418,1071,775.418,1021,775.418,1009,763.418,1021,751.418" style="stroke:#333333;stroke-width:0.5;"/><text fill="#000000" font-family="Arial" font-size="11" lengthAdjust="spacing" textLength="50" x="1021" y="767.4114">&#25903;&#20184;&#25104;&#21151;?</text><text fill="#000000" font-family="sans-serif" font-size="11" lengthAdjust="spacing" textLength="11" x="998" y="761.0977">&#26159;</text><text fill="#000000" font-family="sans-serif" font-size="11" lengthAdjust="spacing" textLength="11" x="1083" y="761.0977">&#21542;</text><polygon fill="#EEEEEE" points="1046,1269.6074,1058,1281.6074,1046,1293.6074,1034,1281.6074,1046,1269.6074" style="stroke:#333333;stroke-width:0.5;"/><line style="stroke:#333333;stroke-width:2.0;" x1="993" x2="993" y1="48.9414" y2="1457.4063"/><rect fill="#EEEEEE" height="33.7988" rx="12.5" ry="12.5" style="stroke:#333333;stroke-width:0.5;" width="80" x="1111" y="903.0156"/><text fill="#000000" font-family="Arial" font-size="12" lengthAdjust="spacing" textLength="60" x="1121" y="924.2715">&#24314;&#31435;&#37197;&#36865;&#21934;</text><rect fill="#EEEEEE" height="33.7988" rx="12.5" ry="12.5" style="stroke:#333333;stroke-width:0.5;" width="92" x="1105" y="956.8145"/><text fill="#000000" font-family="Arial" font-size="12" lengthAdjust="spacing" textLength="72" x="1115" y="978.0703">&#20998;&#37197;&#37197;&#36865;&#36039;&#28304;</text><rect fill="#EEEEEE" height="33.7988" rx="12.5" ry="12.5" style="stroke:#333333;stroke-width:0.5;" width="68" x="1117" y="1010.6133"/><text fill="#000000" font-family="Arial" font-size="12" lengthAdjust="spacing" textLength="48" x="1127" y="1031.8691">&#22519;&#34892;&#37197;&#36865;</text><rect fill="#EEEEEE" height="33.7988" rx="12.5" ry="12.5" style="stroke:#333333;stroke-width:0.5;" width="92" x="1105" y="1064.4121"/><text fill="#000000" font-family="Arial" font-size="12" lengthAdjust="spacing" textLength="72" x="1115" y="1085.668">&#26356;&#26032;&#37197;&#36865;&#29376;&#24907;</text><line style="stroke:#333333;stroke-width:2.0;" x1="1099" x2="1099" y1="48.9414" y2="1457.4063"/><line style="stroke:#333333;stroke-width:2.0;" x1="1201" x2="1201" y1="48.9414" y2="1457.4063"/><line style="stroke:#333333;stroke-width:1.0;" x1="304" x2="304" y1="90.4297" y2="110.4297"/><polygon fill="#333333" points="300,100.4297,304,110.4297,308,100.4297,304,104.4297" style="stroke:#333333;stroke-width:1.0;"/><line style="stroke:#333333;stroke-width:1.0;" x1="304" x2="304" y1="144.2285" y2="164.2285"/><polygon fill="#333333" points="300,154.2285,304,164.2285,308,154.2285,304,158.2285" style="stroke:#333333;stroke-width:1.0;"/><line style="stroke:#333333;stroke-width:1.0;" x1="304" x2="304" y1="198.0273" y2="218.0273"/><polygon fill="#333333" points="300,208.0273,304,218.0273,308,208.0273,304,212.0273" style="stroke:#333333;stroke-width:1.0;"/><line style="stroke:#333333;stroke-width:1.0;" x1="304" x2="304" y1="251.8262" y2="271.8262"/><polygon fill="#333333" points="300,261.8262,304,271.8262,308,261.8262,304,265.8262" style="stroke:#333333;stroke-width:1.0;"/><line style="stroke:#333333;stroke-width:1.0;" x1="304" x2="304" y1="305.625" y2="325.625"/><polygon fill="#333333" points="300,315.625,304,325.625,308,315.625,304,319.625" style="stroke:#333333;stroke-width:1.0;"/><line style="stroke:#333333;stroke-width:1.0;" x1="55" x2="55" y1="1152.0098" y2="1172.0098"/><polygon fill="#333333" points="51,1162.0098,55,1172.0098,59,1162.0098,55,1166.0098" style="stroke:#333333;stroke-width:1.0;"/><line style="stroke:#333333;stroke-width:1.0;" x1="304" x2="304" y1="1415.4063" y2="1435.4063"/><polygon fill="#333333" points="300,1425.4063,304,1435.4063,308,1425.4063,304,1429.4063" style="stroke:#333333;stroke-width:1.0;"/><line style="stroke:#333333;stroke-width:1.0;" x1="524" x2="524" y1="829.2168" y2="849.2168"/><polygon fill="#333333" points="520,839.2168,524,849.2168,528,839.2168,524,843.2168" style="stroke:#333333;stroke-width:1.0;"/><line style="stroke:#333333;stroke-width:1.0;" x1="648" x2="648" y1="829.2168" y2="849.2168"/><polygon fill="#333333" points="644,839.2168,648,849.2168,652,839.2168,648,843.2168" style="stroke:#333333;stroke-width:1.0;"/><line style="stroke:#333333;stroke-width:1.0;" x1="794" x2="794" y1="608.8203" y2="643.8203"/><polygon fill="#333333" points="790,633.8203,794,643.8203,798,633.8203,794,637.8203" style="stroke:#333333;stroke-width:1.0;"/><line style="stroke:#333333;stroke-width:1.0;" x1="653" x2="586" y1="543.0215" y2="543.0215"/><line style="stroke:#333333;stroke-width:1.0;" x1="586" x2="586" y1="543.0215" y2="575.0215"/><polygon fill="#333333" points="582,565.0215,586,575.0215,590,565.0215,586,569.0215" style="stroke:#333333;stroke-width:1.0;"/><line style="stroke:#333333;stroke-width:1.0;" x1="727" x2="794" y1="543.0215" y2="543.0215"/><line style="stroke:#333333;stroke-width:1.0;" x1="794" x2="794" y1="543.0215" y2="575.0215"/><polygon fill="#333333" points="790,565.0215,794,575.0215,798,565.0215,794,569.0215" style="stroke:#333333;stroke-width:1.0;"/><line style="stroke:#333333;stroke-width:1.0;" x1="690" x2="690" y1="511.0215" y2="531.0215"/><polygon fill="#333333" points="686,521.0215,690,531.0215,694,521.0215,690,525.0215" style="stroke:#333333;stroke-width:1.0;"/><line style="stroke:#333333;stroke-width:1.0;" x1="931" x2="931" y1="511.0215" y2="531.0215"/><polygon fill="#333333" points="927,521.0215,931,531.0215,935,521.0215,931,525.0215" style="stroke:#333333;stroke-width:1.0;"/><line style="stroke:#333333;stroke-width:1.0;" x1="778" x2="690" y1="445.2227" y2="445.2227"/><line style="stroke:#333333;stroke-width:1.0;" x1="690" x2="690" y1="445.2227" y2="477.2227"/><polygon fill="#333333" points="686,467.2227,690,477.2227,694,467.2227,690,471.2227" style="stroke:#333333;stroke-width:1.0;"/><line style="stroke:#333333;stroke-width:1.0;" x1="852" x2="931" y1="445.2227" y2="445.2227"/><line style="stroke:#333333;stroke-width:1.0;" x1="931" x2="931" y1="445.2227" y2="477.2227"/><polygon fill="#333333" points="927,467.2227,931,477.2227,935,467.2227,931,471.2227" style="stroke:#333333;stroke-width:1.0;"/><line style="stroke:#333333;stroke-width:1.0;" x1="690" x2="690" y1="1327.6074" y2="1349.6074"/><line style="stroke:#333333;stroke-width:1.0;" x1="690" x2="803" y1="1349.6074" y2="1349.6074"/><polygon fill="#333333" points="793,1345.6074,803,1349.6074,793,1353.6074,797,1349.6074" style="stroke:#333333;stroke-width:1.0;"/><line style="stroke:#333333;stroke-width:1.0;" x1="815" x2="815" y1="413.2227" y2="433.2227"/><polygon fill="#333333" points="811,423.2227,815,433.2227,819,423.2227,815,427.2227" style="stroke:#333333;stroke-width:1.0;"/><line style="stroke:#333333;stroke-width:1.0;" x1="1046" x2="1046" y1="677.6191" y2="697.6191"/><polygon fill="#333333" points="1042,687.6191,1046,697.6191,1050,687.6191,1046,691.6191" style="stroke:#333333;stroke-width:1.0;"/><line style="stroke:#333333;stroke-width:1.0;" x1="1046" x2="1046" y1="731.418" y2="751.418"/><polygon fill="#333333" points="1042,741.418,1046,751.418,1050,741.418,1046,745.418" style="stroke:#333333;stroke-width:1.0;"/><line style="stroke:#333333;stroke-width:1.0;" x1="1151" x2="1151" y1="936.8145" y2="956.8145"/><polygon fill="#333333" points="1147,946.8145,1151,956.8145,1155,946.8145,1151,950.8145" style="stroke:#333333;stroke-width:1.0;"/><line style="stroke:#333333;stroke-width:1.0;" x1="1151" x2="1151" y1="990.6133" y2="1010.6133"/><polygon fill="#333333" points="1147,1000.6133,1151,1010.6133,1155,1000.6133,1151,1004.6133" style="stroke:#333333;stroke-width:1.0;"/><line style="stroke:#333333;stroke-width:1.0;" x1="1151" x2="1151" y1="1044.4121" y2="1064.4121"/><polygon fill="#333333" points="1147,1054.4121,1151,1064.4121,1155,1054.4121,1151,1058.4121" style="stroke:#333333;stroke-width:1.0;"/><line style="stroke:#333333;stroke-width:1.0;" x1="304" x2="304" y1="359.4238" y2="364.4238"/><line style="stroke:#333333;stroke-width:1.0;" x1="304" x2="815" y1="364.4238" y2="364.4238"/><line style="stroke:#333333;stroke-width:1.0;" x1="815" x2="815" y1="364.4238" y2="379.4238"/><polygon fill="#333333" points="811,369.4238,815,379.4238,819,369.4238,815,373.4238" style="stroke:#333333;stroke-width:1.0;"/><line style="stroke:#333333;stroke-width:1.0;" x1="586" x2="586" y1="608.8203" y2="626.3203"/><line style="stroke:#333333;stroke-width:1.0;" x1="586" x2="1046" y1="626.3203" y2="626.3203"/><line style="stroke:#333333;stroke-width:1.0;" x1="1046" x2="1046" y1="626.3203" y2="643.8203"/><polygon fill="#333333" points="1042,633.8203,1046,643.8203,1050,633.8203,1046,637.8203" style="stroke:#333333;stroke-width:1.0;"/><line style="stroke:#333333;stroke-width:1.0;" x1="524" x2="524" y1="883.0156" y2="888.0156"/><line style="stroke:#333333;stroke-width:1.0;" x1="524" x2="1151" y1="888.0156" y2="888.0156"/><line style="stroke:#333333;stroke-width:1.0;" x1="1151" x2="1151" y1="888.0156" y2="903.0156"/><polygon fill="#333333" points="1147,893.0156,1151,903.0156,1155,893.0156,1151,897.0156" style="stroke:#333333;stroke-width:1.0;"/><line style="stroke:#333333;stroke-width:1.0;" x1="1151" x2="1151" y1="1098.2109" y2="1103.2109"/><line style="stroke:#333333;stroke-width:1.0;" x1="1151" x2="55" y1="1103.2109" y2="1103.2109"/><line style="stroke:#333333;stroke-width:1.0;" x1="55" x2="55" y1="1103.2109" y2="1118.2109"/><polygon fill="#333333" points="51,1108.2109,55,1118.2109,59,1108.2109,55,1112.2109" style="stroke:#333333;stroke-width:1.0;"/><line style="stroke:#333333;stroke-width:1.0;" x1="55" x2="55" y1="1205.8086" y2="1210.8086"/><line style="stroke:#333333;stroke-width:1.0;" x1="55" x2="524" y1="1210.8086" y2="1210.8086"/><line style="stroke:#333333;stroke-width:1.0;" x1="524" x2="524" y1="1210.8086" y2="1225.8086"/><polygon fill="#333333" points="520,1215.8086,524,1225.8086,528,1215.8086,524,1219.8086" style="stroke:#333333;stroke-width:1.0;"/><line style="stroke:#333333;stroke-width:1.0;" x1="648" x2="648" y1="883.0156" y2="888.0156"/><line style="stroke:#333333;stroke-width:1.0;" x1="648" x2="157" y1="888.0156" y2="888.0156"/><line style="stroke:#333333;stroke-width:1.0;" x1="157" x2="157" y1="888.0156" y2="903.0156"/><polygon fill="#333333" points="153,893.0156,157,903.0156,161,893.0156,157,897.0156" style="stroke:#333333;stroke-width:1.0;"/><line style="stroke:#333333;stroke-width:1.0;" x1="1009" x2="524" y1="763.418" y2="763.418"/><line style="stroke:#333333;stroke-width:1.0;" x1="524" x2="524" y1="763.418" y2="795.418"/><polygon fill="#333333" points="520,785.418,524,795.418,528,785.418,524,789.418" style="stroke:#333333;stroke-width:1.0;"/><line style="stroke:#333333;stroke-width:1.0;" x1="1083" x2="1095" y1="763.418" y2="763.418"/><line style="stroke:#333333;stroke-width:1.0;" x1="1095" x2="1095" y1="763.418" y2="781.418"/><line style="stroke:#333333;stroke-width:1.0;" x1="1095" x2="648" y1="781.418" y2="781.418"/><line style="stroke:#333333;stroke-width:1.0;" x1="648" x2="648" y1="781.418" y2="795.418"/><polygon fill="#333333" points="644,785.418,648,795.418,652,785.418,648,789.418" style="stroke:#333333;stroke-width:1.0;"/><line style="stroke:#333333;stroke-width:1.0;" x1="524" x2="524" y1="1259.6074" y2="1281.6074"/><line style="stroke:#333333;stroke-width:1.0;" x1="524" x2="1034" y1="1281.6074" y2="1281.6074"/><polygon fill="#333333" points="1024,1277.6074,1034,1281.6074,1024,1285.6074,1028,1281.6074" style="stroke:#333333;stroke-width:1.0;"/><line style="stroke:#333333;stroke-width:1.0;" x1="157" x2="157" y1="936.8145" y2="1263.6074"/><line style="stroke:#333333;stroke-width:1.0;" x1="157" x2="1076" y1="1263.6074" y2="1263.6074"/><line style="stroke:#333333;stroke-width:1.0;" x1="1076" x2="1076" y1="1263.6074" y2="1281.6074"/><line style="stroke:#333333;stroke-width:1.0;" x1="1076" x2="1058" y1="1281.6074" y2="1281.6074"/><polygon fill="#333333" points="1068,1277.6074,1058,1281.6074,1068,1285.6074,1064,1281.6074" style="stroke:#333333;stroke-width:1.0;"/><line style="stroke:#333333;stroke-width:1.0;" x1="794" x2="794" y1="677.6191" y2="682.6191"/><line style="stroke:#333333;stroke-width:1.0;" x1="794" x2="283" y1="682.6191" y2="682.6191"/><line style="stroke:#333333;stroke-width:1.0;" x1="283" x2="283" y1="682.6191" y2="697.6191"/><polygon fill="#333333" points="279,687.6191,283,697.6191,287,687.6191,283,691.6191" style="stroke:#333333;stroke-width:1.0;"/><line style="stroke:#333333;stroke-width:1.0;" x1="1046" x2="1046" y1="1293.6074" y2="1297.6074"/><line style="stroke:#333333;stroke-width:1.0;" x1="1046" x2="660" y1="1297.6074" y2="1297.6074"/><line style="stroke:#333333;stroke-width:1.0;" x1="660" x2="660" y1="1297.6074" y2="1315.6074"/><line style="stroke:#333333;stroke-width:1.0;" x1="660" x2="678" y1="1315.6074" y2="1315.6074"/><polygon fill="#333333" points="668,1311.6074,678,1315.6074,668,1319.6074,672,1315.6074" style="stroke:#333333;stroke-width:1.0;"/><line style="stroke:#333333;stroke-width:1.0;" x1="283" x2="283" y1="731.418" y2="1297.6074"/><line style="stroke:#333333;stroke-width:1.0;" x1="283" x2="720" y1="1297.6074" y2="1297.6074"/><line style="stroke:#333333;stroke-width:1.0;" x1="720" x2="720" y1="1297.6074" y2="1315.6074"/><line style="stroke:#333333;stroke-width:1.0;" x1="720" x2="702" y1="1315.6074" y2="1315.6074"/><polygon fill="#333333" points="712,1311.6074,702,1315.6074,712,1319.6074,708,1315.6074" style="stroke:#333333;stroke-width:1.0;"/><line style="stroke:#333333;stroke-width:1.0;" x1="931" x2="931" y1="564.8203" y2="582.3203"/><line style="stroke:#333333;stroke-width:1.0;" x1="931" x2="422" y1="582.3203" y2="582.3203"/><line style="stroke:#333333;stroke-width:1.0;" x1="422" x2="422" y1="582.3203" y2="599.8203"/><polygon fill="#333333" points="418,589.8203,422,599.8203,426,589.8203,422,593.8203" style="stroke:#333333;stroke-width:1.0;"/><line style="stroke:#333333;stroke-width:1.0;" x1="422" x2="422" y1="633.6191" y2="1331.6074"/><line style="stroke:#333333;stroke-width:1.0;" x1="422" x2="845" y1="1331.6074" y2="1331.6074"/><line style="stroke:#333333;stroke-width:1.0;" x1="845" x2="845" y1="1331.6074" y2="1349.6074"/><line style="stroke:#333333;stroke-width:1.0;" x1="845" x2="827" y1="1349.6074" y2="1349.6074"/><polygon fill="#333333" points="837,1345.6074,827,1349.6074,837,1353.6074,833,1349.6074" style="stroke:#333333;stroke-width:1.0;"/><line style="stroke:#333333;stroke-width:1.0;" x1="815" x2="815" y1="1361.6074" y2="1366.6074"/><line style="stroke:#333333;stroke-width:1.0;" x1="815" x2="304" y1="1366.6074" y2="1366.6074"/><line style="stroke:#333333;stroke-width:1.0;" x1="304" x2="304" y1="1366.6074" y2="1381.6074"/><polygon fill="#333333" points="300,1371.6074,304,1381.6074,308,1371.6074,304,1375.6074" style="stroke:#333333;stroke-width:1.0;"/><text fill="#006699" font-family="sans-serif" font-size="14" lengthAdjust="spacing" textLength="28" x="235.5" y="62.4766">&#23458;&#25142;</text><text fill="#006699" font-family="sans-serif" font-size="14" lengthAdjust="spacing" textLength="56" x="710.5" y="62.4766">&#35330;&#21934;&#31995;&#32113;</text><text fill="#006699" font-family="sans-serif" font-size="14" lengthAdjust="spacing" textLength="56" x="1018" y="62.4766">&#25903;&#20184;&#31995;&#32113;</text><text fill="#006699" font-family="sans-serif" font-size="14" lengthAdjust="spacing" textLength="56" x="1122" y="62.4766">&#29289;&#27969;&#31995;&#32113;</text><!--SRC=[XPJBRjf058RtVegHke5TUb6ac4MLLksoc-O5B70Q2x0ZsstKbagG5c924b2uX3IL20WG90AIKWWrgleopDYyHSSpDjWERKT8QFvp_dE-kNYKg23kSZ8N1rnO5Tu9wdlmaG5uFEF2qJUoz5QCF9TYaWmUl223nYGvmiks_fWCeh-KHFKL5-V1fYnmCI9johAqvytyn33Aegko9yHZdCWxNVzIcUfREq8uAlAA0XuHTKjGOxpLr3QihQslRsnuGw-53pnu-CJggbeQC3lxiD8tXbDZT3kRJCrs2hLwC7UEHYcZaqFjVRFzYs4IiDz0sZZ1A2edgmnh9FDOX-KCBAP233jFJL3nO365Kzsupj7AU8hkfl3maaxdbsdZWeZvmanlEZbCmisHm1MxPsOlkmWBso109-XR5fMrfq6Wxl0Y2A3g88XNoAAh1ggre7uDUzKG5l3Fyb01fjFcUEZtO9TvNZOA6LGQpAR4HNm09AZYm91K2aG3izzrb1fG0mjhTsRzo0xeJLGjkYfP33I4j08yhDrdmDsyIwSYQpHqy-hOsG1RXFqiEZcTfu_doPGZEbMCRDSwCsyLUXBKu2caPIoHwERm0Ec5POYinzk3HHS_KEM6YaOkYT8vVtldWZY6anOgZNtuT4sM_htZzw_S1DW_mllchKB- -9Z2uzCjjF-zYJ1VGMFDHp5FVZNmLI6yz6nWynQLp_wtej8OQZTk0or4RRmO4RQTS_VHhM1RGURXelTsDZd6zzPzCTrCDf4xTKday30UbdiaBCgT6gFoaiD3OMT_gUClplweN0HsVtUIqvzsNxuQhDajmyy_QMe0vWVumGY6y6CYxJ9_0000]--></g></svg>