<?xml version="1.0" encoding="us-ascii" standalone="no"?><svg xmlns="http://www.w3.org/2000/svg" xmlns:xlink="http://www.w3.org/1999/xlink" contentStyleType="text/css" height="670px" preserveAspectRatio="none" style="width:2125px;height:670px;background:#FFFFFF;" version="1.1" viewBox="0 0 2125 670" width="2125px" zoomAndPan="magnify"><defs/><g><!--cluster InterfacesLayer--><g id="cluster_InterfacesLayer"><path d="M8.5,6 L180.5,6 A3.75,3.75 0 0 1 183,8.5 L190,28.4883 L663.5,28.4883 A2.5,2.5 0 0 1 666,30.9883 L666,116.98 A2.5,2.5 0 0 1 663.5,119.48 L8.5,119.48 A2.5,2.5 0 0 1 6,116.98 L6,8.5 A2.5,2.5 0 0 1 8.5,6 " fill="none" style="stroke:#000000;stroke-width:1.5;"/><line style="stroke:#000000;stroke-width:1.5;" x1="6" x2="190" y1="28.4883" y2="28.4883"/><text fill="#000000" font-family="sans-serif" font-size="14" font-weight="bold" lengthAdjust="spacing" textLength="171" x="10" y="21.5352">&#20171;&#38754;&#23652; (Interfaces Layer)</text></g><!--cluster ApplicationLayer--><g id="cluster_ApplicationLayer"><path d="M195.5,202.48 L378.5,202.48 A3.75,3.75 0 0 1 381,204.98 L388,224.9683 L500.5,224.9683 A2.5,2.5 0 0 1 503,227.4683 L503,431.68 A2.5,2.5 0 0 1 500.5,434.18 L195.5,434.18 A2.5,2.5 0 0 1 193,431.68 L193,204.98 A2.5,2.5 0 0 1 195.5,202.48 " fill="none" style="stroke:#000000;stroke-width:1.5;"/><line style="stroke:#000000;stroke-width:1.5;" x1="193" x2="388" y1="224.9683" y2="224.9683"/><text fill="#000000" font-family="sans-serif" font-size="14" font-weight="bold" lengthAdjust="spacing" textLength="182" x="197" y="218.0152">&#25033;&#29992;&#23652; (Application Layer)</text></g><!--cluster DomainLayer--><g id="cluster_DomainLayer"><path d="M545.5,320.69 L702.5,320.69 A3.75,3.75 0 0 1 705,323.19 L712,343.1783 L912.5,343.1783 A2.5,2.5 0 0 1 915,345.6783 L915,661.38 A2.5,2.5 0 0 1 912.5,663.88 L545.5,663.88 A2.5,2.5 0 0 1 543,661.38 L543,323.19 A2.5,2.5 0 0 1 545.5,320.69 " fill="none" style="stroke:#000000;stroke-width:1.5;"/><line style="stroke:#000000;stroke-width:1.5;" x1="543" x2="712" y1="343.1783" y2="343.1783"/><text fill="#000000" font-family="sans-serif" font-size="14" font-weight="bold" lengthAdjust="spacing" textLength="156" x="547" y="336.2252">&#38936;&#22495;&#23652; (Domain Layer)</text></g><!--cluster InfrastructureLayer--><g id="cluster_InfrastructureLayer"><path d="M957.5,159.48 L1185.5,159.48 A3.75,3.75 0 0 1 1188,161.98 L1195,181.9683 L1755.5,181.9683 A2.5,2.5 0 0 1 1758,184.4683 L1758,566.89 A2.5,2.5 0 0 1 1755.5,569.39 L957.5,569.39 A2.5,2.5 0 0 1 955,566.89 L955,161.98 A2.5,2.5 0 0 1 957.5,159.48 " fill="none" style="stroke:#000000;stroke-width:1.5;"/><line style="stroke:#000000;stroke-width:1.5;" x1="955" x2="1195" y1="181.9683" y2="181.9683"/><text fill="#000000" font-family="sans-serif" font-size="14" font-weight="bold" lengthAdjust="spacing" textLength="227" x="959" y="175.0152">&#22522;&#30990;&#35373;&#26045;&#23652; (Infrastructure Layer)</text></g><!--cluster Persistence--><g id="cluster_Persistence"><path d="M997.5,210.48 L1137.5,210.48 A3.75,3.75 0 0 1 1140,212.98 L1147,232.9683 L1147.5,232.9683 A2.5,2.5 0 0 1 1150,235.4683 L1150,534.89 A2.5,2.5 0 0 1 1147.5,537.39 L997.5,537.39 A2.5,2.5 0 0 1 995,534.89 L995,212.98 A2.5,2.5 0 0 1 997.5,210.48 " fill="none" style="stroke:#000000;stroke-width:1.5;"/><line style="stroke:#000000;stroke-width:1.5;" x1="995" x2="1147" y1="232.9683" y2="232.9683"/><text fill="#000000" font-family="sans-serif" font-size="14" font-weight="bold" lengthAdjust="spacing" textLength="139" x="999" y="226.0152">&#25345;&#20037;&#21270; (Persistence)</text></g><!--cluster External--><g id="cluster_External"><path d="M1176.5,210.48 L1306.5,210.48 A3.75,3.75 0 0 1 1309,212.98 L1316,232.9683 L1480.5,232.9683 A2.5,2.5 0 0 1 1483,235.4683 L1483,423.68 A2.5,2.5 0 0 1 1480.5,426.18 L1176.5,426.18 A2.5,2.5 0 0 1 1174,423.68 L1174,212.98 A2.5,2.5 0 0 1 1176.5,210.48 " fill="none" style="stroke:#000000;stroke-width:1.5;"/><line style="stroke:#000000;stroke-width:1.5;" x1="1174" x2="1316" y1="232.9683" y2="232.9683"/><text fill="#000000" font-family="sans-serif" font-size="14" font-weight="bold" lengthAdjust="spacing" textLength="129" x="1178" y="226.0152">&#22806;&#37096;&#31995;&#32113; (External)</text></g><!--cluster CrossCutting--><g id="cluster_CrossCutting"><path d="M1509.5,210.48 L1713.5,210.48 A3.75,3.75 0 0 1 1716,212.98 L1723,232.9683 L1723.5,232.9683 A2.5,2.5 0 0 1 1726,235.4683 L1726,423.68 A2.5,2.5 0 0 1 1723.5,426.18 L1509.5,426.18 A2.5,2.5 0 0 1 1507,423.68 L1507,212.98 A2.5,2.5 0 0 1 1509.5,210.48 " fill="none" style="stroke:#000000;stroke-width:1.5;"/><line style="stroke:#000000;stroke-width:1.5;" x1="1507" x2="1723" y1="232.9683" y2="232.9683"/><text fill="#000000" font-family="sans-serif" font-size="14" font-weight="bold" lengthAdjust="spacing" textLength="203" x="1511" y="226.0152">&#36328;&#20999;&#38754;&#38364;&#27880;&#40670; (Cross-Cutting)</text></g><!--entity WebControllers--><g id="elem_WebControllers"><rect fill="#F1F1F1" height="46.4883" rx="2.5" ry="2.5" style="stroke:#181818;stroke-width:0.5;" width="150" x="177" y="49"/><rect fill="#F1F1F1" height="10" style="stroke:#181818;stroke-width:0.5;" width="15" x="307" y="54"/><rect fill="#F1F1F1" height="2" style="stroke:#181818;stroke-width:0.5;" width="4" x="305" y="56"/><rect fill="#F1F1F1" height="2" style="stroke:#181818;stroke-width:0.5;" width="4" x="305" y="60"/><text fill="#000000" font-family="sans-serif" font-size="14" lengthAdjust="spacing" textLength="110" x="192" y="82.5352">Web Controllers</text></g><!--entity RestAPI--><g id="elem_RestAPI"><rect fill="#F1F1F1" height="46.4883" rx="2.5" ry="2.5" style="stroke:#181818;stroke-width:0.5;" width="100" x="362" y="49"/><rect fill="#F1F1F1" height="10" style="stroke:#181818;stroke-width:0.5;" width="15" x="442" y="54"/><rect fill="#F1F1F1" height="2" style="stroke:#181818;stroke-width:0.5;" width="4" x="440" y="56"/><rect fill="#F1F1F1" height="2" style="stroke:#181818;stroke-width:0.5;" width="4" x="440" y="60"/><text fill="#000000" font-family="sans-serif" font-size="14" lengthAdjust="spacing" textLength="60" x="377" y="82.5352">REST API</text></g><!--entity GraphQLAPI--><g id="elem_GraphQLAPI"><rect fill="#F1F1F1" height="46.4883" rx="2.5" ry="2.5" style="stroke:#181818;stroke-width:0.5;" width="126" x="497" y="49"/><rect fill="#F1F1F1" height="10" style="stroke:#181818;stroke-width:0.5;" width="15" x="603" y="54"/><rect fill="#F1F1F1" height="2" style="stroke:#181818;stroke-width:0.5;" width="4" x="601" y="56"/><rect fill="#F1F1F1" height="2" style="stroke:#181818;stroke-width:0.5;" width="4" x="601" y="60"/><text fill="#000000" font-family="sans-serif" font-size="14" lengthAdjust="spacing" textLength="86" x="512" y="82.5352">GraphQL API</text></g><!--entity InterfaceDTO--><g id="elem_InterfaceDTO"><rect fill="#F1F1F1" height="46.4883" rx="2.5" ry="2.5" style="stroke:#181818;stroke-width:0.5;" width="112" x="30" y="49"/><rect fill="#F1F1F1" height="10" style="stroke:#181818;stroke-width:0.5;" width="15" x="122" y="54"/><rect fill="#F1F1F1" height="2" style="stroke:#181818;stroke-width:0.5;" width="4" x="120" y="56"/><rect fill="#F1F1F1" height="2" style="stroke:#181818;stroke-width:0.5;" width="4" x="120" y="60"/><text fill="#000000" font-family="sans-serif" font-size="14" lengthAdjust="spacing" textLength="72" x="45" y="82.5352">&#20171;&#38754;&#23652;DTO</text></g><!--entity ApplicationServices--><g id="elem_ApplicationServices"><rect fill="#F1F1F1" height="46.4883" rx="2.5" ry="2.5" style="stroke:#181818;stroke-width:0.5;" width="96" x="364" y="245.48"/><rect fill="#F1F1F1" height="10" style="stroke:#181818;stroke-width:0.5;" width="15" x="440" y="250.48"/><rect fill="#F1F1F1" height="2" style="stroke:#181818;stroke-width:0.5;" width="4" x="438" y="252.48"/><rect fill="#F1F1F1" height="2" style="stroke:#181818;stroke-width:0.5;" width="4" x="438" y="256.48"/><text fill="#000000" font-family="sans-serif" font-size="14" lengthAdjust="spacing" textLength="56" x="379" y="279.0152">&#25033;&#29992;&#26381;&#21209;</text></g><!--entity ApplicationDTO--><g id="elem_ApplicationDTO"><rect fill="#F1F1F1" height="46.4883" rx="2.5" ry="2.5" style="stroke:#181818;stroke-width:0.5;" width="112" x="217" y="245.48"/><rect fill="#F1F1F1" height="10" style="stroke:#181818;stroke-width:0.5;" width="15" x="309" y="250.48"/><rect fill="#F1F1F1" height="2" style="stroke:#181818;stroke-width:0.5;" width="4" x="307" y="252.48"/><rect fill="#F1F1F1" height="2" style="stroke:#181818;stroke-width:0.5;" width="4" x="307" y="256.48"/><text fill="#000000" font-family="sans-serif" font-size="14" lengthAdjust="spacing" textLength="72" x="232" y="279.0152">&#25033;&#29992;&#23652;DTO</text></g><!--entity Mappers--><g id="elem_Mappers"><rect fill="#F1F1F1" height="46.4883" rx="2.5" ry="2.5" style="stroke:#181818;stroke-width:0.5;" width="82" x="235" y="363.69"/><rect fill="#F1F1F1" height="10" style="stroke:#181818;stroke-width:0.5;" width="15" x="297" y="368.69"/><rect fill="#F1F1F1" height="2" style="stroke:#181818;stroke-width:0.5;" width="4" x="295" y="370.69"/><rect fill="#F1F1F1" height="2" style="stroke:#181818;stroke-width:0.5;" width="4" x="295" y="374.69"/><text fill="#000000" font-family="sans-serif" font-size="14" lengthAdjust="spacing" textLength="42" x="250" y="397.2252">&#26144;&#23556;&#22120;</text></g><!--entity Commands--><g id="elem_Commands"><rect fill="#F1F1F1" height="46.4883" rx="2.5" ry="2.5" style="stroke:#181818;stroke-width:0.5;" width="103" x="356.5" y="363.69"/><rect fill="#F1F1F1" height="10" style="stroke:#181818;stroke-width:0.5;" width="15" x="439.5" y="368.69"/><rect fill="#F1F1F1" height="2" style="stroke:#181818;stroke-width:0.5;" width="4" x="437.5" y="370.69"/><rect fill="#F1F1F1" height="2" style="stroke:#181818;stroke-width:0.5;" width="4" x="437.5" y="374.69"/><text fill="#000000" font-family="sans-serif" font-size="14" lengthAdjust="spacing" textLength="63" x="371.5" y="397.2252">&#21629;&#20196;/&#26597;&#35426;</text></g><!--entity AggregateRoots--><g id="elem_AggregateRoots"><rect fill="#F1F1F1" height="46.4883" rx="2.5" ry="2.5" style="stroke:#181818;stroke-width:0.5;" width="82" x="570" y="474.9"/><rect fill="#F1F1F1" height="10" style="stroke:#181818;stroke-width:0.5;" width="15" x="632" y="479.9"/><rect fill="#F1F1F1" height="2" style="stroke:#181818;stroke-width:0.5;" width="4" x="630" y="481.9"/><rect fill="#F1F1F1" height="2" style="stroke:#181818;stroke-width:0.5;" width="4" x="630" y="485.9"/><text fill="#000000" font-family="sans-serif" font-size="14" lengthAdjust="spacing" textLength="42" x="585" y="508.4352">&#32858;&#21512;&#26681;</text></g><!--entity Entities--><g id="elem_Entities"><rect fill="#F1F1F1" height="46.4883" rx="2.5" ry="2.5" style="stroke:#181818;stroke-width:0.5;" width="68" x="567" y="593.39"/><rect fill="#F1F1F1" height="10" style="stroke:#181818;stroke-width:0.5;" width="15" x="615" y="598.39"/><rect fill="#F1F1F1" height="2" style="stroke:#181818;stroke-width:0.5;" width="4" x="613" y="600.39"/><rect fill="#F1F1F1" height="2" style="stroke:#181818;stroke-width:0.5;" width="4" x="613" y="604.39"/><text fill="#000000" font-family="sans-serif" font-size="14" lengthAdjust="spacing" textLength="28" x="582" y="626.9252">&#23526;&#39636;</text></g><!--entity ValueObjects--><g id="elem_ValueObjects"><rect fill="#F1F1F1" height="46.4883" rx="2.5" ry="2.5" style="stroke:#181818;stroke-width:0.5;" width="82" x="670" y="593.39"/><rect fill="#F1F1F1" height="10" style="stroke:#181818;stroke-width:0.5;" width="15" x="732" y="598.39"/><rect fill="#F1F1F1" height="2" style="stroke:#181818;stroke-width:0.5;" width="4" x="730" y="600.39"/><rect fill="#F1F1F1" height="2" style="stroke:#181818;stroke-width:0.5;" width="4" x="730" y="604.39"/><text fill="#000000" font-family="sans-serif" font-size="14" lengthAdjust="spacing" textLength="42" x="685" y="626.9252">&#20540;&#23565;&#35937;</text></g><!--entity DomainEvents--><g id="elem_DomainEvents"><rect fill="#F1F1F1" height="46.4883" rx="2.5" ry="2.5" style="stroke:#181818;stroke-width:0.5;" width="96" x="787" y="593.39"/><rect fill="#F1F1F1" height="10" style="stroke:#181818;stroke-width:0.5;" width="15" x="863" y="598.39"/><rect fill="#F1F1F1" height="2" style="stroke:#181818;stroke-width:0.5;" width="4" x="861" y="600.39"/><rect fill="#F1F1F1" height="2" style="stroke:#181818;stroke-width:0.5;" width="4" x="861" y="604.39"/><text fill="#000000" font-family="sans-serif" font-size="14" lengthAdjust="spacing" textLength="56" x="802" y="626.9252">&#38936;&#22495;&#20107;&#20214;</text></g><!--entity DomainServices--><g id="elem_DomainServices"><rect fill="#F1F1F1" height="46.4883" rx="2.5" ry="2.5" style="stroke:#181818;stroke-width:0.5;" width="96" x="567" y="363.69"/><rect fill="#F1F1F1" height="10" style="stroke:#181818;stroke-width:0.5;" width="15" x="643" y="368.69"/><rect fill="#F1F1F1" height="2" style="stroke:#181818;stroke-width:0.5;" width="4" x="641" y="370.69"/><rect fill="#F1F1F1" height="2" style="stroke:#181818;stroke-width:0.5;" width="4" x="641" y="374.69"/><text fill="#000000" font-family="sans-serif" font-size="14" lengthAdjust="spacing" textLength="56" x="582" y="397.2252">&#38936;&#22495;&#26381;&#21209;</text></g><!--entity RepositoryInterfaces--><g id="elem_RepositoryInterfaces"><rect fill="#F1F1F1" height="46.4883" rx="2.5" ry="2.5" style="stroke:#181818;stroke-width:0.5;" width="110" x="698" y="363.69"/><rect fill="#F1F1F1" height="10" style="stroke:#181818;stroke-width:0.5;" width="15" x="788" y="368.69"/><rect fill="#F1F1F1" height="2" style="stroke:#181818;stroke-width:0.5;" width="4" x="786" y="370.69"/><rect fill="#F1F1F1" height="2" style="stroke:#181818;stroke-width:0.5;" width="4" x="786" y="374.69"/><text fill="#000000" font-family="sans-serif" font-size="14" lengthAdjust="spacing" textLength="70" x="713" y="397.2252">&#20786;&#23384;&#24235;&#25509;&#21475;</text></g><!--entity Specifications--><g id="elem_Specifications"><rect fill="#F1F1F1" height="46.4883" rx="2.5" ry="2.5" style="stroke:#181818;stroke-width:0.5;" width="68" x="687" y="474.9"/><rect fill="#F1F1F1" height="10" style="stroke:#181818;stroke-width:0.5;" width="15" x="735" y="479.9"/><rect fill="#F1F1F1" height="2" style="stroke:#181818;stroke-width:0.5;" width="4" x="733" y="481.9"/><rect fill="#F1F1F1" height="2" style="stroke:#181818;stroke-width:0.5;" width="4" x="733" y="485.9"/><text fill="#000000" font-family="sans-serif" font-size="14" lengthAdjust="spacing" textLength="28" x="702" y="508.4352">&#35215;&#26684;</text></g><!--entity RepositoryImplementations--><g id="elem_RepositoryImplementations"><rect fill="#F1F1F1" height="46.4883" rx="2.5" ry="2.5" style="stroke:#181818;stroke-width:0.5;" width="110" x="1011" y="245.48"/><rect fill="#F1F1F1" height="10" style="stroke:#181818;stroke-width:0.5;" width="15" x="1101" y="250.48"/><rect fill="#F1F1F1" height="2" style="stroke:#181818;stroke-width:0.5;" width="4" x="1099" y="252.48"/><rect fill="#F1F1F1" height="2" style="stroke:#181818;stroke-width:0.5;" width="4" x="1099" y="256.48"/><text fill="#000000" font-family="sans-serif" font-size="14" lengthAdjust="spacing" textLength="70" x="1026" y="279.0152">&#20786;&#23384;&#24235;&#23526;&#29694;</text></g><!--entity ORM--><g id="elem_ORM"><rect fill="#F1F1F1" height="46.4883" rx="2.5" ry="2.5" style="stroke:#181818;stroke-width:0.5;" width="100" x="1016" y="363.69"/><rect fill="#F1F1F1" height="10" style="stroke:#181818;stroke-width:0.5;" width="15" x="1096" y="368.69"/><rect fill="#F1F1F1" height="2" style="stroke:#181818;stroke-width:0.5;" width="4" x="1094" y="370.69"/><rect fill="#F1F1F1" height="2" style="stroke:#181818;stroke-width:0.5;" width="4" x="1094" y="374.69"/><text fill="#000000" font-family="sans-serif" font-size="14" lengthAdjust="spacing" textLength="60" x="1031" y="397.2252">ORM&#26144;&#23556;</text></g><!--entity Database--><g id="elem_Database"><rect fill="#F1F1F1" height="46.4883" rx="2.5" ry="2.5" style="stroke:#181818;stroke-width:0.5;" width="82" x="1025" y="474.9"/><rect fill="#F1F1F1" height="10" style="stroke:#181818;stroke-width:0.5;" width="15" x="1087" y="479.9"/><rect fill="#F1F1F1" height="2" style="stroke:#181818;stroke-width:0.5;" width="4" x="1085" y="481.9"/><rect fill="#F1F1F1" height="2" style="stroke:#181818;stroke-width:0.5;" width="4" x="1085" y="485.9"/><text fill="#000000" font-family="sans-serif" font-size="14" lengthAdjust="spacing" textLength="42" x="1040" y="508.4352">&#25976;&#25818;&#24235;</text></g><!--entity ExternalAdapters--><g id="elem_ExternalAdapters"><rect fill="#F1F1F1" height="46.4883" rx="2.5" ry="2.5" style="stroke:#181818;stroke-width:0.5;" width="138" x="1261" y="245.48"/><rect fill="#F1F1F1" height="10" style="stroke:#181818;stroke-width:0.5;" width="15" x="1379" y="250.48"/><rect fill="#F1F1F1" height="2" style="stroke:#181818;stroke-width:0.5;" width="4" x="1377" y="252.48"/><rect fill="#F1F1F1" height="2" style="stroke:#181818;stroke-width:0.5;" width="4" x="1377" y="256.48"/><text fill="#000000" font-family="sans-serif" font-size="14" lengthAdjust="spacing" textLength="98" x="1276" y="279.0152">&#22806;&#37096;&#26381;&#21209;&#36969;&#37197;&#22120;</text></g><!--entity MessageQueue--><g id="elem_MessageQueue"><rect fill="#F1F1F1" height="46.4883" rx="2.5" ry="2.5" style="stroke:#181818;stroke-width:0.5;" width="96" x="1371" y="363.69"/><rect fill="#F1F1F1" height="10" style="stroke:#181818;stroke-width:0.5;" width="15" x="1447" y="368.69"/><rect fill="#F1F1F1" height="2" style="stroke:#181818;stroke-width:0.5;" width="4" x="1445" y="370.69"/><rect fill="#F1F1F1" height="2" style="stroke:#181818;stroke-width:0.5;" width="4" x="1445" y="374.69"/><text fill="#000000" font-family="sans-serif" font-size="14" lengthAdjust="spacing" textLength="56" x="1386" y="397.2252">&#28040;&#24687;&#38538;&#21015;</text></g><!--entity ThirdPartyClients--><g id="elem_ThirdPartyClients"><rect fill="#F1F1F1" height="46.4883" rx="2.5" ry="2.5" style="stroke:#181818;stroke-width:0.5;" width="146" x="1190" y="363.69"/><rect fill="#F1F1F1" height="10" style="stroke:#181818;stroke-width:0.5;" width="15" x="1316" y="368.69"/><rect fill="#F1F1F1" height="2" style="stroke:#181818;stroke-width:0.5;" width="4" x="1314" y="370.69"/><rect fill="#F1F1F1" height="2" style="stroke:#181818;stroke-width:0.5;" width="4" x="1314" y="374.69"/><text fill="#000000" font-family="sans-serif" font-size="14" lengthAdjust="spacing" textLength="106" x="1205" y="397.2252">&#31532;&#19977;&#26041;API&#23458;&#25142;&#31471;</text></g><!--entity Logging--><g id="elem_Logging"><rect fill="#F1F1F1" height="46.4883" rx="2.5" ry="2.5" style="stroke:#181818;stroke-width:0.5;" width="68" x="1531" y="245.48"/><rect fill="#F1F1F1" height="10" style="stroke:#181818;stroke-width:0.5;" width="15" x="1579" y="250.48"/><rect fill="#F1F1F1" height="2" style="stroke:#181818;stroke-width:0.5;" width="4" x="1577" y="252.48"/><rect fill="#F1F1F1" height="2" style="stroke:#181818;stroke-width:0.5;" width="4" x="1577" y="256.48"/><text fill="#000000" font-family="sans-serif" font-size="14" lengthAdjust="spacing" textLength="28" x="1546" y="279.0152">&#26085;&#35468;</text></g><!--entity Security--><g id="elem_Security"><rect fill="#F1F1F1" height="46.4883" rx="2.5" ry="2.5" style="stroke:#181818;stroke-width:0.5;" width="68" x="1634" y="245.48"/><rect fill="#F1F1F1" height="10" style="stroke:#181818;stroke-width:0.5;" width="15" x="1682" y="250.48"/><rect fill="#F1F1F1" height="2" style="stroke:#181818;stroke-width:0.5;" width="4" x="1680" y="252.48"/><rect fill="#F1F1F1" height="2" style="stroke:#181818;stroke-width:0.5;" width="4" x="1680" y="256.48"/><text fill="#000000" font-family="sans-serif" font-size="14" lengthAdjust="spacing" textLength="28" x="1649" y="279.0152">&#23433;&#20840;</text></g><!--entity Configuration--><g id="elem_Configuration"><rect fill="#F1F1F1" height="46.4883" rx="2.5" ry="2.5" style="stroke:#181818;stroke-width:0.5;" width="68" x="1531" y="363.69"/><rect fill="#F1F1F1" height="10" style="stroke:#181818;stroke-width:0.5;" width="15" x="1579" y="368.69"/><rect fill="#F1F1F1" height="2" style="stroke:#181818;stroke-width:0.5;" width="4" x="1577" y="370.69"/><rect fill="#F1F1F1" height="2" style="stroke:#181818;stroke-width:0.5;" width="4" x="1577" y="374.69"/><text fill="#000000" font-family="sans-serif" font-size="14" lengthAdjust="spacing" textLength="28" x="1546" y="397.2252">&#37197;&#32622;</text></g><g id="elem_GMN57"><path d="M693.5,44.27 L693.5,100.2016 L818.5,100.2016 L818.5,54.27 L808.5,44.27 L693.5,44.27 " fill="#FEFFDD" style="stroke:#181818;stroke-width:0.5;"/><path d="M808.5,44.27 L808.5,54.27 L818.5,54.27 L808.5,44.27 " fill="#FEFFDD" style="stroke:#181818;stroke-width:1.0;"/><text fill="#000000" font-family="sans-serif" font-size="13" lengthAdjust="spacing" textLength="78" x="699.5" y="61.8384">&#34389;&#29702;&#29992;&#25142;&#20132;&#20114;</text><text fill="#000000" font-family="sans-serif" font-size="13" lengthAdjust="spacing" textLength="78" x="699.5" y="77.1489">&#21482;&#20381;&#36084;&#25033;&#29992;&#23652;</text><text fill="#000000" font-family="sans-serif" font-size="13" lengthAdjust="spacing" textLength="104" x="699.5" y="92.4595">&#19981;&#30452;&#25509;&#20381;&#36084;&#38936;&#22495;&#23652;</text></g><g id="elem_GMN60"><path d="M1781.5,240.76 L1781.5,296.6916 L1932.5,296.6916 L1932.5,250.76 L1922.5,240.76 L1781.5,240.76 " fill="#FEFFDD" style="stroke:#181818;stroke-width:0.5;"/><path d="M1922.5,240.76 L1922.5,250.76 L1932.5,250.76 L1922.5,240.76 " fill="#FEFFDD" style="stroke:#181818;stroke-width:1.0;"/><text fill="#000000" font-family="sans-serif" font-size="13" lengthAdjust="spacing" textLength="130" x="1787.5" y="258.3284">&#21332;&#35519;&#38936;&#22495;&#23565;&#35937;&#23436;&#25104;&#29992;&#20363;</text><text fill="#000000" font-family="sans-serif" font-size="13" lengthAdjust="spacing" textLength="78" x="1787.5" y="273.6389">&#21482;&#20381;&#36084;&#38936;&#22495;&#23652;</text><text fill="#000000" font-family="sans-serif" font-size="13" lengthAdjust="spacing" textLength="78" x="1787.5" y="288.9495">&#36000;&#36012;&#25976;&#25818;&#36681;&#25563;</text></g><g id="elem_GMN63"><path d="M1781.5,358.97 L1781.5,414.9016 L1958.5,414.9016 L1958.5,368.97 L1948.5,358.97 L1781.5,358.97 " fill="#FEFFDD" style="stroke:#181818;stroke-width:0.5;"/><path d="M1948.5,358.97 L1948.5,368.97 L1958.5,368.97 L1948.5,358.97 " fill="#FEFFDD" style="stroke:#181818;stroke-width:1.0;"/><text fill="#000000" font-family="sans-serif" font-size="13" lengthAdjust="spacing" textLength="143" x="1787.5" y="376.5384">&#21253;&#21547;&#26989;&#21209;&#26680;&#24515;&#37007;&#36655;&#21644;&#35215;&#21063;</text><text fill="#000000" font-family="sans-serif" font-size="13" lengthAdjust="spacing" textLength="78" x="1787.5" y="391.8489">&#19981;&#20381;&#36084;&#20854;&#20182;&#23652;</text><text fill="#000000" font-family="sans-serif" font-size="13" lengthAdjust="spacing" textLength="156" x="1787.5" y="407.1595">&#23450;&#32681;&#25509;&#21475;&#30001;&#22522;&#30990;&#35373;&#26045;&#23652;&#23526;&#29694;</text></g><g id="elem_GMN66"><path d="M1967.5,240.76 L1967.5,296.6916 L2118.5,296.6916 L2118.5,250.76 L2108.5,240.76 L1967.5,240.76 " fill="#FEFFDD" style="stroke:#181818;stroke-width:0.5;"/><path d="M2108.5,240.76 L2108.5,250.76 L2118.5,250.76 L2108.5,240.76 " fill="#FEFFDD" style="stroke:#181818;stroke-width:1.0;"/><text fill="#000000" font-family="sans-serif" font-size="13" lengthAdjust="spacing" textLength="78" x="1973.5" y="258.3284">&#25552;&#20379;&#25216;&#34899;&#23526;&#29694;</text><text fill="#000000" font-family="sans-serif" font-size="13" lengthAdjust="spacing" textLength="65" x="1973.5" y="273.6389">&#20381;&#36084;&#38936;&#22495;&#23652;</text><text fill="#000000" font-family="sans-serif" font-size="13" lengthAdjust="spacing" textLength="130" x="1973.5" y="288.9495">&#23526;&#29694;&#38936;&#22495;&#23652;&#23450;&#32681;&#30340;&#25509;&#21475;</text></g><g id="elem_GMN69"><path d="M187.5,477.84 L187.5,518.4611 A0,0 0 0 0 187.5,518.4611 L364.5,518.4611 A0,0 0 0 0 364.5,518.4611 L364.5,487.84 L354.5,477.84 L266.33,477.84 L262.33,410.52 L258.33,477.84 L187.5,477.84 A0,0 0 0 0 187.5,477.84 " fill="#FEFFDD" style="stroke:#181818;stroke-width:0.5;"/><path d="M354.5,477.84 L354.5,487.84 L364.5,487.84 L354.5,477.84 " fill="#FEFFDD" style="stroke:#181818;stroke-width:0.5;"/><text fill="#000000" font-family="sans-serif" font-size="13" lengthAdjust="spacing" textLength="156" x="193.5" y="495.4084">&#36000;&#36012;&#22312;&#19981;&#21516;&#23652;&#20043;&#38291;&#36681;&#25563;&#25976;&#25818;</text><text fill="#000000" font-family="sans-serif" font-size="13" lengthAdjust="spacing" textLength="143" x="193.5" y="510.7189">&#38450;&#27490;&#38936;&#22495;&#27169;&#22411;&#27945;&#38706;&#21040;&#22806;&#37096;</text></g><!--link InterfaceDTO to ApplicationDTO--><g id="link_InterfaceDTO_ApplicationDTO"><path d="M86,95.96 C86,148.26 86,268.88 86,268.88 C86,268.88 210.13,268.88 210.13,268.88 " fill="none" id="InterfaceDTO-to-ApplicationDTO" style="stroke:#0000FF;stroke-width:1.0;"/><polygon fill="#0000FF" points="215.13,268.88,206.13,264.88,210.13,268.88,206.13,272.88,215.13,268.88" style="stroke:#0000FF;stroke-width:1.0;"/><text fill="#000000" font-family="sans-serif" font-size="13" lengthAdjust="spacing" textLength="26" x="59" y="241.0484">&#36681;&#25563;</text></g><!--link ApplicationDTO to Mappers--><g id="link_ApplicationDTO_Mappers"><path d="M276,292.37 C276,292.37 276,356.83 276,356.83 " fill="none" id="ApplicationDTO-to-Mappers" style="stroke:#0000FF;stroke-width:1.0;"/><polygon fill="#0000FF" points="276,361.83,280,352.83,276,356.83,272,352.83,276,361.83" style="stroke:#0000FF;stroke-width:1.0;"/></g><!--link Mappers to AggregateRoots--><g id="link_Mappers_AggregateRoots"><path d="M289.67,410.5 C289.67,426.55 289.67,444.88 289.67,444.88 C289.67,444.88 597.33,444.88 597.33,444.88 C597.33,444.88 597.33,468.12 597.33,468.12 " fill="none" id="Mappers-to-AggregateRoots" style="stroke:#0000FF;stroke-width:1.0;"/><polygon fill="#0000FF" points="597.33,473.12,601.3557,464.1315,597.3443,468.12,593.3557,464.1086,597.33,473.12" style="stroke:#0000FF;stroke-width:1.0;"/></g><!--link WebControllers to ApplicationServices--><g id="link_WebControllers_ApplicationServices"><path d="M327.36,71.88 C336.53,71.88 342.75,71.88 342.75,71.88 C342.75,71.88 342.75,268.88 342.75,268.88 C342.75,268.88 357.01,268.88 357.01,268.88 " fill="none" id="WebControllers-to-ApplicationServices" style="stroke:#0000FF;stroke-width:1.0;"/><polygon fill="#0000FF" points="362.01,268.88,353.01,264.88,357.01,268.88,353.01,272.88,362.01,268.88" style="stroke:#0000FF;stroke-width:1.0;"/><text fill="#000000" font-family="sans-serif" font-size="13" lengthAdjust="spacing" textLength="26" x="315.75" y="166.3784">&#20351;&#29992;</text></g><!--link RestAPI to ApplicationServices--><g id="link_RestAPI_ApplicationServices"><path d="M412,95.94 C412,95.94 412,238.73 412,238.73 " fill="none" id="RestAPI-to-ApplicationServices" style="stroke:#0000FF;stroke-width:1.0;"/><polygon fill="#0000FF" points="412,243.73,416,234.73,412,238.73,408,234.73,412,243.73" style="stroke:#0000FF;stroke-width:1.0;"/><text fill="#000000" font-family="sans-serif" font-size="13" lengthAdjust="spacing" textLength="26" x="385" y="163.9084">&#20351;&#29992;</text></g><!--link GraphQLAPI to ApplicationServices--><g id="link_GraphQLAPI_ApplicationServices"><path d="M543.67,95.62 C543.67,145.31 543.67,256.88 543.67,256.88 C543.67,256.88 466.79,256.88 466.79,256.88 " fill="none" id="GraphQLAPI-to-ApplicationServices" style="stroke:#0000FF;stroke-width:1.0;"/><polygon fill="#0000FF" points="461.79,256.88,470.79,260.88,466.79,256.88,470.79,252.88,461.79,256.88" style="stroke:#0000FF;stroke-width:1.0;"/><text fill="#000000" font-family="sans-serif" font-size="13" lengthAdjust="spacing" textLength="26" x="516.67" y="211.2584">&#20351;&#29992;</text></g><!--link ApplicationServices to Commands--><g id="link_ApplicationServices_Commands"><path d="M411.75,292.37 C411.75,292.37 411.75,356.83 411.75,356.83 " fill="none" id="ApplicationServices-to-Commands" style="stroke:#0000FF;stroke-width:1.0;"/><polygon fill="#0000FF" points="411.75,361.83,415.75,352.83,411.75,356.83,407.75,352.83,411.75,361.83" style="stroke:#0000FF;stroke-width:1.0;"/><text fill="#000000" font-family="sans-serif" font-size="13" lengthAdjust="spacing" textLength="26" x="384.75" y="321.1684">&#34389;&#29702;</text></g><!--link ApplicationServices to AggregateRoots--><g id="link_ApplicationServices_AggregateRoots"><path d="M460.46,287.88 C489.31,287.88 520.33,287.88 520.33,287.88 C520.33,287.88 520.33,497.88 520.33,497.88 C520.33,497.88 563.13,497.88 563.13,497.88 " fill="none" id="ApplicationServices-to-AggregateRoots" style="stroke:#0000FF;stroke-width:1.0;"/><polygon fill="#0000FF" points="568.13,497.88,559.13,493.88,563.13,497.88,559.13,501.88,568.13,497.88" style="stroke:#0000FF;stroke-width:1.0;"/><text fill="#000000" font-family="sans-serif" font-size="13" lengthAdjust="spacing" textLength="26" x="493.33" y="380.9084">&#25805;&#20316;</text></g><!--link ApplicationServices to DomainServices--><g id="link_ApplicationServices_DomainServices"><path d="M460.08,282.88 C514.3,282.88 595,282.88 595,282.88 C595,282.88 595,356.81 595,356.81 " fill="none" id="ApplicationServices-to-DomainServices" style="stroke:#0000FF;stroke-width:1.0;"/><polygon fill="#0000FF" points="595,361.81,599,352.81,595,356.81,591,352.81,595,361.81" style="stroke:#0000FF;stroke-width:1.0;"/><text fill="#000000" font-family="sans-serif" font-size="13" lengthAdjust="spacing" textLength="26" x="537.51" y="279.4484">&#20351;&#29992;</text></g><!--link ApplicationServices to RepositoryInterfaces--><g id="link_ApplicationServices_RepositoryInterfaces"><path d="M460.31,273.88 C550.32,273.88 734.67,273.88 734.67,273.88 C734.67,273.88 734.67,356.72 734.67,356.72 " fill="none" id="ApplicationServices-to-RepositoryInterfaces" style="stroke:#0000FF;stroke-width:1.0;"/><polygon fill="#0000FF" points="734.67,361.72,738.67,352.72,734.67,356.72,730.67,352.72,734.67,361.72" style="stroke:#0000FF;stroke-width:1.0;"/><text fill="#000000" font-family="sans-serif" font-size="13" lengthAdjust="spacing" textLength="26" x="611.91" y="270.4484">&#20351;&#29992;</text></g><!--link AggregateRoots to Entities--><g id="link_AggregateRoots_Entities"><path d="M602.5,521.84 C602.5,521.84 602.5,586.47 602.5,586.47 " fill="none" id="AggregateRoots-to-Entities" style="stroke:#0000FF;stroke-width:1.0;"/><polygon fill="#0000FF" points="602.5,591.47,606.5,582.47,602.5,586.47,598.5,582.47,602.5,591.47" style="stroke:#0000FF;stroke-width:1.0;"/><text fill="#000000" font-family="sans-serif" font-size="13" lengthAdjust="spacing" textLength="26" x="575.5" y="550.7284">&#21253;&#21547;</text></g><!--link AggregateRoots to ValueObjects--><g id="link_AggregateRoots_ValueObjects"><path d="M646.33,521.89 C646.33,556.54 646.33,616.88 646.33,616.88 C646.33,616.88 663.17,616.88 663.17,616.88 " fill="none" id="AggregateRoots-to-ValueObjects" style="stroke:#0000FF;stroke-width:1.0;"/><polygon fill="#0000FF" points="668.17,616.88,659.17,612.88,663.17,616.88,659.17,620.88,668.17,616.88" style="stroke:#0000FF;stroke-width:1.0;"/><text fill="#000000" font-family="sans-serif" font-size="13" lengthAdjust="spacing" textLength="26" x="619.33" y="574.3684">&#20351;&#29992;</text></g><!--link AggregateRoots to DomainEvents--><g id="link_AggregateRoots_DomainEvents"><path d="M640.67,521.64 C640.67,542.56 640.67,569.88 640.67,569.88 C640.67,569.88 797.5,569.88 797.5,569.88 C797.5,569.88 797.5,586.47 797.5,586.47 " fill="none" id="AggregateRoots-to-DomainEvents" style="stroke:#0000FF;stroke-width:1.0;"/><polygon fill="#0000FF" points="797.5,591.47,801.5,582.47,797.5,586.47,793.5,582.47,797.5,591.47" style="stroke:#0000FF;stroke-width:1.0;"/><text fill="#000000" font-family="sans-serif" font-size="13" lengthAdjust="spacing" textLength="26" x="676.26" y="566.4484">&#30332;&#24067;</text></g><!--link DomainServices to AggregateRoots--><g id="link_DomainServices_AggregateRoots"><path d="M624.67,410.52 C624.67,410.52 624.67,468.08 624.67,468.08 " fill="none" id="DomainServices-to-AggregateRoots" style="stroke:#0000FF;stroke-width:1.0;"/><polygon fill="#0000FF" points="624.67,473.08,628.67,464.08,624.67,468.08,620.67,464.08,624.67,473.08" style="stroke:#0000FF;stroke-width:1.0;"/><text fill="#000000" font-family="sans-serif" font-size="13" lengthAdjust="spacing" textLength="26" x="597.67" y="435.8684">&#21332;&#35519;</text></g><!--link DomainServices to Specifications--><g id="link_DomainServices_Specifications"><path d="M657.5,410.44 C657.5,445.1 657.5,505.88 657.5,505.88 C657.5,505.88 680.13,505.88 680.13,505.88 " fill="none" id="DomainServices-to-Specifications" style="stroke:#0000FF;stroke-width:1.0;"/><polygon fill="#0000FF" points="685.13,505.88,676.13,501.88,680.13,505.88,676.13,509.88,685.13,505.88" style="stroke:#0000FF;stroke-width:1.0;"/><text fill="#000000" font-family="sans-serif" font-size="13" lengthAdjust="spacing" textLength="26" x="630.5" y="466.0484">&#20351;&#29992;</text></g><!--link RepositoryInterfaces to AggregateRoots--><g id="link_RepositoryInterfaces_AggregateRoots"><path d="M697.69,386.88 C686.71,386.88 678.5,386.88 678.5,386.88 C678.5,386.88 678.5,490.88 678.5,490.88 C678.5,490.88 658.72,490.88 658.72,490.88 " fill="none" id="RepositoryInterfaces-to-AggregateRoots" style="stroke:#0000FF;stroke-width:1.0;"/><polygon fill="#0000FF" points="653.72,490.88,662.72,494.88,658.72,490.88,662.72,486.88,653.72,490.88" style="stroke:#0000FF;stroke-width:1.0;"/><text fill="#000000" font-family="sans-serif" font-size="13" lengthAdjust="spacing" textLength="26" x="651.5" y="435.7484">&#31649;&#29702;</text></g><!--link RepositoryImplementations to RepositoryInterfaces--><g id="link_RepositoryImplementations_RepositoryInterfaces"><path d="M1010.58,278.88 C925.22,278.88 771.33,278.88 771.33,278.88 C771.33,278.88 771.33,356.71 771.33,356.71 " fill="none" id="RepositoryImplementations-to-RepositoryInterfaces" style="stroke:#0000FF;stroke-width:1.0;"/><polygon fill="#0000FF" points="771.33,361.71,775.33,352.71,771.33,356.71,767.33,352.71,771.33,361.71" style="stroke:#0000FF;stroke-width:1.0;"/><text fill="#000000" font-family="sans-serif" font-size="13" lengthAdjust="spacing" textLength="26" x="825.04" y="275.4484">&#23526;&#29694;</text></g><!--link RepositoryImplementations to ORM--><g id="link_RepositoryImplementations_ORM"><path d="M1066,292.37 C1066,292.37 1066,356.83 1066,356.83 " fill="none" id="RepositoryImplementations-to-ORM" style="stroke:#0000FF;stroke-width:1.0;"/><polygon fill="#0000FF" points="1066,361.83,1070,352.83,1066,356.83,1062,352.83,1066,361.83" style="stroke:#0000FF;stroke-width:1.0;"/><text fill="#000000" font-family="sans-serif" font-size="13" lengthAdjust="spacing" textLength="26" x="1039" y="321.1684">&#20351;&#29992;</text></g><!--link ORM to Database--><g id="link_ORM_Database"><path d="M1066,410.52 C1066,410.52 1066,468.08 1066,468.08 " fill="none" id="ORM-to-Database" style="stroke:#0000FF;stroke-width:1.0;"/><polygon fill="#0000FF" points="1066,473.08,1070,464.08,1066,468.08,1062,464.08,1066,473.08" style="stroke:#0000FF;stroke-width:1.0;"/><text fill="#000000" font-family="sans-serif" font-size="13" lengthAdjust="spacing" textLength="26" x="1039" y="435.8684">&#35370;&#21839;</text></g><!--link ExternalAdapters to ThirdPartyClients--><g id="link_ExternalAdapters_ThirdPartyClients"><path d="M1298.5,292.37 C1298.5,292.37 1298.5,356.83 1298.5,356.83 " fill="none" id="ExternalAdapters-to-ThirdPartyClients" style="stroke:#0000FF;stroke-width:1.0;"/><polygon fill="#0000FF" points="1298.5,361.83,1302.5,352.83,1298.5,356.83,1294.5,352.83,1298.5,361.83" style="stroke:#0000FF;stroke-width:1.0;"/><text fill="#000000" font-family="sans-serif" font-size="13" lengthAdjust="spacing" textLength="26" x="1271.5" y="321.1684">&#20351;&#29992;</text></g><!--link ExternalAdapters to MessageQueue--><g id="link_ExternalAdapters_MessageQueue"><path d="M1385,292.37 C1385,292.37 1385,356.83 1385,356.83 " fill="none" id="ExternalAdapters-to-MessageQueue" style="stroke:#0000FF;stroke-width:1.0;"/><polygon fill="#0000FF" points="1385,361.83,1389,352.83,1385,356.83,1381,352.83,1385,361.83" style="stroke:#0000FF;stroke-width:1.0;"/><text fill="#000000" font-family="sans-serif" font-size="13" lengthAdjust="spacing" textLength="26" x="1358" y="321.1684">&#20351;&#29992;</text></g><!--link InterfacesLayer to ApplicationLayer--><g id="link_InterfacesLayer_ApplicationLayer"><path d="M658,120.4374 C658,120.7627 658,121.0889 658,121.4162 C658,122.0706 658,122.729 658,123.3911 C658,128.6879 658,134.224 658,139.9122 C658,151.2886 658,163.2731 658,175.1675 C658,222.745 658,268.88 658,268.88 C658,268.88 620.3725,268.88 581.275,268.88 C561.7262,268.88 541.81,268.88 526.0459,268.88 C518.1639,268.88 511.3199,268.88 506.0789,268.88 C505.4238,268.88 504.7937,268.88 504.1898,268.88 C503.8879,268.88 503.5924,268.88 503.3037,268.88 " fill="none" id="InterfacesLayer-to-ApplicationLayer" style="stroke:#FF0000;stroke-width:1.0;"/><polygon fill="#FF0000" points="503.3037,268.88,512.3037,272.88,508.3037,268.88,512.3037,264.88,503.3037,268.88" style="stroke:#FF0000;stroke-width:1.0;"/><text fill="#000000" font-family="sans-serif" font-size="13" lengthAdjust="spacing" textLength="26" x="631" y="248.5484">&#20381;&#36084;</text></g><!--link ApplicationLayer to DomainLayer--><g id="link_ApplicationLayer_DomainLayer"><path d="M495,435.6454 C495,436.6744 495,437.7013 495,438.7258 C495,446.9214 495,454.9622 495,462.7253 C495,478.2513 495,492.6661 495,504.9853 C495,529.6238 495,545.88 495,545.88 C495,545.88 501.4375,545.88 512.7031,545.88 C518.3359,545.88 525.1758,545.88 533.0215,545.88 C534.9829,545.88 537.0072,545.88 539.0912,545.88 C540.1332,545.88 541.1902,545.88 542.2616,545.88 " fill="none" id="ApplicationLayer-to-DomainLayer" style="stroke:#FF0000;stroke-width:1.0;"/><polygon fill="#FF0000" points="542.2616,545.88,533.2616,541.88,537.2616,545.88,533.2616,549.88,542.2616,545.88" style="stroke:#FF0000;stroke-width:1.0;"/><text fill="#000000" font-family="sans-serif" font-size="13" lengthAdjust="spacing" textLength="26" x="614.94" y="542.4484">&#20381;&#36084;</text></g><!--link InfrastructureLayer to DomainLayer--><g id="link_InfrastructureLayer_DomainLayer"><path d="M954.9764,268.88 C953.7854,268.88 952.4937,268.88 951.1239,268.88 C945.6447,268.88 938.9156,268.88 932.3788,268.88 C919.305,268.88 907,268.88 907,268.88 C907,268.88 907,275.5831 907,285.7948 C907,290.9007 907,296.8837 907,303.3446 C907,306.575 907,309.9248 907,313.3443 C907,315.054 907,316.7811 907,318.5193 C907,318.9539 907,319.3891 907,319.825 C907,320.0429 907,320.261 907,320.4792 " fill="none" id="InfrastructureLayer-to-DomainLayer" style="stroke:#FF0000;stroke-width:1.0;"/><polygon fill="#FF0000" points="907,320.4792,911,311.4792,907,315.4792,903,311.4792,907,320.4792" style="stroke:#FF0000;stroke-width:1.0;"/><text fill="#000000" font-family="sans-serif" font-size="13" lengthAdjust="spacing" textLength="26" x="880" y="296.4184">&#20381;&#36084;</text></g><!--link InterfacesLayer to GMN57--><g id="link_InterfacesLayer_GMN57"><path d="M666.1023,71.88 C666.1421,71.88 666.1821,71.88 666.2221,71.88 C666.3022,71.88 666.3828,71.88 666.4639,71.88 C667.7611,71.88 669.1831,71.88 670.7125,71.88 C676.83,71.88 684.665,71.88 693.1,71.88 " fill="none" id="InterfacesLayer-GMN57" style="stroke:#181818;stroke-width:1.0;stroke-dasharray:7.0,7.0;"/></g><!--link ApplicationLayer to GMN60--><g id="link_ApplicationLayer_GMN60"><path d="M495,202.1656 C495,201.7137 495,201.2622 495,200.8112 C495,199.9092 495,199.0093 495,198.1123 C495,196.3182 495,194.5357 495,192.7711 C495,189.2419 495,185.7845 495,182.4504 C495,175.7822 495,169.6072 495,164.3375 C495,153.7981 495,146.88 495,146.88 C495,146.88 1857,146.88 1857,146.88 C1857,146.88 1857,204.47 1857,240.47 " fill="none" id="ApplicationLayer-GMN60" style="stroke:#181818;stroke-width:1.0;stroke-dasharray:7.0,7.0;"/></g><!--link DomainLayer to GMN63--><g id="link_DomainLayer_GMN63"><path d="M915.1057,386.88 C915.1966,386.88 915.2878,386.88 915.3795,386.88 C915.5628,386.88 915.7477,386.88 915.9339,386.88 C916.6789,386.88 917.446,386.88 918.2251,386.88 C919.7832,386.88 921.3891,386.88 922.9613,386.88 C929.25,386.88 935,386.88 935,386.88 C935,386.88 935,327.88 935,327.88 C935,327.88 1857,327.88 1857,327.88 C1857,327.88 1857,343.58 1857,358.79 " fill="none" id="DomainLayer-GMN63" style="stroke:#181818;stroke-width:1.0;stroke-dasharray:7.0,7.0;"/></g><!--link InfrastructureLayer to GMN66--><g id="link_InfrastructureLayer_GMN66"><path d="M1759.2427,193.88 C1763.0072,193.88 1766.7502,193.88 1770.4704,193.88 C1777.9109,193.88 1785.2607,193.88 1792.5117,193.88 C1821.5156,193.88 1848.9375,193.88 1874.25,193.88 C1975.5,193.88 2043,193.88 2043,193.88 C2043,193.88 2043,219.24 2043,240.43 " fill="none" id="InfrastructureLayer-GMN66" style="stroke:#181818;stroke-width:1.0;stroke-dasharray:7.0,7.0;"/></g><!--SRC=[ZLPRJzj857xthnXr7vPzGFk-3oiXYgfAL510kmyL3oOCmTl4jkn9jMY5L1ROXYPfqWBXsX8eTCCjNCi28V1dF6FxN-nuPeB7vlg0Wi_rEsVEV7FirvfkgfQQ1YbDXsZ4XC2mqB2XA3y2N5jqBpVnmJhPMLLCDV5QJKBmnAdd_CzhL0fQdki8MaDg0jgWKns1razFW6g3KCg4u2y5W5U_mm7GRkZ8Cb8fQDdzWI6LIQB0ggUZjm-qTJzdwXve8_f_87zcgURmoyvhbVWMscj4J_kw-YC8g40PLKBivDsKErDbsDjCCwKbLAGPkWnU4alekHzPBk3SGd_Ch1TQRpHQR6Wd8P7i0Yo1oNm5xq_WXIhJlr1DKzIEFpQS-lhFP6N3srnZodOZdLRrGJjIWb-Pnoihh8IdHbhL8kYvH0BkZItYKfPKpZYQPDA2IHN17iD0FEdUDtzxXYaxTAGXZTU1trxW_O9tiCeqlwcf3EmQ-0Cck1E7u9pddFf9VvYsumtKPGEfNTn0xXIUECIxy_XyctpOmCMlui1DmzQGOOs48yIA-5OabGjcqcl2X3OaEXfj35uvTzS_UDLTKcw8wHooL1jPcGJAM30weR8cR5Su9_anvsmIvykWfPiUZsOZg2SWTvO4p4akXhRJBLx6YqcRAPYclH6WcKjNpmi-2SoOVd4ncJqbquiq4c-RYjG1rOPKDqh_P8HulUoFLzsZkllz0BHq_4dxfQifZh3vTGsFsVBZyCSs_Sb2S_oQbcs3gedu70OWJh9aRCzVV8-pStnAeMtJh2ypC0EvYRkpuvnEaV8PlOAujaQo9-xs7hFj6zQimMxLGYFjAKqCH1oyzryLPz_HE-lFBPEZgb__0bhQBSEsMzip26bwajV1H4BIh8NCRNXRUPQfqqWcgKRKM9l2axoeNfZ8M1eQuGfQhTkeYVka3sd9ZCNEWS4Q3McETvvy7yEbZufC8A3rrGy3z0Bqj_uQkyxW5-0rfaXnIOd99O_c1HU_aM3HsnXbmpkoDgyGJUqqhYZNA88b7sqVKkUZNPJRj99pawU2VYpCkgL_7dA8LaxTo7J1QIm_v1PbaH3V0swtqOfSN1ICvDXaH6gCyvEuj7sFhSoH4h8xxMNAfFRkmWK-7LTY5TxNCboOyRQkxl68KgKyCBUquxvCRcqrE5FbJaPxHBCvCJuk12N346tm8RTDC68mQjKjF5jKuXGcMz_WeZ3kVMuotKc3qcGAv_ApTtHCkI_256BPeM4iE1YxKbn58p5FvOOcT98Vy6lxsvwh1rmeMAzQz_xzgkW6Wi3IaiC864FntOoI8B-nmNQJFN7ErvtpJrI8YrkYokP2GuNEQS5TEgRlDLTTBo8Ar0T1a4Q99OlN6GHcKojSsOQ1QtcIBT4apcLEpXo6fnWFAzxX3cTemRXtvPIw4KHZrvPixDANZrHEyTMu_tVHkzZ3d_9qgS1JxtXPF2EUF77gPPvHl0biDt5d3cAxXPZckp3SSbuq92cMdCibylwjjpej0W1mirQkkfPm8ExY1CSIppbW86IaWwJX9icxXPUhj39SojCWpbdEBq_ppl4kKZD__f3ihebLhRgAl-J8yQQ_V8Yp-tnX27Fz3m00]--></g></svg>