<?xml version="1.0" encoding="us-ascii" standalone="no"?><svg xmlns="http://www.w3.org/2000/svg" xmlns:xlink="http://www.w3.org/1999/xlink" contentStyleType="text/css" height="693px" preserveAspectRatio="none" style="width:1226px;height:693px;background:#FFFFFF;" version="1.1" viewBox="0 0 1226 693" width="1226px" zoomAndPan="magnify"><defs/><g><text fill="#000000" font-family="sans-serif" font-size="14" font-weight="bold" lengthAdjust="spacing" textLength="154" x="529" y="23.5352">&#35330;&#21934;&#31995;&#32113;&#38936;&#22495;&#27169;&#22411;&#23565;&#35937;&#22294;</text><g id="elem_order"><rect fill="#EEEEEE" height="110.9297" style="stroke:#333333;stroke-width:0.5;" width="266" x="550.5" y="248.9083"/><text fill="#000000" font-family="sans-serif" font-size="14" lengthAdjust="spacing" textLength="90" x="638.5" y="264.4434">order : Order</text><line style="stroke:#333333;stroke-width:0.5;" x1="551.5" x2="815.5" y1="269.3966" y2="269.3966"/><text fill="#000000" font-family="sans-serif" font-size="14" lengthAdjust="spacing" textLength="187" x="556.5" y="286.9317">id = "ORD-20240510-001"</text><text fill="#000000" font-family="sans-serif" font-size="14" lengthAdjust="spacing" textLength="142" x="556.5" y="303.42">status = CONFIRMED</text><text fill="#000000" font-family="sans-serif" font-size="14" lengthAdjust="spacing" textLength="178" x="556.5" y="319.9083">customerId = "CUST-001"</text><text fill="#000000" font-family="sans-serif" font-size="14" lengthAdjust="spacing" textLength="185" x="556.5" y="336.3966">totalAmount = 35000 TWD</text><text fill="#000000" font-family="sans-serif" font-size="14" lengthAdjust="spacing" textLength="254" x="556.5" y="352.8848">createdAt = "2024-05-10T10:30:00"</text></g><g id="elem_item1"><rect fill="#EEEEEE" height="110.9297" style="stroke:#333333;stroke-width:0.5;" width="203" x="339" y="436.8383"/><text fill="#000000" font-family="sans-serif" font-size="14" lengthAdjust="spacing" textLength="121" x="380" y="452.3734">item1 : OrderItem</text><line style="stroke:#333333;stroke-width:0.5;" x1="340" x2="541" y1="457.3266" y2="457.3266"/><text fill="#000000" font-family="sans-serif" font-size="14" lengthAdjust="spacing" textLength="169" x="345" y="474.8617">productId = "PROD-001"</text><text fill="#000000" font-family="sans-serif" font-size="14" lengthAdjust="spacing" textLength="191" x="345" y="491.35">productName = "iPhone 15"</text><text fill="#000000" font-family="sans-serif" font-size="14" lengthAdjust="spacing" textLength="84" x="345" y="507.8383">quantity = 1</text><text fill="#000000" font-family="sans-serif" font-size="14" lengthAdjust="spacing" textLength="159" x="345" y="524.3266">unitPrice = 30000 TWD</text><text fill="#000000" font-family="sans-serif" font-size="14" lengthAdjust="spacing" textLength="155" x="345" y="540.8148">subtotal = 30000 TWD</text></g><g id="elem_item2"><rect fill="#EEEEEE" height="110.9297" style="stroke:#333333;stroke-width:0.5;" width="214" x="576.5" y="436.8383"/><text fill="#000000" font-family="sans-serif" font-size="14" lengthAdjust="spacing" textLength="121" x="623" y="452.3734">item2 : OrderItem</text><line style="stroke:#333333;stroke-width:0.5;" x1="577.5" x2="789.5" y1="457.3266" y2="457.3266"/><text fill="#000000" font-family="sans-serif" font-size="14" lengthAdjust="spacing" textLength="169" x="582.5" y="474.8617">productId = "PROD-002"</text><text fill="#000000" font-family="sans-serif" font-size="14" lengthAdjust="spacing" textLength="202" x="582.5" y="491.35">productName = "AirPods Pro"</text><text fill="#000000" font-family="sans-serif" font-size="14" lengthAdjust="spacing" textLength="84" x="582.5" y="507.8383">quantity = 1</text><text fill="#000000" font-family="sans-serif" font-size="14" lengthAdjust="spacing" textLength="150" x="582.5" y="524.3266">unitPrice = 5000 TWD</text><text fill="#000000" font-family="sans-serif" font-size="14" lengthAdjust="spacing" textLength="146" x="582.5" y="540.8148">subtotal = 5000 TWD</text></g><g id="elem_payment"><rect fill="#EEEEEE" height="127.418" style="stroke:#333333;stroke-width:0.5;" width="266" x="396.5" y="44.4883"/><text fill="#000000" font-family="sans-serif" font-size="14" lengthAdjust="spacing" textLength="129" x="465" y="60.0234">payment : Payment</text><line style="stroke:#333333;stroke-width:0.5;" x1="397.5" x2="661.5" y1="64.9766" y2="64.9766"/><text fill="#000000" font-family="sans-serif" font-size="14" lengthAdjust="spacing" textLength="184" x="402.5" y="82.5117">id = "PAY-20240510-001"</text><text fill="#000000" font-family="sans-serif" font-size="14" lengthAdjust="spacing" textLength="225" x="402.5" y="99">orderId = "ORD-20240510-001"</text><text fill="#000000" font-family="sans-serif" font-size="14" lengthAdjust="spacing" textLength="152" x="402.5" y="115.4883">amount = 35000 TWD</text><text fill="#000000" font-family="sans-serif" font-size="14" lengthAdjust="spacing" textLength="143" x="402.5" y="131.9766">status = COMPLETED</text><text fill="#000000" font-family="sans-serif" font-size="14" lengthAdjust="spacing" textLength="236" x="402.5" y="148.4648">paymentMethod = "CREDIT_CARD"</text><text fill="#000000" font-family="sans-serif" font-size="14" lengthAdjust="spacing" textLength="254" x="402.5" y="164.9531">createdAt = "2024-05-10T10:35:00"</text></g><g id="elem_delivery"><rect fill="#EEEEEE" height="110.9297" style="stroke:#333333;stroke-width:0.5;" width="281" x="766" y="52.7283"/><text fill="#000000" font-family="sans-serif" font-size="14" lengthAdjust="spacing" textLength="119" x="847" y="68.2634">delivery : Delivery</text><line style="stroke:#333333;stroke-width:0.5;" x1="767" x2="1046" y1="73.2166" y2="73.2166"/><text fill="#000000" font-family="sans-serif" font-size="14" lengthAdjust="spacing" textLength="182" x="772" y="90.7517">id = "DEL-20240510-001"</text><text fill="#000000" font-family="sans-serif" font-size="14" lengthAdjust="spacing" textLength="225" x="772" y="107.24">orderId = "ORD-20240510-001"</text><text fill="#000000" font-family="sans-serif" font-size="14" lengthAdjust="spacing" textLength="140" x="772" y="123.7283">status = IN_TRANSIT</text><text fill="#000000" font-family="sans-serif" font-size="14" lengthAdjust="spacing" textLength="222" x="772" y="140.2166">address = "&#21488;&#21271;&#24066;&#20449;&#32681;&#21312;101&#22823;&#27155;"</text><text fill="#000000" font-family="sans-serif" font-size="14" lengthAdjust="spacing" textLength="269" x="772" y="156.7048">estimatedDeliveryDate = "2024-05-12"</text></g><g id="elem_orderId"><rect fill="#EEEEEE" height="44.9766" style="stroke:#333333;stroke-width:0.5;" width="222" x="825.5" y="469.8083"/><text fill="#000000" font-family="sans-serif" font-size="14" lengthAdjust="spacing" textLength="116" x="878.5" y="485.3434">orderId : OrderId</text><line style="stroke:#333333;stroke-width:0.5;" x1="826.5" x2="1046.5" y1="490.2966" y2="490.2966"/><text fill="#000000" font-family="sans-serif" font-size="14" lengthAdjust="spacing" textLength="210" x="831.5" y="507.8317">value = "ORD-20240510-001"</text></g><g id="elem_totalAmount"><rect fill="#EEEEEE" height="61.4648" style="stroke:#333333;stroke-width:0.5;" width="157" x="7" y="461.5683"/><text fill="#000000" font-family="sans-serif" font-size="14" lengthAdjust="spacing" textLength="143" x="14" y="477.1034">totalAmount : Money</text><line style="stroke:#333333;stroke-width:0.5;" x1="8" x2="163" y1="482.0566" y2="482.0566"/><text fill="#000000" font-family="sans-serif" font-size="14" lengthAdjust="spacing" textLength="117" x="13" y="499.5917">amount = 35000</text><text fill="#000000" font-family="sans-serif" font-size="14" lengthAdjust="spacing" textLength="109" x="13" y="516.08">currency = TWD</text></g><g id="elem_unitPrice1"><rect fill="#EEEEEE" height="61.4648" style="stroke:#333333;stroke-width:0.5;" width="140" x="370.5" y="624.7683"/><text fill="#000000" font-family="sans-serif" font-size="14" lengthAdjust="spacing" textLength="126" x="377.5" y="640.3034">unitPrice1 : Money</text><line style="stroke:#333333;stroke-width:0.5;" x1="371.5" x2="509.5" y1="645.2566" y2="645.2566"/><text fill="#000000" font-family="sans-serif" font-size="14" lengthAdjust="spacing" textLength="117" x="376.5" y="662.7917">amount = 30000</text><text fill="#000000" font-family="sans-serif" font-size="14" lengthAdjust="spacing" textLength="109" x="376.5" y="679.28">currency = TWD</text></g><g id="elem_unitPrice2"><rect fill="#EEEEEE" height="61.4648" style="stroke:#333333;stroke-width:0.5;" width="140" x="613.5" y="624.7683"/><text fill="#000000" font-family="sans-serif" font-size="14" lengthAdjust="spacing" textLength="126" x="620.5" y="640.3034">unitPrice2 : Money</text><line style="stroke:#333333;stroke-width:0.5;" x1="614.5" x2="752.5" y1="645.2566" y2="645.2566"/><text fill="#000000" font-family="sans-serif" font-size="14" lengthAdjust="spacing" textLength="108" x="619.5" y="662.7917">amount = 5000</text><text fill="#000000" font-family="sans-serif" font-size="14" lengthAdjust="spacing" textLength="109" x="619.5" y="679.28">currency = TWD</text></g><g id="elem_address"><rect fill="#EEEEEE" height="110.9297" style="stroke:#333333;stroke-width:0.5;" width="173" x="997" y="248.9083"/><text fill="#000000" font-family="sans-serif" font-size="14" lengthAdjust="spacing" textLength="122" x="1022.5" y="264.4434">address : Address</text><line style="stroke:#333333;stroke-width:0.5;" x1="998" x2="1169" y1="269.3966" y2="269.3966"/><text fill="#000000" font-family="sans-serif" font-size="14" lengthAdjust="spacing" textLength="161" x="1003" y="286.9317">street = "&#20449;&#32681;&#36335;&#20116;&#27573;7&#34399;"</text><text fill="#000000" font-family="sans-serif" font-size="14" lengthAdjust="spacing" textLength="94" x="1003" y="303.42">city = "&#21488;&#21271;&#24066;"</text><text fill="#000000" font-family="sans-serif" font-size="14" lengthAdjust="spacing" textLength="90" x="1003" y="319.9083">state = "&#21488;&#21271;"</text><text fill="#000000" font-family="sans-serif" font-size="14" lengthAdjust="spacing" textLength="109" x="1003" y="336.3966">country = "&#21488;&#28771;"</text><text fill="#000000" font-family="sans-serif" font-size="14" lengthAdjust="spacing" textLength="113" x="1003" y="352.8848">zipCode = "110"</text></g><g id="elem_GMN21"><path d="M1082,456.6783 L1082,527.9205 L1219,527.9205 L1219,466.6783 L1209,456.6783 L1082,456.6783 " fill="#FFFFCC" style="stroke:#999999;stroke-width:0.5;"/><path d="M1209,456.6783 L1209,466.6783 L1219,466.6783 L1209,456.6783 " fill="#FFFFCC" style="stroke:#999999;stroke-width:1.0;"/><text fill="#000000" font-family="sans-serif" font-size="13" lengthAdjust="spacing" textLength="65" x="1088" y="474.2466">&#35330;&#21934;&#32858;&#21512;&#26681;</text><text fill="#000000" font-family="sans-serif" font-size="13" lengthAdjust="spacing" textLength="116" x="1088" y="489.5572">- &#21253;&#21547;&#35330;&#21934;&#38917;&#30446;&#38598;&#21512;</text><text fill="#000000" font-family="sans-serif" font-size="13" lengthAdjust="spacing" textLength="103" x="1088" y="504.8677">- &#36000;&#36012;&#35336;&#31639;&#32317;&#37329;&#38989;</text><text fill="#000000" font-family="sans-serif" font-size="13" lengthAdjust="spacing" textLength="116" x="1088" y="520.1783">- &#31649;&#29702;&#35330;&#21934;&#29376;&#24907;&#35722;&#26356;</text></g><g id="elem_GMN24"><path d="M405,276.3983 L405,332.3299 A0,0 0 0 0 405,332.3299 L516,332.3299 A0,0 0 0 0 516,332.3299 L516,286.3983 L506,276.3983 L474.2,276.3983 L507.1,172.2383 L466.2,276.3983 L405,276.3983 A0,0 0 0 0 405,276.3983 " fill="#FFFFCC" style="stroke:#999999;stroke-width:0.5;"/><path d="M506,276.3983 L506,286.3983 L516,286.3983 L506,276.3983 " fill="#FFFFCC" style="stroke:#999999;stroke-width:0.5;"/><text fill="#000000" font-family="sans-serif" font-size="13" lengthAdjust="spacing" textLength="65" x="411" y="293.9666">&#25903;&#20184;&#32858;&#21512;&#26681;</text><text fill="#000000" font-family="sans-serif" font-size="13" lengthAdjust="spacing" textLength="90" x="411" y="309.2772">- &#34389;&#29702;&#35330;&#21934;&#25903;&#20184;</text><text fill="#000000" font-family="sans-serif" font-size="13" lengthAdjust="spacing" textLength="90" x="411" y="324.5877">- &#36861;&#36452;&#25903;&#20184;&#29376;&#24907;</text></g><g id="elem_GMN27"><path d="M851,276.3983 L851,332.3299 A0,0 0 0 0 851,332.3299 L962,332.3299 A0,0 0 0 0 962,332.3299 L962,286.3983 L952,276.3983 L910.5,276.3983 L906.5,164.0583 L902.5,276.3983 L851,276.3983 A0,0 0 0 0 851,276.3983 " fill="#FFFFCC" style="stroke:#999999;stroke-width:0.5;"/><path d="M952,276.3983 L952,286.3983 L962,286.3983 L952,276.3983 " fill="#FFFFCC" style="stroke:#999999;stroke-width:0.5;"/><text fill="#000000" font-family="sans-serif" font-size="13" lengthAdjust="spacing" textLength="65" x="857" y="293.9666">&#37197;&#36865;&#32858;&#21512;&#26681;</text><text fill="#000000" font-family="sans-serif" font-size="13" lengthAdjust="spacing" textLength="90" x="857" y="309.2772">- &#31649;&#29702;&#35330;&#21934;&#37197;&#36865;</text><text fill="#000000" font-family="sans-serif" font-size="13" lengthAdjust="spacing" textLength="90" x="857" y="324.5877">- &#36861;&#36452;&#37197;&#36865;&#29376;&#24907;</text></g><g id="elem_GMN30"><path d="M199,464.3283 L199,488.2983 L164.29,492.2983 L199,496.2983 L199,520.2599 A0,0 0 0 0 199,520.2599 L304,520.2599 A0,0 0 0 0 304,520.2599 L304,474.3283 L294,464.3283 L199,464.3283 A0,0 0 0 0 199,464.3283 " fill="#FFFFCC" style="stroke:#999999;stroke-width:0.5;"/><path d="M294,464.3283 L294,474.3283 L304,474.3283 L294,464.3283 " fill="#FFFFCC" style="stroke:#999999;stroke-width:0.5;"/><text fill="#000000" font-family="sans-serif" font-size="13" lengthAdjust="spacing" textLength="84" x="205" y="481.8966">Money &#20540;&#23565;&#35937;</text><text fill="#000000" font-family="sans-serif" font-size="13" lengthAdjust="spacing" textLength="51" x="205" y="497.2072">- &#19981;&#21487;&#35722;</text><text fill="#000000" font-family="sans-serif" font-size="13" lengthAdjust="spacing" textLength="77" x="205" y="512.5177">- &#28961;&#21807;&#19968;&#27161;&#35672;</text></g><!--reverse link order to item1--><g id="link_order_item1"><path codeLine="89" d="M600.63,368.7783 C571.83,390.8083 539.8,415.3183 512,436.5883 " fill="none" id="order-backto-item1" style="stroke:#333333;stroke-width:1.0;"/><polygon fill="#333333" points="610.7,361.0683,603.5044,361.5411,601.1733,368.365,608.3689,367.8922,610.7,361.0683" style="stroke:#333333;stroke-width:1.0;"/><text fill="#000000" font-family="sans-serif" font-size="13" lengthAdjust="spacing" textLength="54" x="570.29" y="403.4066">contains</text></g><!--reverse link order to item2--><g id="link_order_item2"><path codeLine="90" d="M683.5,374.3883 C683.5,394.9083 683.5,417.1083 683.5,436.5883 " fill="none" id="order-backto-item2" style="stroke:#333333;stroke-width:1.0;"/><polygon fill="#333333" points="683.5,361.6583,679.5,367.6583,683.5,373.6583,687.5,367.6583,683.5,361.6583" style="stroke:#333333;stroke-width:1.0;"/><text fill="#000000" font-family="sans-serif" font-size="13" lengthAdjust="spacing" textLength="54" x="684.5" y="403.4066">contains</text></g><!--link order to orderId--><g id="link_order_orderId"><path codeLine="91" d="M758.04,360.1483 C807.74,396.6783 870.4,442.7183 906.71,469.4083 " fill="none" id="order-orderId" style="stroke:#333333;stroke-width:1.0;"/><text fill="#000000" font-family="sans-serif" font-size="13" lengthAdjust="spacing" textLength="79" x="818.59" y="403.4066">identified by</text></g><!--link order to totalAmount--><g id="link_order_totalAmount"><path codeLine="92" d="M550.08,354.8283 C544.5,356.5783 538.96,358.2583 533.5,359.8383 C379.67,404.3683 331.05,379.5683 181.5,436.8383 C164.68,443.2783 147.27,452.3283 131.97,461.2083 " fill="none" id="order-totalAmount" style="stroke:#333333;stroke-width:1.0;"/><text fill="#000000" font-family="sans-serif" font-size="13" lengthAdjust="spacing" textLength="22" x="381.08" y="403.4066">has</text></g><!--link item1 to unitPrice1--><g id="link_item1_unitPrice1"><path codeLine="93" d="M440.5,547.8683 C440.5,573.4483 440.5,602.9383 440.5,624.4083 " fill="none" id="item1-unitPrice1" style="stroke:#333333;stroke-width:1.0;"/><text fill="#000000" font-family="sans-serif" font-size="13" lengthAdjust="spacing" textLength="22" x="441.5" y="591.3366">has</text></g><!--link item2 to unitPrice2--><g id="link_item2_unitPrice2"><path codeLine="94" d="M683.5,547.8683 C683.5,573.4483 683.5,602.9383 683.5,624.4083 " fill="none" id="item2-unitPrice2" style="stroke:#333333;stroke-width:1.0;"/><text fill="#000000" font-family="sans-serif" font-size="13" lengthAdjust="spacing" textLength="22" x="684.5" y="591.3366">has</text></g><!--link payment to order--><g id="link_payment_order"><path codeLine="95" d="M579.5,172.2383 C599,196.8183 621.14,224.7383 639.97,248.4783 " fill="none" id="payment-order" style="stroke:#333333;stroke-width:1.0;"/><text fill="#000000" font-family="sans-serif" font-size="13" lengthAdjust="spacing" textLength="18" x="616.72" y="215.4766">for</text></g><!--link delivery to order--><g id="link_delivery_order"><path codeLine="96" d="M843.49,164.0583 C813.1,190.5283 776.73,222.1883 746.35,248.6383 " fill="none" id="delivery-order" style="stroke:#333333;stroke-width:1.0;"/><text fill="#000000" font-family="sans-serif" font-size="13" lengthAdjust="spacing" textLength="18" x="796" y="215.4766">for</text></g><!--link delivery to address--><g id="link_delivery_address"><path codeLine="97" d="M956.51,164.0583 C980.64,190.5283 1009.5,222.1883 1033.61,248.6383 " fill="none" id="delivery-address" style="stroke:#333333;stroke-width:1.0;"/><text fill="#000000" font-family="sans-serif" font-size="13" lengthAdjust="spacing" textLength="51" x="1006.6" y="215.4766">ships to</text></g><!--link order to GMN21--><g id="link_order_GMN21"><path d="M816.75,353.9583 C822.4,355.9583 828.01,357.9183 833.5,359.8383 C935.7,395.4183 966.73,390.4283 1064.5,436.8383 C1076.31,442.4383 1088.48,449.3583 1099.82,456.3583 " fill="none" id="order-GMN21" style="stroke:#333333;stroke-width:1.0;stroke-dasharray:7.0,7.0;"/></g><!--SRC=[dLPXRzD66FxkNt7AFY1DYcIxYwP5uaEM12aIRQCGXFY4tFXA3X9VThumTTMajAA0A16TncYx8je8D39jIu4DhQo3_fauTlx5pdVds76T3hWlTPxdxdtVv-wvzshVH5RB84OJuAKRi4R1gWBO-DgetRnESDioyxY12VYio0VdSeJWRoKynuTOWea9oJJ-lQBOamGMfd1M-0jivFEdutp5Xn-78jg0mEklEuy7xf_7xfjNuuCTPtz_rEyvJpUTbrtlLSzvybXHpib9tjhFpjQzqS5Rv_2NuVjDHUfByV0W2nRzlobWs40WeZ9aWlCWjLWff7LL_qBDQ6fQLRKKvsngqBRD-FpYmeLIPRvOu72jRLFSXAJ4b-OlNwg6IoYcHYFNP4ef8-Soggg2wXMvZa23GZFdCoa_MrhDf3MrggdPEJMhgYbVTg1cVB3XxWrYKX25JIsGKc8_k1o12ZajWirsZOhIofN5GbYQf1QC9lH9LAvZ2m8j8zXlseR5jdo5KHe7sXQYPO9g_kGvDQh3RYzncLC4AprQfPvOfNv6bNfYbJb4ojYqGPdW3wWpCwFCJAJASs3qw71ul3FBBYrZfGdPwML1MNpnwWCqQffoxcg2QRYvIcUuoaXsHyHiy-MBnQeqcqmy3saT2xzLYeLIzLe-Loca_jTMcT1MuutkkBCsIxK96-WM92jCTa5-SjqJF2gyKBpuAS8d2aiBrwgLtCAbKbLiY6aIQFj4odduqdcmxHoj3qzwxljVdMv7KpNd-OjH_qSH0zeKDNsvGPK5zcDAk2xrEfr_PPD8Q0UipC2VPjWI62fatZ8QRPWi9EBpw5tFWdbscyIUHV7LX2ENJOGGQDLy7yUkpyJGsbJK21mFgdv4K3qvg1uF-W651kUM1JdnnKC6wAeySm8XTwOuKU_lm-4_ZqQ3Drzwk_lIl-8sXsSVkWM6k9phLqU2wUxQCm5_XrfvRFBPcZOn_FQJuScw8fhzv-aq2Bfd3LlKG9OTe_JJ56D2ko2JtKEqZA09bbR22TCkg1ks8l8mQkea0qQVOdJ91FqboCZWPKoKoVKx0m-FmQwZbcy_yOeSUo-UAVmDNiAKFLW0BuiORCjYBoP3qi1viE5i_HPzVSPxTnZFIU_rWVVwTwz_pnrikqVlndT_6FUwd747FNVhZdodDpkZZKrlS7-qzvS2BPF_2w34Yv1QsUfO9nQPTd-Qn1EyW4_UUM-V2q2acPqWs1ssCDRrJbKi-4W60IHd8EXwdVe98cVEblBh5FOR7cnur7KU7hAT41blznnM-L5drD_r_jW9u_u7]--></g></svg>