<?xml version="1.0" encoding="us-ascii" standalone="no"?><svg xmlns="http://www.w3.org/2000/svg" xmlns:xlink="http://www.w3.org/1999/xlink" contentStyleType="text/css" height="1883px" preserveAspectRatio="none" style="width:1141px;height:1883px;background:#FFFFFF;" version="1.1" viewBox="0 0 1141 1883" width="1141px" zoomAndPan="magnify"><defs/><g><text fill="#000000" font-family="sans-serif" font-size="14" font-weight="bold" lengthAdjust="spacing" textLength="117" x="508" y="28.5352">&#35330;&#21934;&#34389;&#29702;Saga&#27169;&#24335;</text><rect fill="#FFFFFF" height="1599.7715" style="stroke:#4682B4;stroke-width:1.0;" width="10" x="114" y="148.5977"/><rect fill="#FFFFFF" height="29.3105" style="stroke:#4682B4;stroke-width:1.0;" width="10" x="119" y="682.877"/><rect fill="#FFFFFF" height="29.3105" style="stroke:#4682B4;stroke-width:1.0;" width="10" x="119" y="1091.5586"/><rect fill="#FFFFFF" height="29.3105" style="stroke:#4682B4;stroke-width:1.0;" width="10" x="119" y="1405.3086"/><rect fill="#FFFFFF" height="29.3105" style="stroke:#4682B4;stroke-width:1.0;" width="10" x="119" y="1617.127"/><rect fill="#FFFFFF" height="1519.8398" style="stroke:#4682B4;stroke-width:1.0;" width="10" x="372" y="207.2188"/><rect fill="#FFFFFF" height="53.6211" style="stroke:#4682B4;stroke-width:1.0;" width="10" x="561" y="430.3926"/><rect fill="#FFFFFF" height="29.3105" style="stroke:#4682B4;stroke-width:1.0;" width="10" x="561" y="887.6953"/><rect fill="#FFFFFF" height="53.6211" style="stroke:#4682B4;stroke-width:1.0;" width="10" x="691.5" y="556.6348"/><rect fill="#FFFFFF" height="53.6211" style="stroke:#4682B4;stroke-width:1.0;" width="10" x="825" y="304.1504"/><rect fill="#FFFFFF" height="29.3105" style="stroke:#4682B4;stroke-width:1.0;" width="10" x="825" y="989.627"/><rect fill="#FFFFFF" height="29.3105" style="stroke:#4682B4;stroke-width:1.0;" width="10" x="825" y="1303.377"/><rect fill="#FFFFFF" height="29.3105" style="stroke:#4682B4;stroke-width:1.0;" width="10" x="968.5" y="741.498"/><rect fill="#FFFFFF" height="29.3105" style="stroke:#4682B4;stroke-width:1.0;" width="10" x="968.5" y="1150.1797"/><rect fill="#FFFFFF" height="29.3105" style="stroke:#4682B4;stroke-width:1.0;" width="10" x="968.5" y="1463.9297"/><rect fill="#FFFFFF" height="29.3105" style="stroke:#4682B4;stroke-width:1.0;" width="10" x="968.5" y="1675.748"/><rect fill="#FFFFFF" height="29.3105" style="stroke:#4682B4;stroke-width:1.0;" width="10" x="1086.5" y="177.9082"/><rect fill="none" height="1497.8398" style="stroke:#4682B4;stroke-width:1.5;" width="1056" x="28" y="222.2188"/><rect fill="none" height="1393.9082" style="stroke:#4682B4;stroke-width:1.5;" width="1036" x="38" y="319.1504"/><rect fill="none" height="1055.8477" style="stroke:#4682B4;stroke-width:1.5;" width="1016" x="48" y="445.3926"/><rect fill="none" height="615.8555" style="stroke:#4682B4;stroke-width:1.5;" width="996" x="58" y="571.6348"/><line style="stroke:#4682B4;stroke-width:0.5;stroke-dasharray:5.0,5.0;" x1="119" x2="119" y1="73.9766" y2="1847.6113"/><line style="stroke:#4682B4;stroke-width:0.5;stroke-dasharray:5.0,5.0;" x1="376.5" x2="376.5" y1="73.9766" y2="1847.6113"/><line style="stroke:#4682B4;stroke-width:0.5;stroke-dasharray:5.0,5.0;" x1="566" x2="566" y1="73.9766" y2="1847.6113"/><line style="stroke:#4682B4;stroke-width:0.5;stroke-dasharray:5.0,5.0;" x1="696" x2="696" y1="73.9766" y2="1847.6113"/><line style="stroke:#4682B4;stroke-width:0.5;stroke-dasharray:5.0,5.0;" x1="830" x2="830" y1="73.9766" y2="1847.6113"/><line style="stroke:#4682B4;stroke-width:0.5;stroke-dasharray:5.0,5.0;" x1="973" x2="973" y1="73.9766" y2="1847.6113"/><line style="stroke:#4682B4;stroke-width:0.5;stroke-dasharray:5.0,5.0;" x1="1091" x2="1091" y1="73.9766" y2="1847.6113"/><rect fill="#E2E2F0" height="30.4883" rx="2.5" ry="2.5" style="stroke:#181818;stroke-width:0.5;" width="102" x="68" y="42.4883"/><text fill="#000000" font-family="sans-serif" font-size="14" lengthAdjust="spacing" textLength="88" x="75" y="63.0234">OrderService</text><rect fill="#E2E2F0" height="30.4883" rx="2.5" ry="2.5" style="stroke:#181818;stroke-width:0.5;" width="102" x="68" y="1846.6113"/><text fill="#000000" font-family="sans-serif" font-size="14" lengthAdjust="spacing" textLength="88" x="75" y="1867.1465">OrderService</text><rect fill="#E2E2F0" height="30.4883" rx="2.5" ry="2.5" style="stroke:#181818;stroke-width:0.5;" width="87" x="333.5" y="42.4883"/><text fill="#000000" font-family="sans-serif" font-size="14" lengthAdjust="spacing" textLength="73" x="340.5" y="63.0234">OrderSaga</text><rect fill="#E2E2F0" height="30.4883" rx="2.5" ry="2.5" style="stroke:#181818;stroke-width:0.5;" width="87" x="333.5" y="1846.6113"/><text fill="#000000" font-family="sans-serif" font-size="14" lengthAdjust="spacing" textLength="73" x="340.5" y="1867.1465">OrderSaga</text><rect fill="#E2E2F0" height="30.4883" rx="2.5" ry="2.5" style="stroke:#181818;stroke-width:0.5;" width="120" x="506" y="42.4883"/><text fill="#000000" font-family="sans-serif" font-size="14" lengthAdjust="spacing" textLength="106" x="513" y="63.0234">PaymentService</text><rect fill="#E2E2F0" height="30.4883" rx="2.5" ry="2.5" style="stroke:#181818;stroke-width:0.5;" width="120" x="506" y="1846.6113"/><text fill="#000000" font-family="sans-serif" font-size="14" lengthAdjust="spacing" textLength="106" x="513" y="1867.1465">PaymentService</text><rect fill="#E2E2F0" height="30.4883" rx="2.5" ry="2.5" style="stroke:#181818;stroke-width:0.5;" width="121" x="636" y="42.4883"/><text fill="#000000" font-family="sans-serif" font-size="14" lengthAdjust="spacing" textLength="107" x="643" y="63.0234">LogisticsService</text><rect fill="#E2E2F0" height="30.4883" rx="2.5" ry="2.5" style="stroke:#181818;stroke-width:0.5;" width="121" x="636" y="1846.6113"/><text fill="#000000" font-family="sans-serif" font-size="14" lengthAdjust="spacing" textLength="107" x="643" y="1867.1465">LogisticsService</text><rect fill="#E2E2F0" height="30.4883" rx="2.5" ry="2.5" style="stroke:#181818;stroke-width:0.5;" width="126" x="767" y="42.4883"/><text fill="#000000" font-family="sans-serif" font-size="14" lengthAdjust="spacing" textLength="112" x="774" y="63.0234">InventoryService</text><rect fill="#E2E2F0" height="30.4883" rx="2.5" ry="2.5" style="stroke:#181818;stroke-width:0.5;" width="126" x="767" y="1846.6113"/><text fill="#000000" font-family="sans-serif" font-size="14" lengthAdjust="spacing" textLength="112" x="774" y="1867.1465">InventoryService</text><rect fill="#E2E2F0" height="30.4883" rx="2.5" ry="2.5" style="stroke:#181818;stroke-width:0.5;" width="141" x="903" y="42.4883"/><text fill="#000000" font-family="sans-serif" font-size="14" lengthAdjust="spacing" textLength="127" x="910" y="63.0234">NotificationService</text><rect fill="#E2E2F0" height="30.4883" rx="2.5" ry="2.5" style="stroke:#181818;stroke-width:0.5;" width="141" x="903" y="1846.6113"/><text fill="#000000" font-family="sans-serif" font-size="14" lengthAdjust="spacing" textLength="127" x="910" y="1867.1465">NotificationService</text><rect fill="#E2E2F0" height="30.4883" rx="2.5" ry="2.5" style="stroke:#181818;stroke-width:0.5;" width="75" x="1054" y="42.4883"/><text fill="#000000" font-family="sans-serif" font-size="14" lengthAdjust="spacing" textLength="61" x="1061" y="63.0234">EventBus</text><rect fill="#E2E2F0" height="30.4883" rx="2.5" ry="2.5" style="stroke:#181818;stroke-width:0.5;" width="75" x="1054" y="1846.6113"/><text fill="#000000" font-family="sans-serif" font-size="14" lengthAdjust="spacing" textLength="61" x="1061" y="1867.1465">EventBus</text><rect fill="#FFFFFF" height="1599.7715" style="stroke:#4682B4;stroke-width:1.0;" width="10" x="114" y="148.5977"/><rect fill="#FFFFFF" height="29.3105" style="stroke:#4682B4;stroke-width:1.0;" width="10" x="119" y="682.877"/><rect fill="#FFFFFF" height="29.3105" style="stroke:#4682B4;stroke-width:1.0;" width="10" x="119" y="1091.5586"/><rect fill="#FFFFFF" height="29.3105" style="stroke:#4682B4;stroke-width:1.0;" width="10" x="119" y="1405.3086"/><rect fill="#FFFFFF" height="29.3105" style="stroke:#4682B4;stroke-width:1.0;" width="10" x="119" y="1617.127"/><rect fill="#FFFFFF" height="1519.8398" style="stroke:#4682B4;stroke-width:1.0;" width="10" x="372" y="207.2188"/><rect fill="#FFFFFF" height="53.6211" style="stroke:#4682B4;stroke-width:1.0;" width="10" x="561" y="430.3926"/><rect fill="#FFFFFF" height="29.3105" style="stroke:#4682B4;stroke-width:1.0;" width="10" x="561" y="887.6953"/><rect fill="#FFFFFF" height="53.6211" style="stroke:#4682B4;stroke-width:1.0;" width="10" x="691.5" y="556.6348"/><rect fill="#FFFFFF" height="53.6211" style="stroke:#4682B4;stroke-width:1.0;" width="10" x="825" y="304.1504"/><rect fill="#FFFFFF" height="29.3105" style="stroke:#4682B4;stroke-width:1.0;" width="10" x="825" y="989.627"/><rect fill="#FFFFFF" height="29.3105" style="stroke:#4682B4;stroke-width:1.0;" width="10" x="825" y="1303.377"/><rect fill="#FFFFFF" height="29.3105" style="stroke:#4682B4;stroke-width:1.0;" width="10" x="968.5" y="741.498"/><rect fill="#FFFFFF" height="29.3105" style="stroke:#4682B4;stroke-width:1.0;" width="10" x="968.5" y="1150.1797"/><rect fill="#FFFFFF" height="29.3105" style="stroke:#4682B4;stroke-width:1.0;" width="10" x="968.5" y="1463.9297"/><rect fill="#FFFFFF" height="29.3105" style="stroke:#4682B4;stroke-width:1.0;" width="10" x="968.5" y="1675.748"/><rect fill="#FFFFFF" height="29.3105" style="stroke:#4682B4;stroke-width:1.0;" width="10" x="1086.5" y="177.9082"/><rect fill="#EEEEEE" height="3" style="stroke:#EEEEEE;stroke-width:1.0;" width="1134" x="0" y="104.6318"/><line style="stroke:#000000;stroke-width:1.0;" x1="0" x2="1134" y1="104.6318" y2="104.6318"/><line style="stroke:#000000;stroke-width:1.0;" x1="0" x2="1134" y1="107.6318" y2="107.6318"/><rect fill="#EEEEEE" height="23.3105" style="stroke:#000000;stroke-width:2.0;" width="96" x="519" y="93.9766"/><text fill="#000000" font-family="sans-serif" font-size="13" font-weight="bold" lengthAdjust="spacing" textLength="78" x="525" y="110.5449">&#35330;&#21934;&#21109;&#24314;&#38542;&#27573;</text><polygon fill="#181818" points="102,144.5977,112,148.5977,102,152.5977,106,148.5977" style="stroke:#181818;stroke-width:1.0;"/><line style="stroke:#181818;stroke-width:1.0;" x1="0" x2="108" y1="148.5977" y2="148.5977"/><text fill="#000000" font-family="sans-serif" font-size="13" lengthAdjust="spacing" textLength="81" x="16.5" y="143.8555">createOrder()</text><polygon fill="#181818" points="1074.5,173.9082,1084.5,177.9082,1074.5,181.9082,1078.5,177.9082" style="stroke:#181818;stroke-width:1.0;"/><line style="stroke:#181818;stroke-width:1.0;" x1="124" x2="1080.5" y1="177.9082" y2="177.9082"/><text fill="#000000" font-family="sans-serif" font-size="13" lengthAdjust="spacing" textLength="172" x="519.25" y="173.166">publish(OrderCreatedEvent)</text><polygon fill="#181818" points="393,203.2188,383,207.2188,393,211.2188,389,207.2188" style="stroke:#181818;stroke-width:1.0;"/><line style="stroke:#181818;stroke-width:1.0;" x1="387" x2="1090.5" y1="207.2188" y2="207.2188"/><text fill="#000000" font-family="sans-serif" font-size="13" lengthAdjust="spacing" textLength="167" x="653.25" y="202.4766">handle(OrderCreatedEvent)</text><path d="M28,222.2188 L157,222.2188 L157,229.5293 L147,239.5293 L28,239.5293 L28,222.2188 " fill="#E0FFFF" style="stroke:#4682B4;stroke-width:1.5;"/><rect fill="none" height="1497.8398" style="stroke:#4682B4;stroke-width:1.5;" width="1056" x="28" y="222.2188"/><text fill="#000000" font-family="sans-serif" font-size="13" font-weight="bold" lengthAdjust="spacing" textLength="84" x="43" y="235.7871">&#35330;&#21934;&#34389;&#29702;Saga</text><rect fill="#EEEEEE" height="3" style="stroke:#EEEEEE;stroke-width:1.0;" width="1134" x="0" y="260.1846"/><line style="stroke:#000000;stroke-width:1.0;" x1="0" x2="1134" y1="260.1846" y2="260.1846"/><line style="stroke:#000000;stroke-width:1.0;" x1="0" x2="1134" y1="263.1846" y2="263.1846"/><rect fill="#EEEEEE" height="23.3105" style="stroke:#000000;stroke-width:2.0;" width="96" x="519" y="249.5293"/><text fill="#000000" font-family="sans-serif" font-size="13" font-weight="bold" lengthAdjust="spacing" textLength="78" x="525" y="266.0977">&#24235;&#23384;&#27298;&#26597;&#38542;&#27573;</text><polygon fill="#181818" points="813,300.1504,823,304.1504,813,308.1504,817,304.1504" style="stroke:#181818;stroke-width:1.0;"/><line style="stroke:#181818;stroke-width:1.0;" x1="382" x2="819" y1="304.1504" y2="304.1504"/><text fill="#000000" font-family="sans-serif" font-size="13" lengthAdjust="spacing" textLength="149" x="529" y="299.4082">checkInventory(orderId)</text><path d="M38,319.1504 L100,319.1504 L100,326.4609 L90,336.4609 L38,336.4609 L38,319.1504 " fill="#E0FFFF" style="stroke:#4682B4;stroke-width:1.5;"/><rect fill="none" height="1393.9082" style="stroke:#4682B4;stroke-width:1.5;" width="1036" x="38" y="319.1504"/><text fill="#000000" font-family="sans-serif" font-size="13" font-weight="bold" lengthAdjust="spacing" textLength="17" x="53" y="332.7188">alt</text><text fill="#000000" font-family="sans-serif" font-size="11" font-weight="bold" lengthAdjust="spacing" textLength="52" x="115" y="331.7852">[&#24235;&#23384;&#20805;&#36275;]</text><polygon fill="#181818" points="393,353.7715,383,357.7715,393,361.7715,389,357.7715" style="stroke:#181818;stroke-width:1.0;"/><line style="stroke:#181818;stroke-width:1.0;stroke-dasharray:2.0,2.0;" x1="387" x2="829" y1="357.7715" y2="357.7715"/><text fill="#000000" font-family="sans-serif" font-size="13" lengthAdjust="spacing" textLength="149" x="531.5" y="353.0293">InventoryReservedEvent</text><rect fill="#EEEEEE" height="3" style="stroke:#EEEEEE;stroke-width:1.0;" width="1134" x="0" y="386.4268"/><line style="stroke:#000000;stroke-width:1.0;" x1="0" x2="1134" y1="386.4268" y2="386.4268"/><line style="stroke:#000000;stroke-width:1.0;" x1="0" x2="1134" y1="389.4268" y2="389.4268"/><rect fill="#EEEEEE" height="23.3105" style="stroke:#000000;stroke-width:2.0;" width="96" x="519" y="375.7715"/><text fill="#000000" font-family="sans-serif" font-size="13" font-weight="bold" lengthAdjust="spacing" textLength="78" x="525" y="392.3398">&#25903;&#20184;&#34389;&#29702;&#38542;&#27573;</text><polygon fill="#181818" points="549,426.3926,559,430.3926,549,434.3926,553,430.3926" style="stroke:#181818;stroke-width:1.0;"/><line style="stroke:#181818;stroke-width:1.0;" x1="382" x2="555" y1="430.3926" y2="430.3926"/><text fill="#000000" font-family="sans-serif" font-size="13" lengthAdjust="spacing" textLength="155" x="394" y="425.6504">processPayment(orderId)</text><path d="M48,445.3926 L110,445.3926 L110,452.7031 L100,462.7031 L48,462.7031 L48,445.3926 " fill="#E0FFFF" style="stroke:#4682B4;stroke-width:1.5;"/><rect fill="none" height="1055.8477" style="stroke:#4682B4;stroke-width:1.5;" width="1016" x="48" y="445.3926"/><text fill="#000000" font-family="sans-serif" font-size="13" font-weight="bold" lengthAdjust="spacing" textLength="17" x="63" y="458.9609">alt</text><text fill="#000000" font-family="sans-serif" font-size="11" font-weight="bold" lengthAdjust="spacing" textLength="52" x="125" y="458.0273">[&#25903;&#20184;&#25104;&#21151;]</text><polygon fill="#181818" points="393,480.0137,383,484.0137,393,488.0137,389,484.0137" style="stroke:#181818;stroke-width:1.0;"/><line style="stroke:#181818;stroke-width:1.0;stroke-dasharray:2.0,2.0;" x1="387" x2="565" y1="484.0137" y2="484.0137"/><text fill="#000000" font-family="sans-serif" font-size="13" lengthAdjust="spacing" textLength="155" x="396.5" y="479.2715">PaymentCompletedEvent</text><rect fill="#EEEEEE" height="3" style="stroke:#EEEEEE;stroke-width:1.0;" width="1134" x="0" y="512.6689"/><line style="stroke:#000000;stroke-width:1.0;" x1="0" x2="1134" y1="512.6689" y2="512.6689"/><line style="stroke:#000000;stroke-width:1.0;" x1="0" x2="1134" y1="515.6689" y2="515.6689"/><rect fill="#EEEEEE" height="23.3105" style="stroke:#000000;stroke-width:2.0;" width="96" x="519" y="502.0137"/><text fill="#000000" font-family="sans-serif" font-size="13" font-weight="bold" lengthAdjust="spacing" textLength="78" x="525" y="518.582">&#29289;&#27969;&#34389;&#29702;&#38542;&#27573;</text><polygon fill="#181818" points="679.5,552.6348,689.5,556.6348,679.5,560.6348,683.5,556.6348" style="stroke:#181818;stroke-width:1.0;"/><line style="stroke:#181818;stroke-width:1.0;" x1="382" x2="685.5" y1="556.6348" y2="556.6348"/><text fill="#000000" font-family="sans-serif" font-size="13" lengthAdjust="spacing" textLength="151" x="461.25" y="551.8926">arrangeDelivery(orderId)</text><path d="M58,571.6348 L120,571.6348 L120,578.9453 L110,588.9453 L58,588.9453 L58,571.6348 " fill="#E0FFFF" style="stroke:#4682B4;stroke-width:1.5;"/><rect fill="none" height="615.8555" style="stroke:#4682B4;stroke-width:1.5;" width="996" x="58" y="571.6348"/><text fill="#000000" font-family="sans-serif" font-size="13" font-weight="bold" lengthAdjust="spacing" textLength="17" x="73" y="585.2031">alt</text><text fill="#000000" font-family="sans-serif" font-size="11" font-weight="bold" lengthAdjust="spacing" textLength="74" x="135" y="584.2695">[&#29289;&#27969;&#23433;&#25490;&#25104;&#21151;]</text><polygon fill="#181818" points="393,606.2559,383,610.2559,393,614.2559,389,610.2559" style="stroke:#181818;stroke-width:1.0;"/><line style="stroke:#181818;stroke-width:1.0;stroke-dasharray:2.0,2.0;" x1="387" x2="695.5" y1="610.2559" y2="610.2559"/><text fill="#000000" font-family="sans-serif" font-size="13" lengthAdjust="spacing" textLength="142" x="468.25" y="605.5137">DeliveryArrangedEvent</text><rect fill="#EEEEEE" height="3" style="stroke:#EEEEEE;stroke-width:1.0;" width="1134" x="0" y="638.9111"/><line style="stroke:#000000;stroke-width:1.0;" x1="0" x2="1134" y1="638.9111" y2="638.9111"/><line style="stroke:#000000;stroke-width:1.0;" x1="0" x2="1134" y1="641.9111" y2="641.9111"/><rect fill="#EEEEEE" height="23.3105" style="stroke:#000000;stroke-width:2.0;" width="96" x="519" y="628.2559"/><text fill="#000000" font-family="sans-serif" font-size="13" font-weight="bold" lengthAdjust="spacing" textLength="78" x="525" y="644.8242">&#23436;&#25104;&#35330;&#21934;&#38542;&#27573;</text><polygon fill="#181818" points="140,678.877,130,682.877,140,686.877,136,682.877" style="stroke:#181818;stroke-width:1.0;"/><line style="stroke:#181818;stroke-width:1.0;" x1="134" x2="371" y1="682.877" y2="682.877"/><text fill="#000000" font-family="sans-serif" font-size="13" lengthAdjust="spacing" textLength="146" x="177.5" y="678.1348">completeOrder(orderId)</text><polygon fill="#181818" points="360,708.1875,370,712.1875,360,716.1875,364,712.1875" style="stroke:#181818;stroke-width:1.0;"/><line style="stroke:#181818;stroke-width:1.0;stroke-dasharray:2.0,2.0;" x1="124" x2="366" y1="712.1875" y2="712.1875"/><text fill="#000000" font-family="sans-serif" font-size="13" lengthAdjust="spacing" textLength="137" x="179.5" y="707.4453">OrderCompletedEvent</text><polygon fill="#181818" points="956.5,737.498,966.5,741.498,956.5,745.498,960.5,741.498" style="stroke:#181818;stroke-width:1.0;"/><line style="stroke:#181818;stroke-width:1.0;" x1="382" x2="962.5" y1="741.498" y2="741.498"/><text fill="#000000" font-family="sans-serif" font-size="13" lengthAdjust="spacing" textLength="201" x="574.75" y="736.7559">sendOrderConfirmation(orderId)</text><polygon fill="#181818" points="393,766.8086,383,770.8086,393,774.8086,389,770.8086" style="stroke:#181818;stroke-width:1.0;"/><line style="stroke:#181818;stroke-width:1.0;stroke-dasharray:2.0,2.0;" x1="387" x2="972.5" y1="770.8086" y2="770.8086"/><text fill="#000000" font-family="sans-serif" font-size="13" lengthAdjust="spacing" textLength="136" x="609.75" y="766.0664">NotificationSentEvent</text><line style="stroke:#4682B4;stroke-width:1.0;stroke-dasharray:2.0,2.0;" x1="58" x2="1054" y1="779.8086" y2="779.8086"/><text fill="#000000" font-family="sans-serif" font-size="11" font-weight="bold" lengthAdjust="spacing" textLength="74" x="63" y="790.4434">[&#29289;&#27969;&#23433;&#25490;&#22833;&#25943;]</text><polygon fill="#181818" points="393,811.0742,383,815.0742,393,819.0742,389,815.0742" style="stroke:#181818;stroke-width:1.0;"/><line style="stroke:#181818;stroke-width:1.0;stroke-dasharray:2.0,2.0;" x1="387" x2="695.5" y1="815.0742" y2="815.0742"/><text fill="#000000" font-family="sans-serif" font-size="13" lengthAdjust="spacing" textLength="122" x="478.25" y="810.332">DeliveryFailedEvent</text><rect fill="#EEEEEE" height="3" style="stroke:#EEEEEE;stroke-width:1.0;" width="1134" x="0" y="843.7295"/><line style="stroke:#000000;stroke-width:1.0;" x1="0" x2="1134" y1="843.7295" y2="843.7295"/><line style="stroke:#000000;stroke-width:1.0;" x1="0" x2="1134" y1="846.7295" y2="846.7295"/><rect fill="#EEEEEE" height="23.3105" style="stroke:#000000;stroke-width:2.0;" width="129" x="502.5" y="833.0742"/><text fill="#000000" font-family="sans-serif" font-size="13" font-weight="bold" lengthAdjust="spacing" textLength="111" x="508.5" y="849.6426">&#35036;&#20767;&#20107;&#21209;: &#21462;&#28040;&#25903;&#20184;</text><polygon fill="#181818" points="549,883.6953,559,887.6953,549,891.6953,553,887.6953" style="stroke:#181818;stroke-width:1.0;"/><line style="stroke:#181818;stroke-width:1.0;" x1="382" x2="555" y1="887.6953" y2="887.6953"/><text fill="#000000" font-family="sans-serif" font-size="13" lengthAdjust="spacing" textLength="147" x="398" y="882.9531">refundPayment(orderId)</text><polygon fill="#181818" points="393,913.0059,383,917.0059,393,921.0059,389,917.0059" style="stroke:#181818;stroke-width:1.0;"/><line style="stroke:#181818;stroke-width:1.0;stroke-dasharray:2.0,2.0;" x1="387" x2="565" y1="917.0059" y2="917.0059"/><text fill="#000000" font-family="sans-serif" font-size="13" lengthAdjust="spacing" textLength="146" x="401" y="912.2637">PaymentRefundedEvent</text><rect fill="#EEEEEE" height="3" style="stroke:#EEEEEE;stroke-width:1.0;" width="1134" x="0" y="945.6611"/><line style="stroke:#000000;stroke-width:1.0;" x1="0" x2="1134" y1="945.6611" y2="945.6611"/><line style="stroke:#000000;stroke-width:1.0;" x1="0" x2="1134" y1="948.6611" y2="948.6611"/><rect fill="#EEEEEE" height="23.3105" style="stroke:#000000;stroke-width:2.0;" width="129" x="502.5" y="935.0059"/><text fill="#000000" font-family="sans-serif" font-size="13" font-weight="bold" lengthAdjust="spacing" textLength="111" x="508.5" y="951.5742">&#35036;&#20767;&#20107;&#21209;: &#37323;&#25918;&#24235;&#23384;</text><polygon fill="#181818" points="813,985.627,823,989.627,813,993.627,817,989.627" style="stroke:#181818;stroke-width:1.0;"/><line style="stroke:#181818;stroke-width:1.0;" x1="382" x2="819" y1="989.627" y2="989.627"/><text fill="#000000" font-family="sans-serif" font-size="13" lengthAdjust="spacing" textLength="156" x="525.5" y="984.8848">releaseInventory(orderId)</text><polygon fill="#181818" points="393,1014.9375,383,1018.9375,393,1022.9375,389,1018.9375" style="stroke:#181818;stroke-width:1.0;"/><line style="stroke:#181818;stroke-width:1.0;stroke-dasharray:2.0,2.0;" x1="387" x2="829" y1="1018.9375" y2="1018.9375"/><text fill="#000000" font-family="sans-serif" font-size="13" lengthAdjust="spacing" textLength="148" x="532" y="1014.1953">InventoryReleasedEvent</text><rect fill="#EEEEEE" height="3" style="stroke:#EEEEEE;stroke-width:1.0;" width="1134" x="0" y="1047.5928"/><line style="stroke:#000000;stroke-width:1.0;" x1="0" x2="1134" y1="1047.5928" y2="1047.5928"/><line style="stroke:#000000;stroke-width:1.0;" x1="0" x2="1134" y1="1050.5928" y2="1050.5928"/><rect fill="#EEEEEE" height="23.3105" style="stroke:#000000;stroke-width:2.0;" width="70" x="532" y="1036.9375"/><text fill="#000000" font-family="sans-serif" font-size="13" font-weight="bold" lengthAdjust="spacing" textLength="52" x="538" y="1053.5059">&#21462;&#28040;&#35330;&#21934;</text><polygon fill="#181818" points="140,1087.5586,130,1091.5586,140,1095.5586,136,1091.5586" style="stroke:#181818;stroke-width:1.0;"/><line style="stroke:#181818;stroke-width:1.0;" x1="134" x2="371" y1="1091.5586" y2="1091.5586"/><text fill="#000000" font-family="sans-serif" font-size="13" lengthAdjust="spacing" textLength="224" x="138.5" y="1086.8164">cancelOrder(orderId, "&#29289;&#27969;&#23433;&#25490;&#22833;&#25943;")</text><polygon fill="#181818" points="360,1116.8691,370,1120.8691,360,1124.8691,364,1120.8691" style="stroke:#181818;stroke-width:1.0;"/><line style="stroke:#181818;stroke-width:1.0;stroke-dasharray:2.0,2.0;" x1="124" x2="366" y1="1120.8691" y2="1120.8691"/><text fill="#000000" font-family="sans-serif" font-size="13" lengthAdjust="spacing" textLength="130" x="183" y="1116.127">OrderCancelledEvent</text><polygon fill="#181818" points="956.5,1146.1797,966.5,1150.1797,956.5,1154.1797,960.5,1150.1797" style="stroke:#181818;stroke-width:1.0;"/><line style="stroke:#181818;stroke-width:1.0;" x1="382" x2="962.5" y1="1150.1797" y2="1150.1797"/><text fill="#000000" font-family="sans-serif" font-size="13" lengthAdjust="spacing" textLength="333" x="508.75" y="1145.4375">sendOrderCancellationNotice(orderId, "&#29289;&#27969;&#23433;&#25490;&#22833;&#25943;")</text><polygon fill="#181818" points="393,1175.4902,383,1179.4902,393,1183.4902,389,1179.4902" style="stroke:#181818;stroke-width:1.0;"/><line style="stroke:#181818;stroke-width:1.0;stroke-dasharray:2.0,2.0;" x1="387" x2="972.5" y1="1179.4902" y2="1179.4902"/><text fill="#000000" font-family="sans-serif" font-size="13" lengthAdjust="spacing" textLength="136" x="609.75" y="1174.748">NotificationSentEvent</text><line style="stroke:#4682B4;stroke-width:1.0;stroke-dasharray:2.0,2.0;" x1="48" x2="1064" y1="1195.4902" y2="1195.4902"/><text fill="#000000" font-family="sans-serif" font-size="11" font-weight="bold" lengthAdjust="spacing" textLength="52" x="53" y="1206.125">[&#25903;&#20184;&#22833;&#25943;]</text><polygon fill="#181818" points="393,1226.7559,383,1230.7559,393,1234.7559,389,1230.7559" style="stroke:#181818;stroke-width:1.0;"/><line style="stroke:#181818;stroke-width:1.0;stroke-dasharray:2.0,2.0;" x1="387" x2="565" y1="1230.7559" y2="1230.7559"/><text fill="#000000" font-family="sans-serif" font-size="13" lengthAdjust="spacing" textLength="124" x="412" y="1226.0137">PaymentFailedEvent</text><rect fill="#EEEEEE" height="3" style="stroke:#EEEEEE;stroke-width:1.0;" width="1134" x="0" y="1259.4111"/><line style="stroke:#000000;stroke-width:1.0;" x1="0" x2="1134" y1="1259.4111" y2="1259.4111"/><line style="stroke:#000000;stroke-width:1.0;" x1="0" x2="1134" y1="1262.4111" y2="1262.4111"/><rect fill="#EEEEEE" height="23.3105" style="stroke:#000000;stroke-width:2.0;" width="129" x="502.5" y="1248.7559"/><text fill="#000000" font-family="sans-serif" font-size="13" font-weight="bold" lengthAdjust="spacing" textLength="111" x="508.5" y="1265.3242">&#35036;&#20767;&#20107;&#21209;: &#37323;&#25918;&#24235;&#23384;</text><polygon fill="#181818" points="813,1299.377,823,1303.377,813,1307.377,817,1303.377" style="stroke:#181818;stroke-width:1.0;"/><line style="stroke:#181818;stroke-width:1.0;" x1="382" x2="819" y1="1303.377" y2="1303.377"/><text fill="#000000" font-family="sans-serif" font-size="13" lengthAdjust="spacing" textLength="156" x="525.5" y="1298.6348">releaseInventory(orderId)</text><polygon fill="#181818" points="393,1328.6875,383,1332.6875,393,1336.6875,389,1332.6875" style="stroke:#181818;stroke-width:1.0;"/><line style="stroke:#181818;stroke-width:1.0;stroke-dasharray:2.0,2.0;" x1="387" x2="829" y1="1332.6875" y2="1332.6875"/><text fill="#000000" font-family="sans-serif" font-size="13" lengthAdjust="spacing" textLength="148" x="532" y="1327.9453">InventoryReleasedEvent</text><rect fill="#EEEEEE" height="3" style="stroke:#EEEEEE;stroke-width:1.0;" width="1134" x="0" y="1361.3428"/><line style="stroke:#000000;stroke-width:1.0;" x1="0" x2="1134" y1="1361.3428" y2="1361.3428"/><line style="stroke:#000000;stroke-width:1.0;" x1="0" x2="1134" y1="1364.3428" y2="1364.3428"/><rect fill="#EEEEEE" height="23.3105" style="stroke:#000000;stroke-width:2.0;" width="70" x="532" y="1350.6875"/><text fill="#000000" font-family="sans-serif" font-size="13" font-weight="bold" lengthAdjust="spacing" textLength="52" x="538" y="1367.2559">&#21462;&#28040;&#35330;&#21934;</text><polygon fill="#181818" points="140,1401.3086,130,1405.3086,140,1409.3086,136,1405.3086" style="stroke:#181818;stroke-width:1.0;"/><line style="stroke:#181818;stroke-width:1.0;" x1="134" x2="371" y1="1405.3086" y2="1405.3086"/><text fill="#000000" font-family="sans-serif" font-size="13" lengthAdjust="spacing" textLength="198" x="151.5" y="1400.5664">cancelOrder(orderId, "&#25903;&#20184;&#22833;&#25943;")</text><polygon fill="#181818" points="360,1430.6191,370,1434.6191,360,1438.6191,364,1434.6191" style="stroke:#181818;stroke-width:1.0;"/><line style="stroke:#181818;stroke-width:1.0;stroke-dasharray:2.0,2.0;" x1="124" x2="366" y1="1434.6191" y2="1434.6191"/><text fill="#000000" font-family="sans-serif" font-size="13" lengthAdjust="spacing" textLength="130" x="183" y="1429.877">OrderCancelledEvent</text><polygon fill="#181818" points="956.5,1459.9297,966.5,1463.9297,956.5,1467.9297,960.5,1463.9297" style="stroke:#181818;stroke-width:1.0;"/><line style="stroke:#181818;stroke-width:1.0;" x1="382" x2="962.5" y1="1463.9297" y2="1463.9297"/><text fill="#000000" font-family="sans-serif" font-size="13" lengthAdjust="spacing" textLength="307" x="521.75" y="1459.1875">sendOrderCancellationNotice(orderId, "&#25903;&#20184;&#22833;&#25943;")</text><polygon fill="#181818" points="393,1489.2402,383,1493.2402,393,1497.2402,389,1493.2402" style="stroke:#181818;stroke-width:1.0;"/><line style="stroke:#181818;stroke-width:1.0;stroke-dasharray:2.0,2.0;" x1="387" x2="972.5" y1="1493.2402" y2="1493.2402"/><text fill="#000000" font-family="sans-serif" font-size="13" lengthAdjust="spacing" textLength="136" x="609.75" y="1488.498">NotificationSentEvent</text><line style="stroke:#4682B4;stroke-width:1.0;stroke-dasharray:2.0,2.0;" x1="38" x2="1074" y1="1509.2402" y2="1509.2402"/><text fill="#000000" font-family="sans-serif" font-size="11" font-weight="bold" lengthAdjust="spacing" textLength="52" x="43" y="1519.875">[&#24235;&#23384;&#19981;&#36275;]</text><polygon fill="#181818" points="393,1540.5059,383,1544.5059,393,1548.5059,389,1544.5059" style="stroke:#181818;stroke-width:1.0;"/><line style="stroke:#181818;stroke-width:1.0;stroke-dasharray:2.0,2.0;" x1="387" x2="829" y1="1544.5059" y2="1544.5059"/><text fill="#000000" font-family="sans-serif" font-size="13" lengthAdjust="spacing" textLength="165" x="523.5" y="1539.7637">InventoryInsufficientEvent</text><rect fill="#EEEEEE" height="3" style="stroke:#EEEEEE;stroke-width:1.0;" width="1134" x="0" y="1573.1611"/><line style="stroke:#000000;stroke-width:1.0;" x1="0" x2="1134" y1="1573.1611" y2="1573.1611"/><line style="stroke:#000000;stroke-width:1.0;" x1="0" x2="1134" y1="1576.1611" y2="1576.1611"/><rect fill="#EEEEEE" height="23.3105" style="stroke:#000000;stroke-width:2.0;" width="70" x="532" y="1562.5059"/><text fill="#000000" font-family="sans-serif" font-size="13" font-weight="bold" lengthAdjust="spacing" textLength="52" x="538" y="1579.0742">&#21462;&#28040;&#35330;&#21934;</text><polygon fill="#181818" points="140,1613.127,130,1617.127,140,1621.127,136,1617.127" style="stroke:#181818;stroke-width:1.0;"/><line style="stroke:#181818;stroke-width:1.0;" x1="134" x2="371" y1="1617.127" y2="1617.127"/><text fill="#000000" font-family="sans-serif" font-size="13" lengthAdjust="spacing" textLength="198" x="151.5" y="1612.3848">cancelOrder(orderId, "&#24235;&#23384;&#19981;&#36275;")</text><polygon fill="#181818" points="360,1642.4375,370,1646.4375,360,1650.4375,364,1646.4375" style="stroke:#181818;stroke-width:1.0;"/><line style="stroke:#181818;stroke-width:1.0;stroke-dasharray:2.0,2.0;" x1="124" x2="366" y1="1646.4375" y2="1646.4375"/><text fill="#000000" font-family="sans-serif" font-size="13" lengthAdjust="spacing" textLength="130" x="183" y="1641.6953">OrderCancelledEvent</text><polygon fill="#181818" points="956.5,1671.748,966.5,1675.748,956.5,1679.748,960.5,1675.748" style="stroke:#181818;stroke-width:1.0;"/><line style="stroke:#181818;stroke-width:1.0;" x1="382" x2="962.5" y1="1675.748" y2="1675.748"/><text fill="#000000" font-family="sans-serif" font-size="13" lengthAdjust="spacing" textLength="307" x="521.75" y="1671.0059">sendOrderCancellationNotice(orderId, "&#24235;&#23384;&#19981;&#36275;")</text><polygon fill="#181818" points="393,1701.0586,383,1705.0586,393,1709.0586,389,1705.0586" style="stroke:#181818;stroke-width:1.0;"/><line style="stroke:#181818;stroke-width:1.0;stroke-dasharray:2.0,2.0;" x1="387" x2="972.5" y1="1705.0586" y2="1705.0586"/><text fill="#000000" font-family="sans-serif" font-size="13" lengthAdjust="spacing" textLength="136" x="609.75" y="1700.3164">NotificationSentEvent</text><polygon fill="#181818" points="11,1744.3691,1,1748.3691,11,1752.3691,7,1748.3691" style="stroke:#181818;stroke-width:1.0;"/><line style="stroke:#181818;stroke-width:1.0;stroke-dasharray:2.0,2.0;" x1="5" x2="118" y1="1748.3691" y2="1748.3691"/><text fill="#000000" font-family="sans-serif" font-size="13" lengthAdjust="spacing" textLength="95" x="12" y="1743.627">OrderResponse</text><path d="M280,1761.3691 L280,1832.3691 L473,1832.3691 L473,1771.3691 L463,1761.3691 L280,1761.3691 " fill="#FEFFDD" style="stroke:#181818;stroke-width:0.5;"/><path d="M463,1761.3691 L463,1771.3691 L473,1771.3691 L463,1761.3691 " fill="#FEFFDD" style="stroke:#181818;stroke-width:0.5;"/><text fill="#000000" font-family="sans-serif" font-size="13" lengthAdjust="spacing" textLength="98" x="286" y="1778.9375">Saga&#21332;&#35519;&#22120;&#36000;&#36012;:</text><text fill="#000000" font-family="sans-serif" font-size="13" lengthAdjust="spacing" textLength="172" x="286" y="1794.248">1. &#21332;&#35519;&#22810;&#20491;&#24494;&#26381;&#21209;&#20043;&#38291;&#30340;&#20107;&#21209;</text><text fill="#000000" font-family="sans-serif" font-size="13" lengthAdjust="spacing" textLength="94" x="286" y="1809.5586">2. &#34389;&#29702;&#35036;&#20767;&#20107;&#21209;</text><text fill="#000000" font-family="sans-serif" font-size="13" lengthAdjust="spacing" textLength="97" x="286" y="1824.8691">3. &#32173;&#35703;Saga&#29376;&#24907;</text><!--SRC=[jLTRRnj557wVNp4oBwb48YW18OiWnQaBAndRYX_xDAp7pYgRMJEx3kfRgHfeQj9Ma8OcgXGkHGg5656K02agVoQpTlu5PsQtxbvcxNNIZcHvT_QSyvtlt7RMNRLOXt2oXbtwMPSoatv2NPUqwQ9jjHasAVCeHsvAwYFkT3ibXpSfNt9iX-Ctvjzx_t9fFbEKcAjjk63DKBpyrbLO6l5bsg9SNgHKG7vnwSeubOyf0OSqYkNvqhlZ51SvTpwVHAHYjU37g8usyYpFfdXuS5Fiz8Ux3mRtlsoGDl4FVX3_taC837cMQNK8yt2X9jKRbAzR9YrWuk9QGoS0wk5Jk8eBrCdrDSXCr4OzOQFYj2qNRjseK2KXPB1rCEFmwr4X8o5KTJohPPd4inmMbQicvChILgdhgeVb4a8B2s4ynEQHU7PojdVNxn_XXGLqRVP3O5N49gV4euhjp2L4JCzQXtiPZbe3WqovLCITxgUsvQxCAAabfT1KI14502kNi38AeIhY5SAQDjMfD6bKAO8eGunaqNHIEKGO5d0H9x-AmuV-an_z_PzVSf4FbRh4DoIf5MgkZW8xesh5Q5vIWYD0YB6y3pPjBxGjDZQ6nt-gJRaC2C9BKYEJozI5B8IKHi8HPg7n4K3elx_z- -cpXm6lkFyn3dNWqE6E2MCWBBCuXnYFkWPAyWcm_DltnPtzqGEvwZ5E8S2IizQngPUabA0LmOhXXVG6cx_uHrzaqOjHh015mZbXRNg5sjOwJUOfnRCo1blo3S15VzE_-us6jLoL6FCNk8k16nhc2VO93r9Ul2ZI_jU07vImFWgnIAWk3ACVzA4s3h5Or1eQUr5kGTzbvpJ1h9Q3sSZXAZZiKjOCCLZBucjgCkLml9e6giOSZqywvarqlJh1TMgxD5ORul4V_eFlSjR6LMBPhwuoXZyz4hVsJqzwehTRnEBUZdzyEsZJiHKYnm6dBNYPPaw3SLDXRDylAxivADRFG_7igvw__JoOh6Cf6egYJObBC-QsbgMHTYfpOYlZataQEPjS9IzeyidjJU3eOiUQ-qrSI1TbuU8jhv3irzlo0OPgKTck9ZqtgTS-3i1d_Lj3ZOMWzpG3GTigMRCW__inVtESep6oAdZgXiXk1ZH54-HeW6Zu2nba4cKwNSbdbpkwO9ddSJrHYjCMjhweemMDHeKS5D7ftrivpgu6SxijWBPIg9FFhra9pv7ig8i5pJ4sag3yITOd65qWiPFSZAHYceIcaoaJANyena5-wrpxO7PM1L9v2vyQ7OUvD2w747FWme4pIgY5iVmJMzl39_-9tOFXq- -7JtyhmlRRSpZSVRmdRlJ4yxx_Q0i6qEa_lRETRmTxju9v19ANvt1mTe_EATX_PmuFZW-7Xtz9X47lXh_HawvZwGBw7m00]--></g></svg>