<?xml version="1.0" encoding="us-ascii" standalone="no"?><svg xmlns="http://www.w3.org/2000/svg" xmlns:xlink="http://www.w3.org/1999/xlink" contentStyleType="text/css" height="1565px" preserveAspectRatio="none" style="width:608px;height:1565px;background:#FFFFFF;" version="1.1" viewBox="0 0 608 1565" width="608px" zoomAndPan="magnify"><defs/><g><ellipse cx="184" cy="16" fill="#181818" rx="10" ry="10" style="stroke:none;stroke-width:1.0;"/><path d="M140,103 L228,103 A12.5,12.5 0 0 1 240.5,115.5 L240.5,129.4883 L127.5,129.4883 L127.5,115.5 A12.5,12.5 0 0 1 140,103 " fill="#85BBF0" style="stroke:#85BBF0;stroke-width:1.0;"/><rect fill="none" height="330.4883" rx="12.5" ry="12.5" style="stroke:#181818;stroke-width:0.5;" width="113" x="127.5" y="103"/><line style="stroke:#181818;stroke-width:0.5;" x1="127.5" x2="240.5" y1="129.4883" y2="129.4883"/><text fill="#000000" font-family="sans-serif" font-size="14" lengthAdjust="spacing" textLength="64" x="152" y="121.5352">CREATED</text><g id="CREATED.VALIDATING"><rect fill="#F1F1F1" height="50" rx="12.5" ry="12.5" style="stroke:#181818;stroke-width:0.5;" width="76" x="139.5" y="197.4883"/><line style="stroke:#181818;stroke-width:0.5;" x1="139.5" x2="215.5" y1="223.9766" y2="223.9766"/><text fill="#000000" font-family="sans-serif" font-size="14" lengthAdjust="spacing" textLength="56" x="149.5" y="216.0234">&#39511;&#35657;&#35330;&#21934;</text></g><g id="CREATED.CALCULATING"><rect fill="#F1F1F1" height="50" rx="12.5" ry="12.5" style="stroke:#181818;stroke-width:0.5;" width="76" x="139.5" y="300.4883"/><line style="stroke:#181818;stroke-width:0.5;" x1="139.5" x2="215.5" y1="326.9766" y2="326.9766"/><text fill="#000000" font-family="sans-serif" font-size="14" lengthAdjust="spacing" textLength="56" x="149.5" y="319.0234">&#35336;&#31639;&#32317;&#38989;</text></g><ellipse cx="177.5" cy="150.4883" fill="#181818" rx="10" ry="10" style="stroke:none;stroke-width:1.0;"/><ellipse cx="177.5" cy="413.4883" fill="none" rx="10" ry="10" style="stroke:#181818;stroke-width:1.0;"/><ellipse cx="178" cy="413.9883" fill="#181818" rx="6" ry="6" style="stroke:none;stroke-width:1.0;"/><!--link *start*CREATED to VALIDATING--><g id="link_*start*CREATED_VALIDATING"><path d="M177.5,160.9283 C177.5,168.6683 177.5,180.0683 177.5,190.8983 " fill="none" id="*start*CREATED-to-VALIDATING" style="stroke:#181818;stroke-width:1.0;"/><polygon fill="#181818" points="177.5,195.6583,181.5,186.6583,177.5,190.6583,173.5,186.6583,177.5,195.6583" style="stroke:#181818;stroke-width:1.0;"/></g><!--link VALIDATING to CALCULATING--><g id="link_VALIDATING_CALCULATING"><path d="M177.5,247.9383 C177.5,261.8283 177.5,279.3483 177.5,294.1183 " fill="none" id="VALIDATING-to-CALCULATING" style="stroke:#181818;stroke-width:1.0;"/><polygon fill="#181818" points="177.5,298.7483,181.5,289.7483,177.5,293.7483,173.5,289.7483,177.5,298.7483" style="stroke:#181818;stroke-width:1.0;"/><text fill="#000000" font-family="sans-serif" font-size="13" lengthAdjust="spacing" textLength="52" x="178.5" y="279.0566">&#39511;&#35657;&#36890;&#36942;</text></g><!--link CALCULATING to *end*CREATED--><g id="link_CALCULATING_*end*CREATED"><path d="M177.5,350.8983 C177.5,365.6483 177.5,384.0083 177.5,396.8283 " fill="none" id="CALCULATING-to-*end*CREATED" style="stroke:#181818;stroke-width:1.0;"/><polygon fill="#181818" points="177.5,401.8083,181.5,392.8083,177.5,396.8083,173.5,392.8083,177.5,401.8083" style="stroke:#181818;stroke-width:1.0;"/><text fill="#000000" font-family="sans-serif" font-size="13" lengthAdjust="spacing" textLength="52" x="178.5" y="382.0566">&#35336;&#31639;&#23436;&#25104;</text></g><path d="M19.5,510.48 L160.5,510.48 A12.5,12.5 0 0 1 173,522.98 L173,536.9683 L7,536.9683 L7,522.98 A12.5,12.5 0 0 1 19.5,510.48 " fill="#F1F1F1" style="stroke:#F1F1F1;stroke-width:1.0;"/><rect fill="none" height="330.4883" rx="12.5" ry="12.5" style="stroke:#181818;stroke-width:0.5;" width="166" x="7" y="510.48"/><line style="stroke:#181818;stroke-width:0.5;" x1="7" x2="173" y1="536.9683" y2="536.9683"/><text fill="#000000" font-family="sans-serif" font-size="14" lengthAdjust="spacing" textLength="133" x="23.5" y="529.0152">PENDING_PAYMENT</text><g id="PENDING_PAYMENT.INIT_PAYMENT"><rect fill="#F1F1F1" height="50" rx="12.5" ry="12.5" style="stroke:#181818;stroke-width:0.5;" width="90" x="26" y="604.9683"/><line style="stroke:#181818;stroke-width:0.5;" x1="26" x2="116" y1="631.4566" y2="631.4566"/><text fill="#000000" font-family="sans-serif" font-size="14" lengthAdjust="spacing" textLength="70" x="36" y="623.5034">&#21021;&#22987;&#21270;&#25903;&#20184;</text></g><g id="PENDING_PAYMENT.WAITING_PAYMENT"><rect fill="#F1F1F1" height="50" rx="12.5" ry="12.5" style="stroke:#181818;stroke-width:0.5;" width="104" x="19" y="707.9683"/><line style="stroke:#181818;stroke-width:0.5;" x1="19" x2="123" y1="734.4566" y2="734.4566"/><text fill="#000000" font-family="sans-serif" font-size="14" lengthAdjust="spacing" textLength="84" x="29" y="726.5034">&#31561;&#24453;&#25903;&#20184;&#30906;&#35469;</text></g><ellipse cx="71" cy="557.9683" fill="#181818" rx="10" ry="10" style="stroke:none;stroke-width:1.0;"/><ellipse cx="71" cy="820.9683" fill="none" rx="10" ry="10" style="stroke:#181818;stroke-width:1.0;"/><ellipse cx="71.5" cy="821.4683" fill="#181818" rx="6" ry="6" style="stroke:none;stroke-width:1.0;"/><!--link *start*PENDING_PAYMENT to INIT_PAYMENT--><g id="link_*start*PENDING_PAYMENT_INIT_PAYMENT"><path d="M71,568.4083 C71,576.1483 71,587.5483 71,598.3783 " fill="none" id="*start*PENDING_PAYMENT-to-INIT_PAYMENT" style="stroke:#181818;stroke-width:1.0;"/><polygon fill="#181818" points="71,603.1383,75,594.1383,71,598.1383,67,594.1383,71,603.1383" style="stroke:#181818;stroke-width:1.0;"/></g><!--link INIT_PAYMENT to WAITING_PAYMENT--><g id="link_INIT_PAYMENT_WAITING_PAYMENT"><path d="M71,655.4183 C71,669.3083 71,686.8283 71,701.5983 " fill="none" id="INIT_PAYMENT-to-WAITING_PAYMENT" style="stroke:#181818;stroke-width:1.0;"/><polygon fill="#181818" points="71,706.2283,75,697.2283,71,701.2283,67,697.2283,71,706.2283" style="stroke:#181818;stroke-width:1.0;"/><text fill="#000000" font-family="sans-serif" font-size="13" lengthAdjust="spacing" textLength="91" x="72" y="686.5366">&#25903;&#20184;&#35531;&#27714;&#24050;&#30332;&#36865;</text></g><!--link WAITING_PAYMENT to *end*PENDING_PAYMENT--><g id="link_WAITING_PAYMENT_*end*PENDING_PAYMENT"><path d="M71,758.3783 C71,773.1283 71,791.4883 71,804.3083 " fill="none" id="WAITING_PAYMENT-to-*end*PENDING_PAYMENT" style="stroke:#181818;stroke-width:1.0;"/><polygon fill="#181818" points="71,809.2883,75,800.2883,71,804.2883,67,800.2883,71,809.2883" style="stroke:#181818;stroke-width:1.0;"/><text fill="#000000" font-family="sans-serif" font-size="13" lengthAdjust="spacing" textLength="78" x="72" y="789.5366">&#25903;&#20184;&#32080;&#26524;&#36820;&#22238;</text></g><path d="M39.5,917.97 L140.5,917.97 A12.5,12.5 0 0 1 153,930.47 L153,944.4583 L27,944.4583 L27,930.47 A12.5,12.5 0 0 1 39.5,917.97 " fill="#F1F1F1" style="stroke:#F1F1F1;stroke-width:1.0;"/><rect fill="none" height="433.4883" rx="12.5" ry="12.5" style="stroke:#181818;stroke-width:0.5;" width="126" x="27" y="917.97"/><line style="stroke:#181818;stroke-width:0.5;" x1="27" x2="153" y1="944.4583" y2="944.4583"/><text fill="#000000" font-family="sans-serif" font-size="14" lengthAdjust="spacing" textLength="82" x="49" y="936.5052">CONFIRMED</text><g id="CONFIRMED.ARRANGING_DELIVERY"><rect fill="#F1F1F1" height="50" rx="12.5" ry="12.5" style="stroke:#181818;stroke-width:0.5;" width="76" x="39" y="1012.4583"/><line style="stroke:#181818;stroke-width:0.5;" x1="39" x2="115" y1="1038.9466" y2="1038.9466"/><text fill="#000000" font-family="sans-serif" font-size="14" lengthAdjust="spacing" textLength="56" x="49" y="1030.9934">&#23433;&#25490;&#37197;&#36865;</text></g><g id="CONFIRMED.SHIPPING"><rect fill="#F1F1F1" height="50" rx="12.5" ry="12.5" style="stroke:#181818;stroke-width:0.5;" width="62" x="46" y="1115.4583"/><line style="stroke:#181818;stroke-width:0.5;" x1="46" x2="108" y1="1141.9466" y2="1141.9466"/><text fill="#000000" font-family="sans-serif" font-size="14" lengthAdjust="spacing" textLength="42" x="56" y="1133.9934">&#37197;&#36865;&#20013;</text></g><g id="CONFIRMED.WAITING_RECEIPT"><rect fill="#F1F1F1" height="50" rx="12.5" ry="12.5" style="stroke:#181818;stroke-width:0.5;" width="76" x="39" y="1218.4583"/><line style="stroke:#181818;stroke-width:0.5;" x1="39" x2="115" y1="1244.9466" y2="1244.9466"/><text fill="#000000" font-family="sans-serif" font-size="14" lengthAdjust="spacing" textLength="56" x="49" y="1236.9934">&#31561;&#24453;&#31805;&#25910;</text></g><ellipse cx="77" cy="965.4583" fill="#181818" rx="10" ry="10" style="stroke:none;stroke-width:1.0;"/><ellipse cx="77" cy="1331.4583" fill="none" rx="10" ry="10" style="stroke:#181818;stroke-width:1.0;"/><ellipse cx="77.5" cy="1331.9583" fill="#181818" rx="6" ry="6" style="stroke:none;stroke-width:1.0;"/><!--link *start*CONFIRMED to ARRANGING_DELIVERY--><g id="link_*start*CONFIRMED_ARRANGING_DELIVERY"><path d="M77,975.8983 C77,983.6383 77,995.0383 77,1005.8683 " fill="none" id="*start*CONFIRMED-to-ARRANGING_DELIVERY" style="stroke:#181818;stroke-width:1.0;"/><polygon fill="#181818" points="77,1010.6283,81,1001.6283,77,1005.6283,73,1001.6283,77,1010.6283" style="stroke:#181818;stroke-width:1.0;"/></g><!--link ARRANGING_DELIVERY to SHIPPING--><g id="link_ARRANGING_DELIVERY_SHIPPING"><path d="M77,1062.9083 C77,1076.7983 77,1094.3183 77,1109.0883 " fill="none" id="ARRANGING_DELIVERY-to-SHIPPING" style="stroke:#181818;stroke-width:1.0;"/><polygon fill="#181818" points="77,1113.7183,81,1104.7183,77,1108.7183,73,1104.7183,77,1113.7183" style="stroke:#181818;stroke-width:1.0;"/><text fill="#000000" font-family="sans-serif" font-size="13" lengthAdjust="spacing" textLength="52" x="78" y="1094.0266">&#38283;&#22987;&#37197;&#36865;</text></g><!--link SHIPPING to WAITING_RECEIPT--><g id="link_SHIPPING_WAITING_RECEIPT"><path d="M77,1165.9083 C77,1179.7983 77,1197.3183 77,1212.0883 " fill="none" id="SHIPPING-to-WAITING_RECEIPT" style="stroke:#181818;stroke-width:1.0;"/><polygon fill="#181818" points="77,1216.7183,81,1207.7183,77,1211.7183,73,1207.7183,77,1216.7183" style="stroke:#181818;stroke-width:1.0;"/><text fill="#000000" font-family="sans-serif" font-size="13" lengthAdjust="spacing" textLength="65" x="78" y="1197.0266">&#21040;&#36948;&#30446;&#30340;&#22320;</text></g><!--link WAITING_RECEIPT to *end*CONFIRMED--><g id="link_WAITING_RECEIPT_*end*CONFIRMED"><path d="M77,1268.8683 C77,1283.6183 77,1301.9783 77,1314.7983 " fill="none" id="WAITING_RECEIPT-to-*end*CONFIRMED" style="stroke:#181818;stroke-width:1.0;"/><polygon fill="#181818" points="77,1319.7783,81,1310.7783,77,1314.7783,73,1310.7783,77,1319.7783" style="stroke:#181818;stroke-width:1.0;"/><text fill="#000000" font-family="sans-serif" font-size="13" lengthAdjust="spacing" textLength="52" x="78" y="1300.0266">&#23458;&#25142;&#31805;&#25910;</text></g><g id="FAILED"><rect fill="#FF6347" height="50" rx="12.5" ry="12.5" style="stroke:#181818;stroke-width:0.5;" width="67" x="322.5" y="1109.72"/><line style="stroke:#181818;stroke-width:0.5;" x1="322.5" x2="389.5" y1="1136.2083" y2="1136.2083"/><text fill="#000000" font-family="sans-serif" font-size="14" lengthAdjust="spacing" textLength="47" x="332.5" y="1128.2552">FAILED</text></g><g id="DELIVERED"><rect fill="#F1F1F1" height="50" rx="12.5" ry="12.5" style="stroke:#181818;stroke-width:0.5;" width="93" x="48.5" y="1428.46"/><line style="stroke:#181818;stroke-width:0.5;" x1="48.5" x2="141.5" y1="1454.9483" y2="1454.9483"/><text fill="#000000" font-family="sans-serif" font-size="14" lengthAdjust="spacing" textLength="73" x="58.5" y="1446.9952">DELIVERED</text></g><ellipse cx="225" cy="1549.46" fill="none" rx="10" ry="10" style="stroke:#181818;stroke-width:1.0;"/><ellipse cx="225.5" cy="1549.96" fill="#181818" rx="6" ry="6" style="stroke:none;stroke-width:1.0;"/><g id="elem_GMN41"><path d="M275,247.93 L275,264.24 L240.77,268.24 L275,272.24 L275,288.5511 A0,0 0 0 0 275,288.5511 L439,288.5511 A0,0 0 0 0 439,288.5511 L439,257.93 L429,247.93 L275,247.93 A0,0 0 0 0 275,247.93 " fill="#FEFFDD" style="stroke:#181818;stroke-width:0.5;"/><path d="M429,247.93 L429,257.93 L439,257.93 L429,247.93 " fill="#FEFFDD" style="stroke:#181818;stroke-width:0.5;"/><text fill="#000000" font-family="sans-serif" font-size="13" lengthAdjust="spacing" textLength="104" x="281" y="265.4984">&#35330;&#21934;&#21083;&#24314;&#31435;&#30340;&#29376;&#24907;</text><text fill="#000000" font-family="sans-serif" font-size="13" lengthAdjust="spacing" textLength="143" x="281" y="280.8089">&#21487;&#20197;&#28155;&#21152;&#25110;&#20462;&#25913;&#35330;&#21934;&#38917;&#30446;</text></g><g id="elem_GMN44"><path d="M208,655.42 L208,671.73 L173.27,675.73 L208,679.73 L208,696.0411 A0,0 0 0 0 208,696.0411 L346,696.0411 A0,0 0 0 0 346,696.0411 L346,665.42 L336,655.42 L208,655.42 A0,0 0 0 0 208,655.42 " fill="#FEFFDD" style="stroke:#181818;stroke-width:0.5;"/><path d="M336,655.42 L336,665.42 L346,665.42 L336,655.42 " fill="#FEFFDD" style="stroke:#181818;stroke-width:0.5;"/><text fill="#000000" font-family="sans-serif" font-size="13" lengthAdjust="spacing" textLength="78" x="214" y="672.9884">&#31561;&#24453;&#25903;&#20184;&#23436;&#25104;</text><text fill="#000000" font-family="sans-serif" font-size="13" lengthAdjust="spacing" textLength="117" x="214" y="688.2989">&#27492;&#38542;&#27573;&#35330;&#21934;&#19981;&#21487;&#20462;&#25913;</text></g><g id="elem_GMN47"><path d="M188.5,1114.41 L188.5,1130.72 L153.3,1134.72 L188.5,1138.72 L188.5,1155.0311 A0,0 0 0 0 188.5,1155.0311 L287.5,1155.0311 A0,0 0 0 0 287.5,1155.0311 L287.5,1124.41 L277.5,1114.41 L188.5,1114.41 A0,0 0 0 0 188.5,1114.41 " fill="#FEFFDD" style="stroke:#181818;stroke-width:0.5;"/><path d="M277.5,1114.41 L277.5,1124.41 L287.5,1124.41 L277.5,1114.41 " fill="#FEFFDD" style="stroke:#181818;stroke-width:0.5;"/><text fill="#000000" font-family="sans-serif" font-size="13" lengthAdjust="spacing" textLength="65" x="194.5" y="1131.9784">&#35330;&#21934;&#24050;&#30906;&#35469;</text><text fill="#000000" font-family="sans-serif" font-size="13" lengthAdjust="spacing" textLength="78" x="194.5" y="1147.2889">&#38283;&#22987;&#29289;&#27969;&#34389;&#29702;</text></g><g id="elem_GMN50"><path d="M176.5,1433.15 L176.5,1449.46 L141.97,1453.46 L176.5,1457.46 L176.5,1473.7711 A0,0 0 0 0 176.5,1473.7711 L301.5,1473.7711 A0,0 0 0 0 301.5,1473.7711 L301.5,1443.15 L291.5,1433.15 L176.5,1433.15 A0,0 0 0 0 176.5,1433.15 " fill="#FEFFDD" style="stroke:#181818;stroke-width:0.5;"/><path d="M291.5,1433.15 L291.5,1443.15 L301.5,1443.15 L291.5,1433.15 " fill="#FEFFDD" style="stroke:#181818;stroke-width:0.5;"/><text fill="#000000" font-family="sans-serif" font-size="13" lengthAdjust="spacing" textLength="65" x="182.5" y="1450.7184">&#35330;&#21934;&#24050;&#23436;&#25104;</text><text fill="#000000" font-family="sans-serif" font-size="13" lengthAdjust="spacing" textLength="104" x="182.5" y="1466.0289">&#21487;&#36914;&#34892;&#35413;&#20729;&#21644;&#21806;&#24460;</text></g><g id="elem_GMN53"><path d="M424.5,1114.41 L424.5,1130.72 L389.73,1134.72 L424.5,1138.72 L424.5,1155.0311 A0,0 0 0 0 424.5,1155.0311 L601.5,1155.0311 A0,0 0 0 0 601.5,1155.0311 L601.5,1124.41 L591.5,1114.41 L424.5,1114.41 A0,0 0 0 0 424.5,1114.41 " fill="#FEFFDD" style="stroke:#181818;stroke-width:0.5;"/><path d="M591.5,1114.41 L591.5,1124.41 L601.5,1124.41 L591.5,1114.41 " fill="#FEFFDD" style="stroke:#181818;stroke-width:0.5;"/><text fill="#000000" font-family="sans-serif" font-size="13" lengthAdjust="spacing" textLength="78" x="430.5" y="1131.9784">&#35330;&#21934;&#34389;&#29702;&#22833;&#25943;</text><text fill="#000000" font-family="sans-serif" font-size="13" lengthAdjust="spacing" textLength="156" x="430.5" y="1147.2889">&#21487;&#33021;&#26159;&#25903;&#20184;&#22833;&#25943;&#25110;&#24235;&#23384;&#19981;&#36275;</text></g><!--link *start* to CREATED--><g id="link_*start*_CREATED"><path d="M184,26.2 C184,39.51 184,65.92 184,96.55 " fill="none" id="*start*-to-CREATED" style="stroke:#181818;stroke-width:1.0;"/><polygon fill="#181818" points="184,101.21,188,92.21,184,96.21,180,92.21,184,101.21" style="stroke:#181818;stroke-width:1.0;"/><text fill="#000000" font-family="sans-serif" font-size="13" lengthAdjust="spacing" textLength="52" x="185" y="69.5684">&#24314;&#31435;&#35330;&#21934;</text></g><!--link CREATED to PENDING_PAYMENT--><g id="link_CREATED_PENDING_PAYMENT"><path d="M127.17,361.24 C110.86,392.52 95.26,428.45 87,463.48 C83.93,476.49 81.8,490.06 80.4,503.79 " fill="none" id="CREATED-to-PENDING_PAYMENT" style="stroke:#181818;stroke-width:1.0;"/><polygon fill="#181818" points="79.95,508.6,84.7795,500.0165,80.4207,503.6222,76.815,499.2634,79.95,508.6" style="stroke:#181818;stroke-width:1.0;"/><text fill="#000000" font-family="sans-serif" font-size="13" lengthAdjust="spacing" textLength="52" x="88" y="477.0484">&#25552;&#20132;&#35330;&#21934;</text></g><!--link PENDING_PAYMENT to CREATED--><g id="link_PENDING_PAYMENT_CREATED"><path d="M137.73,510.22 C140.28,500.18 142.73,490.21 145,480.48 C148.05,467.41 151.01,453.84 153.85,440.17 " fill="none" id="PENDING_PAYMENT-to-CREATED" style="stroke:#181818;stroke-width:1.0;"/><polygon fill="#181818" points="154.84,435.37,149.0987,443.3724,153.8265,440.2662,156.9327,444.994,154.84,435.37" style="stroke:#181818;stroke-width:1.0;"/><text fill="#000000" font-family="sans-serif" font-size="13" lengthAdjust="spacing" textLength="85" x="149.85" y="477.0484">&#25903;&#20184;&#21462;&#28040;/&#37325;&#35430;</text></g><!--link PENDING_PAYMENT to CONFIRMED--><g id="link_PENDING_PAYMENT_CONFIRMED"><path d="M90,841.39 C90,864.16 90,887.86 90,911.46 " fill="none" id="PENDING_PAYMENT-to-CONFIRMED" style="stroke:#181818;stroke-width:1.0;"/><polygon fill="#181818" points="90,916.28,94,907.28,90,911.28,86,907.28,90,916.28" style="stroke:#181818;stroke-width:1.0;"/><text fill="#000000" font-family="sans-serif" font-size="13" lengthAdjust="spacing" textLength="52" x="91" y="884.5384">&#25903;&#20184;&#25104;&#21151;</text></g><!--link PENDING_PAYMENT to FAILED--><g id="link_PENDING_PAYMENT_FAILED"><path d="M173.22,821.86 C178.63,828.53 184.23,834.94 190,840.97 C232.55,885.39 269.94,867.43 305,917.97 C344.52,974.94 353.67,1058.56 355.63,1103.12 " fill="none" id="PENDING_PAYMENT-to-FAILED" style="stroke:#181818;stroke-width:1.0;"/><polygon fill="#181818" points="355.81,1107.89,359.4471,1098.7373,355.6102,1102.894,351.4535,1099.0571,355.81,1107.89" style="stroke:#181818;stroke-width:1.0;"/><text fill="#000000" font-family="sans-serif" font-size="13" lengthAdjust="spacing" textLength="52" x="273.74" y="884.5384">&#25903;&#20184;&#22833;&#25943;</text></g><!--link CONFIRMED to DELIVERED--><g id="link_CONFIRMED_DELIVERED"><path d="M93.41,1351.8 C93.84,1379.02 94.23,1403.6 94.51,1421.66 " fill="none" id="CONFIRMED-to-DELIVERED" style="stroke:#181818;stroke-width:1.0;"/><polygon fill="#181818" points="94.59,1426.5,98.4351,1417.4328,94.5043,1421.5007,90.4363,1417.5699,94.59,1426.5" style="stroke:#181818;stroke-width:1.0;"/><text fill="#000000" font-family="sans-serif" font-size="13" lengthAdjust="spacing" textLength="78" x="95.04" y="1395.0284">&#29289;&#27969;&#37197;&#36865;&#23436;&#25104;</text></g><!--link DELIVERED to *end*--><g id="link_DELIVERED_*end*"><path d="M128.82,1478.91 C156.05,1498.6 192.85,1525.21 212.08,1539.12 " fill="none" id="DELIVERED-to-*end*" style="stroke:#181818;stroke-width:1.0;"/><polygon fill="#181818" points="215.79,1541.8,210.8337,1533.2891,211.7359,1538.8736,206.1514,1539.7758,215.79,1541.8" style="stroke:#181818;stroke-width:1.0;"/></g><!--link FAILED to *end*--><g id="link_FAILED_*end*"><path d="M359.65,1160.14 C367.22,1219.26 379.28,1372.97 319,1478.46 C300.81,1510.3 261.65,1532 240.05,1542.06 " fill="none" id="FAILED-to-*end*" style="stroke:#181818;stroke-width:1.0;"/><polygon fill="#181818" points="235.59,1544.07,245.4387,1544.0129,240.1472,1542.0128,242.1472,1536.7213,235.59,1544.07" style="stroke:#181818;stroke-width:1.0;"/></g><!--link FAILED to CREATED--><g id="link_FAILED_CREATED"><path d="M363.96,1109.28 C390.88,1021.96 471.08,719.46 364,510.48 C337.28,458.34 293.96,478.94 257,433.48 C252.54,428 248.3,422.2 244.27,416.18 " fill="none" id="FAILED-to-CREATED" style="stroke:#181818;stroke-width:1.0;"/><polygon fill="#181818" points="241.76,412.34,243.3472,422.0601,244.5005,416.5221,250.0385,417.6754,241.76,412.34" style="stroke:#181818;stroke-width:1.0;"/><text fill="#000000" font-family="sans-serif" font-size="13" lengthAdjust="spacing" textLength="52" x="419.14" y="680.7984">&#37325;&#26032;&#19979;&#21934;</text></g><!--SRC=[TLHRJnf157xVNp6n3qsQc9hqOcECoGgBtGGfeTJ6D4r3wgL42mtIfwQ9Q6b1G8X1l62jMbkbXXLjH8IYVuQPdVqNdPtPky0RUxxpdUzyvvnPc0j7FeHYeVTW8HwAJuDF722_qT3RkTbOz6DaoXMTZyQ6XyEHS3mScXyP0NUUF1eTzGnqXys48mpayV03Wtntq7Gi5eqnqEC73mUvpnptwjvhqDy_0bm1WGyARZ04OAifdsJmyH8iIHoJfWUjQfXS5kzJAXkuccOvVI2q02Puh-ZcWw9lp0h3nobPsf0RRMK_Hs4ktkjwuJLnkXf7klcNQJMpY5vMMrdSLXAh56qDgt2LT0Ymsb3AebH1RLplIKNu1P-ReD_u-SbnmHSaQ9GlT9g7DXES89i1CFKT7cLWjeIAfvtM9crEz8b17Mt5ojKql4uoe7pGn7-O5ozvCMZXj_bnYyhwWI8SsMeBj00-oQ2p9NXvBc_zKnOJDDc9DKtIH5qKqEuElYd2ygvgbRDpEeDdFeyO6ASRmxA8ht3bHrUmXnUzT7tq1THpuE4PMj_Wz3KpEEtUIccqkgOaSqG_TOeF17ZVc5h4BNZ52I4mQTj52kmqgXJx_AdezplMa0r0hhLHiMwpFY2u1D5ljxv7iTkVALelf-vbAKDMWgcXAKRCEY-jf7ftgPgIACfbITx-0dTgjadfA7DIK3f0gJhhWQwpuPsAqJJHwSZf2hf8C1tQ-fjXdT1uG3XjLhS3t5q0ywTukKtqoPb5bCpWTXhboztNmtXEj47dIwYUkgzyo-7ARsiD4qXYg5JhD3BgoP5Y-BY5ZtvoaIWPMImy-ouEeZCwd9Z3RXEco-ozCaIH497PQVr2bosuieTIfSwDX8fN3A_i9Od3t7Ha2gZ4d8FUqGhXiXwhvXu0g7geRAyYwOAHTXevjIGjqvFQ692fdHmbFN_oXIqB6nNUMfSBNtiI6SEp4XdIY11byHplPt5b7IvVmRKiB4hmEjkJZit2u6B5jRi4siJHvgdrNecdi7a2gvkaSLp_QrB_1m00]--></g></svg>