<?xml version="1.0" encoding="us-ascii" standalone="no"?><svg xmlns="http://www.w3.org/2000/svg" xmlns:xlink="http://www.w3.org/1999/xlink" contentStyleType="text/css" height="986px" preserveAspectRatio="none" style="width:2422px;height:986px;background:#FFFFFF;" version="1.1" viewBox="0 0 2422 986" width="2422px" zoomAndPan="magnify"><defs/><g><!--cluster Client--><g id="cluster_Client"><polygon fill="#85BBF0" points="16,16,26,6,326,6,326,170.49,316,180.49,16,180.49,16,16" style="stroke:#181818;stroke-width:1.0;"/><line style="stroke:#181818;stroke-width:1.0;" x1="316" x2="326" y1="16" y2="6"/><line style="stroke:#181818;stroke-width:1.0;" x1="16" x2="316" y1="16" y2="16"/><line style="stroke:#181818;stroke-width:1.0;" x1="316" x2="316" y1="16" y2="180.49"/><text fill="#000000" font-family="sans-serif" font-size="14" font-style="italic" lengthAdjust="spacing" textLength="74" x="130" y="32.5352">&#171;frontend&#187;</text><text fill="#000000" font-family="sans-serif" font-size="14" font-weight="bold" lengthAdjust="spacing" textLength="42" x="146" y="49.0234">&#23458;&#25142;&#31471;</text></g><!--cluster LoadBalancer--><g id="cluster_LoadBalancer"><path d="M152.8455,297.8282 C156.089,291.4675 161.4489,292.4869 165.1582,297.3156 C169.0355,290.935 173.9444,288.4842 179.3331,295.7452 C183.4629,288.689 187.4284,289.478 192.0954,295.2091 C196.8671,288.4274 201.4931,290.4562 205.1513,296.3556 C208.8451,289.6134 214.2469,288.8061 219.7728,294.1366 C223.7012,288.7927 227.8413,289.1994 231.1984,294.7366 C234.6981,288.8077 241.0229,289.2218 244.3797,294.8989 C247.9944,287.9922 255.3114,286.3834 259.5501,294.2584 C263.8933,289.5164 268.0413,289.4269 271.7807,294.976 C276.2911,288.2836 281.918,289.4457 284.7531,296.5511 C289.6484,288.7779 295.2625,290.9681 299.5738,297.1705 C307.2994,290.4376 315.3109,291.7768 318,302.49 C319.0046,302.7313 319.3504,303.515 318.5604,304.3091 C324.1716,307.426 325.0524,311.5205 319.8329,315.8333 C326.7026,319.9317 327.9107,324.7836 321.5962,330.4704 C327.8519,332.7404 328.8715,337.0072 324.2789,341.8374 C330.3702,344.8746 332.363,349.8861 325.9487,354.5641 C332.396,358.8527 332.0222,364.7968 325.6737,368.8388 C330.2145,373.5744 328.708,378.4359 322.3409,379.8784 C328.8208,384.2558 327.0341,390.6265 320.6439,393.3872 C326.892,404.82 322.4266,409.7099 311,411.97 C312.105,411.2738 313.0847,411.8718 313.0505,413.1519 C309.8051,419.8886 303.4074,421.5757 298.2208,415.3774 C293.3341,421.2787 289.1646,420.4757 285.333,414.2556 C282.485,420.2576 275.7967,422.2068 271.512,415.8642 C268.3876,422.6753 263.513,422.716 259.5166,416.6783 C255.3965,423.6842 250.3325,423.8085 245.1382,417.8715 C242.7775,425.2221 236.3437,425.2608 232.3631,419.443 C227.695,425.3171 222.3256,425.1871 217.8281,419.2334 C213.0074,423.3647 209.1014,423.5909 205.9862,417.2963 C202.3806,424.355 195.995,423.2974 192.732,416.9574 C187.0644,423.9839 182.5684,423.3118 178.475,415.45 C174.3736,421.4983 167.5692,421.5486 165.0258,413.9183 C154.078,419.7963 147.5236,416.5365 144,404.97 C144.9932,404.597 145.5815,405.1847 145.5431,406.155 C140.1954,403.5373 138.6423,397.9213 144.0463,393.9817 C136.5087,390.1039 136.364,384.8114 143.1499,380.0144 C137.7207,376.309 138.8737,370.8128 144.0659,367.9114 C136.7776,365.4959 135.7085,360.1761 141.9071,355.4282 C136.9213,350.5178 137.6869,345.6696 143.7127,342.2703 C137.8816,337.9784 138.6244,333.3252 144.0002,329.2815 C137.5738,325.3873 138.2033,321.5749 143.5073,317.2021 C135.6581,307.8997 138.9126,297.9124 151,295.49 C152.5384,295.2655 153.5443,296.2869 152.8455,297.8282 " fill="none" style="stroke:#181818;stroke-width:1.0;"/><text fill="#000000" font-family="sans-serif" font-size="14" font-weight="bold" lengthAdjust="spacing" textLength="70" x="196" y="314.0252">&#36000;&#36617;&#22343;&#34913;&#22120;</text></g><!--cluster AppServer--><g id="cluster_AppServer"><polygon fill="#98FB98" points="491,494.97,501,484.97,1275,484.97,1275,721.46,1265,731.46,491,731.46,491,494.97" style="stroke:#181818;stroke-width:1.0;"/><line style="stroke:#181818;stroke-width:1.0;" x1="1265" x2="1275" y1="494.97" y2="484.97"/><line style="stroke:#181818;stroke-width:1.0;" x1="491" x2="1265" y1="494.97" y2="494.97"/><line style="stroke:#181818;stroke-width:1.0;" x1="1265" x2="1265" y1="494.97" y2="731.46"/><text fill="#000000" font-family="sans-serif" font-size="14" font-style="italic" lengthAdjust="spacing" textLength="61" x="848.5" y="511.5052">&#171;service&#187;</text><text fill="#000000" font-family="sans-serif" font-size="14" font-weight="bold" lengthAdjust="spacing" textLength="98" x="830" y="527.9934">&#25033;&#29992;&#26381;&#21209;&#22120;&#32676;&#38598;</text></g><!--cluster Container1--><g id="cluster_Container1"><polygon fill="none" points="523,582.97,533,572.97,782,572.97,782,689.46,772,699.46,523,699.46,523,582.97" style="stroke:#181818;stroke-width:1.0;"/><line style="stroke:#181818;stroke-width:1.0;" x1="772" x2="782" y1="582.97" y2="572.97"/><line style="stroke:#181818;stroke-width:1.0;" x1="523" x2="772" y1="582.97" y2="582.97"/><line style="stroke:#181818;stroke-width:1.0;" x1="772" x2="772" y1="582.97" y2="699.46"/><text fill="#000000" font-family="sans-serif" font-size="14" font-weight="bold" lengthAdjust="spacing" textLength="70" x="613.5" y="599.5052">&#26381;&#21209;&#23481;&#22120; 1</text></g><!--cluster Container2--><g id="cluster_Container2"><polygon fill="none" points="806,582.97,816,572.97,1065,572.97,1065,689.46,1055,699.46,806,699.46,806,582.97" style="stroke:#181818;stroke-width:1.0;"/><line style="stroke:#181818;stroke-width:1.0;" x1="1055" x2="1065" y1="582.97" y2="572.97"/><line style="stroke:#181818;stroke-width:1.0;" x1="806" x2="1055" y1="582.97" y2="582.97"/><line style="stroke:#181818;stroke-width:1.0;" x1="1055" x2="1055" y1="582.97" y2="699.46"/><text fill="#000000" font-family="sans-serif" font-size="14" font-weight="bold" lengthAdjust="spacing" textLength="70" x="896.5" y="599.5052">&#26381;&#21209;&#23481;&#22120; 2</text></g><!--cluster Container3--><g id="cluster_Container3"><polygon fill="none" points="1089,582.97,1099,572.97,1235,572.97,1235,689.46,1225,699.46,1089,699.46,1089,582.97" style="stroke:#181818;stroke-width:1.0;"/><line style="stroke:#181818;stroke-width:1.0;" x1="1225" x2="1235" y1="582.97" y2="572.97"/><line style="stroke:#181818;stroke-width:1.0;" x1="1089" x2="1225" y1="582.97" y2="582.97"/><line style="stroke:#181818;stroke-width:1.0;" x1="1225" x2="1225" y1="582.97" y2="699.46"/><text fill="#000000" font-family="sans-serif" font-size="14" font-weight="bold" lengthAdjust="spacing" textLength="70" x="1123" y="599.5052">&#26381;&#21209;&#23481;&#22120; 3</text></g><!--cluster Database--><g id="cluster_Database"><polygon fill="#FFB6C1" points="472,806.46,482,796.46,990,796.46,990,959.95,980,969.95,472,969.95,472,806.46" style="stroke:#181818;stroke-width:1.0;"/><line style="stroke:#181818;stroke-width:1.0;" x1="980" x2="990" y1="806.46" y2="796.46"/><line style="stroke:#181818;stroke-width:1.0;" x1="472" x2="980" y1="806.46" y2="806.46"/><line style="stroke:#181818;stroke-width:1.0;" x1="980" x2="980" y1="806.46" y2="969.95"/><text fill="#000000" font-family="sans-serif" font-size="14" font-style="italic" lengthAdjust="spacing" textLength="76" x="689" y="822.9952">&#171;database&#187;</text><text fill="#000000" font-family="sans-serif" font-size="14" font-weight="bold" lengthAdjust="spacing" textLength="70" x="692" y="839.4834">&#36039;&#26009;&#24235;&#32676;&#38598;</text></g><!--cluster Cache--><g id="cluster_Cache"><polygon fill="#FFDAB9" points="1718,543.47,1728,533.47,1871,533.47,1871,696.96,1861,706.96,1718,706.96,1718,543.47" style="stroke:#181818;stroke-width:1.0;"/><line style="stroke:#181818;stroke-width:1.0;" x1="1861" x2="1871" y1="543.47" y2="533.47"/><line style="stroke:#181818;stroke-width:1.0;" x1="1718" x2="1861" y1="543.47" y2="543.47"/><line style="stroke:#181818;stroke-width:1.0;" x1="1861" x2="1861" y1="543.47" y2="706.96"/><text fill="#000000" font-family="sans-serif" font-size="14" font-style="italic" lengthAdjust="spacing" textLength="53" x="1764" y="560.0052">&#171;cache&#187;</text><text fill="#000000" font-family="sans-serif" font-size="14" font-weight="bold" lengthAdjust="spacing" textLength="56" x="1762.5" y="576.4934">&#24555;&#21462;&#26381;&#21209;</text></g><!--cluster MessageBroker--><g id="cluster_MessageBroker"><polygon fill="#DDA0DD" points="1503,552.97,1513,542.97,1678,542.97,1678,950.45,1668,960.45,1503,960.45,1503,552.97" style="stroke:#181818;stroke-width:1.0;"/><line style="stroke:#181818;stroke-width:1.0;" x1="1668" x2="1678" y1="552.97" y2="542.97"/><line style="stroke:#181818;stroke-width:1.0;" x1="1503" x2="1668" y1="552.97" y2="552.97"/><line style="stroke:#181818;stroke-width:1.0;" x1="1668" x2="1668" y1="552.97" y2="960.45"/><text fill="#000000" font-family="sans-serif" font-size="14" font-style="italic" lengthAdjust="spacing" textLength="99" x="1537" y="569.5052">&#171;messagebus&#187;</text><text fill="#000000" font-family="sans-serif" font-size="14" font-weight="bold" lengthAdjust="spacing" textLength="70" x="1551.5" y="585.9934">&#28040;&#24687;&#20013;&#38291;&#20214;</text></g><!--cluster External--><g id="cluster_External"><polygon fill="#F0E68C" points="1022,813.96,1032,803.96,1426,803.96,1426,952.45,1416,962.45,1022,962.45,1022,813.96" style="stroke:#181818;stroke-width:1.0;"/><line style="stroke:#181818;stroke-width:1.0;" x1="1416" x2="1426" y1="813.96" y2="803.96"/><line style="stroke:#181818;stroke-width:1.0;" x1="1022" x2="1416" y1="813.96" y2="813.96"/><line style="stroke:#181818;stroke-width:1.0;" x1="1416" x2="1416" y1="813.96" y2="962.45"/><text fill="#000000" font-family="sans-serif" font-size="14" font-style="italic" lengthAdjust="spacing" textLength="71" x="1184.5" y="830.4952">&#171;external&#187;</text><text fill="#000000" font-family="sans-serif" font-size="14" font-weight="bold" lengthAdjust="spacing" textLength="56" x="1192" y="846.9834">&#22806;&#37096;&#26381;&#21209;</text></g><!--cluster Monitoring--><g id="cluster_Monitoring"><polygon fill="#D3D3D3" points="1704,255.49,1714,245.49,2264,245.49,2264,409.97,2254,419.97,1704,419.97,1704,255.49" style="stroke:#181818;stroke-width:1.0;"/><line style="stroke:#181818;stroke-width:1.0;" x1="2254" x2="2264" y1="255.49" y2="245.49"/><line style="stroke:#181818;stroke-width:1.0;" x1="1704" x2="2254" y1="255.49" y2="255.49"/><line style="stroke:#181818;stroke-width:1.0;" x1="2254" x2="2254" y1="255.49" y2="419.97"/><text fill="#000000" font-family="sans-serif" font-size="14" font-style="italic" lengthAdjust="spacing" textLength="91" x="1934.5" y="272.0252">&#171;monitoring&#187;</text><text fill="#000000" font-family="sans-serif" font-size="14" font-weight="bold" lengthAdjust="spacing" textLength="70" x="1945" y="288.5134">&#30435;&#25511;&#33287;&#26085;&#35468;</text></g><!--entity WebBrowser--><g id="elem_WebBrowser"><rect fill="#F1F1F1" height="46.4883" rx="2.5" ry="2.5" style="stroke:#181818;stroke-width:0.5;" width="111" x="40.5" y="110"/><rect fill="#F1F1F1" height="10" style="stroke:#181818;stroke-width:0.5;" width="15" x="131.5" y="115"/><rect fill="#F1F1F1" height="2" style="stroke:#181818;stroke-width:0.5;" width="4" x="129.5" y="117"/><rect fill="#F1F1F1" height="2" style="stroke:#181818;stroke-width:0.5;" width="4" x="129.5" y="121"/><text fill="#000000" font-family="sans-serif" font-size="14" lengthAdjust="spacing" textLength="71" x="55.5" y="143.5352">Web&#28687;&#35261;&#22120;</text></g><!--entity MobileApp--><g id="elem_MobileApp"><rect fill="#F1F1F1" height="46.4883" rx="2.5" ry="2.5" style="stroke:#181818;stroke-width:0.5;" width="96" x="187" y="110"/><rect fill="#F1F1F1" height="10" style="stroke:#181818;stroke-width:0.5;" width="15" x="263" y="115"/><rect fill="#F1F1F1" height="2" style="stroke:#181818;stroke-width:0.5;" width="4" x="261" y="117"/><rect fill="#F1F1F1" height="2" style="stroke:#181818;stroke-width:0.5;" width="4" x="261" y="121"/><text fill="#000000" font-family="sans-serif" font-size="14" lengthAdjust="spacing" textLength="56" x="202" y="143.5352">&#31227;&#21205;&#25033;&#29992;</text></g><!--entity ApiGateway--><g id="elem_ApiGateway"><rect fill="#F1F1F1" height="46.4883" rx="2.5" ry="2.5" style="stroke:#181818;stroke-width:0.5;" width="123" x="159.5" y="349.49"/><rect fill="#F1F1F1" height="10" style="stroke:#181818;stroke-width:0.5;" width="15" x="262.5" y="354.49"/><rect fill="#F1F1F1" height="2" style="stroke:#181818;stroke-width:0.5;" width="4" x="260.5" y="356.49"/><rect fill="#F1F1F1" height="2" style="stroke:#181818;stroke-width:0.5;" width="4" x="260.5" y="360.49"/><text fill="#000000" font-family="sans-serif" font-size="14" lengthAdjust="spacing" textLength="83" x="174.5" y="383.0252">API Gateway</text></g><!--entity OrderService1--><g id="elem_OrderService1"><rect fill="#F1F1F1" height="46.4883" rx="2.5" ry="2.5" style="stroke:#181818;stroke-width:0.5;" width="96" x="539" y="636.97"/><rect fill="#F1F1F1" height="10" style="stroke:#181818;stroke-width:0.5;" width="15" x="615" y="641.97"/><rect fill="#F1F1F1" height="2" style="stroke:#181818;stroke-width:0.5;" width="4" x="613" y="643.97"/><rect fill="#F1F1F1" height="2" style="stroke:#181818;stroke-width:0.5;" width="4" x="613" y="647.97"/><text fill="#000000" font-family="sans-serif" font-size="14" lengthAdjust="spacing" textLength="56" x="554" y="670.5052">&#35330;&#21934;&#26381;&#21209;</text></g><!--entity PaymentService1--><g id="elem_PaymentService1"><rect fill="#F1F1F1" height="46.4883" rx="2.5" ry="2.5" style="stroke:#181818;stroke-width:0.5;" width="96" x="670" y="636.97"/><rect fill="#F1F1F1" height="10" style="stroke:#181818;stroke-width:0.5;" width="15" x="746" y="641.97"/><rect fill="#F1F1F1" height="2" style="stroke:#181818;stroke-width:0.5;" width="4" x="744" y="643.97"/><rect fill="#F1F1F1" height="2" style="stroke:#181818;stroke-width:0.5;" width="4" x="744" y="647.97"/><text fill="#000000" font-family="sans-serif" font-size="14" lengthAdjust="spacing" textLength="56" x="685" y="670.5052">&#25903;&#20184;&#26381;&#21209;</text></g><!--entity OrderService2--><g id="elem_OrderService2"><rect fill="#F1F1F1" height="46.4883" rx="2.5" ry="2.5" style="stroke:#181818;stroke-width:0.5;" width="96" x="822" y="636.97"/><rect fill="#F1F1F1" height="10" style="stroke:#181818;stroke-width:0.5;" width="15" x="898" y="641.97"/><rect fill="#F1F1F1" height="2" style="stroke:#181818;stroke-width:0.5;" width="4" x="896" y="643.97"/><rect fill="#F1F1F1" height="2" style="stroke:#181818;stroke-width:0.5;" width="4" x="896" y="647.97"/><text fill="#000000" font-family="sans-serif" font-size="14" lengthAdjust="spacing" textLength="56" x="837" y="670.5052">&#35330;&#21934;&#26381;&#21209;</text></g><!--entity PaymentService2--><g id="elem_PaymentService2"><rect fill="#F1F1F1" height="46.4883" rx="2.5" ry="2.5" style="stroke:#181818;stroke-width:0.5;" width="96" x="953" y="636.97"/><rect fill="#F1F1F1" height="10" style="stroke:#181818;stroke-width:0.5;" width="15" x="1029" y="641.97"/><rect fill="#F1F1F1" height="2" style="stroke:#181818;stroke-width:0.5;" width="4" x="1027" y="643.97"/><rect fill="#F1F1F1" height="2" style="stroke:#181818;stroke-width:0.5;" width="4" x="1027" y="647.97"/><text fill="#000000" font-family="sans-serif" font-size="14" lengthAdjust="spacing" textLength="56" x="968" y="670.5052">&#25903;&#20184;&#26381;&#21209;</text></g><!--entity LogisticsService--><g id="elem_LogisticsService"><rect fill="#F1F1F1" height="46.4883" rx="2.5" ry="2.5" style="stroke:#181818;stroke-width:0.5;" width="96" x="1105" y="636.97"/><rect fill="#F1F1F1" height="10" style="stroke:#181818;stroke-width:0.5;" width="15" x="1181" y="641.97"/><rect fill="#F1F1F1" height="2" style="stroke:#181818;stroke-width:0.5;" width="4" x="1179" y="643.97"/><rect fill="#F1F1F1" height="2" style="stroke:#181818;stroke-width:0.5;" width="4" x="1179" y="647.97"/><text fill="#000000" font-family="sans-serif" font-size="14" lengthAdjust="spacing" textLength="56" x="1120" y="670.5052">&#29289;&#27969;&#26381;&#21209;</text></g><!--entity OrderDBMaster--><g id="elem_OrderDBMaster"><path d="M515,910.46 C515,900.46 581,900.46 581,900.46 C581,900.46 647,900.46 647,910.46 L647,935.9483 C647,945.9483 581,945.9483 581,945.9483 C581,945.9483 515,945.9483 515,935.9483 L515,910.46 " fill="#F1F1F1" style="stroke:#181818;stroke-width:0.5;"/><path d="M515,910.46 C515,920.46 581,920.46 581,920.46 C581,920.46 647,920.46 647,910.46 " fill="none" style="stroke:#181818;stroke-width:0.5;"/><text fill="#000000" font-family="sans-serif" font-size="14" lengthAdjust="spacing" textLength="112" x="525" y="937.9952">&#35330;&#21934;&#36039;&#26009;&#24235;&#20027;&#31680;&#40670;</text></g><!--entity OrderDBSlave--><g id="elem_OrderDBSlave"><path d="M709,910.46 C709,900.46 775,900.46 775,900.46 C775,900.46 841,900.46 841,910.46 L841,935.9483 C841,945.9483 775,945.9483 775,945.9483 C775,945.9483 709,945.9483 709,935.9483 L709,910.46 " fill="#F1F1F1" style="stroke:#181818;stroke-width:0.5;"/><path d="M709,910.46 C709,920.46 775,920.46 775,920.46 C775,920.46 841,920.46 841,910.46 " fill="none" style="stroke:#181818;stroke-width:0.5;"/><text fill="#000000" font-family="sans-serif" font-size="14" lengthAdjust="spacing" textLength="112" x="719" y="937.9952">&#35330;&#21934;&#36039;&#26009;&#24235;&#24478;&#31680;&#40670;</text></g><!--entity PaymentDB--><g id="elem_PaymentDB"><path d="M876,910.46 C876,900.46 921,900.46 921,900.46 C921,900.46 966,900.46 966,910.46 L966,935.9483 C966,945.9483 921,945.9483 921,945.9483 C921,945.9483 876,945.9483 876,935.9483 L876,910.46 " fill="#F1F1F1" style="stroke:#181818;stroke-width:0.5;"/><path d="M876,910.46 C876,920.46 921,920.46 921,920.46 C921,920.46 966,920.46 966,910.46 " fill="none" style="stroke:#181818;stroke-width:0.5;"/><text fill="#000000" font-family="sans-serif" font-size="14" lengthAdjust="spacing" textLength="70" x="886" y="937.9952">&#25903;&#20184;&#36039;&#26009;&#24235;</text></g><!--entity Redis--><g id="elem_Redis"><path d="M1742.5,647.47 C1742.5,637.47 1785,637.47 1785,637.47 C1785,637.47 1827.5,637.47 1827.5,647.47 L1827.5,672.9583 C1827.5,682.9583 1785,682.9583 1785,682.9583 C1785,682.9583 1742.5,682.9583 1742.5,672.9583 L1742.5,647.47 " fill="#F1F1F1" style="stroke:#181818;stroke-width:0.5;"/><path d="M1742.5,647.47 C1742.5,657.47 1785,657.47 1785,657.47 C1785,657.47 1827.5,657.47 1827.5,647.47 " fill="none" style="stroke:#181818;stroke-width:0.5;"/><text fill="#000000" font-family="sans-serif" font-size="14" lengthAdjust="spacing" textLength="65" x="1752.5" y="675.0052">Redis&#38598;&#32676;</text></g><!--entity EventBus--><g id="elem_EventBus"><path d="M1563,646.97 L1629,646.97 C1634,646.97 1634,660.2141 1634,660.2141 C1634,660.2141 1634,673.4583 1629,673.4583 L1563,673.4583 C1558,673.4583 1558,660.2141 1558,660.2141 C1558,660.2141 1558,646.97 1563,646.97 " fill="#F1F1F1" style="stroke:#181818;stroke-width:0.5;"/><path d="M1629,646.97 C1624,646.97 1624,660.2141 1624,660.2141 C1624,673.4583 1629,673.4583 1629,673.4583 " fill="none" style="stroke:#181818;stroke-width:0.5;"/><text fill="#000000" font-family="sans-serif" font-size="14" lengthAdjust="spacing" textLength="56" x="1563" y="665.5052">&#20107;&#20214;&#32317;&#32218;</text></g><!--entity DeadLetterQueue--><g id="elem_DeadLetterQueue"><path d="M1562,909.96 L1628,909.96 C1633,909.96 1633,923.2041 1633,923.2041 C1633,923.2041 1633,936.4483 1628,936.4483 L1562,936.4483 C1557,936.4483 1557,923.2041 1557,923.2041 C1557,923.2041 1557,909.96 1562,909.96 " fill="#F1F1F1" style="stroke:#181818;stroke-width:0.5;"/><path d="M1628,909.96 C1623,909.96 1623,923.2041 1623,923.2041 C1623,936.4483 1628,936.4483 1628,936.4483 " fill="none" style="stroke:#181818;stroke-width:0.5;"/><text fill="#000000" font-family="sans-serif" font-size="14" lengthAdjust="spacing" textLength="56" x="1562" y="928.4952">&#27515;&#20449;&#38538;&#21015;</text></g><!--entity PaymentGateway--><g id="elem_PaymentGateway"><rect fill="#F1F1F1" height="46.4883" rx="2.5" ry="2.5" style="stroke:#181818;stroke-width:0.5;" width="96" x="1038" y="899.96"/><rect fill="#F1F1F1" height="10" style="stroke:#181818;stroke-width:0.5;" width="15" x="1114" y="904.96"/><rect fill="#F1F1F1" height="2" style="stroke:#181818;stroke-width:0.5;" width="4" x="1112" y="906.96"/><rect fill="#F1F1F1" height="2" style="stroke:#181818;stroke-width:0.5;" width="4" x="1112" y="910.96"/><text fill="#000000" font-family="sans-serif" font-size="14" lengthAdjust="spacing" textLength="56" x="1053" y="933.4952">&#25903;&#20184;&#32178;&#38364;</text></g><!--entity LogisticsProvider--><g id="elem_LogisticsProvider"><rect fill="#F1F1F1" height="46.4883" rx="2.5" ry="2.5" style="stroke:#181818;stroke-width:0.5;" width="110" x="1169" y="899.96"/><rect fill="#F1F1F1" height="10" style="stroke:#181818;stroke-width:0.5;" width="15" x="1259" y="904.96"/><rect fill="#F1F1F1" height="2" style="stroke:#181818;stroke-width:0.5;" width="4" x="1257" y="906.96"/><rect fill="#F1F1F1" height="2" style="stroke:#181818;stroke-width:0.5;" width="4" x="1257" y="910.96"/><text fill="#000000" font-family="sans-serif" font-size="14" lengthAdjust="spacing" textLength="70" x="1184" y="933.4952">&#29289;&#27969;&#26381;&#21209;&#21830;</text></g><!--entity NotificationService--><g id="elem_NotificationService"><rect fill="#F1F1F1" height="46.4883" rx="2.5" ry="2.5" style="stroke:#181818;stroke-width:0.5;" width="96" x="1314" y="899.96"/><rect fill="#F1F1F1" height="10" style="stroke:#181818;stroke-width:0.5;" width="15" x="1390" y="904.96"/><rect fill="#F1F1F1" height="2" style="stroke:#181818;stroke-width:0.5;" width="4" x="1388" y="906.96"/><rect fill="#F1F1F1" height="2" style="stroke:#181818;stroke-width:0.5;" width="4" x="1388" y="910.96"/><text fill="#000000" font-family="sans-serif" font-size="14" lengthAdjust="spacing" textLength="56" x="1329" y="933.4952">&#36890;&#30693;&#26381;&#21209;</text></g><!--entity LogCollector--><g id="elem_LogCollector"><rect fill="#F1F1F1" height="46.4883" rx="2.5" ry="2.5" style="stroke:#181818;stroke-width:0.5;" width="110" x="1728" y="349.49"/><rect fill="#F1F1F1" height="10" style="stroke:#181818;stroke-width:0.5;" width="15" x="1818" y="354.49"/><rect fill="#F1F1F1" height="2" style="stroke:#181818;stroke-width:0.5;" width="4" x="1816" y="356.49"/><rect fill="#F1F1F1" height="2" style="stroke:#181818;stroke-width:0.5;" width="4" x="1816" y="360.49"/><text fill="#000000" font-family="sans-serif" font-size="14" lengthAdjust="spacing" textLength="70" x="1743" y="383.0252">&#26085;&#35468;&#25910;&#38598;&#22120;</text></g><!--entity Dashboard--><g id="elem_Dashboard"><rect fill="#F1F1F1" height="46.4883" rx="2.5" ry="2.5" style="stroke:#181818;stroke-width:0.5;" width="110" x="1927" y="349.49"/><rect fill="#F1F1F1" height="10" style="stroke:#181818;stroke-width:0.5;" width="15" x="2017" y="354.49"/><rect fill="#F1F1F1" height="2" style="stroke:#181818;stroke-width:0.5;" width="4" x="2015" y="356.49"/><rect fill="#F1F1F1" height="2" style="stroke:#181818;stroke-width:0.5;" width="4" x="2015" y="360.49"/><text fill="#000000" font-family="sans-serif" font-size="14" lengthAdjust="spacing" textLength="70" x="1942" y="383.0252">&#30435;&#25511;&#20736;&#34920;&#26495;</text></g><!--entity AlertSystem--><g id="elem_AlertSystem"><rect fill="#F1F1F1" height="46.4883" rx="2.5" ry="2.5" style="stroke:#181818;stroke-width:0.5;" width="96" x="2125" y="349.49"/><rect fill="#F1F1F1" height="10" style="stroke:#181818;stroke-width:0.5;" width="15" x="2201" y="354.49"/><rect fill="#F1F1F1" height="2" style="stroke:#181818;stroke-width:0.5;" width="4" x="2199" y="356.49"/><rect fill="#F1F1F1" height="2" style="stroke:#181818;stroke-width:0.5;" width="4" x="2199" y="360.49"/><text fill="#000000" font-family="sans-serif" font-size="14" lengthAdjust="spacing" textLength="56" x="2140" y="383.0252">&#21578;&#35686;&#31995;&#32113;</text></g><g id="elem_GMN60"><path d="M1898.5,632.25 L1898.5,688.1816 L2055.5,688.1816 L2055.5,642.25 L2045.5,632.25 L1898.5,632.25 " fill="#FEFFDD" style="stroke:#181818;stroke-width:0.5;"/><path d="M2045.5,632.25 L2045.5,642.25 L2055.5,642.25 L2045.5,632.25 " fill="#FEFFDD" style="stroke:#181818;stroke-width:1.0;"/><text fill="#000000" font-family="sans-serif" font-size="13" lengthAdjust="spacing" textLength="136" x="1904.5" y="649.8184">&#20351;&#29992;Docker&#23481;&#22120;&#21270;&#37096;&#32626;</text><text fill="#000000" font-family="sans-serif" font-size="13" lengthAdjust="spacing" textLength="96" x="1904.5" y="665.1289">Kubernetes&#32232;&#25490;</text><text fill="#000000" font-family="sans-serif" font-size="13" lengthAdjust="spacing" textLength="78" x="1904.5" y="680.4395">&#25903;&#25588;&#27700;&#24179;&#25844;&#23637;</text></g><g id="elem_GMN63"><path d="M1702.5,895.24 L1702.5,951.1716 L1801.5,951.1716 L1801.5,905.24 L1791.5,895.24 L1702.5,895.24 " fill="#FEFFDD" style="stroke:#181818;stroke-width:0.5;"/><path d="M1791.5,895.24 L1791.5,905.24 L1801.5,905.24 L1791.5,895.24 " fill="#FEFFDD" style="stroke:#181818;stroke-width:1.0;"/><text fill="#000000" font-family="sans-serif" font-size="13" lengthAdjust="spacing" textLength="78" x="1708.5" y="912.8084">&#20351;&#29992;&#20027;&#24478;&#35079;&#35069;</text><text fill="#000000" font-family="sans-serif" font-size="13" lengthAdjust="spacing" textLength="78" x="1708.5" y="928.1189">&#25903;&#25588;&#25925;&#38556;&#36681;&#31227;</text><text fill="#000000" font-family="sans-serif" font-size="13" lengthAdjust="spacing" textLength="52" x="1708.5" y="943.4295">&#23450;&#26399;&#20633;&#20221;</text></g><g id="elem_GMN66"><path d="M2091,632.25 L2091,688.1816 L2241,688.1816 L2241,642.25 L2231,632.25 L2091,632.25 " fill="#FEFFDD" style="stroke:#181818;stroke-width:0.5;"/><path d="M2231,632.25 L2231,642.25 L2241,642.25 L2231,632.25 " fill="#FEFFDD" style="stroke:#181818;stroke-width:1.0;"/><text fill="#000000" font-family="sans-serif" font-size="13" lengthAdjust="spacing" textLength="129" x="2097" y="649.8184">&#20351;&#29992;Kafka/RabbitMQ</text><text fill="#000000" font-family="sans-serif" font-size="13" lengthAdjust="spacing" textLength="91" x="2097" y="665.1289">&#30906;&#20445;&#21487;&#38752;&#24615;&#20659;&#36958;</text><text fill="#000000" font-family="sans-serif" font-size="13" lengthAdjust="spacing" textLength="91" x="2097" y="680.4395">&#25903;&#25588;&#28040;&#24687;&#25345;&#20037;&#21270;</text></g><g id="elem_GMN69"><path d="M2276,632.25 L2276,688.1816 L2388,688.1816 L2388,642.25 L2378,632.25 L2276,632.25 " fill="#FEFFDD" style="stroke:#181818;stroke-width:0.5;"/><path d="M2378,632.25 L2378,642.25 L2388,642.25 L2378,632.25 " fill="#FEFFDD" style="stroke:#181818;stroke-width:1.0;"/><text fill="#000000" font-family="sans-serif" font-size="13" lengthAdjust="spacing" textLength="65" x="2282" y="649.8184">&#20998;&#25955;&#24335;&#24555;&#21462;</text><text fill="#000000" font-family="sans-serif" font-size="13" lengthAdjust="spacing" textLength="78" x="2282" y="665.1289">&#25552;&#39640;&#35712;&#21462;&#24615;&#33021;</text><text fill="#000000" font-family="sans-serif" font-size="13" lengthAdjust="spacing" textLength="91" x="2282" y="680.4395">&#28187;&#36629;&#36039;&#26009;&#24235;&#36000;&#36617;</text></g><g id="elem_GMN72"><path d="M2291,344.76 L2291,400.6916 L2415,400.6916 L2415,354.76 L2405,344.76 L2291,344.76 " fill="#FEFFDD" style="stroke:#181818;stroke-width:0.5;"/><path d="M2405,344.76 L2405,354.76 L2415,354.76 L2405,344.76 " fill="#FEFFDD" style="stroke:#181818;stroke-width:1.0;"/><text fill="#000000" font-family="sans-serif" font-size="13" lengthAdjust="spacing" textLength="103" x="2297" y="362.3284">ELK/Prometheus</text><text fill="#000000" font-family="sans-serif" font-size="13" lengthAdjust="spacing" textLength="52" x="2297" y="377.6389">&#21363;&#26178;&#30435;&#25511;</text><text fill="#000000" font-family="sans-serif" font-size="13" lengthAdjust="spacing" textLength="52" x="2297" y="392.9495">&#30064;&#24120;&#21578;&#35686;</text></g><!--link Client to LoadBalancer--><g id="link_Client_LoadBalancer"><path d="M318,181.0233 C318,183.9989 318,187.0714 318,190.2268 C318,196.5376 318,203.1802 318,210.044 C318,223.7716 318,238.3841 318,252.9963 C318,260.3023 318,267.6084 318,274.8037 C318,278.4014 318,281.9714 318,285.4999 C318,285.941 318,286.3814 318,286.8211 C318,287.041 318,287.2607 318,287.4802 " fill="none" id="Client-to-LoadBalancer" style="stroke:#181818;stroke-width:1.0;"/><polygon fill="#181818" points="318,287.4802,322,278.4802,318,282.4802,314,278.4802,318,287.4802" style="stroke:#181818;stroke-width:1.0;"/><text fill="#000000" font-family="sans-serif" font-size="13" lengthAdjust="spacing" textLength="40" x="319" y="218.0584">HTTPS</text></g><!--link LoadBalancer to AppServer--><g id="link_LoadBalancer_AppServer"><path d="M326.5805,374.746 C326.8482,374.7776 327.1219,374.8099 327.4016,374.8429 C328.5204,374.975 329.7353,375.1182 331.0445,375.2725 C333.6627,375.581 336.6576,375.9335 340.0133,376.3278 C353.4359,377.905 372.6306,380.1513 396.5788,382.9302 C444.475,388.4878 511.385,396.1756 589.16,404.9013 C744.71,422.3525 943.72,443.955 1121,460.97 C1131.65,462 1208.8,462.09 1217,468.97 C1221.1194,472.4288 1224.9211,476.182 1228.4288,480.1805 C1229.3057,481.1801 1230.1642,482.1951 1231.0047,483.2246 C1231.425,483.7393 1231.8407,484.2577 1232.252,484.7796 " fill="none" id="LoadBalancer-to-AppServer" style="stroke:#181818;stroke-width:1.0;"/><polygon fill="#181818" points="1232.252,484.7796,1229.8233,475.2349,1229.1573,480.8525,1223.5398,480.1865,1232.252,484.7796" style="stroke:#181818;stroke-width:1.0;"/><text fill="#000000" font-family="sans-serif" font-size="13" lengthAdjust="spacing" textLength="70" x="1122" y="457.5384">HTTP/REST</text></g><!--link OrderService1 to OrderDBMaster--><g id="link_OrderService1_OrderDBMaster"><path d="M585.85,683.68 C584.93,702.77 583.67,730.91 583,755.46 C581.68,804.03 581.23,860.57 581.08,893.77 " fill="none" id="OrderService1-to-OrderDBMaster" style="stroke:#181818;stroke-width:1.0;"/><polygon fill="#181818" points="581.06,898.57,585.1114,889.593,581.0886,893.5701,577.1115,889.5473,581.06,898.57" style="stroke:#181818;stroke-width:1.0;"/><text fill="#000000" font-family="sans-serif" font-size="13" lengthAdjust="spacing" textLength="66" x="584" y="769.0284">JDBC/R+W</text></g><!--link OrderService2 to OrderDBMaster--><g id="link_OrderService2_OrderDBMaster"><path d="M870.2,683.73 C869.07,709.67 862.86,751.41 836,772.46 C810.78,792.23 720.41,765.63 692,780.46 C644.33,805.34 610.6,860.8 593.6,894.5 " fill="none" id="OrderService2-to-OrderDBMaster" style="stroke:#181818;stroke-width:1.0;"/><polygon fill="#181818" points="591.49,898.76,599.0766,892.4796,593.7147,894.2822,591.9121,888.9202,591.49,898.76" style="stroke:#181818;stroke-width:1.0;"/><text fill="#000000" font-family="sans-serif" font-size="13" lengthAdjust="spacing" textLength="66" x="851.45" y="769.0284">JDBC/R+W</text></g><!--link OrderDBMaster to OrderDBSlave--><g id="link_OrderDBMaster_OrderDBSlave"><path d="M647.49,923.21 C665.23,923.21 684.48,923.21 702.53,923.21 " fill="none" id="OrderDBMaster-to-OrderDBSlave" style="stroke:#181818;stroke-width:1.0;"/><polygon fill="#181818" points="707.08,923.21,698.08,919.21,702.08,923.21,698.08,927.21,707.08,923.21" style="stroke:#181818;stroke-width:1.0;"/><text fill="#000000" font-family="sans-serif" font-size="13" lengthAdjust="spacing" textLength="26" x="665" y="916.7784">&#35079;&#35069;</text></g><!--link PaymentService1 to PaymentDB--><g id="link_PaymentService1_PaymentDB"><path d="M701.89,683.94 C686.35,708.9 668.24,748.58 691,772.46 C703.82,785.91 842.67,769.97 858,780.46 C895.81,806.34 911.19,860.44 917.25,893.81 " fill="none" id="PaymentService1-to-PaymentDB" style="stroke:#181818;stroke-width:1.0;"/><polygon fill="#181818" points="918.09,898.7,920.5157,889.1545,917.2472,893.7715,912.6301,890.5031,918.09,898.7" style="stroke:#181818;stroke-width:1.0;"/><text fill="#000000" font-family="sans-serif" font-size="13" lengthAdjust="spacing" textLength="30" x="692" y="769.0284">JDBC</text></g><!--link PaymentService2 to PaymentDB--><g id="link_PaymentService2_PaymentDB"><path d="M994.04,683.92 C979.43,731.59 945.59,841.98 929.63,894.06 " fill="none" id="PaymentService2-to-PaymentDB" style="stroke:#181818;stroke-width:1.0;"/><polygon fill="#181818" points="928.22,898.66,934.668,891.2153,929.6764,893.8768,927.0149,888.8851,928.22,898.66" style="stroke:#181818;stroke-width:1.0;"/><text fill="#000000" font-family="sans-serif" font-size="13" lengthAdjust="spacing" textLength="30" x="971.52" y="769.0284">JDBC</text></g><!--link OrderService1 to Redis--><g id="link_OrderService1_Redis"><path d="M588.54,636.66 C592.4,599.39 605.89,527.78 653,495.93 C748.09,431.65 1586.07,439.48 1686,495.93 C1737.33,524.93 1765.01,592.38 1777.2,631.24 " fill="none" id="OrderService1-to-Redis" style="stroke:#181818;stroke-width:1.0;"/><polygon fill="#181818" points="1778.59,635.77,1779.7951,625.9951,1777.1336,630.9868,1772.142,628.3253,1778.59,635.77" style="stroke:#181818;stroke-width:1.0;"/><text fill="#000000" font-family="sans-serif" font-size="13" lengthAdjust="spacing" textLength="85" x="1564.5" y="457.5384">&#35712;&#21462;/&#23531;&#20837;&#24555;&#21462;</text></g><!--link OrderService2 to Redis--><g id="link_OrderService2_Redis"><path d="M871.54,636.66 C875.4,599.39 888.89,527.78 936,495.93 C1005.04,449.26 1613.44,454.94 1686,495.93 C1737.33,524.93 1765.01,592.38 1777.2,631.24 " fill="none" id="OrderService2-to-Redis" style="stroke:#181818;stroke-width:1.0;"/><polygon fill="#181818" points="1778.59,635.77,1779.7951,625.9951,1777.1336,630.9868,1772.142,628.3253,1778.59,635.77" style="stroke:#181818;stroke-width:1.0;"/><text fill="#000000" font-family="sans-serif" font-size="13" lengthAdjust="spacing" textLength="85" x="1656.5" y="457.5384">&#35712;&#21462;/&#23531;&#20837;&#24555;&#21462;</text></g><!--link OrderService1 to EventBus--><g id="link_OrderService1_EventBus"><path d="M588.54,636.66 C592.4,599.39 605.89,527.78 653,495.93 C768.99,417.53 1147.07,462.42 1283,495.93 C1400.57,524.91 1522.84,606.81 1572.73,642.84 " fill="none" id="OrderService1-to-EventBus" style="stroke:#181818;stroke-width:1.0;"/><polygon fill="#181818" points="1576.67,645.7,1571.7476,637.1694,1572.6276,642.7574,1567.0396,643.6374,1576.67,645.7" style="stroke:#181818;stroke-width:1.0;"/><text fill="#000000" font-family="sans-serif" font-size="13" lengthAdjust="spacing" textLength="52" x="1446" y="457.5384">&#30332;&#24067;&#20107;&#20214;</text></g><!--link OrderService2 to EventBus--><g id="link_OrderService2_EventBus"><path d="M871.54,636.66 C875.4,599.39 888.89,527.78 936,495.93 C1063.77,409.56 1133.26,459.02 1283,495.93 C1400.57,524.91 1522.84,606.81 1572.73,642.84 " fill="none" id="OrderService2-to-EventBus" style="stroke:#181818;stroke-width:1.0;"/><polygon fill="#181818" points="1576.67,645.7,1571.7476,637.1694,1572.6276,642.7574,1567.0396,643.6374,1576.67,645.7" style="stroke:#181818;stroke-width:1.0;"/><text fill="#000000" font-family="sans-serif" font-size="13" lengthAdjust="spacing" textLength="52" x="1505" y="457.5384">&#30332;&#24067;&#20107;&#20214;</text></g><!--link PaymentService1 to EventBus--><g id="link_PaymentService1_EventBus"><path d="M722.63,636.72 C731.43,599.17 754.51,526.76 806,495.93 C896.94,441.48 1180.08,470.56 1283,495.93 C1400.57,524.91 1522.84,606.81 1572.73,642.84 " fill="none" id="PaymentService1-to-EventBus" style="stroke:#181818;stroke-width:1.0;"/><polygon fill="#181818" points="1576.67,645.7,1571.7476,637.1694,1572.6276,642.7574,1567.0396,643.6374,1576.67,645.7" style="stroke:#181818;stroke-width:1.0;"/><text fill="#000000" font-family="sans-serif" font-size="13" lengthAdjust="spacing" textLength="85" x="1353.5" y="457.5384">&#30332;&#24067;/&#35330;&#38321;&#20107;&#20214;</text></g><!--link PaymentService2 to EventBus--><g id="link_PaymentService2_EventBus"><path d="M1005.63,636.72 C1014.43,599.17 1037.51,526.76 1089,495.93 C1162.97,451.64 1199.28,475.3 1283,495.93 C1400.57,524.91 1522.84,606.81 1572.73,642.84 " fill="none" id="PaymentService2-to-EventBus" style="stroke:#181818;stroke-width:1.0;"/><polygon fill="#181818" points="1576.67,645.7,1571.7476,637.1694,1572.6276,642.7574,1567.0396,643.6374,1576.67,645.7" style="stroke:#181818;stroke-width:1.0;"/><text fill="#000000" font-family="sans-serif" font-size="13" lengthAdjust="spacing" textLength="85" x="1261.5" y="457.5384">&#30332;&#24067;/&#35330;&#38321;&#20107;&#20214;</text></g><!--link LogisticsService to EventBus--><g id="link_LogisticsService_EventBus"><path d="M1152.48,636.56 C1153.12,599.48 1160.47,528.54 1205,495.93 C1332.98,402.2 1522.48,582.59 1579.31,642.1 " fill="none" id="LogisticsService-to-EventBus" style="stroke:#181818;stroke-width:1.0;"/><polygon fill="#181818" points="1582.74,645.72,1579.4663,636.4311,1579.306,642.0857,1573.6515,641.9255,1582.74,645.72" style="stroke:#181818;stroke-width:1.0;"/><text fill="#000000" font-family="sans-serif" font-size="13" lengthAdjust="spacing" textLength="52" x="1202" y="457.5384">&#35330;&#38321;&#20107;&#20214;</text></g><!--link EventBus to DeadLetterQueue--><g id="link_EventBus_DeadLetterQueue"><path d="M1595.95,673.81 C1595.79,716.1 1595.26,853.24 1595.07,903.51 " fill="none" id="EventBus-to-DeadLetterQueue" style="stroke:#181818;stroke-width:1.0;"/><polygon fill="#181818" points="1595.05,908.23,1599.1014,899.253,1595.0786,903.2301,1591.1015,899.2073,1595.05,908.23" style="stroke:#181818;stroke-width:1.0;"/><text fill="#000000" font-family="sans-serif" font-size="13" lengthAdjust="spacing" textLength="52" x="1596.62" y="769.0284">&#22833;&#25943;&#28040;&#24687;</text></g><!--link PaymentService1 to PaymentGateway--><g id="link_PaymentService1_PaymentGateway"><path d="M719.23,683.96 C721.98,710.11 730.83,752.06 759,772.46 C779.08,787 960.09,768.86 982,780.46 C1028.16,804.89 1059.07,859.99 1074.5,893.84 " fill="none" id="PaymentService1-to-PaymentGateway" style="stroke:#181818;stroke-width:1.0;"/><polygon fill="#181818" points="1076.41,898.11,1076.39,888.2612,1074.37,893.5451,1069.0861,891.5251,1076.41,898.11" style="stroke:#181818;stroke-width:1.0;"/><text fill="#000000" font-family="sans-serif" font-size="13" lengthAdjust="spacing" textLength="67" x="760" y="769.0284">HTTPS/API</text></g><!--link PaymentService2 to PaymentGateway--><g id="link_PaymentService2_PaymentGateway"><path d="M1008.39,683.92 C1023.88,731.47 1059.69,841.43 1076.7,893.66 " fill="none" id="PaymentService2-to-PaymentGateway" style="stroke:#181818;stroke-width:1.0;"/><polygon fill="#181818" points="1078.21,898.3,1079.2118,888.5022,1076.6546,893.5481,1071.6087,890.9909,1078.21,898.3" style="stroke:#181818;stroke-width:1.0;"/><text fill="#000000" font-family="sans-serif" font-size="13" lengthAdjust="spacing" textLength="67" x="1036.89" y="769.0284">HTTPS/API</text></g><!--link LogisticsService to LogisticsProvider--><g id="link_LogisticsService_LogisticsProvider"><path d="M1159.18,683.92 C1172.11,731.47 1202.03,841.43 1216.24,893.66 " fill="none" id="LogisticsService-to-LogisticsProvider" style="stroke:#181818;stroke-width:1.0;"/><polygon fill="#181818" points="1217.49,898.28,1219.0127,888.5496,1216.1901,893.4519,1211.2878,890.6294,1217.49,898.28" style="stroke:#181818;stroke-width:1.0;"/><text fill="#000000" font-family="sans-serif" font-size="13" lengthAdjust="spacing" textLength="67" x="1183.14" y="769.0284">HTTPS/API</text></g><!--link EventBus to NotificationService--><g id="link_EventBus_NotificationService"><path d="M1584.71,673.81 C1548.75,713.92 1436.29,839.35 1386.33,895.07 " fill="none" id="EventBus-to-NotificationService" style="stroke:#181818;stroke-width:1.0;"/><polygon fill="#181818" points="1383.28,898.47,1392.2739,894.4562,1386.6248,894.7535,1386.3275,889.1045,1383.28,898.47" style="stroke:#181818;stroke-width:1.0;"/><text fill="#000000" font-family="sans-serif" font-size="13" lengthAdjust="spacing" textLength="67" x="1507.84" y="769.0284">HTTPS/API</text></g><!--reverse link LogCollector to AppServer--><g id="link_LogCollector_AppServer"><path d="M1778.26,402.51 C1773.33,422.49 1763.47,447.8 1744,460.97 C1725.3,473.62 1562.4,461.81 1541,468.97 C1471.81,492.145 1404.3525,538.595 1353.6838,579.7938 C1328.3494,600.3931 1307.2122,619.6797 1292.1542,634.0877 C1288.3897,637.6896 1285.0052,640.9867 1282.03,643.9232 C1280.5424,645.3914 1279.1572,646.7695 1277.8779,648.0504 C1277.2383,648.6909 1276.6252,649.3071 1276.039,649.8981 C1275.746,650.1937 1275.4596,650.4829 1275.1801,650.7657 " fill="none" id="LogCollector-backto-AppServer" style="stroke:#181818;stroke-width:1.0;"/><polygon fill="#181818" points="1779.36,397.71,1773.4539,405.5915,1778.2451,402.5841,1781.2525,407.3753,1779.36,397.71" style="stroke:#181818;stroke-width:1.0;"/><text fill="#000000" font-family="sans-serif" font-size="13" lengthAdjust="spacing" textLength="52" x="1761.11" y="457.5384">&#30332;&#36865;&#26085;&#35468;</text></g><!--reverse link LogCollector to Database--><g id="link_LogCollector_Database"><path d="M1721.41,373.4 C1473.16,372.69 555.13,376.37 469,468.97 C400.92,542.165 403.095,654.2825 422.5738,748.69 C432.3131,795.8938 446.3784,838.67 458.1508,869.9397 C461.0939,877.7571 463.8936,884.8554 466.4467,891.1239 C467.7232,894.2581 468.938,897.1849 470.0783,899.8904 C470.6484,901.2432 471.1999,902.5407 471.731,903.7811 " fill="none" id="LogCollector-backto-Database" style="stroke:#181818;stroke-width:1.0;"/><polygon fill="#181818" points="1726.34,373.41,1717.3515,369.3843,1721.34,373.3957,1717.3286,377.3843,1726.34,373.41" style="stroke:#181818;stroke-width:1.0;"/><text fill="#000000" font-family="sans-serif" font-size="13" lengthAdjust="spacing" textLength="52" x="470" y="665.2884">&#30332;&#36865;&#26085;&#35468;</text></g><!--reverse link LogCollector to MessageBroker--><g id="link_LogCollector_MessageBroker"><path d="M1817.4,400.15 C1837.17,418.45 1855.02,442.7 1838,460.97 C1821,479.24 1745.43,453.32 1726,468.97 C1709.105,482.575 1697.1338,501.0056 1688.6861,521.0628 C1684.4623,531.0914 1681.1193,541.5266 1678.4823,551.9686 C1678.3999,552.2949 1678.3182,552.6213 1678.2371,552.9476 " fill="none" id="LogCollector-backto-MessageBroker" style="stroke:#181818;stroke-width:1.0;"/><polygon fill="#181818" points="1814.02,397.12,1818.0509,406.1062,1817.7428,400.4577,1823.3913,400.1496,1814.02,397.12" style="stroke:#181818;stroke-width:1.0;"/><text fill="#000000" font-family="sans-serif" font-size="13" lengthAdjust="spacing" textLength="52" x="1845.77" y="457.5384">&#30332;&#36865;&#26085;&#35468;</text></g><!--link LogCollector to Dashboard--><g id="link_LogCollector_Dashboard"><path d="M1838.43,372.73 C1863.88,372.73 1894.14,372.73 1920.31,372.73 " fill="none" id="LogCollector-to-Dashboard" style="stroke:#181818;stroke-width:1.0;"/><polygon fill="#181818" points="1925.01,372.73,1916.01,368.73,1920.01,372.73,1916.01,376.73,1925.01,372.73" style="stroke:#181818;stroke-width:1.0;"/><text fill="#000000" font-family="sans-serif" font-size="13" lengthAdjust="spacing" textLength="52" x="1856.5" y="366.2984">&#23637;&#31034;&#25976;&#25818;</text></g><!--link Dashboard to AlertSystem--><g id="link_Dashboard_AlertSystem"><path d="M2037.25,372.73 C2062.74,372.73 2092.92,372.73 2118.34,372.73 " fill="none" id="Dashboard-to-AlertSystem" style="stroke:#181818;stroke-width:1.0;"/><polygon fill="#181818" points="2123.18,372.73,2114.18,368.73,2118.18,372.73,2114.18,376.73,2123.18,372.73" style="stroke:#181818;stroke-width:1.0;"/><text fill="#000000" font-family="sans-serif" font-size="13" lengthAdjust="spacing" textLength="52" x="2055" y="366.2984">&#35320;&#30332;&#21578;&#35686;</text></g><!--link AppServer to GMN60--><g id="link_AppServer_GMN60"><path d="M1275.4146,651.0223 C1275.701,650.7161 1275.9943,650.403 1276.2945,650.0831 C1281.0977,644.9655 1287.6666,638.1157 1295.7731,630.0133 C1311.9863,613.8084 1334.35,592.5931 1361.04,570.2038 C1414.42,525.425 1485.105,475.95 1558.5,452.47 C1590.57,442.22 1830.21,440.05 1861.5,452.47 C1934.56,481.49 1962.84,582.36 1972.53,632.08 " fill="none" id="AppServer-GMN60" style="stroke:#181818;stroke-width:1.0;stroke-dasharray:7.0,7.0;"/></g><!--link Database to GMN63--><g id="link_Database_GMN63"><path d="M484.2446,795.7657 C484.6903,794.8197 485.1518,793.8855 485.6296,792.9639 C486.5852,791.1208 487.6059,789.3282 488.6953,787.5929 C490.874,784.1222 493.3276,780.8802 496.0848,777.9199 C501.5991,771.9992 508.3275,767.205 516.5,763.96 C545.62,752.4 1615.38,752.4 1644.5,763.96 C1700.15,786.06 1730.61,855.46 1743.85,894.96 " fill="none" id="Database-GMN63" style="stroke:#181818;stroke-width:1.0;stroke-dasharray:7.0,7.0;"/></g><!--link MessageBroker to GMN66--><g id="link_MessageBroker_GMN66"><path d="M1677.917,542.7603 C1678.2733,541.3263 1678.6426,539.8947 1679.0253,538.4667 C1679.7906,535.6106 1680.6094,532.7686 1681.4851,529.9489 C1684.988,518.6703 1689.4016,507.7495 1694.9444,497.7186 C1706.03,477.6569 1721.6325,461.155 1743.5,452.47 C1775.72,439.68 2023.28,439.68 2055.5,452.47 C2127.83,481.19 2153.7,582.21 2162.2,632.02 " fill="none" id="MessageBroker-GMN66" style="stroke:#181818;stroke-width:1.0;stroke-dasharray:7.0,7.0;"/></g><!--link Cache to GMN69--><g id="link_Cache_GMN69"><path d="M1849.1101,532.4332 C1849.1488,532.0784 1849.1884,531.7238 1849.2289,531.3697 C1849.3101,530.6613 1849.3951,529.9543 1849.4841,529.2488 C1850.9077,517.9604 1853.3427,507.0508 1857.1184,497.0603 C1864.67,477.0794 1877.585,460.775 1898.5,452.47 C1933.82,438.45 2205.18,438.45 2240.5,452.47 C2310.28,480.18 2326.87,581.69 2330.8,631.82 " fill="none" id="Cache-GMN69" style="stroke:#181818;stroke-width:1.0;stroke-dasharray:7.0,7.0;"/></g><!--link Monitoring to GMN72--><g id="link_Monitoring_GMN72"><path d="M2264.0291,372.73 C2264.0732,372.73 2264.1172,372.73 2264.1613,372.73 C2264.5137,372.73 2264.8661,372.73 2265.2184,372.73 C2268.0375,372.73 2270.8563,372.73 2273.675,372.73 C2279.3125,372.73 2284.95,372.73 2290.59,372.73 " fill="none" id="Monitoring-GMN72" style="stroke:#181818;stroke-width:1.0;stroke-dasharray:7.0,7.0;"/></g><!--SRC=[dLPRJnj767tVNx5o7_fG8ODH8wWY98oX5w0b62aFLHx6zW0hx5rtTmr1LIG3vHP8t1PiOdD9213S8d2uX3WOnt_6ivT_qTcPzNftRISq826nSyvt_ywCDCNnSI226CiB4SZ-ph3unm_2KnEYaE0ZVK9K4E_V7nS5NePyfAU7_QhhMxz_eBqvJeBYD1U61goxQy3VtTKS5W4o2069u0O6_FVwEfhZOb2Im0GC9IG36GZqjWS2pP7miGn57aI9nVR-UrrzpN5X49uqtGPw_Tqjt0ey9miYnqyGjvt6B_E4OKY5FEZijR9ohPuKF2oGsBue1tcPTPI85Z4inE82Rnp- -X26r6HAUrD6sVmZWuK_-4LX1fVB3LMFIsWjhIolgfiKEYo4k2ZiZSUD2C9H8H5XFTh5A-rs5UqkQ_lxs2G9P4W04J-80ZuCnSO8UaT-PBy7Cfm1iyHgRvmp_wqdHfqgEy_GMXPRLJyUwjjB7egE1t5diM5xYwaJaqjPPnymaUsWbS7r01mFnGuJwGf9oy-Zp1abafX-4IDG35Bp7SqOocQXMdfXOuo0sHW-SN2UaB-jGlCvG_DzGMY-BmZDTuVGEfsXTJOFJLtzHtatPtCq94nmaio59TELwSdggdQvh6IowER4ri-0kN-iOnMflze7p2HLiFZLOaaj9FNIdiUgIC0_32JP7EAMHFHnhv4OZ89fwEBH8beyZwsE0Rzj0IidA9MX9Q0rCvQQhI-tEv5H6E4ad3kk0C6J_srpVxsYp1MgnLCzir4jNHF8C5KUlAHJPEeTIaJj_vQ02SoktgnXabeig-zpXDe_ZUFr9oGxI3ajLIlxUkufMjcY7O0WCWHbNBi71iAMt656NyZRakitbOrrY5p3WjFQgTSN-jQEVG1hM_w9CKBf9USaZOZ2D1Tfr2OzcLDV7jbcxsT1viQvC90vWQ-DdvM9kdsWF3_MLfQLhIFjttLQLajPMPVCDYP4MChcDMvSJJPnX5YYep2CQGqP4NVeZwIsdrTsAu_ed4kJ8G684JSO_VLKEtsZNfRKT-TK3wDGb8EpU9XZHWPViteIcpl2nQnMvXbJvDiYmWpVrkEKskzOpmzZOoD13-FuNCFMfTC4UaVxWsCUXd6edGLth9L1-IdWx_EEVlFGuo3uxaomZjf4Rc9IhZF80Xe4xN1PEoXx69UOMXwi3QnPTqDzduAwywn5GNQGk3zBuctsei89MZoYgzsGwzr8hLpL5j8WgjbRL5oWEzlIJMj2GurQKxnO1VNCUNEcxtymtGBVdEhaM2UrphZqnc2WmtCblKN53nVlC-qtTSGQToz-KNns49gJ6XEoziebG2vYGrPDzCT5OUhxrvQ8Kn-MX9WbrvDpfaGnriLu5x3pZhWBmt5gjT5IATALyxHwUAEaYyf6peYdTcIXRKf5-dvSDAQ6w9d742ujNzAE3x06ov0b75OOhwiG5i9gkOAVUG4XZAEcJm-qRjmvQla2dmucGlYEWJAKrFTvvVdV-1E-MfJKbVBs2dsuL3QkS8GCVkUoXWV6vQTMFyiDVZJWwvzAJDrKUb7FxMZbLVpOnH_HMKxPUOdcizLIkQLbHx4jyuDWV0fuHq4enCd33_1dzVLDjRABKWLzzvMIF4Rpb_hSNjqn6NPbVQxwOH4dtT8PUL0OaQqiAUa3T9kY4cFOIVsfdxoWyeFjQmiag-AsTfkstYtqTTuw4-lQmzJ-eK4ldlOOb2SXUJAWPvTATfvUPaO-wRUeMAJjhLly3m00]--></g></svg>