<svg xmlns="http://www.w3.org/2000/svg" xmlns:xlink="http://www.w3.org/1999/xlink" contentStyleType="text/css" data-diagram-type="DESCRIPTION" height="1275px" preserveAspectRatio="none" style="width:1222px;height:1275px;background:#FFFFFF;" version="1.1" viewBox="0 0 1222 1275" width="1222px" zoomAndPan="magnify"><defs/><g><!--cluster ??????--><g class="cluster" data-entity="......" data-source-line="16" data-uid="ent0007" id="cluster_......"><rect fill="none" height="843" rx="2.5" ry="2.5" style="stroke:#181818;stroke-width:1;" width="885.41" x="123" y="99.24"/><text fill="#000000" font-family="sans-serif" font-size="14" font-weight="bold" lengthAdjust="spacing" textLength="84" x="523.705" y="114.7752">&#35330;&#21934;&#31649;&#29702;&#31995;&#32113;</text></g><!--entity Register--><g class="entity" data-entity="Register" data-source-line="17" data-uid="ent0008" id="entity_Register"><ellipse cx="200.848" cy="149.239" fill="#F1F1F1" rx="42.598" ry="14.659" style="stroke:#181818;stroke-width:0.5;"/><text fill="#000000" font-family="sans-serif" font-size="14" lengthAdjust="spacing" textLength="56" x="172.848" y="153.9831">&#35387;&#20874;&#24115;&#25142;</text></g><!--entity Login--><g class="entity" data-entity="Login" data-source-line="18" data-uid="ent0009" id="entity_Login"><ellipse cx="200.848" cy="213.239" fill="#F1F1F1" rx="42.598" ry="14.659" style="stroke:#181818;stroke-width:0.5;"/><text fill="#000000" font-family="sans-serif" font-size="14" lengthAdjust="spacing" textLength="56" x="172.848" y="217.9831">&#30331;&#20837;&#31995;&#32113;</text></g><!--entity BrowseProducts--><g class="entity" data-entity="BrowseProducts" data-source-line="19" data-uid="ent0010" id="entity_BrowseProducts"><ellipse cx="441.258" cy="245.239" fill="#F1F1F1" rx="42.598" ry="14.659" style="stroke:#181818;stroke-width:0.5;"/><text fill="#000000" font-family="sans-serif" font-size="14" lengthAdjust="spacing" textLength="56" x="413.258" y="249.9831">&#28687;&#35261;&#21830;&#21697;</text></g><!--entity SearchProducts--><g class="entity" data-entity="SearchProducts" data-source-line="20" data-uid="ent0011" id="entity_SearchProducts"><ellipse cx="441.258" cy="181.239" fill="#F1F1F1" rx="42.598" ry="14.659" style="stroke:#181818;stroke-width:0.5;"/><text fill="#000000" font-family="sans-serif" font-size="14" lengthAdjust="spacing" textLength="56" x="413.258" y="185.9831">&#25628;&#32034;&#21830;&#21697;</text></g><!--entity CreateOrder--><g class="entity" data-entity="CreateOrder" data-source-line="21" data-uid="ent0012" id="entity_CreateOrder"><ellipse cx="200.8474" cy="288.2382" fill="#FEFECE" rx="40.7474" ry="25.2282" style="stroke:#FF6347;stroke-width:0.5;"/><text fill="#000000" font-family="sans-serif" font-size="14" font-style="italic" lengthAdjust="spacing" textLength="43.9688" x="178.863" y="283.1573">&#171;core&#187;</text><text fill="#000000" font-family="sans-serif" font-size="14" lengthAdjust="spacing" textLength="56" x="172.8474" y="299.6455">&#24314;&#31435;&#35330;&#21934;</text></g><!--entity AddOrderItem--><g class="entity" data-entity="AddOrderItem" data-source-line="22" data-uid="ent0013" id="entity_AddOrderItem"><ellipse cx="200.8549" cy="373.2372" fill="#FEFECE" rx="57.2749" ry="24.3072" style="stroke:#FF6347;stroke-width:0.5;"/><text fill="#000000" font-family="sans-serif" font-size="14" font-style="italic" lengthAdjust="spacing" textLength="43.9688" x="178.8706" y="366.7445">&#171;core&#187;</text><text fill="#000000" font-family="sans-serif" font-size="14" lengthAdjust="spacing" textLength="84" x="158.8549" y="383.2328">&#26032;&#22686;&#35330;&#21934;&#38917;&#30446;</text></g><!--entity RemoveOrderItem--><g class="entity" data-entity="RemoveOrderItem" data-source-line="23" data-uid="ent0014" id="entity_RemoveOrderItem"><ellipse cx="200.8549" cy="457.2372" fill="#FEFECE" rx="57.2749" ry="24.3072" style="stroke:#FF6347;stroke-width:0.5;"/><text fill="#000000" font-family="sans-serif" font-size="14" font-style="italic" lengthAdjust="spacing" textLength="43.9688" x="178.8706" y="450.7445">&#171;core&#187;</text><text fill="#000000" font-family="sans-serif" font-size="14" lengthAdjust="spacing" textLength="84" x="158.8549" y="467.2328">&#31227;&#38500;&#35330;&#21934;&#38917;&#30446;</text></g><!--entity ProcessPayment--><g class="entity" data-entity="ProcessPayment" data-source-line="24" data-uid="ent0015" id="entity_ProcessPayment"><ellipse cx="441.2574" cy="689.2382" fill="#FEFECE" rx="40.7474" ry="25.2282" style="stroke:#FF6347;stroke-width:0.5;"/><text fill="#000000" font-family="sans-serif" font-size="14" font-style="italic" lengthAdjust="spacing" textLength="43.9688" x="419.273" y="684.1573">&#171;core&#187;</text><text fill="#000000" font-family="sans-serif" font-size="14" lengthAdjust="spacing" textLength="56" x="413.2574" y="700.6455">&#34389;&#29702;&#25903;&#20184;</text></g><!--entity ArrangeDelivery--><g class="entity" data-entity="ArrangeDelivery" data-source-line="25" data-uid="ent0016" id="entity_ArrangeDelivery"><ellipse cx="699.5674" cy="757.2382" fill="#FEFECE" rx="40.7474" ry="25.2282" style="stroke:#FF6347;stroke-width:0.5;"/><text fill="#000000" font-family="sans-serif" font-size="14" font-style="italic" lengthAdjust="spacing" textLength="43.9688" x="677.583" y="752.1573">&#171;core&#187;</text><text fill="#000000" font-family="sans-serif" font-size="14" lengthAdjust="spacing" textLength="56" x="671.5674" y="768.6455">&#23433;&#25490;&#37197;&#36865;</text></g><!--entity CheckOrderStatus--><g class="entity" data-entity="CheckOrderStatus" data-source-line="26" data-uid="ent0017" id="entity_CheckOrderStatus"><ellipse cx="200.8485" cy="531.2397" fill="#F1F1F1" rx="61.8485" ry="14.7697" style="stroke:#181818;stroke-width:0.5;"/><text fill="#000000" font-family="sans-serif" font-size="14" lengthAdjust="spacing" textLength="84" x="158.8485" y="535.9838">&#26597;&#35426;&#35330;&#21934;&#29376;&#24907;</text></g><!--entity CancelOrder--><g class="entity" data-entity="CancelOrder" data-source-line="27" data-uid="ent0018" id="entity_CancelOrder"><ellipse cx="200.8522" cy="605.2424" fill="#B4EEB4" rx="57.5622" ry="24.6124" style="stroke:#3CB371;stroke-width:0.5;"/><text fill="#000000" font-family="sans-serif" font-size="14" font-style="italic" lengthAdjust="spacing" textLength="81.252" x="160.2263" y="603.8037">&#171;extension&#187;</text><text fill="#000000" font-family="sans-serif" font-size="14" lengthAdjust="spacing" textLength="56" x="172.8522" y="620.292">&#21462;&#28040;&#35330;&#21934;</text></g><!--entity ApplyDiscount--><g class="entity" data-entity="ApplyDiscount" data-source-line="28" data-uid="ent0019" id="entity_ApplyDiscount"><ellipse cx="441.2622" cy="832.2424" fill="#B4EEB4" rx="57.5622" ry="24.6124" style="stroke:#3CB371;stroke-width:0.5;"/><text fill="#000000" font-family="sans-serif" font-size="14" font-style="italic" lengthAdjust="spacing" textLength="81.252" x="400.6363" y="830.8037">&#171;extension&#187;</text><text fill="#000000" font-family="sans-serif" font-size="14" lengthAdjust="spacing" textLength="56" x="413.2622" y="847.292">&#22871;&#29992;&#25240;&#25187;</text></g><!--entity RequestRefund--><g class="entity" data-entity="RequestRefund" data-source-line="29" data-uid="ent0020" id="entity_RequestRefund"><ellipse cx="200.8522" cy="689.2424" fill="#B4EEB4" rx="57.5622" ry="24.6124" style="stroke:#3CB371;stroke-width:0.5;"/><text fill="#000000" font-family="sans-serif" font-size="14" font-style="italic" lengthAdjust="spacing" textLength="81.252" x="160.2263" y="687.8037">&#171;extension&#187;</text><text fill="#000000" font-family="sans-serif" font-size="14" lengthAdjust="spacing" textLength="56" x="172.8522" y="704.292">&#30003;&#35531;&#36864;&#27454;</text></g><!--entity RateOrder--><g class="entity" data-entity="RateOrder" data-source-line="30" data-uid="ent0021" id="entity_RateOrder"><ellipse cx="200.8522" cy="773.2424" fill="#B4EEB4" rx="57.5622" ry="24.6124" style="stroke:#3CB371;stroke-width:0.5;"/><text fill="#000000" font-family="sans-serif" font-size="14" font-style="italic" lengthAdjust="spacing" textLength="81.252" x="160.2263" y="771.8037">&#171;extension&#187;</text><text fill="#000000" font-family="sans-serif" font-size="14" lengthAdjust="spacing" textLength="56" x="172.8522" y="788.292">&#35413;&#20729;&#35330;&#21934;</text></g><!--entity ManageOrders--><g class="entity" data-entity="ManageOrders" data-source-line="31" data-uid="ent0022" id="entity_ManageOrders"><ellipse cx="200.848" cy="847.239" fill="#F1F1F1" rx="42.598" ry="14.659" style="stroke:#181818;stroke-width:0.5;"/><text fill="#000000" font-family="sans-serif" font-size="14" lengthAdjust="spacing" textLength="56" x="172.848" y="851.9831">&#31649;&#29702;&#35330;&#21934;</text></g><!--entity GenerateReports--><g class="entity" data-entity="GenerateReports" data-source-line="32" data-uid="ent0023" id="entity_GenerateReports"><ellipse cx="200.848" cy="911.239" fill="#F1F1F1" rx="42.598" ry="14.659" style="stroke:#181818;stroke-width:0.5;"/><text fill="#000000" font-family="sans-serif" font-size="14" lengthAdjust="spacing" textLength="56" x="172.848" y="915.9831">&#29983;&#25104;&#22577;&#34920;</text></g><!--entity SendNotification--><g class="entity" data-entity="SendNotification" data-source-line="33" data-uid="ent0024" id="entity_SendNotification"><ellipse cx="949.818" cy="696.239" fill="#F1F1F1" rx="42.598" ry="14.659" style="stroke:#181818;stroke-width:0.5;"/><text fill="#000000" font-family="sans-serif" font-size="14" lengthAdjust="spacing" textLength="56" x="921.818" y="700.9831">&#30332;&#36865;&#36890;&#30693;</text></g><!--entity Customer--><g class="entity" data-entity="Customer" data-source-line="10" data-uid="ent0002" id="entity_Customer"><ellipse cx="41" cy="435" fill="#F1F1F1" rx="16" ry="16" style="stroke:#181818;stroke-width:0.5;"/><path d="M41,455 C45,455 48,455 52,451 C60,451 68,459 68,467 L68,471 C68,475 64,479 60,479 L22,479 C18,479 14,475 14,471 L14,467 C14,459 22,451 30,451 C34,455 37,455 41,455" fill="#F1F1F1" style="stroke:#181818;stroke-width:0.5;"/><text fill="#000000" font-family="sans-serif" font-size="14" lengthAdjust="spacing" textLength="28" x="27" y="493.0352">&#23458;&#25142;</text></g><!--entity Admin--><g class="entity" data-entity="Admin" data-source-line="11" data-uid="ent0003" id="entity_Admin"><ellipse cx="41" cy="825" fill="#F1F1F1" rx="16" ry="16" style="stroke:#181818;stroke-width:0.5;"/><path d="M41,845 C45,845 48,845 52,841 C60,841 68,849 68,857 L68,861 C68,865 64,869 60,869 L22,869 C18,869 14,865 14,861 L14,857 C14,849 22,841 30,841 C34,845 37,845 41,845" fill="#F1F1F1" style="stroke:#181818;stroke-width:0.5;"/><text fill="#000000" font-family="sans-serif" font-size="14" lengthAdjust="spacing" textLength="70" x="6" y="883.0352">&#31995;&#32113;&#31649;&#29702;&#21729;</text></g><!--entity PaymentSystem--><g class="entity" data-entity="PaymentSystem" data-source-line="12" data-uid="ent0004" id="entity_PaymentSystem"><ellipse cx="699.57" cy="975" fill="#F1F1F1" rx="16" ry="16" style="stroke:#181818;stroke-width:0.5;"/><path d="M699.57,995 C703.57,995 706.57,995 710.57,991 C718.57,991 726.57,999 726.57,1007 L726.57,1011 C726.57,1015 722.57,1019 718.57,1019 L680.57,1019 C676.57,1019 672.57,1015 672.57,1011 L672.57,1007 C672.57,999 680.57,991 688.57,991 C692.57,995 695.57,995 699.57,995" fill="#F1F1F1" style="stroke:#181818;stroke-width:0.5;"/><text fill="#000000" font-family="sans-serif" font-size="14" lengthAdjust="spacing" textLength="56" x="671.57" y="1033.0352">&#25903;&#20184;&#31995;&#32113;</text></g><!--entity LogisticsSystem--><g class="entity" data-entity="LogisticsSystem" data-source-line="13" data-uid="ent0005" id="entity_LogisticsSystem"><ellipse cx="949.82" cy="22" fill="#F1F1F1" rx="16" ry="16" style="stroke:#181818;stroke-width:0.5;"/><path d="M949.82,42 C953.82,42 956.82,42 960.82,38 C968.82,38 976.82,46 976.82,54 L976.82,58 C976.82,62 972.82,66 968.82,66 L930.82,66 C926.82,66 922.82,62 922.82,58 L922.82,54 C922.82,46 930.82,38 938.82,38 C942.82,42 945.82,42 949.82,42" fill="#F1F1F1" style="stroke:#181818;stroke-width:0.5;"/><text fill="#000000" font-family="sans-serif" font-size="14" lengthAdjust="spacing" textLength="56" x="921.82" y="80.0352">&#29289;&#27969;&#31995;&#32113;</text></g><!--entity NotificationSystem--><g class="entity" data-entity="NotificationSystem" data-source-line="14" data-uid="ent0006" id="entity_NotificationSystem"><ellipse cx="1187.32" cy="674" fill="#F1F1F1" rx="16" ry="16" style="stroke:#181818;stroke-width:0.5;"/><path d="M1187.32,694 C1191.32,694 1194.32,694 1198.32,690 C1206.32,690 1214.32,698 1214.32,706 L1214.32,710 C1214.32,714 1210.32,718 1206.32,718 L1168.32,718 C1164.32,718 1160.32,714 1160.32,710 L1160.32,706 C1160.32,698 1168.32,690 1176.32,690 C1180.32,694 1183.32,694 1187.32,694" fill="#F1F1F1" style="stroke:#181818;stroke-width:0.5;"/><text fill="#000000" font-family="sans-serif" font-size="14" lengthAdjust="spacing" textLength="56" x="1159.32" y="732.0352">&#36890;&#30693;&#31995;&#32113;</text></g><g class="entity" data-entity="N1" data-source-line="69" data-uid="ent0049" id="entity_N1"><path d="M900.32,958.59 L900.32,983.9005 L999.32,983.9005 L999.32,968.59 L989.32,958.59 L900.32,958.59" fill="#FEFFDD" style="stroke:#181818;stroke-width:0.5;"/><path d="M989.32,958.59 L989.32,968.59 L999.32,968.59 L989.32,958.59" fill="#FEFFDD" style="stroke:#181818;stroke-width:1;"/><text fill="#000000" font-family="sans-serif" font-size="13" lengthAdjust="spacing" textLength="78" x="906.32" y="976.1584">&#26680;&#24515;&#26989;&#21209;&#27969;&#31243;</text></g><g class="entity" data-entity="N2" data-source-line="70" data-uid="ent0050" id="entity_N2"><path d="M663.07,1142.59 L663.07,1167.9005 L736.07,1167.9005 L736.07,1152.59 L726.07,1142.59 L663.07,1142.59" fill="#FEFFDD" style="stroke:#181818;stroke-width:0.5;"/><path d="M726.07,1142.59 L726.07,1152.59 L736.07,1152.59 L726.07,1142.59" fill="#FEFFDD" style="stroke:#181818;stroke-width:1;"/><text fill="#000000" font-family="sans-serif" font-size="13" lengthAdjust="spacing" textLength="52" x="669.07" y="1160.1584">&#25844;&#23637;&#21151;&#33021;</text></g><g class="entity" data-entity="N3" data-source-line="71" data-uid="ent0051" id="entity_N3"><path d="M404.76,1243.59 L404.76,1268.9005 L477.76,1268.9005 L477.76,1253.59 L467.76,1243.59 L404.76,1243.59" fill="#FEFFDD" style="stroke:#181818;stroke-width:0.5;"/><path d="M467.76,1243.59 L467.76,1253.59 L477.76,1253.59 L467.76,1243.59" fill="#FEFFDD" style="stroke:#181818;stroke-width:1;"/><text fill="#000000" font-family="sans-serif" font-size="13" lengthAdjust="spacing" textLength="52" x="410.76" y="1261.1584">&#31649;&#29702;&#21151;&#33021;</text></g><!--link Customer to Register--><g class="link" data-entity-1="Customer" data-entity-2="Register" data-source-line="37" data-uid="lnk25" id="link_Customer_Register"><path d="M41.62,418.18 C43.16,359.45 54.55,248.2 115,181.24 C127.13,167.81 139.7043,161.5691 156.2343,157.0291" fill="none" id="Customer-to-Register" style="stroke:#181818;stroke-width:1;"/><polygon fill="#181818" points="162.02,155.44,152.282,153.9664,157.1985,156.7642,154.4008,161.6808,162.02,155.44" style="stroke:#181818;stroke-width:1;"/></g><!--link Customer to Login--><g class="link" data-entity-1="Customer" data-entity-2="Login" data-source-line="38" data-uid="lnk26" id="link_Customer_Login"><path d="M45.51,418.03 C51.73,371.08 68.76,292.85 115,245.24 C127.61,232.26 140.2438,226.1033 156.6838,221.4833" fill="none" id="Customer-to-Login" style="stroke:#181818;stroke-width:1;"/><polygon fill="#181818" points="162.46,219.86,152.7135,218.444,157.6465,221.2127,154.8778,226.1457,162.46,219.86" style="stroke:#181818;stroke-width:1;"/></g><!--link Login to BrowseProducts--><g class="link" data-entity-1="Login" data-entity-2="BrowseProducts" data-source-line="39" data-uid="lnk27" id="link_Login_BrowseProducts"><path d="M229.13,224.68 C246.88,231.51 270.75,239.56 292.7,243.24 C328.2,249.2 363.1848,249.4598 392.9348,248.2698" fill="none" id="Login-to-BrowseProducts" style="stroke:#181818;stroke-width:1;"/><polygon fill="#181818" points="398.93,248.03,389.7773,244.3929,393.934,248.2298,390.0971,252.3865,398.93,248.03" style="stroke:#181818;stroke-width:1;"/><text fill="#000000" font-family="sans-serif" font-size="13" lengthAdjust="spacing" textLength="59.3569" x="293.7" y="239.8084">&#171;include&#187;</text></g><!--link Login to SearchProducts--><g class="link" data-entity-1="Login" data-entity-2="SearchProducts" data-source-line="40" data-uid="lnk28" id="link_Login_SearchProducts"><path d="M241.22,207.96 C285.52,202.01 351.1134,193.2084 395.2834,187.2784" fill="none" id="Login-to-SearchProducts" style="stroke:#181818;stroke-width:1;"/><polygon fill="#181818" points="401.23,186.48,391.7778,183.7131,396.2745,187.1453,392.8423,191.642,401.23,186.48" style="stroke:#181818;stroke-width:1;"/><text fill="#000000" font-family="sans-serif" font-size="13" lengthAdjust="spacing" textLength="59.3569" x="293.7" y="190.0084">&#171;include&#187;</text></g><!--link Customer to CreateOrder--><g class="link" data-entity-1="Customer" data-entity-2="CreateOrder" data-source-line="41" data-uid="lnk29" id="link_Customer_CreateOrder"><path d="M57.54,418.06 C69.86,390.96 89.28,355.56 115,331.24 C129.16,317.86 142.7763,310.0463 159.2963,302.9563" fill="none" id="Customer-to-CreateOrder" style="stroke:#181818;stroke-width:1;"/><polygon fill="#181818" points="164.81,300.59,154.962,300.4637,160.2153,302.5619,158.1171,307.8153,164.81,300.59" style="stroke:#181818;stroke-width:1;"/></g><!--link Customer to AddOrderItem--><g class="link" data-entity-1="Customer" data-entity-2="AddOrderItem" data-source-line="42" data-uid="lnk30" id="link_Customer_AddOrderItem"><path d="M68.82,441.28 C82.52,433.26 99.53,423.52 115,415.24 C130.22,407.11 141.841,401.2179 156.611,393.9879" fill="none" id="Customer-to-AddOrderItem" style="stroke:#181818;stroke-width:1;"/><polygon fill="#181818" points="162,391.35,152.1579,391.7143,157.5092,393.5483,155.6751,398.8996,162,391.35" style="stroke:#181818;stroke-width:1;"/></g><!--link Customer to RemoveOrderItem--><g class="link" data-entity-1="Customer" data-entity-2="RemoveOrderItem" data-source-line="43" data-uid="lnk31" id="link_Customer_RemoveOrderItem"><path d="M68.78,457.24 C89.1,457.24 111.76,457.24 137.1,457.24" fill="none" id="Customer-to-RemoveOrderItem" style="stroke:#181818;stroke-width:1;"/><polygon fill="#181818" points="143.1,457.24,134.1,453.24,138.1,457.24,134.1,461.24,143.1,457.24" style="stroke:#181818;stroke-width:1;"/></g><!--link Customer to CheckOrderStatus--><g class="link" data-entity-1="Customer" data-entity-2="CheckOrderStatus" data-source-line="44" data-uid="lnk32" id="link_Customer_CheckOrderStatus"><path d="M68.83,474.07 C82.39,482.21 99.27,491.81 115,499.24 C130.66,506.64 142.8869,511.5514 158.1669,517.0714" fill="none" id="Customer-to-CheckOrderStatus" style="stroke:#181818;stroke-width:1;"/><polygon fill="#181818" points="163.81,519.11,156.7045,512.2901,159.1074,517.4112,153.9863,519.8142,163.81,519.11" style="stroke:#181818;stroke-width:1;"/></g><!--link Customer to CancelOrder--><g class="link" data-entity-1="Customer" data-entity-2="CancelOrder" data-source-line="45" data-uid="lnk33" id="link_Customer_CancelOrder"><path d="M62.43,496.46 C75.27,518.23 93.46,544.6 115,563.24 C127.18,573.79 137.0313,579.886 151.2613,586.516" fill="none" id="Customer-to-CancelOrder" style="stroke:#181818;stroke-width:1;"/><polygon fill="#181818" points="156.7,589.05,150.2313,581.6233,152.1678,586.9384,146.8527,588.8748,156.7,589.05" style="stroke:#181818;stroke-width:1;"/></g><!--link Customer to RequestRefund--><g class="link" data-entity-1="Customer" data-entity-2="RequestRefund" data-source-line="46" data-uid="lnk34" id="link_Customer_RequestRefund"><path d="M48.31,496.24 C56.87,538.08 75.85,604.28 115,647.24 C125.74,659.03 135.0616,665.4188 149.2816,671.9088" fill="none" id="Customer-to-RequestRefund" style="stroke:#181818;stroke-width:1;"/><polygon fill="#181818" points="154.74,674.4,148.2132,667.0243,150.1913,672.324,144.8916,674.3021,154.74,674.4" style="stroke:#181818;stroke-width:1;"/></g><!--link Customer to RateOrder--><g class="link" data-entity-1="Customer" data-entity-2="RateOrder" data-source-line="47" data-uid="lnk35" id="link_Customer_RateOrder"><path d="M42.6,496.26 C45.45,553.87 58.57,662.28 115,731.24 C124.99,743.46 133.9567,749.9395 148.0967,756.3595" fill="none" id="Customer-to-RateOrder" style="stroke:#181818;stroke-width:1;"/><polygon fill="#181818" points="153.56,758.84,147.0188,751.4771,149.0073,756.7729,143.7115,758.7614,153.56,758.84" style="stroke:#181818;stroke-width:1;"/></g><!--link Admin to Login--><g class="link" data-entity-1="Admin" data-entity-2="Login" data-source-line="50" data-uid="lnk36" id="link_Admin_Login"><path d="M46.2,808.11 C60.39,676.34 106.24,256.41 115,245.24 C126.18,231 138.6367,224.6237 155.3567,220.2337" fill="none" id="Admin-to-Login" style="stroke:#181818;stroke-width:1;"/><polygon fill="#181818" points="161.16,218.71,151.4392,217.1267,156.3239,219.9798,153.4709,224.8644,161.16,218.71" style="stroke:#181818;stroke-width:1;"/></g><!--link Admin to ManageOrders--><g class="link" data-entity-1="Admin" data-entity-2="ManageOrders" data-source-line="51" data-uid="lnk37" id="link_Admin_ManageOrders"><path d="M76.25,847.24 C100.19,847.24 126.3,847.24 151.79,847.24" fill="none" id="Admin-to-ManageOrders" style="stroke:#181818;stroke-width:1;"/><polygon fill="#181818" points="157.79,847.24,148.79,843.24,152.79,847.24,148.79,851.24,157.79,847.24" style="stroke:#181818;stroke-width:1;"/></g><!--link Admin to GenerateReports--><g class="link" data-entity-1="Admin" data-entity-2="GenerateReports" data-source-line="52" data-uid="lnk38" id="link_Admin_GenerateReports"><path d="M76.38,862.76 C88.52,868.12 102.31,874.08 115,879.24 C133.37,886.73 148.5807,892.5237 165.0107,898.5837" fill="none" id="Admin-to-GenerateReports" style="stroke:#181818;stroke-width:1;"/><polygon fill="#181818" points="170.64,900.66,163.5803,893.7927,165.9489,898.9298,160.8119,901.2984,170.64,900.66" style="stroke:#181818;stroke-width:1;"/></g><!--link CreateOrder to ApplyDiscount--><g class="link" data-entity-1="CreateOrder" data-entity-2="ApplyDiscount" data-source-line="55" data-uid="lnk39" id="link_CreateOrder_ApplyDiscount"><path d="M233.7,303.35 C244.76,310.26 256.05,319.55 262.7,331.24 C347.07,479.68 212.76,563.37 292.7,714.24 C316.96,760.04 362.2327,791.3503 397.3627,810.8303" fill="none" id="CreateOrder-to-ApplyDiscount" style="stroke:#181818;stroke-width:1;stroke-dasharray:7,7;"/><polygon fill="#181818" points="402.61,813.74,396.6789,805.8773,398.2373,811.3153,392.7993,812.8737,402.61,813.74" style="stroke:#181818;stroke-width:1;"/><text fill="#000000" font-family="sans-serif" font-size="13" lengthAdjust="spacing" textLength="57.1924" x="294.7" y="710.8084">&#171;extend&#187;</text></g><!--link CreateOrder to ProcessPayment--><g class="link" data-entity-1="CreateOrder" data-entity-2="ProcessPayment" data-source-line="56" data-uid="lnk40" id="link_CreateOrder_ProcessPayment"><path d="M231.79,305.12 C242.49,312.19 254.03,321.12 262.7,331.24 C354.74,438.76 411.0133,596.5448 430.8233,658.5248" fill="none" id="CreateOrder-to-ProcessPayment" style="stroke:#181818;stroke-width:1;"/><polygon fill="#181818" points="432.65,664.24,433.7201,654.4494,431.1278,659.4774,426.0999,656.885,432.65,664.24" style="stroke:#181818;stroke-width:1;"/><text fill="#000000" font-family="sans-serif" font-size="13" lengthAdjust="spacing" textLength="59.3569" x="293.7" y="370.6184">&#171;include&#187;</text></g><!--link ProcessPayment to PaymentSystem--><g class="link" data-entity-1="ProcessPayment" data-entity-2="PaymentSystem" data-source-line="57" data-uid="lnk41" id="link_ProcessPayment_PaymentSystem"><path d="M457.33,712.55 C469.75,732.55 487.17,762.44 498.82,790.24 C517.26,834.22 497.69,857.13 528.82,893.24 C560.77,930.3 587.44,913.16 628.82,939.24 C643.74,948.65 654.4425,956.9813 666.8325,967.8113" fill="none" id="ProcessPayment-to-PaymentSystem" style="stroke:#181818;stroke-width:1;"/><polygon fill="#181818" points="671.35,971.76,667.2062,962.8253,667.5854,968.4694,661.9413,968.8486,671.35,971.76" style="stroke:#181818;stroke-width:1;"/><text fill="#000000" font-family="sans-serif" font-size="13" lengthAdjust="spacing" textLength="98.376" x="529.82" y="889.8084">&#171;communicate&#187;</text></g><!--link ProcessPayment to ArrangeDelivery--><g class="link" data-entity-1="ProcessPayment" data-entity-2="ArrangeDelivery" data-source-line="58" data-uid="lnk42" id="link_ProcessPayment_ArrangeDelivery"><path d="M479.26,699.06 C527.92,711.97 607.1307,732.9811 655.7807,745.8911" fill="none" id="ProcessPayment-to-ArrangeDelivery" style="stroke:#181818;stroke-width:1;"/><polygon fill="#181818" points="661.58,747.43,653.907,741.2554,656.7473,746.1476,651.8551,748.9878,661.58,747.43" style="stroke:#181818;stroke-width:1;"/><text fill="#000000" font-family="sans-serif" font-size="13" lengthAdjust="spacing" textLength="59.3569" x="549.32" y="709.7484">&#171;include&#187;</text></g><!--link ArrangeDelivery to LogisticsSystem--><g class="link" data-entity-1="ArrangeDelivery" data-entity-2="LogisticsSystem" data-source-line="59" data-uid="lnk43" id="link_ArrangeDelivery_LogisticsSystem"><path d="M720.42,735.22 C727.53,726.41 735.08,715.84 740.32,705.24 C860.21,462.87 789.28,364.8 900.32,118.24 C906.06,105.5 910.5138,97.4536 918.1738,85.9536" fill="none" id="ArrangeDelivery-to-LogisticsSystem" style="stroke:#181818;stroke-width:1;"/><polygon fill="#181818" points="921.5,80.96,913.1816,86.233,918.7282,85.1214,919.8398,90.6679,921.5,80.96" style="stroke:#181818;stroke-width:1;"/><text fill="#000000" font-family="sans-serif" font-size="13" lengthAdjust="spacing" textLength="98.376" x="771.32" y="197.6684">&#171;communicate&#187;</text></g><!--link ProcessPayment to SendNotification--><g class="link" data-entity-1="ProcessPayment" data-entity-2="SendNotification" data-source-line="60" data-uid="lnk44" id="link_ProcessPayment_SendNotification"><path d="M482.34,688.69 C496.97,688.51 513.64,688.33 528.82,688.24 C680.6,687.37 718.64,685.48 870.32,691.24 C882.46,691.71 889.6626,692.0621 901.7026,692.8421" fill="none" id="ProcessPayment-to-SendNotification" style="stroke:#181818;stroke-width:1;stroke-dasharray:7,7;"/><polygon fill="#181818" points="907.69,693.23,898.9674,688.6565,902.7005,692.9068,898.4502,696.6398,907.69,693.23" style="stroke:#181818;stroke-width:1;"/><text fill="#000000" font-family="sans-serif" font-size="13" lengthAdjust="spacing" textLength="59.3569" x="670.07" y="683.7984">&#171;include&#187;</text></g><!--link ArrangeDelivery to SendNotification--><g class="link" data-entity-1="ArrangeDelivery" data-entity-2="SendNotification" data-source-line="61" data-uid="lnk45" id="link_ArrangeDelivery_SendNotification"><path d="M738,748.05 C785.82,736.3 862.0835,717.5624 908.4535,706.1624" fill="none" id="ArrangeDelivery-to-SendNotification" style="stroke:#181818;stroke-width:1;stroke-dasharray:7,7;"/><polygon fill="#181818" points="914.28,704.73,904.5853,702.9943,909.4246,705.9237,906.4952,710.763,914.28,704.73" style="stroke:#181818;stroke-width:1;"/><text fill="#000000" font-family="sans-serif" font-size="13" lengthAdjust="spacing" textLength="59.3569" x="790.82" y="712.5484">&#171;include&#187;</text></g><!--link SendNotification to NotificationSystem--><g class="link" data-entity-1="SendNotification" data-entity-2="NotificationSystem" data-source-line="62" data-uid="lnk46" id="link_SendNotification_NotificationSystem"><path d="M992.65,696.24 C1040.63,696.24 1111.92,696.24 1152.85,696.24" fill="none" id="SendNotification-to-NotificationSystem" style="stroke:#181818;stroke-width:1;"/><polygon fill="#181818" points="1158.85,696.24,1149.85,692.24,1153.85,696.24,1149.85,700.24,1158.85,696.24" style="stroke:#181818;stroke-width:1;"/><text fill="#000000" font-family="sans-serif" font-size="13" lengthAdjust="spacing" textLength="98.376" x="1030.32" y="692.8084">&#171;communicate&#187;</text></g><!--link CancelOrder to ProcessPayment--><g class="link" data-entity-1="CancelOrder" data-entity-2="ProcessPayment" data-source-line="65" data-uid="lnk47" id="link_CancelOrder_ProcessPayment"><path d="M246.13,620.85 C292.05,637.03 357.2613,659.9952 399.4713,674.8752" fill="none" id="CancelOrder-to-ProcessPayment" style="stroke:#181818;stroke-width:1;stroke-dasharray:7,7;"/><polygon fill="#181818" points="405.13,676.87,397.9719,670.1053,400.4144,675.2077,395.3121,677.6502,405.13,676.87" style="stroke:#181818;stroke-width:1;"/><text fill="#000000" font-family="sans-serif" font-size="13" lengthAdjust="spacing" textLength="57.1924" x="294.7" y="636.2884">&#171;extend&#187;</text></g><!--link RequestRefund to ProcessPayment--><g class="link" data-entity-1="RequestRefund" data-entity-2="ProcessPayment" data-source-line="66" data-uid="lnk48" id="link_RequestRefund_ProcessPayment"><path d="M258.65,689.24 C302.31,689.24 355.52,689.24 394.3,689.24" fill="none" id="RequestRefund-to-ProcessPayment" style="stroke:#181818;stroke-width:1;stroke-dasharray:7,7;"/><polygon fill="#181818" points="400.3,689.24,391.3,685.24,395.3,689.24,391.3,693.24,400.3,689.24" style="stroke:#181818;stroke-width:1;"/><text fill="#000000" font-family="sans-serif" font-size="13" lengthAdjust="spacing" textLength="57.1924" x="294.7" y="685.8084">&#171;extend&#187;</text></g><!--link CreateOrder to N1--><g class="link" data-entity-1="CreateOrder" data-entity-2="N1" data-source-line="73" data-uid="lnk52" id="link_CreateOrder_N1"><path d="M233.78,303.31 C244.85,310.21 256.12,319.51 262.7,331.24 C312.64,420.43 248.67,698 292.7,790.24 C341.63,892.76 595.8,1034.55 658.82,1053.24 C760.65,1083.45 883.33,1014.19 929.77,984.22" fill="none" id="CreateOrder-N1" style="stroke:#181818;stroke-width:1;stroke-dasharray:7,7;"/></g><!--link ProcessPayment to N1--><g class="link" data-entity-1="ProcessPayment" data-entity-2="N1" data-source-line="74" data-uid="lnk53" id="link_ProcessPayment_N1"><path d="M469.58,707.73 C486.44,718.93 508.64,733.31 528.82,745.24 C674.94,831.63 856.36,924.59 922.85,958.2" fill="none" id="ProcessPayment-N1" style="stroke:#181818;stroke-width:1;stroke-dasharray:7,7;"/></g><!--link ArrangeDelivery to N1--><g class="link" data-entity-1="ArrangeDelivery" data-entity-2="N1" data-source-line="75" data-uid="lnk54" id="link_ArrangeDelivery_N1"><path d="M739.4,763.29 C778.12,771.36 836.56,789.44 870.32,828.24 C904.7,867.77 868.83,900.37 900.32,942.24 C905.15,948.68 911.86,953.96 918.76,958.18" fill="none" id="ArrangeDelivery-N1" style="stroke:#181818;stroke-width:1;stroke-dasharray:7,7;"/></g><!--link CancelOrder to N2--><g class="link" data-entity-1="CancelOrder" data-entity-2="N2" data-source-line="77" data-uid="lnk55" id="link_CancelOrder_N2"><path d="M239.69,623.8 C248.67,630.01 257.22,637.81 262.7,647.24 C301.69,714.36 245.54,933.59 292.7,995.24 C389.35,1121.59 483.52,1053.49 628.82,1118.24 C644.85,1125.39 662.28,1134.64 675.71,1142.1" fill="none" id="CancelOrder-N2" style="stroke:#181818;stroke-width:1;stroke-dasharray:7,7;"/></g><!--link RequestRefund to N2--><g class="link" data-entity-1="RequestRefund" data-entity-2="N2" data-source-line="78" data-uid="lnk56" id="link_RequestRefund_N2"><path d="M239.67,707.81 C248.65,714.02 257.2,721.82 262.7,731.24 C300.35,795.81 243.29,1010.16 292.7,1066.24 C341.63,1121.8 573,1145.48 662.81,1152.69" fill="none" id="RequestRefund-N2" style="stroke:#181818;stroke-width:1;stroke-dasharray:7,7;"/></g><!--link ApplyDiscount to N2--><g class="link" data-entity-1="ApplyDiscount" data-entity-2="N2" data-source-line="79" data-uid="lnk57" id="link_ApplyDiscount_N2"><path d="M459.52,855.78 C476.11,877.7 502.5,910.75 528.82,936.24 C569.31,975.46 593.21,970.55 628.82,1014.24 C662.64,1055.74 685.56,1116.35 694.44,1142.48" fill="none" id="ApplyDiscount-N2" style="stroke:#181818;stroke-width:1;stroke-dasharray:7,7;"/></g><!--link RateOrder to N2--><g class="link" data-entity-1="RateOrder" data-entity-2="N2" data-source-line="80" data-uid="lnk58" id="link_RateOrder_N2"><path d="M239.65,791.83 C248.62,798.04 257.18,805.83 262.7,815.24 C299.01,877.26 240.66,1087.68 292.7,1137.24 C394.46,1234.18 583.68,1191.12 662.58,1167.27" fill="none" id="RateOrder-N2" style="stroke:#181818;stroke-width:1;stroke-dasharray:7,7;"/></g><!--link ManageOrders to N3--><g class="link" data-entity-1="ManageOrders" data-entity-2="N3" data-source-line="82" data-uid="lnk59" id="link_ManageOrders_N3"><path d="M233.75,856.92 C244.67,861.85 255.86,869.03 262.7,879.24 C302.67,938.97 249.01,1144.18 292.7,1201.24 C319.21,1235.87 369.97,1248.7 404.46,1253.45" fill="none" id="ManageOrders-N3" style="stroke:#181818;stroke-width:1;stroke-dasharray:7,7;"/></g><!--link GenerateReports to N3--><g class="link" data-entity-1="GenerateReports" data-entity-2="N3" data-source-line="83" data-uid="lnk60" id="link_GenerateReports_N3"><path d="M203.7,926.14 C211.35,984.96 242.4,1199.98 292.7,1242.24 C323.43,1268.07 371.51,1267.62 404.37,1263.33" fill="none" id="GenerateReports-N3" style="stroke:#181818;stroke-width:1;stroke-dasharray:7,7;"/></g><!--SRC=[ZLLjJnD977-_dsA3B-wL95Xo9WqXeRLSJ4xFb4-msHtAXdQ7cvcgpUMIAa8AzGw2W5QDF7YS9PueGOntFUJBCBlRR-4yRDkPQIk-QTBv_tx_Xz__OOjWbjW4siWlp17Ryn5mYGy32y_xmOA3d9Bjk0IY6L8f0jkv1p0i0SLOni1rCB1_ismxuxZp1GJBWPU5HOWc9bo8mEIaVMKwDvtBvWOXm7q20ipYSLXcF9VBZ7COH1v0ffFf7rFZrqshvY2LpQIkZrc_MrQQ7ks7jKzfsy5sjem9InfPwUYa5PqUHqTxqVeoVR8dh5DUoG-iTBZv_gBrJ0B4-nsdKW81cQbW0agCkd8OdZvGx3_3We-9x-8Eebrz7kqSA8ZRaFYplkjmEHEGnTLrWWAJCcu-fDj7CXT94XhQNKL7ucQBBg_IpoUia17kC0zuI5Q81eiQBRgKn1tfP1OOcEfQ_FSPtM9LFn2O38BtCBY3e5Ts2TR1uVhBwEE-0fu13dBd1eDfwx_eRLqM8y1P11m2Vk4jiZlDC_nlVw3xhoIblRiKlP34ASyJh9jCg27Cw4shtVYhZva79NWNN4QE6rjCQjbdGMC5kG3ZfD53MFHe9VnpextqHxignPX2Y3KGt015_ov0bM4rxXp4X_j9Z-lLSAaknPa3xhn8T8Ouf6ngkROTVggfMZg12ueTBPLHDtW7JwFDPhZwB5nvBNDSM2XMRlZOPPj6liMCDa_Yj_LsjHh-yoMHyjSom2GFPjcEVeiP7sxHnN-LNFDAruV74-Eki6uvWLEGF6ocjXFMrkdkSRpN5D2VG00G2v872n2POnWr_cSDaYkOp6pWgGl8Zy8FjhmA5sVdNA-zsiMNUllfoulpXrRdHjXNhqxszanxbMibViL_VONiDAlR3znYsUF3q8FfosF0j03AvkW6TJFCJBN9D_oPmwPRUxDb-bH6m31rysDQTi_e03d5KLLKw_tN6jvxDflB_8Uxd-dv8Z-wpMwNbDioEZffp7cwCtaULrQ1yW36ikjjC8m2hvv_0NTXgLGE-3WDePYNGOzXMZlYAD-GoyFmeit9lYJETr3wp3ot_g_NWFHucvvyfCTRUfkKiyN33z2-soVzu5o6vYjSMuvE7z6Dn-pp6BzvRGMGy7ihX-NW7QqtP2xY2jmUwzX5bdHr9ruyavPhYIKPOyMIien1usxw6i4V-xNchqRzF9HP9N_JXpV1QL6lMPQwBk8jPHchahn-1G00]--></g></svg>