<?xml version="1.0" encoding="us-ascii" standalone="no"?><svg xmlns="http://www.w3.org/2000/svg" xmlns:xlink="http://www.w3.org/1999/xlink" contentStyleType="text/css" height="851px" preserveAspectRatio="none" style="width:1837px;height:851px;background:#FFFFFF;" version="1.1" viewBox="0 0 1837 851" width="1837px" zoomAndPan="magnify"><defs/><g><!--cluster Domain Layer--><g id="cluster_Domain Layer"><path d="M8.5,6 L108.5,6 A3.75,3.75 0 0 1 111,8.5 L118,28.4883 L1827.5,28.4883 A2.5,2.5 0 0 1 1830,30.9883 L1830,500.9 A2.5,2.5 0 0 1 1827.5,503.4 L8.5,503.4 A2.5,2.5 0 0 1 6,500.9 L6,8.5 A2.5,2.5 0 0 1 8.5,6 " fill="#EEEEEE" style="stroke:#000000;stroke-width:1.5;"/><line style="stroke:#000000;stroke-width:1.5;" x1="6" x2="118" y1="28.4883" y2="28.4883"/><text fill="#000000" font-family="sans-serif" font-size="14" font-weight="bold" lengthAdjust="spacing" textLength="99" x="10" y="21.5352">Domain Layer</text></g><!--cluster Infrastructure Layer--><g id="cluster_Infrastructure Layer"><path d="M695.5,552.4 L838.5,552.4 A3.75,3.75 0 0 1 841,554.9 L848,574.8883 L1666.5,574.8883 A2.5,2.5 0 0 1 1669,577.3883 L1669,731.34 A2.5,2.5 0 0 1 1666.5,733.84 L695.5,733.84 A2.5,2.5 0 0 1 693,731.34 L693,554.9 A2.5,2.5 0 0 1 695.5,552.4 " fill="#EEEEEE" style="stroke:#000000;stroke-width:1.5;"/><line style="stroke:#000000;stroke-width:1.5;" x1="693" x2="848" y1="574.8883" y2="574.8883"/><text fill="#000000" font-family="sans-serif" font-size="14" font-weight="bold" lengthAdjust="spacing" textLength="142" x="697" y="567.9352">Infrastructure Layer</text></g><!--class DomainEvent--><g id="elem_DomainEvent"><rect codeLine="10" fill="#F5F5F5" height="80.9766" id="DomainEvent" rx="2.5" ry="2.5" style="stroke:#999999;stroke-width:0.5;" width="246" x="22" y="49.25"/><ellipse cx="93.25" cy="65.25" fill="#B4A7E5" rx="11" ry="11" style="stroke:#181818;stroke-width:1.0;"/><path d="M89.6777,61.5151 L89.6777,59.3569 L97.0571,59.3569 L97.0571,61.5151 L94.5918,61.5151 L94.5918,69.5918 L97.0571,69.5918 L97.0571,71.75 L89.6777,71.75 L89.6777,69.5918 L92.1431,69.5918 L92.1431,61.5151 Z " fill="#000000"/><text fill="#000000" font-family="sans-serif" font-size="14" font-style="italic" font-weight="bold" lengthAdjust="spacing" textLength="95" x="113.75" y="70.541">DomainEvent</text><line style="stroke:#999999;stroke-width:0.5;" x1="23" x2="267" y1="81.25" y2="81.25"/><line style="stroke:#999999;stroke-width:0.5;" x1="23" x2="267" y1="89.25" y2="89.25"/><text fill="#000000" font-family="sans-serif" font-size="14" lengthAdjust="spacing" textLength="142" x="28" y="106.7852">+getEventId(): String</text><text fill="#000000" font-family="sans-serif" font-size="14" lengthAdjust="spacing" textLength="234" x="28" y="123.2734">+getOccurredOn(): LocalDateTime</text></g><!--class EventHandler--><g id="elem_EventHandler"><rect codeLine="15" fill="#F5F5F5" height="64.4883" id="EventHandler" rx="2.5" ry="2.5" style="stroke:#999999;stroke-width:0.5;" width="167" x="302.5" y="57.49"/><ellipse cx="330.1" cy="73.49" fill="#B4A7E5" rx="11" ry="11" style="stroke:#181818;stroke-width:1.0;"/><path d="M326.5277,69.7551 L326.5277,67.5969 L333.9071,67.5969 L333.9071,69.7551 L331.4418,69.7551 L331.4418,77.8318 L333.9071,77.8318 L333.9071,79.99 L326.5277,79.99 L326.5277,77.8318 L328.9931,77.8318 L328.9931,69.7551 Z " fill="#000000"/><text fill="#000000" font-family="sans-serif" font-size="14" font-style="italic" font-weight="bold" lengthAdjust="spacing" textLength="95" x="346.9" y="78.781">EventHandler</text><rect fill="#FFFFFF" height="16.1328" style="stroke:#999999;stroke-width:1.0;stroke-dasharray:2.0,2.0;" width="10" x="462.5" y="54.49"/><text fill="#000000" font-family="sans-serif" font-size="12" font-style="italic" lengthAdjust="spacing" textLength="8" x="463.5" y="67.0916">T</text><line style="stroke:#999999;stroke-width:0.5;" x1="303.5" x2="468.5" y1="89.49" y2="89.49"/><line style="stroke:#999999;stroke-width:0.5;" x1="303.5" x2="468.5" y1="97.49" y2="97.49"/><text fill="#000000" font-family="sans-serif" font-size="14" lengthAdjust="spacing" textLength="155" x="308.5" y="115.0252">+handle(T event): void</text></g><!--class EventSubscriber--><g id="elem_EventSubscriber"><rect codeLine="19" fill="#F5F5F5" height="64.4883" id="EventSubscriber" rx="2.5" ry="2.5" style="stroke:#999999;stroke-width:0.5;" width="294" x="1206" y="240.2"/><ellipse cx="1291.75" cy="256.2" fill="#E3664A" rx="11" ry="11" style="stroke:#181818;stroke-width:1.0;"/><path d="M1294.3267,256.4261 Q1294.3267,255.4881 1293.9033,254.9568 Q1293.48,254.4256 1292.7412,254.4256 Q1292.0024,254.4256 1291.5833,254.9568 Q1291.1641,255.4881 1291.1641,256.4261 Q1291.1641,257.3724 1291.5833,257.9036 Q1292.0024,258.4349 1292.7412,258.4349 Q1293.48,258.4349 1293.9033,257.9036 Q1294.3267,257.3724 1294.3267,256.4261 Z M1295.8706,259.8294 L1294.2437,259.8294 L1294.2437,259.1487 Q1293.9282,259.5887 1293.5007,259.792 Q1293.0732,259.9954 1292.4756,259.9954 Q1291.1143,259.9954 1290.28,259.0159 Q1289.4458,258.0364 1289.4458,256.4261 Q1289.4458,254.824 1290.2759,253.8487 Q1291.106,252.8733 1292.4756,252.8733 Q1293.0649,252.8733 1293.5132,253.0767 Q1293.9614,253.2801 1294.2437,253.6702 L1294.2437,253.3299 Q1294.2437,252.201 1293.6252,251.5867 Q1293.0068,250.9725 1291.8613,250.9725 Q1290.1348,250.9725 1289.0432,252.4915 Q1287.9517,254.0105 1287.9517,256.4427 Q1287.9517,258.991 1289.2134,260.4976 Q1290.4751,262.0042 1292.5752,262.0042 Q1293.2393,262.0042 1293.8618,261.8091 Q1294.4844,261.6141 1295.0571,261.2239 L1295.8208,262.6849 Q1295.1484,263.1414 1294.3557,263.3697 Q1293.563,263.5979 1292.6582,263.5979 Q1289.7529,263.5979 1288.0264,261.6639 Q1286.2998,259.7298 1286.2998,256.4427 Q1286.2998,253.2303 1287.8521,251.3003 Q1289.4043,249.3704 1291.9609,249.3704 Q1293.7705,249.3704 1294.8206,250.462 Q1295.8706,251.5535 1295.8706,253.4378 Z " fill="#000000"/><text fill="#000000" font-family="sans-serif" font-size="14" font-weight="bold" lengthAdjust="spacing" textLength="114" x="1312.25" y="261.491">EventSubscriber</text><line style="stroke:#999999;stroke-width:0.5;" x1="1207" x2="1499" y1="272.2" y2="272.2"/><line style="stroke:#999999;stroke-width:0.5;" x1="1207" x2="1499" y1="280.2" y2="280.2"/><text fill="#000000" font-family="sans-serif" font-size="14" lengthAdjust="spacing" textLength="282" x="1212" y="297.7352">+value(): Class&lt;? extends DomainEvent&gt;</text></g><!--class DomainEventBus--><g id="elem_DomainEventBus"><rect codeLine="23" fill="#F5F5F5" height="80.9766" id="DomainEventBus" rx="2.5" ry="2.5" style="stroke:#999999;stroke-width:0.5;" width="393" x="666.5" y="406.42"/><ellipse cx="798.25" cy="422.42" fill="#ADD1B2" rx="11" ry="11" style="stroke:#181818;stroke-width:1.0;"/><path d="M800.7231,428.5631 Q800.1421,428.8619 799.5029,429.0113 Q798.8638,429.1607 798.1582,429.1607 Q795.6514,429.1607 794.3315,427.5089 Q793.0117,425.857 793.0117,422.7359 Q793.0117,419.6065 794.3315,417.9547 Q795.6514,416.3028 798.1582,416.3028 Q798.8638,416.3028 799.5112,416.4522 Q800.1587,416.6016 800.7231,416.9005 L800.7231,419.6231 Q800.0923,419.0421 799.4988,418.7723 Q798.9053,418.5025 798.2744,418.5025 Q796.9297,418.5025 796.2449,419.5692 Q795.5601,420.6358 795.5601,422.7359 Q795.5601,424.8277 796.2449,425.8944 Q796.9297,426.961 798.2744,426.961 Q798.9053,426.961 799.4988,426.6912 Q800.0923,426.4215 800.7231,425.8404 Z " fill="#000000"/><text fill="#000000" font-family="sans-serif" font-size="14" font-weight="bold" lengthAdjust="spacing" textLength="121" x="818.75" y="427.711">DomainEventBus</text><line style="stroke:#999999;stroke-width:0.5;" x1="667.5" x2="1058.5" y1="438.42" y2="438.42"/><text fill="#000000" font-family="sans-serif" font-size="14" lengthAdjust="spacing" textLength="381" x="672.5" y="455.9552">-eventPublisherAdapter: DomainEventPublisherAdapter</text><line style="stroke:#999999;stroke-width:0.5;" x1="667.5" x2="1058.5" y1="462.9083" y2="462.9083"/><text fill="#000000" font-family="sans-serif" font-size="14" lengthAdjust="spacing" textLength="244" x="672.5" y="480.4434">+publish(event: DomainEvent): void</text></g><!--class DomainEventPublisherService--><g id="elem_DomainEventPublisherService"><rect codeLine="28" fill="#F5F5F5" height="97.4648" id="DomainEventPublisherService" rx="2.5" ry="2.5" style="stroke:#999999;stroke-width:0.5;" width="333" x="696.5" y="223.71"/><ellipse cx="752.25" cy="239.71" fill="#ADD1B2" rx="11" ry="11" style="stroke:#181818;stroke-width:1.0;"/><path d="M754.7231,245.8531 Q754.1421,246.1519 753.5029,246.3013 Q752.8638,246.4507 752.1582,246.4507 Q749.6514,246.4507 748.3315,244.7989 Q747.0117,243.147 747.0117,240.0259 Q747.0117,236.8965 748.3315,235.2447 Q749.6514,233.5928 752.1582,233.5928 Q752.8638,233.5928 753.5112,233.7422 Q754.1587,233.8916 754.7231,234.1905 L754.7231,236.9131 Q754.0923,236.3321 753.4988,236.0623 Q752.9053,235.7925 752.2744,235.7925 Q750.9297,235.7925 750.2449,236.8592 Q749.5601,237.9258 749.5601,240.0259 Q749.5601,242.1177 750.2449,243.1844 Q750.9297,244.251 752.2744,244.251 Q752.9053,244.251 753.4988,243.9812 Q754.0923,243.7115 754.7231,243.1304 Z " fill="#000000"/><text fill="#000000" font-family="sans-serif" font-size="14" font-weight="bold" lengthAdjust="spacing" textLength="213" x="772.75" y="245.001">DomainEventPublisherService</text><line style="stroke:#999999;stroke-width:0.5;" x1="697.5" x2="1028.5" y1="255.71" y2="255.71"/><text fill="#000000" font-family="sans-serif" font-size="14" lengthAdjust="spacing" textLength="231" x="702.5" y="273.2452">-static eventBus: DomainEventBus</text><line style="stroke:#999999;stroke-width:0.5;" x1="697.5" x2="1028.5" y1="280.1983" y2="280.1983"/><text fill="#000000" font-family="sans-serif" font-size="14" lengthAdjust="spacing" textLength="244" x="702.5" y="297.7334">+publish(event: DomainEvent): void</text><text fill="#000000" font-family="sans-serif" font-size="14" lengthAdjust="spacing" textLength="321" x="702.5" y="314.2217">+static publishEvent(event: DomainEvent): void</text></g><!--class OrderEventHandler--><g id="elem_OrderEventHandler"><rect codeLine="34" fill="#F5F5F5" height="97.4648" id="OrderEventHandler" rx="2.5" ry="2.5" style="stroke:#999999;stroke-width:0.5;" width="429" x="785.5" y="41"/><ellipse cx="927.75" cy="57" fill="#ADD1B2" rx="11" ry="11" style="stroke:#181818;stroke-width:1.0;"/><path d="M930.2231,63.1431 Q929.6421,63.4419 929.0029,63.5913 Q928.3638,63.7407 927.6582,63.7407 Q925.1514,63.7407 923.8315,62.0889 Q922.5117,60.437 922.5117,57.3159 Q922.5117,54.1865 923.8315,52.5347 Q925.1514,50.8828 927.6582,50.8828 Q928.3638,50.8828 929.0112,51.0322 Q929.6587,51.1816 930.2231,51.4805 L930.2231,54.2031 Q929.5923,53.6221 928.9988,53.3523 Q928.4053,53.0825 927.7744,53.0825 Q926.4297,53.0825 925.7449,54.1492 Q925.0601,55.2158 925.0601,57.3159 Q925.0601,59.4077 925.7449,60.4744 Q926.4297,61.541 927.7744,61.541 Q928.4053,61.541 928.9988,61.2712 Q929.5923,61.0015 930.2231,60.4204 Z " fill="#000000"/><text fill="#000000" font-family="sans-serif" font-size="14" font-weight="bold" lengthAdjust="spacing" textLength="136" x="948.25" y="62.291">OrderEventHandler</text><line style="stroke:#999999;stroke-width:0.5;" x1="786.5" x2="1213.5" y1="73" y2="73"/><line style="stroke:#999999;stroke-width:0.5;" x1="786.5" x2="1213.5" y1="81" y2="81"/><text fill="#000000" font-family="sans-serif" font-size="14" lengthAdjust="spacing" textLength="375" x="791.5" y="98.5352">+handleOrderCreated(event: OrderCreatedEvent): void</text><text fill="#000000" font-family="sans-serif" font-size="14" lengthAdjust="spacing" textLength="417" x="791.5" y="115.0234">+handleOrderItemAdded(event: OrderItemAddedEvent): void</text><text fill="#000000" font-family="sans-serif" font-size="14" lengthAdjust="spacing" textLength="407" x="791.5" y="131.5117">+handleOrderSubmitted(event: OrderSubmittedEvent): void</text></g><!--class NotificationEventHandler--><g id="elem_NotificationEventHandler"><rect codeLine="40" fill="#F5F5F5" height="80.9766" id="NotificationEventHandler" rx="2.5" ry="2.5" style="stroke:#999999;stroke-width:0.5;" width="565" x="1249.5" y="49.25"/><ellipse cx="1437.25" cy="65.25" fill="#ADD1B2" rx="11" ry="11" style="stroke:#181818;stroke-width:1.0;"/><path d="M1439.7231,71.3931 Q1439.1421,71.6919 1438.5029,71.8413 Q1437.8638,71.9907 1437.1582,71.9907 Q1434.6514,71.9907 1433.3315,70.3389 Q1432.0117,68.687 1432.0117,65.5659 Q1432.0117,62.4365 1433.3315,60.7847 Q1434.6514,59.1328 1437.1582,59.1328 Q1437.8638,59.1328 1438.5112,59.2822 Q1439.1587,59.4316 1439.7231,59.7305 L1439.7231,62.4531 Q1439.0923,61.8721 1438.4988,61.6023 Q1437.9053,61.3325 1437.2744,61.3325 Q1435.9297,61.3325 1435.2449,62.3992 Q1434.5601,63.4658 1434.5601,65.5659 Q1434.5601,67.6577 1435.2449,68.7244 Q1435.9297,69.791 1437.2744,69.791 Q1437.9053,69.791 1438.4988,69.5212 Q1439.0923,69.2515 1439.7231,68.6704 Z " fill="#000000"/><text fill="#000000" font-family="sans-serif" font-size="14" font-weight="bold" lengthAdjust="spacing" textLength="181" x="1457.75" y="70.541">NotificationEventHandler</text><line style="stroke:#999999;stroke-width:0.5;" x1="1250.5" x2="1813.5" y1="81.25" y2="81.25"/><line style="stroke:#999999;stroke-width:0.5;" x1="1250.5" x2="1813.5" y1="89.25" y2="89.25"/><text fill="#000000" font-family="sans-serif" font-size="14" lengthAdjust="spacing" textLength="453" x="1255.5" y="106.7852">+handleNotificationCreated(event: NotificationCreatedEvent): void</text><text fill="#000000" font-family="sans-serif" font-size="14" lengthAdjust="spacing" textLength="553" x="1255.5" y="123.2734">+handleNotificationStatusChanged(event: NotificationStatusChangedEvent): void</text></g><!--class AggregateLifecycleAware--><g id="elem_AggregateLifecycleAware"><rect codeLine="45" fill="#F5F5F5" height="80.9766" id="AggregateLifecycleAware" rx="2.5" ry="2.5" style="stroke:#999999;stroke-width:0.5;" width="246" x="504" y="49.25"/><ellipse cx="534.75" cy="65.25" fill="#ADD1B2" rx="11" ry="11" style="stroke:#181818;stroke-width:1.0;"/><path d="M537.2231,71.3931 Q536.6421,71.6919 536.0029,71.8413 Q535.3638,71.9907 534.6582,71.9907 Q532.1514,71.9907 530.8315,70.3389 Q529.5117,68.687 529.5117,65.5659 Q529.5117,62.4365 530.8315,60.7847 Q532.1514,59.1328 534.6582,59.1328 Q535.3638,59.1328 536.0112,59.2822 Q536.6587,59.4316 537.2231,59.7305 L537.2231,62.4531 Q536.5923,61.8721 535.9988,61.6023 Q535.4053,61.3325 534.7744,61.3325 Q533.4297,61.3325 532.7449,62.3992 Q532.0601,63.4658 532.0601,65.5659 Q532.0601,67.6577 532.7449,68.7244 Q533.4297,69.791 534.7744,69.791 Q535.4053,69.791 535.9988,69.5212 Q536.5923,69.2515 537.2231,68.6704 Z " fill="#000000"/><text fill="#000000" font-family="sans-serif" font-size="14" font-weight="bold" lengthAdjust="spacing" textLength="179" x="552.25" y="70.541">AggregateLifecycleAware</text><line style="stroke:#999999;stroke-width:0.5;" x1="505" x2="749" y1="81.25" y2="81.25"/><line style="stroke:#999999;stroke-width:0.5;" x1="505" x2="749" y1="89.25" y2="89.25"/><text fill="#000000" font-family="sans-serif" font-size="14" lengthAdjust="spacing" textLength="234" x="510" y="106.7852">-getLifecycle(): AggregateLifecycle</text><text fill="#000000" font-family="sans-serif" font-size="14" lengthAdjust="spacing" textLength="230" x="510" y="123.2734">+apply(event: DomainEvent): void</text></g><!--class OrderCreatedEvent--><g id="elem_OrderCreatedEvent"><rect codeLine="50" fill="#F5F5F5" height="97.4648" id="OrderCreatedEvent" rx="2.5" ry="2.5" style="stroke:#999999;stroke-width:0.5;" width="189" x="22.5" y="223.71"/><ellipse cx="47.4" cy="239.71" fill="#ADD1B2" rx="11" ry="11" style="stroke:#181818;stroke-width:1.0;"/><path d="M49.8731,245.8531 Q49.2921,246.1519 48.6529,246.3013 Q48.0138,246.4507 47.3082,246.4507 Q44.8014,246.4507 43.4815,244.7989 Q42.1617,243.147 42.1617,240.0259 Q42.1617,236.8965 43.4815,235.2447 Q44.8014,233.5928 47.3082,233.5928 Q48.0138,233.5928 48.6612,233.7422 Q49.3087,233.8916 49.8731,234.1905 L49.8731,236.9131 Q49.2423,236.3321 48.6488,236.0623 Q48.0553,235.7925 47.4244,235.7925 Q46.0797,235.7925 45.3949,236.8592 Q44.7101,237.9258 44.7101,240.0259 Q44.7101,242.1177 45.3949,243.1844 Q46.0797,244.251 47.4244,244.251 Q48.0553,244.251 48.6488,243.9812 Q49.2423,243.7115 49.8731,243.1304 Z " fill="#000000"/><text fill="#000000" font-family="sans-serif" font-size="14" font-weight="bold" lengthAdjust="spacing" textLength="135" x="63.6" y="245.001">OrderCreatedEvent</text><line style="stroke:#999999;stroke-width:0.5;" x1="23.5" x2="210.5" y1="255.71" y2="255.71"/><text fill="#000000" font-family="sans-serif" font-size="14" lengthAdjust="spacing" textLength="108" x="28.5" y="273.2452">-orderId: String</text><text fill="#000000" font-family="sans-serif" font-size="14" lengthAdjust="spacing" textLength="134" x="28.5" y="289.7334">-customerId: String</text><text fill="#000000" font-family="sans-serif" font-size="14" lengthAdjust="spacing" textLength="177" x="28.5" y="306.2217">-totalAmount: BigDecimal</text><line style="stroke:#999999;stroke-width:0.5;" x1="23.5" x2="210.5" y1="313.1748" y2="313.1748"/></g><!--class OrderItemAddedEvent--><g id="elem_OrderItemAddedEvent"><rect codeLine="56" fill="#F5F5F5" height="113.9531" id="OrderItemAddedEvent" rx="2.5" ry="2.5" style="stroke:#999999;stroke-width:0.5;" width="190" x="247" y="215.47"/><ellipse cx="262" cy="231.47" fill="#ADD1B2" rx="11" ry="11" style="stroke:#181818;stroke-width:1.0;"/><path d="M264.4731,237.6131 Q263.8921,237.9119 263.2529,238.0613 Q262.6138,238.2107 261.9082,238.2107 Q259.4014,238.2107 258.0815,236.5589 Q256.7617,234.907 256.7617,231.7859 Q256.7617,228.6565 258.0815,227.0047 Q259.4014,225.3528 261.9082,225.3528 Q262.6138,225.3528 263.2612,225.5022 Q263.9087,225.6516 264.4731,225.9505 L264.4731,228.6731 Q263.8423,228.0921 263.2488,227.8223 Q262.6553,227.5525 262.0244,227.5525 Q260.6797,227.5525 259.9949,228.6192 Q259.3101,229.6858 259.3101,231.7859 Q259.3101,233.8777 259.9949,234.9444 Q260.6797,236.011 262.0244,236.011 Q262.6553,236.011 263.2488,235.7412 Q263.8423,235.4715 264.4731,234.8904 Z " fill="#000000"/><text fill="#000000" font-family="sans-serif" font-size="14" font-weight="bold" lengthAdjust="spacing" textLength="158" x="276" y="236.761">OrderItemAddedEvent</text><line style="stroke:#999999;stroke-width:0.5;" x1="248" x2="436" y1="247.47" y2="247.47"/><text fill="#000000" font-family="sans-serif" font-size="14" lengthAdjust="spacing" textLength="108" x="253" y="265.0052">-orderId: String</text><text fill="#000000" font-family="sans-serif" font-size="14" lengthAdjust="spacing" textLength="124" x="253" y="281.4934">-productId: String</text><text fill="#000000" font-family="sans-serif" font-size="14" lengthAdjust="spacing" textLength="90" x="253" y="297.9817">-quantity: int</text><text fill="#000000" font-family="sans-serif" font-size="14" lengthAdjust="spacing" textLength="125" x="253" y="314.47">-price: BigDecimal</text><line style="stroke:#999999;stroke-width:0.5;" x1="248" x2="436" y1="321.4231" y2="321.4231"/></g><!--class OrderSubmittedEvent--><g id="elem_OrderSubmittedEvent"><rect codeLine="63" fill="#F5F5F5" height="113.9531" id="OrderSubmittedEvent" rx="2.5" ry="2.5" style="stroke:#999999;stroke-width:0.5;" width="189" x="472.5" y="215.47"/><ellipse cx="488.85" cy="231.47" fill="#ADD1B2" rx="11" ry="11" style="stroke:#181818;stroke-width:1.0;"/><path d="M491.3231,237.6131 Q490.7421,237.9119 490.1029,238.0613 Q489.4638,238.2107 488.7582,238.2107 Q486.2514,238.2107 484.9315,236.5589 Q483.6117,234.907 483.6117,231.7859 Q483.6117,228.6565 484.9315,227.0047 Q486.2514,225.3528 488.7582,225.3528 Q489.4638,225.3528 490.1112,225.5022 Q490.7587,225.6516 491.3231,225.9505 L491.3231,228.6731 Q490.6923,228.0921 490.0988,227.8223 Q489.5053,227.5525 488.8744,227.5525 Q487.5297,227.5525 486.8449,228.6192 Q486.1601,229.6858 486.1601,231.7859 Q486.1601,233.8777 486.8449,234.9444 Q487.5297,236.011 488.8744,236.011 Q489.5053,236.011 490.0988,235.7412 Q490.6923,235.4715 491.3231,234.8904 Z " fill="#000000"/><text fill="#000000" font-family="sans-serif" font-size="14" font-weight="bold" lengthAdjust="spacing" textLength="154" x="503.15" y="236.761">OrderSubmittedEvent</text><line style="stroke:#999999;stroke-width:0.5;" x1="473.5" x2="660.5" y1="247.47" y2="247.47"/><text fill="#000000" font-family="sans-serif" font-size="14" lengthAdjust="spacing" textLength="108" x="478.5" y="265.0052">-orderId: String</text><text fill="#000000" font-family="sans-serif" font-size="14" lengthAdjust="spacing" textLength="134" x="478.5" y="281.4934">-customerId: String</text><text fill="#000000" font-family="sans-serif" font-size="14" lengthAdjust="spacing" textLength="177" x="478.5" y="297.9817">-totalAmount: BigDecimal</text><text fill="#000000" font-family="sans-serif" font-size="14" lengthAdjust="spacing" textLength="106" x="478.5" y="314.47">-itemCount: int</text><line style="stroke:#999999;stroke-width:0.5;" x1="473.5" x2="660.5" y1="321.4231" y2="321.4231"/></g><!--class DomainEventPublisherAdapter--><g id="elem_DomainEventPublisherAdapter"><rect codeLine="72" fill="#F5F5F5" height="97.4648" id="DomainEventPublisherAdapter" rx="2.5" ry="2.5" style="stroke:#999999;stroke-width:0.5;" width="308" x="709" y="603.89"/><ellipse cx="749.65" cy="619.89" fill="#ADD1B2" rx="11" ry="11" style="stroke:#181818;stroke-width:1.0;"/><path d="M752.1231,626.0331 Q751.5421,626.3319 750.9029,626.4813 Q750.2638,626.6307 749.5582,626.6307 Q747.0514,626.6307 745.7315,624.9789 Q744.4117,623.327 744.4117,620.2059 Q744.4117,617.0765 745.7315,615.4247 Q747.0514,613.7728 749.5582,613.7728 Q750.2638,613.7728 750.9112,613.9222 Q751.5587,614.0716 752.1231,614.3705 L752.1231,617.0931 Q751.4923,616.5121 750.8988,616.2423 Q750.3053,615.9725 749.6744,615.9725 Q748.3297,615.9725 747.6449,617.0392 Q746.9601,618.1058 746.9601,620.2059 Q746.9601,622.2977 747.6449,623.3644 Q748.3297,624.431 749.6744,624.431 Q750.3053,624.431 750.8988,624.1612 Q751.4923,623.8915 752.1231,623.3104 Z " fill="#000000"/><text fill="#000000" font-family="sans-serif" font-size="14" font-weight="bold" lengthAdjust="spacing" textLength="219" x="769.35" y="625.181">DomainEventPublisherAdapter</text><line style="stroke:#999999;stroke-width:0.5;" x1="710" x2="1016" y1="635.89" y2="635.89"/><text fill="#000000" font-family="sans-serif" font-size="14" lengthAdjust="spacing" textLength="296" x="715" y="653.4252">-eventPublisher: ApplicationEventPublisher</text><text fill="#000000" font-family="sans-serif" font-size="14" lengthAdjust="spacing" textLength="196" x="715" y="669.9134">+class DomainEventWrapper</text><line style="stroke:#999999;stroke-width:0.5;" x1="710" x2="1016" y1="676.8666" y2="676.8666"/><text fill="#000000" font-family="sans-serif" font-size="14" lengthAdjust="spacing" textLength="244" x="715" y="694.4017">+publish(event: DomainEvent): void</text></g><!--class DomainEventSubscriptionManager--><g id="elem_DomainEventSubscriptionManager"><rect codeLine="78" fill="#F5F5F5" height="130.4414" id="DomainEventSubscriptionManager" rx="2.5" ry="2.5" style="stroke:#999999;stroke-width:0.5;" width="601" x="1052.5" y="587.4"/><ellipse cx="1225.75" cy="603.4" fill="#ADD1B2" rx="11" ry="11" style="stroke:#181818;stroke-width:1.0;"/><path d="M1228.2231,609.5431 Q1227.6421,609.8419 1227.0029,609.9913 Q1226.3638,610.1407 1225.6582,610.1407 Q1223.1514,610.1407 1221.8315,608.4889 Q1220.5117,606.837 1220.5117,603.7159 Q1220.5117,600.5865 1221.8315,598.9347 Q1223.1514,597.2828 1225.6582,597.2828 Q1226.3638,597.2828 1227.0112,597.4322 Q1227.6587,597.5816 1228.2231,597.8805 L1228.2231,600.6031 Q1227.5923,600.0221 1226.9988,599.7523 Q1226.4053,599.4825 1225.7744,599.4825 Q1224.4297,599.4825 1223.7449,600.5492 Q1223.0601,601.6158 1223.0601,603.7159 Q1223.0601,605.8077 1223.7449,606.8744 Q1224.4297,607.941 1225.7744,607.941 Q1226.4053,607.941 1226.9988,607.6712 Q1227.5923,607.4015 1228.2231,606.8204 Z " fill="#000000"/><text fill="#000000" font-family="sans-serif" font-size="14" font-weight="bold" lengthAdjust="spacing" textLength="246" x="1246.25" y="608.691">DomainEventSubscriptionManager</text><line style="stroke:#999999;stroke-width:0.5;" x1="1053.5" x2="1652.5" y1="619.4" y2="619.4"/><text fill="#000000" font-family="sans-serif" font-size="14" lengthAdjust="spacing" textLength="386" x="1058.5" y="636.9352">-subscriptions: Map&lt;Class&lt;?&gt;, Map&lt;Object, Method&gt;&gt;</text><line style="stroke:#999999;stroke-width:0.5;" x1="1053.5" x2="1652.5" y1="643.8883" y2="643.8883"/><text fill="#000000" font-family="sans-serif" font-size="14" lengthAdjust="spacing" textLength="490" x="1058.5" y="661.4234">+postProcessAfterInitialization(bean: Object, beanName: String): Object</text><text fill="#000000" font-family="sans-serif" font-size="14" lengthAdjust="spacing" textLength="395" x="1058.5" y="677.9117">+onApplicationEvent(springEvent: ApplicationEvent): void</text><text fill="#000000" font-family="sans-serif" font-size="14" lengthAdjust="spacing" textLength="589" x="1058.5" y="694.4">-registerSubscriber(bean: Object, method: Method, annotation: EventSubscriber): void</text><text fill="#000000" font-family="sans-serif" font-size="14" lengthAdjust="spacing" textLength="559" x="1058.5" y="710.8883">-notifySubscribers(subscribers: Map&lt;Object, Method&gt;, event: DomainEvent): void</text></g><!--class Spring ApplicationEvent--><g id="elem_Spring ApplicationEvent"><rect fill="#F5F5F5" height="48" id="Spring ApplicationEvent" rx="2.5" ry="2.5" style="stroke:#999999;stroke-width:0.5;" width="204" x="1251" y="796.84"/><ellipse cx="1266" cy="812.84" fill="#ADD1B2" rx="11" ry="11" style="stroke:#181818;stroke-width:1.0;"/><path d="M1268.4731,818.9831 Q1267.8921,819.2819 1267.2529,819.4313 Q1266.6138,819.5807 1265.9082,819.5807 Q1263.4014,819.5807 1262.0815,817.9289 Q1260.7617,816.277 1260.7617,813.1559 Q1260.7617,810.0265 1262.0815,808.3747 Q1263.4014,806.7228 1265.9082,806.7228 Q1266.6138,806.7228 1267.2612,806.8722 Q1267.9087,807.0216 1268.4731,807.3205 L1268.4731,810.0431 Q1267.8423,809.4621 1267.2488,809.1923 Q1266.6553,808.9225 1266.0244,808.9225 Q1264.6797,808.9225 1263.9949,809.9892 Q1263.3101,811.0558 1263.3101,813.1559 Q1263.3101,815.2477 1263.9949,816.3144 Q1264.6797,817.381 1266.0244,817.381 Q1266.6553,817.381 1267.2488,817.1112 Q1267.8423,816.8415 1268.4731,816.2604 Z " fill="#000000"/><text fill="#000000" font-family="sans-serif" font-size="14" font-weight="bold" lengthAdjust="spacing" textLength="172" x="1280" y="818.131">Spring ApplicationEvent</text><line style="stroke:#999999;stroke-width:0.5;" x1="1252" x2="1454" y1="828.84" y2="828.84"/><line style="stroke:#999999;stroke-width:0.5;" x1="1252" x2="1454" y1="836.84" y2="836.84"/></g><!--class Spring ApplicationEventPublisher--><g id="elem_Spring ApplicationEventPublisher"><rect fill="#F5F5F5" height="48" id="Spring ApplicationEventPublisher" rx="2.5" ry="2.5" style="stroke:#999999;stroke-width:0.5;" width="272" x="727" y="796.84"/><ellipse cx="742" cy="812.84" fill="#ADD1B2" rx="11" ry="11" style="stroke:#181818;stroke-width:1.0;"/><path d="M744.4731,818.9831 Q743.8921,819.2819 743.2529,819.4313 Q742.6138,819.5807 741.9082,819.5807 Q739.4014,819.5807 738.0815,817.9289 Q736.7617,816.277 736.7617,813.1559 Q736.7617,810.0265 738.0815,808.3747 Q739.4014,806.7228 741.9082,806.7228 Q742.6138,806.7228 743.2612,806.8722 Q743.9087,807.0216 744.4731,807.3205 L744.4731,810.0431 Q743.8423,809.4621 743.2488,809.1923 Q742.6553,808.9225 742.0244,808.9225 Q740.6797,808.9225 739.9949,809.9892 Q739.3101,811.0558 739.3101,813.1559 Q739.3101,815.2477 739.9949,816.3144 Q740.6797,817.381 742.0244,817.381 Q742.6553,817.381 743.2488,817.1112 Q743.8423,816.8415 744.4731,816.2604 Z " fill="#000000"/><text fill="#000000" font-family="sans-serif" font-size="14" font-weight="bold" lengthAdjust="spacing" textLength="240" x="756" y="818.131">Spring ApplicationEventPublisher</text><line style="stroke:#999999;stroke-width:0.5;" x1="728" x2="998" y1="828.84" y2="828.84"/><line style="stroke:#999999;stroke-width:0.5;" x1="728" x2="998" y1="836.84" y2="836.84"/></g><!--reverse link DomainEvent to OrderCreatedEvent--><g id="link_DomainEvent_OrderCreatedEvent"><path codeLine="88" d="M135.61,151.34 C131.97,174.86 127.85,201.39 124.42,223.53 " fill="none" id="DomainEvent-backto-OrderCreatedEvent" style="stroke:#666666;stroke-width:1.0;stroke-dasharray:7.0,7.0;"/><polygon fill="none" points="128.64,150.58,138.62,131.89,142.48,152.73,128.64,150.58" style="stroke:#666666;stroke-width:1.0;"/></g><!--reverse link DomainEvent to OrderItemAddedEvent--><g id="link_DomainEvent_OrderItemAddedEvent"><path codeLine="89" d="M203.89,144.76 C228.08,166.95 256.1,192.65 280.56,215.08 " fill="none" id="DomainEvent-backto-OrderItemAddedEvent" style="stroke:#666666;stroke-width:1.0;stroke-dasharray:7.0,7.0;"/><polygon fill="none" points="199.35,150.1,189.35,131.42,208.82,139.78,199.35,150.1" style="stroke:#666666;stroke-width:1.0;"/></g><!--reverse link DomainEvent to OrderSubmittedEvent--><g id="link_DomainEvent_OrderSubmittedEvent"><path codeLine="90" d="M270.29,138.48 C327.13,160.82 394.92,188.42 455,215.47 C460.65,218.01 466.43,220.68 472.24,223.42 " fill="none" id="DomainEvent-backto-OrderSubmittedEvent" style="stroke:#666666;stroke-width:1.0;stroke-dasharray:7.0,7.0;"/><polygon fill="none" points="267.77,145.01,251.69,131.21,272.87,131.97,267.77,145.01" style="stroke:#666666;stroke-width:1.0;"/></g><!--link DomainEventBus to DomainEventPublisherAdapter--><g id="link_DomainEventBus_DomainEventPublisherAdapter"><path codeLine="92" d="M863,487.67 C863,518.95 863,562.88 863,597.39 " fill="none" id="DomainEventBus-to-DomainEventPublisherAdapter" style="stroke:#666666;stroke-width:1.0;"/><polygon fill="#666666" points="863,602.2,867,593.2,863,597.2,859,593.2,863,602.2" style="stroke:#666666;stroke-width:1.0;"/><text fill="#000000" font-family="sans-serif" font-size="13" lengthAdjust="spacing" textLength="29" x="864" y="532.9684">uses</text></g><!--link DomainEventPublisherService to DomainEventBus--><g id="link_DomainEventPublisherService_DomainEventBus"><path codeLine="93" d="M863,321.49 C863,345.92 863,375.47 863,399.64 " fill="none" id="DomainEventPublisherService-to-DomainEventBus" style="stroke:#666666;stroke-width:1.0;"/><polygon fill="#666666" points="863,404.47,867,395.47,863,399.47,859,395.47,863,404.47" style="stroke:#666666;stroke-width:1.0;"/><text fill="#000000" font-family="sans-serif" font-size="13" lengthAdjust="spacing" textLength="29" x="864" y="372.9884">uses</text></g><!--link AggregateLifecycleAware to DomainEventPublisherService--><g id="link_AggregateLifecycleAware_DomainEventPublisherService"><path codeLine="94" d="M679.08,130.62 C713.25,156.78 758.27,191.25 795.22,219.54 " fill="none" id="AggregateLifecycleAware-to-DomainEventPublisherService" style="stroke:#666666;stroke-width:1.0;"/><polygon fill="#666666" points="798.94,222.39,794.2437,213.7329,794.9763,219.3421,789.3671,220.0748,798.94,222.39" style="stroke:#666666;stroke-width:1.0;"/><text fill="#000000" font-family="sans-serif" font-size="13" lengthAdjust="spacing" textLength="67" x="746" y="182.0384">fallback to</text></g><!--link OrderEventHandler to EventSubscriber--><g id="link_OrderEventHandler_EventSubscriber"><path codeLine="96" d="M1094.13,138.93 C1154.46,169.81 1231.33,209.16 1285.58,236.93 " fill="none" id="OrderEventHandler-to-EventSubscriber" style="stroke:#666666;stroke-width:1.0;stroke-dasharray:7.0,7.0;"/><polygon fill="#666666" points="1289.74,239.06,1283.5669,231.3858,1285.2939,236.7726,1279.9071,238.4996,1289.74,239.06" style="stroke:#666666;stroke-width:1.0;"/><text fill="#000000" font-family="sans-serif" font-size="13" lengthAdjust="spacing" textLength="94" x="1177.5" y="182.0384">annotated with</text></g><!--link NotificationEventHandler to EventSubscriber--><g id="link_NotificationEventHandler_EventSubscriber"><path codeLine="97" d="M1492.72,130.39 C1461.62,161.79 1418.57,205.25 1388.5,235.6 " fill="none" id="NotificationEventHandler-to-EventSubscriber" style="stroke:#666666;stroke-width:1.0;stroke-dasharray:7.0,7.0;"/><polygon fill="#666666" points="1385.23,238.91,1394.4152,235.3559,1388.7584,235.3673,1388.747,229.7105,1385.23,238.91" style="stroke:#666666;stroke-width:1.0;"/><text fill="#000000" font-family="sans-serif" font-size="13" lengthAdjust="spacing" textLength="94" x="1454.22" y="182.0384">annotated with</text></g><!--link DomainEventSubscriptionManager to EventSubscriber--><g id="link_DomainEventSubscriptionManager_EventSubscriber"><path codeLine="99" d="M1353,587.09 C1353,507.84 1353,376.02 1353,311.45 " fill="none" id="DomainEventSubscriptionManager-to-EventSubscriber" style="stroke:#666666;stroke-width:1.0;stroke-dasharray:7.0,7.0;"/><polygon fill="#666666" points="1353,306.55,1349,315.55,1353,311.55,1357,315.55,1353,306.55" style="stroke:#666666;stroke-width:1.0;"/><text fill="#000000" font-family="sans-serif" font-size="13" lengthAdjust="spacing" textLength="63" x="1354" y="451.9784">processes</text></g><!--link DomainEventSubscriptionManager to Spring ApplicationEvent--><g id="link_DomainEventSubscriptionManager_Spring ApplicationEvent"><path codeLine="100" d="M1353,717.88 C1353,742.67 1353,769.82 1353,789.87 " fill="none" id="DomainEventSubscriptionManager-to-Spring ApplicationEvent" style="stroke:#666666;stroke-width:1.0;"/><polygon fill="#666666" points="1353,794.86,1357.0257,785.8715,1353.0143,789.86,1349.0257,785.8486,1353,794.86" style="stroke:#666666;stroke-width:1.0;"/><text fill="#000000" font-family="sans-serif" font-size="13" lengthAdjust="spacing" textLength="59" x="1354" y="763.4084">listens to</text></g><!--link DomainEventPublisherAdapter to Spring ApplicationEventPublisher--><g id="link_DomainEventPublisherAdapter_Spring ApplicationEventPublisher"><path codeLine="102" d="M863,701.7 C863,730.39 863,765.9 863,790.46 " fill="none" id="DomainEventPublisherAdapter-to-Spring ApplicationEventPublisher" style="stroke:#666666;stroke-width:1.0;"/><polygon fill="#666666" points="863,795.26,867,786.26,863,790.26,859,786.26,863,795.26" style="stroke:#666666;stroke-width:1.0;"/><text fill="#000000" font-family="sans-serif" font-size="13" lengthAdjust="spacing" textLength="29" x="864" y="763.4084">uses</text></g><!--SRC=[hLNRRjCm6BxFKrZbWawi5JSW4LL5NJT4fPsaJkBQTVwcPeaTRAUZWrtoHBlaUH2lmH_dK2TfiaqYLQN4t-V_VD2tN2HKqPYmY6ezCqRnLMfWmQHOydiWRprTftoImYpDBWAoab7GH4yekmsLJ4Kmbv5KvDNwNVPhqQGAG1MK3_PnA5GfULU0x-tZW0bge26q585zFA_0oU1KnfGBSavte0RaXqS85mRKcZ8WENQs1M4iGiYR48pzNWJ38vyiCGuYh90hnbAb8BWI6NWk6OrEgO4R7WDo7l1V4sy5VQOYY41DRgQbYeqz6TuGo70Kj9KysD-dGaX33PSY5x1CLvfXEa2L0hOqIY6pO9u5SVAHm7S38j2kFzEzG1jg5pj9TI5gP4suJbSHrnjGiu0cQBplafjWRaAIdmxj_Hg_vKzBVILn2MhBCKw5BJhpckLHGHFzXidFLuoqGbR1jlZpRRtAgj9DNZrp5fuhmCm7fL3th6sDSszX89u5GUDcTTfx5oiXvgQfjJhjS-bI6hxcp9PLjsSkg-7W0QZBLfUwn3oaUev0U5XMZT3dmImC5OIezvolWUrO1BCxgghYmUwiWAmrslJSH9eaqUw5fU3wM-gpasiHr4R4YANQoBXzRh2XercCOmgLdl3m51YFQNHGMRqKUjKbIWOfCytZRoaLXfkTdusYaebzzgJgUYNzPqyHvEZQF8Toonwy1sTIByHQKMqKkfHYOfs9tJr2Yg5qU9nX5M2stQgle1SDavRwBmhBo0hfcd75q4uopHTKe7-LZTg1SCXTq6HIpF7fiVswMdq5Pl0Tp4O6qsbXgzJcMaa6k9xNwF92SCDfnE-jTyCLK843eRYQVLtI6Cha79LGBakAPc26EibuPtaWcgWRZH6s5TV6LaknbnhAOsktNzX_x2mqlxdHQe95DXPsUr0FzVxTFnIQOzBVo5XThycVNuz_7tzxxgwV_1oFswtTGQatP0UftZgUrzYsez6qhtnzachGNj-ER4Ym-z5UwfgBNIeBWJvPqoXQOUyH8psllVB6usapMtwPIWZ87JSRhtEhFEUozqIx79IHv1rG3zQXsvdxWwKjwbOv3tmIPIKijFMzRwxqYQd8Wo8L_m00]--></g></svg>