<?xml version="1.0" encoding="us-ascii" standalone="no"?><svg xmlns="http://www.w3.org/2000/svg" xmlns:xlink="http://www.w3.org/1999/xlink" contentStyleType="text/css" height="952px" preserveAspectRatio="none" style="width:465px;height:952px;background:#FFFFFF;" version="1.1" viewBox="0 0 465 952" width="465px" zoomAndPan="magnify"><defs/><g><ellipse cx="226.25" cy="20" fill="#222222" rx="10" ry="10" style="stroke:#222222;stroke-width:1.0;"/><rect fill="#F5F5F5" height="34.1328" rx="12.5" ry="12.5" style="stroke:#999999;stroke-width:0.5;" width="140" x="156.25" y="50"/><text fill="#000000" font-family="sans-serif" font-size="12" lengthAdjust="spacing" textLength="120" x="166.25" y="71.6016">&#19994;&#21153;&#25805;&#20316;&#35302;&#21457;&#39046;&#22495;&#20107;&#20214;</text><rect fill="#F5F5F5" height="34.1328" rx="12.5" ry="12.5" style="stroke:#999999;stroke-width:0.5;" width="315" x="68.75" y="104.1328"/><text fill="#000000" font-family="sans-serif" font-size="12" lengthAdjust="spacing" textLength="295" x="78.75" y="125.7344">&#32858;&#21512;&#26681;&#36890;&#36807;AggregateLifecycleAware.apply()&#21457;&#24067;&#20107;&#20214;</text><polygon fill="#E6F2FF" points="161.75,158.2656,290.75,158.2656,302.75,170.2656,290.75,182.2656,161.75,182.2656,149.75,170.2656,161.75,158.2656" style="stroke:#3C7FC0;stroke-width:0.5;"/><text fill="#000000" font-family="sans-serif" font-size="11" lengthAdjust="spacing" textLength="129" x="161.75" y="174.4229">AggregateLifecycle&#21487;&#29992;?</text><text fill="#000000" font-family="sans-serif" font-size="11" lengthAdjust="spacing" textLength="18" x="131.75" y="167.9453">yes</text><text fill="#000000" font-family="sans-serif" font-size="11" lengthAdjust="spacing" textLength="14" x="302.75" y="167.9453">no</text><rect fill="#F5F5F5" height="34.1328" rx="12.5" ry="12.5" style="stroke:#999999;stroke-width:0.5;" width="199" x="11" y="192.2656"/><text fill="#000000" font-family="sans-serif" font-size="12" lengthAdjust="spacing" textLength="179" x="21" y="213.8672">&#36890;&#36807;AggregateLifecycle&#21457;&#24067;&#20107;&#20214;</text><rect fill="#F5F5F5" height="34.1328" rx="12.5" ry="12.5" style="stroke:#999999;stroke-width:0.5;" width="224" x="230" y="192.2656"/><text fill="#000000" font-family="sans-serif" font-size="12" lengthAdjust="spacing" textLength="204" x="240" y="213.8672">&#38477;&#32423;&#21040;DomainEventPublisherService</text><polygon fill="#E6F2FF" points="226.25,232.3984,238.25,244.3984,226.25,256.3984,214.25,244.3984,226.25,232.3984" style="stroke:#3C7FC0;stroke-width:0.5;"/><rect fill="#F5F5F5" height="34.1328" rx="12.5" ry="12.5" style="stroke:#999999;stroke-width:0.5;" width="163" x="144.75" y="276.3984"/><text fill="#000000" font-family="sans-serif" font-size="12" lengthAdjust="spacing" textLength="143" x="154.75" y="298">DomainEventBus&#25509;&#25910;&#20107;&#20214;</text><rect fill="#F5F5F5" height="48.2656" rx="12.5" ry="12.5" style="stroke:#999999;stroke-width:0.5;" width="255" x="98.75" y="330.5313"/><text fill="#000000" font-family="sans-serif" font-size="12" lengthAdjust="spacing" textLength="235" x="108.75" y="352.1328">DomainEventPublisherAdapter&#23558;&#39046;&#22495;&#20107;&#20214;</text><text fill="#000000" font-family="sans-serif" font-size="12" lengthAdjust="spacing" textLength="171" x="108.75" y="366.2656">&#21253;&#35013;&#20026;Spring ApplicationEvent</text><rect fill="#F5F5F5" height="34.1328" rx="12.5" ry="12.5" style="stroke:#999999;stroke-width:0.5;" width="280" x="86.25" y="398.7969"/><text fill="#000000" font-family="sans-serif" font-size="12" lengthAdjust="spacing" textLength="260" x="96.25" y="420.3984">&#36890;&#36807;Spring ApplicationEventPublisher&#21457;&#24067;&#20107;&#20214;</text><rect fill="#F5F5F5" height="48.2656" rx="12.5" ry="12.5" style="stroke:#999999;stroke-width:0.5;" width="215" x="118.75" y="452.9297"/><text fill="#000000" font-family="sans-serif" font-size="12" lengthAdjust="spacing" textLength="195" x="128.75" y="474.5313">DomainEventSubscriptionManager</text><text fill="#000000" font-family="sans-serif" font-size="12" lengthAdjust="spacing" textLength="159" x="128.75" y="488.6641">&#25509;&#25910;Spring ApplicationEvent</text><rect fill="#F5F5F5" height="34.1328" rx="12.5" ry="12.5" style="stroke:#999999;stroke-width:0.5;" width="143" x="154.75" y="521.1953"/><text fill="#000000" font-family="sans-serif" font-size="12" lengthAdjust="spacing" textLength="123" x="164.75" y="542.7969">&#25552;&#21462;&#21407;&#22987;DomainEvent</text><rect fill="#F5F5F5" height="34.1328" rx="12.5" ry="12.5" style="stroke:#999999;stroke-width:0.5;" width="140" x="156.25" y="575.3281"/><text fill="#000000" font-family="sans-serif" font-size="12" lengthAdjust="spacing" textLength="120" x="166.25" y="596.9297">&#26597;&#25214;&#21305;&#37197;&#30340;&#20107;&#20214;&#35746;&#38405;&#32773;</text><polygon fill="#E6F2FF" points="196.25,629.4609,256.25,629.4609,268.25,641.4609,256.25,653.4609,196.25,653.4609,184.25,641.4609,196.25,629.4609" style="stroke:#3C7FC0;stroke-width:0.5;"/><text fill="#000000" font-family="sans-serif" font-size="11" lengthAdjust="spacing" textLength="60" x="196.25" y="645.6182">&#25214;&#21040;&#35746;&#38405;&#32773;?</text><text fill="#000000" font-family="sans-serif" font-size="11" lengthAdjust="spacing" textLength="18" x="166.25" y="639.1406">yes</text><text fill="#000000" font-family="sans-serif" font-size="11" lengthAdjust="spacing" textLength="14" x="268.25" y="639.1406">no</text><rect fill="#F5F5F5" height="34.1328" rx="12.5" ry="12.5" style="stroke:#999999;stroke-width:0.5;" width="188" x="29.75" y="663.4609"/><text fill="#000000" font-family="sans-serif" font-size="12" lengthAdjust="spacing" textLength="168" x="39.75" y="685.0625">&#36890;&#36807;&#21453;&#23556;&#35843;&#29992;&#35746;&#38405;&#32773;&#30340;&#22788;&#29702;&#26041;&#27861;</text><polygon fill="#E6F2FF" points="99.25,717.5938,148.25,717.5938,160.25,729.5938,148.25,741.5938,99.25,741.5938,87.25,729.5938,99.25,717.5938" style="stroke:#3C7FC0;stroke-width:0.5;"/><text fill="#000000" font-family="sans-serif" font-size="11" lengthAdjust="spacing" textLength="49" x="99.25" y="733.751">&#22788;&#29702;&#25104;&#21151;?</text><text fill="#000000" font-family="sans-serif" font-size="11" lengthAdjust="spacing" textLength="18" x="69.25" y="727.2734">yes</text><text fill="#000000" font-family="sans-serif" font-size="11" lengthAdjust="spacing" textLength="14" x="160.25" y="727.2734">no</text><rect fill="#F5F5F5" height="34.1328" rx="12.5" ry="12.5" style="stroke:#999999;stroke-width:0.5;" width="92" x="12.75" y="751.5938"/><text fill="#000000" font-family="sans-serif" font-size="12" lengthAdjust="spacing" textLength="72" x="22.75" y="773.1953">&#20107;&#20214;&#22788;&#29702;&#23436;&#25104;</text><rect fill="#F5F5F5" height="34.1328" rx="12.5" ry="12.5" style="stroke:#999999;stroke-width:0.5;" width="92" x="142.75" y="751.5938"/><text fill="#000000" font-family="sans-serif" font-size="12" lengthAdjust="spacing" textLength="72" x="152.75" y="773.1953">&#35760;&#24405;&#38169;&#35823;&#26085;&#24535;</text><rect fill="#F5F5F5" height="34.1328" rx="12.5" ry="12.5" style="stroke:#999999;stroke-width:0.5;" width="128" x="124.75" y="805.7266"/><text fill="#000000" font-family="sans-serif" font-size="12" lengthAdjust="spacing" textLength="108" x="134.75" y="827.3281">&#32487;&#32493;&#22788;&#29702;&#20854;&#20182;&#35746;&#38405;&#32773;</text><polygon fill="#E6F2FF" points="123.75,845.8594,135.75,857.8594,123.75,869.8594,111.75,857.8594,123.75,845.8594" style="stroke:#3C7FC0;stroke-width:0.5;"/><rect fill="#F5F5F5" height="34.1328" rx="12.5" ry="12.5" style="stroke:#999999;stroke-width:0.5;" width="92" x="282.75" y="663.4609"/><text fill="#000000" font-family="sans-serif" font-size="12" lengthAdjust="spacing" textLength="72" x="292.75" y="685.0625">&#20107;&#20214;&#26410;&#34987;&#22788;&#29702;</text><polygon fill="#E6F2FF" points="226.25,875.8594,238.25,887.8594,226.25,899.8594,214.25,887.8594,226.25,875.8594" style="stroke:#3C7FC0;stroke-width:0.5;"/><ellipse cx="226.25" cy="930.8594" fill="none" rx="11" ry="11" style="stroke:#222222;stroke-width:1.0;"/><ellipse cx="226.25" cy="930.8594" fill="#222222" rx="6" ry="6" style="stroke:#111111;stroke-width:1.0;"/><line style="stroke:#666666;stroke-width:1.0;" x1="226.25" x2="226.25" y1="30" y2="50"/><polygon fill="#666666" points="222.25,40,226.25,50,230.25,40,226.25,44" style="stroke:#666666;stroke-width:1.0;"/><line style="stroke:#666666;stroke-width:1.0;" x1="226.25" x2="226.25" y1="84.1328" y2="104.1328"/><polygon fill="#666666" points="222.25,94.1328,226.25,104.1328,230.25,94.1328,226.25,98.1328" style="stroke:#666666;stroke-width:1.0;"/><line style="stroke:#666666;stroke-width:1.0;" x1="149.75" x2="110.5" y1="170.2656" y2="170.2656"/><line style="stroke:#666666;stroke-width:1.0;" x1="110.5" x2="110.5" y1="170.2656" y2="192.2656"/><polygon fill="#666666" points="106.5,182.2656,110.5,192.2656,114.5,182.2656,110.5,186.2656" style="stroke:#666666;stroke-width:1.0;"/><line style="stroke:#666666;stroke-width:1.0;" x1="302.75" x2="342" y1="170.2656" y2="170.2656"/><line style="stroke:#666666;stroke-width:1.0;" x1="342" x2="342" y1="170.2656" y2="192.2656"/><polygon fill="#666666" points="338,182.2656,342,192.2656,346,182.2656,342,186.2656" style="stroke:#666666;stroke-width:1.0;"/><line style="stroke:#666666;stroke-width:1.0;" x1="110.5" x2="110.5" y1="226.3984" y2="244.3984"/><line style="stroke:#666666;stroke-width:1.0;" x1="110.5" x2="214.25" y1="244.3984" y2="244.3984"/><polygon fill="#666666" points="204.25,240.3984,214.25,244.3984,204.25,248.3984,208.25,244.3984" style="stroke:#666666;stroke-width:1.0;"/><line style="stroke:#666666;stroke-width:1.0;" x1="342" x2="342" y1="226.3984" y2="244.3984"/><line style="stroke:#666666;stroke-width:1.0;" x1="342" x2="238.25" y1="244.3984" y2="244.3984"/><polygon fill="#666666" points="248.25,240.3984,238.25,244.3984,248.25,248.3984,244.25,244.3984" style="stroke:#666666;stroke-width:1.0;"/><line style="stroke:#666666;stroke-width:1.0;" x1="226.25" x2="226.25" y1="138.2656" y2="158.2656"/><polygon fill="#666666" points="222.25,148.2656,226.25,158.2656,230.25,148.2656,226.25,152.2656" style="stroke:#666666;stroke-width:1.0;"/><line style="stroke:#666666;stroke-width:1.0;" x1="226.25" x2="226.25" y1="256.3984" y2="276.3984"/><polygon fill="#666666" points="222.25,266.3984,226.25,276.3984,230.25,266.3984,226.25,270.3984" style="stroke:#666666;stroke-width:1.0;"/><line style="stroke:#666666;stroke-width:1.0;" x1="226.25" x2="226.25" y1="310.5313" y2="330.5313"/><polygon fill="#666666" points="222.25,320.5313,226.25,330.5313,230.25,320.5313,226.25,324.5313" style="stroke:#666666;stroke-width:1.0;"/><line style="stroke:#666666;stroke-width:1.0;" x1="226.25" x2="226.25" y1="378.7969" y2="398.7969"/><polygon fill="#666666" points="222.25,388.7969,226.25,398.7969,230.25,388.7969,226.25,392.7969" style="stroke:#666666;stroke-width:1.0;"/><line style="stroke:#666666;stroke-width:1.0;" x1="226.25" x2="226.25" y1="432.9297" y2="452.9297"/><polygon fill="#666666" points="222.25,442.9297,226.25,452.9297,230.25,442.9297,226.25,446.9297" style="stroke:#666666;stroke-width:1.0;"/><line style="stroke:#666666;stroke-width:1.0;" x1="226.25" x2="226.25" y1="501.1953" y2="521.1953"/><polygon fill="#666666" points="222.25,511.1953,226.25,521.1953,230.25,511.1953,226.25,515.1953" style="stroke:#666666;stroke-width:1.0;"/><line style="stroke:#666666;stroke-width:1.0;" x1="226.25" x2="226.25" y1="555.3281" y2="575.3281"/><polygon fill="#666666" points="222.25,565.3281,226.25,575.3281,230.25,565.3281,226.25,569.3281" style="stroke:#666666;stroke-width:1.0;"/><line style="stroke:#666666;stroke-width:1.0;" x1="188.75" x2="188.75" y1="785.7266" y2="805.7266"/><polygon fill="#666666" points="184.75,795.7266,188.75,805.7266,192.75,795.7266,188.75,799.7266" style="stroke:#666666;stroke-width:1.0;"/><line style="stroke:#666666;stroke-width:1.0;" x1="87.25" x2="58.75" y1="729.5938" y2="729.5938"/><line style="stroke:#666666;stroke-width:1.0;" x1="58.75" x2="58.75" y1="729.5938" y2="751.5938"/><polygon fill="#666666" points="54.75,741.5938,58.75,751.5938,62.75,741.5938,58.75,745.5938" style="stroke:#666666;stroke-width:1.0;"/><line style="stroke:#666666;stroke-width:1.0;" x1="160.25" x2="188.75" y1="729.5938" y2="729.5938"/><line style="stroke:#666666;stroke-width:1.0;" x1="188.75" x2="188.75" y1="729.5938" y2="751.5938"/><polygon fill="#666666" points="184.75,741.5938,188.75,751.5938,192.75,741.5938,188.75,745.5938" style="stroke:#666666;stroke-width:1.0;"/><line style="stroke:#666666;stroke-width:1.0;" x1="58.75" x2="58.75" y1="785.7266" y2="857.8594"/><line style="stroke:#666666;stroke-width:1.0;" x1="58.75" x2="111.75" y1="857.8594" y2="857.8594"/><polygon fill="#666666" points="101.75,853.8594,111.75,857.8594,101.75,861.8594,105.75,857.8594" style="stroke:#666666;stroke-width:1.0;"/><line style="stroke:#666666;stroke-width:1.0;" x1="188.75" x2="188.75" y1="839.8594" y2="857.8594"/><line style="stroke:#666666;stroke-width:1.0;" x1="188.75" x2="135.75" y1="857.8594" y2="857.8594"/><polygon fill="#666666" points="145.75,853.8594,135.75,857.8594,145.75,861.8594,141.75,857.8594" style="stroke:#666666;stroke-width:1.0;"/><line style="stroke:#666666;stroke-width:1.0;" x1="123.75" x2="123.75" y1="697.5938" y2="717.5938"/><polygon fill="#666666" points="119.75,707.5938,123.75,717.5938,127.75,707.5938,123.75,711.5938" style="stroke:#666666;stroke-width:1.0;"/><line style="stroke:#666666;stroke-width:1.0;" x1="184.25" x2="123.75" y1="641.4609" y2="641.4609"/><line style="stroke:#666666;stroke-width:1.0;" x1="123.75" x2="123.75" y1="641.4609" y2="663.4609"/><polygon fill="#666666" points="119.75,653.4609,123.75,663.4609,127.75,653.4609,123.75,657.4609" style="stroke:#666666;stroke-width:1.0;"/><line style="stroke:#666666;stroke-width:1.0;" x1="268.25" x2="328.75" y1="641.4609" y2="641.4609"/><line style="stroke:#666666;stroke-width:1.0;" x1="328.75" x2="328.75" y1="641.4609" y2="663.4609"/><polygon fill="#666666" points="324.75,653.4609,328.75,663.4609,332.75,653.4609,328.75,657.4609" style="stroke:#666666;stroke-width:1.0;"/><line style="stroke:#666666;stroke-width:1.0;" x1="123.75" x2="123.75" y1="869.8594" y2="887.8594"/><line style="stroke:#666666;stroke-width:1.0;" x1="123.75" x2="214.25" y1="887.8594" y2="887.8594"/><polygon fill="#666666" points="204.25,883.8594,214.25,887.8594,204.25,891.8594,208.25,887.8594" style="stroke:#666666;stroke-width:1.0;"/><line style="stroke:#666666;stroke-width:1.0;" x1="328.75" x2="328.75" y1="697.5938" y2="887.8594"/><line style="stroke:#666666;stroke-width:1.0;" x1="328.75" x2="238.25" y1="887.8594" y2="887.8594"/><polygon fill="#666666" points="248.25,883.8594,238.25,887.8594,248.25,891.8594,244.25,887.8594" style="stroke:#666666;stroke-width:1.0;"/><line style="stroke:#666666;stroke-width:1.0;" x1="226.25" x2="226.25" y1="609.4609" y2="629.4609"/><polygon fill="#666666" points="222.25,619.4609,226.25,629.4609,230.25,619.4609,226.25,623.4609" style="stroke:#666666;stroke-width:1.0;"/><line style="stroke:#666666;stroke-width:1.0;" x1="226.25" x2="226.25" y1="899.8594" y2="919.8594"/><polygon fill="#666666" points="222.25,909.8594,226.25,919.8594,230.25,909.8594,226.25,913.8594" style="stroke:#666666;stroke-width:1.0;"/><!--SRC=[VPBBRjD058RtVWfBR98DGY2AI1OefUn0GieJJEsnEwfZMsCdLNP5ZKDeapeLQKgZIcu38GX4OWafoaMbB-FnvIqOnvPncwRZdUVxlpDdpcYxI5O11YKMS3gg8Bsw2RXT4IjbcN-jI0fc7mdFmu_HLaa5yn37rClbkeVQGg2aoFoA5cu8JmNXWK3Q_enx8N1FqZ36obwykR5S3AFf0EjCpfdsoE6L-xdbN5_um-_4F0dwTM9Pplp8MKpo39FpF_H8k-5UpeBzdd_piI2A68f0Xs-H0Bag9y727i3mCL1LgPh9KW6P7YHf9B2PrGGnnrxdnwiig-z0cSrKePPbM3Qthi1j9vGqo6Pa9OgSjxpva3JiBQK4aFoc0cNzVNbRGjeEn4M8AuY3D2BpIA2jfA3DikOU3zpEv7-ZzoaAF51rY8bTJryBGvg6_zLmflEYYf4iiWNQFEA0ZfGe7-gYRjO0IO4xzvK-HB6yhN4OgM7e7P21234JdVc1ggxP9cQN75jaU9HoBRUiWVlfBsdE0gFbzMfHJN_K3xuO_huH3oia6dRoTysCYDaYTist3-WO4vOwoRUQrwwxtPdxvpHFyT0O_skqoQ5rLqU5qJ4YY8oQb0k3wI5Jo1_PvFeqw9pxux5xDY0tP_bemriClSNlE6rCd4KtrH3LB0T_wyL4zToBdtx_LvHBteUcAohp3m00]--></g></svg>