<?xml version="1.0" encoding="us-ascii" standalone="no"?><svg xmlns="http://www.w3.org/2000/svg" xmlns:xlink="http://www.w3.org/1999/xlink" contentStyleType="text/css" height="775px" preserveAspectRatio="none" style="width:1037px;height:775px;background:#FFFFFF;" version="1.1" viewBox="0 0 1037 775" width="1037px" zoomAndPan="magnify"><defs/><g><!--cluster Domain Layer--><g id="cluster_Domain Layer"><path d="M444.5,6 L544.5,6 A3.75,3.75 0 0 1 547,8.5 L554,28.4883 L824.5,28.4883 A2.5,2.5 0 0 1 827,30.9883 L827,482.96 A2.5,2.5 0 0 1 824.5,485.46 L444.5,485.46 A2.5,2.5 0 0 1 442,482.96 L442,8.5 A2.5,2.5 0 0 1 444.5,6 " fill="none" style="stroke:#000000;stroke-width:1.5;"/><line style="stroke:#000000;stroke-width:1.5;" x1="442" x2="554" y1="28.4883" y2="28.4883"/><text fill="#000000" font-family="sans-serif" font-size="14" font-weight="bold" lengthAdjust="spacing" textLength="99" x="446" y="21.5352">Domain Layer</text></g><!--cluster Infrastructure Layer--><g id="cluster_Infrastructure Layer"><path d="M441.5,534.46 L584.5,534.46 A3.75,3.75 0 0 1 587,536.96 L594,556.9483 L1027.5,556.9483 A2.5,2.5 0 0 1 1030,559.4483 L1030,629.45 A2.5,2.5 0 0 1 1027.5,631.95 L441.5,631.95 A2.5,2.5 0 0 1 439,629.45 L439,536.96 A2.5,2.5 0 0 1 441.5,534.46 " fill="none" style="stroke:#000000;stroke-width:1.5;"/><line style="stroke:#000000;stroke-width:1.5;" x1="439" x2="594" y1="556.9483" y2="556.9483"/><text fill="#000000" font-family="sans-serif" font-size="14" font-weight="bold" lengthAdjust="spacing" textLength="142" x="443" y="549.9952">Infrastructure Layer</text></g><!--cluster Spring Framework--><g id="cluster_Spring Framework"><path d="M8.5,534.46 L140.5,534.46 A3.75,3.75 0 0 1 143,536.96 L150,556.9483 L412.5,556.9483 A2.5,2.5 0 0 1 415,559.4483 L415,766.45 A2.5,2.5 0 0 1 412.5,768.95 L8.5,768.95 A2.5,2.5 0 0 1 6,766.45 L6,536.96 A2.5,2.5 0 0 1 8.5,534.46 " fill="none" style="stroke:#000000;stroke-width:1.5;"/><line style="stroke:#000000;stroke-width:1.5;" x1="6" x2="150" y1="556.9483" y2="556.9483"/><text fill="#000000" font-family="sans-serif" font-size="14" font-weight="bold" lengthAdjust="spacing" textLength="131" x="10" y="549.9952">Spring Framework</text></g><!--entity DE--><g id="elem_DE"><ellipse cx="758" cy="193.49" fill="#E6F2FF" rx="8" ry="8" style="stroke:#3C7FC0;stroke-width:0.5;"/><text fill="#000000" font-family="sans-serif" font-size="14" lengthAdjust="spacing" textLength="90" x="713" y="224.0252">DomainEvent</text></g><!--entity AR--><g id="elem_AR"><rect fill="#F5F5F5" height="46.4883" rx="2.5" ry="2.5" style="stroke:#999999;stroke-width:0.5;" width="144" x="499" y="41"/><rect fill="#F5F5F5" height="10" style="stroke:#999999;stroke-width:0.5;" width="15" x="623" y="46"/><rect fill="#F5F5F5" height="2" style="stroke:#999999;stroke-width:0.5;" width="4" x="621" y="48"/><rect fill="#F5F5F5" height="2" style="stroke:#999999;stroke-width:0.5;" width="4" x="621" y="52"/><text fill="#000000" font-family="sans-serif" font-size="14" lengthAdjust="spacing" textLength="104" x="514" y="74.5352">AggregateRoot</text></g><!--entity DEB--><g id="elem_DEB"><rect fill="#F5F5F5" height="46.4883" rx="2.5" ry="2.5" style="stroke:#999999;stroke-width:0.5;" width="154" x="502" y="422.97"/><rect fill="#F5F5F5" height="10" style="stroke:#999999;stroke-width:0.5;" width="15" x="636" y="427.97"/><rect fill="#F5F5F5" height="2" style="stroke:#999999;stroke-width:0.5;" width="4" x="634" y="429.97"/><rect fill="#F5F5F5" height="2" style="stroke:#999999;stroke-width:0.5;" width="4" x="634" y="433.97"/><text fill="#000000" font-family="sans-serif" font-size="14" lengthAdjust="spacing" textLength="114" x="517" y="456.5052">DomainEventBus</text></g><!--entity DEPS--><g id="elem_DEPS"><rect fill="#F5F5F5" height="46.4883" rx="2.5" ry="2.5" style="stroke:#999999;stroke-width:0.5;" width="242" x="458" y="299.49"/><rect fill="#F5F5F5" height="10" style="stroke:#999999;stroke-width:0.5;" width="15" x="680" y="304.49"/><rect fill="#F5F5F5" height="2" style="stroke:#999999;stroke-width:0.5;" width="4" x="678" y="306.49"/><rect fill="#F5F5F5" height="2" style="stroke:#999999;stroke-width:0.5;" width="4" x="678" y="310.49"/><text fill="#000000" font-family="sans-serif" font-size="14" lengthAdjust="spacing" textLength="202" x="473" y="333.0252">DomainEventPublisherService</text></g><!--entity EH--><g id="elem_EH"><rect fill="#F5F5F5" height="46.4883" rx="2.5" ry="2.5" style="stroke:#999999;stroke-width:0.5;" width="131" x="680.5" y="41"/><rect fill="#F5F5F5" height="10" style="stroke:#999999;stroke-width:0.5;" width="15" x="791.5" y="46"/><rect fill="#F5F5F5" height="2" style="stroke:#999999;stroke-width:0.5;" width="4" x="789.5" y="48"/><rect fill="#F5F5F5" height="2" style="stroke:#999999;stroke-width:0.5;" width="4" x="789.5" y="52"/><text fill="#000000" font-family="sans-serif" font-size="14" lengthAdjust="spacing" textLength="91" x="695.5" y="74.5352">EventHandler</text></g><!--entity ALA--><g id="elem_ALA"><rect fill="#F5F5F5" height="46.4883" rx="2.5" ry="2.5" style="stroke:#999999;stroke-width:0.5;" width="212" x="458" y="170.24"/><rect fill="#F5F5F5" height="10" style="stroke:#999999;stroke-width:0.5;" width="15" x="650" y="175.24"/><rect fill="#F5F5F5" height="2" style="stroke:#999999;stroke-width:0.5;" width="4" x="648" y="177.24"/><rect fill="#F5F5F5" height="2" style="stroke:#999999;stroke-width:0.5;" width="4" x="648" y="181.24"/><text fill="#000000" font-family="sans-serif" font-size="14" lengthAdjust="spacing" textLength="172" x="473" y="203.7752">AggregateLifecycleAware</text></g><!--entity DEPA--><g id="elem_DEPA"><rect fill="#F5F5F5" height="46.4883" rx="2.5" ry="2.5" style="stroke:#999999;stroke-width:0.5;" width="249" x="454.5" y="569.46"/><rect fill="#F5F5F5" height="10" style="stroke:#999999;stroke-width:0.5;" width="15" x="683.5" y="574.46"/><rect fill="#F5F5F5" height="2" style="stroke:#999999;stroke-width:0.5;" width="4" x="681.5" y="576.46"/><rect fill="#F5F5F5" height="2" style="stroke:#999999;stroke-width:0.5;" width="4" x="681.5" y="580.46"/><text fill="#000000" font-family="sans-serif" font-size="14" lengthAdjust="spacing" textLength="209" x="469.5" y="602.9952">DomainEventPublisherAdapter</text></g><!--entity DESM--><g id="elem_DESM"><rect fill="#F5F5F5" height="46.4883" rx="2.5" ry="2.5" style="stroke:#999999;stroke-width:0.5;" width="276" x="738" y="569.46"/><rect fill="#F5F5F5" height="10" style="stroke:#999999;stroke-width:0.5;" width="15" x="994" y="574.46"/><rect fill="#F5F5F5" height="2" style="stroke:#999999;stroke-width:0.5;" width="4" x="992" y="576.46"/><rect fill="#F5F5F5" height="2" style="stroke:#999999;stroke-width:0.5;" width="4" x="992" y="580.46"/><text fill="#000000" font-family="sans-serif" font-size="14" lengthAdjust="spacing" textLength="236" x="753" y="602.9952">DomainEventSubscriptionManager</text></g><!--entity AEP--><g id="elem_AEP"><ellipse cx="119" cy="723.95" fill="#E6F2FF" rx="8" ry="8" style="stroke:#3C7FC0;stroke-width:0.5;"/><text fill="#000000" font-family="sans-serif" font-size="14" lengthAdjust="spacing" textLength="179" x="29.5" y="754.4852">ApplicationEventPublisher</text></g><!--entity AL--><g id="elem_AL"><ellipse cx="325" cy="723.95" fill="#E6F2FF" rx="8" ry="8" style="stroke:#3C7FC0;stroke-width:0.5;"/><text fill="#000000" font-family="sans-serif" font-size="14" lengthAdjust="spacing" textLength="132" x="259" y="754.4852">ApplicationListener</text></g><!--entity AC--><g id="elem_AC"><rect fill="#F5F5F5" height="46.4883" rx="2.5" ry="2.5" style="stroke:#999999;stroke-width:0.5;" width="173" x="134.5" y="569.46"/><rect fill="#F5F5F5" height="10" style="stroke:#999999;stroke-width:0.5;" width="15" x="287.5" y="574.46"/><rect fill="#F5F5F5" height="2" style="stroke:#999999;stroke-width:0.5;" width="4" x="285.5" y="576.46"/><rect fill="#F5F5F5" height="2" style="stroke:#999999;stroke-width:0.5;" width="4" x="285.5" y="580.46"/><text fill="#000000" font-family="sans-serif" font-size="14" lengthAdjust="spacing" textLength="133" x="149.5" y="602.9952">ApplicationContext</text></g><!--link AR to DE--><g id="link_AR_DE"><path d="M604,87.7 C645.29,115.79 714.15,162.65 743.76,182.79 " fill="none" id="AR-to-DE" style="stroke:#666666;stroke-width:1.0;stroke-dasharray:7.0,7.0;"/><polygon fill="#666666" points="747.88,185.6,742.683,177.234,743.744,182.7904,738.1876,183.8515,747.88,185.6" style="stroke:#666666;stroke-width:1.0;"/><text fill="#000000" font-family="sans-serif" font-size="13" lengthAdjust="spacing" textLength="45" x="671.11" y="131.0584">creates</text></g><!--link AR to ALA--><g id="link_AR_ALA"><path d="M569.76,87.7 C568.6,108.83 566.86,140.57 565.59,163.58 " fill="none" id="AR-to-ALA" style="stroke:#666666;stroke-width:1.0;"/><polygon fill="#666666" points="565.33,168.31,569.8133,159.5408,565.6018,163.3174,561.8252,159.1059,565.33,168.31" style="stroke:#666666;stroke-width:1.0;"/><text fill="#000000" font-family="sans-serif" font-size="13" lengthAdjust="spacing" textLength="29" x="568.92" y="131.0584">uses</text></g><!--link ALA to DEPS--><g id="link_ALA_DEPS"><path d="M566.65,216.94 C569.14,238.07 572.88,269.82 575.59,292.83 " fill="none" id="ALA-to-DEPS" style="stroke:#666666;stroke-width:1.0;"/><polygon fill="#666666" points="576.15,297.57,579.0663,288.1628,575.5633,292.6045,571.1216,289.1015,576.15,297.57" style="stroke:#666666;stroke-width:1.0;"/><text fill="#000000" font-family="sans-serif" font-size="13" lengthAdjust="spacing" textLength="29" x="573.4" y="266.0584">uses</text></g><!--link DEPS to DEB--><g id="link_DEPS_DEB"><path d="M579,346.3 C579,366.07 579,394.92 579,416.37 " fill="none" id="DEPS-to-DEB" style="stroke:#666666;stroke-width:1.0;"/><polygon fill="#666666" points="579,421.26,583,412.26,579,416.26,575,412.26,579,421.26" style="stroke:#666666;stroke-width:1.0;"/><text fill="#000000" font-family="sans-serif" font-size="13" lengthAdjust="spacing" textLength="29" x="580" y="389.5384">uses</text></g><!--link EH to DE--><g id="link_EH_DE"><path d="M748.12,87.7 C750.58,113.83 754.58,156.22 756.65,178.22 " fill="none" id="EH-to-DE" style="stroke:#666666;stroke-width:1.0;stroke-dasharray:7.0,7.0;"/><polygon fill="#666666" points="757.11,183.09,760.2715,173.7624,756.6535,178.1109,752.3049,174.4928,757.11,183.09" style="stroke:#666666;stroke-width:1.0;"/><text fill="#000000" font-family="sans-serif" font-size="13" lengthAdjust="spacing" textLength="49" x="753.36" y="131.0584">handles</text></g><!--link DEB to DEPA--><g id="link_DEB_DEPA"><path d="M579,469.79 C579,494.92 579,535.59 579,562.97 " fill="none" id="DEB-to-DEPA" style="stroke:#666666;stroke-width:1.0;"/><polygon fill="#666666" points="579,567.77,583,558.77,579,562.77,575,558.77,579,567.77" style="stroke:#666666;stroke-width:1.0;"/><text fill="#000000" font-family="sans-serif" font-size="13" lengthAdjust="spacing" textLength="29" x="580" y="515.0284">uses</text></g><!--link DEPA to AEP--><g id="link_DEPA_AEP"><path d="M502.42,616.39 C454.16,630.58 390.52,649.11 334,664.95 C258.97,685.98 168.8,709.85 133.85,719.05 " fill="none" id="DEPA-to-AEP" style="stroke:#666666;stroke-width:1.0;"/><polygon fill="#666666" points="129.08,720.3,138.8007,721.8835,133.9161,719.0303,136.7693,714.1457,129.08,720.3" style="stroke:#666666;stroke-width:1.0;"/><text fill="#000000" font-family="sans-serif" font-size="13" lengthAdjust="spacing" textLength="29" x="388.79" y="661.5184">uses</text></g><!--link DESM to AL--><g id="link_DESM_AL"><path d="M804.58,616.37 C778.42,624.31 748.49,632.98 721,639.95 C585.45,674.31 421.25,705.42 354.93,717.56 " fill="none" id="DESM-to-AL" style="stroke:#666666;stroke-width:1.0;stroke-dasharray:7.0,7.0;"/><polygon fill="none" points="356.4,724.41,335.47,721.08,353.91,710.63,356.4,724.41" style="stroke:#666666;stroke-width:1.0;"/><text fill="#000000" font-family="sans-serif" font-size="13" lengthAdjust="spacing" textLength="74" x="679.39" y="661.5184">implements</text></g><!--link AC to AEP--><g id="link_AC_AEP"><path d="M203.23,616.22 C181.76,643.42 146.38,688.26 129.11,710.14 " fill="none" id="AC-to-AEP" style="stroke:#666666;stroke-width:1.0;"/><polygon fill="#666666" points="126.07,713.99,134.7852,709.4026,129.1673,710.0649,128.505,704.4469,126.07,713.99" style="stroke:#666666;stroke-width:1.0;"/><text fill="#000000" font-family="sans-serif" font-size="13" lengthAdjust="spacing" textLength="54" x="177.11" y="661.5184">provides</text></g><!--link AC to AL--><g id="link_AC_AL"><path d="M239.12,616.22 C261,643.42 297.08,688.26 314.69,710.14 " fill="none" id="AC-to-AL" style="stroke:#666666;stroke-width:1.0;"/><polygon fill="#666666" points="317.8,714,315.2885,704.4768,314.6713,710.0998,309.0482,709.4827,317.8,714" style="stroke:#666666;stroke-width:1.0;"/><text fill="#000000" font-family="sans-serif" font-size="13" lengthAdjust="spacing" textLength="48" x="277.12" y="661.5184">notifies</text></g><!--SRC=[XPB1JiCm38RlVOfed44810WEIDae6b8dJUiJXDGfqTeaSjAD2NXtdBQZ7MEYxQ7v_VcFOyUljN42HSsahPqrO48UTXMmfgwk4dySdGgvBj4sffZPoY8xKpVn_HErM03ss7txZ31j0g0I4euSuLPTAVKdEdQybdTANeumWMYtVV2sVPB4aRaeWKsUR2sqOPdO0KxOHy86rtqmtL3H4oOyUqef_dCEDk5bYL2A02jhEuAl3ecHmxJnlSdq9BDiNYljtm1pm8sMq2SiyyECbfqBKrInQ4BI-Od2Cgr0xcG5V2kmi-CP9vW-lc8N5uzapnwOH23QT-hv-MEaI6vyfz4YYh6IGMrNdJmTr7G-kBwr9VhaQzJm5wDG-82D30t2kF7_j8GNmeN-lBGrFvcHDwzUedP1MxCGXdRT9-MBWr9oXzgKx9ak2Mmjhe_cpvshj1JHwB2Mhf7fyYIUQH_0xC7irtG6RcOf_Rs_ExDONMnct-kV2RJ_xLJIvQ3b2-hqPnmLQRfs5THaxnC-6x4ExKONCAWHDZPefKdy1W00]--></g></svg>