<?xml version="1.0" encoding="us-ascii" standalone="no"?><svg xmlns="http://www.w3.org/2000/svg" xmlns:xlink="http://www.w3.org/1999/xlink" contentStyleType="text/css" height="990px" preserveAspectRatio="none" style="width:1673px;height:990px;background:#FFFFFF;" version="1.1" viewBox="0 0 1673 990" width="1673px" zoomAndPan="magnify"><defs/><g><rect fill="#FFFFFF" height="361.4395" style="stroke:#999999;stroke-width:1.0;" width="10" x="125" y="284.041"/><rect fill="#FFFFFF" height="318.1289" style="stroke:#999999;stroke-width:1.0;" width="10" x="287" y="313.3516"/><rect fill="#FFFFFF" height="186.2422" style="stroke:#999999;stroke-width:1.0;" width="10" x="498" y="366.9727"/><rect fill="#FFFFFF" height="142.9316" style="stroke:#999999;stroke-width:1.0;" width="10" x="680" y="396.2832"/><rect fill="#FFFFFF" height="99.6211" style="stroke:#999999;stroke-width:1.0;" width="10" x="865.5" y="425.5938"/><rect fill="#FFFFFF" height="14" style="stroke:#999999;stroke-width:1.0;" width="10" x="1115.5" y="497.2148"/><rect fill="#FFFFFF" height="173.2422" style="stroke:#999999;stroke-width:1.0;" width="10" x="1347" y="718.1016"/><rect fill="#FFFFFF" height="14" style="stroke:#999999;stroke-width:1.0;" width="10" x="1589" y="856.3438"/><rect fill="none" height="290.1289" style="stroke:#999999;stroke-width:1.5;" width="1038" x="189" y="328.3516"/><rect fill="none" height="60.6211" style="stroke:#999999;stroke-width:1.5;" width="439.5" x="1217" y="817.7227"/><line style="stroke:#999999;stroke-width:0.5;stroke-dasharray:5.0,5.0;" x1="28" x2="28" y1="81.4883" y2="909.3438"/><line style="stroke:#999999;stroke-width:0.5;stroke-dasharray:5.0,5.0;" x1="130" x2="130" y1="81.4883" y2="909.3438"/><line style="stroke:#999999;stroke-width:0.5;stroke-dasharray:5.0,5.0;" x1="292" x2="292" y1="81.4883" y2="909.3438"/><line style="stroke:#999999;stroke-width:0.5;stroke-dasharray:5.0,5.0;" x1="503" x2="503" y1="81.4883" y2="909.3438"/><line style="stroke:#999999;stroke-width:0.5;stroke-dasharray:5.0,5.0;" x1="685" x2="685" y1="81.4883" y2="909.3438"/><line style="stroke:#999999;stroke-width:0.5;stroke-dasharray:5.0,5.0;" x1="870" x2="870" y1="81.4883" y2="909.3438"/><line style="stroke:#999999;stroke-width:0.5;stroke-dasharray:5.0,5.0;" x1="1120" x2="1120" y1="81.4883" y2="909.3438"/><line style="stroke:#999999;stroke-width:0.5;stroke-dasharray:5.0,5.0;" x1="1352" x2="1352" y1="81.4883" y2="909.3438"/><line style="stroke:#999999;stroke-width:0.5;stroke-dasharray:5.0,5.0;" x1="1593.5" x2="1593.5" y1="81.4883" y2="909.3438"/><text fill="#000000" font-family="sans-serif" font-size="14" lengthAdjust="spacing" textLength="40" x="5" y="78.5352">Client</text><ellipse cx="28" cy="13.5" fill="#E2E2F0" rx="8" ry="8" style="stroke:#181818;stroke-width:0.5;"/><path d="M28,21.5 L28,48.5 M15,29.5 L41,29.5 M28,48.5 L15,63.5 M28,48.5 L41,63.5 " fill="none" style="stroke:#181818;stroke-width:0.5;"/><text fill="#000000" font-family="sans-serif" font-size="14" lengthAdjust="spacing" textLength="40" x="5" y="921.8789">Client</text><ellipse cx="28" cy="933.332" fill="#E2E2F0" rx="8" ry="8" style="stroke:#181818;stroke-width:0.5;"/><path d="M28,941.332 L28,968.332 M15,949.332 L41,949.332 M28,968.332 L15,983.332 M28,968.332 L41,983.332 " fill="none" style="stroke:#181818;stroke-width:0.5;"/><rect fill="#E6F2FF" height="30.4883" rx="2.5" ry="2.5" style="stroke:#999999;stroke-width:0.5;" width="118" x="71" y="50"/><text fill="#000000" font-family="sans-serif" font-size="14" lengthAdjust="spacing" textLength="104" x="78" y="70.5352">AggregateRoot</text><rect fill="#E6F2FF" height="30.4883" rx="2.5" ry="2.5" style="stroke:#999999;stroke-width:0.5;" width="118" x="71" y="908.3438"/><text fill="#000000" font-family="sans-serif" font-size="14" lengthAdjust="spacing" textLength="104" x="78" y="928.8789">AggregateRoot</text><rect fill="#E6F2FF" height="30.4883" rx="2.5" ry="2.5" style="stroke:#999999;stroke-width:0.5;" width="186" x="199" y="50"/><text fill="#000000" font-family="sans-serif" font-size="14" lengthAdjust="spacing" textLength="172" x="206" y="70.5352">AggregateLifecycleAware</text><rect fill="#E6F2FF" height="30.4883" rx="2.5" ry="2.5" style="stroke:#999999;stroke-width:0.5;" width="186" x="199" y="908.3438"/><text fill="#000000" font-family="sans-serif" font-size="14" lengthAdjust="spacing" textLength="172" x="206" y="928.8789">AggregateLifecycleAware</text><rect fill="#E6F2FF" height="30.4883" rx="2.5" ry="2.5" style="stroke:#999999;stroke-width:0.5;" width="216" x="395" y="50"/><text fill="#000000" font-family="sans-serif" font-size="14" lengthAdjust="spacing" textLength="202" x="402" y="70.5352">DomainEventPublisherService</text><rect fill="#E6F2FF" height="30.4883" rx="2.5" ry="2.5" style="stroke:#999999;stroke-width:0.5;" width="216" x="395" y="908.3438"/><text fill="#000000" font-family="sans-serif" font-size="14" lengthAdjust="spacing" textLength="202" x="402" y="928.8789">DomainEventPublisherService</text><rect fill="#E6F2FF" height="30.4883" rx="2.5" ry="2.5" style="stroke:#999999;stroke-width:0.5;" width="128" x="621" y="50"/><text fill="#000000" font-family="sans-serif" font-size="14" lengthAdjust="spacing" textLength="114" x="628" y="70.5352">DomainEventBus</text><rect fill="#E6F2FF" height="30.4883" rx="2.5" ry="2.5" style="stroke:#999999;stroke-width:0.5;" width="128" x="621" y="908.3438"/><text fill="#000000" font-family="sans-serif" font-size="14" lengthAdjust="spacing" textLength="114" x="628" y="928.8789">DomainEventBus</text><rect fill="#E6F2FF" height="30.4883" rx="2.5" ry="2.5" style="stroke:#999999;stroke-width:0.5;" width="223" x="759" y="50"/><text fill="#000000" font-family="sans-serif" font-size="14" lengthAdjust="spacing" textLength="209" x="766" y="70.5352">DomainEventPublisherAdapter</text><rect fill="#E6F2FF" height="30.4883" rx="2.5" ry="2.5" style="stroke:#999999;stroke-width:0.5;" width="223" x="759" y="908.3438"/><text fill="#000000" font-family="sans-serif" font-size="14" lengthAdjust="spacing" textLength="209" x="766" y="928.8789">DomainEventPublisherAdapter</text><rect fill="#E6F2FF" height="46.9766" rx="2.5" ry="2.5" style="stroke:#999999;stroke-width:0.5;" width="193" x="1024" y="33.5117"/><text fill="#000000" font-family="sans-serif" font-size="14" lengthAdjust="spacing" textLength="45" x="1098" y="54.0469">Spring</text><text fill="#000000" font-family="sans-serif" font-size="14" lengthAdjust="spacing" textLength="179" x="1031" y="70.5352">ApplicationEventPublisher</text><rect fill="#E6F2FF" height="46.9766" rx="2.5" ry="2.5" style="stroke:#999999;stroke-width:0.5;" width="193" x="1024" y="908.3438"/><text fill="#000000" font-family="sans-serif" font-size="14" lengthAdjust="spacing" textLength="45" x="1098" y="928.8789">Spring</text><text fill="#000000" font-family="sans-serif" font-size="14" lengthAdjust="spacing" textLength="179" x="1031" y="945.3672">ApplicationEventPublisher</text><rect fill="#E6F2FF" height="30.4883" rx="2.5" ry="2.5" style="stroke:#999999;stroke-width:0.5;" width="250" x="1227" y="50"/><text fill="#000000" font-family="sans-serif" font-size="14" lengthAdjust="spacing" textLength="236" x="1234" y="70.5352">DomainEventSubscriptionManager</text><rect fill="#E6F2FF" height="30.4883" rx="2.5" ry="2.5" style="stroke:#999999;stroke-width:0.5;" width="250" x="1227" y="908.3438"/><text fill="#000000" font-family="sans-serif" font-size="14" lengthAdjust="spacing" textLength="236" x="1234" y="928.8789">DomainEventSubscriptionManager</text><rect fill="#E6F2FF" height="30.4883" rx="2.5" ry="2.5" style="stroke:#999999;stroke-width:0.5;" width="105" x="1541.5" y="50"/><text fill="#000000" font-family="sans-serif" font-size="14" lengthAdjust="spacing" textLength="91" x="1548.5" y="70.5352">EventHandler</text><rect fill="#E6F2FF" height="30.4883" rx="2.5" ry="2.5" style="stroke:#999999;stroke-width:0.5;" width="105" x="1541.5" y="908.3438"/><text fill="#000000" font-family="sans-serif" font-size="14" lengthAdjust="spacing" textLength="91" x="1548.5" y="928.8789">EventHandler</text><rect fill="#FFFFFF" height="361.4395" style="stroke:#999999;stroke-width:1.0;" width="10" x="125" y="284.041"/><rect fill="#FFFFFF" height="318.1289" style="stroke:#999999;stroke-width:1.0;" width="10" x="287" y="313.3516"/><rect fill="#FFFFFF" height="186.2422" style="stroke:#999999;stroke-width:1.0;" width="10" x="498" y="366.9727"/><rect fill="#FFFFFF" height="142.9316" style="stroke:#999999;stroke-width:1.0;" width="10" x="680" y="396.2832"/><rect fill="#FFFFFF" height="99.6211" style="stroke:#999999;stroke-width:1.0;" width="10" x="865.5" y="425.5938"/><rect fill="#FFFFFF" height="14" style="stroke:#999999;stroke-width:1.0;" width="10" x="1115.5" y="497.2148"/><rect fill="#FFFFFF" height="173.2422" style="stroke:#999999;stroke-width:1.0;" width="10" x="1347" y="718.1016"/><rect fill="#FFFFFF" height="14" style="stroke:#999999;stroke-width:1.0;" width="10" x="1589" y="856.3438"/><rect fill="#EEEEEE" height="3" style="stroke:#EEEEEE;stroke-width:1.0;" width="1666.5" x="0" y="112.1436"/><line style="stroke:#000000;stroke-width:1.0;" x1="0" x2="1666.5" y1="112.1436" y2="112.1436"/><line style="stroke:#000000;stroke-width:1.0;" x1="0" x2="1666.5" y1="115.1436" y2="115.1436"/><rect fill="#EEEEEE" height="23.3105" style="stroke:#000000;stroke-width:2.0;" width="83" x="791.75" y="101.4883"/><text fill="#000000" font-family="sans-serif" font-size="13" font-weight="bold" lengthAdjust="spacing" textLength="65" x="797.75" y="118.0566">&#21021;&#22987;&#21270;&#38454;&#27573;</text><line style="stroke:#181818;stroke-width:2.0;" x1="1352" x2="1394" y1="156.1094" y2="156.1094"/><line style="stroke:#181818;stroke-width:2.0;" x1="1394" x2="1394" y1="156.1094" y2="169.1094"/><line style="stroke:#181818;stroke-width:2.0;" x1="1353" x2="1394" y1="169.1094" y2="169.1094"/><polygon fill="#181818" points="1363,165.1094,1353,169.1094,1363,173.1094,1359,169.1094" style="stroke:#181818;stroke-width:1.0;"/><text fill="#000000" font-family="sans-serif" font-size="13" lengthAdjust="spacing" textLength="228" x="1359" y="151.3672">&#25195;&#25551;&#24102;&#26377;@EventSubscriber&#27880;&#35299;&#30340;&#26041;&#27861;</text><line style="stroke:#181818;stroke-width:2.0;" x1="1352" x2="1394" y1="198.4199" y2="198.4199"/><line style="stroke:#181818;stroke-width:2.0;" x1="1394" x2="1394" y1="198.4199" y2="211.4199"/><line style="stroke:#181818;stroke-width:2.0;" x1="1353" x2="1394" y1="211.4199" y2="211.4199"/><polygon fill="#181818" points="1363,207.4199,1353,211.4199,1363,215.4199,1359,211.4199" style="stroke:#181818;stroke-width:1.0;"/><text fill="#000000" font-family="sans-serif" font-size="13" lengthAdjust="spacing" textLength="216" x="1359" y="193.6777">&#27880;&#20876;&#20107;&#20214;&#35746;&#38405;&#32773;&#21040;subscriptions&#26144;&#23556;</text><rect fill="#EEEEEE" height="3" style="stroke:#EEEEEE;stroke-width:1.0;" width="1666.5" x="0" y="240.0752"/><line style="stroke:#000000;stroke-width:1.0;" x1="0" x2="1666.5" y1="240.0752" y2="240.0752"/><line style="stroke:#000000;stroke-width:1.0;" x1="0" x2="1666.5" y1="243.0752" y2="243.0752"/><rect fill="#EEEEEE" height="23.3105" style="stroke:#000000;stroke-width:2.0;" width="96" x="785.25" y="229.4199"/><text fill="#000000" font-family="sans-serif" font-size="13" font-weight="bold" lengthAdjust="spacing" textLength="78" x="791.25" y="245.9883">&#20107;&#20214;&#21457;&#24067;&#27969;&#31243;</text><polygon fill="#181818" points="113,280.041,123,284.041,113,288.041,117,284.041" style="stroke:#181818;stroke-width:1.0;"/><line style="stroke:#181818;stroke-width:2.0;" x1="28" x2="119" y1="284.041" y2="284.041"/><text fill="#000000" font-family="sans-serif" font-size="13" lengthAdjust="spacing" textLength="78" x="35" y="279.2988">&#25191;&#34892;&#19994;&#21153;&#25805;&#20316;</text><polygon fill="#181818" points="275,309.3516,285,313.3516,275,317.3516,279,313.3516" style="stroke:#181818;stroke-width:1.0;"/><line style="stroke:#181818;stroke-width:2.0;" x1="135" x2="281" y1="313.3516" y2="313.3516"/><text fill="#000000" font-family="sans-serif" font-size="13" lengthAdjust="spacing" textLength="123" x="142" y="308.6094">apply(domainEvent)</text><path d="M189,328.3516 L251,328.3516 L251,335.6621 L241,345.6621 L189,345.6621 L189,328.3516 " fill="#F5F5F5" style="stroke:#999999;stroke-width:1.5;"/><rect fill="none" height="290.1289" style="stroke:#999999;stroke-width:1.5;" width="1038" x="189" y="328.3516"/><text fill="#000000" font-family="sans-serif" font-size="13" font-weight="bold" lengthAdjust="spacing" textLength="17" x="204" y="341.9199">alt</text><text fill="#000000" font-family="sans-serif" font-size="11" font-weight="bold" lengthAdjust="spacing" textLength="52" x="266" y="340.9863">[&#20027;&#35201;&#36335;&#24452;]</text><polygon fill="#181818" points="486,362.9727,496,366.9727,486,370.9727,490,366.9727" style="stroke:#181818;stroke-width:1.0;"/><line style="stroke:#181818;stroke-width:2.0;" x1="297" x2="492" y1="366.9727" y2="366.9727"/><text fill="#000000" font-family="sans-serif" font-size="13" lengthAdjust="spacing" textLength="170" x="304" y="362.2305">publishEvent(domainEvent)</text><polygon fill="#181818" points="668,392.2832,678,396.2832,668,400.2832,672,396.2832" style="stroke:#181818;stroke-width:1.0;"/><line style="stroke:#181818;stroke-width:2.0;" x1="508" x2="674" y1="396.2832" y2="396.2832"/><text fill="#000000" font-family="sans-serif" font-size="13" lengthAdjust="spacing" textLength="136" x="515" y="391.541">publish(domainEvent)</text><polygon fill="#181818" points="853.5,421.5938,863.5,425.5938,853.5,429.5938,857.5,425.5938" style="stroke:#181818;stroke-width:1.0;"/><line style="stroke:#181818;stroke-width:2.0;" x1="690" x2="859.5" y1="425.5938" y2="425.5938"/><text fill="#000000" font-family="sans-serif" font-size="13" lengthAdjust="spacing" textLength="136" x="697" y="420.8516">publish(domainEvent)</text><line style="stroke:#181818;stroke-width:2.0;" x1="875.5" x2="917.5" y1="454.9043" y2="454.9043"/><line style="stroke:#181818;stroke-width:2.0;" x1="917.5" x2="917.5" y1="454.9043" y2="467.9043"/><line style="stroke:#181818;stroke-width:2.0;" x1="876.5" x2="917.5" y1="467.9043" y2="467.9043"/><polygon fill="#181818" points="886.5,463.9043,876.5,467.9043,886.5,471.9043,882.5,467.9043" style="stroke:#181818;stroke-width:1.0;"/><text fill="#000000" font-family="sans-serif" font-size="13" lengthAdjust="spacing" textLength="160" x="882.5" y="450.1621">&#21019;&#24314;DomainEventWrapper</text><polygon fill="#181818" points="1103.5,493.2148,1113.5,497.2148,1103.5,501.2148,1107.5,497.2148" style="stroke:#181818;stroke-width:1.0;"/><line style="stroke:#181818;stroke-width:2.0;" x1="875.5" x2="1109.5" y1="497.2148" y2="497.2148"/><text fill="#000000" font-family="sans-serif" font-size="13" lengthAdjust="spacing" textLength="221" x="882.5" y="492.4727">publishEvent(domainEventWrapper)</text><polygon fill="#181818" points="886.5,507.2148,876.5,511.2148,886.5,515.2148,882.5,511.2148" style="stroke:#181818;stroke-width:1.0;"/><line style="stroke:#181818;stroke-width:2.0;stroke-dasharray:2.0,2.0;" x1="880.5" x2="1119.5" y1="511.2148" y2="511.2148"/><polygon fill="#181818" points="701,521.2148,691,525.2148,701,529.2148,697,525.2148" style="stroke:#181818;stroke-width:1.0;"/><line style="stroke:#181818;stroke-width:2.0;stroke-dasharray:2.0,2.0;" x1="695" x2="869.5" y1="525.2148" y2="525.2148"/><polygon fill="#181818" points="519,535.2148,509,539.2148,519,543.2148,515,539.2148" style="stroke:#181818;stroke-width:1.0;"/><line style="stroke:#181818;stroke-width:2.0;stroke-dasharray:2.0,2.0;" x1="513" x2="684" y1="539.2148" y2="539.2148"/><polygon fill="#181818" points="308,549.2148,298,553.2148,308,557.2148,304,553.2148" style="stroke:#181818;stroke-width:1.0;"/><line style="stroke:#181818;stroke-width:2.0;stroke-dasharray:2.0,2.0;" x1="302" x2="502" y1="553.2148" y2="553.2148"/><line style="stroke:#999999;stroke-width:1.0;stroke-dasharray:2.0,2.0;" x1="189" x2="1227" y1="562.2148" y2="562.2148"/><text fill="#000000" font-family="sans-serif" font-size="11" font-weight="bold" lengthAdjust="spacing" textLength="148" x="194" y="572.8496">[EventBus&#20026;null (&#38477;&#32423;&#36335;&#24452;)]</text><line style="stroke:#181818;stroke-width:2.0;" x1="297" x2="339" y1="597.4805" y2="597.4805"/><line style="stroke:#181818;stroke-width:2.0;" x1="339" x2="339" y1="597.4805" y2="610.4805"/><line style="stroke:#181818;stroke-width:2.0;" x1="298" x2="339" y1="610.4805" y2="610.4805"/><polygon fill="#181818" points="308,606.4805,298,610.4805,308,614.4805,304,610.4805" style="stroke:#181818;stroke-width:1.0;"/><text fill="#000000" font-family="sans-serif" font-size="13" lengthAdjust="spacing" textLength="78" x="304" y="592.7383">&#35760;&#24405;&#35686;&#21578;&#26085;&#24535;</text><polygon fill="#181818" points="146,627.4805,136,631.4805,146,635.4805,142,631.4805" style="stroke:#181818;stroke-width:1.0;"/><line style="stroke:#181818;stroke-width:2.0;stroke-dasharray:2.0,2.0;" x1="140" x2="291" y1="631.4805" y2="631.4805"/><polygon fill="#181818" points="39,641.4805,29,645.4805,39,649.4805,35,645.4805" style="stroke:#181818;stroke-width:1.0;"/><line style="stroke:#181818;stroke-width:2.0;stroke-dasharray:2.0,2.0;" x1="33" x2="129" y1="645.4805" y2="645.4805"/><rect fill="#EEEEEE" height="3" style="stroke:#EEEEEE;stroke-width:1.0;" width="1666.5" x="0" y="674.1357"/><line style="stroke:#000000;stroke-width:1.0;" x1="0" x2="1666.5" y1="674.1357" y2="674.1357"/><line style="stroke:#000000;stroke-width:1.0;" x1="0" x2="1666.5" y1="677.1357" y2="677.1357"/><rect fill="#EEEEEE" height="23.3105" style="stroke:#000000;stroke-width:2.0;" width="96" x="785.25" y="663.4805"/><text fill="#000000" font-family="sans-serif" font-size="13" font-weight="bold" lengthAdjust="spacing" textLength="78" x="791.25" y="680.0488">&#20107;&#20214;&#22788;&#29702;&#27969;&#31243;</text><polygon fill="#181818" points="1335,714.1016,1345,718.1016,1335,722.1016,1339,718.1016" style="stroke:#181818;stroke-width:1.0;"/><line style="stroke:#181818;stroke-width:2.0;" x1="1120.5" x2="1341" y1="718.1016" y2="718.1016"/><text fill="#000000" font-family="sans-serif" font-size="13" lengthAdjust="spacing" textLength="204" x="1127.5" y="713.3594">onApplicationEvent(springEvent)</text><line style="stroke:#181818;stroke-width:2.0;" x1="1357" x2="1399" y1="747.4121" y2="747.4121"/><line style="stroke:#181818;stroke-width:2.0;" x1="1399" x2="1399" y1="747.4121" y2="760.4121"/><line style="stroke:#181818;stroke-width:2.0;" x1="1358" x2="1399" y1="760.4121" y2="760.4121"/><polygon fill="#181818" points="1368,756.4121,1358,760.4121,1368,764.4121,1364,760.4121" style="stroke:#181818;stroke-width:1.0;"/><text fill="#000000" font-family="sans-serif" font-size="13" lengthAdjust="spacing" textLength="109" x="1364" y="742.6699">&#25552;&#21462;DomainEvent</text><line style="stroke:#181818;stroke-width:2.0;" x1="1357" x2="1399" y1="789.7227" y2="789.7227"/><line style="stroke:#181818;stroke-width:2.0;" x1="1399" x2="1399" y1="789.7227" y2="802.7227"/><line style="stroke:#181818;stroke-width:2.0;" x1="1358" x2="1399" y1="802.7227" y2="802.7227"/><polygon fill="#181818" points="1368,798.7227,1358,802.7227,1368,806.7227,1364,802.7227" style="stroke:#181818;stroke-width:1.0;"/><text fill="#000000" font-family="sans-serif" font-size="13" lengthAdjust="spacing" textLength="104" x="1364" y="784.9805">&#26597;&#25214;&#21305;&#37197;&#30340;&#35746;&#38405;&#32773;</text><path d="M1217,817.7227 L1291,817.7227 L1291,825.0332 L1281,835.0332 L1217,835.0332 L1217,817.7227 " fill="#F5F5F5" style="stroke:#999999;stroke-width:1.5;"/><rect fill="none" height="60.6211" style="stroke:#999999;stroke-width:1.5;" width="439.5" x="1217" y="817.7227"/><text fill="#000000" font-family="sans-serif" font-size="13" font-weight="bold" lengthAdjust="spacing" textLength="29" x="1232" y="831.291">loop</text><text fill="#000000" font-family="sans-serif" font-size="11" font-weight="bold" lengthAdjust="spacing" textLength="107" x="1306" y="830.3574">[&#23545;&#27599;&#20010;&#21305;&#37197;&#30340;&#35746;&#38405;&#32773;]</text><polygon fill="#181818" points="1577,852.3438,1587,856.3438,1577,860.3438,1581,856.3438" style="stroke:#181818;stroke-width:1.0;"/><line style="stroke:#181818;stroke-width:2.0;" x1="1357" x2="1583" y1="856.3438" y2="856.3438"/><text fill="#000000" font-family="sans-serif" font-size="13" lengthAdjust="spacing" textLength="130" x="1364" y="851.6016">&#36890;&#36807;&#21453;&#23556;&#35843;&#29992;&#22788;&#29702;&#26041;&#27861;</text><polygon fill="#181818" points="1368,866.3438,1358,870.3438,1368,874.3438,1364,870.3438" style="stroke:#181818;stroke-width:1.0;"/><line style="stroke:#181818;stroke-width:2.0;stroke-dasharray:2.0,2.0;" x1="1362" x2="1593" y1="870.3438" y2="870.3438"/><polygon fill="#181818" points="1131.5,887.3438,1121.5,891.3438,1131.5,895.3438,1127.5,891.3438" style="stroke:#181818;stroke-width:1.0;"/><line style="stroke:#181818;stroke-width:2.0;stroke-dasharray:2.0,2.0;" x1="1125.5" x2="1351" y1="891.3438" y2="891.3438"/><!--SRC=[bLHDJzj04BtlhrZH2nou8BLI8wMg3L5p02cAA_NIo-9iWeMntRK3uWOYK3uI1TGIAALgQGk9MXKY8MW80lvCrd7-HNTj9t5Cqb97aTQxxysRdNbZSrRH34JG73JncopMP2mGeY-yd57aMGsR9Xm3vZt82w9d3L4dAKp6TLKdyD5Jzna8HV9iXYsqb0zFF-Q_Fl199St-6dvOy0GYbY8h1jAi_oU4Sy9FqcFfD018jjZhkAfWpG96bm27X4o6u0ooS5BNhI68J2Wa1o3uFUH5MSN20YBOmquAlU09VGufMcoUwIIoqwfYpc0YOJAlo1vX8fQG1ZB4hEc3n7z75LB8i31fHmtb8Hb4qJAlDS4mL4L6bgA7w2vF4cA9WKfITjgKYM9mxXJIKAOZ9atrabnu76afrOV4uW14ev2kVwBbBPeljVOlxTCB68q2JeQZpzmW4MXl_BIBHLexiGytdWT5fp6npojE-Llp86UNhkpptJ3pl4BNyetwLkFwqZdzsjfVTPPMwNhL32HjsljVQ3Ndfk8XQN67rbRiY-LcPOjdunc2HnMIF9koSvHlr0xevf7zhj2uEUI-KUPPwxafXAGBd1GY4B6gBWwdkhKQ2I2P9G1IBTYeNJidoyxlCtgR0v0zxCIxG4AAGCDhXClkZSIXdMYkN_WENtXiiKF-Aq_qQQAlAJoCnepaombT8bt_IA_h0M-y8gm4cFH0kPa6tyjdXFHS0_8Tle2Z7K5tBuNluponTXt2i43wOZkQr0yc1chQRcgVO1B0gebXUpWRjRgMLLKutFfGQDRBNcj7Whrr0pcdLNgpw_mweJkRzjunlTi3M4i1u69yhu6047SCDnSxyWmPEau67VmzrznUwphOgrjxAlHxypvikX-2i4dT6GvDL76R5ak17eVFFn_R6xSqVzLQBR2fx0mTK7NTWFJioZuhDce_-W2yKdknOl48R2qTE7TlQR70XjEfhZJVL_nRUOFUOn3s9U7liRZVJfv9k54Cm-lhINIC27fQoQxx1m00]--></g></svg>