<svg xmlns="http://www.w3.org/2000/svg" xmlns:xlink="http://www.w3.org/1999/xlink" contentStyleType="text/css" data-diagram-type="CLASS" height="679px" preserveAspectRatio="none" style="width:4083px;height:679px;background:#FFFFFF;" version="1.1" viewBox="0 0 4083 679" width="4083px" zoomAndPan="magnify"><title>Application Services Overview
Generated: 2025-09-21 19:48:57

</title><defs/><g><g class="title" data-source-line="4"><text fill="#000000" font-family="Verdana" font-size="22" font-weight="bold" lengthAdjust="spacing" textLength="374" x="1850" y="37.1182">Application Services Overview</text><text fill="#000000" font-family="Verdana" font-size="22" font-weight="bold" lengthAdjust="spacing" textLength="410.0615" x="1831.9692" y="63.8555">Generated: 2025-09-21 19:48:57</text><text fill="#000000" font-family="Verdana" font-size="22" font-weight="bold" lengthAdjust="spacing" textLength="7.5195" x="2033.2402" y="90.5928">&#160;</text><text fill="#000000" font-family="Verdana" font-size="22" font-weight="bold" lengthAdjust="spacing" textLength="7.5195" x="2033.2402" y="117.3301">&#160;</text></g><!--cluster Customer Application Services--><g class="cluster" data-entity="Customer Application Services" data-source-line="6" data-uid="ent0002" id="cluster_Customer Application Services"><path d="M760.5,189.9892 L1000.8193,189.9892 A3.75,3.75 0 0 1 1003.3193,192.4892 L1010.3193,213.0039 L1203.5,213.0039 A2.5,2.5 0 0 1 1206,215.5039 L1206,399.1792 A2.5,2.5 0 0 1 1203.5,401.6792 L760.5,401.6792 A2.5,2.5 0 0 1 758,399.1792 L758,192.4892 A2.5,2.5 0 0 1 760.5,189.9892" fill="#FFFFFF" style="stroke:#000000;stroke-width:1;"/><line style="stroke:#000000;stroke-width:1;" x1="758" x2="1010.3193" y1="213.0039" y2="213.0039"/><text fill="#000000" font-family="Verdana" font-size="14" font-weight="bold" lengthAdjust="spacing" textLength="239.3193" x="762" y="206.0644">Customer Application Services</text></g><!--cluster Shoppingcart Application Services--><g class="cluster" data-entity="Shoppingcart Application Services" data-source-line="18" data-uid="ent0004" id="cluster_Shoppingcart Application Services"><path d="M1232.5,189.9892 L1501.9336,189.9892 A3.75,3.75 0 0 1 1504.4336,192.4892 L1511.4336,213.0039 L1627.5,213.0039 A2.5,2.5 0 0 1 1630,215.5039 L1630,399.1792 A2.5,2.5 0 0 1 1627.5,401.6792 L1232.5,401.6792 A2.5,2.5 0 0 1 1230,399.1792 L1230,192.4892 A2.5,2.5 0 0 1 1232.5,189.9892" fill="#FFFFFF" style="stroke:#000000;stroke-width:1;"/><line style="stroke:#000000;stroke-width:1;" x1="1230" x2="1511.4336" y1="213.0039" y2="213.0039"/><text fill="#000000" font-family="Verdana" font-size="14" font-weight="bold" lengthAdjust="spacing" textLength="268.4336" x="1234" y="206.0644">Shoppingcart Application Services</text></g><!--cluster Inventory Application Services--><g class="cluster" data-entity="Inventory Application Services" data-source-line="30" data-uid="ent0006" id="cluster_Inventory Application Services"><path d="M1656.5,215.5092 L1899.3965,215.5092 A3.75,3.75 0 0 1 1901.8965,218.0092 L1908.8965,238.5239 L1979.5,238.5239 A2.5,2.5 0 0 1 1982,241.0239 L1982,373.6592 A2.5,2.5 0 0 1 1979.5,376.1592 L1656.5,376.1592 A2.5,2.5 0 0 1 1654,373.6592 L1654,218.0092 A2.5,2.5 0 0 1 1656.5,215.5092" fill="#FFFFFF" style="stroke:#000000;stroke-width:1;"/><line style="stroke:#000000;stroke-width:1;" x1="1654" x2="1908.8965" y1="238.5239" y2="238.5239"/><text fill="#000000" font-family="Verdana" font-size="14" font-weight="bold" lengthAdjust="spacing" textLength="241.8965" x="1658" y="231.5844">Inventory Application Services</text></g><!--cluster Common Application Services--><g class="cluster" data-entity="Common Application Services" data-source-line="39" data-uid="ent0008" id="cluster_Common Application Services"><path d="M2008.5,189.9892 L2242.3047,189.9892 A3.75,3.75 0 0 1 2244.8047,192.4892 L2251.8047,213.0039 L2325.5,213.0039 A2.5,2.5 0 0 1 2328,215.5039 L2328,399.1792 A2.5,2.5 0 0 1 2325.5,401.6792 L2008.5,401.6792 A2.5,2.5 0 0 1 2006,399.1792 L2006,192.4892 A2.5,2.5 0 0 1 2008.5,189.9892" fill="#FFFFFF" style="stroke:#000000;stroke-width:1;"/><line style="stroke:#000000;stroke-width:1;" x1="2006" x2="2251.8047" y1="213.0039" y2="213.0039"/><text fill="#000000" font-family="Verdana" font-size="14" font-weight="bold" lengthAdjust="spacing" textLength="232.8047" x="2010" y="206.0644">Common Application Services</text></g><!--cluster Product Application Services--><g class="cluster" data-entity="Product Application Services" data-source-line="51" data-uid="ent0010" id="cluster_Product Application Services"><path d="M2354.5,198.4992 L2580.5596,198.4992 A3.75,3.75 0 0 1 2583.0596,200.9992 L2590.0596,221.5139 L2665.5,221.5139 A2.5,2.5 0 0 1 2668,224.0139 L2668,390.6692 A2.5,2.5 0 0 1 2665.5,393.1692 L2354.5,393.1692 A2.5,2.5 0 0 1 2352,390.6692 L2352,200.9992 A2.5,2.5 0 0 1 2354.5,198.4992" fill="#FFFFFF" style="stroke:#000000;stroke-width:1;"/><line style="stroke:#000000;stroke-width:1;" x1="2352" x2="2590.0596" y1="221.5139" y2="221.5139"/><text fill="#000000" font-family="Verdana" font-size="14" font-weight="bold" lengthAdjust="spacing" textLength="225.0596" x="2356" y="214.5744">Product Application Services</text></g><!--cluster Observability Application Services--><g class="cluster" data-entity="Observability Application Services" data-source-line="62" data-uid="ent0012" id="cluster_Observability Application Services"><path d="M13.5,138.9492 L282.6875,138.9492 A3.75,3.75 0 0 1 285.1875,141.4492 L292.1875,161.9639 L731.5,161.9639 A2.5,2.5 0 0 1 734,164.4639 L734,669.9092 A2.5,2.5 0 0 1 731.5,672.4092 L13.5,672.4092 A2.5,2.5 0 0 1 11,669.9092 L11,141.4492 A2.5,2.5 0 0 1 13.5,138.9492" fill="#FFFFFF" style="stroke:#000000;stroke-width:1;"/><line style="stroke:#000000;stroke-width:1;" x1="11" x2="292.1875" y1="161.9639" y2="161.9639"/><text fill="#000000" font-family="Verdana" font-size="14" font-weight="bold" lengthAdjust="spacing" textLength="268.1875" x="15" y="155.0244">Observability Application Services</text></g><!--cluster Payment Application Services--><g class="cluster" data-entity="Payment Application Services" data-source-line="99" data-uid="ent0016" id="cluster_Payment Application Services"><path d="M2694.5,189.9892 L2928.5371,189.9892 A3.75,3.75 0 0 1 2931.0371,192.4892 L2938.0371,213.0039 L3037.5,213.0039 A2.5,2.5 0 0 1 3040,215.5039 L3040,399.1792 A2.5,2.5 0 0 1 3037.5,401.6792 L2694.5,401.6792 A2.5,2.5 0 0 1 2692,399.1792 L2692,192.4892 A2.5,2.5 0 0 1 2694.5,189.9892" fill="#FFFFFF" style="stroke:#000000;stroke-width:1;"/><line style="stroke:#000000;stroke-width:1;" x1="2692" x2="2938.0371" y1="213.0039" y2="213.0039"/><text fill="#000000" font-family="Verdana" font-size="14" font-weight="bold" lengthAdjust="spacing" textLength="233.0371" x="2696" y="206.0644">Payment Application Services</text></g><!--cluster Notification Application Services--><g class="cluster" data-entity="Notification Application Services" data-source-line="111" data-uid="ent0018" id="cluster_Notification Application Services"><path d="M3066.5,215.5092 L3323.0137,215.5092 A3.75,3.75 0 0 1 3325.5137,218.0092 L3332.5137,238.5239 L3355.5,238.5239 A2.5,2.5 0 0 1 3358,241.0239 L3358,373.6592 A2.5,2.5 0 0 1 3355.5,376.1592 L3066.5,376.1592 A2.5,2.5 0 0 1 3064,373.6592 L3064,218.0092 A2.5,2.5 0 0 1 3066.5,215.5092" fill="#FFFFFF" style="stroke:#000000;stroke-width:1;"/><line style="stroke:#000000;stroke-width:1;" x1="3064" x2="3332.5137" y1="238.5239" y2="238.5239"/><text fill="#000000" font-family="Verdana" font-size="14" font-weight="bold" lengthAdjust="spacing" textLength="255.5137" x="3068" y="231.5844">Notification Application Services</text></g><!--cluster Order Application Services--><g class="cluster" data-entity="Order Application Services" data-source-line="120" data-uid="ent0020" id="cluster_Order Application Services"><path d="M3384.5,189.9892 L3594.2559,189.9892 A3.75,3.75 0 0 1 3596.7559,192.4892 L3603.7559,213.0039 L3665.5,213.0039 A2.5,2.5 0 0 1 3668,215.5039 L3668,399.1792 A2.5,2.5 0 0 1 3665.5,401.6792 L3384.5,401.6792 A2.5,2.5 0 0 1 3382,399.1792 L3382,192.4892 A2.5,2.5 0 0 1 3384.5,189.9892" fill="#FFFFFF" style="stroke:#000000;stroke-width:1;"/><line style="stroke:#000000;stroke-width:1;" x1="3382" x2="3603.7559" y1="213.0039" y2="213.0039"/><text fill="#000000" font-family="Verdana" font-size="14" font-weight="bold" lengthAdjust="spacing" textLength="208.7559" x="3386" y="206.0644">Order Application Services</text></g><!--cluster Promotion Application Services--><g class="cluster" data-entity="Promotion Application Services" data-source-line="132" data-uid="ent0022" id="cluster_Promotion Application Services"><path d="M3694.5,189.9892 L3941.3545,189.9892 A3.75,3.75 0 0 1 3943.8545,192.4892 L3950.8545,213.0039 L4073.5,213.0039 A2.5,2.5 0 0 1 4076,215.5039 L4076,399.1792 A2.5,2.5 0 0 1 4073.5,401.6792 L3694.5,401.6792 A2.5,2.5 0 0 1 3692,399.1792 L3692,192.4892 A2.5,2.5 0 0 1 3694.5,189.9892" fill="#FFFFFF" style="stroke:#000000;stroke-width:1;"/><line style="stroke:#000000;stroke-width:1;" x1="3692" x2="3950.8545" y1="213.0039" y2="213.0039"/><text fill="#000000" font-family="Verdana" font-size="14" font-weight="bold" lengthAdjust="spacing" textLength="245.8545" x="3696" y="206.0644">Promotion Application Services</text></g><!--class CustomerApplicationService--><g class="entity" data-entity="CustomerApplicationService" data-source-line="7" data-uid="ent0003" id="entity_CustomerApplicationService"><rect fill="#FFFFFF" height="159.6865" rx="2.5" ry="2.5" style="stroke:#000000;stroke-width:1;" width="415.8125" x="774.09" y="225.9892"/><ellipse cx="879.9284" cy="246.7885" fill="#FFFFFF" rx="9" ry="9" style="stroke:#000000;stroke-width:1;"/><path d="M882.4015,252.9316 Q881.8205,253.2304 881.1813,253.3798 Q880.5421,253.5293 879.8366,253.5293 Q877.3297,253.5293 876.0099,251.8774 Q874.6901,250.2255 874.6901,247.1045 Q874.6901,243.9751 876.0099,242.3232 Q877.3297,240.6713 879.8366,240.6713 Q880.5421,240.6713 881.1896,240.8208 Q881.8371,240.9702 882.4015,241.269 L882.4015,243.9917 Q881.7707,243.4106 881.1772,243.1408 Q880.5837,242.8711 879.9528,242.8711 Q878.6081,242.8711 877.9233,243.9377 Q877.2384,245.0044 877.2384,247.1045 Q877.2384,249.1963 877.9233,250.2629 Q878.6081,251.3296 879.9528,251.3296 Q880.5837,251.3296 881.1772,251.0598 Q881.7707,250.79 882.4015,250.2089 Z " fill="#000000"/><text fill="#000000" font-family="Verdana" font-size="12" font-style="italic" lengthAdjust="spacing" textLength="125.8125" x="932.84" y="243.0537">&#171;ApplicationService&#187;</text><text fill="#000000" font-family="Verdana" font-size="14" lengthAdjust="spacing" textLength="196.6357" x="897.4284" y="259.6484">CustomerApplicationService</text><line style="stroke:#000000;stroke-width:1;" x1="775.09" x2="1188.9025" y1="267.5879" y2="267.5879"/><line style="stroke:#000000;stroke-width:1;" x1="775.09" x2="1188.9025" y1="275.5879" y2="275.5879"/><text fill="#000000" font-family="Verdana" font-size="14" lengthAdjust="spacing" textLength="403.8125" x="780.09" y="293.663">+upgradeCustomerMembershipBasedOnSpending(): void</text><text fill="#000000" font-family="Verdana" font-size="14" lengthAdjust="spacing" textLength="185.7393" x="780.09" y="310.6777">+addRewardPoints(): void</text><text fill="#000000" font-family="Verdana" font-size="14" lengthAdjust="spacing" textLength="246.8799" x="780.09" y="327.6923">+updateCustomerSpending(): void</text><text fill="#000000" font-family="Verdana" font-size="14" lengthAdjust="spacing" textLength="259.7861" x="780.09" y="344.707">+getCustomers(): CustomerPageDto</text><text fill="#000000" font-family="Verdana" font-size="14" lengthAdjust="spacing" textLength="300.2002" x="780.09" y="361.7216">+getCustomer(): Optional&lt;CustomerDto&gt;</text><text fill="#000000" font-family="Verdana" font-size="14" lengthAdjust="spacing" textLength="160.3916" x="780.09" y="378.7363">+... (1 more methods)</text></g><!--class ShoppingCartApplicationService--><g class="entity" data-entity="ShoppingCartApplicationService" data-source-line="19" data-uid="ent0005" id="entity_ShoppingCartApplicationService"><rect fill="#FFFFFF" height="159.6865" rx="2.5" ry="2.5" style="stroke:#000000;stroke-width:1;" width="367.3936" x="1246.3" y="225.9892"/><ellipse cx="1314.1306" cy="246.7885" fill="#FFFFFF" rx="9" ry="9" style="stroke:#000000;stroke-width:1;"/><path d="M1316.6037,252.9316 Q1316.0227,253.2304 1315.3835,253.3798 Q1314.7443,253.5293 1314.0388,253.5293 Q1311.5319,253.5293 1310.2121,251.8774 Q1308.8923,250.2255 1308.8923,247.1045 Q1308.8923,243.9751 1310.2121,242.3232 Q1311.5319,240.6713 1314.0388,240.6713 Q1314.7443,240.6713 1315.3918,240.8208 Q1316.0393,240.9702 1316.6037,241.269 L1316.6037,243.9917 Q1315.9729,243.4106 1315.3793,243.1408 Q1314.7858,242.8711 1314.155,242.8711 Q1312.8103,242.8711 1312.1254,243.9377 Q1311.4406,245.0044 1311.4406,247.1045 Q1311.4406,249.1963 1312.1254,250.2629 Q1312.8103,251.3296 1314.155,251.3296 Q1314.7858,251.3296 1315.3793,251.0598 Q1315.9729,250.79 1316.6037,250.2089 Z " fill="#000000"/><text fill="#000000" font-family="Verdana" font-size="12" font-style="italic" lengthAdjust="spacing" textLength="125.8125" x="1380.8405" y="243.0537">&#171;ApplicationService&#187;</text><text fill="#000000" font-family="Verdana" font-size="14" lengthAdjust="spacing" textLength="224.2324" x="1331.6306" y="259.6484">ShoppingCartApplicationService</text><line style="stroke:#000000;stroke-width:1;" x1="1247.3" x2="1612.6936" y1="267.5879" y2="267.5879"/><line style="stroke:#000000;stroke-width:1;" x1="1247.3" x2="1612.6936" y1="275.5879" y2="275.5879"/><text fill="#000000" font-family="Verdana" font-size="14" lengthAdjust="spacing" textLength="295.0664" x="1252.3" y="293.663">+createShoppingCart(): ShoppingCartDto</text><text fill="#000000" font-family="Verdana" font-size="14" lengthAdjust="spacing" textLength="261.7412" x="1252.3" y="310.6777">+addItemToCart(): ShoppingCartDto</text><text fill="#000000" font-family="Verdana" font-size="14" lengthAdjust="spacing" textLength="297.9648" x="1252.3" y="327.6923">+updateItemQuantity(): ShoppingCartDto</text><text fill="#000000" font-family="Verdana" font-size="14" lengthAdjust="spacing" textLength="307.9521" x="1252.3" y="344.707">+removeItemFromCart(): ShoppingCartDto</text><text fill="#000000" font-family="Verdana" font-size="14" lengthAdjust="spacing" textLength="355.3936" x="1252.3" y="361.7216">+getShoppingCart(): Optional&lt;ShoppingCartDto&gt;</text><text fill="#000000" font-family="Verdana" font-size="14" lengthAdjust="spacing" textLength="160.3916" x="1252.3" y="378.7363">+... (2 more methods)</text></g><!--class InventoryApplicationService--><g class="entity" data-entity="InventoryApplicationService" data-source-line="31" data-uid="ent0007" id="entity_InventoryApplicationService"><rect fill="#FFFFFF" height="108.6426" rx="2.5" ry="2.5" style="stroke:#000000;stroke-width:1;" width="295.1719" x="1670.41" y="251.5092"/><ellipse cx="1715.6102" cy="272.3085" fill="#FFFFFF" rx="9" ry="9" style="stroke:#000000;stroke-width:1;"/><path d="M1718.0833,278.4516 Q1717.5023,278.7504 1716.8631,278.8998 Q1716.224,279.0493 1715.5184,279.0493 Q1713.0116,279.0493 1711.6917,277.3974 Q1710.3719,275.7455 1710.3719,272.6245 Q1710.3719,269.4951 1711.6917,267.8432 Q1713.0116,266.1913 1715.5184,266.1913 Q1716.224,266.1913 1716.8714,266.3408 Q1717.5189,266.4902 1718.0833,266.789 L1718.0833,269.5117 Q1717.4525,268.9306 1716.859,268.6608 Q1716.2655,268.3911 1715.6346,268.3911 Q1714.2899,268.3911 1713.6051,269.4577 Q1712.9203,270.5244 1712.9203,272.6245 Q1712.9203,274.7163 1713.6051,275.7829 Q1714.2899,276.8496 1715.6346,276.8496 Q1716.2655,276.8496 1716.859,276.5798 Q1717.4525,276.31 1718.0833,275.7289 Z " fill="#000000"/><text fill="#000000" font-family="Verdana" font-size="12" font-style="italic" lengthAdjust="spacing" textLength="125.8125" x="1768.8397" y="268.5737">&#171;ApplicationService&#187;</text><text fill="#000000" font-family="Verdana" font-size="14" lengthAdjust="spacing" textLength="197.2715" x="1733.1102" y="285.1684">InventoryApplicationService</text><line style="stroke:#000000;stroke-width:1;" x1="1671.41" x2="1964.5819" y1="293.1079" y2="293.1079"/><line style="stroke:#000000;stroke-width:1;" x1="1671.41" x2="1964.5819" y1="301.1079" y2="301.1079"/><text fill="#000000" font-family="Verdana" font-size="14" lengthAdjust="spacing" textLength="283.1719" x="1676.41" y="319.183">+adjustInventory(): InventoryResponse</text><text fill="#000000" font-family="Verdana" font-size="14" lengthAdjust="spacing" textLength="262.1309" x="1676.41" y="336.1977">+getInventory(): InventoryResponse</text><text fill="#000000" font-family="Verdana" font-size="14" lengthAdjust="spacing" textLength="185.8555" x="1676.41" y="353.2123">+reserveInventory(): void</text></g><!--class DomainEventApplicationService--><g class="entity" data-entity="DomainEventApplicationService" data-source-line="40" data-uid="ent0009" id="entity_DomainEventApplicationService"><rect fill="#FFFFFF" height="159.6865" rx="2.5" ry="2.5" style="stroke:#000000;stroke-width:1;" width="289.833" x="2022.08" y="225.9892"/><ellipse cx="2052.7232" cy="246.7885" fill="#FFFFFF" rx="9" ry="9" style="stroke:#000000;stroke-width:1;"/><path d="M2055.1963,252.9316 Q2054.6153,253.2304 2053.9761,253.3798 Q2053.3369,253.5293 2052.6314,253.5293 Q2050.1245,253.5293 2048.8047,251.8774 Q2047.4849,250.2255 2047.4849,247.1045 Q2047.4849,243.9751 2048.8047,242.3232 Q2050.1245,240.6713 2052.6314,240.6713 Q2053.3369,240.6713 2053.9844,240.8208 Q2054.6319,240.9702 2055.1963,241.269 L2055.1963,243.9917 Q2054.5654,243.4106 2053.9719,243.1408 Q2053.3784,242.8711 2052.7476,242.8711 Q2051.4029,242.8711 2050.718,243.9377 Q2050.0332,245.0044 2050.0332,247.1045 Q2050.0332,249.1963 2050.718,250.2629 Q2051.4029,251.3296 2052.7476,251.3296 Q2053.3784,251.3296 2053.9719,251.0598 Q2054.5654,250.79 2055.1963,250.2089 Z " fill="#000000"/><text fill="#000000" font-family="Verdana" font-size="12" font-style="italic" lengthAdjust="spacing" textLength="125.8125" x="2117.0506" y="243.0537">&#171;ApplicationService&#187;</text><text fill="#000000" font-family="Verdana" font-size="14" lengthAdjust="spacing" textLength="222.626" x="2068.6439" y="259.6484">DomainEventApplicationService</text><line style="stroke:#000000;stroke-width:1;" x1="2023.08" x2="2310.913" y1="267.5879" y2="267.5879"/><line style="stroke:#000000;stroke-width:1;" x1="2023.08" x2="2310.913" y1="275.5879" y2="275.5879"/><text fill="#000000" font-family="Verdana" font-size="14" lengthAdjust="spacing" textLength="270.5391" x="2028.08" y="293.663">+publishEventsFromAggregate(): void</text><text fill="#000000" font-family="Verdana" font-size="14" lengthAdjust="spacing" textLength="154.793" x="2028.08" y="310.6777">+publishEvent(): void</text><text fill="#000000" font-family="Verdana" font-size="14" lengthAdjust="spacing" textLength="162.0869" x="2028.08" y="327.6923">+publishEvents(): void</text><text fill="#000000" font-family="Verdana" font-size="14" lengthAdjust="spacing" textLength="277.833" x="2028.08" y="344.707">+publishEventsFromAggregates(): void</text><text fill="#000000" font-family="Verdana" font-size="14" lengthAdjust="spacing" textLength="178.0898" x="2028.08" y="361.7216">+setCorrelationId(): void</text><text fill="#000000" font-family="Verdana" font-size="14" lengthAdjust="spacing" textLength="160.3916" x="2028.08" y="378.7363">+... (5 more methods)</text></g><!--class ProductApplicationService--><g class="entity" data-entity="ProductApplicationService" data-source-line="52" data-uid="ent0011" id="entity_ProductApplicationService"><rect fill="#FFFFFF" height="142.6719" rx="2.5" ry="2.5" style="stroke:#000000;stroke-width:1;" width="283.0654" x="2368.47" y="234.4992"/><ellipse cx="2415.2185" cy="255.2985" fill="#FFFFFF" rx="9" ry="9" style="stroke:#000000;stroke-width:1;"/><path d="M2417.6917,261.4416 Q2417.1106,261.7404 2416.4715,261.8898 Q2415.8323,262.0393 2415.1267,262.0393 Q2412.6199,262.0393 2411.3001,260.3874 Q2409.9803,258.7355 2409.9803,255.6145 Q2409.9803,252.4851 2411.3001,250.8332 Q2412.6199,249.1813 2415.1267,249.1813 Q2415.8323,249.1813 2416.4798,249.3308 Q2417.1272,249.4802 2417.6917,249.779 L2417.6917,252.5017 Q2417.0608,251.9206 2416.4673,251.6508 Q2415.8738,251.3811 2415.2429,251.3811 Q2413.8982,251.3811 2413.2134,252.4477 Q2412.5286,253.5144 2412.5286,255.6145 Q2412.5286,257.7063 2413.2134,258.7729 Q2413.8982,259.8396 2415.2429,259.8396 Q2415.8738,259.8396 2416.4673,259.5698 Q2417.0608,259.3 2417.6917,258.7189 Z " fill="#000000"/><text fill="#000000" font-family="Verdana" font-size="12" font-style="italic" lengthAdjust="spacing" textLength="125.8125" x="2460.8465" y="251.5637">&#171;ApplicationService&#187;</text><text fill="#000000" font-family="Verdana" font-size="14" lengthAdjust="spacing" textLength="182.0684" x="2432.7185" y="268.1584">ProductApplicationService</text><line style="stroke:#000000;stroke-width:1;" x1="2369.47" x2="2650.5354" y1="276.0979" y2="276.0979"/><line style="stroke:#000000;stroke-width:1;" x1="2369.47" x2="2650.5354" y1="284.0979" y2="284.0979"/><text fill="#000000" font-family="Verdana" font-size="14" lengthAdjust="spacing" textLength="271.0654" x="2374.47" y="302.173">+getProduct(): Optional&lt;ProductDto&gt;</text><text fill="#000000" font-family="Verdana" font-size="14" lengthAdjust="spacing" textLength="230.6514" x="2374.47" y="319.1877">+getProducts(): ProductPageDto</text><text fill="#000000" font-family="Verdana" font-size="14" lengthAdjust="spacing" textLength="185.2881" x="2374.47" y="336.2023">+productExists(): boolean</text><text fill="#000000" font-family="Verdana" font-size="14" lengthAdjust="spacing" textLength="215.4346" x="2374.47" y="353.217">+updateProduct(): ProductDto</text><text fill="#000000" font-family="Verdana" font-size="14" lengthAdjust="spacing" textLength="161.2051" x="2374.47" y="370.2316">+deleteProduct(): void</text></g><!--class ObservabilityEventService--><g class="entity" data-entity="ObservabilityEventService" data-source-line="63" data-uid="ent0013" id="entity_ObservabilityEventService"><rect fill="#FFFFFF" height="125.6572" rx="2.5" ry="2.5" style="stroke:#000000;stroke-width:1;" width="268.9424" x="26.53" y="243.0092"/><ellipse cx="65.4548" cy="263.8085" fill="#FFFFFF" rx="9" ry="9" style="stroke:#000000;stroke-width:1;"/><path d="M67.9279,269.9516 Q67.3469,270.2504 66.7077,270.3998 Q66.0686,270.5493 65.363,270.5493 Q62.8562,270.5493 61.5363,268.8974 Q60.2165,267.2455 60.2165,264.1245 Q60.2165,260.9951 61.5363,259.3432 Q62.8562,257.6913 65.363,257.6913 Q66.0686,257.6913 66.716,257.8408 Q67.3635,257.9902 67.9279,258.289 L67.9279,261.0117 Q67.2971,260.4306 66.7036,260.1608 Q66.1101,259.8911 65.4792,259.8911 Q64.1345,259.8911 63.4497,260.9577 Q62.7649,262.0244 62.7649,264.1245 Q62.7649,266.2163 63.4497,267.2829 Q64.1345,268.3496 65.4792,268.3496 Q66.1101,268.3496 66.7036,268.0798 Q67.2971,267.81 67.9279,267.2289 Z " fill="#000000"/><text fill="#000000" font-family="Verdana" font-size="12" font-style="italic" lengthAdjust="spacing" textLength="125.8125" x="111.8449" y="260.0737">&#171;ApplicationService&#187;</text><text fill="#000000" font-family="Verdana" font-size="14" lengthAdjust="spacing" textLength="183.5928" x="82.9548" y="276.6684">ObservabilityEventService</text><line style="stroke:#000000;stroke-width:1;" x1="27.53" x2="294.4724" y1="284.6079" y2="284.6079"/><line style="stroke:#000000;stroke-width:1;" x1="27.53" x2="294.4724" y1="292.6079" y2="292.6079"/><text fill="#000000" font-family="Verdana" font-size="14" lengthAdjust="spacing" textLength="228.2725" x="32.53" y="310.683">+processAnalyticsEvents(): void</text><text fill="#000000" font-family="Verdana" font-size="14" lengthAdjust="spacing" textLength="256.9424" x="32.53" y="327.6977">+processPerformanceMetrics(): void</text><text fill="#000000" font-family="Verdana" font-size="14" lengthAdjust="spacing" textLength="220.9785" x="32.53" y="344.7123">+processAnalyticsEvent(): void</text><text fill="#000000" font-family="Verdana" font-size="14" lengthAdjust="spacing" textLength="249.6484" x="32.53" y="361.727">+processPerformanceMetric(): void</text></g><!--class AnalyticsQueryService--><g class="entity" data-entity="AnalyticsQueryService" data-source-line="70" data-uid="ent0014" id="entity_AnalyticsQueryService"><rect fill="#FFFFFF" height="261.7744" rx="2.5" ry="2.5" style="stroke:#000000;stroke-width:1;" width="387.8057" x="330.1" y="174.9492"/><ellipse cx="441.7353" cy="195.7485" fill="#FFFFFF" rx="9" ry="9" style="stroke:#000000;stroke-width:1;"/><path d="M444.2084,201.8916 Q443.6273,202.1904 442.9882,202.3398 Q442.349,202.4893 441.6435,202.4893 Q439.1366,202.4893 437.8168,200.8374 Q436.497,199.1855 436.497,196.0645 Q436.497,192.9351 437.8168,191.2832 Q439.1366,189.6313 441.6435,189.6313 Q442.349,189.6313 442.9965,189.7808 Q443.6439,189.9302 444.2084,190.229 L444.2084,192.9517 Q443.5775,192.3706 442.984,192.1008 Q442.3905,191.8311 441.7597,191.8311 Q440.4149,191.8311 439.7301,192.8977 Q439.0453,193.9644 439.0453,196.0645 Q439.0453,198.1563 439.7301,199.2229 Q440.4149,200.2896 441.7597,200.2896 Q442.3905,200.2896 442.984,200.0198 Q443.5775,199.75 444.2084,199.1689 Z " fill="#000000"/><text fill="#000000" font-family="Verdana" font-size="12" font-style="italic" lengthAdjust="spacing" textLength="125.8125" x="474.8466" y="192.0137">&#171;ApplicationService&#187;</text><text fill="#000000" font-family="Verdana" font-size="14" lengthAdjust="spacing" textLength="157.0352" x="459.2353" y="208.6084">AnalyticsQueryService</text><line style="stroke:#000000;stroke-width:1;" x1="331.1" x2="716.9057" y1="216.5479" y2="216.5479"/><line style="stroke:#000000;stroke-width:1;" x1="331.1" x2="716.9057" y1="224.5479" y2="224.5479"/><text fill="#000000" font-family="Verdana" font-size="14" lengthAdjust="spacing" textLength="281.2646" x="336.1" y="242.623">+getAnalyticsStats(): AnalyticsStatsDto</text><text fill="#000000" font-family="Verdana" font-size="14" lengthAdjust="spacing" textLength="305.71" x="336.1" y="259.6377">+getBusinessMetrics(): BusinessMetricsDto</text><text fill="#000000" font-family="Verdana" font-size="14" lengthAdjust="spacing" textLength="332.7803" x="336.1" y="276.6523">+getPerformanceStats(): PerformanceStatsDto</text><text fill="#000000" font-family="Verdana" font-size="14" lengthAdjust="spacing" textLength="323.4561" x="336.1" y="293.667">+getUserActivityStats(): UserActivityStatsDto</text><text fill="#000000" font-family="Verdana" font-size="14" lengthAdjust="spacing" textLength="309.1416" x="336.1" y="310.6816">+getRealTimeStats(): Map&lt;String, Object&gt;</text><text fill="#000000" font-family="Verdana" font-size="14" lengthAdjust="spacing" textLength="160.3916" x="336.1" y="327.6963">+... (4 more methods)</text><text fill="#000000" font-family="Verdana" font-size="14" lengthAdjust="spacing" textLength="317.96" x="336.1" y="344.7109">+getUserBehaviorStats(): UserBehaviorStats</text><text fill="#000000" font-family="Verdana" font-size="14" lengthAdjust="spacing" textLength="375.8057" x="336.1" y="361.7256">+getPagePerformanceStats(): PagePerformanceStats</text><text fill="#000000" font-family="Verdana" font-size="14" lengthAdjust="spacing" textLength="353.5205" x="336.1" y="378.7402">+getBusinessMetricsStats(): BusinessMetricsStats</text><text fill="#000000" font-family="Verdana" font-size="14" lengthAdjust="spacing" textLength="238.0342" x="336.1" y="395.7549">+getSessionStats(): SessionStats</text><text fill="#000000" font-family="Verdana" font-size="14" lengthAdjust="spacing" textLength="368.5527" x="336.1" y="412.7695">+getAnalyticsEvents(): Page&lt;AnalyticsEventEntity&gt;</text><text fill="#000000" font-family="Verdana" font-size="14" lengthAdjust="spacing" textLength="169.292" x="336.1" y="429.7842">+... (10 more methods)</text></g><!--class DataRetentionService--><g class="entity" data-entity="DataRetentionService" data-source-line="79" data-uid="ent0015" id="entity_DataRetentionService"><rect fill="#FFFFFF" height="159.6865" rx="2.5" ry="2.5" style="stroke:#000000;stroke-width:1;" width="357.0166" x="27.49" y="496.7192"/><ellipse cx="126.113" cy="517.5185" fill="#FFFFFF" rx="9" ry="9" style="stroke:#000000;stroke-width:1;"/><path d="M128.5862,523.6616 Q128.0051,523.9604 127.366,524.1098 Q126.7268,524.2593 126.0213,524.2593 Q123.5144,524.2593 122.1946,522.6074 Q120.8748,520.9555 120.8748,517.8345 Q120.8748,514.7051 122.1946,513.0532 Q123.5144,511.4013 126.0213,511.4013 Q126.7268,511.4013 127.3743,511.5508 Q128.0217,511.7002 128.5862,511.999 L128.5862,514.7217 Q127.9553,514.1406 127.3618,513.8708 Q126.7683,513.6011 126.1375,513.6011 Q124.7927,513.6011 124.1079,514.6677 Q123.4231,515.7344 123.4231,517.8345 Q123.4231,519.9263 124.1079,520.9929 Q124.7927,522.0596 126.1375,522.0596 Q126.7683,522.0596 127.3618,521.7898 Q127.9553,521.52 128.5862,520.9389 Z " fill="#000000"/><text fill="#000000" font-family="Verdana" font-size="12" font-style="italic" lengthAdjust="spacing" textLength="125.8125" x="156.8421" y="513.7837">&#171;ApplicationService&#187;</text><text fill="#000000" font-family="Verdana" font-size="14" lengthAdjust="spacing" textLength="152.2705" x="143.613" y="530.3784">DataRetentionService</text><line style="stroke:#000000;stroke-width:1;" x1="28.49" x2="383.5066" y1="538.3179" y2="538.3179"/><line style="stroke:#000000;stroke-width:1;" x1="28.49" x2="383.5066" y1="546.3179" y2="546.3179"/><text fill="#000000" font-family="Verdana" font-size="14" lengthAdjust="spacing" textLength="227.8281" x="33.49" y="564.393">+performManualCleanup(): void</text><text fill="#000000" font-family="Verdana" font-size="14" lengthAdjust="spacing" textLength="199.6436" x="33.49" y="581.4077">+performDataCleanup(): int</text><text fill="#000000" font-family="Verdana" font-size="14" lengthAdjust="spacing" textLength="345.0166" x="33.49" y="598.4223">+getDataRetentionStats(): Map&lt;String, Object&gt;</text><text fill="#000000" font-family="Verdana" font-size="14" lengthAdjust="spacing" textLength="226.7754" x="33.49" y="615.437">+setDataRetentionPolicy(): void</text><text fill="#000000" font-family="Verdana" font-size="14" lengthAdjust="spacing" textLength="326.0947" x="33.49" y="632.4516">+checkStorageHealth(): Map&lt;String, Object&gt;</text><text fill="#000000" font-family="Verdana" font-size="14" lengthAdjust="spacing" textLength="160.3916" x="33.49" y="649.4663">+... (1 more methods)</text></g><!--class PaymentApplicationService--><g class="entity" data-entity="PaymentApplicationService" data-source-line="100" data-uid="ent0017" id="entity_PaymentApplicationService"><rect fill="#FFFFFF" height="159.6865" rx="2.5" ry="2.5" style="stroke:#000000;stroke-width:1;" width="315.6865" x="2708.16" y="225.9892"/><ellipse cx="2767.138" cy="246.7885" fill="#FFFFFF" rx="9" ry="9" style="stroke:#000000;stroke-width:1;"/><path d="M2769.6112,252.9316 Q2769.0301,253.2304 2768.391,253.3798 Q2767.7518,253.5293 2767.0462,253.5293 Q2764.5394,253.5293 2763.2196,251.8774 Q2761.8997,250.2255 2761.8997,247.1045 Q2761.8997,243.9751 2763.2196,242.3232 Q2764.5394,240.6713 2767.0462,240.6713 Q2767.7518,240.6713 2768.3993,240.8208 Q2769.0467,240.9702 2769.6112,241.269 L2769.6112,243.9917 Q2768.9803,243.4106 2768.3868,243.1408 Q2767.7933,242.8711 2767.1624,242.8711 Q2765.8177,242.8711 2765.1329,243.9377 Q2764.4481,245.0044 2764.4481,247.1045 Q2764.4481,249.1963 2765.1329,250.2629 Q2765.8177,251.3296 2767.1624,251.3296 Q2767.7933,251.3296 2768.3868,251.0598 Q2768.9803,250.79 2769.6112,250.2089 Z " fill="#000000"/><text fill="#000000" font-family="Verdana" font-size="12" font-style="italic" lengthAdjust="spacing" textLength="125.8125" x="2816.847" y="243.0537">&#171;ApplicationService&#187;</text><text fill="#000000" font-family="Verdana" font-size="14" lengthAdjust="spacing" textLength="190.2305" x="2784.638" y="259.6484">PaymentApplicationService</text><line style="stroke:#000000;stroke-width:1;" x1="2709.16" x2="3022.8465" y1="267.5879" y2="267.5879"/><line style="stroke:#000000;stroke-width:1;" x1="2709.16" x2="3022.8465" y1="275.5879" y2="275.5879"/><text fill="#000000" font-family="Verdana" font-size="14" lengthAdjust="spacing" textLength="303.6865" x="2714.16" y="293.663">+processPayment(): PaymentResponseDto</text><text fill="#000000" font-family="Verdana" font-size="14" lengthAdjust="spacing" textLength="303.6865" x="2714.16" y="310.6777">+processPayment(): PaymentResponseDto</text><text fill="#000000" font-family="Verdana" font-size="14" lengthAdjust="spacing" textLength="211.8047" x="2714.16" y="327.6923">+processPayment(): Payment</text><text fill="#000000" font-family="Verdana" font-size="14" lengthAdjust="spacing" textLength="262.5889" x="2714.16" y="344.707">+getPayment(): Optional&lt;Payment&gt;</text><text fill="#000000" font-family="Verdana" font-size="14" lengthAdjust="spacing" textLength="297.6504" x="2714.16" y="361.7216">+getPaymentDto(): PaymentResponseDto</text><text fill="#000000" font-family="Verdana" font-size="14" lengthAdjust="spacing" textLength="160.3916" x="2714.16" y="378.7363">+... (6 more methods)</text></g><!--class NotificationApplicationService--><g class="entity" data-entity="NotificationApplicationService" data-source-line="112" data-uid="ent0019" id="entity_NotificationApplicationService"><rect fill="#FFFFFF" height="108.6426" rx="2.5" ry="2.5" style="stroke:#000000;stroke-width:1;" width="261.2656" x="3080.37" y="251.5092"/><ellipse cx="3104.6178" cy="272.3085" fill="#FFFFFF" rx="9" ry="9" style="stroke:#000000;stroke-width:1;"/><path d="M3107.0909,278.4516 Q3106.5099,278.7504 3105.8707,278.8998 Q3105.2316,279.0493 3104.526,279.0493 Q3102.0192,279.0493 3100.6993,277.3974 Q3099.3795,275.7455 3099.3795,272.6245 Q3099.3795,269.4951 3100.6993,267.8432 Q3102.0192,266.1913 3104.526,266.1913 Q3105.2316,266.1913 3105.879,266.3408 Q3106.5265,266.4902 3107.0909,266.789 L3107.0909,269.5117 Q3106.4601,268.9306 3105.8666,268.6608 Q3105.2731,268.3911 3104.6422,268.3911 Q3103.2975,268.3911 3102.6127,269.4577 Q3101.9279,270.5244 3101.9279,272.6245 Q3101.9279,274.7163 3102.6127,275.7829 Q3103.2975,276.8496 3104.6422,276.8496 Q3105.2731,276.8496 3105.8666,276.5798 Q3106.4601,276.31 3107.0909,275.7289 Z " fill="#000000"/><text fill="#000000" font-family="Verdana" font-size="12" font-style="italic" lengthAdjust="spacing" textLength="125.8125" x="3160.3463" y="268.5737">&#171;ApplicationService&#187;</text><text fill="#000000" font-family="Verdana" font-size="14" lengthAdjust="spacing" textLength="208.2705" x="3119.1173" y="285.1684">NotificationApplicationService</text><line style="stroke:#000000;stroke-width:1;" x1="3081.37" x2="3340.6356" y1="293.1079" y2="293.1079"/><line style="stroke:#000000;stroke-width:1;" x1="3081.37" x2="3340.6356" y1="301.1079" y2="301.1079"/><text fill="#000000" font-family="Verdana" font-size="14" lengthAdjust="spacing" textLength="200.3477" x="3086.37" y="319.183">+sendWelcomeEmail(): void</text><text fill="#000000" font-family="Verdana" font-size="14" lengthAdjust="spacing" textLength="217.5537" x="3086.37" y="336.1977">+sendOrderNotification(): void</text><text fill="#000000" font-family="Verdana" font-size="14" lengthAdjust="spacing" textLength="249.2656" x="3086.37" y="353.2123">+sendPromotionNotification(): void</text></g><!--class OrderApplicationService--><g class="entity" data-entity="OrderApplicationService" data-source-line="121" data-uid="ent0021" id="entity_OrderApplicationService"><rect fill="#FFFFFF" height="159.6865" rx="2.5" ry="2.5" style="stroke:#000000;stroke-width:1;" width="253.8145" x="3398.09" y="225.9892"/><ellipse cx="3436.8507" cy="246.7885" fill="#FFFFFF" rx="9" ry="9" style="stroke:#000000;stroke-width:1;"/><path d="M3439.3239,252.9316 Q3438.7428,253.2304 3438.1037,253.3798 Q3437.4645,253.5293 3436.7589,253.5293 Q3434.2521,253.5293 3432.9323,251.8774 Q3431.6125,250.2255 3431.6125,247.1045 Q3431.6125,243.9751 3432.9323,242.3232 Q3434.2521,240.6713 3436.7589,240.6713 Q3437.4645,240.6713 3438.112,240.8208 Q3438.7594,240.9702 3439.3239,241.269 L3439.3239,243.9917 Q3438.693,243.4106 3438.0995,243.1408 Q3437.506,242.8711 3436.8752,242.8711 Q3435.5304,242.8711 3434.8456,243.9377 Q3434.1608,245.0044 3434.1608,247.1045 Q3434.1608,249.1963 3434.8456,250.2629 Q3435.5304,251.3296 3436.8752,251.3296 Q3437.506,251.3296 3438.0995,251.0598 Q3438.693,250.79 3439.3239,250.2089 Z " fill="#000000"/><text fill="#000000" font-family="Verdana" font-size="12" font-style="italic" lengthAdjust="spacing" textLength="125.8125" x="3475.841" y="243.0537">&#171;ApplicationService&#187;</text><text fill="#000000" font-family="Verdana" font-size="14" lengthAdjust="spacing" textLength="168.793" x="3454.3507" y="259.6484">OrderApplicationService</text><line style="stroke:#000000;stroke-width:1;" x1="3399.09" x2="3650.9045" y1="267.5879" y2="267.5879"/><line style="stroke:#000000;stroke-width:1;" x1="3399.09" x2="3650.9045" y1="275.5879" y2="275.5879"/><text fill="#000000" font-family="Verdana" font-size="14" lengthAdjust="spacing" textLength="226.4678" x="3404.09" y="293.663">+createOrder(): OrderResponse</text><text fill="#000000" font-family="Verdana" font-size="14" lengthAdjust="spacing" textLength="241.8145" x="3404.09" y="310.6777">+addOrderItem(): OrderResponse</text><text fill="#000000" font-family="Verdana" font-size="14" lengthAdjust="spacing" textLength="230.4463" x="3404.09" y="327.6923">+submitOrder(): OrderResponse</text><text fill="#000000" font-family="Verdana" font-size="14" lengthAdjust="spacing" textLength="226.6318" x="3404.09" y="344.707">+cancelOrder(): OrderResponse</text><text fill="#000000" font-family="Verdana" font-size="14" lengthAdjust="spacing" textLength="205.1738" x="3404.09" y="361.7216">+getOrder(): OrderResponse</text><text fill="#000000" font-family="Verdana" font-size="14" lengthAdjust="spacing" textLength="160.3916" x="3404.09" y="378.7363">+... (2 more methods)</text></g><!--class PromotionApplicationService--><g class="entity" data-entity="PromotionApplicationService" data-source-line="133" data-uid="ent0023" id="entity_PromotionApplicationService"><rect fill="#FFFFFF" height="159.6865" rx="2.5" ry="2.5" style="stroke:#000000;stroke-width:1;" width="352.4365" x="3707.78" y="225.9892"/><ellipse cx="3779.9958" cy="246.7885" fill="#FFFFFF" rx="9" ry="9" style="stroke:#000000;stroke-width:1;"/><path d="M3782.469,252.9316 Q3781.8879,253.2304 3781.2488,253.3798 Q3780.6096,253.5293 3779.904,253.5293 Q3777.3972,253.5293 3776.0774,251.8774 Q3774.7575,250.2255 3774.7575,247.1045 Q3774.7575,243.9751 3776.0774,242.3232 Q3777.3972,240.6713 3779.904,240.6713 Q3780.6096,240.6713 3781.2571,240.8208 Q3781.9045,240.9702 3782.469,241.269 L3782.469,243.9917 Q3781.8381,243.4106 3781.2446,243.1408 Q3780.6511,242.8711 3780.0202,242.8711 Q3778.6755,242.8711 3777.9907,243.9377 Q3777.3059,245.0044 3777.3059,247.1045 Q3777.3059,249.1963 3777.9907,250.2629 Q3778.6755,251.3296 3780.0202,251.3296 Q3780.6511,251.3296 3781.2446,251.0598 Q3781.8381,250.79 3782.469,250.2089 Z " fill="#000000"/><text fill="#000000" font-family="Verdana" font-size="12" font-style="italic" lengthAdjust="spacing" textLength="125.8125" x="3834.842" y="243.0537">&#171;ApplicationService&#187;</text><text fill="#000000" font-family="Verdana" font-size="14" lengthAdjust="spacing" textLength="200.5049" x="3797.4958" y="259.6484">PromotionApplicationService</text><line style="stroke:#000000;stroke-width:1;" x1="3708.78" x2="4059.2165" y1="267.5879" y2="267.5879"/><line style="stroke:#000000;stroke-width:1;" x1="3708.78" x2="4059.2165" y1="275.5879" y2="275.5879"/><text fill="#000000" font-family="Verdana" font-size="14" lengthAdjust="spacing" textLength="314.2207" x="3713.78" y="293.663">+createFlashSalePromotion(): PromotionDto</text><text fill="#000000" font-family="Verdana" font-size="14" lengthAdjust="spacing" textLength="323.8184" x="3713.78" y="310.6777">+getActivePromotions(): List&lt;PromotionDto&gt;</text><text fill="#000000" font-family="Verdana" font-size="14" lengthAdjust="spacing" textLength="332.8281" x="3713.78" y="327.6923">+getPromotionsByType(): List&lt;PromotionDto&gt;</text><text fill="#000000" font-family="Verdana" font-size="14" lengthAdjust="spacing" textLength="340.4365" x="3713.78" y="344.707">+getPromotionById(): Optional&lt;PromotionDto&gt;</text><text fill="#000000" font-family="Verdana" font-size="14" lengthAdjust="spacing" textLength="270.7031" x="3713.78" y="361.7216">+getFlashSales(): List&lt;FlashSaleDto&gt;</text><text fill="#000000" font-family="Verdana" font-size="14" lengthAdjust="spacing" textLength="160.3916" x="3713.78" y="378.7363">+... (3 more methods)</text></g><!--SRC=[fLTHSzis37xth-3wrDxMN98ssvhpvSvEqorto-p6sUqbBxI4McmaaaTIxjHU__j0qQ98MRRizCq2Fu301n20Vp8P541aJXaVwIV69LMq84bEjPuOezYoD72R2BvWNu6SZaQ6cHp8HCgS9TGmmSa2r9ebeCbiRN_1bqV-1t1Gr41wISvFpozUdxvxVNv6pjvTlltzykAtH_x8HoD9aoUw0lBYkjH65A1wZRuWtqR4kKCQO83RmCXul2sykgfr2Vcvb2j5KsZqxw1OWj8ParEg8PtnXGIUChvw-UgIh0LBdHPDqtluGbKw5umR7H-MCiNu6elz1bPW6a2jtNpCCUptHco1B6OcRGGq7pT215uvvCd92NbvHWgXW1HWCf7gLtZoVJJw7h2vo8IKw4f2bHbaj05V8_XeLXC5I45emWOGVliWaSfR0yM3s8jod5hWnv9oBBHg9rH18TOrz8CInLwhI73NHqzoHo4a-do8w5k-1cw4gWPPziYZAQRfPom3hszzzn_teANW6doKXy0KQBm38kYcO3lXNOkYm7Y6Odil2kmSDzRSqT79SfapdTNAskPnibefM64DnEyenEq-qNkE8kCTeCO7A9I2l7RoDerFwrgu6Ag5kH9fcGo_jmtkQAOmknlLg7mtihPoMrmTvEPtr6-aaztynxG3BON8WVBm2GPtjLSuG0evH83-wfajRPtH9Sln5G_I4g7hZ1rOG4gW9Jr1BYh34jrR1mup1_L9g8Bo1Eu0nrhI3ujD7MOfPg69oLlwM8Ag3awpLriOwaA99M5RcvQQSVGe2AWZ2j61tzvsLnRY_y6SJ1B3rfWJhx0b33NkWUOFh6ZDtr4vNg0ZVFKBvlWp92Rii6_xNfNlAzJGUwmqVaGxSS7SKLxI_DhMT2ax6NG8Qpiun-7kGuYl7On3TpJc0hshuakJ39Ad1JPRV1X_8aCc6wRcR1yrpwmicxefP7JDX8ho6GdRSa5tUqkcHxwh8hrIdxoTpdWGiXr-Rx-BzerRJyQn_ARU6Y8cJmTxDwqAL1tktGvt_9JRj0sdxXolVpQJEMpDFueCqkUFsd7XP5TT49hTTrdDuwz3DFuj3FlKy3V4PGW-cb2Dk_Q_a2Uu7T_Wyf5tnpbFPoe55Twn3S49LWXxj0FMdMVMul0SiwXdxj6rRfqk-oFUsd1zhgLstzq1qUMoO6QVaSG-rtmV0YjYt_5XQx4dzf1bo26VoTW7j98jQ0xUq6PXSH_XPAf7LekhsyTVk02DGtIqGss0q-gXad0eV5gvzJ5Sq7hmtl7M3o_g_0jviuFk_m40]--></g></svg>