<svg xmlns="http://www.w3.org/2000/svg" xmlns:xlink="http://www.w3.org/1999/xlink" contentStyleType="text/css" height="4665.625px" preserveAspectRatio="none" style="width:3662px;height:4665px;background:#FFFFFF;" version="1.1" viewBox="0 0 3662 4665" width="3662.5px" zoomAndPan="magnify"><title>Bounded Contexts Overview</title><defs/><g><text fill="#000000" font-family="Verdana" font-size="68.75" font-weight="bold" lengthAdjust="spacing" textLength="1091.4398" x="1271.4676" y="115.9943">Bounded Contexts Overview</text><text fill="#000000" font-family="Verdana" font-size="68.75" font-weight="bold" lengthAdjust="spacing" textLength="909.3597" x="1362.5076" y="199.5483">Generated: 2025-09-22</text><text fill="#000000" font-family="Verdana" font-size="68.75" font-weight="bold" lengthAdjust="spacing" textLength="23.4985" x="1805.4382" y="283.1024">&#160;</text><text fill="#000000" font-family="Verdana" font-size="68.75" font-weight="bold" lengthAdjust="spacing" textLength="23.4985" x="1805.4382" y="366.6565">&#160;</text><!--cluster Customer--><g id="cluster_Customer"><rect fill="#ADD8E6" height="456.375" rx="7.8125" ry="7.8125" style="stroke:#00008B;stroke-width:3.125;" width="640.625" x="1228.125" y="437.3413"/><text fill="#000000" font-family="Verdana" font-size="37.5" font-weight="bold" lengthAdjust="spacing" textLength="378.717" x="1359.079" y="481.2927">Customer Context</text></g><!--cluster Order--><g id="cluster_Order"><rect fill="#ADD8E6" height="456.375" rx="7.8125" ry="7.8125" style="stroke:#00008B;stroke-width:3.125;" width="1209.375" x="759.375" y="1706.3726"/><text fill="#000000" font-family="Verdana" font-size="37.5" font-weight="bold" lengthAdjust="spacing" textLength="296.8506" x="1215.6372" y="1750.324">Order Context</text></g><!--cluster Product--><g id="cluster_Product"><rect fill="#ADD8E6" height="456.375" rx="7.8125" ry="7.8125" style="stroke:#00008B;stroke-width:3.125;" width="596.875" x="506.25" y="2365.8726"/><text fill="#000000" font-family="Verdana" font-size="37.5" font-weight="bold" lengthAdjust="spacing" textLength="340.5212" x="634.4269" y="2409.824">Product Context</text></g><!--cluster Payment--><g id="cluster_Payment"><rect fill="#ADD8E6" height="456.375" rx="7.8125" ry="7.8125" style="stroke:#00008B;stroke-width:3.125;" width="1231.25" x="2181.25" y="2365.8726"/><text fill="#000000" font-family="Verdana" font-size="37.5" font-weight="bold" lengthAdjust="spacing" textLength="361.8896" x="2615.9302" y="2409.824">Payment Context</text></g><!--cluster ShoppingCart--><g id="cluster_ShoppingCart"><rect fill="#ADD8E6" height="456.4062" rx="7.8125" ry="7.8125" style="stroke:#00008B;stroke-width:3.125;" width="668.75" x="918.75" y="1096.8413"/><text fill="#000000" font-family="Verdana" font-size="37.5" font-weight="bold" lengthAdjust="spacing" textLength="461.7737" x="1022.2382" y="1140.7927">ShoppingCart Context</text></g><!--cluster Inventory--><g id="cluster_Inventory"><rect fill="#ADD8E6" height="456.375" rx="7.8125" ry="7.8125" style="stroke:#00008B;stroke-width:3.125;" width="596.875" x="1228.125" y="2365.8726"/><text fill="#000000" font-family="Verdana" font-size="37.5" font-weight="bold" lengthAdjust="spacing" textLength="385.6201" x="1333.7524" y="2409.824">Inventory Context</text></g><!--cluster Pricing--><g id="cluster_Pricing"><rect fill="#ADD8E6" height="456.4063" rx="7.8125" ry="7.8125" style="stroke:#00008B;stroke-width:3.125;" width="640.625" x="450" y="3025.3726"/><text fill="#000000" font-family="Verdana" font-size="37.5" font-weight="bold" lengthAdjust="spacing" textLength="323.3276" x="608.6487" y="3069.324">Pricing Context</text></g><!--cluster Promotion--><g id="cluster_Promotion"><rect fill="#ADD8E6" height="456.4063" rx="7.8125" ry="7.8125" style="stroke:#00008B;stroke-width:3.125;" width="1137.5" x="2275" y="3025.3726"/><text fill="#000000" font-family="Verdana" font-size="37.5" font-weight="bold" lengthAdjust="spacing" textLength="396.2219" x="2645.639" y="3069.324">Promotion Context</text></g><!--cluster Seller--><g id="cluster_Seller"><rect fill="#ADD8E6" height="456.375" rx="7.8125" ry="7.8125" style="stroke:#00008B;stroke-width:3.125;" width="596.875" x="37.5" y="1706.3726"/><text fill="#000000" font-family="Verdana" font-size="37.5" font-weight="bold" lengthAdjust="spacing" textLength="297.29" x="187.2925" y="1750.324">Seller Context</text></g><!--cluster Delivery--><g id="cluster_Delivery"><rect fill="#ADD8E6" height="456.4063" rx="7.8125" ry="7.8125" style="stroke:#00008B;stroke-width:3.125;" width="596.875" x="1446.875" y="3025.3726"/><text fill="#000000" font-family="Verdana" font-size="37.5" font-weight="bold" lengthAdjust="spacing" textLength="350.5554" x="1570.0348" y="3069.324">Delivery Context</text></g><!--cluster Review--><g id="cluster_Review"><rect fill="#ADD8E6" height="456.375" rx="7.8125" ry="7.8125" style="stroke:#00008B;stroke-width:3.125;" width="706.25" x="603.125" y="3634.9038"/><text fill="#000000" font-family="Verdana" font-size="37.5" font-weight="bold" lengthAdjust="spacing" textLength="329.6265" x="791.4368" y="3678.8552">Review Context</text></g><!--cluster Notification--><g id="cluster_Notification"><rect fill="#ADD8E6" height="456.375" rx="7.8125" ry="7.8125" style="stroke:#00008B;stroke-width:3.125;" width="1371.875" x="2040.625" y="3634.9038"/><text fill="#000000" font-family="Verdana" font-size="37.5" font-weight="bold" lengthAdjust="spacing" textLength="422.0947" x="2515.5151" y="3678.8552">Notification Context</text></g><!--cluster Observability--><g id="cluster_Observability"><rect fill="#ADD8E6" height="403.2187" rx="7.8125" ry="7.8125" style="stroke:#00008B;stroke-width:3.125;" width="1496.875" x="165.625" y="4244.4038"/><text fill="#000000" font-family="Verdana" font-size="37.5" font-weight="bold" lengthAdjust="spacing" textLength="456.0425" x="686.0413" y="4288.3552">Observability Context</text></g><!--entity Customer_1--><g id="elem_Customer_1"><rect fill="#FFFFFF" height="253.2623" rx="7.8125" ry="7.8125" style="stroke:#000000;stroke-width:3.125;" width="431.25" x="1303.125" y="565.4663"/><rect fill="#FFFFFF" height="31.25" style="stroke:#000000;stroke-width:3.125;" width="46.875" x="1671.875" y="581.0913"/><rect fill="#FFFFFF" height="6.25" style="stroke:#000000;stroke-width:3.125;" width="12.5" x="1665.625" y="587.3413"/><rect fill="#FFFFFF" height="6.25" style="stroke:#000000;stroke-width:3.125;" width="12.5" x="1665.625" y="599.8413"/><text fill="#000000" font-family="Verdana" font-size="43.75" font-weight="bold" lengthAdjust="spacing" textLength="235.8398" x="1350" y="671.9513">Customer</text><text fill="#000000" font-family="Verdana" font-size="43.75" lengthAdjust="spacing" textLength="218.75" x="1350" y="725.1221">&#23458;&#25142;&#32858;&#21512;&#26681;</text><text fill="#000000" font-family="Verdana" font-size="43.75" lengthAdjust="spacing" textLength="306.25" x="1350" y="778.2928">&#28040;&#36027;&#32773;&#21151;&#33021;&#31649;&#29702;</text></g><!--entity Order_1--><g id="elem_Order_1"><rect fill="#FFFFFF" height="253.2623" rx="7.8125" ry="7.8125" style="stroke:#000000;stroke-width:3.125;" width="387.5" x="834.375" y="1834.4976"/><rect fill="#FFFFFF" height="31.25" style="stroke:#000000;stroke-width:3.125;" width="46.875" x="1159.375" y="1850.1226"/><rect fill="#FFFFFF" height="6.25" style="stroke:#000000;stroke-width:3.125;" width="12.5" x="1153.125" y="1856.3726"/><rect fill="#FFFFFF" height="6.25" style="stroke:#000000;stroke-width:3.125;" width="12.5" x="1153.125" y="1868.8726"/><text fill="#000000" font-family="Verdana" font-size="43.75" font-weight="bold" lengthAdjust="spacing" textLength="140.329" x="881.25" y="1940.9825">Order</text><text fill="#000000" font-family="Verdana" font-size="43.75" lengthAdjust="spacing" textLength="218.75" x="881.25" y="1994.1533">&#35330;&#21934;&#32858;&#21512;&#26681;</text><text fill="#000000" font-family="Verdana" font-size="43.75" lengthAdjust="spacing" textLength="262.5" x="881.25" y="2047.3241">&#35330;&#21934;&#26989;&#21209;&#35215;&#21063;</text></g><!--entity OrderWorkflow--><g id="elem_OrderWorkflow"><rect fill="#FFFFFF" height="253.2623" rx="7.8125" ry="7.8125" style="stroke:#000000;stroke-width:3.125;" width="502.1515" x="1330.1875" y="1834.4976"/><rect fill="#FFFFFF" height="31.25" style="stroke:#000000;stroke-width:3.125;" width="46.875" x="1769.839" y="1850.1226"/><rect fill="#FFFFFF" height="6.25" style="stroke:#000000;stroke-width:3.125;" width="12.5" x="1763.589" y="1856.3726"/><rect fill="#FFFFFF" height="6.25" style="stroke:#000000;stroke-width:3.125;" width="12.5" x="1763.589" y="1868.8726"/><text fill="#000000" font-family="Verdana" font-size="43.75" font-weight="bold" lengthAdjust="spacing" textLength="377.1515" x="1377.0625" y="1940.9825">OrderWorkflow</text><text fill="#000000" font-family="Verdana" font-size="43.75" lengthAdjust="spacing" textLength="218.75" x="1377.0625" y="1994.1533">&#35330;&#21934;&#24037;&#20316;&#27969;</text><text fill="#000000" font-family="Verdana" font-size="43.75" lengthAdjust="spacing" textLength="262.5" x="1377.0625" y="2047.3241">&#29983;&#21629;&#36913;&#26399;&#31649;&#29702;</text></g><!--entity Product_1--><g id="elem_Product_1"><rect fill="#FFFFFF" height="253.2623" rx="7.8125" ry="7.8125" style="stroke:#000000;stroke-width:3.125;" width="387.5" x="581.25" y="2493.9976"/><rect fill="#FFFFFF" height="31.25" style="stroke:#000000;stroke-width:3.125;" width="46.875" x="906.25" y="2509.6226"/><rect fill="#FFFFFF" height="6.25" style="stroke:#000000;stroke-width:3.125;" width="12.5" x="900" y="2515.8726"/><rect fill="#FFFFFF" height="6.25" style="stroke:#000000;stroke-width:3.125;" width="12.5" x="900" y="2528.3726"/><text fill="#000000" font-family="Verdana" font-size="43.75" font-weight="bold" lengthAdjust="spacing" textLength="191.2781" x="628.125" y="2600.4825">Product</text><text fill="#000000" font-family="Verdana" font-size="43.75" lengthAdjust="spacing" textLength="218.75" x="628.125" y="2653.6533">&#29986;&#21697;&#32858;&#21512;&#26681;</text><text fill="#000000" font-family="Verdana" font-size="43.75" lengthAdjust="spacing" textLength="262.5" x="628.125" y="2706.8241">&#21830;&#21697;&#20449;&#24687;&#31649;&#29702;</text></g><!--entity Payment_1--><g id="elem_Payment_1"><rect fill="#FFFFFF" height="253.2623" rx="7.8125" ry="7.8125" style="stroke:#000000;stroke-width:3.125;" width="387.5" x="2256.25" y="2493.9976"/><rect fill="#FFFFFF" height="31.25" style="stroke:#000000;stroke-width:3.125;" width="46.875" x="2581.25" y="2509.6226"/><rect fill="#FFFFFF" height="6.25" style="stroke:#000000;stroke-width:3.125;" width="12.5" x="2575" y="2515.8726"/><rect fill="#FFFFFF" height="6.25" style="stroke:#000000;stroke-width:3.125;" width="12.5" x="2575" y="2528.3726"/><text fill="#000000" font-family="Verdana" font-size="43.75" font-weight="bold" lengthAdjust="spacing" textLength="216.2079" x="2303.125" y="2600.4825">Payment</text><text fill="#000000" font-family="Verdana" font-size="43.75" lengthAdjust="spacing" textLength="218.75" x="2303.125" y="2653.6533">&#25903;&#20184;&#32858;&#21512;&#26681;</text><text fill="#000000" font-family="Verdana" font-size="43.75" lengthAdjust="spacing" textLength="262.5" x="2303.125" y="2706.8241">&#25903;&#20184;&#27969;&#31243;&#31649;&#29702;</text></g><!--entity PaymentMethod--><g id="elem_PaymentMethod"><rect fill="#FFFFFF" height="253.2623" rx="7.8125" ry="7.8125" style="stroke:#000000;stroke-width:3.125;" width="523.4497" x="2753.9063" y="2493.9976"/><rect fill="#FFFFFF" height="31.25" style="stroke:#000000;stroke-width:3.125;" width="46.875" x="3214.856" y="2509.6226"/><rect fill="#FFFFFF" height="6.25" style="stroke:#000000;stroke-width:3.125;" width="12.5" x="3208.606" y="2515.8726"/><rect fill="#FFFFFF" height="6.25" style="stroke:#000000;stroke-width:3.125;" width="12.5" x="3208.606" y="2528.3726"/><text fill="#000000" font-family="Verdana" font-size="43.75" font-weight="bold" lengthAdjust="spacing" textLength="398.4497" x="2800.7813" y="2600.4825">PaymentMethod</text><text fill="#000000" font-family="Verdana" font-size="43.75" lengthAdjust="spacing" textLength="175" x="2800.7813" y="2653.6533">&#25903;&#20184;&#26041;&#24335;</text><text fill="#000000" font-family="Verdana" font-size="43.75" lengthAdjust="spacing" textLength="262.5" x="2800.7813" y="2706.8241">&#25903;&#20184;&#37197;&#32622;&#31649;&#29702;</text></g><!--entity ShoppingCart_1--><g id="elem_ShoppingCart_1"><rect fill="#FFFFFF" height="253.2623" rx="7.8125" ry="7.8125" style="stroke:#000000;stroke-width:3.125;" width="457.7393" x="993" y="1224.9663"/><rect fill="#FFFFFF" height="31.25" style="stroke:#000000;stroke-width:3.125;" width="46.875" x="1388.2393" y="1240.5913"/><rect fill="#FFFFFF" height="6.25" style="stroke:#000000;stroke-width:3.125;" width="12.5" x="1381.9893" y="1246.8413"/><rect fill="#FFFFFF" height="6.25" style="stroke:#000000;stroke-width:3.125;" width="12.5" x="1381.9893" y="1259.3413"/><text fill="#000000" font-family="Verdana" font-size="43.75" font-weight="bold" lengthAdjust="spacing" textLength="332.7393" x="1039.875" y="1331.4513">ShoppingCart</text><text fill="#000000" font-family="Verdana" font-size="43.75" lengthAdjust="spacing" textLength="262.5" x="1039.875" y="1384.6221">&#36092;&#29289;&#36554;&#32858;&#21512;&#26681;</text><text fill="#000000" font-family="Verdana" font-size="43.75" lengthAdjust="spacing" textLength="306.25" x="1039.875" y="1437.7928">&#36092;&#29289;&#36554;&#29376;&#24907;&#31649;&#29702;</text></g><!--entity Inventory_1--><g id="elem_Inventory_1"><rect fill="#FFFFFF" height="253.2623" rx="7.8125" ry="7.8125" style="stroke:#000000;stroke-width:3.125;" width="387.5" x="1303.125" y="2493.9976"/><rect fill="#FFFFFF" height="31.25" style="stroke:#000000;stroke-width:3.125;" width="46.875" x="1628.125" y="2509.6226"/><rect fill="#FFFFFF" height="6.25" style="stroke:#000000;stroke-width:3.125;" width="12.5" x="1621.875" y="2515.8726"/><rect fill="#FFFFFF" height="6.25" style="stroke:#000000;stroke-width:3.125;" width="12.5" x="1621.875" y="2528.3726"/><text fill="#000000" font-family="Verdana" font-size="43.75" font-weight="bold" lengthAdjust="spacing" textLength="243.8934" x="1350" y="2600.4825">Inventory</text><text fill="#000000" font-family="Verdana" font-size="43.75" lengthAdjust="spacing" textLength="218.75" x="1350" y="2653.6533">&#24235;&#23384;&#32858;&#21512;&#26681;</text><text fill="#000000" font-family="Verdana" font-size="43.75" lengthAdjust="spacing" textLength="262.5" x="1350" y="2706.8241">&#24235;&#23384;&#38928;&#30041;&#31649;&#29702;</text></g><!--entity PricingRule--><g id="elem_PricingRule"><rect fill="#FFFFFF" height="253.2623" rx="7.8125" ry="7.8125" style="stroke:#000000;stroke-width:3.125;" width="431.25" x="525" y="3153.4976"/><rect fill="#FFFFFF" height="31.25" style="stroke:#000000;stroke-width:3.125;" width="46.875" x="893.75" y="3169.1226"/><rect fill="#FFFFFF" height="6.25" style="stroke:#000000;stroke-width:3.125;" width="12.5" x="887.5" y="3175.3726"/><rect fill="#FFFFFF" height="6.25" style="stroke:#000000;stroke-width:3.125;" width="12.5" x="887.5" y="3187.8726"/><text fill="#000000" font-family="Verdana" font-size="43.75" font-weight="bold" lengthAdjust="spacing" textLength="280.6152" x="571.875" y="3259.9825">PricingRule</text><text fill="#000000" font-family="Verdana" font-size="43.75" lengthAdjust="spacing" textLength="306.25" x="571.875" y="3313.1533">&#23450;&#20729;&#35215;&#21063;&#32858;&#21512;&#26681;</text><text fill="#000000" font-family="Verdana" font-size="43.75" lengthAdjust="spacing" textLength="262.5" x="571.875" y="3366.3241">&#23450;&#20729;&#25240;&#25187;&#31649;&#29702;</text></g><!--entity Promotion_1--><g id="elem_Promotion_1"><rect fill="#FFFFFF" height="253.2623" rx="7.8125" ry="7.8125" style="stroke:#000000;stroke-width:3.125;" width="387.5" x="2350" y="3153.4976"/><rect fill="#FFFFFF" height="31.25" style="stroke:#000000;stroke-width:3.125;" width="46.875" x="2675" y="3169.1226"/><rect fill="#FFFFFF" height="6.25" style="stroke:#000000;stroke-width:3.125;" width="12.5" x="2668.75" y="3175.3726"/><rect fill="#FFFFFF" height="6.25" style="stroke:#000000;stroke-width:3.125;" width="12.5" x="2668.75" y="3187.8726"/><text fill="#000000" font-family="Verdana" font-size="43.75" font-weight="bold" lengthAdjust="spacing" textLength="256.2622" x="2396.875" y="3259.9825">Promotion</text><text fill="#000000" font-family="Verdana" font-size="43.75" lengthAdjust="spacing" textLength="218.75" x="2396.875" y="3313.1533">&#20419;&#37559;&#32858;&#21512;&#26681;</text><text fill="#000000" font-family="Verdana" font-size="43.75" lengthAdjust="spacing" textLength="262.5" x="2396.875" y="3366.3241">&#20419;&#37559;&#27963;&#21205;&#31649;&#29702;</text></g><!--entity Voucher--><g id="elem_Voucher"><rect fill="#FFFFFF" height="253.2623" rx="7.8125" ry="7.8125" style="stroke:#000000;stroke-width:3.125;" width="431.25" x="2846.875" y="3153.4976"/><rect fill="#FFFFFF" height="31.25" style="stroke:#000000;stroke-width:3.125;" width="46.875" x="3215.625" y="3169.1226"/><rect fill="#FFFFFF" height="6.25" style="stroke:#000000;stroke-width:3.125;" width="12.5" x="3209.375" y="3175.3726"/><rect fill="#FFFFFF" height="6.25" style="stroke:#000000;stroke-width:3.125;" width="12.5" x="3209.375" y="3187.8726"/><text fill="#000000" font-family="Verdana" font-size="43.75" font-weight="bold" lengthAdjust="spacing" textLength="202.3224" x="2893.75" y="3259.9825">Voucher</text><text fill="#000000" font-family="Verdana" font-size="43.75" lengthAdjust="spacing" textLength="262.5" x="2893.75" y="3313.1533">&#20778;&#24800;&#21048;&#32858;&#21512;&#26681;</text><text fill="#000000" font-family="Verdana" font-size="43.75" lengthAdjust="spacing" textLength="306.25" x="2893.75" y="3366.3241">&#20778;&#24800;&#21048;&#29983;&#21629;&#36913;&#26399;</text></g><!--entity Seller_1--><g id="elem_Seller_1"><rect fill="#FFFFFF" height="253.2623" rx="7.8125" ry="7.8125" style="stroke:#000000;stroke-width:3.125;" width="387.5" x="112.5" y="1834.4976"/><rect fill="#FFFFFF" height="31.25" style="stroke:#000000;stroke-width:3.125;" width="46.875" x="437.5" y="1850.1226"/><rect fill="#FFFFFF" height="6.25" style="stroke:#000000;stroke-width:3.125;" width="12.5" x="431.25" y="1856.3726"/><rect fill="#FFFFFF" height="6.25" style="stroke:#000000;stroke-width:3.125;" width="12.5" x="431.25" y="1868.8726"/><text fill="#000000" font-family="Verdana" font-size="43.75" font-weight="bold" lengthAdjust="spacing" textLength="140.8417" x="159.375" y="1940.9825">Seller</text><text fill="#000000" font-family="Verdana" font-size="43.75" lengthAdjust="spacing" textLength="218.75" x="159.375" y="1994.1533">&#36067;&#23478;&#32858;&#21512;&#26681;</text><text fill="#000000" font-family="Verdana" font-size="43.75" lengthAdjust="spacing" textLength="262.5" x="159.375" y="2047.3241">&#36067;&#23478;&#36039;&#35338;&#31649;&#29702;</text></g><!--entity Delivery_1--><g id="elem_Delivery_1"><rect fill="#FFFFFF" height="253.2623" rx="7.8125" ry="7.8125" style="stroke:#000000;stroke-width:3.125;" width="387.5" x="1521.875" y="3153.4976"/><rect fill="#FFFFFF" height="31.25" style="stroke:#000000;stroke-width:3.125;" width="46.875" x="1846.875" y="3169.1226"/><rect fill="#FFFFFF" height="6.25" style="stroke:#000000;stroke-width:3.125;" width="12.5" x="1840.625" y="3175.3726"/><rect fill="#FFFFFF" height="6.25" style="stroke:#000000;stroke-width:3.125;" width="12.5" x="1840.625" y="3187.8726"/><text fill="#000000" font-family="Verdana" font-size="43.75" font-weight="bold" lengthAdjust="spacing" textLength="202.9846" x="1568.75" y="3259.9825">Delivery</text><text fill="#000000" font-family="Verdana" font-size="43.75" lengthAdjust="spacing" textLength="218.75" x="1568.75" y="3313.1533">&#37197;&#36865;&#32858;&#21512;&#26681;</text><text fill="#000000" font-family="Verdana" font-size="43.75" lengthAdjust="spacing" textLength="262.5" x="1568.75" y="3366.3241">&#37197;&#36865;&#27969;&#31243;&#31649;&#29702;</text></g><!--entity ProductReview--><g id="elem_ProductReview"><rect fill="#FFFFFF" height="253.2623" rx="7.8125" ry="7.8125" style="stroke:#000000;stroke-width:3.125;" width="494.8456" x="677.5625" y="3763.0288"/><rect fill="#FFFFFF" height="31.25" style="stroke:#000000;stroke-width:3.125;" width="46.875" x="1109.9081" y="3778.6538"/><rect fill="#FFFFFF" height="6.25" style="stroke:#000000;stroke-width:3.125;" width="12.5" x="1103.6581" y="3784.9038"/><rect fill="#FFFFFF" height="6.25" style="stroke:#000000;stroke-width:3.125;" width="12.5" x="1103.6581" y="3797.4038"/><text fill="#000000" font-family="Verdana" font-size="43.75" font-weight="bold" lengthAdjust="spacing" textLength="369.8456" x="724.4375" y="3869.5138">ProductReview</text><text fill="#000000" font-family="Verdana" font-size="43.75" lengthAdjust="spacing" textLength="306.25" x="724.4375" y="3922.6846">&#21830;&#21697;&#35413;&#20729;&#32858;&#21512;&#26681;</text><text fill="#000000" font-family="Verdana" font-size="43.75" lengthAdjust="spacing" textLength="262.5" x="724.4375" y="3975.8553">&#35413;&#20729;&#35413;&#20998;&#31649;&#29702;</text></g><!--entity Notification_1--><g id="elem_Notification_1"><rect fill="#FFFFFF" height="253.2623" rx="7.8125" ry="7.8125" style="stroke:#000000;stroke-width:3.125;" width="411.4471" x="2116.1563" y="3763.0288"/><rect fill="#FFFFFF" height="31.25" style="stroke:#000000;stroke-width:3.125;" width="46.875" x="2465.1034" y="3778.6538"/><rect fill="#FFFFFF" height="6.25" style="stroke:#000000;stroke-width:3.125;" width="12.5" x="2458.8534" y="3784.9038"/><rect fill="#FFFFFF" height="6.25" style="stroke:#000000;stroke-width:3.125;" width="12.5" x="2458.8534" y="3797.4038"/><text fill="#000000" font-family="Verdana" font-size="43.75" font-weight="bold" lengthAdjust="spacing" textLength="286.4471" x="2163.0313" y="3869.5138">Notification</text><text fill="#000000" font-family="Verdana" font-size="43.75" lengthAdjust="spacing" textLength="218.75" x="2163.0313" y="3922.6846">&#36890;&#30693;&#32858;&#21512;&#26681;</text><text fill="#000000" font-family="Verdana" font-size="43.75" lengthAdjust="spacing" textLength="262.5" x="2163.0313" y="3975.8553">&#36890;&#30693;&#30332;&#36865;&#31649;&#29702;</text></g><!--entity NotificationTemplate--><g id="elem_NotificationTemplate"><rect fill="#FFFFFF" height="253.2623" rx="7.8125" ry="7.8125" style="stroke:#000000;stroke-width:3.125;" width="640.3656" x="2636.0625" y="3763.0288"/><rect fill="#FFFFFF" height="31.25" style="stroke:#000000;stroke-width:3.125;" width="46.875" x="3213.9281" y="3778.6538"/><rect fill="#FFFFFF" height="6.25" style="stroke:#000000;stroke-width:3.125;" width="12.5" x="3207.6781" y="3784.9038"/><rect fill="#FFFFFF" height="6.25" style="stroke:#000000;stroke-width:3.125;" width="12.5" x="3207.6781" y="3797.4038"/><text fill="#000000" font-family="Verdana" font-size="43.75" font-weight="bold" lengthAdjust="spacing" textLength="515.3656" x="2682.9375" y="3869.5138">NotificationTemplate</text><text fill="#000000" font-family="Verdana" font-size="43.75" lengthAdjust="spacing" textLength="175" x="2682.9375" y="3922.6846">&#36890;&#30693;&#27169;&#26495;</text><text fill="#000000" font-family="Verdana" font-size="43.75" lengthAdjust="spacing" textLength="262.5" x="2682.9375" y="3975.8553">&#27169;&#26495;&#26684;&#24335;&#31649;&#29702;</text></g><!--entity AnalyticsSession--><g id="elem_AnalyticsSession"><rect fill="#FFFFFF" height="200.0916" rx="7.8125" ry="7.8125" style="stroke:#000000;stroke-width:3.125;" width="537.5702" x="240.5937" y="4372.5288"/><rect fill="#FFFFFF" height="31.25" style="stroke:#000000;stroke-width:3.125;" width="46.875" x="715.6639" y="4388.1538"/><rect fill="#FFFFFF" height="6.25" style="stroke:#000000;stroke-width:3.125;" width="12.5" x="709.4139" y="4394.4038"/><rect fill="#FFFFFF" height="6.25" style="stroke:#000000;stroke-width:3.125;" width="12.5" x="709.4139" y="4406.9038"/><text fill="#000000" font-family="Verdana" font-size="43.75" font-weight="bold" lengthAdjust="spacing" textLength="412.5702" x="287.4688" y="4479.0138">AnalyticsSession</text><text fill="#000000" font-family="Verdana" font-size="43.75" lengthAdjust="spacing" textLength="306.25" x="287.4688" y="4532.1846">&#20998;&#26512;&#26371;&#35441;&#32858;&#21512;&#26681;</text></g><!--entity ObservabilitySession--><g id="elem_ObservabilitySession"><rect fill="#FFFFFF" height="200.0916" rx="7.8125" ry="7.8125" style="stroke:#000000;stroke-width:3.125;" width="639.2548" x="886.625" y="4372.5288"/><rect fill="#FFFFFF" height="31.25" style="stroke:#000000;stroke-width:3.125;" width="46.875" x="1463.3798" y="4388.1538"/><rect fill="#FFFFFF" height="6.25" style="stroke:#000000;stroke-width:3.125;" width="12.5" x="1457.1298" y="4394.4038"/><rect fill="#FFFFFF" height="6.25" style="stroke:#000000;stroke-width:3.125;" width="12.5" x="1457.1298" y="4406.9038"/><text fill="#000000" font-family="Verdana" font-size="43.75" font-weight="bold" lengthAdjust="spacing" textLength="514.2548" x="933.5" y="4479.0138">ObservabilitySession</text><text fill="#000000" font-family="Verdana" font-size="43.75" lengthAdjust="spacing" textLength="393.75" x="933.5" y="4532.1846">&#21487;&#35264;&#28204;&#24615;&#26371;&#35441;&#32858;&#21512;&#26681;</text></g><!--link Customer to ShoppingCart--><!--link Customer to ShoppingCart--><g id="link_Customer_ShoppingCart"><path d="M1813.2582,894.4805 C1812.5631,896.0861 1811.8528,897.6843 1811.1269,899.2743 C1809.6752,902.4543 1808.1615,905.6015 1806.5831,908.7095 C1800.2695,921.1416 1792.9219,932.9468 1784.375,943.7163 C1768.9375,963.1851 1751.5938,950.8101 1734.375,968.7163 C1671.1563,1034.4351 1628.5313,1127.4585 1601.543,1204.9897 C1598.1694,1214.6812 1595.0402,1224.1305 1592.1457,1233.2542 C1590.6984,1237.816 1594.7523,1224.3537 1593.4211,1228.7423 " fill="none" id="Customer-to-ShoppingCart" style="stroke:#000000;stroke-width:3.125;"/><polygon fill="#000000" points="1587.9786,1246.685,1608.1042,1223.3993,1592.514,1231.7328,1584.1805,1216.1426,1587.9786,1246.685" style="stroke:#000000;stroke-width:3.125;"/><text fill="#000000" font-family="Verdana" font-size="40.625" lengthAdjust="spacing" textLength="121.875" x="1737.5" y="1012.6845">&#36092;&#29289;&#36554;</text></g><!--link Order to Inventory--><!--link Order to Inventory--><g id="link_Order_Inventory"><path d="M1906.2544,2163.5955 C1905.9228,2164.4175 1905.5884,2165.238 1905.2509,2166.0572 C1903.9013,2169.3337 1902.5043,2172.5871 1901.0583,2175.8117 C1895.2744,2188.71 1888.707,2201.146 1881.25,2212.7476 C1871.625,2227.7163 1858.75,2222.2476 1850,2237.7476 C1829.4219,2274.2397 1815.9434,2315.769 1807.3164,2357.6465 C1806.7772,2360.2638 1809.7856,2344.4676 1809.2838,2347.0865 " fill="none" id="Order-to-Inventory" style="stroke:#000000;stroke-width:3.125;"/><polygon fill="#000000" points="1805.7552,2365.5014,1823.3248,2340.2314,1808.6957,2350.1556,1798.7715,2335.5266,1805.7552,2365.5014" style="stroke:#000000;stroke-width:3.125;"/><text fill="#000000" font-family="Verdana" font-size="40.625" lengthAdjust="spacing" textLength="81.25" x="1853.125" y="2281.7158">&#24235;&#23384;</text></g><!--link Product to Pricing--><!--link Product to Pricing--><g id="link_Product_Pricing"><path d="M1074.3034,2823.7059 C1074.2814,2824.8557 1074.2593,2826.0078 1074.2372,2827.1624 C1074.193,2829.4716 1074.1486,2831.7905 1074.104,2834.1183 C1073.3906,2871.3645 1072.6328,2910.9302 1071.875,2950.4937 C1071.4961,2970.2754 1071.1172,2990.0566 1070.7438,3009.547 C1070.6505,3014.4196 1070.9166,3000.5275 1070.8241,3005.3592 " fill="none" id="Product-to-Pricing" style="stroke:#000000;stroke-width:3.125;"/><polygon fill="#000000" points="1070.4649,3024.1058,1083.5013,2996.2253,1070.7642,3008.4836,1058.5059,2995.7465,1070.4649,3024.1058" style="stroke:#000000;stroke-width:3.125;"/><text fill="#000000" font-family="Verdana" font-size="40.625" lengthAdjust="spacing" textLength="81.25" x="1075.75" y="2941.2158">&#23450;&#20729;</text></g><!--link Payment to Promotion--><!--link ShoppingCart to Seller--><!--link Inventory to Delivery--><!--link Pricing to Review--><!--link Promotion to Notification--><!--link Seller to Observability--><!--link Delivery to Observability--><!--link Review to Observability--><!--link Notification to Observability--><!--link Customer to Order--><g id="link_Customer_Order"><path d="M1867.5834,894.7083 C1867.7887,896.6239 1867.9932,898.5408 1868.1969,900.4585 C1869.0117,908.129 1869.8133,915.8111 1870.5953,923.4644 C1872.1592,938.771 1873.6445,953.9624 1875,968.7163 C1894.8438,1184.7319 1911.8047,1427.7554 1923.9141,1618.8726 C1925.4277,1642.7622 1926.8656,1665.8408 1928.2238,1687.9543 C1928.5634,1693.4826 1927.757,1680.2354 1928.0865,1685.6407 " fill="none" id="Customer-to-Order" style="stroke:#000000;stroke-width:3.125;"/><polygon fill="#000000" points="1929.2275,1704.356,1939.9928,1675.5224,1928.2767,1688.7599,1915.0392,1677.0438,1929.2275,1704.356" style="stroke:#000000;stroke-width:3.125;"/><text fill="#000000" font-family="Verdana" font-size="40.625" lengthAdjust="spacing" textLength="81.25" x="1925.9687" y="1368.997">&#19979;&#21934;</text></g><!--link Order to Product--><g id="link_Order_Product"><path d="M1918.7379,2162.8387 C1918.5485,2163.2245 1918.3579,2163.6096 1918.166,2163.9939 C1915.096,2170.1437 1911.7118,2176.11 1907.9836,2181.8322 C1900.5273,2193.2764 1891.6953,2203.7437 1881.25,2212.7476 C1838.4375,2249.6538 1684,2229.1851 1628.125,2237.7476 C1459.8438,2263.4976 1391.1563,2216.2163 1253.125,2315.8726 C1191.2656,2360.5132 1147.9063,2434.2788 1119.8203,2497.6851 C1116.3096,2505.6108 1113.0375,2513.3748 1109.9977,2520.8997 C1108.4779,2524.6622 1107.0161,2528.3649 1105.6116,2531.9982 C1104.9093,2533.8149 1110.8559,2518.0772 1110.1822,2519.858 " fill="none" id="Order-to-Product" style="stroke:#000000;stroke-width:3.125;"/><polygon fill="#000000" points="1103.5477,2537.395,1125.1908,2515.5125,1109.0765,2522.7808,1101.8082,2506.6665,1103.5477,2537.395" style="stroke:#000000;stroke-width:3.125;"/><text fill="#000000" font-family="Verdana" font-size="40.625" lengthAdjust="spacing" textLength="81.25" x="1631.25" y="2281.7158">&#21830;&#21697;</text></g><!--link Order to Payment--><g id="link_Order_Payment"><path d="M1970.0897,1967.1093 C1970.8308,1967.1927 1971.5866,1967.2779 1972.3569,1967.3649 C1973.8975,1967.539 1975.4964,1967.7203 1977.1526,1967.9088 C1983.7772,1968.6627 1991.3179,1969.532 1999.7118,1970.5163 C2033.2874,1974.4535 2080.5132,1980.2307 2137.3564,1987.8252 C2251.043,2003.0142 2403.1992,2025.4722 2561.5625,2055.0171 C2878.2891,2114.1069 3219.8437,2201.5444 3328.125,2315.8726 C3339.6836,2328.0796 3349.2969,2341.8491 3357.2686,2356.6118 C3358.265,2358.4572 3359.2358,2360.318 3360.1816,2362.1933 C3360.6545,2363.1309 3352.9065,2347.2174 3353.3669,2348.1621 " fill="none" id="Order-to-Payment" style="stroke:#000000;stroke-width:3.125;"/><polygon fill="#000000" points="3361.5815,2365.0168,3360.4961,2334.2583,3354.736,2350.9712,3338.0231,2345.2111,3361.5815,2365.0168" style="stroke:#000000;stroke-width:3.125;"/><text fill="#000000" font-family="Verdana" font-size="40.625" lengthAdjust="spacing" textLength="81.25" x="3300.6563" y="2281.7158">&#25903;&#20184;</text></g><!--link Product to Promotion--><g id="link_Product_Promotion"><path d="M1103.3632,2687.5418 C1103.5303,2687.9059 1103.6983,2688.2711 1103.8671,2688.6372 C1104.2048,2689.3693 1104.5458,2690.1053 1104.8901,2690.845 C1110.3999,2702.6797 1116.7695,2715.4585 1124.0078,2728.646 C1152.9609,2781.396 1195.8125,2840.6851 1253.125,2872.2476 C1354.2188,2927.9351 3240.8125,2899.8726 3328.125,2975.3726 C3340.8398,2986.3726 3351.3247,2999.2324 3359.9359,3013.3279 C3362.0886,3016.8518 3355.4153,3003.8482 3357.3395,3007.5168 " fill="none" id="Product-to-Promotion" style="stroke:#000000;stroke-width:3.125;"/><polygon fill="#000000" points="3366.0485,3024.1215,3364.0547,2993.4085,3358.791,3010.2843,3341.9152,3005.0205,3366.0485,3024.1215" style="stroke:#000000;stroke-width:3.125;"/><text fill="#000000" font-family="Verdana" font-size="40.625" lengthAdjust="spacing" textLength="81.25" x="3198.625" y="2941.2158">&#20419;&#37559;</text></g><!--link Seller to Product--><g id="link_Seller_Product"><path d="M634.6197,2015.5287 C634.965,2016.1771 635.3136,2016.8298 635.6655,2017.4869 C637.0731,2020.1154 638.5331,2022.8129 640.0446,2025.5729 C646.0903,2036.6128 652.959,2048.6519 660.5859,2061.2632 C691.0938,2111.7085 733.7344,2171.3101 784.375,2212.7476 C872.4375,2284.8101 947.5938,2227.0601 1018.75,2315.8726 C1029.2617,2328.9937 1038.0854,2343.4526 1045.4775,2358.7216 C1046.4015,2360.6302 1039.5357,2345.486 1040.4155,2347.4189 " fill="none" id="Seller-to-Product" style="stroke:#000000;stroke-width:3.125;"/><polygon fill="#000000" points="1048.1829,2364.4844,1047.9088,2333.708,1041.7101,2350.2632,1025.1548,2344.0645,1048.1829,2364.4844" style="stroke:#000000;stroke-width:3.125;"/><text fill="#000000" font-family="Verdana" font-size="40.625" lengthAdjust="spacing" textLength="162.5" x="996.0625" y="2281.7158">&#21830;&#21697;&#31649;&#29702;</text></g><!--link Order to Delivery--><g id="link_Order_Delivery"><path d="M1955.1448,2163.8103 C1955.3589,2167.5581 1955.5753,2171.3454 1955.7939,2175.1709 C1962.7891,2297.5864 1972.0195,2459.1362 1981.25,2620.6812 C1985.8652,2701.4536 1990.4805,2782.2249 1994.8163,2858.1025 C1996.9842,2896.0413 1999.0822,2932.7567 2001.0755,2967.6372 C2002.0722,2985.0774 2003.0426,3002.0589 2003.9825,3018.5052 C2004.1,3020.561 2003.1472,3003.8889 2003.2637,3005.9279 " fill="none" id="Order-to-Delivery" style="stroke:#000000;stroke-width:3.125;"/><polygon fill="#000000" points="2004.3335,3024.6473,2015.2084,2995.8549,2003.442,3009.0478,1990.2492,2997.2813,2004.3335,3024.6473" style="stroke:#000000;stroke-width:3.125;"/><text fill="#000000" font-family="Verdana" font-size="40.625" lengthAdjust="spacing" textLength="81.25" x="1997.8437" y="2638.0283">&#37197;&#36865;</text></g><!--link Product to Review--><g id="link_Product_Review"><path d="M1103.3334,2676.0342 C1103.6332,2676.6854 1103.9348,2677.3416 1104.2382,2678.0025 C1104.8448,2679.3243 1105.4583,2680.6653 1106.0782,2682.0248 C1111.0374,2692.9009 1116.4072,2704.9644 1121.9727,2717.9194 C1144.2344,2769.7397 1169.625,2835.8257 1184.375,2897.2476 C1235.1563,3108.7476 1260.1719,3351.7007 1272.4844,3543.9116 C1274.0234,3567.938 1275.364,3591.1715 1276.5316,3613.4516 C1276.8235,3619.0217 1277.1046,3624.5321 1277.3753,3629.9805 C1277.443,3631.3426 1276.5921,3613.9733 1276.6585,3615.3275 " fill="none" id="Product-to-Review" style="stroke:#000000;stroke-width:3.125;"/><polygon fill="#000000" points="1277.5763,3634.0551,1288.6846,3605.3519,1276.8115,3618.4488,1263.7146,3606.5757,1277.5763,3634.0551" style="stroke:#000000;stroke-width:3.125;"/><text fill="#000000" font-family="Verdana" font-size="40.625" lengthAdjust="spacing" textLength="81.25" x="1274.5" y="3297.5283">&#35413;&#20729;</text></g><!--link Customer to Notification--><g id="link_Customer_Notification"><path d="M1870.2348,699.1909 C1871.1393,699.33 1872.0658,699.4728 1873.0139,699.6191 C1874.9101,699.9118 1876.8931,700.219 1878.9613,700.5404 C1883.0977,701.1834 1887.5748,701.8839 1892.3799,702.6415 C1901.99,704.1567 1912.9122,705.9006 1925.0444,707.8706 C1973.5731,715.7505 2041.4626,727.2476 2122.1909,742.1968 C2283.6475,772.0952 2496.459,815.8022 2708.4492,871.9976 C3132.4297,984.3882 3553.125,1146.7319 3553.125,1348.4663 C3553.125,1348.4663 3553.125,1348.4663 3553.125,3283.2476 C3553.125,3420.1069 3513,3568.3882 3472.25,3683.6929 C3451.875,3741.3452 3431.3438,3790.7534 3415.5938,3826.3677 C3414.6094,3828.5936 3421.2927,3813.6467 3420.3469,3815.7635 " fill="none" id="Customer-to-Notification" style="stroke:#000000;stroke-width:3.125;"/><polygon fill="#000000" points="3412.6979,3832.8823,3435.584,3812.3035,3419.0721,3818.6166,3412.7589,3802.1047,3412.6979,3832.8823" style="stroke:#000000;stroke-width:3.125;"/><text fill="#000000" font-family="Verdana" font-size="40.625" lengthAdjust="spacing" textLength="81.25" x="3556.25" y="2281.7158">&#36890;&#30693;</text></g><!--SRC=[VLRVJoD577_VlsAy5_MXaSFuO7CXyJ0Q7vJBOVJXIiosEqStR7V9TWkYCIbKeBHtLrJ00-fH3X5GheWWLmwQ_ZETsUr_uNHcPpgpY_1GCf_lV7z_vllTjxmip44mRUcchUMdJ7jQT_KSCAPDyFxGa8IazSpKfEiKR6FKiHmNp6PD3qfo5sOytPwq8FXU0-JlVkI-PKvclRHLW4pgk0PqcSJGtIaX-CInlN7pEmZk3ci_Q9fdUiJY_RuPQ81H8eJVUdamDWFT6HFEfknFeGrTtOD64WmF3N-G6FemCJoSibEsfhqDSAE5EYMy_mfLDxkjIhTLnHlBu1t_-BZRAWQxJzxL1b7V6ItaFIS7NUxb3j3pG83zf1xTIuzmuDvxwP6KZPelSVaYcDz2gsNSk4pP-A8S_7CL51THPISejVtchh-wD25R-kPkFo_9xrY_4efJXd2FzCJS1OSBQACfkMC0Ip3ueuPMbYU40U98Cl2ruquzjfnPsH1wlTzjr_6_yodRNzj1FxLxnLDStv62LbGZSJzm7QEGyPJ8ESPZ3y_CgR_s4lqoBqMFrfS8qEtiulaJoMce52lK0tqk1-s8mn0J3jcPESHh9zshvt9tA40IzW-hiaEc90eMdZ-7NjOnP5Duun9Tr_Yfj_ZKRpVZTfXUFtZ2GDeQSX_NpYCCVFCaoi3nh3CzRTgJexghPga8UAeo67RrxDfVEGgkAZ93EEPNYtXHpbhMZzNwCtk6PEAuSqeS0vG78P3mFRpv2xsIAyw0NcFLNz-KV0krU9DTCqE2Yh2AOGDMqVF3WWNvCzn2fKls06Jd5CQLvtXbJ-6NK8zJEkTufcD7IHsY4gqPmjntEwLUvRNac07u_0fLrrLYCpN1jA-SGYOhXicFV-9I0vLRSWeSanyeDHQgCfgXopDK-nlNdzumw5PYD8EM5Pau8IIeHO-SL7keUQ4mYW9doy5XHQOJrOdrysDecMHOgpmI87V80UQIFAnUKHuK38YzMwuLS_eGzfU3uZA48eE9eM7vwJGAZjRxL9BIPG3vBI_5XnGp477_1MdoOpEZnvYa27WeCXZcNzpoT_Rb_2dWRrwJAaWno9g2KZBu9SoHnUv1sIm-tCM_TSWCe_znuvfCjF-noTKPn_pjFVpiW5G1lrXLEOQsjwCS6qldoORMqwPbUchlLGalmaUsRirvPYO_3lDvKGZc3DTBmT6fA0SDCtgVhphPk6ggTX8S577h61SFRZ9uaoRBkzikezCYQgxWPp-3140l5lpjSn8PElrT4vy7YKTPqp2WFM4uitP2cQqQM-UH6uDH2ZI-DIDNmZcbyHqN4uVJHDEK_H0DXRvBRU0l8kUFIEDJDY8F6JuOWX6vJ1WI2HiaaJjASJNn-c-z5JxOM-yex-dMcs8LztwjTpiBKkCI8-7tLX8GIfEl8bMcb3O9n3hbNILNUFkIW8qGMHIsBWdO9uCa6ZI4wD4jEU01DSgwGOHqYqM4l1aaQBfhHE5lY8UzRicrQ40IiCcg60yBJtAbaqyjXr9neav7YlOV]--></g></svg>