<svg xmlns="http://www.w3.org/2000/svg" xmlns:xlink="http://www.w3.org/1999/xlink" contentStyleType="text/css" data-diagram-type="CLASS" height="3000px" preserveAspectRatio="none" style="width:4525px;height:3000px;background:#FFFFFF;" version="1.1" viewBox="0 0 4525 3000" width="4525px" zoomAndPan="magnify"><title>Customer Bounded Context - Aggregate Details
Generated: 2025-09-22

</title><defs/><g><g class="title" data-source-line="12"><text fill="#000000" font-family="Verdana" font-size="68.75" font-weight="bold" lengthAdjust="spacing" textLength="1828.6896" x="1334.1775" y="115.9943">Customer Bounded Context - Aggregate Details</text><text fill="#000000" font-family="Verdana" font-size="68.75" font-weight="bold" lengthAdjust="spacing" textLength="909.3597" x="1793.8424" y="199.5483">Generated: 2025-09-22</text><text fill="#000000" font-family="Verdana" font-size="68.75" font-weight="bold" lengthAdjust="spacing" textLength="23.4985" x="2236.773" y="283.1024">&#160;</text><text fill="#000000" font-family="Verdana" font-size="68.75" font-weight="bold" lengthAdjust="spacing" textLength="23.4985" x="2236.773" y="366.6565">&#160;</text></g><!--class Customer--><g class="entity" data-entity="Customer" data-source-line="14" data-uid="ent0002" id="entity_Customer"><rect fill="#ADD8E6" height="1547.8714" rx="7.8125" ry="7.8125" style="stroke:#00008B;stroke-width:3.125;" width="1101.4709" x="1820" y="437.3413"/><ellipse cx="2201.1584" cy="496.6423" fill="#FFFFFF" rx="28.125" ry="28.125" style="stroke:#000000;stroke-width:3.125;"/><path d="M2208.887,515.8394 Q2207.0712,516.7732 2205.0739,517.2401 Q2203.0765,517.7071 2200.8716,517.7071 Q2193.0377,517.7071 2188.9133,512.545 Q2184.7888,507.383 2184.7888,497.6295 Q2184.7888,487.8502 2188.9133,482.6881 Q2193.0377,477.5261 2200.8716,477.5261 Q2203.0765,477.5261 2205.0998,477.993 Q2207.1231,478.4599 2208.887,479.3938 L2208.887,487.9021 Q2206.9156,486.0863 2205.0609,485.2432 Q2203.2062,484.4002 2201.2347,484.4002 Q2197.0325,484.4002 2194.8924,487.7335 Q2192.7524,491.0667 2192.7524,497.6295 Q2192.7524,504.1664 2194.8924,507.4997 Q2197.0325,510.833 2201.2347,510.833 Q2203.2062,510.833 2205.0609,509.9899 Q2206.9156,509.1469 2208.887,507.3311 Z " fill="#000000"/><text fill="#000000" font-family="Verdana" font-size="37.5" font-style="italic" lengthAdjust="spacing" textLength="328.2166" x="2249.5959" y="490.6677">&#171;AggregateRoot&#187;</text><text fill="#000000" font-family="Verdana" font-size="34.375" font-weight="bold" lengthAdjust="spacing" textLength="185.3027" x="2321.0529" y="533.1009">Customer</text><line style="stroke:#00008B;stroke-width:3.125;" x1="1823.125" x2="2918.3459" y1="555.9433" y2="555.9433"/><text fill="#000000" font-family="Verdana" font-size="43.75" lengthAdjust="spacing" textLength="352.1576" x="1838.75" y="612.4283">-id: CustomerId</text><text fill="#000000" font-family="Verdana" font-size="43.75" lengthAdjust="spacing" textLength="517.4164" x="1838.75" y="665.5991">-name: CustomerName</text><text fill="#000000" font-family="Verdana" font-size="43.75" lengthAdjust="spacing" textLength="294.5221" x="1838.75" y="718.7698">-email: Email</text><text fill="#000000" font-family="Verdana" font-size="43.75" lengthAdjust="spacing" textLength="324.7284" x="1838.75" y="771.9406">-phone: Phone</text><text fill="#000000" font-family="Verdana" font-size="43.75" lengthAdjust="spacing" textLength="400.9705" x="1838.75" y="825.1114">-address: Address</text><text fill="#000000" font-family="Verdana" font-size="43.75" lengthAdjust="spacing" textLength="823.9868" x="1838.75" y="878.2822">-membershipLevel: MembershipLevel</text><text fill="#000000" font-family="Verdana" font-size="43.75" lengthAdjust="spacing" textLength="733.7097" x="1838.75" y="931.4529">-registrationDate: LocalDateTime</text><text fill="#000000" font-family="Verdana" font-size="43.75" lengthAdjust="spacing" textLength="677.42" x="1838.75" y="984.6237">-lastLoginDate: LocalDateTime</text><text fill="#000000" font-family="Verdana" font-size="43.75" lengthAdjust="spacing" textLength="542.3889" x="1838.75" y="1037.7945">-status: CustomerStatus</text><text fill="#000000" font-family="Verdana" font-size="43.75" lengthAdjust="spacing" textLength="781.3477" x="1838.75" y="1090.9653">-preferences: CustomerPreferences</text><line style="stroke:#00008B;stroke-width:3.125;" x1="1823.125" x2="2918.3459" y1="1112.6511" y2="1112.6511"/><text fill="#000000" font-family="Verdana" font-size="43.75" lengthAdjust="spacing" textLength="484.7961" x="1838.75" y="1169.136">+getId(): CustomerId</text><text fill="#000000" font-family="Verdana" font-size="43.75" lengthAdjust="spacing" textLength="648.6877" x="1838.75" y="1222.3068">+getName(): CustomerName</text><text fill="#000000" font-family="Verdana" font-size="43.75" lengthAdjust="spacing" textLength="422.3541" x="1838.75" y="1275.4776">+getEmail(): Email</text><text fill="#000000" font-family="Verdana" font-size="43.75" lengthAdjust="spacing" textLength="450.0824" x="1838.75" y="1328.6484">+getPhone(): Phone</text><text fill="#000000" font-family="Verdana" font-size="43.75" lengthAdjust="spacing" textLength="530.8319" x="1838.75" y="1381.8192">+getAddress(): Address</text><text fill="#000000" font-family="Verdana" font-size="43.75" lengthAdjust="spacing" textLength="944.5343" x="1838.75" y="1434.9899">+getMembershipLevel(): MembershipLevel</text><text fill="#000000" font-family="Verdana" font-size="43.75" lengthAdjust="spacing" textLength="675.7324" x="1838.75" y="1488.1607">+getStatus(): CustomerStatus</text><line style="stroke:#00008B;stroke-width:3.125;" x1="1823.125" x2="2918.3459" y1="1509.8465" y2="1509.8465"/><text fill="#000000" font-family="Verdana" font-size="43.75" lengthAdjust="spacing" textLength="930.6488" x="1838.75" y="1566.3315">+updateProfile(name, email, phone): void</text><text fill="#000000" font-family="Verdana" font-size="43.75" lengthAdjust="spacing" textLength="799.292" x="1838.75" y="1619.5023">+changeAddress(newAddress): void</text><text fill="#000000" font-family="Verdana" font-size="43.75" lengthAdjust="spacing" textLength="752.2095" x="1838.75" y="1672.673">+upgradeMembership(level): void</text><text fill="#000000" font-family="Verdana" font-size="43.75" lengthAdjust="spacing" textLength="429.5959" x="1838.75" y="1725.8438">+deactivate(): void</text><text fill="#000000" font-family="Verdana" font-size="43.75" lengthAdjust="spacing" textLength="421.0083" x="1838.75" y="1779.0146">+reactivate(): void</text><line style="stroke:#00008B;stroke-width:3.125;" x1="1823.125" x2="2918.3459" y1="1800.7004" y2="1800.7004"/><text fill="#000000" font-family="Verdana" font-size="43.75" lengthAdjust="spacing" textLength="589.4287" x="1838.75" y="1857.1854">+collectEvent(event): void</text><text fill="#000000" font-family="Verdana" font-size="43.75" lengthAdjust="spacing" textLength="1063.9709" x="1838.75" y="1910.3561">+getUncommittedEvents(): List&lt;DomainEvent&gt;</text><text fill="#000000" font-family="Verdana" font-size="43.75" lengthAdjust="spacing" textLength="757.9346" x="1838.75" y="1963.5269">+markEventsAsCommitted(): void</text></g><!--class CustomerId--><g class="entity" data-entity="CustomerId" data-source-line="49" data-uid="ent0003" id="entity_CustomerId"><rect fill="#ADD8E6" height="381.2851" rx="7.8125" ry="7.8125" style="stroke:#00008B;stroke-width:3.125;" width="578.9703" x="37.5" y="2252.4038"/><ellipse cx="183.8852" cy="2311.7048" fill="#FFFFFF" rx="28.125" ry="28.125" style="stroke:#000000;stroke-width:3.125;"/><path d="M191.6138,2330.9019 Q189.798,2331.8357 187.8006,2332.3026 Q185.8032,2332.7696 183.5983,2332.7696 Q175.7645,2332.7696 171.64,2327.6075 Q167.5156,2322.4455 167.5156,2312.692 Q167.5156,2302.9127 171.64,2297.7506 Q175.7645,2292.5886 183.5983,2292.5886 Q185.8032,2292.5886 187.8265,2293.0555 Q189.8499,2293.5224 191.6138,2294.4563 L191.6138,2302.9646 Q189.6423,2301.1488 187.7876,2300.3057 Q185.9329,2299.4627 183.9615,2299.4627 Q179.7592,2299.4627 177.6192,2302.796 Q175.4791,2306.1292 175.4791,2312.692 Q175.4791,2319.2289 177.6192,2322.5622 Q179.7592,2325.8955 183.9615,2325.8955 Q185.9329,2325.8955 187.7876,2325.0524 Q189.6423,2324.2094 191.6138,2322.3936 Z " fill="#000000"/><text fill="#000000" font-family="Verdana" font-size="37.5" font-style="italic" lengthAdjust="spacing" textLength="275.2625" x="232.3227" y="2305.7302">&#171;ValueObject&#187;</text><text fill="#000000" font-family="Verdana" font-size="34.375" font-weight="bold" lengthAdjust="spacing" textLength="228.1036" x="255.9021" y="2348.1634">CustomerId</text><line style="stroke:#00008B;stroke-width:3.125;" x1="40.625" x2="613.3453" y1="2371.0058" y2="2371.0058"/><text fill="#000000" font-family="Verdana" font-size="43.75" lengthAdjust="spacing" textLength="305.8014" x="56.25" y="2427.4908">-value: String</text><line style="stroke:#00008B;stroke-width:3.125;" x1="40.625" x2="613.3453" y1="2449.1766" y2="2449.1766"/><text fill="#000000" font-family="Verdana" font-size="43.75" lengthAdjust="spacing" textLength="436.0474" x="56.25" y="2505.6616">+getValue(): String</text><text fill="#000000" font-family="Verdana" font-size="43.75" lengthAdjust="spacing" textLength="541.4703" x="56.25" y="2558.8323">+equals(other): boolean</text><text fill="#000000" font-family="Verdana" font-size="43.75" lengthAdjust="spacing" textLength="382.5775" x="56.25" y="2612.0031">+hashCode(): int</text></g><!--class CustomerName--><g class="entity" data-entity="CustomerName" data-source-line="57" data-uid="ent0004" id="entity_CustomerName"><rect fill="#ADD8E6" height="434.4559" rx="7.8125" ry="7.8125" style="stroke:#00008B;stroke-width:3.125;" width="575.0824" x="726.9375" y="2225.8413"/><ellipse cx="854.4758" cy="2285.1423" fill="#FFFFFF" rx="28.125" ry="28.125" style="stroke:#000000;stroke-width:3.125;"/><path d="M862.2044,2304.3394 Q860.3886,2305.2732 858.3912,2305.7401 Q856.3938,2306.2071 854.1889,2306.2071 Q846.3551,2306.2071 842.2306,2301.045 Q838.1062,2295.883 838.1062,2286.1295 Q838.1062,2276.3502 842.2306,2271.1881 Q846.3551,2266.0261 854.1889,2266.0261 Q856.3938,2266.0261 858.4171,2266.493 Q860.4405,2266.9599 862.2044,2267.8938 L862.2044,2276.4021 Q860.2329,2274.5863 858.3782,2273.7432 Q856.5235,2272.9002 854.5521,2272.9002 Q850.3498,2272.9002 848.2098,2276.2335 Q846.0697,2279.5667 846.0697,2286.1295 Q846.0697,2292.6664 848.2098,2295.9997 Q850.3498,2299.333 854.5521,2299.333 Q856.5235,2299.333 858.3782,2298.4899 Q860.2329,2297.6469 862.2044,2295.8311 Z " fill="#000000"/><text fill="#000000" font-family="Verdana" font-size="37.5" font-style="italic" lengthAdjust="spacing" textLength="275.2625" x="919.8162" y="2279.1677">&#171;ValueObject&#187;</text><text fill="#000000" font-family="Verdana" font-size="34.375" font-weight="bold" lengthAdjust="spacing" textLength="296.5683" x="909.1633" y="2321.6009">CustomerName</text><line style="stroke:#00008B;stroke-width:3.125;" x1="730.0625" x2="1298.8949" y1="2344.4433" y2="2344.4433"/><text fill="#000000" font-family="Verdana" font-size="43.75" lengthAdjust="spacing" textLength="401.59" x="745.6875" y="2400.9283">-firstName: String</text><text fill="#000000" font-family="Verdana" font-size="43.75" lengthAdjust="spacing" textLength="393.8141" x="745.6875" y="2454.0991">-lastName: String</text><line style="stroke:#00008B;stroke-width:3.125;" x1="730.0625" x2="1298.8949" y1="2475.7849" y2="2475.7849"/><text fill="#000000" font-family="Verdana" font-size="43.75" lengthAdjust="spacing" textLength="537.5824" x="745.6875" y="2532.2698">+getFirstName(): String</text><text fill="#000000" font-family="Verdana" font-size="43.75" lengthAdjust="spacing" textLength="532.3914" x="745.6875" y="2585.4406">+getLastName(): String</text><text fill="#000000" font-family="Verdana" font-size="43.75" lengthAdjust="spacing" textLength="518.5699" x="745.6875" y="2638.6114">+getFullName(): String</text></g><!--class Email--><g class="entity" data-entity="Email" data-source-line="66" data-uid="ent0005" id="entity_Email"><rect fill="#ADD8E6" height="328.1143" rx="7.8125" ry="7.8125" style="stroke:#00008B;stroke-width:3.125;" width="473.5474" x="1412.0938" y="2278.9976"/><ellipse cx="1508.197" cy="2338.2986" fill="#FFFFFF" rx="28.125" ry="28.125" style="stroke:#000000;stroke-width:3.125;"/><path d="M1515.9255,2357.4956 Q1514.1097,2358.4295 1512.1124,2358.8964 Q1510.115,2359.3633 1507.9101,2359.3633 Q1500.0762,2359.3633 1495.9518,2354.2013 Q1491.8273,2349.0392 1491.8273,2339.2858 Q1491.8273,2329.5064 1495.9518,2324.3444 Q1500.0762,2319.1823 1507.9101,2319.1823 Q1510.115,2319.1823 1512.1383,2319.6493 Q1514.1616,2320.1162 1515.9255,2321.05 L1515.9255,2329.5583 Q1513.9541,2327.7425 1512.0994,2326.8995 Q1510.2447,2326.0564 1508.2733,2326.0564 Q1504.071,2326.0564 1501.9309,2329.3897 Q1499.7909,2332.723 1499.7909,2339.2858 Q1499.7909,2345.8227 1501.9309,2349.1559 Q1504.071,2352.4892 1508.2733,2352.4892 Q1510.2447,2352.4892 1512.0994,2351.6462 Q1513.9541,2350.8031 1515.9255,2348.9873 Z " fill="#000000"/><text fill="#000000" font-family="Verdana" font-size="37.5" font-style="italic" lengthAdjust="spacing" textLength="275.2625" x="1551.7755" y="2332.324">&#171;ValueObject&#187;</text><text fill="#000000" font-family="Verdana" font-size="34.375" font-weight="bold" lengthAdjust="spacing" textLength="106.3141" x="1636.2496" y="2374.7571">Email</text><line style="stroke:#00008B;stroke-width:3.125;" x1="1415.2188" x2="1882.5161" y1="2397.5995" y2="2397.5995"/><text fill="#000000" font-family="Verdana" font-size="43.75" lengthAdjust="spacing" textLength="305.8014" x="1430.8438" y="2454.0845">-value: String</text><line style="stroke:#00008B;stroke-width:3.125;" x1="1415.2188" x2="1882.5161" y1="2475.7703" y2="2475.7703"/><text fill="#000000" font-family="Verdana" font-size="43.75" lengthAdjust="spacing" textLength="436.0474" x="1430.8438" y="2532.2553">+getValue(): String</text><text fill="#000000" font-family="Verdana" font-size="43.75" lengthAdjust="spacing" textLength="425.4303" x="1430.8438" y="2585.4261">+isValid(): boolean</text></g><!--class Phone--><g class="entity" data-entity="Phone" data-source-line="73" data-uid="ent0006" id="entity_Phone"><rect fill="#ADD8E6" height="328.1143" rx="7.8125" ry="7.8125" style="stroke:#00008B;stroke-width:3.125;" width="753.5645" x="1993.9375" y="2278.9976"/><ellipse cx="2227.6198" cy="2338.2986" fill="#FFFFFF" rx="28.125" ry="28.125" style="stroke:#000000;stroke-width:3.125;"/><path d="M2235.3483,2357.4956 Q2233.5325,2358.4295 2231.5352,2358.8964 Q2229.5378,2359.3633 2227.3329,2359.3633 Q2219.499,2359.3633 2215.3746,2354.2013 Q2211.2501,2349.0392 2211.2501,2339.2858 Q2211.2501,2329.5064 2215.3746,2324.3444 Q2219.499,2319.1823 2227.3329,2319.1823 Q2229.5378,2319.1823 2231.5611,2319.6493 Q2233.5844,2320.1162 2235.3483,2321.05 L2235.3483,2329.5583 Q2233.3769,2327.7425 2231.5222,2326.8995 Q2229.6675,2326.0564 2227.696,2326.0564 Q2223.4938,2326.0564 2221.3537,2329.3897 Q2219.2137,2332.723 2219.2137,2339.2858 Q2219.2137,2345.8227 2221.3537,2349.1559 Q2223.4938,2352.4892 2227.696,2352.4892 Q2229.6675,2352.4892 2231.5222,2351.6462 Q2233.3769,2350.8031 2235.3483,2348.9873 Z " fill="#000000"/><text fill="#000000" font-family="Verdana" font-size="37.5" font-style="italic" lengthAdjust="spacing" textLength="275.2625" x="2276.0573" y="2332.324">&#171;ValueObject&#187;</text><text fill="#000000" font-family="Verdana" font-size="34.375" font-weight="bold" lengthAdjust="spacing" textLength="120.5978" x="2353.3896" y="2374.7571">Phone</text><line style="stroke:#00008B;stroke-width:3.125;" x1="1997.0625" x2="2744.377" y1="2397.5995" y2="2397.5995"/><text fill="#000000" font-family="Verdana" font-size="43.75" lengthAdjust="spacing" textLength="464.8224" x="2012.6875" y="2454.0845">-countryCode: String</text><text fill="#000000" font-family="Verdana" font-size="43.75" lengthAdjust="spacing" textLength="357.7972" x="2012.6875" y="2507.2553">-number: String</text><line style="stroke:#00008B;stroke-width:3.125;" x1="1997.0625" x2="2744.377" y1="2528.9411" y2="2528.9411"/><text fill="#000000" font-family="Verdana" font-size="43.75" lengthAdjust="spacing" textLength="716.0645" x="2012.6875" y="2585.4261">+getFormattedNumber(): String</text></g><!--class Address--><g class="entity" data-entity="Address" data-source-line="80" data-uid="ent0007" id="entity_Address"><rect fill="#ADD8E6" height="434.4559" rx="7.8125" ry="7.8125" style="stroke:#00008B;stroke-width:3.125;" width="603.1952" x="2856.625" y="2225.8413"/><ellipse cx="3015.1226" cy="2285.1423" fill="#FFFFFF" rx="28.125" ry="28.125" style="stroke:#000000;stroke-width:3.125;"/><path d="M3022.8512,2304.3394 Q3021.0354,2305.2732 3019.038,2305.7401 Q3017.0406,2306.2071 3014.8358,2306.2071 Q3007.0019,2306.2071 3002.8774,2301.045 Q2998.753,2295.883 2998.753,2286.1295 Q2998.753,2276.3502 3002.8774,2271.1881 Q3007.0019,2266.0261 3014.8358,2266.0261 Q3017.0406,2266.0261 3019.064,2266.493 Q3021.0873,2266.9599 3022.8512,2267.8938 L3022.8512,2276.4021 Q3020.8798,2274.5863 3019.0251,2273.7432 Q3017.1703,2272.9002 3015.1989,2272.9002 Q3010.9966,2272.9002 3008.8566,2276.2335 Q3006.7166,2279.5667 3006.7166,2286.1295 Q3006.7166,2292.6664 3008.8566,2295.9997 Q3010.9966,2299.333 3015.1989,2299.333 Q3017.1703,2299.333 3019.0251,2298.4899 Q3020.8798,2297.6469 3022.8512,2295.8311 Z " fill="#000000"/><text fill="#000000" font-family="Verdana" font-size="37.5" font-style="italic" lengthAdjust="spacing" textLength="275.2625" x="3063.5601" y="2279.1677">&#171;ValueObject&#187;</text><text fill="#000000" font-family="Verdana" font-size="34.375" font-weight="bold" lengthAdjust="spacing" textLength="155.4596" x="3123.4615" y="2321.6009">Address</text><line style="stroke:#00008B;stroke-width:3.125;" x1="2859.75" x2="3456.6952" y1="2344.4433" y2="2344.4433"/><text fill="#000000" font-family="Verdana" font-size="43.75" lengthAdjust="spacing" textLength="315.9485" x="2875.375" y="2400.9283">-street: String</text><text fill="#000000" font-family="Verdana" font-size="43.75" lengthAdjust="spacing" textLength="265.8112" x="2875.375" y="2454.0991">-city: String</text><text fill="#000000" font-family="Verdana" font-size="43.75" lengthAdjust="spacing" textLength="430.4291" x="2875.375" y="2507.2698">-postalCode: String</text><text fill="#000000" font-family="Verdana" font-size="43.75" lengthAdjust="spacing" textLength="354.4006" x="2875.375" y="2560.4406">-country: String</text><line style="stroke:#00008B;stroke-width:3.125;" x1="2859.75" x2="3456.6952" y1="2582.1264" y2="2582.1264"/><text fill="#000000" font-family="Verdana" font-size="43.75" lengthAdjust="spacing" textLength="565.6952" x="2875.375" y="2638.6114">+getFullAddress(): String</text></g><!--class MembershipLevel--><g class="entity" data-entity="MembershipLevel" data-source-line="89" data-uid="ent0008" id="entity_MembershipLevel"><rect fill="#ADD8E6" height="297.0123" rx="7.8125" ry="7.8125" style="stroke:#00008B;stroke-width:3.125;" width="425.5432" x="3570.4688" y="2294.5601"/><ellipse cx="3611.0938" cy="2338.3101" fill="#FFFFFF" rx="28.125" ry="28.125" style="stroke:#000000;stroke-width:3.125;"/><path d="M3622.3883,2358.6226 L3598.2642,2358.6226 L3598.2642,2319.8942 L3622.3883,2319.8942 L3622.3883,2326.6386 L3605.9164,2326.6386 L3605.9164,2334.9913 L3620.8319,2334.9913 L3620.8319,2341.7357 L3605.9164,2341.7357 L3605.9164,2351.8782 L3622.3883,2351.8782 Z " fill="#000000"/><text fill="#000000" font-family="Verdana" font-size="34.375" font-weight="bold" lengthAdjust="spacing" textLength="338.0432" x="3648.5938" y="2351.9812">MembershipLevel</text><line style="stroke:#00008B;stroke-width:3.125;" x1="3573.5938" x2="3992.887" y1="2382.0601" y2="2382.0601"/><text fill="#000000" font-family="Verdana" font-size="43.75" lengthAdjust="spacing" textLength="247.2473" x="3589.2188" y="2438.545">STANDARD</text><text fill="#000000" font-family="Verdana" font-size="43.75" lengthAdjust="spacing" textLength="208.6456" x="3589.2188" y="2491.7158">PREMIUM</text><text fill="#000000" font-family="Verdana" font-size="43.75" lengthAdjust="spacing" textLength="74.704" x="3589.2188" y="2544.8866">VIP</text><line style="stroke:#00008B;stroke-width:3.125;" x1="3573.5938" x2="3992.887" y1="2566.5724" y2="2566.5724"/></g><!--class CustomerStatus--><g class="entity" data-entity="CustomerStatus" data-source-line="95" data-uid="ent0009" id="entity_CustomerStatus"><rect fill="#ADD8E6" height="297.0123" rx="7.8125" ry="7.8125" style="stroke:#00008B;stroke-width:3.125;" width="396.3882" x="4106.9063" y="2294.5601"/><ellipse cx="4147.5313" cy="2338.3101" fill="#FFFFFF" rx="28.125" ry="28.125" style="stroke:#000000;stroke-width:3.125;"/><path d="M4158.8258,2358.6226 L4134.7017,2358.6226 L4134.7017,2319.8942 L4158.8258,2319.8942 L4158.8258,2326.6386 L4142.3539,2326.6386 L4142.3539,2334.9913 L4157.2694,2334.9913 L4157.2694,2341.7357 L4142.3539,2341.7357 L4142.3539,2351.8782 L4158.8258,2351.8782 Z " fill="#000000"/><text fill="#000000" font-family="Verdana" font-size="34.375" font-weight="bold" lengthAdjust="spacing" textLength="308.8882" x="4185.0313" y="2351.9812">CustomerStatus</text><line style="stroke:#00008B;stroke-width:3.125;" x1="4110.0313" x2="4500.1695" y1="2382.0601" y2="2382.0601"/><text fill="#000000" font-family="Verdana" font-size="43.75" lengthAdjust="spacing" textLength="163.4003" x="4125.6563" y="2438.545">ACTIVE</text><text fill="#000000" font-family="Verdana" font-size="43.75" lengthAdjust="spacing" textLength="214.5416" x="4125.6563" y="2491.7158">INACTIVE</text><text fill="#000000" font-family="Verdana" font-size="43.75" lengthAdjust="spacing" textLength="273.6938" x="4125.6563" y="2544.8866">SUSPENDED</text><line style="stroke:#00008B;stroke-width:3.125;" x1="4110.0313" x2="4500.1695" y1="2566.5724" y2="2566.5724"/></g><g class="entity" data-entity="GMN17" data-source-line="111" data-uid="ent0018" id="entity_GMN17"><path d="M3030.125,1096.9038 L3030.125,1198.7788 L2922.4375,1211.2788 L3030.125,1223.7788 L3030.125,1325.6453 A0,0 0 0 0 3030.125,1325.6453 L3867.625,1325.6453 A0,0 0 0 0 3867.625,1325.6453 L3867.625,1128.1538 L3836.375,1096.9038 L3030.125,1096.9038 A0,0 0 0 0 3030.125,1096.9038" fill="#FFFFFF" style="stroke:#000000;stroke-width:3.125;"/><path d="M3836.375,1096.9038 L3836.375,1128.1538 L3867.625,1128.1538 L3836.375,1096.9038" fill="#FFFFFF" style="stroke:#000000;stroke-width:3.125;"/><text fill="#000000" font-family="Verdana" font-size="40.625" lengthAdjust="spacing" textLength="771.875" x="3048.875" y="1153.372">&#22686;&#24375;&#30340;&#23458;&#25142;&#32858;&#21512;&#26681;&#65292;&#25903;&#25588;&#23436;&#25972;&#30340;&#28040;&#36027;&#32773;&#21151;&#33021;</text><text fill="#000000" font-family="Verdana" font-size="40.625" lengthAdjust="spacing" textLength="616.0797" x="3048.875" y="1202.7449">- &#23526;&#29694; AggregateRootInterface</text><text fill="#000000" font-family="Verdana" font-size="40.625" lengthAdjust="spacing" textLength="357.7301" x="3048.875" y="1252.1177">- &#25903;&#25588;&#38936;&#22495;&#20107;&#20214;&#25910;&#38598;</text><text fill="#000000" font-family="Verdana" font-size="40.625" lengthAdjust="spacing" textLength="213.1424" x="3048.875" y="1301.4906">- &#29256;&#26412;: 2.0</text></g><g class="entity" data-entity="GMN20" data-source-line="118" data-uid="ent0021" id="entity_GMN20"><path d="M92.7813,2850.9038 L92.7813,2980.8995 A0,0 0 0 0 92.7813,2980.8995 L561.1849,2980.8995 A0,0 0 0 0 561.1849,2980.8995 L561.1849,2882.1538 L529.9349,2850.9038 L339.5,2850.9038 L327,2634.6226 L314.5,2850.9038 L92.7813,2850.9038 A0,0 0 0 0 92.7813,2850.9038" fill="#FFFFFF" style="stroke:#000000;stroke-width:3.125;"/><path d="M529.9349,2850.9038 L529.9349,2882.1538 L561.1849,2882.1538 L529.9349,2850.9038" fill="#FFFFFF" style="stroke:#000000;stroke-width:3.125;"/><text fill="#000000" font-family="Verdana" font-size="40.625" lengthAdjust="spacing" textLength="284.375" x="111.5313" y="2907.372">&#23458;&#25142;&#21807;&#19968;&#35672;&#21029;&#31526;</text><text fill="#000000" font-family="Verdana" font-size="40.625" lengthAdjust="spacing" textLength="402.7786" x="111.5313" y="2956.7449">&#26684;&#24335;: CUST-{UUID}</text></g><!--reverse link Customer to CustomerId--><g class="link" data-entity-1="Customer" data-entity-2="CustomerId" data-source-line="102" data-uid="lnk10" id="link_Customer_CustomerId"><path codeLine="102" d="M1786.4647,1558.0427 C1453.0585,1755.0427 1052.4375,1993.4351 670.75,2225.8413 C653.3125,2236.4351 635.4375,2247.3726 617.4063,2258.4663" fill="none" id="Customer-backto-CustomerId" style="stroke:#000000;stroke-width:3.125;"/><polygon fill="#000000" points="1818.75,1538.9663,1796.2485,1537.7428,1786.4647,1558.0427,1808.9662,1559.2663,1818.75,1538.9663" style="stroke:#000000;stroke-width:3.125;"/><text fill="#000000" font-family="Verdana" font-size="40.625" lengthAdjust="spacing" textLength="169.9585" x="903.9375" y="2122.9345">contains</text></g><!--reverse link Customer to CustomerName--><g class="link" data-entity-1="Customer" data-entity-2="CustomerName" data-source-line="103" data-uid="lnk11" id="link_Customer_CustomerName"><path codeLine="103" d="M1791.2691,1738.013 C1593.9879,1916.263 1409.75,2082.7788 1252.875,2224.5288" fill="none" id="Customer-backto-CustomerName" style="stroke:#000000;stroke-width:3.125;"/><polygon fill="#000000" points="1819.0938,1712.8726,1796.8013,1716.1679,1791.2691,1738.013,1813.5616,1734.7176,1819.0938,1712.8726" style="stroke:#000000;stroke-width:3.125;"/><text fill="#000000" font-family="Verdana" font-size="40.625" lengthAdjust="spacing" textLength="169.9585" x="1381.3438" y="2122.9345">contains</text></g><!--reverse link Customer to Email--><g class="link" data-entity-1="Customer" data-entity-2="Email" data-source-line="104" data-uid="lnk12" id="link_Customer_Email"><path codeLine="104" d="M1897.0948,2018.4976 C1832.5323,2128.1226 1791.2813,2198.1538 1744.375,2277.7788" fill="none" id="Customer-backto-Email" style="stroke:#000000;stroke-width:3.125;"/><polygon fill="#000000" points="1916.125,1986.1851,1895.8391,1995.998,1897.0948,2018.4976,1917.3808,2008.6847,1916.125,1986.1851" style="stroke:#000000;stroke-width:3.125;"/><text fill="#000000" font-family="Verdana" font-size="40.625" lengthAdjust="spacing" textLength="169.9585" x="1845.5938" y="2122.9345">contains</text></g><!--reverse link Customer to Phone--><g class="link" data-entity-1="Customer" data-entity-2="Phone" data-source-line="105" data-uid="lnk13" id="link_Customer_Phone"><path codeLine="105" d="M2370.75,2023.6851 C2370.75,2133.3101 2370.75,2198.1538 2370.75,2277.7788" fill="none" id="Customer-backto-Phone" style="stroke:#000000;stroke-width:3.125;"/><polygon fill="#000000" points="2370.75,1986.1851,2358.25,2004.9351,2370.75,2023.6851,2383.25,2004.9351,2370.75,1986.1851" style="stroke:#000000;stroke-width:3.125;"/><text fill="#000000" font-family="Verdana" font-size="40.625" lengthAdjust="spacing" textLength="169.9585" x="2373.875" y="2122.9345">contains</text></g><!--reverse link Customer to Address--><g class="link" data-entity-1="Customer" data-entity-2="Address" data-source-line="106" data-uid="lnk14" id="link_Customer_Address"><path codeLine="106" d="M2886.9527,2017.7378 C2942.6089,2104.394 2975.0938,2154.9351 3020.0313,2224.8726" fill="none" id="Customer-backto-Address" style="stroke:#000000;stroke-width:3.125;"/><polygon fill="#000000" points="2866.6875,1986.1851,2866.3025,2008.7165,2886.9527,2017.7378,2887.3377,1995.2063,2866.6875,1986.1851" style="stroke:#000000;stroke-width:3.125;"/><text fill="#000000" font-family="Verdana" font-size="40.625" lengthAdjust="spacing" textLength="169.9585" x="2950.1563" y="2122.9345">contains</text></g><!--link Customer to MembershipLevel--><g class="link" data-entity-1="Customer" data-entity-2="MembershipLevel" data-source-line="107" data-uid="lnk15" id="link_Customer_MembershipLevel"><path codeLine="107" d="M2922.3438,1940.0913 C2940.3125,1955.7163 2958.5313,1970.8101 2977,1985.2163 C3080.1563,2065.7163 3402.6875,2157.7788 3514.5,2225.8413 C3547.5938,2245.9976 3566.3037,2258.3539 3598.0537,2282.5414" fill="none" id="Customer-to-MembershipLevel" style="stroke:#000000;stroke-width:3.125;"/><polygon fill="#000000" points="3612.9688,2293.9038,3598.1712,2266.9168,3600.5396,2284.4351,3583.0213,2286.8035,3612.9688,2293.9038" style="stroke:#000000;stroke-width:3.125;"/><text fill="#000000" font-family="Verdana" font-size="40.625" lengthAdjust="spacing" textLength="71.2723" x="3297.0938" y="2122.9345">has</text></g><!--link Customer to CustomerStatus--><g class="link" data-entity-1="Customer" data-entity-2="CustomerStatus" data-source-line="108" data-uid="lnk16" id="link_Customer_CustomerStatus"><path codeLine="108" d="M2922.875,1948.3101 C2940.5938,1961.3101 2958.625,1973.6226 2977,1985.2163 C2983.4688,1989.2788 4045.125,2222.4351 4052,2225.8413 C4088.0625,2243.7476 4108.6692,2256.2012 4140.8879,2281.8262" fill="none" id="Customer-to-CustomerStatus" style="stroke:#000000;stroke-width:3.125;"/><polygon fill="#000000" points="4155.5625,2293.4976,4141.3315,2266.2075,4143.3337,2283.7715,4125.7698,2285.7736,4155.5625,2293.4976" style="stroke:#000000;stroke-width:3.125;"/><text fill="#000000" font-family="Verdana" font-size="40.625" lengthAdjust="spacing" textLength="71.2723" x="3613.1563" y="2122.9345">has</text></g><!--SRC=[fLL1Rnj55BxxLmod6jf5RX27Mb4aOpl8acEiECufb_7kYpraTyRCZbD25IdGKWLQAJqaq9QAH95IX9Gs0ghGqa3_J7RjdFWBl9crrvkDVIA7UFPxtynyxvjvyzvJ7V20T5tAUCPVOxnB9VM8qsNaermkWRIelTQMeiUTed259BSxJ44YRhlKzmjAITRgAQZOWZVOLq1oQSgyuAgXDbmWBU4wwIYvao7uzqbgCvUrEwhbzY2A2kc0Z28EbMjnmAojTxrvCxEPoIYcS9jYprV20udJS3rmI15PyAKY5YcqsnBQL04fWQBCzLVufy118kBaoKnkvcChTykQcLdXApoJYGJ6oytEnjCNXL1pSqRxDH8Ul0xUtGr-EmwtVa70OhZKQ5B5qGYd7eon6dvf53nKa2Tb_QE_knt1aLRNF_gREeu4ty-JGZJGc0TU2wJVOTqgh0FENhWCQ0vAPBx2d9ZW9HIR9rLXKrSFbrYqDIQcggBDfiLzHLNF7qjkc6yZKi8gIE0s9CBrCQWvLcJB_j7WryFmXpVX7ti8N6-3gZZPzrFUQ5WRaWmC3T8XOuwEZLpIe758WoEhD3WqISDZltGWvP0cN3LD4wCaaqB6QGzJEdeHF7WoJgdNTT2qkXIhp8MiFkKRn9pg3M8E4vTQ5yoaQNSeRyD898VRms62qkks9NLWB2xhQdK9XWFKLcmTzymcK3a97Ie-_-l1-TlJmPEz_gFxHePmNR1LUHsuoeB-drW8FMXoMtWUKrWFXcFigE9rcYq9J8mRS4wJFQp3Y5BmYwCviO3DTFLK7AoVPOg5-rdhSrGmh1vhNKDvqi1dXBT7khKImzNhnQ7hy4MFkdvMu0icCT0ImWNATQH3_KvHE8RFkBgwlRvIamMiCkcR6vWKeUiZZOs4pOycN1Q7aIgT4fZlkMug42iq5_l_UyDy19avW94lyHQcJ2PlOUCJgUI6zYwv4U_fEpWnUo4zge-wPYYJCXhUxCaRuiC4e98hsqnj9B-x0byVDwreA7IY97GtKVrZEO1ff6lTg6Wi5Mgbmc89X_N5yaAbkO2ZvKezddJv0J1p2iMbod8P1vLQF6mq6_LohLGkwOdNoCMFpyxVVPE96yO7bfMy_tc2FHAx3lSdKymTdKQAhicqQ7J2qwAZ0vaKjwovAnRb2TRJPKhAa8YHuG8xgTIjceZLc8F618S_1sT_zf_U2ruUXjkdWw-V1e-smuCt_vuz37TFmfrNmSk7uTuh98IdsuFVtmwslWs-tn_S_LkVAmbEdlTt_Y6Nkcq5MxXSfRPfJoHQvEBWSR2_7prnuUxfnK_tJR3_tNRux1ZR-OSvF4s7Q9L3hIsXK69Ih6b2aSfWz-JyzTRWnUDW-wX__1pnyE0iEDl1Vj1iB5btcirAQNEyudy0]--></g></svg>