<svg xmlns="http://www.w3.org/2000/svg" xmlns:xlink="http://www.w3.org/1999/xlink" contentStyleType="text/css" height="775px" preserveAspectRatio="none" style="width:1027px;height:775px;background:#FFFFFF;" version="1.1" viewBox="0 0 1027 775" width="1027px" zoomAndPan="magnify"><defs/><g><!--cluster Domain Layer--><g id="cluster_Domain Layer"><path d="M440.5,6 L540.8125,6 A3.75,3.75 0 0 1 543.3125,8.5 L550.3125,28.4883 L816.5,28.4883 A2.5,2.5 0 0 1 819,30.9883 L819,482.96 A2.5,2.5 0 0 1 816.5,485.46 L440.5,485.46 A2.5,2.5 0 0 1 438,482.96 L438,8.5 A2.5,2.5 0 0 1 440.5,6 " fill="none" style="stroke:#000000;stroke-width:1.5;"/><line style="stroke:#000000;stroke-width:1.5;" x1="438" x2="550.3125" y1="28.4883" y2="28.4883"/><text fill="#000000" font-family="sans-serif" font-size="14" font-weight="bold" lengthAdjust="spacing" textLength="99.3125" x="442" y="21.5352">Domain Layer</text></g><!--cluster Infrastructure Layer--><g id="cluster_Infrastructure Layer"><path d="M437.5,534.46 L582.4854,534.46 A3.75,3.75 0 0 1 584.9854,536.96 L591.9854,556.9483 L1017.5,556.9483 A2.5,2.5 0 0 1 1020,559.4483 L1020,629.45 A2.5,2.5 0 0 1 1017.5,631.95 L437.5,631.95 A2.5,2.5 0 0 1 435,629.45 L435,536.96 A2.5,2.5 0 0 1 437.5,534.46 " fill="none" style="stroke:#000000;stroke-width:1.5;"/><line style="stroke:#000000;stroke-width:1.5;" x1="435" x2="591.9854" y1="556.9483" y2="556.9483"/><text fill="#000000" font-family="sans-serif" font-size="14" font-weight="bold" lengthAdjust="spacing" textLength="143.9854" x="439" y="549.9952">Infrastructure Layer</text></g><!--cluster Spring Framework--><g id="cluster_Spring Framework"><path d="M8.5,534.46 L141.3926,534.46 A3.75,3.75 0 0 1 143.8926,536.96 L150.8926,556.9483 L408.5,556.9483 A2.5,2.5 0 0 1 411,559.4483 L411,766.45 A2.5,2.5 0 0 1 408.5,768.95 L8.5,768.95 A2.5,2.5 0 0 1 6,766.45 L6,536.96 A2.5,2.5 0 0 1 8.5,534.46 " fill="none" style="stroke:#000000;stroke-width:1.5;"/><line style="stroke:#000000;stroke-width:1.5;" x1="6" x2="150.8926" y1="556.9483" y2="556.9483"/><text fill="#000000" font-family="sans-serif" font-size="14" font-weight="bold" lengthAdjust="spacing" textLength="131.8926" x="10" y="549.9952">Spring Framework</text></g><!--entity DE--><g id="elem_DE"><ellipse cx="751" cy="193.49" fill="#E6F2FF" rx="8" ry="8" style="stroke:#3C7FC0;stroke-width:0.5;"/><text fill="#000000" font-family="sans-serif" font-size="14" lengthAdjust="spacing" textLength="89.1816" x="706.4092" y="224.0252">DomainEvent</text></g><!--entity AR--><g id="elem_AR"><rect fill="#F5F5F5" height="46.4883" rx="2.5" ry="2.5" style="stroke:#999999;stroke-width:0.5;" width="141.4316" x="494.28" y="41"/><rect fill="#F5F5F5" height="10" style="stroke:#999999;stroke-width:0.5;" width="15" x="615.7116" y="46"/><rect fill="#F5F5F5" height="2" style="stroke:#999999;stroke-width:0.5;" width="4" x="613.7116" y="48"/><rect fill="#F5F5F5" height="2" style="stroke:#999999;stroke-width:0.5;" width="4" x="613.7116" y="52"/><text fill="#000000" font-family="sans-serif" font-size="14" lengthAdjust="spacing" textLength="101.4316" x="509.28" y="74.5352">AggregateRoot</text></g><!--entity DEB--><g id="elem_DEB"><rect fill="#F5F5F5" height="46.4883" rx="2.5" ry="2.5" style="stroke:#999999;stroke-width:0.5;" width="153.0596" x="497.47" y="422.97"/><rect fill="#F5F5F5" height="10" style="stroke:#999999;stroke-width:0.5;" width="15" x="630.5296" y="427.97"/><rect fill="#F5F5F5" height="2" style="stroke:#999999;stroke-width:0.5;" width="4" x="628.5296" y="429.97"/><rect fill="#F5F5F5" height="2" style="stroke:#999999;stroke-width:0.5;" width="4" x="628.5296" y="433.97"/><text fill="#000000" font-family="sans-serif" font-size="14" lengthAdjust="spacing" textLength="113.0596" x="512.47" y="456.5052">DomainEventBus</text></g><!--entity DEPS--><g id="elem_DEPS"><rect fill="#F5F5F5" height="46.4883" rx="2.5" ry="2.5" style="stroke:#999999;stroke-width:0.5;" width="239.1992" x="454.4" y="299.49"/><rect fill="#F5F5F5" height="10" style="stroke:#999999;stroke-width:0.5;" width="15" x="673.5992" y="304.49"/><rect fill="#F5F5F5" height="2" style="stroke:#999999;stroke-width:0.5;" width="4" x="671.5992" y="306.49"/><rect fill="#F5F5F5" height="2" style="stroke:#999999;stroke-width:0.5;" width="4" x="671.5992" y="310.49"/><text fill="#000000" font-family="sans-serif" font-size="14" lengthAdjust="spacing" textLength="199.1992" x="469.4" y="333.0252">DomainEventPublisherService</text></g><!--entity EH--><g id="elem_EH"><rect fill="#F5F5F5" height="46.4883" rx="2.5" ry="2.5" style="stroke:#999999;stroke-width:0.5;" width="129.6533" x="673.17" y="41"/><rect fill="#F5F5F5" height="10" style="stroke:#999999;stroke-width:0.5;" width="15" x="782.8233" y="46"/><rect fill="#F5F5F5" height="2" style="stroke:#999999;stroke-width:0.5;" width="4" x="780.8233" y="48"/><rect fill="#F5F5F5" height="2" style="stroke:#999999;stroke-width:0.5;" width="4" x="780.8233" y="52"/><text fill="#000000" font-family="sans-serif" font-size="14" lengthAdjust="spacing" textLength="89.6533" x="688.17" y="74.5352">EventHandler</text></g><!--entity ALA--><g id="elem_ALA"><rect fill="#F5F5F5" height="46.4883" rx="2.5" ry="2.5" style="stroke:#999999;stroke-width:0.5;" width="209.8115" x="454.09" y="170.24"/><rect fill="#F5F5F5" height="10" style="stroke:#999999;stroke-width:0.5;" width="15" x="643.9015" y="175.24"/><rect fill="#F5F5F5" height="2" style="stroke:#999999;stroke-width:0.5;" width="4" x="641.9015" y="177.24"/><rect fill="#F5F5F5" height="2" style="stroke:#999999;stroke-width:0.5;" width="4" x="641.9015" y="181.24"/><text fill="#000000" font-family="sans-serif" font-size="14" lengthAdjust="spacing" textLength="169.8115" x="469.09" y="203.7752">AggregateLifecycleAware</text></g><!--entity DEPA--><g id="elem_DEPA"><rect fill="#F5F5F5" height="46.4883" rx="2.5" ry="2.5" style="stroke:#999999;stroke-width:0.5;" width="245.6455" x="451.18" y="569.46"/><rect fill="#F5F5F5" height="10" style="stroke:#999999;stroke-width:0.5;" width="15" x="676.8255" y="574.46"/><rect fill="#F5F5F5" height="2" style="stroke:#999999;stroke-width:0.5;" width="4" x="674.8255" y="576.46"/><rect fill="#F5F5F5" height="2" style="stroke:#999999;stroke-width:0.5;" width="4" x="674.8255" y="580.46"/><text fill="#000000" font-family="sans-serif" font-size="14" lengthAdjust="spacing" textLength="205.6455" x="466.18" y="602.9952">DomainEventPublisherAdapter</text></g><!--entity DESM--><g id="elem_DESM"><rect fill="#F5F5F5" height="46.4883" rx="2.5" ry="2.5" style="stroke:#999999;stroke-width:0.5;" width="272.1553" x="731.92" y="569.46"/><rect fill="#F5F5F5" height="10" style="stroke:#999999;stroke-width:0.5;" width="15" x="984.0753" y="574.46"/><rect fill="#F5F5F5" height="2" style="stroke:#999999;stroke-width:0.5;" width="4" x="982.0753" y="576.46"/><rect fill="#F5F5F5" height="2" style="stroke:#999999;stroke-width:0.5;" width="4" x="982.0753" y="580.46"/><text fill="#000000" font-family="sans-serif" font-size="14" lengthAdjust="spacing" textLength="232.1553" x="746.92" y="602.9952">DomainEventSubscriptionManager</text></g><!--entity AEP--><g id="elem_AEP"><ellipse cx="118" cy="723.95" fill="#E6F2FF" rx="8" ry="8" style="stroke:#3C7FC0;stroke-width:0.5;"/><text fill="#000000" font-family="sans-serif" font-size="14" lengthAdjust="spacing" textLength="176.0938" x="29.9531" y="754.4852">ApplicationEventPublisher</text></g><!--entity AL--><g id="elem_AL"><ellipse cx="322" cy="723.95" fill="#E6F2FF" rx="8" ry="8" style="stroke:#3C7FC0;stroke-width:0.5;"/><text fill="#000000" font-family="sans-serif" font-size="14" lengthAdjust="spacing" textLength="130.751" x="256.6245" y="754.4852">ApplicationListener</text></g><!--entity AC--><g id="elem_AC"><rect fill="#F5F5F5" height="46.4883" rx="2.5" ry="2.5" style="stroke:#999999;stroke-width:0.5;" width="170.6826" x="134.66" y="569.46"/><rect fill="#F5F5F5" height="10" style="stroke:#999999;stroke-width:0.5;" width="15" x="285.3426" y="574.46"/><rect fill="#F5F5F5" height="2" style="stroke:#999999;stroke-width:0.5;" width="4" x="283.3426" y="576.46"/><rect fill="#F5F5F5" height="2" style="stroke:#999999;stroke-width:0.5;" width="4" x="283.3426" y="580.46"/><text fill="#000000" font-family="sans-serif" font-size="14" lengthAdjust="spacing" textLength="130.6826" x="149.66" y="602.9952">ApplicationContext</text></g><!--link AR to DE--><g id="link_AR_DE"><path d="M597.82,87.7 C641.63,117.66 711.6877,165.5925 737.2277,183.0625 " fill="none" id="AR-to-DE" style="stroke:#666666;stroke-width:1;stroke-dasharray:7.0,7.0;"/><polygon fill="#666666" points="742.18,186.45,737.0099,178.0673,738.0531,183.6271,732.4933,184.6703,742.18,186.45" style="stroke:#666666;stroke-width:1;"/><text fill="#000000" font-family="sans-serif" font-size="13" lengthAdjust="spacing" textLength="45.1318" x="664.58" y="131.0584">creates</text></g><!--link AR to ALA--><g id="link_AR_ALA"><path d="M563.94,87.7 C562.85,110.81 561.4417,140.6466 560.3517,163.8366 " fill="none" id="AR-to-ALA" style="stroke:#666666;stroke-width:1;"/><polygon fill="#666666" points="560.07,169.83,564.4881,161.0277,560.3048,164.8355,556.497,160.6521,560.07,169.83" style="stroke:#666666;stroke-width:1;"/><text fill="#000000" font-family="sans-serif" font-size="13" lengthAdjust="spacing" textLength="28.5645" x="563.36" y="131.0584">uses</text></g><!--link ALA to DEPS--><g id="link_ALA_DEPS"><path d="M561.65,216.94 C564.37,240.06 567.8985,269.9211 570.6285,293.1111 " fill="none" id="ALA-to-DEPS" style="stroke:#666666;stroke-width:1;"/><polygon fill="#666666" points="571.33,299.07,574.2503,289.6641,570.7454,294.1043,566.3052,290.5994,571.33,299.07" style="stroke:#666666;stroke-width:1;"/><text fill="#000000" font-family="sans-serif" font-size="13" lengthAdjust="spacing" textLength="28.5645" x="568.4" y="266.0584">uses</text></g><!--link DEPS to DEB--><g id="link_DEPS_DEB"><path d="M574,346.3 C574,368.12 574,394.99 574,416.77 " fill="none" id="DEPS-to-DEB" style="stroke:#666666;stroke-width:1;"/><polygon fill="#666666" points="574,422.77,578,413.77,574,417.77,570,413.77,574,422.77" style="stroke:#666666;stroke-width:1;"/><text fill="#000000" font-family="sans-serif" font-size="13" lengthAdjust="spacing" textLength="28.5645" x="575" y="389.5384">uses</text></g><!--link EH to DE--><g id="link_EH_DE"><path d="M740.29,87.7 C743.25,116.66 747.6412,159.611 749.5812,178.631 " fill="none" id="EH-to-DE" style="stroke:#666666;stroke-width:1;stroke-dasharray:7.0,7.0;"/><polygon fill="#666666" points="750.19,184.6,753.2561,175.2406,749.6826,179.6258,745.2974,176.0523,750.19,184.6" style="stroke:#666666;stroke-width:1;"/><text fill="#000000" font-family="sans-serif" font-size="13" lengthAdjust="spacing" textLength="49.1245" x="745.89" y="131.0584">handles</text></g><!--link DEB to DEPA--><g id="link_DEB_DEPA"><path d="M574,469.79 C574,496.94 574,536.21 574,563.29 " fill="none" id="DEB-to-DEPA" style="stroke:#666666;stroke-width:1;"/><polygon fill="#666666" points="574,569.29,578,560.29,574,564.29,570,560.29,574,569.29" style="stroke:#666666;stroke-width:1;"/><text fill="#000000" font-family="sans-serif" font-size="13" lengthAdjust="spacing" textLength="28.5645" x="575" y="515.0284">uses</text></g><!--link DEPA to AEP--><g id="link_DEPA_AEP"><path d="M498.04,616.39 C450.18,630.57 387.05,649.1 331,664.95 C252.08,687.26 162.0592,711.2607 132.7492,719.0407 " fill="none" id="DEPA-to-AEP" style="stroke:#666666;stroke-width:1;"/><polygon fill="#666666" points="126.95,720.58,136.675,722.1371,131.7826,719.2972,134.6226,714.4049,126.95,720.58" style="stroke:#666666;stroke-width:1;"/><text fill="#000000" font-family="sans-serif" font-size="13" lengthAdjust="spacing" textLength="28.5645" x="385.35" y="661.5184">uses</text></g><!--link DESM to AL--><g id="link_DESM_AL"><path d="M797.04,616.36 C771.05,624.3 741.32,632.97 714,639.95 C562.02,678.79 391.3419,710.4025 348.6019,718.1425 " fill="none" id="DESM-to-AL" style="stroke:#666666;stroke-width:1;stroke-dasharray:7.0,7.0;"/><polygon fill="none" points="330.89,721.35,349.6711,724.0464,347.5327,712.2385,330.89,721.35" style="stroke:#666666;stroke-width:1;"/><text fill="#000000" font-family="sans-serif" font-size="13" lengthAdjust="spacing" textLength="74.0137" x="672.83" y="661.5184">implements</text></g><!--link AC to AEP--><g id="link_AC_AEP"><path d="M202.23,616.22 C178.95,645.73 142.9967,691.2698 127.8467,710.4698 " fill="none" id="AC-to-AEP" style="stroke:#666666;stroke-width:1;"/><polygon fill="#666666" points="124.13,715.18,132.8452,710.5924,127.2272,711.2548,126.5648,705.6369,124.13,715.18" style="stroke:#666666;stroke-width:1;"/><text fill="#000000" font-family="sans-serif" font-size="13" lengthAdjust="spacing" textLength="54.0249" x="176.11" y="661.5184">provides</text></g><!--link AC to AL--><g id="link_AC_AL"><path d="M237.77,616.22 C261.05,645.73 297.0033,691.2698 312.1533,710.4698 " fill="none" id="AC-to-AL" style="stroke:#666666;stroke-width:1;"/><polygon fill="#666666" points="315.87,715.18,313.4352,705.6369,312.7728,711.2548,307.1548,710.5924,315.87,715.18" style="stroke:#666666;stroke-width:1;"/><text fill="#000000" font-family="sans-serif" font-size="13" lengthAdjust="spacing" textLength="47.0806" x="275.06" y="661.5184">notifies</text></g><!--SRC=[XPB1JiCm38RlVOfed44810WEIDae6b8dJUiJXDGfqTeaSjAD2NXtdBQZ7MEYxQ7v_VcFOyUljN42HSsahPqrO48UTXMmfgwk4dySdGgvBj4sffZPoY8xKpVn_HErM03ss7txZ31j0g0I4euSuLPTAVKdEdQybdTANeumWMYtVV2sVPB4aRaeWKsUR2sqOPdO0KxOHy86rtqmtL3H4oOyUqef_dCEDk5bYL2A02jhEuAl3ecHmxJnlSdq9BDiNYljtm1pm8sMq2SiyyECbfqBKrInQ4BI-Od2Cgr0xcG5V2kmi-CP9vW-lc8N5uzapnwOH23QT-hv-MEaI6vyfz4YYh6IGMrNdJmTr7G-kBwr9VhaQzJm5wDG-82D30t2kF7_j8GNmeN-lBGrFvcHDwzUedP1MxCGXdRT9-MBWr9oXzgKx9ak2Mmjhe_cpvshj1JHwB2Mhf7fyYIUQH_0xC7irtG6RcOf_Rs_ExDONMnct-kV2RJ_xLJIvQ3b2-hqPnmLQRfs5THaxnC-6x4ExKONCAWHDZPefKdy1W00]--></g></svg>