<?xml version="1.0" encoding="us-ascii" standalone="no"?><svg xmlns="http://www.w3.org/2000/svg" xmlns:xlink="http://www.w3.org/1999/xlink" contentStyleType="text/css" height="1875px" preserveAspectRatio="none" style="width:3618px;height:1875px;background:#FFFFFF;" version="1.1" viewBox="0 0 3618 1875" width="3618px" zoomAndPan="magnify"><defs/><g><text fill="#000000" font-family="sans-serif" font-size="14" font-weight="bold" lengthAdjust="spacing" textLength="112" x="1751.625" y="33.5352">&#35330;&#21934;&#34389;&#29702;&#35443;&#32048;&#27969;&#31243;</text><rect fill="none" height="16.4883" style="stroke:none;stroke-width:1.0;" width="3585.25" x="15" y="48.9414"/><ellipse cx="73" cy="80.4297" fill="#222222" rx="10" ry="10" style="stroke:#222222;stroke-width:1.0;"/><rect fill="#EEEEEE" height="33.7988" rx="12.5" ry="12.5" style="stroke:#333333;stroke-width:0.5;" width="92" x="27" y="110.4297"/><text fill="#000000" font-family="Arial" font-size="12" lengthAdjust="spacing" textLength="72" x="37" y="131.6855">&#25509;&#25910;&#35330;&#21934;&#35531;&#27714;</text><rect fill="#EEEEEE" height="33.7988" rx="12.5" ry="12.5" style="stroke:#333333;stroke-width:0.5;" width="92" x="27" y="164.2285"/><text fill="#000000" font-family="Arial" font-size="12" lengthAdjust="spacing" textLength="72" x="37" y="185.4844">&#39511;&#35657;&#35531;&#27714;&#26684;&#24335;</text><rect fill="#EEEEEE" height="33.7988" rx="12.5" ry="12.5" style="stroke:#333333;stroke-width:0.5;" width="104" x="21" y="218.0273"/><text fill="#000000" font-family="Arial" font-size="12" lengthAdjust="spacing" textLength="84" x="31" y="239.2832">&#36681;&#25563;&#28858;&#21629;&#20196;&#23565;&#35937;</text><rect fill="#EEEEEE" height="33.7988" rx="12.5" ry="12.5" style="stroke:#333333;stroke-width:0.5;" width="92" x="27" y="1787.7969"/><text fill="#000000" font-family="Arial" font-size="12" lengthAdjust="spacing" textLength="72" x="37" y="1809.0527">&#36820;&#22238;&#35330;&#21934;&#38911;&#25033;</text><ellipse cx="73" cy="1852.5957" fill="none" rx="11" ry="11" style="stroke:#222222;stroke-width:1.0;"/><ellipse cx="73" cy="1852.5957" fill="#222222" rx="6" ry="6" style="stroke:#111111;stroke-width:1.0;"/><line style="stroke:#333333;stroke-width:2.0;" x1="15" x2="15" y1="48.9414" y2="1863.5957"/><path d="M629,276.0703 L629,284.7256 L609,288.7256 L629,292.7256 L629,301.3809 A0,0 0 0 0 629,301.3809 L886,301.3809 A0,0 0 0 0 886,301.3809 L886,286.0703 L876,276.0703 L629,276.0703 A0,0 0 0 0 629,276.0703 " fill="#FFFFCC" style="stroke:#999999;stroke-width:0.5;"/><path d="M876,276.0703 L876,286.0703 L886,286.0703 L876,276.0703 " fill="#FFFFCC" style="stroke:#999999;stroke-width:0.5;"/><text fill="#000000" font-family="sans-serif" font-size="13" lengthAdjust="spacing" textLength="236" x="635" y="293.6387">OrderApplicationService.createOrder()</text><rect fill="#EEEEEE" height="33.7988" rx="12.5" ry="12.5" style="stroke:#333333;stroke-width:0.5;" width="116" x="493" y="271.8262"/><text fill="#000000" font-family="Arial" font-size="12" lengthAdjust="spacing" textLength="96" x="503" y="293.082">&#34389;&#29702;&#21109;&#24314;&#35330;&#21934;&#21629;&#20196;</text><path d="M617,329.8691 L617,338.5244 L597,342.5244 L617,346.5244 L617,355.1797 A0,0 0 0 0 617,355.1797 L804,355.1797 A0,0 0 0 0 804,355.1797 L804,339.8691 L794,329.8691 L617,329.8691 A0,0 0 0 0 617,329.8691 " fill="#FFFFCC" style="stroke:#999999;stroke-width:0.5;"/><path d="M794,329.8691 L794,339.8691 L804,339.8691 L794,329.8691 " fill="#FFFFCC" style="stroke:#999999;stroke-width:0.5;"/><text fill="#000000" font-family="sans-serif" font-size="13" lengthAdjust="spacing" textLength="166" x="623" y="347.4375">OrderFactory.createOrder()</text><rect fill="#EEEEEE" height="33.7988" rx="12.5" ry="12.5" style="stroke:#333333;stroke-width:0.5;" width="92" x="505" y="325.625"/><text fill="#000000" font-family="Arial" font-size="12" lengthAdjust="spacing" textLength="72" x="515" y="346.8809">&#35519;&#29992;&#35330;&#21934;&#24037;&#24288;</text><rect fill="#EEEEEE" height="33.7988" rx="12.5" ry="12.5" style="stroke:#333333;stroke-width:0.5;" width="68" x="517" y="648.418"/><text fill="#000000" font-family="Arial" font-size="12" lengthAdjust="spacing" textLength="48" x="527" y="669.6738">&#20445;&#23384;&#35330;&#21934;</text><path d="M629,760.2598 L629,768.915 L609,772.915 L629,776.915 L629,785.5703 A0,0 0 0 0 629,785.5703 L892,785.5703 A0,0 0 0 0 892,785.5703 L892,770.2598 L882,760.2598 L629,760.2598 A0,0 0 0 0 629,760.2598 " fill="#FFFFCC" style="stroke:#999999;stroke-width:0.5;"/><path d="M882,760.2598 L882,770.2598 L892,770.2598 L882,760.2598 " fill="#FFFFCC" style="stroke:#999999;stroke-width:0.5;"/><text fill="#000000" font-family="sans-serif" font-size="13" lengthAdjust="spacing" textLength="242" x="635" y="777.8281">OrderApplicationService.submitOrder()</text><rect fill="#EEEEEE" height="33.7988" rx="12.5" ry="12.5" style="stroke:#333333;stroke-width:0.5;" width="116" x="493" y="756.0156"/><text fill="#000000" font-family="Arial" font-size="12" lengthAdjust="spacing" textLength="96" x="503" y="777.2715">&#34389;&#29702;&#35330;&#21934;&#25552;&#20132;&#21629;&#20196;</text><path d="M605,921.6563 L605,930.3115 L585,934.3115 L605,938.3115 L605,946.9668 A0,0 0 0 0 605,946.9668 L704,946.9668 A0,0 0 0 0 704,946.9668 L704,931.6563 L694,921.6563 L605,921.6563 A0,0 0 0 0 605,921.6563 " fill="#FFFFCC" style="stroke:#999999;stroke-width:0.5;"/><path d="M694,921.6563 L694,931.6563 L704,931.6563 L694,921.6563 " fill="#FFFFCC" style="stroke:#999999;stroke-width:0.5;"/><text fill="#000000" font-family="sans-serif" font-size="13" lengthAdjust="spacing" textLength="78" x="611" y="939.2246">&#35519;&#29992;&#24235;&#23384;&#26381;&#21209;</text><rect fill="#EEEEEE" height="33.7988" rx="12.5" ry="12.5" style="stroke:#333333;stroke-width:0.5;" width="68" x="517" y="917.4121"/><text fill="#000000" font-family="Arial" font-size="12" lengthAdjust="spacing" textLength="48" x="527" y="938.668">&#27298;&#26597;&#24235;&#23384;</text><polygon fill="#EEEEEE" points="526,1025.0098,576,1025.0098,588,1037.0098,576,1049.0098,526,1049.0098,514,1037.0098,526,1025.0098" style="stroke:#333333;stroke-width:0.5;"/><text fill="#000000" font-family="Arial" font-size="11" lengthAdjust="spacing" textLength="50" x="526" y="1041.0032">&#24235;&#23384;&#20805;&#36275;?</text><text fill="#000000" font-family="sans-serif" font-size="11" lengthAdjust="spacing" textLength="11" x="503" y="1034.6895">&#26159;</text><text fill="#000000" font-family="sans-serif" font-size="11" lengthAdjust="spacing" textLength="11" x="588" y="1034.6895">&#21542;</text><rect fill="#EEEEEE" height="33.7988" rx="12.5" ry="12.5" style="stroke:#333333;stroke-width:0.5;" width="68" x="275" y="1069.0098"/><text fill="#000000" font-family="Arial" font-size="12" lengthAdjust="spacing" textLength="48" x="285" y="1090.2656">&#34389;&#29702;&#25903;&#20184;</text><polygon fill="#EEEEEE" points="284,1176.6074,334,1176.6074,346,1188.6074,334,1200.6074,284,1200.6074,272,1188.6074,284,1176.6074" style="stroke:#333333;stroke-width:0.5;"/><text fill="#000000" font-family="Arial" font-size="11" lengthAdjust="spacing" textLength="50" x="284" y="1192.6008">&#25903;&#20184;&#25104;&#21151;?</text><text fill="#000000" font-family="sans-serif" font-size="11" lengthAdjust="spacing" textLength="11" x="261" y="1186.2871">&#26159;</text><text fill="#000000" font-family="sans-serif" font-size="11" lengthAdjust="spacing" textLength="11" x="346" y="1186.2871">&#21542;</text><rect fill="#EEEEEE" height="33.7988" rx="12.5" ry="12.5" style="stroke:#333333;stroke-width:0.5;" width="68" x="159" y="1343.2051"/><text fill="#000000" font-family="Arial" font-size="12" lengthAdjust="spacing" textLength="48" x="169" y="1364.4609">&#23433;&#25490;&#37197;&#36865;</text><rect fill="#EEEEEE" height="33.7988" rx="12.5" ry="12.5" style="stroke:#333333;stroke-width:0.5;" width="116" x="135" y="1450.8027"/><text fill="#000000" font-family="Arial" font-size="12" lengthAdjust="spacing" textLength="96" x="145" y="1472.0586">&#26356;&#26032;&#35330;&#21934;&#37197;&#36865;&#20449;&#24687;</text><rect fill="#EEEEEE" height="33.7988" rx="12.5" ry="12.5" style="stroke:#333333;stroke-width:0.5;" width="116" x="135" y="1558.4004"/><text fill="#000000" font-family="Arial" font-size="12" lengthAdjust="spacing" textLength="96" x="145" y="1579.6563">&#30332;&#36865;&#35330;&#21934;&#30906;&#35469;&#36890;&#30693;</text><rect fill="#EEEEEE" height="33.7988" rx="12.5" ry="12.5" style="stroke:#333333;stroke-width:0.5;" width="116" x="367" y="1343.2051"/><text fill="#000000" font-family="Arial" font-size="12" lengthAdjust="spacing" textLength="96" x="377" y="1364.4609">&#30332;&#36865;&#25903;&#20184;&#22833;&#25943;&#36890;&#30693;</text><polygon fill="#EEEEEE" points="309,1655.998,321,1667.998,309,1679.998,297,1667.998,309,1655.998" style="stroke:#333333;stroke-width:0.5;"/><rect fill="#EEEEEE" height="33.7988" rx="12.5" ry="12.5" style="stroke:#333333;stroke-width:0.5;" width="116" x="848.25" y="1176.6074"/><text fill="#000000" font-family="Arial" font-size="12" lengthAdjust="spacing" textLength="96" x="858.25" y="1197.8633">&#30332;&#36865;&#24235;&#23384;&#19981;&#36275;&#36890;&#30693;</text><polygon fill="#EEEEEE" points="551,1689.998,563,1701.998,551,1713.998,539,1701.998,551,1689.998" style="stroke:#333333;stroke-width:0.5;"/><rect fill="#EEEEEE" height="33.7988" rx="12.5" ry="12.5" style="stroke:#333333;stroke-width:0.5;" width="92" x="505" y="1733.998"/><text fill="#000000" font-family="Arial" font-size="12" lengthAdjust="spacing" textLength="72" x="515" y="1755.2539">&#27083;&#24314;&#38911;&#25033;&#23565;&#35937;</text><line style="stroke:#333333;stroke-width:2.0;" x1="129" x2="129" y1="48.9414" y2="1863.5957"/><path d="M1632,383.668 L1632,392.3232 L1612,396.3232 L1632,400.3232 L1632,408.9785 A0,0 0 0 0 1632,408.9785 L1906,408.9785 A0,0 0 0 0 1906,408.9785 L1906,393.668 L1896,383.668 L1632,383.668 A0,0 0 0 0 1632,383.668 " fill="#FFFFCC" style="stroke:#999999;stroke-width:0.5;"/><path d="M1896,383.668 L1896,393.668 L1906,393.668 L1896,383.668 " fill="#FFFFCC" style="stroke:#999999;stroke-width:0.5;"/><text fill="#000000" font-family="sans-serif" font-size="13" lengthAdjust="spacing" textLength="253" x="1638" y="401.2363">new Order(orderId, customerId, address)</text><rect fill="#EEEEEE" height="33.7988" rx="12.5" ry="12.5" style="stroke:#333333;stroke-width:0.5;" width="104" x="1508" y="379.4238"/><text fill="#000000" font-family="Arial" font-size="12" lengthAdjust="spacing" textLength="84" x="1518" y="400.6797">&#21109;&#24314;&#35330;&#21934;&#32858;&#21512;&#26681;</text><path d="M1626,437.4668 L1626,446.1221 L1606,450.1221 L1626,454.1221 L1626,462.7773 A0,0 0 0 0 1626,462.7773 L1945,462.7773 A0,0 0 0 0 1945,462.7773 L1945,447.4668 L1935,437.4668 L1626,437.4668 A0,0 0 0 0 1626,437.4668 " fill="#FFFFCC" style="stroke:#999999;stroke-width:0.5;"/><path d="M1935,437.4668 L1935,447.4668 L1945,447.4668 L1935,437.4668 " fill="#FFFFCC" style="stroke:#999999;stroke-width:0.5;"/><text fill="#000000" font-family="sans-serif" font-size="13" lengthAdjust="spacing" textLength="298" x="1632" y="455.0352">order.addItem(productId, name, quantity, price)</text><rect fill="#EEEEEE" height="33.7988" rx="12.5" ry="12.5" style="stroke:#333333;stroke-width:0.5;" width="92" x="1514" y="433.2227"/><text fill="#000000" font-family="Arial" font-size="12" lengthAdjust="spacing" textLength="72" x="1524" y="454.4785">&#28155;&#21152;&#35330;&#21934;&#38917;&#30446;</text><path d="M1626,491.2656 L1626,499.9209 L1606,503.9209 L1626,507.9209 L1626,516.5762 A0,0 0 0 0 1626,516.5762 L1780,516.5762 A0,0 0 0 0 1780,516.5762 L1780,501.2656 L1770,491.2656 L1626,491.2656 A0,0 0 0 0 1626,491.2656 " fill="#FFFFCC" style="stroke:#999999;stroke-width:0.5;"/><path d="M1770,491.2656 L1770,501.2656 L1780,501.2656 L1770,491.2656 " fill="#FFFFCC" style="stroke:#999999;stroke-width:0.5;"/><text fill="#000000" font-family="sans-serif" font-size="13" lengthAdjust="spacing" textLength="133" x="1632" y="508.834">order.calculateTotal()</text><rect fill="#EEEEEE" height="33.7988" rx="12.5" ry="12.5" style="stroke:#333333;stroke-width:0.5;" width="92" x="1514" y="487.0215"/><text fill="#000000" font-family="Arial" font-size="12" lengthAdjust="spacing" textLength="72" x="1524" y="508.2773">&#35336;&#31639;&#35330;&#21934;&#32317;&#38989;</text><path d="M1626,545.0645 L1626,553.7197 L1606,557.7197 L1626,561.7197 L1626,570.375 A0,0 0 0 0 1626,570.375 L1855,570.375 A0,0 0 0 0 1855,570.375 L1855,555.0645 L1845,545.0645 L1626,545.0645 A0,0 0 0 0 1626,545.0645 " fill="#FFFFCC" style="stroke:#999999;stroke-width:0.5;"/><path d="M1845,545.0645 L1845,555.0645 L1855,555.0645 L1845,545.0645 " fill="#FFFFCC" style="stroke:#999999;stroke-width:0.5;"/><text fill="#000000" font-family="sans-serif" font-size="13" lengthAdjust="spacing" textLength="208" x="1632" y="562.6328">OrderDiscountPolicy.apply(order)</text><rect fill="#EEEEEE" height="33.7988" rx="12.5" ry="12.5" style="stroke:#333333;stroke-width:0.5;" width="92" x="1514" y="540.8203"/><text fill="#000000" font-family="Arial" font-size="12" lengthAdjust="spacing" textLength="72" x="1524" y="562.0762">&#25033;&#29992;&#25240;&#25187;&#31574;&#30053;</text><path d="M1638,598.8633 L1638,607.5186 L1618,611.5186 L1638,615.5186 L1638,624.1738 A0,0 0 0 0 1638,624.1738 L1776,624.1738 A0,0 0 0 0 1776,624.1738 L1776,608.8633 L1766,598.8633 L1638,598.8633 A0,0 0 0 0 1638,598.8633 " fill="#FFFFCC" style="stroke:#999999;stroke-width:0.5;"/><path d="M1766,598.8633 L1766,608.8633 L1776,608.8633 L1766,598.8633 " fill="#FFFFCC" style="stroke:#999999;stroke-width:0.5;"/><text fill="#000000" font-family="sans-serif" font-size="13" lengthAdjust="spacing" textLength="117" x="1644" y="616.4316">OrderCreatedEvent</text><rect fill="#EEEEEE" height="33.7988" rx="12.5" ry="12.5" style="stroke:#333333;stroke-width:0.5;" width="116" x="1502" y="594.6191"/><text fill="#000000" font-family="Arial" font-size="12" lengthAdjust="spacing" textLength="96" x="1512" y="615.875">&#30332;&#24067;&#35330;&#21934;&#21109;&#24314;&#20107;&#20214;</text><path d="M1626,814.0586 L1626,822.7139 L1606,826.7139 L1626,830.7139 L1626,839.3691 A0,0 0 0 0 1626,839.3691 L1898,839.3691 A0,0 0 0 0 1898,839.3691 L1898,824.0586 L1888,814.0586 L1626,814.0586 A0,0 0 0 0 1626,814.0586 " fill="#FFFFCC" style="stroke:#999999;stroke-width:0.5;"/><path d="M1888,814.0586 L1888,824.0586 L1898,824.0586 L1888,814.0586 " fill="#FFFFCC" style="stroke:#999999;stroke-width:0.5;"/><text fill="#000000" font-family="sans-serif" font-size="13" lengthAdjust="spacing" textLength="251" x="1632" y="831.627">order.updateStatus(PENDING_PAYMENT)</text><rect fill="#EEEEEE" height="33.7988" rx="12.5" ry="12.5" style="stroke:#333333;stroke-width:0.5;" width="92" x="1514" y="809.8145"/><text fill="#000000" font-family="Arial" font-size="12" lengthAdjust="spacing" textLength="72" x="1524" y="831.0703">&#26356;&#26032;&#35330;&#21934;&#29376;&#24907;</text><path d="M1638,867.8574 L1638,876.5127 L1618,880.5127 L1638,884.5127 L1638,893.168 A0,0 0 0 0 1638,893.168 L1792,893.168 A0,0 0 0 0 1792,893.168 L1792,877.8574 L1782,867.8574 L1638,867.8574 A0,0 0 0 0 1638,867.8574 " fill="#FFFFCC" style="stroke:#999999;stroke-width:0.5;"/><path d="M1782,867.8574 L1782,877.8574 L1792,877.8574 L1782,867.8574 " fill="#FFFFCC" style="stroke:#999999;stroke-width:0.5;"/><text fill="#000000" font-family="sans-serif" font-size="13" lengthAdjust="spacing" textLength="133" x="1644" y="885.4258">OrderSubmittedEvent</text><rect fill="#EEEEEE" height="33.7988" rx="12.5" ry="12.5" style="stroke:#333333;stroke-width:0.5;" width="116" x="1502" y="863.6133"/><text fill="#000000" font-family="Arial" font-size="12" lengthAdjust="spacing" textLength="96" x="1512" y="884.8691">&#30332;&#24067;&#35330;&#21934;&#25552;&#20132;&#20107;&#20214;</text><path d="M1134.25,1224.8516 L1134.25,1233.5068 L1114.25,1237.5068 L1134.25,1241.5068 L1134.25,1250.1621 A0,0 0 0 0 1134.25,1250.1621 L1358.25,1250.1621 A0,0 0 0 0 1358.25,1250.1621 L1358.25,1234.8516 L1348.25,1224.8516 L1134.25,1224.8516 A0,0 0 0 0 1134.25,1224.8516 " fill="#FFFFCC" style="stroke:#999999;stroke-width:0.5;"/><path d="M1348.25,1224.8516 L1348.25,1234.8516 L1358.25,1234.8516 L1348.25,1224.8516 " fill="#FFFFCC" style="stroke:#999999;stroke-width:0.5;"/><text fill="#000000" font-family="sans-serif" font-size="13" lengthAdjust="spacing" textLength="203" x="1140.25" y="1242.4199">order.updateStatus(CONFIRMED)</text><rect fill="#EEEEEE" height="33.7988" rx="12.5" ry="12.5" style="stroke:#333333;stroke-width:0.5;" width="140" x="974.25" y="1220.6074"/><text fill="#000000" font-family="Arial" font-size="12" lengthAdjust="spacing" textLength="120" x="984.25" y="1241.8633">&#26356;&#26032;&#35330;&#21934;&#29376;&#24907;&#28858;&#24050;&#30906;&#35469;</text><path d="M1122.25,1293.6504 L1122.25,1302.3057 L1102.25,1306.3057 L1122.25,1310.3057 L1122.25,1318.9609 A0,0 0 0 0 1122.25,1318.9609 L1298.25,1318.9609 A0,0 0 0 0 1298.25,1318.9609 L1298.25,1303.6504 L1288.25,1293.6504 L1122.25,1293.6504 A0,0 0 0 0 1122.25,1293.6504 " fill="#FFFFCC" style="stroke:#999999;stroke-width:0.5;"/><path d="M1288.25,1293.6504 L1288.25,1303.6504 L1298.25,1303.6504 L1288.25,1293.6504 " fill="#FFFFCC" style="stroke:#999999;stroke-width:0.5;"/><text fill="#000000" font-family="sans-serif" font-size="13" lengthAdjust="spacing" textLength="155" x="1128.25" y="1311.2188">PaymentCompletedEvent</text><rect fill="#EEEEEE" height="33.7988" rx="12.5" ry="12.5" style="stroke:#333333;stroke-width:0.5;" width="116" x="986.25" y="1289.4063"/><text fill="#000000" font-family="Arial" font-size="12" lengthAdjust="spacing" textLength="96" x="996.25" y="1310.6621">&#30332;&#24067;&#25903;&#20184;&#23436;&#25104;&#20107;&#20214;</text><path d="M1122.25,1508.8457 L1122.25,1517.501 L1102.25,1521.501 L1122.25,1525.501 L1122.25,1534.1563 A0,0 0 0 0 1122.25,1534.1563 L1285.25,1534.1563 A0,0 0 0 0 1285.25,1534.1563 L1285.25,1518.8457 L1275.25,1508.8457 L1122.25,1508.8457 A0,0 0 0 0 1122.25,1508.8457 " fill="#FFFFCC" style="stroke:#999999;stroke-width:0.5;"/><path d="M1275.25,1508.8457 L1275.25,1518.8457 L1285.25,1518.8457 L1275.25,1508.8457 " fill="#FFFFCC" style="stroke:#999999;stroke-width:0.5;"/><text fill="#000000" font-family="sans-serif" font-size="13" lengthAdjust="spacing" textLength="142" x="1128.25" y="1526.4141">DeliveryArrangedEvent</text><rect fill="#EEEEEE" height="33.7988" rx="12.5" ry="12.5" style="stroke:#333333;stroke-width:0.5;" width="116" x="986.25" y="1504.6016"/><text fill="#000000" font-family="Arial" font-size="12" lengthAdjust="spacing" textLength="96" x="996.25" y="1525.8574">&#30332;&#24067;&#37197;&#36865;&#23433;&#25490;&#20107;&#20214;</text><path d="M1516.25,1224.8516 L1516.25,1233.5068 L1496.25,1237.5068 L1516.25,1241.5068 L1516.25,1250.1621 A0,0 0 0 0 1516.25,1250.1621 L1708.25,1250.1621 A0,0 0 0 0 1708.25,1250.1621 L1708.25,1234.8516 L1698.25,1224.8516 L1516.25,1224.8516 A0,0 0 0 0 1516.25,1224.8516 " fill="#FFFFCC" style="stroke:#999999;stroke-width:0.5;"/><path d="M1698.25,1224.8516 L1698.25,1234.8516 L1708.25,1234.8516 L1698.25,1224.8516 " fill="#FFFFCC" style="stroke:#999999;stroke-width:0.5;"/><text fill="#000000" font-family="sans-serif" font-size="13" lengthAdjust="spacing" textLength="171" x="1522.25" y="1242.4199">order.updateStatus(FAILED)</text><rect fill="#EEEEEE" height="33.7988" rx="12.5" ry="12.5" style="stroke:#333333;stroke-width:0.5;" width="128" x="1368.25" y="1220.6074"/><text fill="#000000" font-family="Arial" font-size="12" lengthAdjust="spacing" textLength="108" x="1378.25" y="1241.8633">&#26356;&#26032;&#35330;&#21934;&#29376;&#24907;&#28858;&#22833;&#25943;</text><path d="M1510.25,1293.6504 L1510.25,1302.3057 L1490.25,1306.3057 L1510.25,1310.3057 L1510.25,1318.9609 A0,0 0 0 0 1510.25,1318.9609 L1655.25,1318.9609 A0,0 0 0 0 1655.25,1318.9609 L1655.25,1303.6504 L1645.25,1293.6504 L1510.25,1293.6504 A0,0 0 0 0 1510.25,1293.6504 " fill="#FFFFCC" style="stroke:#999999;stroke-width:0.5;"/><path d="M1645.25,1293.6504 L1645.25,1303.6504 L1655.25,1303.6504 L1645.25,1293.6504 " fill="#FFFFCC" style="stroke:#999999;stroke-width:0.5;"/><text fill="#000000" font-family="sans-serif" font-size="13" lengthAdjust="spacing" textLength="124" x="1516.25" y="1311.2188">PaymentFailedEvent</text><rect fill="#EEEEEE" height="33.7988" rx="12.5" ry="12.5" style="stroke:#333333;stroke-width:0.5;" width="116" x="1374.25" y="1289.4063"/><text fill="#000000" font-family="Arial" font-size="12" lengthAdjust="spacing" textLength="96" x="1384.25" y="1310.6621">&#30332;&#24067;&#25903;&#20184;&#22833;&#25943;&#20107;&#20214;</text><path d="M1999.25,1073.2539 L1999.25,1081.9092 L1979.25,1085.9092 L1999.25,1089.9092 L1999.25,1098.5645 A0,0 0 0 0 1999.25,1098.5645 L2191.25,1098.5645 A0,0 0 0 0 2191.25,1098.5645 L2191.25,1083.2539 L2181.25,1073.2539 L1999.25,1073.2539 A0,0 0 0 0 1999.25,1073.2539 " fill="#FFFFCC" style="stroke:#999999;stroke-width:0.5;"/><path d="M2181.25,1073.2539 L2181.25,1083.2539 L2191.25,1083.2539 L2181.25,1073.2539 " fill="#FFFFCC" style="stroke:#999999;stroke-width:0.5;"/><text fill="#000000" font-family="sans-serif" font-size="13" lengthAdjust="spacing" textLength="171" x="2005.25" y="1090.8223">order.updateStatus(FAILED)</text><rect fill="#EEEEEE" height="33.7988" rx="12.5" ry="12.5" style="stroke:#333333;stroke-width:0.5;" width="128" x="1851.25" y="1069.0098"/><text fill="#000000" font-family="Arial" font-size="12" lengthAdjust="spacing" textLength="108" x="1861.25" y="1090.2656">&#26356;&#26032;&#35330;&#21934;&#29376;&#24907;&#28858;&#22833;&#25943;</text><path d="M1993.25,1127.0527 L1993.25,1135.708 L1973.25,1139.708 L1993.25,1143.708 L1993.25,1152.3633 A0,0 0 0 0 1993.25,1152.3633 L2179.25,1152.3633 A0,0 0 0 0 2179.25,1152.3633 L2179.25,1137.0527 L2169.25,1127.0527 L1993.25,1127.0527 A0,0 0 0 0 1993.25,1127.0527 " fill="#FFFFCC" style="stroke:#999999;stroke-width:0.5;"/><path d="M2169.25,1127.0527 L2169.25,1137.0527 L2179.25,1137.0527 L2169.25,1127.0527 " fill="#FFFFCC" style="stroke:#999999;stroke-width:0.5;"/><text fill="#000000" font-family="sans-serif" font-size="13" lengthAdjust="spacing" textLength="165" x="1999.25" y="1144.6211">InventoryInsufficientEvent</text><rect fill="#EEEEEE" height="33.7988" rx="12.5" ry="12.5" style="stroke:#333333;stroke-width:0.5;" width="116" x="1857.25" y="1122.8086"/><text fill="#000000" font-family="Arial" font-size="12" lengthAdjust="spacing" textLength="96" x="1867.25" y="1144.0645">&#30332;&#24067;&#24235;&#23384;&#19981;&#36275;&#20107;&#20214;</text><line style="stroke:#333333;stroke-width:2.0;" x1="968.25" x2="968.25" y1="48.9414" y2="1863.5957"/><path d="M2891,706.4609 L2891,715.1162 L2871,719.1162 L2891,723.1162 L2891,731.7715 A0,0 0 0 0 2891,731.7715 L3107,731.7715 A0,0 0 0 0 3107,731.7715 L3107,716.4609 L3097,706.4609 L2891,706.4609 A0,0 0 0 0 2891,706.4609 " fill="#FFFFCC" style="stroke:#999999;stroke-width:0.5;"/><path d="M3097,706.4609 L3097,716.4609 L3107,716.4609 L3097,706.4609 " fill="#FFFFCC" style="stroke:#999999;stroke-width:0.5;"/><text fill="#000000" font-family="sans-serif" font-size="13" lengthAdjust="spacing" textLength="195" x="2897" y="724.0293">OrderPersistenceAdapter.save()</text><rect fill="#EEEEEE" height="33.7988" rx="12.5" ry="12.5" style="stroke:#333333;stroke-width:0.5;" width="80" x="2791" y="702.2168"/><text fill="#000000" font-family="Arial" font-size="12" lengthAdjust="spacing" textLength="60" x="2801" y="723.4727">&#25345;&#20037;&#21270;&#35330;&#21934;</text><path d="M2897,975.4551 L2897,984.1104 L2877,988.1104 L2897,992.1104 L2897,1000.7656 A0,0 0 0 0 2897,1000.7656 L3178,1000.7656 A0,0 0 0 0 3178,1000.7656 L3178,985.4551 L3168,975.4551 L2897,975.4551 A0,0 0 0 0 2897,975.4551 " fill="#FFFFCC" style="stroke:#999999;stroke-width:0.5;"/><path d="M3168,975.4551 L3168,985.4551 L3178,985.4551 L3168,975.4551 " fill="#FFFFCC" style="stroke:#999999;stroke-width:0.5;"/><text fill="#000000" font-family="sans-serif" font-size="13" lengthAdjust="spacing" textLength="260" x="2903" y="993.0234">InventoryServiceAdapter.checkInventory()</text><rect fill="#EEEEEE" height="33.7988" rx="12.5" ry="12.5" style="stroke:#333333;stroke-width:0.5;" width="92" x="2785" y="971.2109"/><text fill="#000000" font-family="Arial" font-size="12" lengthAdjust="spacing" textLength="72" x="2795" y="992.4668">&#35519;&#29992;&#24235;&#23384;&#31995;&#32113;</text><path d="M2541.75,1127.0527 L2541.75,1135.708 L2521.75,1139.708 L2541.75,1143.708 L2541.75,1152.3633 A0,0 0 0 0 2541.75,1152.3633 L2822.75,1152.3633 A0,0 0 0 0 2822.75,1152.3633 L2822.75,1137.0527 L2812.75,1127.0527 L2541.75,1127.0527 A0,0 0 0 0 2541.75,1127.0527 " fill="#FFFFCC" style="stroke:#999999;stroke-width:0.5;"/><path d="M2812.75,1127.0527 L2812.75,1137.0527 L2822.75,1137.0527 L2812.75,1127.0527 " fill="#FFFFCC" style="stroke:#999999;stroke-width:0.5;"/><text fill="#000000" font-family="sans-serif" font-size="13" lengthAdjust="spacing" textLength="260" x="2547.75" y="1144.6211">PaymentServiceAdapter.processPayment()</text><rect fill="#EEEEEE" height="33.7988" rx="12.5" ry="12.5" style="stroke:#333333;stroke-width:0.5;" width="92" x="2429.75" y="1122.8086"/><text fill="#000000" font-family="Arial" font-size="12" lengthAdjust="spacing" textLength="72" x="2439.75" y="1144.0645">&#35519;&#29992;&#25903;&#20184;&#26381;&#21209;</text><path d="M2314.25,1401.248 L2314.25,1409.9033 L2294.25,1413.9033 L2314.25,1417.9033 L2314.25,1426.5586 A0,0 0 0 0 2314.25,1426.5586 L2595.25,1426.5586 A0,0 0 0 0 2595.25,1426.5586 L2595.25,1411.248 L2585.25,1401.248 L2314.25,1401.248 A0,0 0 0 0 2314.25,1401.248 " fill="#FFFFCC" style="stroke:#999999;stroke-width:0.5;"/><path d="M2585.25,1401.248 L2585.25,1411.248 L2595.25,1411.248 L2585.25,1401.248 " fill="#FFFFCC" style="stroke:#999999;stroke-width:0.5;"/><text fill="#000000" font-family="sans-serif" font-size="13" lengthAdjust="spacing" textLength="260" x="2320.25" y="1418.8164">LogisticsServiceAdapter.arrangeDelivery()</text><rect fill="#EEEEEE" height="33.7988" rx="12.5" ry="12.5" style="stroke:#333333;stroke-width:0.5;" width="92" x="2202.25" y="1397.0039"/><text fill="#000000" font-family="Arial" font-size="12" lengthAdjust="spacing" textLength="72" x="2212.25" y="1418.2598">&#35519;&#29992;&#29289;&#27969;&#26381;&#21209;</text><path d="M2314.25,1616.4434 L2314.25,1625.0986 L2294.25,1629.0986 L2314.25,1633.0986 L2314.25,1641.7539 A0,0 0 0 0 2314.25,1641.7539 L2619.25,1641.7539 A0,0 0 0 0 2619.25,1641.7539 L2619.25,1626.4434 L2609.25,1616.4434 L2314.25,1616.4434 A0,0 0 0 0 2314.25,1616.4434 " fill="#FFFFCC" style="stroke:#999999;stroke-width:0.5;"/><path d="M2609.25,1616.4434 L2609.25,1626.4434 L2619.25,1626.4434 L2609.25,1616.4434 " fill="#FFFFCC" style="stroke:#999999;stroke-width:0.5;"/><text fill="#000000" font-family="sans-serif" font-size="13" lengthAdjust="spacing" textLength="284" x="2320.25" y="1634.0117">NotificationAdapter.sendOrderConfirmation()</text><rect fill="#EEEEEE" height="33.7988" rx="12.5" ry="12.5" style="stroke:#333333;stroke-width:0.5;" width="92" x="2202.25" y="1612.1992"/><text fill="#000000" font-family="Arial" font-size="12" lengthAdjust="spacing" textLength="72" x="2212.25" y="1633.4551">&#35519;&#29992;&#36890;&#30693;&#26381;&#21209;</text><path d="M2769.25,1401.248 L2769.25,1409.9033 L2749.25,1413.9033 L2769.25,1417.9033 L2769.25,1426.5586 A0,0 0 0 0 2769.25,1426.5586 L3092.25,1426.5586 A0,0 0 0 0 3092.25,1426.5586 L3092.25,1411.248 L3082.25,1401.248 L2769.25,1401.248 A0,0 0 0 0 2769.25,1401.248 " fill="#FFFFCC" style="stroke:#999999;stroke-width:0.5;"/><path d="M3082.25,1401.248 L3082.25,1411.248 L3092.25,1411.248 L3082.25,1401.248 " fill="#FFFFCC" style="stroke:#999999;stroke-width:0.5;"/><text fill="#000000" font-family="sans-serif" font-size="13" lengthAdjust="spacing" textLength="302" x="2775.25" y="1418.8164">NotificationAdapter.sendPaymentFailureNotice()</text><rect fill="#EEEEEE" height="33.7988" rx="12.5" ry="12.5" style="stroke:#333333;stroke-width:0.5;" width="92" x="2657.25" y="1397.0039"/><text fill="#000000" font-family="Arial" font-size="12" lengthAdjust="spacing" textLength="72" x="2667.25" y="1418.2598">&#35519;&#29992;&#36890;&#30693;&#26381;&#21209;</text><path d="M3252.25,1249.6504 L3252.25,1258.3057 L3232.25,1262.3057 L3252.25,1266.3057 L3252.25,1274.9609 A0,0 0 0 0 3252.25,1274.9609 L3594.25,1274.9609 A0,0 0 0 0 3594.25,1274.9609 L3594.25,1259.6504 L3584.25,1249.6504 L3252.25,1249.6504 A0,0 0 0 0 3252.25,1249.6504 " fill="#FFFFCC" style="stroke:#999999;stroke-width:0.5;"/><path d="M3584.25,1249.6504 L3584.25,1259.6504 L3594.25,1259.6504 L3584.25,1249.6504 " fill="#FFFFCC" style="stroke:#999999;stroke-width:0.5;"/><text fill="#000000" font-family="sans-serif" font-size="13" lengthAdjust="spacing" textLength="321" x="3258.25" y="1267.2188">NotificationAdapter.sendInventoryShortageNotice()</text><rect fill="#EEEEEE" height="33.7988" rx="12.5" ry="12.5" style="stroke:#333333;stroke-width:0.5;" width="92" x="3140.25" y="1245.4063"/><text fill="#000000" font-family="Arial" font-size="12" lengthAdjust="spacing" textLength="72" x="3150.25" y="1266.6621">&#35519;&#29992;&#36890;&#30693;&#26381;&#21209;</text><line style="stroke:#333333;stroke-width:2.0;" x1="2196.25" x2="2196.25" y1="48.9414" y2="1863.5957"/><line style="stroke:#333333;stroke-width:2.0;" x1="3599.25" x2="3599.25" y1="48.9414" y2="1863.5957"/><line style="stroke:#333333;stroke-width:1.0;" x1="73" x2="73" y1="90.4297" y2="110.4297"/><polygon fill="#333333" points="69,100.4297,73,110.4297,77,100.4297,73,104.4297" style="stroke:#333333;stroke-width:1.0;"/><line style="stroke:#333333;stroke-width:1.0;" x1="73" x2="73" y1="144.2285" y2="164.2285"/><polygon fill="#333333" points="69,154.2285,73,164.2285,77,154.2285,73,158.2285" style="stroke:#333333;stroke-width:1.0;"/><line style="stroke:#333333;stroke-width:1.0;" x1="73" x2="73" y1="198.0273" y2="218.0273"/><polygon fill="#333333" points="69,208.0273,73,218.0273,77,208.0273,73,212.0273" style="stroke:#333333;stroke-width:1.0;"/><line style="stroke:#333333;stroke-width:1.0;" x1="73" x2="73" y1="1821.5957" y2="1841.5957"/><polygon fill="#333333" points="69,1831.5957,73,1841.5957,77,1831.5957,73,1835.5957" style="stroke:#333333;stroke-width:1.0;"/><line style="stroke:#333333;stroke-width:1.0;" x1="551" x2="551" y1="305.625" y2="325.625"/><polygon fill="#333333" points="547,315.625,551,325.625,555,315.625,551,319.625" style="stroke:#333333;stroke-width:1.0;"/><line style="stroke:#333333;stroke-width:1.0;" x1="514" x2="309" y1="1037.0098" y2="1037.0098"/><line style="stroke:#333333;stroke-width:1.0;" x1="309" x2="309" y1="1037.0098" y2="1069.0098"/><polygon fill="#333333" points="305,1059.0098,309,1069.0098,313,1059.0098,309,1063.0098" style="stroke:#333333;stroke-width:1.0;"/><line style="stroke:#333333;stroke-width:1.0;" x1="309" x2="309" y1="1679.998" y2="1701.998"/><line style="stroke:#333333;stroke-width:1.0;" x1="309" x2="539" y1="1701.998" y2="1701.998"/><polygon fill="#333333" points="529,1697.998,539,1701.998,529,1705.998,533,1701.998" style="stroke:#333333;stroke-width:1.0;"/><line style="stroke:#333333;stroke-width:1.0;" x1="551" x2="551" y1="1713.998" y2="1733.998"/><polygon fill="#333333" points="547,1723.998,551,1733.998,555,1723.998,551,1727.998" style="stroke:#333333;stroke-width:1.0;"/><line style="stroke:#333333;stroke-width:1.0;" x1="1560" x2="1560" y1="413.2227" y2="433.2227"/><polygon fill="#333333" points="1556,423.2227,1560,433.2227,1564,423.2227,1560,427.2227" style="stroke:#333333;stroke-width:1.0;"/><line style="stroke:#333333;stroke-width:1.0;" x1="1560" x2="1560" y1="467.0215" y2="487.0215"/><polygon fill="#333333" points="1556,477.0215,1560,487.0215,1564,477.0215,1560,481.0215" style="stroke:#333333;stroke-width:1.0;"/><line style="stroke:#333333;stroke-width:1.0;" x1="1560" x2="1560" y1="520.8203" y2="540.8203"/><polygon fill="#333333" points="1556,530.8203,1560,540.8203,1564,530.8203,1560,534.8203" style="stroke:#333333;stroke-width:1.0;"/><line style="stroke:#333333;stroke-width:1.0;" x1="1560" x2="1560" y1="574.6191" y2="594.6191"/><polygon fill="#333333" points="1556,584.6191,1560,594.6191,1564,584.6191,1560,588.6191" style="stroke:#333333;stroke-width:1.0;"/><line style="stroke:#333333;stroke-width:1.0;" x1="1560" x2="1560" y1="843.6133" y2="863.6133"/><polygon fill="#333333" points="1556,853.6133,1560,863.6133,1564,853.6133,1560,857.6133" style="stroke:#333333;stroke-width:1.0;"/><line style="stroke:#333333;stroke-width:1.0;" x1="1044.25" x2="1044.25" y1="1254.4063" y2="1289.4063"/><polygon fill="#333333" points="1040.25,1279.4063,1044.25,1289.4063,1048.25,1279.4063,1044.25,1283.4063" style="stroke:#333333;stroke-width:1.0;"/><line style="stroke:#333333;stroke-width:1.0;" x1="1432.25" x2="1432.25" y1="1254.4063" y2="1289.4063"/><polygon fill="#333333" points="1428.25,1279.4063,1432.25,1289.4063,1436.25,1279.4063,1432.25,1283.4063" style="stroke:#333333;stroke-width:1.0;"/><line style="stroke:#333333;stroke-width:1.0;" x1="1915.25" x2="1915.25" y1="1102.8086" y2="1122.8086"/><polygon fill="#333333" points="1911.25,1112.8086,1915.25,1122.8086,1919.25,1112.8086,1915.25,1116.8086" style="stroke:#333333;stroke-width:1.0;"/><line style="stroke:#333333;stroke-width:1.0;" x1="73" x2="73" y1="251.8262" y2="256.8262"/><line style="stroke:#333333;stroke-width:1.0;" x1="73" x2="551" y1="256.8262" y2="256.8262"/><line style="stroke:#333333;stroke-width:1.0;" x1="551" x2="551" y1="256.8262" y2="271.8262"/><polygon fill="#333333" points="547,261.8262,551,271.8262,555,261.8262,551,265.8262" style="stroke:#333333;stroke-width:1.0;"/><line style="stroke:#333333;stroke-width:1.0;" x1="551" x2="551" y1="359.4238" y2="364.4238"/><line style="stroke:#333333;stroke-width:1.0;" x1="551" x2="1560" y1="364.4238" y2="364.4238"/><line style="stroke:#333333;stroke-width:1.0;" x1="1560" x2="1560" y1="364.4238" y2="379.4238"/><polygon fill="#333333" points="1556,369.4238,1560,379.4238,1564,369.4238,1560,373.4238" style="stroke:#333333;stroke-width:1.0;"/><line style="stroke:#333333;stroke-width:1.0;" x1="1560" x2="1560" y1="628.418" y2="633.418"/><line style="stroke:#333333;stroke-width:1.0;" x1="1560" x2="551" y1="633.418" y2="633.418"/><line style="stroke:#333333;stroke-width:1.0;" x1="551" x2="551" y1="633.418" y2="648.418"/><polygon fill="#333333" points="547,638.418,551,648.418,555,638.418,551,642.418" style="stroke:#333333;stroke-width:1.0;"/><line style="stroke:#333333;stroke-width:1.0;" x1="551" x2="551" y1="682.2168" y2="687.2168"/><line style="stroke:#333333;stroke-width:1.0;" x1="551" x2="2831" y1="687.2168" y2="687.2168"/><line style="stroke:#333333;stroke-width:1.0;" x1="2831" x2="2831" y1="687.2168" y2="702.2168"/><polygon fill="#333333" points="2827,692.2168,2831,702.2168,2835,692.2168,2831,696.2168" style="stroke:#333333;stroke-width:1.0;"/><line style="stroke:#333333;stroke-width:1.0;" x1="2831" x2="2831" y1="736.0156" y2="741.0156"/><line style="stroke:#333333;stroke-width:1.0;" x1="2831" x2="551" y1="741.0156" y2="741.0156"/><line style="stroke:#333333;stroke-width:1.0;" x1="551" x2="551" y1="741.0156" y2="756.0156"/><polygon fill="#333333" points="547,746.0156,551,756.0156,555,746.0156,551,750.0156" style="stroke:#333333;stroke-width:1.0;"/><line style="stroke:#333333;stroke-width:1.0;" x1="551" x2="551" y1="789.8145" y2="794.8145"/><line style="stroke:#333333;stroke-width:1.0;" x1="551" x2="1560" y1="794.8145" y2="794.8145"/><line style="stroke:#333333;stroke-width:1.0;" x1="1560" x2="1560" y1="794.8145" y2="809.8145"/><polygon fill="#333333" points="1556,799.8145,1560,809.8145,1564,799.8145,1560,803.8145" style="stroke:#333333;stroke-width:1.0;"/><line style="stroke:#333333;stroke-width:1.0;" x1="1560" x2="1560" y1="897.4121" y2="902.4121"/><line style="stroke:#333333;stroke-width:1.0;" x1="1560" x2="551" y1="902.4121" y2="902.4121"/><line style="stroke:#333333;stroke-width:1.0;" x1="551" x2="551" y1="902.4121" y2="917.4121"/><polygon fill="#333333" points="547,907.4121,551,917.4121,555,907.4121,551,911.4121" style="stroke:#333333;stroke-width:1.0;"/><line style="stroke:#333333;stroke-width:1.0;" x1="551" x2="551" y1="951.2109" y2="956.2109"/><line style="stroke:#333333;stroke-width:1.0;" x1="551" x2="2831" y1="956.2109" y2="956.2109"/><line style="stroke:#333333;stroke-width:1.0;" x1="2831" x2="2831" y1="956.2109" y2="971.2109"/><polygon fill="#333333" points="2827,961.2109,2831,971.2109,2835,961.2109,2831,965.2109" style="stroke:#333333;stroke-width:1.0;"/><line style="stroke:#333333;stroke-width:1.0;" x1="309" x2="309" y1="1102.8086" y2="1107.8086"/><line style="stroke:#333333;stroke-width:1.0;" x1="309" x2="2475.75" y1="1107.8086" y2="1107.8086"/><line style="stroke:#333333;stroke-width:1.0;" x1="2475.75" x2="2475.75" y1="1107.8086" y2="1122.8086"/><polygon fill="#333333" points="2471.75,1112.8086,2475.75,1122.8086,2479.75,1112.8086,2475.75,1116.8086" style="stroke:#333333;stroke-width:1.0;"/><line style="stroke:#333333;stroke-width:1.0;" x1="1044.25" x2="1044.25" y1="1323.2051" y2="1328.2051"/><line style="stroke:#333333;stroke-width:1.0;" x1="1044.25" x2="193" y1="1328.2051" y2="1328.2051"/><line style="stroke:#333333;stroke-width:1.0;" x1="193" x2="193" y1="1328.2051" y2="1343.2051"/><polygon fill="#333333" points="189,1333.2051,193,1343.2051,197,1333.2051,193,1337.2051" style="stroke:#333333;stroke-width:1.0;"/><line style="stroke:#333333;stroke-width:1.0;" x1="193" x2="193" y1="1377.0039" y2="1382.0039"/><line style="stroke:#333333;stroke-width:1.0;" x1="193" x2="2248.25" y1="1382.0039" y2="1382.0039"/><line style="stroke:#333333;stroke-width:1.0;" x1="2248.25" x2="2248.25" y1="1382.0039" y2="1397.0039"/><polygon fill="#333333" points="2244.25,1387.0039,2248.25,1397.0039,2252.25,1387.0039,2248.25,1391.0039" style="stroke:#333333;stroke-width:1.0;"/><line style="stroke:#333333;stroke-width:1.0;" x1="2248.25" x2="2248.25" y1="1430.8027" y2="1435.8027"/><line style="stroke:#333333;stroke-width:1.0;" x1="2248.25" x2="193" y1="1435.8027" y2="1435.8027"/><line style="stroke:#333333;stroke-width:1.0;" x1="193" x2="193" y1="1435.8027" y2="1450.8027"/><polygon fill="#333333" points="189,1440.8027,193,1450.8027,197,1440.8027,193,1444.8027" style="stroke:#333333;stroke-width:1.0;"/><line style="stroke:#333333;stroke-width:1.0;" x1="193" x2="193" y1="1484.6016" y2="1489.6016"/><line style="stroke:#333333;stroke-width:1.0;" x1="193" x2="1044.25" y1="1489.6016" y2="1489.6016"/><line style="stroke:#333333;stroke-width:1.0;" x1="1044.25" x2="1044.25" y1="1489.6016" y2="1504.6016"/><polygon fill="#333333" points="1040.25,1494.6016,1044.25,1504.6016,1048.25,1494.6016,1044.25,1498.6016" style="stroke:#333333;stroke-width:1.0;"/><line style="stroke:#333333;stroke-width:1.0;" x1="1044.25" x2="1044.25" y1="1538.4004" y2="1543.4004"/><line style="stroke:#333333;stroke-width:1.0;" x1="1044.25" x2="193" y1="1543.4004" y2="1543.4004"/><line style="stroke:#333333;stroke-width:1.0;" x1="193" x2="193" y1="1543.4004" y2="1558.4004"/><polygon fill="#333333" points="189,1548.4004,193,1558.4004,197,1548.4004,193,1552.4004" style="stroke:#333333;stroke-width:1.0;"/><line style="stroke:#333333;stroke-width:1.0;" x1="193" x2="193" y1="1592.1992" y2="1597.1992"/><line style="stroke:#333333;stroke-width:1.0;" x1="193" x2="2248.25" y1="1597.1992" y2="1597.1992"/><line style="stroke:#333333;stroke-width:1.0;" x1="2248.25" x2="2248.25" y1="1597.1992" y2="1612.1992"/><polygon fill="#333333" points="2244.25,1602.1992,2248.25,1612.1992,2252.25,1602.1992,2248.25,1606.1992" style="stroke:#333333;stroke-width:1.0;"/><line style="stroke:#333333;stroke-width:1.0;" x1="1432.25" x2="1432.25" y1="1323.2051" y2="1328.2051"/><line style="stroke:#333333;stroke-width:1.0;" x1="1432.25" x2="425" y1="1328.2051" y2="1328.2051"/><line style="stroke:#333333;stroke-width:1.0;" x1="425" x2="425" y1="1328.2051" y2="1343.2051"/><polygon fill="#333333" points="421,1333.2051,425,1343.2051,429,1333.2051,425,1337.2051" style="stroke:#333333;stroke-width:1.0;"/><line style="stroke:#333333;stroke-width:1.0;" x1="425" x2="425" y1="1377.0039" y2="1382.0039"/><line style="stroke:#333333;stroke-width:1.0;" x1="425" x2="2703.25" y1="1382.0039" y2="1382.0039"/><line style="stroke:#333333;stroke-width:1.0;" x1="2703.25" x2="2703.25" y1="1382.0039" y2="1397.0039"/><polygon fill="#333333" points="2699.25,1387.0039,2703.25,1397.0039,2707.25,1387.0039,2703.25,1391.0039" style="stroke:#333333;stroke-width:1.0;"/><line style="stroke:#333333;stroke-width:1.0;" x1="272" x2="260" y1="1188.6074" y2="1188.6074"/><line style="stroke:#333333;stroke-width:1.0;" x1="260" x2="260" y1="1188.6074" y2="1206.6074"/><line style="stroke:#333333;stroke-width:1.0;" x1="260" x2="1044.25" y1="1206.6074" y2="1206.6074"/><line style="stroke:#333333;stroke-width:1.0;" x1="1044.25" x2="1044.25" y1="1206.6074" y2="1220.6074"/><polygon fill="#333333" points="1040.25,1210.6074,1044.25,1220.6074,1048.25,1210.6074,1044.25,1214.6074" style="stroke:#333333;stroke-width:1.0;"/><line style="stroke:#333333;stroke-width:1.0;" x1="346" x2="1432.25" y1="1188.6074" y2="1188.6074"/><line style="stroke:#333333;stroke-width:1.0;" x1="1432.25" x2="1432.25" y1="1188.6074" y2="1220.6074"/><polygon fill="#333333" points="1428.25,1210.6074,1432.25,1220.6074,1436.25,1210.6074,1432.25,1214.6074" style="stroke:#333333;stroke-width:1.0;"/><line style="stroke:#333333;stroke-width:1.0;" x1="2248.25" x2="2248.25" y1="1645.998" y2="1649.998"/><line style="stroke:#333333;stroke-width:1.0;" x1="2248.25" x2="279" y1="1649.998" y2="1649.998"/><line style="stroke:#333333;stroke-width:1.0;" x1="279" x2="279" y1="1649.998" y2="1667.998"/><line style="stroke:#333333;stroke-width:1.0;" x1="279" x2="297" y1="1667.998" y2="1667.998"/><polygon fill="#333333" points="287,1663.998,297,1667.998,287,1671.998,291,1667.998" style="stroke:#333333;stroke-width:1.0;"/><line style="stroke:#333333;stroke-width:1.0;" x1="2703.25" x2="2703.25" y1="1430.8027" y2="1667.998"/><line style="stroke:#333333;stroke-width:1.0;" x1="2703.25" x2="321" y1="1667.998" y2="1667.998"/><polygon fill="#333333" points="331,1663.998,321,1667.998,331,1671.998,327,1667.998" style="stroke:#333333;stroke-width:1.0;"/><line style="stroke:#333333;stroke-width:1.0;" x1="2475.75" x2="2475.75" y1="1156.6074" y2="1161.6074"/><line style="stroke:#333333;stroke-width:1.0;" x1="2475.75" x2="309" y1="1161.6074" y2="1161.6074"/><line style="stroke:#333333;stroke-width:1.0;" x1="309" x2="309" y1="1161.6074" y2="1176.6074"/><polygon fill="#333333" points="305,1166.6074,309,1176.6074,313,1166.6074,309,1170.6074" style="stroke:#333333;stroke-width:1.0;"/><line style="stroke:#333333;stroke-width:1.0;" x1="1915.25" x2="1915.25" y1="1156.6074" y2="1161.6074"/><line style="stroke:#333333;stroke-width:1.0;" x1="1915.25" x2="906.25" y1="1161.6074" y2="1161.6074"/><line style="stroke:#333333;stroke-width:1.0;" x1="906.25" x2="906.25" y1="1161.6074" y2="1176.6074"/><polygon fill="#333333" points="902.25,1166.6074,906.25,1176.6074,910.25,1166.6074,906.25,1170.6074" style="stroke:#333333;stroke-width:1.0;"/><line style="stroke:#333333;stroke-width:1.0;" x1="906.25" x2="906.25" y1="1210.4063" y2="1227.9063"/><line style="stroke:#333333;stroke-width:1.0;" x1="906.25" x2="3186.25" y1="1227.9063" y2="1227.9063"/><line style="stroke:#333333;stroke-width:1.0;" x1="3186.25" x2="3186.25" y1="1227.9063" y2="1245.4063"/><polygon fill="#333333" points="3182.25,1235.4063,3186.25,1245.4063,3190.25,1235.4063,3186.25,1239.4063" style="stroke:#333333;stroke-width:1.0;"/><line style="stroke:#333333;stroke-width:1.0;" x1="588" x2="1915.25" y1="1037.0098" y2="1037.0098"/><line style="stroke:#333333;stroke-width:1.0;" x1="1915.25" x2="1915.25" y1="1037.0098" y2="1069.0098"/><polygon fill="#333333" points="1911.25,1059.0098,1915.25,1069.0098,1919.25,1059.0098,1915.25,1063.0098" style="stroke:#333333;stroke-width:1.0;"/><line style="stroke:#333333;stroke-width:1.0;" x1="3186.25" x2="3186.25" y1="1279.2051" y2="1701.998"/><line style="stroke:#333333;stroke-width:1.0;" x1="3186.25" x2="563" y1="1701.998" y2="1701.998"/><polygon fill="#333333" points="573,1697.998,563,1701.998,573,1705.998,569,1701.998" style="stroke:#333333;stroke-width:1.0;"/><line style="stroke:#333333;stroke-width:1.0;" x1="2831" x2="2831" y1="1005.0098" y2="1010.0098"/><line style="stroke:#333333;stroke-width:1.0;" x1="2831" x2="551" y1="1010.0098" y2="1010.0098"/><line style="stroke:#333333;stroke-width:1.0;" x1="551" x2="551" y1="1010.0098" y2="1025.0098"/><polygon fill="#333333" points="547,1015.0098,551,1025.0098,555,1015.0098,551,1019.0098" style="stroke:#333333;stroke-width:1.0;"/><line style="stroke:#333333;stroke-width:1.0;" x1="551" x2="551" y1="1767.7969" y2="1772.7969"/><line style="stroke:#333333;stroke-width:1.0;" x1="551" x2="73" y1="1772.7969" y2="1772.7969"/><line style="stroke:#333333;stroke-width:1.0;" x1="73" x2="73" y1="1772.7969" y2="1787.7969"/><polygon fill="#333333" points="69,1777.7969,73,1787.7969,77,1777.7969,73,1781.7969" style="stroke:#333333;stroke-width:1.0;"/><text fill="#006699" font-family="sans-serif" font-size="14" lengthAdjust="spacing" textLength="42" x="51" y="62.4766">&#20171;&#38754;&#23652;</text><text fill="#006699" font-family="sans-serif" font-size="14" lengthAdjust="spacing" textLength="42" x="527.625" y="62.4766">&#25033;&#29992;&#23652;</text><text fill="#006699" font-family="sans-serif" font-size="14" lengthAdjust="spacing" textLength="42" x="1561.25" y="62.4766">&#38936;&#22495;&#23652;</text><text fill="#006699" font-family="sans-serif" font-size="14" lengthAdjust="spacing" textLength="70" x="2862.75" y="62.4766">&#22522;&#30990;&#35373;&#26045;&#23652;</text><!--SRC=[lPPRJ-D65CVV_IaizIL826qlMWdoi4e3gIBjPb7XfK-hgJF02CTExGaeBPM0AYqX16Z5TUasWK8BhBYLvR89Y2-J6JlVOiSpJcARP65VQl50Pixyvtz-S-ROvZZIqi00AHae64qWd9L_acJsV0sKyL53psZ9gAxgXlpP07_4d6uaeU6EVyaVFXxJDPm0AIX730HKFXGn37tI7_cp99dDNSr9b5A11XkxTb0MuyDZI1dNe6dAN_3HOOHLw6pgBdZovEdJtbx_r13w4SgVV-NVLTCnx9HdZ3tHw7qtlVnnTB2ZBTlxisJjsDvSjPP_jG_EhNUdz6B6sYz8qbIjMgY_sI5dkrEIYO61fJwwk4TNBjqbRmlqR3OizTKFrksZlFX9opVaPeaDshTvkhHbpLR8xxUrwYuvBTfdss4cId_BMolxNBHFx4ho5wHQ4Q8YEYpnp0mqEeRxv9UE-qWwhI85OAHhGz2OG0hiKGm8CEIpeIw9gHtUCMLNvsgFLCjjT6AiFdGZ6rmyLIzla599sF8QicTUa-KvMdxlrzBWfD0BSRRnPBUiP4oifyJ_89aqsFawhkXLbSoNXLYzdBEsZlrAV7qFMn37C1LA6teoes17GsCLs2t_a04QEwXijvmsMD8yp_qvwtXTA5hNj_NjOZj51QXAHcKv3kiOg1oGG4_dDsZ-R-jepLhTQmEe7vaAAoCyg3FUsHx0k6T5aew4jNb3hdzn6NDCjKgXLhri8nJbX9C34r33WNEltRqXHnj2nQa9KgfOkuls_X5TknKHT66czZv75jOQGVVa1w5X8XD3JO6H94XZbh899Y0_pFir9cJeqdAjilifDMPclayXtBvCwDOxkdRgdaDXckOAxSuXaquo34COu8mP6Xn8zCSJtxmQZ7ptOY0n72Gg_7KaEiJDT61A3tTeQOzKtZAo_hNYNeWP-cUH53RR8lU6MUTLw-BCBnFNd5tPtN7PDAWhOr0PRqu6-QCHEIGqIIvdNvu_wvBn6DJa4DquwMBToJqVkd9IgpBViip-xfjpuhWz4IUoSAAz1WT1DiLC1Eon6wMmg-XEXhhSBJmMPTanwIhFBPFvKj0aY_SSlFExpU4xlUxgFskdOXyMmppeWMA8lap4uj- -6EWNMmXTKGx233bUO7uQvH1KT3EAwgcq2fj5qLJoPyYKoN6UBlvHpnNhqpDXJrmRs4tSLlw0lGrQkFqEdkkZx0OYnGmW1uO1j57O3rKq0Nb9T7RbvIYyrUwswSo9rs6GlM0aeaLMdHWrB4I4emSPCMMcwPugFydwz6khjFTONYAw4w-4Zj68ss2QFGjgIT4kTMq46Ia-sI86LHEo2xJypoULuUuPNLr_L0t68l7d7ob0BlH00SO0KXzBrYlxVv3rMCmOq8bI88VBvj28qmfyWFru7uBxQBHI4wleXBNh8kk4BQnjksnSCpCZB2V4VZRWtcjSBbQlR0lhnpjf4EXZSBPU0MEwWS5eYwZW6NWZ_LjWtmVrqXqRR7t_UJug- -ox5RBrbtlvULoOVMdgQUa3]--></g></svg>