<?xml version="1.0" encoding="us-ascii" standalone="no"?><svg xmlns="http://www.w3.org/2000/svg" xmlns:xlink="http://www.w3.org/1999/xlink" contentStyleType="text/css" height="461px" preserveAspectRatio="none" style="width:1918px;height:461px;background:#FFFFFF;" version="1.1" viewBox="0 0 1918 461" width="1918px" zoomAndPan="magnify"><defs><filter height="1" id="bishgvossnils0" width="1" x="0" y="0"><feFlood flood-color="#FFA500" result="flood"/><feComposite in="SourceGraphic" in2="flood" operator="over"/></filter><filter height="1" id="bishgvossnils1" width="1" x="0" y="0"><feFlood flood-color="#FF0000" result="flood"/><feComposite in="SourceGraphic" in2="flood" operator="over"/></filter><filter height="1" id="bishgvossnils2" width="1" x="0" y="0"><feFlood flood-color="#000000" result="flood"/><feComposite in="SourceGraphic" in2="flood" operator="over"/></filter></defs><g><text fill="#000000" font-family="sans-serif" font-size="20" font-weight="bold" lengthAdjust="spacing" textLength="327" x="788.5" y="29.3359">&#35330;&#21934;&#31995;&#32113;&#20107;&#20214;&#39080;&#26292;&#22294; - &#22823;&#22294;&#25506;&#32034;&#38542;&#27573;</text><!--entity OrderCreatedEvent--><g id="elem_OrderCreatedEvent"><rect fill="#FFA500" height="36.4883" rx="12.5" ry="12.5" style="stroke:#000000;stroke-width:0.5;" width="90" x="7" y="168.5547"/><text fill="#000000" font-family="sans-serif" font-size="14" font-weight="bold" lengthAdjust="spacing" textLength="70" x="17" y="192.0898">&#35330;&#21934;&#24050;&#24314;&#31435;</text></g><!--entity OrderItemAddedEvent--><g id="elem_OrderItemAddedEvent"><rect fill="#FFA500" height="36.4883" rx="12.5" ry="12.5" style="stroke:#000000;stroke-width:0.5;" width="118" x="158" y="168.5547"/><text fill="#000000" font-family="sans-serif" font-size="14" font-weight="bold" lengthAdjust="spacing" textLength="98" x="168" y="192.0898">&#35330;&#21934;&#38917;&#30446;&#24050;&#28155;&#21152;</text></g><!--entity OrderSubmittedEvent--><g id="elem_OrderSubmittedEvent"><rect fill="#FFA500" height="36.4883" rx="12.5" ry="12.5" style="stroke:#000000;stroke-width:0.5;" width="90" x="337" y="168.5547"/><text fill="#000000" font-family="sans-serif" font-size="14" font-weight="bold" lengthAdjust="spacing" textLength="70" x="347" y="192.0898">&#35330;&#21934;&#24050;&#25552;&#20132;</text></g><!--entity InventoryCheckedEvent--><g id="elem_InventoryCheckedEvent"><rect fill="#FFA500" height="36.4883" rx="12.5" ry="12.5" style="stroke:#000000;stroke-width:0.5;" width="90" x="526.5" y="168.5547"/><text fill="#000000" font-family="sans-serif" font-size="14" font-weight="bold" lengthAdjust="spacing" textLength="70" x="536.5" y="192.0898">&#24235;&#23384;&#24050;&#27298;&#26597;</text></g><!--entity InventoryReservedEvent--><g id="elem_InventoryReservedEvent"><rect fill="#FFA500" height="36.4883" rx="12.5" ry="12.5" style="stroke:#000000;stroke-width:0.5;" width="90" x="747.5" y="264.5547"/><text fill="#000000" font-family="sans-serif" font-size="14" font-weight="bold" lengthAdjust="spacing" textLength="70" x="757.5" y="288.0898">&#24235;&#23384;&#24050;&#38928;&#30041;</text></g><!--entity PaymentRequestedEvent--><g id="elem_PaymentRequestedEvent"><rect fill="#FFA500" height="36.4883" rx="12.5" ry="12.5" style="stroke:#000000;stroke-width:0.5;" width="90" x="1049.5" y="207.5547"/><text fill="#000000" font-family="sans-serif" font-size="14" font-weight="bold" lengthAdjust="spacing" textLength="70" x="1059.5" y="231.0898">&#25903;&#20184;&#24050;&#35531;&#27714;</text></g><!--entity PaymentCompletedEvent--><g id="elem_PaymentCompletedEvent"><rect fill="#FFA500" height="36.4883" rx="12.5" ry="12.5" style="stroke:#000000;stroke-width:0.5;" width="90" x="1320" y="220.5547"/><text fill="#000000" font-family="sans-serif" font-size="14" font-weight="bold" lengthAdjust="spacing" textLength="70" x="1330" y="244.0898">&#25903;&#20184;&#24050;&#23436;&#25104;</text></g><!--entity OrderConfirmedEvent--><g id="elem_OrderConfirmedEvent"><rect fill="#FFA500" height="36.4883" rx="12.5" ry="12.5" style="stroke:#000000;stroke-width:0.5;" width="90" x="1495.5" y="220.5547"/><text fill="#000000" font-family="sans-serif" font-size="14" font-weight="bold" lengthAdjust="spacing" textLength="70" x="1505.5" y="244.0898">&#35330;&#21934;&#24050;&#30906;&#35469;</text></g><!--entity DeliveryArrangedEvent--><g id="elem_DeliveryArrangedEvent"><rect fill="#FFA500" height="36.4883" rx="12.5" ry="12.5" style="stroke:#000000;stroke-width:0.5;" width="90" x="1671" y="271.5547"/><text fill="#000000" font-family="sans-serif" font-size="14" font-weight="bold" lengthAdjust="spacing" textLength="70" x="1681" y="295.0898">&#37197;&#36865;&#24050;&#23433;&#25490;</text></g><!--entity DeliveryCompletedEvent--><g id="elem_DeliveryCompletedEvent"><rect fill="#FFA500" height="36.4883" rx="12.5" ry="12.5" style="stroke:#000000;stroke-width:0.5;" width="90" x="1822" y="271.5547"/><text fill="#000000" font-family="sans-serif" font-size="14" font-weight="bold" lengthAdjust="spacing" textLength="70" x="1832" y="295.0898">&#37197;&#36865;&#24050;&#23436;&#25104;</text></g><!--entity OrderCancelledEvent--><g id="elem_OrderCancelledEvent"><rect fill="#FFA500" height="36.4883" rx="12.5" ry="12.5" style="stroke:#000000;stroke-width:0.5;" width="90" x="1320" y="122.5547"/><text fill="#000000" font-family="sans-serif" font-size="14" font-weight="bold" lengthAdjust="spacing" textLength="70" x="1330" y="146.0898">&#35330;&#21934;&#24050;&#21462;&#28040;</text></g><!--entity InventoryTimeoutIssue--><g id="elem_InventoryTimeoutIssue"><rect fill="#FF0000" height="36.4883" rx="12.5" ry="12.5" style="stroke:#000000;stroke-width:0.5;" width="167" x="488" y="264.5547"/><text fill="#000000" font-family="sans-serif" font-size="14" font-weight="bold" lengthAdjust="spacing" textLength="147" x="498" y="288.0898">&#24235;&#23384;&#38928;&#30041;&#36229;&#26178;&#22914;&#20309;&#34389;&#29702;?</text></g><!--entity PaymentRetryIssue--><g id="elem_PaymentRetryIssue"><rect fill="#FF0000" height="36.4883" rx="12.5" ry="12.5" style="stroke:#000000;stroke-width:0.5;" width="153" x="716" y="193.5547"/><text fill="#000000" font-family="sans-serif" font-size="14" font-weight="bold" lengthAdjust="spacing" textLength="133" x="726" y="217.0898">&#25903;&#20184;&#22833;&#25943;&#24460;&#37325;&#35430;&#31574;&#30053;?</text></g><!--entity InventoryReleaseIssue--><g id="elem_InventoryReleaseIssue"><rect fill="#FF0000" height="36.4883" rx="12.5" ry="12.5" style="stroke:#000000;stroke-width:0.5;" width="223" x="983" y="51.5547"/><text fill="#000000" font-family="sans-serif" font-size="14" font-weight="bold" lengthAdjust="spacing" textLength="203" x="993" y="75.0898">&#35330;&#21934;&#21462;&#28040;&#24460;&#22914;&#20309;&#34389;&#29702;&#24050;&#38928;&#30041;&#24235;&#23384;?</text></g><!--entity DeliveryFailureIssue--><g id="elem_DeliveryFailureIssue"><rect fill="#FF0000" height="36.4883" rx="12.5" ry="12.5" style="stroke:#000000;stroke-width:0.5;" width="139" x="1471" y="291.5547"/><text fill="#000000" font-family="sans-serif" font-size="14" font-weight="bold" lengthAdjust="spacing" textLength="119" x="1481" y="315.0898">&#22914;&#20309;&#34389;&#29702;&#37197;&#36865;&#22833;&#25943;?</text></g><!--link OrderCreatedEvent to OrderItemAddedEvent--><g id="link_OrderCreatedEvent_OrderItemAddedEvent"><path d="M97.11,186.8047 C113.88,186.8047 133.35,186.8047 151.62,186.8047 " fill="none" id="OrderCreatedEvent-to-OrderItemAddedEvent" style="stroke:#181818;stroke-width:1.0;"/><polygon fill="#181818" points="156.25,186.8047,147.25,182.8047,151.25,186.8047,147.25,190.8047,156.25,186.8047" style="stroke:#181818;stroke-width:1.0;"/></g><!--link OrderItemAddedEvent to OrderSubmittedEvent--><g id="link_OrderItemAddedEvent_OrderSubmittedEvent"><path d="M276.39,186.8047 C294.04,186.8047 313.27,186.8047 330.38,186.8047 " fill="none" id="OrderItemAddedEvent-to-OrderSubmittedEvent" style="stroke:#181818;stroke-width:1.0;"/><polygon fill="#181818" points="335.06,186.8047,326.06,182.8047,330.06,186.8047,326.06,190.8047,335.06,186.8047" style="stroke:#181818;stroke-width:1.0;"/></g><!--link OrderSubmittedEvent to InventoryCheckedEvent--><g id="link_OrderSubmittedEvent_InventoryCheckedEvent"><path d="M427.43,186.8047 C455.12,186.8047 490.83,186.8047 519.65,186.8047 " fill="none" id="OrderSubmittedEvent-to-InventoryCheckedEvent" style="stroke:#181818;stroke-width:1.0;"/><polygon fill="#181818" points="524.55,186.8047,515.55,182.8047,519.55,186.8047,515.55,190.8047,524.55,186.8047" style="stroke:#181818;stroke-width:1.0;"/></g><!--link InventoryCheckedEvent to InventoryReservedEvent--><g id="link_InventoryCheckedEvent_InventoryReservedEvent"><path d="M615.25,205.5347 C652.02,221.6647 705.05,244.9047 743.33,261.6847 " fill="none" id="InventoryCheckedEvent-to-InventoryReservedEvent" style="stroke:#181818;stroke-width:1.0;"/><polygon fill="#181818" points="747.48,263.5047,740.8569,256.2153,742.9045,261.4886,737.6312,263.5361,747.48,263.5047" style="stroke:#181818;stroke-width:1.0;"/></g><!--link InventoryReservedEvent to PaymentRequestedEvent--><g id="link_InventoryReservedEvent_PaymentRequestedEvent"><path d="M837.77,274.3947 C892.49,263.9947 985.42,246.3347 1042.91,235.4147 " fill="none" id="InventoryReservedEvent-to-PaymentRequestedEvent" style="stroke:#181818;stroke-width:1.0;"/><polygon fill="#181818" points="1047.57,234.5247,1037.9838,232.2652,1042.6569,235.453,1039.4692,240.1262,1047.57,234.5247" style="stroke:#181818;stroke-width:1.0;"/></g><!--link PaymentRequestedEvent to PaymentCompletedEvent--><g id="link_PaymentRequestedEvent_PaymentCompletedEvent"><path d="M1139.84,227.9447 C1187.55,230.2547 1263.29,233.9247 1313.32,236.3447 " fill="none" id="PaymentRequestedEvent-to-PaymentCompletedEvent" style="stroke:#181818;stroke-width:1.0;"/><polygon fill="#181818" points="1318.09,236.5747,1309.2947,232.1428,1313.0959,236.3321,1308.9065,240.1333,1318.09,236.5747" style="stroke:#181818;stroke-width:1.0;"/></g><!--link PaymentCompletedEvent to OrderConfirmedEvent--><g id="link_PaymentCompletedEvent_OrderConfirmedEvent"><path d="M1410.23,238.8047 C1434.2,238.8047 1463.93,238.8047 1488.83,238.8047 " fill="none" id="PaymentCompletedEvent-to-OrderConfirmedEvent" style="stroke:#181818;stroke-width:1.0;"/><polygon fill="#181818" points="1493.54,238.8047,1484.54,234.8047,1488.54,238.8047,1484.54,242.8047,1493.54,238.8047" style="stroke:#181818;stroke-width:1.0;"/></g><!--link OrderConfirmedEvent to DeliveryArrangedEvent--><g id="link_OrderConfirmedEvent_DeliveryArrangedEvent"><path d="M1585.73,251.8047 C1609.7,258.8447 1639.43,267.5847 1664.33,274.9047 " fill="none" id="OrderConfirmedEvent-to-DeliveryArrangedEvent" style="stroke:#181818;stroke-width:1.0;"/><polygon fill="#181818" points="1669.1,276.3047,1661.58,269.9447,1664.3,274.9047,1659.34,277.6247,1669.1,276.3047" style="stroke:#181818;stroke-width:1.0;"/></g><!--link DeliveryArrangedEvent to DeliveryCompletedEvent--><g id="link_DeliveryArrangedEvent_DeliveryCompletedEvent"><path d="M1761.3,289.8047 C1778.26,289.8047 1797.74,289.8047 1815.25,289.8047 " fill="none" id="DeliveryArrangedEvent-to-DeliveryCompletedEvent" style="stroke:#181818;stroke-width:1.0;"/><polygon fill="#181818" points="1820.1,289.8047,1811.1,285.8047,1815.1,289.8047,1811.1,293.8047,1820.1,289.8047" style="stroke:#181818;stroke-width:1.0;"/></g><!--link InventoryCheckedEvent to OrderCancelledEvent--><g id="link_InventoryCheckedEvent_OrderCancelledEvent"><path d="M616.76,183.1447 C645.12,180.8747 682.71,177.9747 716,175.8047 C938.39,161.2747 1203.99,148.2947 1313.25,143.1547 " fill="none" id="InventoryCheckedEvent-to-OrderCancelledEvent" style="stroke:#FF0000;stroke-width:1.0;"/><polygon fill="#FF0000" points="1318.08,142.9247,1308.896,139.3673,1313.0859,143.168,1309.2853,147.3578,1318.08,142.9247" style="stroke:#FF0000;stroke-width:1.0;"/><text fill="#000000" font-family="sans-serif" font-size="13" lengthAdjust="spacing" textLength="52" x="900" y="158.393">&#24211;&#23384;&#19981;&#36275;</text></g><!--link PaymentRequestedEvent to OrderCancelledEvent--><g id="link_PaymentRequestedEvent_OrderCancelledEvent"><path d="M1139.9,220.2647 C1180.08,214.3147 1240.39,203.0147 1290,183.8047 C1304.18,178.3047 1318.86,170.3347 1331.36,162.7347 " fill="none" id="PaymentRequestedEvent-to-OrderCancelledEvent" style="stroke:#FF0000;stroke-width:1.0;"/><polygon fill="#FF0000" points="1335.29,160.3047,1325.5307,161.6295,1331.0356,162.9315,1329.7336,168.4365,1335.29,160.3047" style="stroke:#FF0000;stroke-width:1.0;"/><text fill="#000000" font-family="sans-serif" font-size="13" lengthAdjust="spacing" textLength="52" x="1237" y="180.373">&#25903;&#20184;&#22833;&#36133;</text></g><!--link InventoryTimeoutIssue to InventoryReservedEvent--><g id="link_InventoryTimeoutIssue_InventoryReservedEvent"><path d="M655.29,282.8047 C684.1,282.8047 715.54,282.8047 740.94,282.8047 " fill="none" id="InventoryTimeoutIssue-to-InventoryReservedEvent" style="stroke:#FF0000;stroke-width:1.0;stroke-dasharray:7.0,7.0;"/><polygon fill="#FF0000" points="745.76,282.8047,736.7715,278.779,740.76,282.7904,736.7486,286.779,745.76,282.8047" style="stroke:#FF0000;stroke-width:1.0;"/></g><!--link PaymentRetryIssue to PaymentRequestedEvent--><g id="link_PaymentRetryIssue_PaymentRequestedEvent"><path d="M869.2,215.3347 C923.52,217.8647 995.24,221.2147 1042.79,223.4347 " fill="none" id="PaymentRetryIssue-to-PaymentRequestedEvent" style="stroke:#FF0000;stroke-width:1.0;stroke-dasharray:7.0,7.0;"/><polygon fill="#FF0000" points="1047.53,223.6547,1038.7347,219.2228,1042.5359,223.4121,1038.3465,227.2133,1047.53,223.6547" style="stroke:#FF0000;stroke-width:1.0;"/></g><!--link InventoryReleaseIssue to OrderCancelledEvent--><g id="link_InventoryReleaseIssue_OrderCancelledEvent"><path d="M1185.6,88.4647 C1218.65,95.8847 1256.22,104.9947 1290,114.8047 C1297.71,117.0447 1305.8,119.6247 1313.67,122.2847 " fill="none" id="InventoryReleaseIssue-to-OrderCancelledEvent" style="stroke:#FF0000;stroke-width:1.0;stroke-dasharray:7.0,7.0;"/><polygon fill="#FF0000" points="1318.22,123.8347,1310.995,117.1415,1313.4881,122.2193,1308.4103,124.7124,1318.22,123.8347" style="stroke:#FF0000;stroke-width:1.0;"/></g><!--link DeliveryFailureIssue to DeliveryArrangedEvent--><g id="link_DeliveryFailureIssue_DeliveryArrangedEvent"><path d="M1610.07,301.8947 C1628.21,299.8047 1647.46,297.5847 1664.45,295.6247 " fill="none" id="DeliveryFailureIssue-to-DeliveryArrangedEvent" style="stroke:#FF0000;stroke-width:1.0;stroke-dasharray:7.0,7.0;"/><polygon fill="#FF0000" points="1669.09,295.0947,1659.6921,292.1486,1664.1227,295.6656,1660.6056,300.0962,1669.09,295.0947" style="stroke:#FF0000;stroke-width:1.0;"/></g><rect fill="#DDDDDD" height="96.4414" id="_legend" rx="7.5" ry="7.5" style="stroke:#000000;stroke-width:1.0;" width="309" x="1583" y="345.043"/><text fill="#000000" font-family="sans-serif" font-size="14" font-weight="bold" lengthAdjust="spacing" textLength="56" x="1593" y="365.5781">&#20803;&#32032;&#39006;&#22411;</text><text fill="#000000" font-family="sans-serif" font-size="14" font-weight="bold" lengthAdjust="spacing" textLength="28" x="1659" y="365.5781">&#38991;&#33394;</text><text fill="#000000" font-family="sans-serif" font-size="14" font-weight="bold" lengthAdjust="spacing" textLength="28" x="1730" y="365.5781">&#35498;&#26126;</text><text fill="#000000" font-family="sans-serif" font-size="14" lengthAdjust="spacing" textLength="4" x="1588" y="382.0664">&#160;</text><text fill="#000000" filter="url(#bishgvossnils0)" font-family="sans-serif" font-size="14" lengthAdjust="spacing" textLength="12" x="1592" y="382.0664">&#160;&#160;&#160;</text><text fill="#000000" font-family="sans-serif" font-size="14" lengthAdjust="spacing" textLength="4" x="1604" y="382.0664">&#160;</text><text fill="#000000" font-family="sans-serif" font-size="14" lengthAdjust="spacing" textLength="28" x="1658" y="382.0664">&#20107;&#20214;</text><text fill="#000000" font-family="sans-serif" font-size="14" lengthAdjust="spacing" textLength="112" x="1729" y="382.0664">&#31995;&#32113;&#20013;&#30332;&#29983;&#30340;&#20107;&#24773;</text><text fill="#000000" font-family="sans-serif" font-size="14" lengthAdjust="spacing" textLength="4" x="1588" y="398.5547">&#160;</text><text fill="#000000" filter="url(#bishgvossnils1)" font-family="sans-serif" font-size="14" lengthAdjust="spacing" textLength="12" x="1592" y="398.5547">&#160;&#160;&#160;</text><text fill="#000000" font-family="sans-serif" font-size="14" lengthAdjust="spacing" textLength="4" x="1604" y="398.5547">&#160;</text><text fill="#000000" font-family="sans-serif" font-size="14" lengthAdjust="spacing" textLength="63" x="1658" y="398.5547">&#29105;&#40670;/&#21839;&#38988;</text><text fill="#000000" font-family="sans-serif" font-size="14" lengthAdjust="spacing" textLength="154" x="1729" y="398.5547">&#38656;&#35201;&#35299;&#27770;&#30340;&#21839;&#38988;&#25110;&#27770;&#31574;&#40670;</text><text fill="#000000" font-family="sans-serif" font-size="14" lengthAdjust="spacing" textLength="4" x="1588" y="415.043">&#160;</text><text fill="#000000" filter="url(#bishgvossnils2)" font-family="sans-serif" font-size="14" lengthAdjust="spacing" textLength="12" x="1592" y="415.043">&#160;&#160;&#160;</text><text fill="#000000" font-family="sans-serif" font-size="14" lengthAdjust="spacing" textLength="4" x="1604" y="415.043">&#160;</text><text fill="#000000" font-family="sans-serif" font-size="14" lengthAdjust="spacing" textLength="42" x="1658" y="415.043">&#26178;&#38291;&#32218;</text><text fill="#000000" font-family="sans-serif" font-size="14" lengthAdjust="spacing" textLength="98" x="1729" y="415.043">&#20107;&#20214;&#30340;&#26178;&#38291;&#38918;&#24207;</text><text fill="#000000" font-family="sans-serif" font-size="14" lengthAdjust="spacing" textLength="4" x="1588" y="431.5313">&#160;</text><text fill="#000000" filter="url(#bishgvossnils1)" font-family="sans-serif" font-size="14" lengthAdjust="spacing" textLength="12" x="1592" y="431.5313">&#160;&#160;&#160;</text><text fill="#000000" font-family="sans-serif" font-size="14" lengthAdjust="spacing" textLength="4" x="1604" y="431.5313">&#160;</text><text fill="#000000" font-family="sans-serif" font-size="14" lengthAdjust="spacing" textLength="56" x="1658" y="431.5313">&#20998;&#25903;&#36335;&#24465;</text><text fill="#000000" font-family="sans-serif" font-size="14" lengthAdjust="spacing" textLength="56" x="1729" y="431.5313">&#30064;&#24120;&#27969;&#31243;</text><line style="stroke:#000000;stroke-width:1.0;" x1="1588" x2="1887" y1="352.043" y2="352.043"/><line style="stroke:#000000;stroke-width:1.0;" x1="1588" x2="1887" y1="368.5313" y2="368.5313"/><line style="stroke:#000000;stroke-width:1.0;" x1="1588" x2="1887" y1="385.0195" y2="385.0195"/><line style="stroke:#000000;stroke-width:1.0;" x1="1588" x2="1887" y1="401.5078" y2="401.5078"/><line style="stroke:#000000;stroke-width:1.0;" x1="1588" x2="1887" y1="417.9961" y2="417.9961"/><line style="stroke:#000000;stroke-width:1.0;" x1="1588" x2="1887" y1="434.4844" y2="434.4844"/><line style="stroke:#000000;stroke-width:1.0;" x1="1588" x2="1588" y1="352.043" y2="434.4844"/><line style="stroke:#000000;stroke-width:1.0;" x1="1654" x2="1654" y1="352.043" y2="434.4844"/><line style="stroke:#000000;stroke-width:1.0;" x1="1725" x2="1725" y1="352.043" y2="434.4844"/><line style="stroke:#000000;stroke-width:1.0;" x1="1887" x2="1887" y1="352.043" y2="434.4844"/><!--SRC=[bPRFKzj65CVl-rVi98TUok39J2wP58QGCiEf7T9RfmU1Dg11bjArp8pRT2QOs2KrsBI9pOzamBX0g1cJEXZZoYtvPxoxsl-Ykv9h97iDr2Tf_JvVlNtlVRKoqLC7EZR4nlo20tK3epd7i2q04ek6zKp3MXpA9SsQDn7y4K3ncx6JbZvfOmjXUE- -l_J8nZh2axPfOpXhQdEB_kgKRJbFd9G0PsrJ1p-5HHt3wGdwSSOF2DwB3U62QEyuJKgdxApDpkiTDzTfDtdbcEuqoBiI787auBsueFaAQrJuJfwUdWFm6II5AicSqRFZJglj7ItpIfRixGKmkDhOdK2QN7maRPUTvEv0BG6_ylU4aUOW_SibP3dmxjJKnFrOR13avGnxAt5wqIQ_bA_mQGV59tJzHW695ZOwxi4L-YGv6pUSwvvDt1DIsv9ejKBt3drqsfBHDavDBg2vnTl0lBp1YjjHU0Ob45wwXgPlFdJQalPEShIUzkcljLHSXC-WxvCeuTm69gThT7KZ34_QyMScScvJBrPnlUfwg5EszTJ0yMjGdbddBvRzvxwY-Tzyz34oZIM4KnCOYwZRmRsa_uF_HzQaKABDrL3McZM7JBCV5PFBLcei_TSetppbbQt1pWLjyvePkfqcH-dEFqLlkyWsikFHJdvZn96TTAOJYIIIwh6OiXS7TLhS99Th_ETrxuyZLYknuk5ujAiEJWrLwMxFtvjG2UVJcx0WxV7-GJEHba13XSDAtGxugOv7wZ-b6MOIzwc84jBD9jziCFUJzscNvW_1eAD7HiPKHWKgy_PYeyu4AhVAMAKLWTgWaVY8-y0GKqf2wJYWzc4eFZgkG6sztcwZlW8ghybOfP60sbxX-Bvav2jxDIkcqhluG2vV3YlNjtSnqh_hfHWrqGD8tDTYrZgjTQzvDgmUDqZqZE4r3g_i6BYnEqvgamN2d-jQOY7G7zBNGMCDaEh-giqp02ks1PI66I3LhPITUNlPkSm14yqZImy-6SI1_VmBI38hh57c-xjaDoVl-Nx1U_LHNddLAjtAm-So3ZwS5Py63xhlk35nqZySbIjZug_WI1ONtUEzLMFRVxCtUspdfVYBhcJw9QJ7en8iM-VjtL5IBF3zDN7FtxqG9xxt_dTQTuLCi4vNI_AsLXAXKSbOR51Il5jvwJMxsEbbA8I2HLxE4hTmSrQXQVvL9bdyaxHQz7oP7OjA0L77e9hWNm00]--></g></svg>