<?xml version="1.0" encoding="us-ascii" standalone="no"?><svg xmlns="http://www.w3.org/2000/svg" xmlns:xlink="http://www.w3.org/1999/xlink" contentStyleType="text/css" height="1710px" preserveAspectRatio="none" style="width:1577px;height:1710px;background:#FFFFFF;" version="1.1" viewBox="0 0 1577 1710" width="1577px" zoomAndPan="magnify"><defs/><g><!--cluster domain--><g id="cluster_domain"><path d="M8.5,387.42 L63.5,387.42 A3.75,3.75 0 0 1 66,389.92 L73,409.9083 L1321.5,409.9083 A2.5,2.5 0 0 1 1324,412.4083 L1324,1701.29 A2.5,2.5 0 0 1 1321.5,1703.79 L8.5,1703.79 A2.5,2.5 0 0 1 6,1701.29 L6,389.92 A2.5,2.5 0 0 1 8.5,387.42 " fill="none" style="stroke:#000000;stroke-width:1.5;"/><line style="stroke:#000000;stroke-width:1.5;" x1="6" x2="73" y1="409.9083" y2="409.9083"/><text fill="#000000" font-family="sans-serif" font-size="14" font-weight="bold" lengthAdjust="spacing" textLength="54" x="10" y="402.9552">domain</text></g><!--cluster order--><g id="cluster_order"><path d="M32.5,430.42 L71.5,430.42 A3.75,3.75 0 0 1 74,432.92 L81,452.9083 L969.5,452.9083 A2.5,2.5 0 0 1 972,455.4083 L972,1165.36 A2.5,2.5 0 0 1 969.5,1167.86 L32.5,1167.86 A2.5,2.5 0 0 1 30,1165.36 L30,432.92 A2.5,2.5 0 0 1 32.5,430.42 " fill="none" style="stroke:#000000;stroke-width:1.5;"/><line style="stroke:#000000;stroke-width:1.5;" x1="30" x2="81" y1="452.9083" y2="452.9083"/><text fill="#000000" font-family="sans-serif" font-size="14" font-weight="bold" lengthAdjust="spacing" textLength="38" x="34" y="445.9552">order</text></g><!--cluster model--><g id="cluster_model"><path d="M56.5,473.42 L102.5,473.42 A3.75,3.75 0 0 1 105,475.92 L112,495.9083 L945.5,495.9083 A2.5,2.5 0 0 1 948,498.4083 L948,1141.36 A2.5,2.5 0 0 1 945.5,1143.86 L56.5,1143.86 A2.5,2.5 0 0 1 54,1141.36 L54,475.92 A2.5,2.5 0 0 1 56.5,473.42 " fill="none" style="stroke:#000000;stroke-width:1.5;"/><line style="stroke:#000000;stroke-width:1.5;" x1="54" x2="112" y1="495.9083" y2="495.9083"/><text fill="#000000" font-family="sans-serif" font-size="14" font-weight="bold" lengthAdjust="spacing" textLength="45" x="58" y="488.9552">model</text></g><!--cluster aggregate--><g id="cluster_aggregate"><path d="M80.5,516.42 L152.5,516.42 A3.75,3.75 0 0 1 155,518.92 L162,538.9083 L405.5,538.9083 A2.5,2.5 0 0 1 408,541.4083 L408,800.92 A2.5,2.5 0 0 1 405.5,803.42 L80.5,803.42 A2.5,2.5 0 0 1 78,800.92 L78,518.92 A2.5,2.5 0 0 1 80.5,516.42 " fill="none" style="stroke:#000000;stroke-width:1.5;"/><line style="stroke:#000000;stroke-width:1.5;" x1="78" x2="162" y1="538.9083" y2="538.9083"/><text fill="#000000" font-family="sans-serif" font-size="14" font-weight="bold" lengthAdjust="spacing" textLength="71" x="82" y="531.9552">aggregate</text></g><!--cluster factory--><g id="cluster_factory"><path d="M434.5,593.93 L485.5,593.93 A3.75,3.75 0 0 1 488,596.43 L495,616.4183 L921.5,616.4183 A2.5,2.5 0 0 1 924,618.9183 L924,723.41 A2.5,2.5 0 0 1 921.5,725.91 L434.5,725.91 A2.5,2.5 0 0 1 432,723.41 L432,596.43 A2.5,2.5 0 0 1 434.5,593.93 " fill="none" style="stroke:#000000;stroke-width:1.5;"/><line style="stroke:#000000;stroke-width:1.5;" x1="432" x2="495" y1="616.4183" y2="616.4183"/><text fill="#000000" font-family="sans-serif" font-size="14" font-weight="bold" lengthAdjust="spacing" textLength="50" x="436" y="609.4652">factory</text></g><!--cluster events--><g id="cluster_events"><path d="M505.5,971.4 L553.5,971.4 A3.75,3.75 0 0 1 556,973.9 L563,993.8883 L915.5,993.8883 A2.5,2.5 0 0 1 918,996.3883 L918,1117.36 A2.5,2.5 0 0 1 915.5,1119.86 L505.5,1119.86 A2.5,2.5 0 0 1 503,1117.36 L503,973.9 A2.5,2.5 0 0 1 505.5,971.4 " fill="none" style="stroke:#000000;stroke-width:1.5;"/><line style="stroke:#000000;stroke-width:1.5;" x1="503" x2="563" y1="993.8883" y2="993.8883"/><text fill="#000000" font-family="sans-serif" font-size="14" font-weight="bold" lengthAdjust="spacing" textLength="47" x="507" y="986.9352">events</text></g><!--cluster common--><g id="cluster_common"><path d="M201.5,1233.84 L264.5,1233.84 A3.75,3.75 0 0 1 267,1236.34 L274,1256.3283 L1144.5,1256.3283 A2.5,2.5 0 0 1 1147,1258.8283 L1147,1677.29 A2.5,2.5 0 0 1 1144.5,1679.79 L201.5,1679.79 A2.5,2.5 0 0 1 199,1677.29 L199,1236.34 A2.5,2.5 0 0 1 201.5,1233.84 " fill="none" style="stroke:#000000;stroke-width:1.5;"/><line style="stroke:#000000;stroke-width:1.5;" x1="199" x2="274" y1="1256.3283" y2="1256.3283"/><text fill="#000000" font-family="sans-serif" font-size="14" font-weight="bold" lengthAdjust="spacing" textLength="62" x="203" y="1249.3752">common</text></g><!--cluster valueobject--><g id="cluster_valueobject"><path d="M225.5,1276.84 L308.5,1276.84 A3.75,3.75 0 0 1 311,1279.34 L318,1299.3283 L934.5,1299.3283 A2.5,2.5 0 0 1 937,1301.8283 L937,1653.29 A2.5,2.5 0 0 1 934.5,1655.79 L225.5,1655.79 A2.5,2.5 0 0 1 223,1653.29 L223,1279.34 A2.5,2.5 0 0 1 225.5,1276.84 " fill="none" style="stroke:#000000;stroke-width:1.5;"/><line style="stroke:#000000;stroke-width:1.5;" x1="223" x2="318" y1="1299.3283" y2="1299.3283"/><text fill="#000000" font-family="sans-serif" font-size="14" font-weight="bold" lengthAdjust="spacing" textLength="82" x="227" y="1292.3752">valueobject</text></g><!--cluster events--><g id="cluster_events"><path d="M963.5,1312.85 L1011.5,1312.85 A3.75,3.75 0 0 1 1014,1315.35 L1021,1335.3383 L1120.5,1335.3383 A2.5,2.5 0 0 1 1123,1337.8383 L1123,1442.33 A2.5,2.5 0 0 1 1120.5,1444.83 L963.5,1444.83 A2.5,2.5 0 0 1 961,1442.33 L961,1315.35 A2.5,2.5 0 0 1 963.5,1312.85 " fill="none" style="stroke:#000000;stroke-width:1.5;"/><line style="stroke:#000000;stroke-width:1.5;" x1="961" x2="1021" y1="1335.3383" y2="1335.3383"/><text fill="#000000" font-family="sans-serif" font-size="14" font-weight="bold" lengthAdjust="spacing" textLength="47" x="965" y="1328.3852">events</text></g><!--cluster payment--><g id="cluster_payment"><path d="M998.5,852.42 L1061.5,852.42 A3.75,3.75 0 0 1 1064,854.92 L1071,874.9083 L1287.5,874.9083 A2.5,2.5 0 0 1 1290,877.4083 L1290,1198.34 A2.5,2.5 0 0 1 1287.5,1200.84 L998.5,1200.84 A2.5,2.5 0 0 1 996,1198.34 L996,854.92 A2.5,2.5 0 0 1 998.5,852.42 " fill="none" style="stroke:#000000;stroke-width:1.5;"/><line style="stroke:#000000;stroke-width:1.5;" x1="996" x2="1071" y1="874.9083" y2="874.9083"/><text fill="#000000" font-family="sans-serif" font-size="14" font-weight="bold" lengthAdjust="spacing" textLength="62" x="1000" y="867.9552">payment</text></g><!--cluster model--><g id="cluster_model"><path d="M1022.5,895.42 L1068.5,895.42 A3.75,3.75 0 0 1 1071,897.92 L1078,917.9083 L1263.5,917.9083 A2.5,2.5 0 0 1 1266,920.4083 L1266,1174.34 A2.5,2.5 0 0 1 1263.5,1176.84 L1022.5,1176.84 A2.5,2.5 0 0 1 1020,1174.34 L1020,897.92 A2.5,2.5 0 0 1 1022.5,895.42 " fill="none" style="stroke:#000000;stroke-width:1.5;"/><line style="stroke:#000000;stroke-width:1.5;" x1="1020" x2="1078" y1="917.9083" y2="917.9083"/><text fill="#000000" font-family="sans-serif" font-size="14" font-weight="bold" lengthAdjust="spacing" textLength="45" x="1024" y="910.9552">model</text></g><!--cluster aggregate--><g id="cluster_aggregate"><path d="M1046.5,938.42 L1118.5,938.42 A3.75,3.75 0 0 1 1121,940.92 L1128,960.9083 L1239.5,960.9083 A2.5,2.5 0 0 1 1242,963.4083 L1242,1150.34 A2.5,2.5 0 0 1 1239.5,1152.84 L1046.5,1152.84 A2.5,2.5 0 0 1 1044,1150.34 L1044,940.92 A2.5,2.5 0 0 1 1046.5,938.42 " fill="none" style="stroke:#000000;stroke-width:1.5;"/><line style="stroke:#000000;stroke-width:1.5;" x1="1044" x2="1128" y1="960.9083" y2="960.9083"/><text fill="#000000" font-family="sans-serif" font-size="14" font-weight="bold" lengthAdjust="spacing" textLength="71" x="1048" y="953.9552">aggregate</text></g><!--cluster application--><g id="cluster_application"><path d="M283.5,6 L364.5,6 A3.75,3.75 0 0 1 367,8.5 L374,28.4883 L736.5,28.4883 A2.5,2.5 0 0 1 739,30.9883 L739,351.92 A2.5,2.5 0 0 1 736.5,354.42 L283.5,354.42 A2.5,2.5 0 0 1 281,351.92 L281,8.5 A2.5,2.5 0 0 1 283.5,6 " fill="none" style="stroke:#000000;stroke-width:1.5;"/><line style="stroke:#000000;stroke-width:1.5;" x1="281" x2="374" y1="28.4883" y2="28.4883"/><text fill="#000000" font-family="sans-serif" font-size="14" font-weight="bold" lengthAdjust="spacing" textLength="80" x="285" y="21.5352">application</text></g><!--cluster order--><g id="cluster_order"><path d="M307.5,49 L346.5,49 A3.75,3.75 0 0 1 349,51.5 L356,71.4883 L712.5,71.4883 A2.5,2.5 0 0 1 715,73.9883 L715,327.92 A2.5,2.5 0 0 1 712.5,330.42 L307.5,330.42 A2.5,2.5 0 0 1 305,327.92 L305,51.5 A2.5,2.5 0 0 1 307.5,49 " fill="none" style="stroke:#000000;stroke-width:1.5;"/><line style="stroke:#000000;stroke-width:1.5;" x1="305" x2="356" y1="71.4883" y2="71.4883"/><text fill="#000000" font-family="sans-serif" font-size="14" font-weight="bold" lengthAdjust="spacing" textLength="38" x="309" y="64.5352">order</text></g><!--cluster service--><g id="cluster_service"><path d="M331.5,92 L382.5,92 A3.75,3.75 0 0 1 385,94.5 L392,114.4883 L688.5,114.4883 A2.5,2.5 0 0 1 691,116.9883 L691,303.92 A2.5,2.5 0 0 1 688.5,306.42 L331.5,306.42 A2.5,2.5 0 0 1 329,303.92 L329,94.5 A2.5,2.5 0 0 1 331.5,92 " fill="none" style="stroke:#000000;stroke-width:1.5;"/><line style="stroke:#000000;stroke-width:1.5;" x1="329" x2="392" y1="114.4883" y2="114.4883"/><text fill="#000000" font-family="sans-serif" font-size="14" font-weight="bold" lengthAdjust="spacing" textLength="50" x="333" y="107.5352">service</text></g><!--class Order--><g id="elem_Order"><rect codeLine="4" fill="#F1F1F1" height="196.3945" id="Order" rx="2.5" ry="2.5" style="stroke:#181818;stroke-width:0.5;" width="250" x="118" y="571.42"/><ellipse cx="218.75" cy="587.42" fill="#ADD1B2" rx="11" ry="11" style="stroke:#181818;stroke-width:1.0;"/><path d="M221.2231,593.5631 Q220.6421,593.8619 220.0029,594.0113 Q219.3638,594.1607 218.6582,594.1607 Q216.1514,594.1607 214.8315,592.5089 Q213.5117,590.857 213.5117,587.7359 Q213.5117,584.6065 214.8315,582.9547 Q216.1514,581.3028 218.6582,581.3028 Q219.3638,581.3028 220.0112,581.4522 Q220.6587,581.6016 221.2231,581.9005 L221.2231,584.6231 Q220.5923,584.0421 219.9988,583.7723 Q219.4053,583.5025 218.7744,583.5025 Q217.4297,583.5025 216.7449,584.5692 Q216.0601,585.6358 216.0601,587.7359 Q216.0601,589.8277 216.7449,590.8944 Q217.4297,591.961 218.7744,591.961 Q219.4053,591.961 219.9988,591.6912 Q220.5923,591.4215 221.2231,590.8404 Z " fill="#000000"/><text fill="#000000" font-family="sans-serif" font-size="14" lengthAdjust="spacing" textLength="40" x="239.25" y="592.711">Order</text><line style="stroke:#181818;stroke-width:0.5;" x1="119" x2="367" y1="603.42" y2="603.42"/><text fill="#000000" font-family="sans-serif" font-size="14" lengthAdjust="spacing" textLength="78" x="124" y="620.9552">-OrderId id</text><text fill="#000000" font-family="sans-serif" font-size="14" lengthAdjust="spacing" textLength="164" x="124" y="637.4434">-List&lt;OrderItem&gt; items</text><text fill="#000000" font-family="sans-serif" font-size="14" lengthAdjust="spacing" textLength="135" x="124" y="653.9317">-OrderStatus status</text><text fill="#000000" font-family="sans-serif" font-size="14" lengthAdjust="spacing" textLength="143" x="124" y="670.42">-Money totalAmount</text><line style="stroke:#181818;stroke-width:0.5;" x1="119" x2="367" y1="677.3731" y2="677.3731"/><text fill="#000000" font-family="sans-serif" font-size="14" lengthAdjust="spacing" textLength="181" x="124" y="694.9083">+addItem(OrderItem item)</text><text fill="#000000" font-family="sans-serif" font-size="14" lengthAdjust="spacing" textLength="238" x="124" y="711.3966">+updateStatus(OrderStatus status)</text><text fill="#000000" font-family="sans-serif" font-size="14" lengthAdjust="spacing" textLength="116" x="124" y="727.8848">+calculateTotal()</text><text fill="#000000" font-family="sans-serif" font-size="14" lengthAdjust="spacing" textLength="63" x="124" y="744.3731">+create()</text><text fill="#000000" font-family="sans-serif" font-size="14" lengthAdjust="spacing" textLength="132" x="124" y="760.8614">+processPayment()</text></g><!--class OrderFactory--><g id="elem_OrderFactory"><rect codeLine="59" fill="#F1F1F1" height="80.9766" id="OrderFactory" rx="2.5" ry="2.5" style="stroke:#181818;stroke-width:0.5;" width="460" x="448" y="628.93"/><ellipse cx="628.75" cy="644.93" fill="#ADD1B2" rx="11" ry="11" style="stroke:#181818;stroke-width:1.0;"/><path d="M631.2231,651.0731 Q630.6421,651.3719 630.0029,651.5213 Q629.3638,651.6707 628.6582,651.6707 Q626.1514,651.6707 624.8315,650.0189 Q623.5117,648.367 623.5117,645.2459 Q623.5117,642.1165 624.8315,640.4647 Q626.1514,638.8128 628.6582,638.8128 Q629.3638,638.8128 630.0112,638.9622 Q630.6587,639.1116 631.2231,639.4105 L631.2231,642.1331 Q630.5923,641.5521 629.9988,641.2823 Q629.4053,641.0125 628.7744,641.0125 Q627.4297,641.0125 626.7449,642.0792 Q626.0601,643.1458 626.0601,645.2459 Q626.0601,647.3377 626.7449,648.4044 Q627.4297,649.471 628.7744,649.471 Q629.4053,649.471 629.9988,649.2012 Q630.5923,648.9315 631.2231,648.3504 Z " fill="#000000"/><text fill="#000000" font-family="sans-serif" font-size="14" lengthAdjust="spacing" textLength="90" x="649.25" y="650.221">OrderFactory</text><line style="stroke:#181818;stroke-width:0.5;" x1="449" x2="907" y1="660.93" y2="660.93"/><line style="stroke:#181818;stroke-width:0.5;" x1="449" x2="907" y1="668.93" y2="668.93"/><text fill="#000000" font-family="sans-serif" font-size="14" lengthAdjust="spacing" textLength="103" x="454" y="686.4652">+createOrder()</text><text fill="#000000" font-family="sans-serif" font-size="14" lengthAdjust="spacing" textLength="448" x="454" y="702.9534">+createOrderItem(String productId, int quantity, Money unitPrice)</text></g><!--class OrderCreatedEvent--><g id="elem_OrderCreatedEvent"><rect codeLine="73" fill="#F1F1F1" height="80.9766" id="OrderCreatedEvent" rx="2.5" ry="2.5" style="stroke:#181818;stroke-width:0.5;" width="163" x="519.5" y="1014.64"/><ellipse cx="534.5" cy="1030.64" fill="#ADD1B2" rx="11" ry="11" style="stroke:#181818;stroke-width:1.0;"/><path d="M536.9731,1036.7831 Q536.3921,1037.0819 535.7529,1037.2313 Q535.1138,1037.3807 534.4082,1037.3807 Q531.9014,1037.3807 530.5815,1035.7289 Q529.2617,1034.077 529.2617,1030.9559 Q529.2617,1027.8265 530.5815,1026.1747 Q531.9014,1024.5228 534.4082,1024.5228 Q535.1138,1024.5228 535.7612,1024.6722 Q536.4087,1024.8216 536.9731,1025.1205 L536.9731,1027.8431 Q536.3423,1027.2621 535.7488,1026.9923 Q535.1553,1026.7225 534.5244,1026.7225 Q533.1797,1026.7225 532.4949,1027.7892 Q531.8101,1028.8558 531.8101,1030.9559 Q531.8101,1033.0477 532.4949,1034.1144 Q533.1797,1035.181 534.5244,1035.181 Q535.1553,1035.181 535.7488,1034.9112 Q536.3423,1034.6415 536.9731,1034.0604 Z " fill="#000000"/><text fill="#000000" font-family="sans-serif" font-size="14" lengthAdjust="spacing" textLength="131" x="548.5" y="1035.931">OrderCreatedEvent</text><line style="stroke:#181818;stroke-width:0.5;" x1="520.5" x2="681.5" y1="1046.64" y2="1046.64"/><text fill="#000000" font-family="sans-serif" font-size="14" lengthAdjust="spacing" textLength="116" x="525.5" y="1064.1752">-OrderId orderId</text><text fill="#000000" font-family="sans-serif" font-size="14" lengthAdjust="spacing" textLength="143" x="525.5" y="1080.6634">-DateTime createdAt</text><line style="stroke:#181818;stroke-width:0.5;" x1="520.5" x2="681.5" y1="1087.6166" y2="1087.6166"/></g><!--class OrderItemAddedEvent--><g id="elem_OrderItemAddedEvent"><rect codeLine="78" fill="#F1F1F1" height="97.4648" id="OrderItemAddedEvent" rx="2.5" ry="2.5" style="stroke:#181818;stroke-width:0.5;" width="184" x="718" y="1006.4"/><ellipse cx="733" cy="1022.4" fill="#ADD1B2" rx="11" ry="11" style="stroke:#181818;stroke-width:1.0;"/><path d="M735.4731,1028.5431 Q734.8921,1028.8419 734.2529,1028.9913 Q733.6138,1029.1407 732.9082,1029.1407 Q730.4014,1029.1407 729.0815,1027.4889 Q727.7617,1025.837 727.7617,1022.7159 Q727.7617,1019.5865 729.0815,1017.9347 Q730.4014,1016.2828 732.9082,1016.2828 Q733.6138,1016.2828 734.2612,1016.4322 Q734.9087,1016.5816 735.4731,1016.8805 L735.4731,1019.6031 Q734.8423,1019.0221 734.2488,1018.7523 Q733.6553,1018.4825 733.0244,1018.4825 Q731.6797,1018.4825 730.9949,1019.5492 Q730.3101,1020.6158 730.3101,1022.7159 Q730.3101,1024.8077 730.9949,1025.8744 Q731.6797,1026.941 733.0244,1026.941 Q733.6553,1026.941 734.2488,1026.6712 Q734.8423,1026.4015 735.4731,1025.8204 Z " fill="#000000"/><text fill="#000000" font-family="sans-serif" font-size="14" lengthAdjust="spacing" textLength="152" x="747" y="1027.691">OrderItemAddedEvent</text><line style="stroke:#181818;stroke-width:0.5;" x1="719" x2="901" y1="1038.4" y2="1038.4"/><text fill="#000000" font-family="sans-serif" font-size="14" lengthAdjust="spacing" textLength="116" x="724" y="1055.9352">-OrderId orderId</text><text fill="#000000" font-family="sans-serif" font-size="14" lengthAdjust="spacing" textLength="112" x="724" y="1072.4234">-OrderItem item</text><text fill="#000000" font-family="sans-serif" font-size="14" lengthAdjust="spacing" textLength="135" x="724" y="1088.9117">-DateTime addedAt</text><line style="stroke:#181818;stroke-width:0.5;" x1="719" x2="901" y1="1095.8648" y2="1095.8648"/></g><!--class OrderItem--><g id="elem_OrderItem"><rect codeLine="18" fill="#F1F1F1" height="113.9531" id="OrderItem" rx="2.5" ry="2.5" style="stroke:#181818;stroke-width:0.5;" width="150" x="444" y="1331.84"/><ellipse cx="480.6" cy="1347.84" fill="#ADD1B2" rx="11" ry="11" style="stroke:#181818;stroke-width:1.0;"/><path d="M483.0731,1353.9831 Q482.4921,1354.2819 481.8529,1354.4313 Q481.2138,1354.5807 480.5082,1354.5807 Q478.0014,1354.5807 476.6815,1352.9289 Q475.3617,1351.277 475.3617,1348.1559 Q475.3617,1345.0265 476.6815,1343.3747 Q478.0014,1341.7228 480.5082,1341.7228 Q481.2138,1341.7228 481.8612,1341.8722 Q482.5087,1342.0216 483.0731,1342.3205 L483.0731,1345.0431 Q482.4423,1344.4621 481.8488,1344.1923 Q481.2553,1343.9225 480.6244,1343.9225 Q479.2797,1343.9225 478.5949,1344.9892 Q477.9101,1346.0558 477.9101,1348.1559 Q477.9101,1350.2477 478.5949,1351.3144 Q479.2797,1352.381 480.6244,1352.381 Q481.2553,1352.381 481.8488,1352.1112 Q482.4423,1351.8415 483.0731,1351.2604 Z " fill="#000000"/><text fill="#000000" font-family="sans-serif" font-size="14" lengthAdjust="spacing" textLength="70" x="499.4" y="1353.131">OrderItem</text><line style="stroke:#181818;stroke-width:0.5;" x1="445" x2="593" y1="1363.84" y2="1363.84"/><text fill="#000000" font-family="sans-serif" font-size="14" lengthAdjust="spacing" textLength="120" x="450" y="1381.3752">-String productId</text><text fill="#000000" font-family="sans-serif" font-size="14" lengthAdjust="spacing" textLength="86" x="450" y="1397.8634">-int quantity</text><text fill="#000000" font-family="sans-serif" font-size="14" lengthAdjust="spacing" textLength="117" x="450" y="1414.3517">-Money unitPrice</text><line style="stroke:#181818;stroke-width:0.5;" x1="445" x2="593" y1="1421.3048" y2="1421.3048"/><text fill="#000000" font-family="sans-serif" font-size="14" lengthAdjust="spacing" textLength="138" x="450" y="1438.84">+calculateSubtotal()</text></g><!--class Money--><g id="elem_Money"><rect codeLine="25" fill="#F1F1F1" height="113.9531" id="Money" rx="2.5" ry="2.5" style="stroke:#181818;stroke-width:0.5;" width="166" x="755" y="1525.84"/><ellipse cx="811.25" cy="1541.84" fill="#ADD1B2" rx="11" ry="11" style="stroke:#181818;stroke-width:1.0;"/><path d="M813.7231,1547.9831 Q813.1421,1548.2819 812.5029,1548.4313 Q811.8638,1548.5807 811.1582,1548.5807 Q808.6514,1548.5807 807.3315,1546.9289 Q806.0117,1545.277 806.0117,1542.1559 Q806.0117,1539.0265 807.3315,1537.3747 Q808.6514,1535.7228 811.1582,1535.7228 Q811.8638,1535.7228 812.5112,1535.8722 Q813.1587,1536.0216 813.7231,1536.3205 L813.7231,1539.0431 Q813.0923,1538.4621 812.4988,1538.1923 Q811.9053,1537.9225 811.2744,1537.9225 Q809.9297,1537.9225 809.2449,1538.9892 Q808.5601,1540.0558 808.5601,1542.1559 Q808.5601,1544.2477 809.2449,1545.3144 Q809.9297,1546.381 811.2744,1546.381 Q811.9053,1546.381 812.4988,1546.1112 Q813.0923,1545.8415 813.7231,1545.2604 Z " fill="#000000"/><text fill="#000000" font-family="sans-serif" font-size="14" lengthAdjust="spacing" textLength="45" x="831.75" y="1547.131">Money</text><line style="stroke:#181818;stroke-width:0.5;" x1="756" x2="920" y1="1557.84" y2="1557.84"/><text fill="#000000" font-family="sans-serif" font-size="14" lengthAdjust="spacing" textLength="140" x="761" y="1575.3752">-BigDecimal amount</text><text fill="#000000" font-family="sans-serif" font-size="14" lengthAdjust="spacing" textLength="133" x="761" y="1591.8634">-Currency currency</text><line style="stroke:#181818;stroke-width:0.5;" x1="756" x2="920" y1="1598.8166" y2="1598.8166"/><text fill="#000000" font-family="sans-serif" font-size="14" lengthAdjust="spacing" textLength="133" x="761" y="1616.3517">+add(Money other)</text><text fill="#000000" font-family="sans-serif" font-size="14" lengthAdjust="spacing" textLength="154" x="761" y="1632.84">+multiply(int quantity)</text></g><!--class OrderStatus--><g id="elem_OrderStatus"><rect codeLine="32" fill="#F1F1F1" height="130.4414" id="OrderStatus" rx="2.5" ry="2.5" style="stroke:#181818;stroke-width:0.5;" width="145" x="239.5" y="1323.12"/><ellipse cx="268.45" cy="1339.12" fill="#EB937F" rx="11" ry="11" style="stroke:#181818;stroke-width:1.0;"/><path d="M272.0643,1345.62 L264.3445,1345.62 L264.3445,1333.2269 L272.0643,1333.2269 L272.0643,1335.3851 L266.7933,1335.3851 L266.7933,1338.058 L271.5662,1338.058 L271.5662,1340.2162 L266.7933,1340.2162 L266.7933,1343.4618 L272.0643,1343.4618 Z " fill="#000000"/><text fill="#000000" font-family="sans-serif" font-size="14" lengthAdjust="spacing" textLength="82" x="285.55" y="1344.411">OrderStatus</text><line style="stroke:#181818;stroke-width:0.5;" x1="240.5" x2="383.5" y1="1355.12" y2="1355.12"/><text fill="#000000" font-family="sans-serif" font-size="14" lengthAdjust="spacing" textLength="64" x="245.5" y="1372.6552">CREATED</text><text fill="#000000" font-family="sans-serif" font-size="14" lengthAdjust="spacing" textLength="133" x="245.5" y="1389.1434">PENDING_PAYMENT</text><text fill="#000000" font-family="sans-serif" font-size="14" lengthAdjust="spacing" textLength="82" x="245.5" y="1405.6317">CONFIRMED</text><text fill="#000000" font-family="sans-serif" font-size="14" lengthAdjust="spacing" textLength="47" x="245.5" y="1422.12">FAILED</text><text fill="#000000" font-family="sans-serif" font-size="14" lengthAdjust="spacing" textLength="73" x="245.5" y="1438.6083">DELIVERED</text><line style="stroke:#181818;stroke-width:0.5;" x1="240.5" x2="383.5" y1="1445.5614" y2="1445.5614"/></g><!--class OrderId--><g id="elem_OrderId"><rect codeLine="40" fill="#F1F1F1" height="80.9766" id="OrderId" rx="2.5" ry="2.5" style="stroke:#181818;stroke-width:0.5;" width="101" x="653.5" y="1347.85"/><ellipse cx="675.7" cy="1363.85" fill="#ADD1B2" rx="11" ry="11" style="stroke:#181818;stroke-width:1.0;"/><path d="M678.1731,1369.9931 Q677.5921,1370.2919 676.9529,1370.4413 Q676.3138,1370.5907 675.6082,1370.5907 Q673.1014,1370.5907 671.7815,1368.9389 Q670.4617,1367.287 670.4617,1364.1659 Q670.4617,1361.0365 671.7815,1359.3847 Q673.1014,1357.7328 675.6082,1357.7328 Q676.3138,1357.7328 676.9612,1357.8822 Q677.6087,1358.0316 678.1731,1358.3305 L678.1731,1361.0531 Q677.5423,1360.4721 676.9488,1360.2023 Q676.3553,1359.9325 675.7244,1359.9325 Q674.3797,1359.9325 673.6949,1360.9992 Q673.0101,1362.0658 673.0101,1364.1659 Q673.0101,1366.2577 673.6949,1367.3244 Q674.3797,1368.391 675.7244,1368.391 Q676.3553,1368.391 676.9488,1368.1212 Q677.5423,1367.8515 678.1731,1367.2704 Z " fill="#000000"/><text fill="#000000" font-family="sans-serif" font-size="14" lengthAdjust="spacing" textLength="53" x="691.3" y="1369.141">OrderId</text><line style="stroke:#181818;stroke-width:0.5;" x1="654.5" x2="753.5" y1="1379.85" y2="1379.85"/><text fill="#000000" font-family="sans-serif" font-size="14" lengthAdjust="spacing" textLength="89" x="659.5" y="1397.3852">-String value</text><line style="stroke:#181818;stroke-width:0.5;" x1="654.5" x2="753.5" y1="1404.3383" y2="1404.3383"/><text fill="#000000" font-family="sans-serif" font-size="14" lengthAdjust="spacing" textLength="76" x="659.5" y="1421.8734">+toString()</text></g><!--class PaymentStatus--><g id="elem_PaymentStatus"><rect codeLine="98" fill="#F1F1F1" height="97.4648" id="PaymentStatus" rx="2.5" ry="2.5" style="stroke:#181818;stroke-width:0.5;" width="132" x="789" y="1339.6"/><ellipse cx="804" cy="1355.6" fill="#EB937F" rx="11" ry="11" style="stroke:#181818;stroke-width:1.0;"/><path d="M807.6143,1362.1 L799.8945,1362.1 L799.8945,1349.7069 L807.6143,1349.7069 L807.6143,1351.8651 L802.3433,1351.8651 L802.3433,1354.538 L807.1162,1354.538 L807.1162,1356.6962 L802.3433,1356.6962 L802.3433,1359.9418 L807.6143,1359.9418 Z " fill="#000000"/><text fill="#000000" font-family="sans-serif" font-size="14" lengthAdjust="spacing" textLength="100" x="818" y="1360.891">PaymentStatus</text><line style="stroke:#181818;stroke-width:0.5;" x1="790" x2="920" y1="1371.6" y2="1371.6"/><text fill="#000000" font-family="sans-serif" font-size="14" lengthAdjust="spacing" textLength="60" x="795" y="1389.1352">PENDING</text><text fill="#000000" font-family="sans-serif" font-size="14" lengthAdjust="spacing" textLength="83" x="795" y="1405.6234">COMPLETED</text><text fill="#000000" font-family="sans-serif" font-size="14" lengthAdjust="spacing" textLength="47" x="795" y="1422.1117">FAILED</text><line style="stroke:#181818;stroke-width:0.5;" x1="790" x2="920" y1="1429.0648" y2="1429.0648"/></g><!--class DomainEvent--><g id="elem_DomainEvent"><rect codeLine="66" fill="#F1F1F1" height="80.9766" id="DomainEvent" rx="2.5" ry="2.5" style="stroke:#181818;stroke-width:0.5;" width="131" x="976.5" y="1347.85"/><ellipse cx="995.55" cy="1363.85" fill="#B4A7E5" rx="11" ry="11" style="stroke:#181818;stroke-width:1.0;"/><path d="M991.9777,1360.1151 L991.9777,1357.9569 L999.3571,1357.9569 L999.3571,1360.1151 L996.8918,1360.1151 L996.8918,1368.1918 L999.3571,1368.1918 L999.3571,1370.35 L991.9777,1370.35 L991.9777,1368.1918 L994.4431,1368.1918 L994.4431,1360.1151 Z " fill="#000000"/><text fill="#000000" font-family="sans-serif" font-size="14" font-style="italic" lengthAdjust="spacing" textLength="90" x="1010.45" y="1369.141">DomainEvent</text><line style="stroke:#181818;stroke-width:0.5;" x1="977.5" x2="1106.5" y1="1379.85" y2="1379.85"/><line style="stroke:#181818;stroke-width:0.5;" x1="977.5" x2="1106.5" y1="1387.85" y2="1387.85"/><text fill="#000000" font-family="sans-serif" font-size="14" lengthAdjust="spacing" textLength="93" x="982.5" y="1405.3852">+getEventId()</text><text fill="#000000" font-family="sans-serif" font-size="14" lengthAdjust="spacing" textLength="119" x="982.5" y="1421.8734">+getTimestamp()</text></g><!--class Payment--><g id="elem_Payment"><rect codeLine="86" fill="#F1F1F1" height="163.418" id="Payment" rx="2.5" ry="2.5" style="stroke:#181818;stroke-width:0.5;" width="165" x="1060.5" y="973.42"/><ellipse cx="1109.75" cy="989.42" fill="#ADD1B2" rx="11" ry="11" style="stroke:#181818;stroke-width:1.0;"/><path d="M1112.2231,995.5631 Q1111.6421,995.8619 1111.0029,996.0113 Q1110.3638,996.1607 1109.6582,996.1607 Q1107.1514,996.1607 1105.8315,994.5089 Q1104.5117,992.857 1104.5117,989.7359 Q1104.5117,986.6065 1105.8315,984.9547 Q1107.1514,983.3028 1109.6582,983.3028 Q1110.3638,983.3028 1111.0112,983.4522 Q1111.6587,983.6016 1112.2231,983.9005 L1112.2231,986.6231 Q1111.5923,986.0421 1110.9988,985.7723 Q1110.4053,985.5025 1109.7744,985.5025 Q1108.4297,985.5025 1107.7449,986.5692 Q1107.0601,987.6358 1107.0601,989.7359 Q1107.0601,991.8277 1107.7449,992.8944 Q1108.4297,993.961 1109.7744,993.961 Q1110.4053,993.961 1110.9988,993.6912 Q1111.5923,993.4215 1112.2231,992.8404 Z " fill="#000000"/><text fill="#000000" font-family="sans-serif" font-size="14" lengthAdjust="spacing" textLength="58" x="1130.25" y="994.711">Payment</text><line style="stroke:#181818;stroke-width:0.5;" x1="1061.5" x2="1224.5" y1="1005.42" y2="1005.42"/><text fill="#000000" font-family="sans-serif" font-size="14" lengthAdjust="spacing" textLength="125" x="1066.5" y="1022.9552">-String paymentId</text><text fill="#000000" font-family="sans-serif" font-size="14" lengthAdjust="spacing" textLength="116" x="1066.5" y="1039.4434">-OrderId orderId</text><text fill="#000000" font-family="sans-serif" font-size="14" lengthAdjust="spacing" textLength="110" x="1066.5" y="1055.9317">-Money amount</text><text fill="#000000" font-family="sans-serif" font-size="14" lengthAdjust="spacing" textLength="153" x="1066.5" y="1072.42">-PaymentStatus status</text><line style="stroke:#181818;stroke-width:0.5;" x1="1061.5" x2="1224.5" y1="1079.3731" y2="1079.3731"/><text fill="#000000" font-family="sans-serif" font-size="14" lengthAdjust="spacing" textLength="74" x="1066.5" y="1096.9083">+process()</text><text fill="#000000" font-family="sans-serif" font-size="14" lengthAdjust="spacing" textLength="84" x="1066.5" y="1113.3966">+complete()</text><text fill="#000000" font-family="sans-serif" font-size="14" lengthAdjust="spacing" textLength="42" x="1066.5" y="1129.8848">+fail()</text></g><!--class OrderApplicationService--><g id="elem_OrderApplicationService"><rect codeLine="47" fill="#F1F1F1" height="163.418" id="OrderApplicationService" rx="2.5" ry="2.5" style="stroke:#181818;stroke-width:0.5;" width="331" x="344.5" y="127"/><ellipse cx="422.75" cy="143" fill="#ADD1B2" rx="11" ry="11" style="stroke:#181818;stroke-width:1.0;"/><path d="M425.2231,149.1431 Q424.6421,149.4419 424.0029,149.5913 Q423.3638,149.7407 422.6582,149.7407 Q420.1514,149.7407 418.8315,148.0889 Q417.5117,146.437 417.5117,143.3159 Q417.5117,140.1865 418.8315,138.5347 Q420.1514,136.8828 422.6582,136.8828 Q423.3638,136.8828 424.0112,137.0322 Q424.6587,137.1816 425.2231,137.4805 L425.2231,140.2031 Q424.5923,139.6221 423.9988,139.3523 Q423.4053,139.0825 422.7744,139.0825 Q421.4297,139.0825 420.7449,140.1492 Q420.0601,141.2158 420.0601,143.3159 Q420.0601,145.4077 420.7449,146.4744 Q421.4297,147.541 422.7744,147.541 Q423.4053,147.541 423.9988,147.2712 Q424.5923,147.0015 425.2231,146.4204 Z " fill="#000000"/><text fill="#000000" font-family="sans-serif" font-size="14" lengthAdjust="spacing" textLength="166" x="443.25" y="148.291">OrderApplicationService</text><line style="stroke:#181818;stroke-width:0.5;" x1="345.5" x2="674.5" y1="159" y2="159"/><text fill="#000000" font-family="sans-serif" font-size="14" lengthAdjust="spacing" textLength="190" x="350.5" y="176.5352">-OrderFactory orderFactory</text><text fill="#000000" font-family="sans-serif" font-size="14" lengthAdjust="spacing" textLength="236" x="350.5" y="193.0234">-OrderRepository orderRepository</text><text fill="#000000" font-family="sans-serif" font-size="14" lengthAdjust="spacing" textLength="253" x="350.5" y="209.5117">-PaymentServicePort paymentService</text><text fill="#000000" font-family="sans-serif" font-size="14" lengthAdjust="spacing" textLength="251" x="350.5" y="226">-LogisticsServicePort logisticsService</text><line style="stroke:#181818;stroke-width:0.5;" x1="345.5" x2="674.5" y1="232.9531" y2="232.9531"/><text fill="#000000" font-family="sans-serif" font-size="14" lengthAdjust="spacing" textLength="292" x="350.5" y="250.4883">+createOrder(CreateOrderCommand cmd)</text><text fill="#000000" font-family="sans-serif" font-size="14" lengthAdjust="spacing" textLength="319" x="350.5" y="266.9766">+addOrderItem(AddOrderItemCommand cmd)</text><text fill="#000000" font-family="sans-serif" font-size="14" lengthAdjust="spacing" textLength="222" x="350.5" y="283.4648">+processOrder(OrderId orderId)</text></g><g id="elem_GMN43"><path d="M1340,656.76 L1340,682.0705 L1436,682.0705 L1436,666.76 L1426,656.76 L1340,656.76 " fill="#FEFFDD" style="stroke:#181818;stroke-width:0.5;"/><path d="M1426,656.76 L1426,666.76 L1436,666.76 L1426,656.76 " fill="#FEFFDD" style="stroke:#181818;stroke-width:1.0;"/><text fill="#000000" font-family="sans-serif" font-size="13" lengthAdjust="spacing" textLength="75" x="1346" y="674.3284">"&#35330;&#21934;&#32858;&#21512;&#26681;"</text></g><g id="elem_GMN46"><path d="M1343.5,1375.68 L1343.5,1400.9905 L1426.5,1400.9905 L1426.5,1385.68 L1416.5,1375.68 L1343.5,1375.68 " fill="#FEFFDD" style="stroke:#181818;stroke-width:0.5;"/><path d="M1416.5,1375.68 L1416.5,1385.68 L1426.5,1385.68 L1416.5,1375.68 " fill="#FEFFDD" style="stroke:#181818;stroke-width:1.0;"/><text fill="#000000" font-family="sans-serif" font-size="13" lengthAdjust="spacing" textLength="62" x="1349.5" y="1393.2484">"&#35330;&#21934;&#29376;&#24907;"</text></g><g id="elem_GMN49"><path d="M1461.5,1375.68 L1461.5,1400.9905 L1570.5,1400.9905 L1570.5,1385.68 L1560.5,1375.68 L1461.5,1375.68 " fill="#FEFFDD" style="stroke:#181818;stroke-width:0.5;"/><path d="M1560.5,1375.68 L1560.5,1385.68 L1570.5,1385.68 L1560.5,1375.68 " fill="#FEFFDD" style="stroke:#181818;stroke-width:1.0;"/><text fill="#000000" font-family="sans-serif" font-size="13" lengthAdjust="spacing" textLength="88" x="1467.5" y="1393.2484">"&#38936;&#22495;&#20107;&#20214;&#20171;&#38754;"</text></g><g id="elem_GMN52"><path d="M1343,1042.47 L1343,1051.13 L1225.83,1055.13 L1343,1059.13 L1343,1067.7805 A0,0 0 0 0 1343,1067.7805 L1439,1067.7805 A0,0 0 0 0 1439,1067.7805 L1439,1052.47 L1429,1042.47 L1343,1042.47 A0,0 0 0 0 1343,1042.47 " fill="#FEFFDD" style="stroke:#181818;stroke-width:0.5;"/><path d="M1429,1042.47 L1429,1052.47 L1439,1052.47 L1429,1042.47 " fill="#FEFFDD" style="stroke:#181818;stroke-width:0.5;"/><text fill="#000000" font-family="sans-serif" font-size="13" lengthAdjust="spacing" textLength="75" x="1349" y="1060.0384">"&#25903;&#20184;&#32858;&#21512;&#26681;"</text></g><!--link Order to OrderItem--><g id="link_Order_OrderItem"><path codeLine="105" d="M273.29,781.2 C310.56,915.16 373.16,1132.23 408,1208.84 C425.48,1247.28 449.84,1287.44 471.28,1319.91 " fill="none" id="Order-OrderItem" style="stroke:#181818;stroke-width:1.0;"/><polygon fill="#181818" points="269.84,768.75,267.5946,775.6026,273.0565,780.3109,275.3019,773.4583,269.84,768.75" style="stroke:#181818;stroke-width:1.0;"/><polygon fill="#181818" points="478.5,1330.7,476.8241,1320.9948,475.7214,1326.5431,470.1731,1325.4405,478.5,1330.7" style="stroke:#181818;stroke-width:1.0;"/><line style="stroke:#181818;stroke-width:1.0;" x1="475.7214" x2="471.275" y1="1326.5431" y2="1319.89"/><text fill="#000000" font-family="sans-serif" font-size="13" lengthAdjust="spacing" textLength="54" x="409" y="1060.1984">contains</text><text fill="#000000" font-family="sans-serif" font-size="13" lengthAdjust="spacing" textLength="8" x="267.1777" y="788.0175">1</text><text fill="#000000" font-family="sans-serif" font-size="13" lengthAdjust="spacing" textLength="6" x="467.6076" y="1320.9013">*</text></g><!--link Order to OrderStatus--><g id="link_Order_OrderStatus"><path codeLine="106" d="M252.31,767.11 C266.38,913.31 292.75,1187.28 305.18,1316.47 " fill="none" id="Order-to-OrderStatus" style="stroke:#181818;stroke-width:1.0;"/><polygon fill="#181818" points="305.65,1321.38,308.7585,1312.0346,305.1652,1316.4036,300.7962,1312.8103,305.65,1321.38" style="stroke:#181818;stroke-width:1.0;"/></g><!--link Order to Money--><g id="link_Order_Money"><path codeLine="107" d="M349.57,767.34 C374.93,785.24 403.08,801.42 432,811.42 C466.14,823.22 720.9,818.04 757,819.42 C810.92,821.47 1204.84,805.29 1242,844.42 C1337.81,945.3 1245.41,1356.59 1158,1464.84 C1101.97,1534.22 1000.96,1562.45 927.37,1573.94 " fill="none" id="Order-to-Money" style="stroke:#181818;stroke-width:1.0;"/><polygon fill="#181818" points="922.72,1574.64,932.2145,1577.258,927.6645,1573.8969,931.0256,1569.3468,922.72,1574.64" style="stroke:#181818;stroke-width:1.0;"/></g><!--link Order to OrderId--><g id="link_Order_OrderId"><path codeLine="108" d="M367.85,763.75 C417.82,801.68 464.53,838.14 468,844.42 C507.3,915.65 446.38,1150.42 503,1208.84 C544.47,1251.63 588.55,1189.79 636,1225.84 C672.3,1253.41 689.4,1304.03 697.34,1341.27 " fill="none" id="Order-to-OrderId" style="stroke:#181818;stroke-width:1.0;"/><polygon fill="#181818" points="698.33,1346.11,700.4496,1336.4919,697.3302,1341.211,692.6111,1338.0916,698.33,1346.11" style="stroke:#181818;stroke-width:1.0;"/></g><!--link OrderItem to Money--><g id="link_OrderItem_Money"><path codeLine="109" d="M593.87,1438.41 C607.8,1447.32 622.29,1456.45 636,1464.84 C672.75,1487.32 713.82,1511.3 749.27,1531.66 " fill="none" id="OrderItem-to-Money" style="stroke:#181818;stroke-width:1.0;"/><polygon fill="#181818" points="753.6,1534.14,747.7873,1526.1894,749.2641,1531.6501,743.8034,1533.1269,753.6,1534.14" style="stroke:#181818;stroke-width:1.0;"/></g><!--link OrderApplicationService to OrderFactory--><g id="link_OrderApplicationService_OrderFactory"><path codeLine="110" d="M539.65,290.66 C574.99,387.17 632.84,545.11 661.22,622.61 " fill="none" id="OrderApplicationService-to-OrderFactory" style="stroke:#181818;stroke-width:1.0;"/><polygon fill="#181818" points="662.86,627.08,663.4979,617.2518,661.1295,622.389,655.9923,620.0206,662.86,627.08" style="stroke:#181818;stroke-width:1.0;"/></g><!--link OrderApplicationService to Order--><g id="link_OrderApplicationService_Order"><path codeLine="111" d="M462.88,290.66 C418.2,367.42 350.9,483.05 302.53,566.15 " fill="none" id="OrderApplicationService-to-Order" style="stroke:#181818;stroke-width:1.0;"/><polygon fill="#181818" points="300.13,570.27,308.1235,564.5164,302.652,565.9527,301.2157,560.4812,300.13,570.27" style="stroke:#181818;stroke-width:1.0;"/></g><!--link Order to OrderCreatedEvent--><g id="link_Order_OrderCreatedEvent"><path codeLine="112" d="M354.76,767.35 C378.95,784.33 405.32,800.15 432,811.42 C452.73,820.18 463.82,806.16 482,819.42 C544.91,865.3 576.8,954.12 591.09,1008.37 " fill="none" id="Order-to-OrderCreatedEvent" style="stroke:#181818;stroke-width:1.0;stroke-dasharray:7.0,7.0;"/><polygon fill="#181818" points="592.29,1013.02,593.9272,1003.3082,591.0471,1008.1769,586.1783,1005.2968,592.29,1013.02" style="stroke:#181818;stroke-width:1.0;"/><text fill="#000000" font-family="sans-serif" font-size="13" lengthAdjust="spacing" textLength="61" x="499.26" y="832.9884">publishes</text></g><!--link Order to OrderItemAddedEvent--><g id="link_Order_OrderItemAddedEvent"><path codeLine="113" d="M350.85,767.33 C375.93,784.99 403.64,801.08 432,811.42 C460.65,821.87 538.74,815.66 569,819.42 C627.82,826.72 652.39,809.11 700,844.42 C751.3,882.47 780.85,951.57 796.15,1000.02 " fill="none" id="Order-to-OrderItemAddedEvent" style="stroke:#181818;stroke-width:1.0;stroke-dasharray:7.0,7.0;"/><polygon fill="#181818" points="797.59,1004.67,798.7602,994.8909,796.1166,999.892,791.1154,997.2484,797.59,1004.67" style="stroke:#181818;stroke-width:1.0;"/><text fill="#000000" font-family="sans-serif" font-size="13" lengthAdjust="spacing" textLength="61" x="687.35" y="832.9884">publishes</text></g><!--link OrderCreatedEvent to DomainEvent--><g id="link_OrderCreatedEvent_DomainEvent"><path codeLine="114" d="M614.95,1096 C629.91,1132.21 657.43,1183.69 700,1208.84 C745.46,1235.69 891.52,1199.01 937,1225.84 C975.71,1248.67 1002.71,1292.03 1019.63,1328.08 " fill="none" id="OrderCreatedEvent-to-DomainEvent" style="stroke:#181818;stroke-width:1.0;stroke-dasharray:7.0,7.0;"/><polygon fill="none" points="1026.01,1325.19,1027.61,1346.32,1013.18,1330.8,1026.01,1325.19" style="stroke:#181818;stroke-width:1.0;"/></g><!--link OrderItemAddedEvent to DomainEvent--><g id="link_OrderItemAddedEvent_DomainEvent"><path codeLine="115" d="M847.27,1104.15 C873.05,1137.8 907.82,1184.05 937,1225.84 C960.65,1259.72 985.93,1298.52 1005.76,1329.59 " fill="none" id="OrderItemAddedEvent-to-DomainEvent" style="stroke:#181818;stroke-width:1.0;stroke-dasharray:7.0,7.0;"/><polygon fill="none" points="1011.42,1325.45,1016.23,1346.08,999.6,1332.95,1011.42,1325.45" style="stroke:#181818;stroke-width:1.0;"/></g><!--link Payment to PaymentStatus--><g id="link_Payment_PaymentStatus"><path codeLine="116" d="M1060.09,1125.76 C1027.48,1155.05 990.8,1190.5 961,1225.84 C932.59,1259.53 905.42,1301.18 885.7,1333.74 " fill="none" id="Payment-to-PaymentStatus" style="stroke:#181818;stroke-width:1.0;"/><polygon fill="#181818" points="883.13,1338.01,891.2043,1332.3703,885.713,1333.7288,884.3544,1328.2375,883.13,1338.01" style="stroke:#181818;stroke-width:1.0;"/></g><!--link Payment to Money--><g id="link_Payment_Money"><path codeLine="117" d="M1162.71,1137.25 C1179.33,1226.13 1190.85,1368.81 1123,1464.84 C1078.38,1527.99 993.25,1557.12 927.6,1570.52 " fill="none" id="Payment-to-Money" style="stroke:#181818;stroke-width:1.0;"/><polygon fill="#181818" points="922.8,1571.47,932.406,1573.6434,927.7045,1570.4977,930.8503,1565.7962,922.8,1571.47" style="stroke:#181818;stroke-width:1.0;"/></g><!--link Payment to OrderId--><g id="link_Payment_OrderId"><path codeLine="118" d="M1060.25,1126.45 C1019.9,1156.89 969.11,1189.83 918,1208.84 C856.77,1231.61 824.24,1186.61 772,1225.84 C735.55,1253.21 718.47,1303.86 710.58,1341.17 " fill="none" id="Payment-to-OrderId" style="stroke:#181818;stroke-width:1.0;"/><polygon fill="#181818" points="709.6,1346.02,715.2964,1337.9856,710.5861,1341.1182,707.4535,1336.4079,709.6,1346.02" style="stroke:#181818;stroke-width:1.0;"/></g><!--link Order to GMN43--><g id="link_Order_GMN43"><path d="M289.34,571.58 C322.28,510.21 371.38,432.88 432,379.42 C438.49,373.7 441.07,372.86 449.5,370.92 C474.24,365.23 881.76,365.23 906.5,370.92 C1117.85,419.53 1322.34,605.85 1374.98,656.6 " fill="none" id="Order-GMN43" style="stroke:#181818;stroke-width:1.0;stroke-dasharray:7.0,7.0;"/></g><!--link OrderStatus to GMN46--><g id="link_OrderStatus_GMN46"><path d="M328.6,1323.01 C343.98,1279.56 372.02,1228.49 420.5,1217.34 C468.04,1206.4 1250.96,1206.4 1298.5,1217.34 C1366.59,1233 1381.18,1338.03 1384.22,1375.27 " fill="none" id="OrderStatus-GMN46" style="stroke:#181818;stroke-width:1.0;stroke-dasharray:7.0,7.0;"/></g><!--link DomainEvent to GMN49--><g id="link_DomainEvent_GMN49"><path d="M1092.27,1347.51 C1149.16,1304.39 1246.59,1239.63 1343.5,1217.34 C1379.45,1209.07 1390.55,1209.07 1426.5,1217.34 C1434.93,1219.28 1437.99,1219.62 1444,1225.84 C1487.08,1270.46 1506.9,1345.19 1513.42,1375.24 " fill="none" id="DomainEvent-GMN49" style="stroke:#181818;stroke-width:1.0;stroke-dasharray:7.0,7.0;"/></g><!--SRC=[bLP1RzCm5BxtLrWzPMEDu3gXIQ7DKAIsgzeAYHDo7IypI-BWE9FAG08a9AHUE20q8Q5Dd3Z13GdsTxgn_GiSsqcTfB1nQUBdB-zz-VpUbwQ794uWWn508KnJXtD6PXd77gBnX3p7u6whbK1q20CCsZwD88bjodpCx8ZwEBHX430SG8xRuBW5L1AmbmFa6e2EN7W-8BvQzqdAxwiWnz4E8E8tDQ0J3dcMWbHUL7n0Opm7d78OEX7DOYx3Tw3lvociCfdCjQ4siyGNh5GogvbOen0CKHOAu3HFRXLHXaMeM2MC8foc8pYFSCnbz6NhPLCMHAE8nlOH33DCPqynuWrD94cjoqGe7GT0PFSpn3sj3eavU9R1c1C-Dry-YmaVCO9mZVSac_6IkY1Lb5DFwL8FID33Y4Gm172bNwURCOPZD0T8tvIoMkfnoWymqof4MSX94iujas5P5CTP14oLLUNks7McRa_UZznXpni-V39o7W_SuLJjxmrtlV508tOThwzlUsxVU-IEvSfugwANgX9AnHLBJbLipId190a9WfpGeeDJp8w4eerJSbR8YO9KUdaN8awPKCTO6DjZdD2Kh12hjGBfFjAPHvHna5H2Uane80Q5eDG4XhMWsQwokDLTtNT5FyBO1oZoDygJBTlGSen54wgRNYKjPAVg-jS9C8rXNmdJ4BTGxxZ9VQCHaaJhWx85p1RS0hK1kMa-yP6GEbMyH2BC15CCUXBZvdi5jG1pkVRyWfc8J4c4XOD4YNKh5SnYXWZgb7opNASciWhsSciI9O4InNVuke4GAedJl4s-gbNMQi0yXwwmvhrqb_xB-7LlrorEHQiSQiJK8PhkLCn9utDGz6RPBpHAGhpowtr8mlztQUbWrPh7fczflngC-kwqxbUoaFhejU-rmMQdimFQcst3yxU1-9voKJ_Lk1nY-AKHbKhKKKAcLR8QQerTbSyLzdGZK1UqxPqr7ReDacmMalG0ftLShVSQo4eUstwnOqvQQrsA1gXegfnhvO0gEqeGCr88ruefnu2Hu803kg__d6o3zjNNDnSVlrsz_dJn_jtbsS_sEfpkX1BzU_7gyksY3ZNDGq2lpqukJa-NlnRByn_ByyNrvo_r1mgQ0dpvuVlo_CHWyGS0]--></g></svg>