<?xml version="1.0" encoding="us-ascii" standalone="no"?><svg xmlns="http://www.w3.org/2000/svg" xmlns:xlink="http://www.w3.org/1999/xlink" contentStyleType="text/css" height="1348px" preserveAspectRatio="none" style="width:1049px;height:1348px;background:#FFFFFF;" version="1.1" viewBox="0 0 1049 1348" width="1049px" zoomAndPan="magnify"><defs/><g><text fill="#000000" font-family="sans-serif" font-size="20" font-weight="bold" lengthAdjust="spacing" textLength="180" x="427.5" y="29.3359">&#35330;&#21934;&#31995;&#32113;&#20107;&#20214;&#39080;&#26292;&#22294;</text><!--entity Customer--><g id="elem_Customer"><rect fill="#CCFFFF" height="36.4883" rx="12.5" ry="12.5" style="stroke:#000000;stroke-width:0.5;" width="48" x="569" y="51.5547"/><text fill="#000000" font-family="sans-serif" font-size="14" font-weight="bold" lengthAdjust="spacing" textLength="28" x="579" y="75.0898">&#23458;&#25142;</text></g><!--entity Admin--><g id="elem_Admin"><rect fill="#CCFFFF" height="36.4883" rx="12.5" ry="12.5" style="stroke:#000000;stroke-width:0.5;" width="90" x="869" y="51.5547"/><text fill="#000000" font-family="sans-serif" font-size="14" font-weight="bold" lengthAdjust="spacing" textLength="70" x="879" y="75.0898">&#31995;&#32113;&#31649;&#29702;&#21729;</text></g><!--entity PaymentGateway--><g id="elem_PaymentGateway"><rect fill="#CCFFCC" height="36.4883" rx="12.5" ry="12.5" style="stroke:#000000;stroke-width:0.5;" width="76" x="641" y="919.9547"/><text fill="#000000" font-family="sans-serif" font-size="14" font-weight="bold" lengthAdjust="spacing" textLength="56" x="651" y="943.4898">&#25903;&#20184;&#32178;&#38364;</text></g><!--entity LogisticsSystem--><g id="elem_LogisticsSystem"><rect fill="#CCFFCC" height="36.4883" rx="12.5" ry="12.5" style="stroke:#000000;stroke-width:0.5;" width="76" x="641" y="1209.4147"/><text fill="#000000" font-family="sans-serif" font-size="14" font-weight="bold" lengthAdjust="spacing" textLength="56" x="651" y="1232.9498">&#29289;&#27969;&#31995;&#32113;</text></g><!--entity InventorySystem--><g id="elem_InventorySystem"><rect fill="#CCFFCC" height="36.4883" rx="12.5" ry="12.5" style="stroke:#000000;stroke-width:0.5;" width="76" x="348" y="630.4847"/><text fill="#000000" font-family="sans-serif" font-size="14" font-weight="bold" lengthAdjust="spacing" textLength="56" x="358" y="654.0198">&#24235;&#23384;&#31995;&#32113;</text></g><!--entity NotificationSystem--><g id="elem_NotificationSystem"><rect fill="#CCFFCC" height="36.4883" rx="12.5" ry="12.5" style="stroke:#000000;stroke-width:0.5;" width="76" x="913" y="437.5147"/><text fill="#000000" font-family="sans-serif" font-size="14" font-weight="bold" lengthAdjust="spacing" textLength="56" x="923" y="461.0498">&#36890;&#30693;&#31995;&#32113;</text></g><!--entity CreateOrderCommand--><g id="elem_CreateOrderCommand"><rect fill="#FFCC99" height="36.4883" rx="12.5" ry="12.5" style="stroke:#000000;stroke-width:0.5;" width="76" x="555" y="148.0447"/><text fill="#000000" font-family="sans-serif" font-size="14" font-weight="bold" lengthAdjust="spacing" textLength="56" x="565" y="171.5798">&#24314;&#31435;&#35330;&#21934;</text></g><!--entity AddOrderItemCommand--><g id="elem_AddOrderItemCommand"><rect fill="#FFCC99" height="36.4883" rx="12.5" ry="12.5" style="stroke:#000000;stroke-width:0.5;" width="104" x="666" y="148.0447"/><text fill="#000000" font-family="sans-serif" font-size="14" font-weight="bold" lengthAdjust="spacing" textLength="84" x="676" y="171.5798">&#28155;&#21152;&#35330;&#21934;&#38917;&#30446;</text></g><!--entity SubmitOrderCommand--><g id="elem_SubmitOrderCommand"><rect fill="#FFCC99" height="36.4883" rx="12.5" ry="12.5" style="stroke:#000000;stroke-width:0.5;" width="76" x="444" y="148.0447"/><text fill="#000000" font-family="sans-serif" font-size="14" font-weight="bold" lengthAdjust="spacing" textLength="56" x="454" y="171.5798">&#25552;&#20132;&#35330;&#21934;</text></g><!--entity ProcessPaymentCommand--><g id="elem_ProcessPaymentCommand"><rect fill="#FFCC99" height="36.4883" rx="12.5" ry="12.5" style="stroke:#000000;stroke-width:0.5;" width="76" x="577" y="726.9747"/><text fill="#000000" font-family="sans-serif" font-size="14" font-weight="bold" lengthAdjust="spacing" textLength="56" x="587" y="750.5098">&#34389;&#29702;&#25903;&#20184;</text></g><!--entity ArrangeDeliveryCommand--><g id="elem_ArrangeDeliveryCommand"><rect fill="#FFCC99" height="36.4883" rx="12.5" ry="12.5" style="stroke:#000000;stroke-width:0.5;" width="76" x="759" y="1016.4447"/><text fill="#000000" font-family="sans-serif" font-size="14" font-weight="bold" lengthAdjust="spacing" textLength="56" x="769" y="1039.9798">&#23433;&#25490;&#37197;&#36865;</text></g><!--entity CancelOrderCommand--><g id="elem_CancelOrderCommand"><rect fill="#FFCC99" height="36.4883" rx="12.5" ry="12.5" style="stroke:#000000;stroke-width:0.5;" width="76" x="176" y="1112.9347"/><text fill="#000000" font-family="sans-serif" font-size="14" font-weight="bold" lengthAdjust="spacing" textLength="56" x="186" y="1136.4698">&#21462;&#28040;&#35330;&#21934;</text></g><!--entity ConfirmOrderCommand--><g id="elem_ConfirmOrderCommand"><rect fill="#FFCC99" height="36.4883" rx="12.5" ry="12.5" style="stroke:#000000;stroke-width:0.5;" width="76" x="876" y="148.0447"/><text fill="#000000" font-family="sans-serif" font-size="14" font-weight="bold" lengthAdjust="spacing" textLength="56" x="886" y="171.5798">&#30906;&#35469;&#35330;&#21934;</text></g><!--entity RequestRefundCommand--><g id="elem_RequestRefundCommand"><rect fill="#FFCC99" height="36.4883" rx="12.5" ry="12.5" style="stroke:#000000;stroke-width:0.5;" width="76" x="894" y="244.5347"/><text fill="#000000" font-family="sans-serif" font-size="14" font-weight="bold" lengthAdjust="spacing" textLength="56" x="904" y="268.0698">&#30003;&#35531;&#36864;&#27454;</text></g><!--entity OrderCreatedEvent--><g id="elem_OrderCreatedEvent"><rect fill="#FFFF99" height="36.4883" rx="12.5" ry="12.5" style="stroke:#000000;stroke-width:0.5;" width="90" x="548" y="341.0247"/><text fill="#000000" font-family="sans-serif" font-size="14" font-weight="bold" lengthAdjust="spacing" textLength="70" x="558" y="364.5598">&#35330;&#21934;&#24050;&#24314;&#31435;</text></g><!--entity OrderItemAddedEvent--><g id="elem_OrderItemAddedEvent"><rect fill="#FFFF99" height="36.4883" rx="12.5" ry="12.5" style="stroke:#000000;stroke-width:0.5;" width="118" x="395" y="341.0247"/><text fill="#000000" font-family="sans-serif" font-size="14" font-weight="bold" lengthAdjust="spacing" textLength="98" x="405" y="364.5598">&#35330;&#21934;&#38917;&#30446;&#24050;&#28155;&#21152;</text></g><!--entity OrderSubmittedEvent--><g id="elem_OrderSubmittedEvent"><rect fill="#FFFF99" height="36.4883" rx="12.5" ry="12.5" style="stroke:#000000;stroke-width:0.5;" width="90" x="270" y="341.0247"/><text fill="#000000" font-family="sans-serif" font-size="14" font-weight="bold" lengthAdjust="spacing" textLength="70" x="280" y="364.5598">&#35330;&#21934;&#24050;&#25552;&#20132;</text></g><!--entity InventoryConfirmedEvent--><g id="elem_InventoryConfirmedEvent"><rect fill="#FFFF99" height="36.4883" rx="12.5" ry="12.5" style="stroke:#000000;stroke-width:0.5;" width="90" x="570" y="630.4847"/><text fill="#000000" font-family="sans-serif" font-size="14" font-weight="bold" lengthAdjust="spacing" textLength="70" x="580" y="654.0198">&#24235;&#23384;&#24050;&#30906;&#35469;</text></g><!--entity InventoryInsufficientEvent--><g id="elem_InventoryInsufficientEvent"><rect fill="#FFFF99" height="36.4883" rx="12.5" ry="12.5" style="stroke:#000000;stroke-width:0.5;" width="76" x="459" y="630.4847"/><text fill="#000000" font-family="sans-serif" font-size="14" font-weight="bold" lengthAdjust="spacing" textLength="56" x="469" y="654.0198">&#24235;&#23384;&#19981;&#36275;</text></g><!--entity PaymentProcessedEvent--><g id="elem_PaymentProcessedEvent"><rect fill="#FFFF99" height="36.4883" rx="12.5" ry="12.5" style="stroke:#000000;stroke-width:0.5;" width="90" x="391" y="919.9547"/><text fill="#000000" font-family="sans-serif" font-size="14" font-weight="bold" lengthAdjust="spacing" textLength="70" x="401" y="943.4898">&#25903;&#20184;&#24050;&#34389;&#29702;</text></g><!--entity PaymentCompletedEvent--><g id="elem_PaymentCompletedEvent"><rect fill="#FFFF99" height="36.4883" rx="12.5" ry="12.5" style="stroke:#000000;stroke-width:0.5;" width="90" x="752" y="919.9547"/><text fill="#000000" font-family="sans-serif" font-size="14" font-weight="bold" lengthAdjust="spacing" textLength="70" x="762" y="943.4898">&#25903;&#20184;&#24050;&#23436;&#25104;</text></g><!--entity PaymentFailedEvent--><g id="elem_PaymentFailedEvent"><rect fill="#FFFF99" height="36.4883" rx="12.5" ry="12.5" style="stroke:#000000;stroke-width:0.5;" width="90" x="516" y="919.9547"/><text fill="#000000" font-family="sans-serif" font-size="14" font-weight="bold" lengthAdjust="spacing" textLength="70" x="526" y="943.4898">&#25903;&#20184;&#24050;&#22833;&#25943;</text></g><!--entity DeliveryArrangedEvent--><g id="elem_DeliveryArrangedEvent"><rect fill="#FFFF99" height="36.4883" rx="12.5" ry="12.5" style="stroke:#000000;stroke-width:0.5;" width="90" x="752" y="1209.4147"/><text fill="#000000" font-family="sans-serif" font-size="14" font-weight="bold" lengthAdjust="spacing" textLength="70" x="762" y="1232.9498">&#37197;&#36865;&#24050;&#23433;&#25490;</text></g><!--entity DeliveryCompletedEvent--><g id="elem_DeliveryCompletedEvent"><rect fill="#FFFF99" height="36.4883" rx="12.5" ry="12.5" style="stroke:#000000;stroke-width:0.5;" width="90" x="877" y="1209.4147"/><text fill="#000000" font-family="sans-serif" font-size="14" font-weight="bold" lengthAdjust="spacing" textLength="70" x="887" y="1232.9498">&#37197;&#36865;&#24050;&#23436;&#25104;</text></g><!--entity OrderConfirmedEvent--><g id="elem_OrderConfirmedEvent"><rect fill="#FFFF99" height="36.4883" rx="12.5" ry="12.5" style="stroke:#000000;stroke-width:0.5;" width="90" x="892" y="341.0247"/><text fill="#000000" font-family="sans-serif" font-size="14" font-weight="bold" lengthAdjust="spacing" textLength="70" x="902" y="364.5598">&#35330;&#21934;&#24050;&#30906;&#35469;</text></g><!--entity OrderCancelledEvent--><g id="elem_OrderCancelledEvent"><rect fill="#FFFF99" height="36.4883" rx="12.5" ry="12.5" style="stroke:#000000;stroke-width:0.5;" width="90" x="752" y="341.0247"/><text fill="#000000" font-family="sans-serif" font-size="14" font-weight="bold" lengthAdjust="spacing" textLength="70" x="762" y="364.5598">&#35330;&#21934;&#24050;&#21462;&#28040;</text></g><!--entity RefundRequestedEvent--><g id="elem_RefundRequestedEvent"><rect fill="#FFFF99" height="36.4883" rx="12.5" ry="12.5" style="stroke:#000000;stroke-width:0.5;" width="90" x="7" y="51.5547"/><text fill="#000000" font-family="sans-serif" font-size="14" font-weight="bold" lengthAdjust="spacing" textLength="70" x="17" y="75.0898">&#36864;&#27454;&#24050;&#30003;&#35531;</text></g><!--entity RefundProcessedEvent--><g id="elem_RefundProcessedEvent"><rect fill="#FFFF99" height="36.4883" rx="12.5" ry="12.5" style="stroke:#000000;stroke-width:0.5;" width="90" x="132" y="51.5547"/><text fill="#000000" font-family="sans-serif" font-size="14" font-weight="bold" lengthAdjust="spacing" textLength="70" x="142" y="75.0898">&#36864;&#27454;&#24050;&#34389;&#29702;</text></g><!--entity NotificationSentEvent--><g id="elem_NotificationSentEvent"><rect fill="#FFFF99" height="36.4883" rx="12.5" ry="12.5" style="stroke:#000000;stroke-width:0.5;" width="90" x="899" y="534.0047"/><text fill="#000000" font-family="sans-serif" font-size="14" font-weight="bold" lengthAdjust="spacing" textLength="70" x="909" y="557.5398">&#36890;&#30693;&#24050;&#30332;&#36865;</text></g><!--entity OrderAggregate--><g id="elem_OrderAggregate"><rect fill="#99CCFF" height="36.4883" rx="12.5" ry="12.5" style="stroke:#000000;stroke-width:0.5;" width="48" x="569" y="244.5347"/><text fill="#000000" font-family="sans-serif" font-size="14" font-weight="bold" lengthAdjust="spacing" textLength="28" x="579" y="268.0698">&#35330;&#21934;</text></g><!--entity PaymentAggregate--><g id="elem_PaymentAggregate"><rect fill="#99CCFF" height="36.4883" rx="12.5" ry="12.5" style="stroke:#000000;stroke-width:0.5;" width="48" x="655" y="823.4647"/><text fill="#000000" font-family="sans-serif" font-size="14" font-weight="bold" lengthAdjust="spacing" textLength="28" x="665" y="846.9998">&#25903;&#20184;</text></g><!--entity DeliveryAggregate--><g id="elem_DeliveryAggregate"><rect fill="#99CCFF" height="36.4883" rx="12.5" ry="12.5" style="stroke:#000000;stroke-width:0.5;" width="48" x="773" y="1112.9347"/><text fill="#000000" font-family="sans-serif" font-size="14" font-weight="bold" lengthAdjust="spacing" textLength="28" x="783" y="1136.4698">&#37197;&#36865;</text></g><!--entity InventoryAggregate--><g id="elem_InventoryAggregate"><rect fill="#99CCFF" height="36.4883" rx="12.5" ry="12.5" style="stroke:#000000;stroke-width:0.5;" width="48" x="473" y="534.0047"/><text fill="#000000" font-family="sans-serif" font-size="14" font-weight="bold" lengthAdjust="spacing" textLength="28" x="483" y="557.5398">&#24235;&#23384;</text></g><!--entity OrderDiscountPolicy--><g id="elem_OrderDiscountPolicy"><rect fill="#CCCCFF" height="36.4883" rx="12.5" ry="12.5" style="stroke:#000000;stroke-width:0.5;" width="104" x="628" y="437.5147"/><text fill="#000000" font-family="sans-serif" font-size="14" font-weight="bold" lengthAdjust="spacing" textLength="84" x="638" y="461.0498">&#35330;&#21934;&#25240;&#25187;&#31574;&#30053;</text></g><!--entity InventoryCheckPolicy--><g id="elem_InventoryCheckPolicy"><rect fill="#CCCCFF" height="36.4883" rx="12.5" ry="12.5" style="stroke:#000000;stroke-width:0.5;" width="104" x="267" y="437.5147"/><text fill="#000000" font-family="sans-serif" font-size="14" font-weight="bold" lengthAdjust="spacing" textLength="84" x="277" y="461.0498">&#24235;&#23384;&#27298;&#26597;&#31574;&#30053;</text></g><!--entity PaymentFailurePolicy--><g id="elem_PaymentFailurePolicy"><rect fill="#CCCCFF" height="36.4883" rx="12.5" ry="12.5" style="stroke:#000000;stroke-width:0.5;" width="104" x="509" y="1016.4447"/><text fill="#000000" font-family="sans-serif" font-size="14" font-weight="bold" lengthAdjust="spacing" textLength="84" x="519" y="1039.9798">&#25903;&#20184;&#22833;&#25943;&#31574;&#30053;</text></g><!--entity DeliveryPolicy--><g id="elem_DeliveryPolicy"><rect fill="#CCCCFF" height="36.4883" rx="12.5" ry="12.5" style="stroke:#000000;stroke-width:0.5;" width="76" x="14" y="148.0447"/><text fill="#000000" font-family="sans-serif" font-size="14" font-weight="bold" lengthAdjust="spacing" textLength="56" x="24" y="171.5798">&#37197;&#36865;&#31574;&#30053;</text></g><!--entity OrderSummaryReadModel--><g id="elem_OrderSummaryReadModel"><rect fill="#FFCCFF" height="36.4883" rx="12.5" ry="12.5" style="stroke:#000000;stroke-width:0.5;" width="76" x="517" y="437.5147"/><text fill="#000000" font-family="sans-serif" font-size="14" font-weight="bold" lengthAdjust="spacing" textLength="56" x="527" y="461.0498">&#35330;&#21934;&#25688;&#35201;</text></g><!--entity OrderDetailReadModel--><g id="elem_OrderDetailReadModel"><rect fill="#FFCCFF" height="36.4883" rx="12.5" ry="12.5" style="stroke:#000000;stroke-width:0.5;" width="76" x="406" y="437.5147"/><text fill="#000000" font-family="sans-serif" font-size="14" font-weight="bold" lengthAdjust="spacing" textLength="56" x="416" y="461.0498">&#35330;&#21934;&#35443;&#24773;</text></g><!--entity PaymentStatusReadModel--><g id="elem_PaymentStatusReadModel"><rect fill="#FFCCFF" height="36.4883" rx="12.5" ry="12.5" style="stroke:#000000;stroke-width:0.5;" width="76" x="398" y="1016.4447"/><text fill="#000000" font-family="sans-serif" font-size="14" font-weight="bold" lengthAdjust="spacing" textLength="56" x="408" y="1039.9798">&#25903;&#20184;&#29376;&#24907;</text></g><!--entity DeliveryStatusReadModel--><g id="elem_DeliveryStatusReadModel"><rect fill="#FFCCFF" height="36.4883" rx="12.5" ry="12.5" style="stroke:#000000;stroke-width:0.5;" width="76" x="759" y="1305.9047"/><text fill="#000000" font-family="sans-serif" font-size="14" font-weight="bold" lengthAdjust="spacing" textLength="56" x="769" y="1329.4398">&#37197;&#36865;&#29376;&#24907;</text></g><!--entity PaymentTimeoutHotspot--><g id="elem_PaymentTimeoutHotspot"><rect fill="#FF6666" height="36.4883" rx="12.5" ry="12.5" style="stroke:#000000;stroke-width:0.5;" width="111" x="688.5" y="726.9747"/><text fill="#000000" font-family="sans-serif" font-size="14" font-weight="bold" lengthAdjust="spacing" textLength="91" x="698.5" y="750.5098">&#25903;&#20184;&#36229;&#26178;&#34389;&#29702;?</text></g><!--entity InventoryLockHotspot--><g id="elem_InventoryLockHotspot"><rect fill="#FF6666" height="36.4883" rx="12.5" ry="12.5" style="stroke:#000000;stroke-width:0.5;" width="111" x="766.5" y="437.5147"/><text fill="#000000" font-family="sans-serif" font-size="14" font-weight="bold" lengthAdjust="spacing" textLength="91" x="776.5" y="461.0498">&#24235;&#23384;&#37782;&#23450;&#31574;&#30053;?</text></g><!--entity ConcurrentOrderHotspot--><g id="elem_ConcurrentOrderHotspot"><rect fill="#FF6666" height="36.4883" rx="12.5" ry="12.5" style="stroke:#000000;stroke-width:0.5;" width="111" x="297.5" y="148.0447"/><text fill="#000000" font-family="sans-serif" font-size="14" font-weight="bold" lengthAdjust="spacing" textLength="91" x="307.5" y="171.5798">&#20006;&#30332;&#35330;&#21934;&#34389;&#29702;?</text></g><!--link Customer to CreateOrderCommand--><g id="link_Customer_CreateOrderCommand"><path d="M593,88.1347 C593,103.0947 593,124.8447 593,141.4447 " fill="none" id="Customer-to-CreateOrderCommand" style="stroke:#181818;stroke-width:1.0;"/><polygon fill="#181818" points="593,146.2347,597,137.2347,593,141.2347,589,137.2347,593,146.2347" style="stroke:#181818;stroke-width:1.0;"/></g><!--link Customer to AddOrderItemCommand--><g id="link_Customer_AddOrderItemCommand"><path d="M616.22,88.3547 C637,104.0647 667.54,127.1447 689.74,143.9247 " fill="none" id="Customer-to-AddOrderItemCommand" style="stroke:#181818;stroke-width:1.0;"/><polygon fill="#181818" points="693.7,146.9247,688.9345,138.3055,689.712,143.9087,684.1089,144.6863,693.7,146.9247" style="stroke:#181818;stroke-width:1.0;"/></g><!--link Customer to SubmitOrderCommand--><g id="link_Customer_SubmitOrderCommand"><path d="M572.38,88.3547 C554,103.9947 527.04,126.9547 507.35,143.7147 " fill="none" id="Customer-to-SubmitOrderCommand" style="stroke:#181818;stroke-width:1.0;"/><polygon fill="#181818" points="503.66,146.8547,513.1077,144.0726,507.4693,143.616,507.9259,137.9776,503.66,146.8547" style="stroke:#181818;stroke-width:1.0;"/></g><!--link Customer to CancelOrderCommand--><g id="link_Customer_CancelOrderCommand"><path d="M568.81,69.9947 C475.34,68.2247 143,75.0647 143,261.7747 C143,261.7747 143,261.7747 143,939.1947 C143,1003.3247 178.61,1072.4047 199.39,1107.2647 " fill="none" id="Customer-to-CancelOrderCommand" style="stroke:#181818;stroke-width:1.0;"/><polygon fill="#181818" points="201.81,1111.2647,200.5711,1101.4941,199.2207,1106.9874,193.7274,1105.6369,201.81,1111.2647" style="stroke:#181818;stroke-width:1.0;"/></g><!--link Customer to RequestRefundCommand--><g id="link_Customer_RequestRefundCommand"><path d="M617.3,77.9947 C655.07,89.7047 729.49,114.9647 787,148.0447 C833.4,174.7447 881.09,215.1247 908.56,239.9047 " fill="none" id="Customer-to-RequestRefundCommand" style="stroke:#181818;stroke-width:1.0;"/><polygon fill="#181818" points="912,243.0247,908.0226,234.0147,908.2971,239.6649,902.6469,239.9394,912,243.0247" style="stroke:#181818;stroke-width:1.0;"/></g><!--link Admin to ConfirmOrderCommand--><g id="link_Admin_ConfirmOrderCommand"><path d="M914,88.1347 C914,103.0947 914,124.8447 914,141.4447 " fill="none" id="Admin-to-ConfirmOrderCommand" style="stroke:#181818;stroke-width:1.0;"/><polygon fill="#181818" points="914,146.2347,918,137.2347,914,141.2347,910,137.2347,914,146.2347" style="stroke:#181818;stroke-width:1.0;"/></g><!--link CreateOrderCommand to OrderAggregate--><g id="link_CreateOrderCommand_OrderAggregate"><path d="M593,184.6247 C593,199.5747 593,221.3347 593,237.9247 " fill="none" id="CreateOrderCommand-to-OrderAggregate" style="stroke:#181818;stroke-width:1.0;"/><polygon fill="#181818" points="593,242.7247,597,233.7247,593,237.7247,589,233.7247,593,242.7247" style="stroke:#181818;stroke-width:1.0;"/></g><!--link AddOrderItemCommand to OrderAggregate--><g id="link_AddOrderItemCommand_OrderAggregate"><path d="M694.78,184.8447 C674,200.5547 643.46,223.6347 621.26,240.4147 " fill="none" id="AddOrderItemCommand-to-OrderAggregate" style="stroke:#181818;stroke-width:1.0;"/><polygon fill="#181818" points="617.3,243.4047,626.895,241.1828,621.2931,240.3956,622.0804,234.7938,617.3,243.4047" style="stroke:#181818;stroke-width:1.0;"/></g><!--link SubmitOrderCommand to OrderAggregate--><g id="link_SubmitOrderCommand_OrderAggregate"><path d="M502.62,184.8447 C521,200.4847 547.96,223.4447 567.65,240.2047 " fill="none" id="SubmitOrderCommand-to-OrderAggregate" style="stroke:#181818;stroke-width:1.0;"/><polygon fill="#181818" points="571.34,243.3447,567.0741,234.4676,567.5307,240.106,561.8923,240.5626,571.34,243.3447" style="stroke:#181818;stroke-width:1.0;"/></g><!--link CancelOrderCommand to OrderAggregate--><g id="link_CancelOrderCommand_OrderAggregate"><path d="M214,1112.5347 C214,1078.8447 214,1003.0247 214,939.1947 C214,454.7547 214,454.7547 214,454.7547 C214,401.4647 212.48,376.7847 252,341.0247 C297.97,299.4247 487.67,275.0347 562.47,266.8747 " fill="none" id="CancelOrderCommand-to-OrderAggregate" style="stroke:#181818;stroke-width:1.0;"/><polygon fill="#181818" points="567,266.3847,557.619,263.3853,562.0295,266.9274,558.4874,271.338,567,266.3847" style="stroke:#181818;stroke-width:1.0;"/></g><!--link ConfirmOrderCommand to OrderAggregate--><g id="link_ConfirmOrderCommand_OrderAggregate"><path d="M875.6,178.5947 C811.05,197.5947 682.12,235.5447 623.4,252.8347 " fill="none" id="ConfirmOrderCommand-to-OrderAggregate" style="stroke:#181818;stroke-width:1.0;"/><polygon fill="#181818" points="618.72,254.2047,628.4836,255.4979,623.5161,252.7915,626.2225,247.8241,618.72,254.2047" style="stroke:#181818;stroke-width:1.0;"/></g><!--link RequestRefundCommand to PaymentAggregate--><g id="link_RequestRefundCommand_PaymentAggregate"><path d="M950.66,281.3147 C982.04,312.8047 1042,382.4447 1042,454.7547 C1042,454.7547 1042,454.7547 1042,649.7347 C1042,799.4447 797.18,832.0547 709.65,838.9347 " fill="none" id="RequestRefundCommand-to-PaymentAggregate" style="stroke:#181818;stroke-width:1.0;"/><polygon fill="#181818" points="704.89,839.2947,714.1623,842.615,709.8762,838.9232,713.568,834.6371,704.89,839.2947" style="stroke:#181818;stroke-width:1.0;"/></g><!--link OrderAggregate to OrderCreatedEvent--><g id="link_OrderAggregate_OrderCreatedEvent"><path d="M593,281.1147 C593,296.0647 593,317.8147 593,334.4147 " fill="none" id="OrderAggregate-to-OrderCreatedEvent" style="stroke:#181818;stroke-width:1.0;"/><polygon fill="#181818" points="593,339.2147,597,330.2147,593,334.2147,589,330.2147,593,339.2147" style="stroke:#181818;stroke-width:1.0;"/></g><!--link OrderAggregate to OrderItemAddedEvent--><g id="link_OrderAggregate_OrderItemAddedEvent"><path d="M568.79,280.2347 C545.55,296.0347 510.35,319.9647 485.06,337.1547 " fill="none" id="OrderAggregate-to-OrderItemAddedEvent" style="stroke:#181818;stroke-width:1.0;"/><polygon fill="#181818" points="481.07,339.8647,490.7624,338.1162,485.206,337.0551,486.267,331.4986,481.07,339.8647" style="stroke:#181818;stroke-width:1.0;"/></g><!--link OrderAggregate to OrderSubmittedEvent--><g id="link_OrderAggregate_OrderSubmittedEvent"><path d="M568.82,271.9947 C523.92,287.2547 426.81,320.2647 366.57,340.7347 " fill="none" id="OrderAggregate-to-OrderSubmittedEvent" style="stroke:#181818;stroke-width:1.0;"/><polygon fill="#181818" points="361.93,342.3147,371.7397,343.1924,366.6619,340.6993,369.155,335.6215,361.93,342.3147" style="stroke:#181818;stroke-width:1.0;"/></g><!--link OrderAggregate to OrderConfirmedEvent--><g id="link_OrderAggregate_OrderConfirmedEvent"><path d="M617.46,270.4947 C673.15,285.7947 810.36,323.4847 885.6,344.1447 " fill="none" id="OrderAggregate-to-OrderConfirmedEvent" style="stroke:#181818;stroke-width:1.0;"/><polygon fill="#181818" points="890.33,345.4447,882.7136,339.2004,885.5092,344.1182,880.5913,346.9138,890.33,345.4447" style="stroke:#181818;stroke-width:1.0;"/></g><!--link OrderAggregate to OrderCancelledEvent--><g id="link_OrderAggregate_OrderCancelledEvent"><path d="M617.2,274.9847 C650.67,290.4947 711.64,318.7347 753.22,337.9847 " fill="none" id="OrderAggregate-to-OrderCancelledEvent" style="stroke:#181818;stroke-width:1.0;"/><polygon fill="#181818" points="757.58,340.0047,751.1082,332.5807,753.0469,337.8949,747.7326,339.8336,757.58,340.0047" style="stroke:#181818;stroke-width:1.0;"/></g><!--link OrderSubmittedEvent to InventoryCheckPolicy--><g id="link_OrderSubmittedEvent_InventoryCheckPolicy"><path d="M315.73,377.5947 C316.37,392.5547 317.29,414.3047 317.99,430.9047 " fill="none" id="OrderSubmittedEvent-to-InventoryCheckPolicy" style="stroke:#181818;stroke-width:1.0;"/><polygon fill="#181818" points="318.19,435.7047,321.801,426.5417,317.9759,430.7093,313.8083,426.8842,318.19,435.7047" style="stroke:#181818;stroke-width:1.0;"/></g><!--link InventoryCheckPolicy to InventoryAggregate--><g id="link_InventoryCheckPolicy_InventoryAggregate"><path d="M352.06,474.3047 C385,491.7947 435.13,518.4047 466.96,535.2947 " fill="none" id="InventoryCheckPolicy-to-InventoryAggregate" style="stroke:#181818;stroke-width:1.0;"/><polygon fill="#181818" points="471.35,537.6247,465.2755,529.8722,466.9335,535.2807,461.5251,536.9386,471.35,537.6247" style="stroke:#181818;stroke-width:1.0;"/></g><!--link InventoryAggregate to InventoryConfirmedEvent--><g id="link_InventoryAggregate_InventoryConfirmedEvent"><path d="M518.92,570.7947 C538.54,586.5047 567.36,609.5847 588.32,626.3647 " fill="none" id="InventoryAggregate-to-InventoryConfirmedEvent" style="stroke:#181818;stroke-width:1.0;"/><polygon fill="#181818" points="592.02,629.3247,587.4871,620.581,588.1143,626.203,582.4923,626.8301,592.02,629.3247" style="stroke:#181818;stroke-width:1.0;"/></g><!--link InventoryAggregate to InventoryInsufficientEvent--><g id="link_InventoryAggregate_InventoryInsufficientEvent"><path d="M497,570.5747 C497,585.5347 497,607.2847 497,623.8847 " fill="none" id="InventoryAggregate-to-InventoryInsufficientEvent" style="stroke:#181818;stroke-width:1.0;"/><polygon fill="#181818" points="497,628.6747,501,619.6747,497,623.6747,493,619.6747,497,628.6747" style="stroke:#181818;stroke-width:1.0;"/></g><!--link InventoryConfirmedEvent to ProcessPaymentCommand--><g id="link_InventoryConfirmedEvent_ProcessPaymentCommand"><path d="M615,667.0647 C615,682.0247 615,703.7747 615,720.3747 " fill="none" id="InventoryConfirmedEvent-to-ProcessPaymentCommand" style="stroke:#181818;stroke-width:1.0;"/><polygon fill="#181818" points="615,725.1647,619,716.1647,615,720.1647,611,716.1647,615,725.1647" style="stroke:#181818;stroke-width:1.0;"/></g><!--link ProcessPaymentCommand to PaymentAggregate--><g id="link_ProcessPaymentCommand_PaymentAggregate"><path d="M626.74,763.5547 C637.14,778.9047 652.39,801.4147 663.73,818.1647 " fill="none" id="ProcessPaymentCommand-to-PaymentAggregate" style="stroke:#181818;stroke-width:1.0;"/><polygon fill="#181818" points="666.27,821.9147,664.5444,812.2182,663.4702,817.7721,657.9163,816.6979,666.27,821.9147" style="stroke:#181818;stroke-width:1.0;"/></g><!--link PaymentAggregate to PaymentProcessedEvent--><g id="link_PaymentAggregate_PaymentProcessedEvent"><path d="M654.81,852.1147 C615.97,867.2147 538.85,897.2047 487.33,917.2347 " fill="none" id="PaymentAggregate-to-PaymentProcessedEvent" style="stroke:#181818;stroke-width:1.0;"/><polygon fill="#181818" points="482.9,918.9547,492.7381,919.4149,487.5589,917.1397,489.8341,911.9605,482.9,918.9547" style="stroke:#181818;stroke-width:1.0;"/></g><!--link PaymentAggregate to PaymentCompletedEvent--><g id="link_PaymentAggregate_PaymentCompletedEvent"><path d="M700.92,860.2647 C720.54,875.9747 749.36,899.0547 770.32,915.8347 " fill="none" id="PaymentAggregate-to-PaymentCompletedEvent" style="stroke:#181818;stroke-width:1.0;"/><polygon fill="#181818" points="774.02,918.7947,769.5027,910.0429,770.1198,915.666,764.4968,916.2832,774.02,918.7947" style="stroke:#181818;stroke-width:1.0;"/></g><!--link PaymentAggregate to PaymentFailedEvent--><g id="link_PaymentAggregate_PaymentFailedEvent"><path d="M657.08,860.2647 C637.46,875.9747 608.64,899.0547 587.68,915.8347 " fill="none" id="PaymentAggregate-to-PaymentFailedEvent" style="stroke:#181818;stroke-width:1.0;"/><polygon fill="#181818" points="583.98,918.7947,593.5032,916.2832,587.8802,915.666,588.4973,910.0429,583.98,918.7947" style="stroke:#181818;stroke-width:1.0;"/></g><!--link PaymentCompletedEvent to ArrangeDeliveryCommand--><g id="link_PaymentCompletedEvent_ArrangeDeliveryCommand"><path d="M797,956.5247 C797,971.4847 797,993.2347 797,1009.8347 " fill="none" id="PaymentCompletedEvent-to-ArrangeDeliveryCommand" style="stroke:#181818;stroke-width:1.0;"/><polygon fill="#181818" points="797,1014.6347,801,1005.6347,797,1009.6347,793,1005.6347,797,1014.6347" style="stroke:#181818;stroke-width:1.0;"/></g><!--link ArrangeDeliveryCommand to DeliveryAggregate--><g id="link_ArrangeDeliveryCommand_DeliveryAggregate"><path d="M797,1053.0147 C797,1067.9747 797,1089.7247 797,1106.3247 " fill="none" id="ArrangeDeliveryCommand-to-DeliveryAggregate" style="stroke:#181818;stroke-width:1.0;"/><polygon fill="#181818" points="797,1111.1147,801,1102.1147,797,1106.1147,793,1102.1147,797,1111.1147" style="stroke:#181818;stroke-width:1.0;"/></g><!--link DeliveryAggregate to DeliveryArrangedEvent--><g id="link_DeliveryAggregate_DeliveryArrangedEvent"><path d="M797,1149.5047 C797,1164.4647 797,1186.2147 797,1202.8147 " fill="none" id="DeliveryAggregate-to-DeliveryArrangedEvent" style="stroke:#181818;stroke-width:1.0;"/><polygon fill="#181818" points="797,1207.6047,801,1198.6047,797,1202.6047,793,1198.6047,797,1207.6047" style="stroke:#181818;stroke-width:1.0;"/></g><!--link DeliveryAggregate to DeliveryCompletedEvent--><g id="link_DeliveryAggregate_DeliveryCompletedEvent"><path d="M820.22,1149.7247 C841,1165.4347 871.54,1188.5147 893.74,1205.2947 " fill="none" id="DeliveryAggregate-to-DeliveryCompletedEvent" style="stroke:#181818;stroke-width:1.0;"/><polygon fill="#181818" points="897.7,1208.2947,892.9345,1199.6755,893.712,1205.2787,888.1089,1206.0563,897.7,1208.2947" style="stroke:#181818;stroke-width:1.0;"/></g><!--link PaymentFailedEvent to PaymentFailurePolicy--><g id="link_PaymentFailedEvent_PaymentFailurePolicy"><path d="M561,956.5247 C561,971.4847 561,993.2347 561,1009.8347 " fill="none" id="PaymentFailedEvent-to-PaymentFailurePolicy" style="stroke:#181818;stroke-width:1.0;"/><polygon fill="#181818" points="561,1014.6347,565,1005.6347,561,1009.6347,557,1005.6347,561,1014.6347" style="stroke:#181818;stroke-width:1.0;"/></g><!--link PaymentFailurePolicy to CancelOrderCommand--><g id="link_PaymentFailurePolicy_CancelOrderCommand"><path d="M508.67,1049.9347 C440.44,1068.5147 322.28,1100.6947 258.27,1118.1147 " fill="none" id="PaymentFailurePolicy-to-CancelOrderCommand" style="stroke:#181818;stroke-width:1.0;"/><polygon fill="#181818" points="253.71,1119.3647,263.4446,1120.8606,258.5345,1118.0515,261.3435,1113.1414,253.71,1119.3647" style="stroke:#181818;stroke-width:1.0;"/></g><!--link OrderCreatedEvent to OrderDiscountPolicy--><g id="link_OrderCreatedEvent_OrderDiscountPolicy"><path d="M608.96,377.5947 C623.22,393.0847 644.18,415.8547 659.64,432.6447 " fill="none" id="OrderCreatedEvent-to-OrderDiscountPolicy" style="stroke:#181818;stroke-width:1.0;"/><polygon fill="#181818" points="662.82,436.1047,659.6592,426.7768,659.4304,432.429,653.7782,432.2002,662.82,436.1047" style="stroke:#181818;stroke-width:1.0;"/></g><!--link OrderDiscountPolicy to OrderAggregate--><g id="link_OrderDiscountPolicy_OrderAggregate"><path d="M678.89,437.3747 C676.86,414.3347 671.24,372.8847 656,341.0247 C646.14,320.4047 629.69,300.5047 616.07,286.0647 " fill="none" id="OrderDiscountPolicy-to-OrderAggregate" style="stroke:#181818;stroke-width:1.0;"/><polygon fill="#181818" points="612.62,282.4747,615.9878,291.7298,616.0907,286.0739,621.7466,286.1767,612.62,282.4747" style="stroke:#181818;stroke-width:1.0;"/></g><!--link OrderCreatedEvent to OrderSummaryReadModel--><g id="link_OrderCreatedEvent_OrderSummaryReadModel"><path d="M586.03,377.5947 C579.96,392.6847 571.11,414.6947 564.42,431.3447 " fill="none" id="OrderCreatedEvent-to-OrderSummaryReadModel" style="stroke:#181818;stroke-width:1.0;"/><polygon fill="#181818" points="562.62,435.8147,569.6946,428.9627,564.4892,431.1772,562.2747,425.9719,562.62,435.8147" style="stroke:#181818;stroke-width:1.0;"/></g><!--link OrderItemAddedEvent to OrderDetailReadModel--><g id="link_OrderItemAddedEvent_OrderDetailReadModel"><path d="M452.17,377.5947 C450.58,392.5547 448.28,414.3047 446.52,430.9047 " fill="none" id="OrderItemAddedEvent-to-OrderDetailReadModel" style="stroke:#181818;stroke-width:1.0;"/><polygon fill="#181818" points="446.02,435.7147,450.9491,427.188,446.5486,430.7427,442.994,426.3422,446.02,435.7147" style="stroke:#181818;stroke-width:1.0;"/></g><!--link PaymentProcessedEvent to PaymentStatusReadModel--><g id="link_PaymentProcessedEvent_PaymentStatusReadModel"><path d="M436,956.5247 C436,971.4847 436,993.2347 436,1009.8347 " fill="none" id="PaymentProcessedEvent-to-PaymentStatusReadModel" style="stroke:#181818;stroke-width:1.0;"/><polygon fill="#181818" points="436,1014.6347,440,1005.6347,436,1009.6347,432,1005.6347,436,1014.6347" style="stroke:#181818;stroke-width:1.0;"/></g><!--link DeliveryArrangedEvent to DeliveryStatusReadModel--><g id="link_DeliveryArrangedEvent_DeliveryStatusReadModel"><path d="M797,1245.9947 C797,1260.9447 797,1282.7047 797,1299.3047 " fill="none" id="DeliveryArrangedEvent-to-DeliveryStatusReadModel" style="stroke:#181818;stroke-width:1.0;"/><polygon fill="#181818" points="797,1304.0947,801,1295.0947,797,1299.0947,793,1295.0947,797,1304.0947" style="stroke:#181818;stroke-width:1.0;"/></g><!--link PaymentAggregate to PaymentGateway--><g id="link_PaymentAggregate_PaymentGateway"><path d="M679,860.0347 C679,874.9947 679,896.7447 679,913.3447 " fill="none" id="PaymentAggregate-to-PaymentGateway" style="stroke:#181818;stroke-width:1.0;"/><polygon fill="#181818" points="679,918.1447,683,909.1447,679,913.1447,675,909.1447,679,918.1447" style="stroke:#181818;stroke-width:1.0;"/></g><!--link DeliveryAggregate to LogisticsSystem--><g id="link_DeliveryAggregate_LogisticsSystem"><path d="M775.08,1149.7247 C755.46,1165.4347 726.64,1188.5147 705.68,1205.2947 " fill="none" id="DeliveryAggregate-to-LogisticsSystem" style="stroke:#181818;stroke-width:1.0;"/><polygon fill="#181818" points="701.98,1208.2547,711.5077,1205.7601,705.8857,1205.133,706.5129,1199.511,701.98,1208.2547" style="stroke:#181818;stroke-width:1.0;"/></g><!--link InventoryAggregate to InventorySystem--><g id="link_InventoryAggregate_InventorySystem"><path d="M476.38,570.7947 C458,586.4447 431.04,609.3947 411.35,626.1547 " fill="none" id="InventoryAggregate-to-InventorySystem" style="stroke:#181818;stroke-width:1.0;"/><polygon fill="#181818" points="407.66,629.2947,417.1026,626.4951,411.4633,626.049,411.9094,620.4097,407.66,629.2947" style="stroke:#181818;stroke-width:1.0;"/></g><!--link OrderConfirmedEvent to NotificationSystem--><g id="link_OrderConfirmedEvent_NotificationSystem"><path d="M939.57,377.5947 C941.78,392.5547 945.01,414.3047 947.47,430.9047 " fill="none" id="OrderConfirmedEvent-to-NotificationSystem" style="stroke:#181818;stroke-width:1.0;"/><polygon fill="#181818" points="948.18,435.7147,950.8248,426.2276,947.4509,430.7681,942.9103,427.3942,948.18,435.7147" style="stroke:#181818;stroke-width:1.0;"/></g><!--link OrderCancelledEvent to NotificationSystem--><g id="link_OrderCancelledEvent_NotificationSystem"><path d="M825.61,377.8147 C851.46,393.6747 889.54,417.0447 916.95,433.8647 " fill="none" id="OrderCancelledEvent-to-NotificationSystem" style="stroke:#181818;stroke-width:1.0;"/><polygon fill="#181818" points="921,436.3447,915.4239,428.2264,916.7393,433.7282,911.2375,435.0436,921,436.3447" style="stroke:#181818;stroke-width:1.0;"/></g><!--link NotificationSystem to NotificationSentEvent--><g id="link_NotificationSystem_NotificationSentEvent"><path d="M949.72,474.0847 C948.61,489.0447 947,510.7947 945.77,527.3947 " fill="none" id="NotificationSystem-to-NotificationSentEvent" style="stroke:#181818;stroke-width:1.0;"/><polygon fill="#181818" points="945.41,532.1947,950.0676,523.5167,945.7815,527.2085,942.0897,522.9224,945.41,532.1947" style="stroke:#181818;stroke-width:1.0;"/></g><!--link PaymentTimeoutHotspot to PaymentAggregate--><g id="link_PaymentTimeoutHotspot_PaymentAggregate"><path d="M732.08,763.5547 C721.52,778.9047 706.03,801.4147 694.51,818.1647 " fill="none" id="PaymentTimeoutHotspot-to-PaymentAggregate" style="stroke:#181818;stroke-width:1.0;"/><polygon fill="#181818" points="691.92,821.9247,700.3149,816.7744,694.7526,817.8045,693.7226,812.2422,691.92,821.9247" style="stroke:#181818;stroke-width:1.0;"/></g><!--link InventoryLockHotspot to InventoryAggregate--><g id="link_InventoryLockHotspot_InventoryAggregate"><path d="M766.13,472.9947 C696.93,493.1147 581.53,526.6647 527.13,542.4847 " fill="none" id="InventoryLockHotspot-to-InventoryAggregate" style="stroke:#181818;stroke-width:1.0;"/><polygon fill="#181818" points="522.57,543.8147,532.33,545.1347,527.37,542.4147,530.09,537.4547,522.57,543.8147" style="stroke:#181818;stroke-width:1.0;"/></g><!--link ConcurrentOrderHotspot to OrderAggregate--><g id="link_ConcurrentOrderHotspot_OrderAggregate"><path d="M397.86,184.9547 C445.97,203.8947 521.03,233.4447 562.64,249.8247 " fill="none" id="ConcurrentOrderHotspot-to-OrderAggregate" style="stroke:#181818;stroke-width:1.0;"/><polygon fill="#181818" points="567.12,251.5947,560.2119,244.5749,562.4678,249.7624,557.2803,252.0184,567.12,251.5947" style="stroke:#181818;stroke-width:1.0;"/></g><!--SRC=[ZLZRRjj647tVho3YXpu5BGAqW5yQf4hK6aZRmEuFqDHQ8KnnNNALGYqAo3QKo55yIHihjXkajcC7TjoeSDmegTMcFoFU_gBBNPhS9PUazIPnpipkp9oPGzdpkhcWMcf3iQ26LRDkGEKde93FD6gQjGgoJ6WfrpwbFts1h1gqAiX0bZ9hgDey_RMAJ3o3MmGuYumQ-1a0EtQATHmxf7RwZr2vzaaEZbdxHqjEV-2TZRotf-FptdWq3FQFt9s_d6Tz03vIdC6Ez-7OML_skm_yTWSavxxY3FRTxl2AejfAfMbZr217dwXKgkJ3cp7Ntc3FsxZl_Bf7xM_K6heP6oTX3lh1yX43y2xS9t-EHrlUy4tmz1d5tr5R3MZYBrKCVr1Rp56b8aHTENRVBZ9N578RrNKRwvezqx8nRCWmplc9ytgBmqoPzqWKPBNoCK5xn_lzaCDyWx0-fsigrf6PWYNtVFplU7GWX1wTUoSzLWkMKGkIottBEg3HKCsQCX4wcPmK4lDkv3pSPR1Wj-FzDeZIMwF8AHAz2Bs-CJu_u8BED6SREYuBwczlabAoch1gM4Y3jXqLfG3f35RSjL-2pchGNcG7jIpo2Dw4XduFMgqYw7hV7NRv1Acc1esoithxv_whLHw6p3dTQfJYdfpv9xsWtNR_-41nq_3x9hJnD9oZF1M1SM4PWOHaqT3EkpUimjGN2quBNBiLTbZeg5fDPPahAe6pIYVmiBIapAKEGYWjSm9bLIwApOX0e2nz8XUY39R2n-zN_U6PY9qoxUOSOOTElkR2MMUHwApHUC97dLOGEmOxWqTkTuC7awej611V2dnmwcu-vS5LLJSAaAodQTYmnIdoegkZ9hyKE3upHucIGyTrveeLjNTPePBcfEpYe9HSXHUcr0YZKgP470d94J7bCbYkm0nRNbysRyEus_zSJ15Xv6OwAoQdlxZZR7JTtR-pAKXkVgDUjs2TC5EPc9mCvtQsF_YsA3Jd1btS2qNsZ3SYOxA0-3xUwxwtUPYzZFjmorrvmPuc5xkfsnhH6FWECdIDhanvUFVLlaiMMe9EY7yNQlFvy8Wyb3aSdEDFquBvS9Oi3dYHiXGaAUUWxHxjESzxaWmytl9VBl8JZynhgpKDrThNg0ODDhZ5-0pf7v-vonqkQn2JWnS28t7IQxkT7d_Z6QpYfbq8ZUwSG2_kd8TDQd__D1Wz_zZPN0_s7cLFumyxxlOIezTr_b3VwGs8clWhXEq5H3do6Vbako1OwuU1Q3MkYsrm6sdp1VZn-vU4cb4skGEGQQGrBOlue8bDUo0t8-9k_DzIq7xXhXs2M55UlVgvH0o9poLwHpJ82fjKW8oO49_BjZy0JCLIV5PL022HSA6jE6Q0JAj9p2JIJ68b4KKoAua6afX99Kzebvvz0AH6P-oC5pcvHgAKoJKJPKj-I67hvPi96owwGKePXSQowGUa8r6mJd8ZcUIYN_6yPUOP1GL0dZAZfP99So0NxDBIPlOSPoLkwq9JKSOKcd9A2m2vTAESbxuwW9mtYX2HsS4WkvK5ErwtbTYcxWSagZ5rnNWP0kc6p9bA8Flk4BUqkE61REjBM5xaCRqtWUpL8ualxaeWr-nS6b9R3iW5Cv_cDAAmaQ9_1t8gb_e_e9HuaPbCMOTssTT-85FIEQQIFmqobWdXvRjSIb_friwPL3aRMj8p_mC0]--></g></svg>