<?xml version="1.0" encoding="us-ascii" standalone="no"?><svg xmlns="http://www.w3.org/2000/svg" xmlns:xlink="http://www.w3.org/1999/xlink" contentStyleType="text/css" height="821px" preserveAspectRatio="none" style="width:1909px;height:821px;background:#FFFFFF;" version="1.1" viewBox="0 0 1909 821" width="1909px" zoomAndPan="magnify"><defs/><g><text fill="#000000" font-family="sans-serif" font-size="14" font-weight="bold" lengthAdjust="spacing" textLength="266" x="814.75" y="23.5352">Order System Event Sourcing Pattern</text><!--cluster application--><g id="cluster_application"><rect fill="none" height="210.44" rx="2.5" ry="2.5" style="stroke:#444444;stroke-width:1.0;stroke-dasharray:7.0,7.0;" width="743" x="159" y="76.7305"/><text fill="#444444" font-family="sans-serif" font-size="14" font-style="italic" lengthAdjust="spacing" textLength="80" x="490.5" y="92.2656">&#171;boundary&#187;</text><text fill="#444444" font-family="sans-serif" font-size="16" font-weight="bold" lengthAdjust="spacing" textLength="94" x="483.5" y="110.6875">Application</text></g><!--cluster event_store--><g id="cluster_event_store"><rect fill="none" height="219.44" rx="2.5" ry="2.5" style="stroke:#444444;stroke-width:1.0;stroke-dasharray:7.0,7.0;" width="753" x="176" y="336.1705"/><text fill="#444444" font-family="sans-serif" font-size="14" font-style="italic" lengthAdjust="spacing" textLength="80" x="512.5" y="351.7056">&#171;boundary&#187;</text><text fill="#444444" font-family="sans-serif" font-size="16" font-weight="bold" lengthAdjust="spacing" textLength="91" x="507" y="370.1275">Event Store</text></g><!--cluster projections--><g id="cluster_projections"><rect fill="none" height="210.44" rx="2.5" ry="2.5" style="stroke:#444444;stroke-width:1.0;stroke-dasharray:7.0,7.0;" width="1090" x="445" y="604.6105"/><text fill="#444444" font-family="sans-serif" font-size="14" font-style="italic" lengthAdjust="spacing" textLength="80" x="950" y="620.1456">&#171;boundary&#187;</text><text fill="#444444" font-family="sans-serif" font-size="16" font-weight="bold" lengthAdjust="spacing" textLength="91" x="944.5" y="638.5675">Projections</text></g><!--cluster query_side--><g id="cluster_query_side"><rect fill="none" height="219.44" rx="2.5" ry="2.5" style="stroke:#444444;stroke-width:1.0;stroke-dasharray:7.0,7.0;" width="456" x="970" y="336.1705"/><text fill="#444444" font-family="sans-serif" font-size="14" font-style="italic" lengthAdjust="spacing" textLength="80" x="1158" y="351.7056">&#171;boundary&#187;</text><text fill="#444444" font-family="sans-serif" font-size="16" font-weight="bold" lengthAdjust="spacing" textLength="88" x="1154" y="370.1275">Query Side</text></g><!--entity command_handler--><g id="elem_command_handler"><rect fill="#85BBF0" height="102.4414" rx="2.5" ry="2.5" style="stroke:#181818;stroke-width:0.5;" width="173" x="402.5" y="168.7305"/><text fill="#000000" font-family="sans-serif" font-size="14" font-style="italic" lengthAdjust="spacing" textLength="92" x="443" y="192.2656">&#171;component&#187;</text><text fill="#000000" font-family="sans-serif" font-size="16" font-weight="bold" lengthAdjust="spacing" textLength="153" x="412.5" y="210.6875">Command Handler</text><text fill="#000000" font-family="sans-serif" font-size="12" lengthAdjust="spacing" textLength="48" x="412.5" y="225.6641">[Service]</text><text fill="#000000" font-family="sans-serif" font-size="14" lengthAdjust="spacing" textLength="4" x="412.5" y="241.7305">&#160;</text><text fill="#000000" font-family="sans-serif" font-size="14" lengthAdjust="spacing" textLength="146" x="412.5" y="258.2188">Processes commands</text></g><!--entity aggregate--><g id="elem_aggregate"><rect fill="#85BBF0" height="102.4414" rx="2.5" ry="2.5" style="stroke:#181818;stroke-width:0.5;" width="157" x="728.5" y="168.7305"/><text fill="#000000" font-family="sans-serif" font-size="14" font-style="italic" lengthAdjust="spacing" textLength="92" x="761" y="192.2656">&#171;component&#187;</text><text fill="#000000" font-family="sans-serif" font-size="16" font-weight="bold" lengthAdjust="spacing" textLength="137" x="738.5" y="210.6875">Order Aggregate</text><text fill="#000000" font-family="sans-serif" font-size="12" lengthAdjust="spacing" textLength="91" x="738.5" y="225.6641">[Domain Model]</text><text fill="#000000" font-family="sans-serif" font-size="14" lengthAdjust="spacing" textLength="4" x="738.5" y="241.7305">&#160;</text><text fill="#000000" font-family="sans-serif" font-size="14" lengthAdjust="spacing" textLength="96" x="738.5" y="258.2188">Business logic</text></g><!--entity event_store_client--><g id="elem_event_store_client"><rect fill="#85BBF0" height="102.4414" rx="2.5" ry="2.5" style="stroke:#181818;stroke-width:0.5;" width="192" x="175" y="168.7305"/><text fill="#000000" font-family="sans-serif" font-size="14" font-style="italic" lengthAdjust="spacing" textLength="92" x="225" y="192.2656">&#171;component&#187;</text><text fill="#000000" font-family="sans-serif" font-size="16" font-weight="bold" lengthAdjust="spacing" textLength="143" x="185" y="210.6875">Event Store Client</text><text fill="#000000" font-family="sans-serif" font-size="12" lengthAdjust="spacing" textLength="40" x="185" y="225.6641">[Client]</text><text fill="#000000" font-family="sans-serif" font-size="14" lengthAdjust="spacing" textLength="4" x="185" y="241.7305">&#160;</text><text fill="#000000" font-family="sans-serif" font-size="14" lengthAdjust="spacing" textLength="172" x="185" y="258.2188">Interacts with event store</text></g><!--entity event_log--><g id="elem_event_log"><path d="M192.5,438.1705 C192.5,428.1705 261,428.1705 261,428.1705 C261,428.1705 329.5,428.1705 329.5,438.1705 L329.5,529.6119 C329.5,539.6119 261,539.6119 261,539.6119 C261,539.6119 192.5,539.6119 192.5,529.6119 L192.5,438.1705 " fill="#85BBF0" style="stroke:#181818;stroke-width:0.5;"/><path d="M192.5,438.1705 C192.5,448.1705 261,448.1705 261,448.1705 C261,448.1705 329.5,448.1705 329.5,438.1705 " fill="none" style="stroke:#181818;stroke-width:0.5;"/><text fill="#000000" font-family="sans-serif" font-size="14" font-style="italic" lengthAdjust="spacing" textLength="76" x="223" y="465.7056">&#171;database&#187;</text><text fill="#000000" font-family="sans-serif" font-size="16" font-weight="bold" lengthAdjust="spacing" textLength="80" x="202.5" y="484.1275">Event Log</text><text fill="#000000" font-family="sans-serif" font-size="12" lengthAdjust="spacing" textLength="117" x="202.5" y="499.1041">[Append-only store]</text><text fill="#000000" font-family="sans-serif" font-size="14" lengthAdjust="spacing" textLength="4" x="202.5" y="515.1705">&#160;</text><text fill="#000000" font-family="sans-serif" font-size="14" lengthAdjust="spacing" textLength="111" x="202.5" y="531.6588">Stores all events</text></g><!--entity event_publisher--><g id="elem_event_publisher"><rect fill="#85BBF0" height="102.4414" rx="2.5" ry="2.5" style="stroke:#181818;stroke-width:0.5;" width="234" x="432" y="432.6705"/><text fill="#000000" font-family="sans-serif" font-size="14" font-style="italic" lengthAdjust="spacing" textLength="92" x="503" y="456.2056">&#171;component&#187;</text><text fill="#000000" font-family="sans-serif" font-size="16" font-weight="bold" lengthAdjust="spacing" textLength="128" x="442" y="474.6275">Event Publisher</text><text fill="#000000" font-family="sans-serif" font-size="12" lengthAdjust="spacing" textLength="48" x="442" y="489.6041">[Service]</text><text fill="#000000" font-family="sans-serif" font-size="14" lengthAdjust="spacing" textLength="4" x="442" y="505.6705">&#160;</text><text fill="#000000" font-family="sans-serif" font-size="14" lengthAdjust="spacing" textLength="214" x="442" y="522.1588">Publishes events to subscribers</text></g><!--entity snapshot_store--><g id="elem_snapshot_store"><rect fill="#85BBF0" height="102.4414" rx="2.5" ry="2.5" style="stroke:#181818;stroke-width:0.5;" width="211" x="701.5" y="432.6705"/><text fill="#000000" font-family="sans-serif" font-size="14" font-style="italic" lengthAdjust="spacing" textLength="92" x="761" y="456.2056">&#171;component&#187;</text><text fill="#000000" font-family="sans-serif" font-size="16" font-weight="bold" lengthAdjust="spacing" textLength="122" x="711.5" y="474.6275">Snapshot Store</text><text fill="#000000" font-family="sans-serif" font-size="12" lengthAdjust="spacing" textLength="63" x="711.5" y="489.6041">[Database]</text><text fill="#000000" font-family="sans-serif" font-size="14" lengthAdjust="spacing" textLength="4" x="711.5" y="505.6705">&#160;</text><text fill="#000000" font-family="sans-serif" font-size="14" lengthAdjust="spacing" textLength="191" x="711.5" y="522.1588">Stores aggregate snapshots</text></g><!--entity projection_engine--><g id="elem_projection_engine"><rect fill="#85BBF0" height="102.4414" rx="2.5" ry="2.5" style="stroke:#181818;stroke-width:0.5;" width="164" x="461" y="696.6105"/><text fill="#000000" font-family="sans-serif" font-size="14" font-style="italic" lengthAdjust="spacing" textLength="92" x="497" y="720.1456">&#171;component&#187;</text><text fill="#000000" font-family="sans-serif" font-size="16" font-weight="bold" lengthAdjust="spacing" textLength="144" x="471" y="738.5675">Projection Engine</text><text fill="#000000" font-family="sans-serif" font-size="12" lengthAdjust="spacing" textLength="48" x="471" y="753.5441">[Service]</text><text fill="#000000" font-family="sans-serif" font-size="14" lengthAdjust="spacing" textLength="4" x="471" y="769.6105">&#160;</text><text fill="#000000" font-family="sans-serif" font-size="14" lengthAdjust="spacing" textLength="115" x="471" y="786.0988">Processes events</text></g><!--entity order_projection--><g id="elem_order_projection"><rect fill="#85BBF0" height="102.4414" rx="2.5" ry="2.5" style="stroke:#181818;stroke-width:0.5;" width="154" x="1154" y="696.6105"/><text fill="#000000" font-family="sans-serif" font-size="14" font-style="italic" lengthAdjust="spacing" textLength="92" x="1185" y="720.1456">&#171;component&#187;</text><text fill="#000000" font-family="sans-serif" font-size="16" font-weight="bold" lengthAdjust="spacing" textLength="134" x="1164" y="738.5675">Order Projection</text><text fill="#000000" font-family="sans-serif" font-size="12" lengthAdjust="spacing" textLength="65" x="1164" y="753.5441">[Projection]</text><text fill="#000000" font-family="sans-serif" font-size="14" lengthAdjust="spacing" textLength="4" x="1164" y="769.6105">&#160;</text><text fill="#000000" font-family="sans-serif" font-size="14" lengthAdjust="spacing" textLength="122" x="1164" y="786.0988">Order read model</text></g><!--entity payment_projection--><g id="elem_payment_projection"><rect fill="#85BBF0" height="102.4414" rx="2.5" ry="2.5" style="stroke:#181818;stroke-width:0.5;" width="177" x="1342.5" y="696.6105"/><text fill="#000000" font-family="sans-serif" font-size="14" font-style="italic" lengthAdjust="spacing" textLength="92" x="1385" y="720.1456">&#171;component&#187;</text><text fill="#000000" font-family="sans-serif" font-size="16" font-weight="bold" lengthAdjust="spacing" textLength="157" x="1352.5" y="738.5675">Payment Projection</text><text fill="#000000" font-family="sans-serif" font-size="12" lengthAdjust="spacing" textLength="65" x="1352.5" y="753.5441">[Projection]</text><text fill="#000000" font-family="sans-serif" font-size="14" lengthAdjust="spacing" textLength="4" x="1352.5" y="769.6105">&#160;</text><text fill="#000000" font-family="sans-serif" font-size="14" lengthAdjust="spacing" textLength="140" x="1352.5" y="786.0988">Payment read model</text></g><!--entity delivery_projection--><g id="elem_delivery_projection"><rect fill="#85BBF0" height="102.4414" rx="2.5" ry="2.5" style="stroke:#181818;stroke-width:0.5;" width="173" x="728.5" y="696.6105"/><text fill="#000000" font-family="sans-serif" font-size="14" font-style="italic" lengthAdjust="spacing" textLength="92" x="769" y="720.1456">&#171;component&#187;</text><text fill="#000000" font-family="sans-serif" font-size="16" font-weight="bold" lengthAdjust="spacing" textLength="153" x="738.5" y="738.5675">Delivery Projection</text><text fill="#000000" font-family="sans-serif" font-size="12" lengthAdjust="spacing" textLength="65" x="738.5" y="753.5441">[Projection]</text><text fill="#000000" font-family="sans-serif" font-size="14" lengthAdjust="spacing" textLength="4" x="738.5" y="769.6105">&#160;</text><text fill="#000000" font-family="sans-serif" font-size="14" lengthAdjust="spacing" textLength="136" x="738.5" y="786.0988">Delivery read model</text></g><!--entity analytics_projection--><g id="elem_analytics_projection"><rect fill="#85BBF0" height="102.4414" rx="2.5" ry="2.5" style="stroke:#181818;stroke-width:0.5;" width="182" x="937" y="696.6105"/><text fill="#000000" font-family="sans-serif" font-size="14" font-style="italic" lengthAdjust="spacing" textLength="92" x="982" y="720.1456">&#171;component&#187;</text><text fill="#000000" font-family="sans-serif" font-size="16" font-weight="bold" lengthAdjust="spacing" textLength="162" x="947" y="738.5675">Analytics Projection</text><text fill="#000000" font-family="sans-serif" font-size="12" lengthAdjust="spacing" textLength="65" x="947" y="753.5441">[Projection]</text><text fill="#000000" font-family="sans-serif" font-size="14" lengthAdjust="spacing" textLength="4" x="947" y="769.6105">&#160;</text><text fill="#000000" font-family="sans-serif" font-size="14" lengthAdjust="spacing" textLength="95" x="947" y="786.0988">Analytics data</text></g><!--entity read_models--><g id="elem_read_models"><path d="M986,438.1705 C986,428.1705 1071,428.1705 1071,428.1705 C1071,428.1705 1156,428.1705 1156,438.1705 L1156,529.6119 C1156,539.6119 1071,539.6119 1071,539.6119 C1071,539.6119 986,539.6119 986,529.6119 L986,438.1705 " fill="#85BBF0" style="stroke:#181818;stroke-width:0.5;"/><path d="M986,438.1705 C986,448.1705 1071,448.1705 1071,448.1705 C1071,448.1705 1156,448.1705 1156,438.1705 " fill="none" style="stroke:#181818;stroke-width:0.5;"/><text fill="#000000" font-family="sans-serif" font-size="14" font-style="italic" lengthAdjust="spacing" textLength="76" x="1033" y="465.7056">&#171;database&#187;</text><text fill="#000000" font-family="sans-serif" font-size="16" font-weight="bold" lengthAdjust="spacing" textLength="104" x="996" y="484.1275">Read Models</text><text fill="#000000" font-family="sans-serif" font-size="12" lengthAdjust="spacing" textLength="63" x="996" y="499.1041">[Database]</text><text fill="#000000" font-family="sans-serif" font-size="14" lengthAdjust="spacing" textLength="4" x="996" y="515.1705">&#160;</text><text fill="#000000" font-family="sans-serif" font-size="14" lengthAdjust="spacing" textLength="150" x="996" y="531.6588">Optimized for queries</text></g><!--entity query_api--><g id="elem_query_api"><rect fill="#85BBF0" height="102.4414" rx="2.5" ry="2.5" style="stroke:#181818;stroke-width:0.5;" width="130" x="1280" y="432.6705"/><text fill="#000000" font-family="sans-serif" font-size="14" font-style="italic" lengthAdjust="spacing" textLength="92" x="1299" y="456.2056">&#171;component&#187;</text><text fill="#000000" font-family="sans-serif" font-size="16" font-weight="bold" lengthAdjust="spacing" textLength="81" x="1290" y="474.6275">Query API</text><text fill="#000000" font-family="sans-serif" font-size="12" lengthAdjust="spacing" textLength="94" x="1290" y="489.6041">[REST/GraphQL]</text><text fill="#000000" font-family="sans-serif" font-size="14" lengthAdjust="spacing" textLength="4" x="1290" y="505.6705">&#160;</text><text fill="#000000" font-family="sans-serif" font-size="14" lengthAdjust="spacing" textLength="110" x="1290" y="522.1588">Handles queries</text></g><!--entity external_systems--><g id="elem_external_systems"><rect fill="#999999" height="88.3086" rx="2.5" ry="2.5" style="stroke:#181818;stroke-width:0.5;" width="158" x="7" y="703.6805"/><text fill="#FFFFFF" font-family="sans-serif" font-size="14" font-style="italic" lengthAdjust="spacing" textLength="125" x="23.5" y="727.2156">&#171;external_system&#187;</text><text fill="#FFFFFF" font-family="sans-serif" font-size="16" font-weight="bold" lengthAdjust="spacing" textLength="138" x="17" y="745.6375">External Systems</text><text fill="#FFFFFF" font-family="sans-serif" font-size="14" lengthAdjust="spacing" textLength="4" x="17" y="762.5477">&#160;</text><text fill="#FFFFFF" font-family="sans-serif" font-size="14" lengthAdjust="spacing" textLength="80" x="17" y="779.0359">Subscribers</text></g><g id="elem_GMN43"><path d="M1445.5,440.6105 L1445.5,527.1632 L1670.5,527.1632 L1670.5,450.6105 L1660.5,440.6105 L1445.5,440.6105 " fill="#FEFFDD" style="stroke:#181818;stroke-width:0.5;"/><path d="M1660.5,440.6105 L1660.5,450.6105 L1670.5,450.6105 L1660.5,440.6105 " fill="#FEFFDD" style="stroke:#181818;stroke-width:1.0;"/><text fill="#000000" font-family="sans-serif" font-size="13" lengthAdjust="spacing" textLength="65" x="1451.5" y="458.1788">Event Log:</text><text fill="#000000" font-family="sans-serif" font-size="13" lengthAdjust="spacing" textLength="204" x="1451.5" y="473.4894">- Immutable, append-only store</text><text fill="#000000" font-family="sans-serif" font-size="13" lengthAdjust="spacing" textLength="106" x="1451.5" y="488.7999">- Source of truth</text><text fill="#000000" font-family="sans-serif" font-size="13" lengthAdjust="spacing" textLength="137" x="1451.5" y="504.1105">- Complete audit trail</text><text fill="#000000" font-family="sans-serif" font-size="13" lengthAdjust="spacing" textLength="170" x="1451.5" y="519.421">- Enables temporal queries</text></g><g id="elem_GMN46"><path d="M1554.5,704.5505 L1554.5,791.1032 L1807.5,791.1032 L1807.5,714.5505 L1797.5,704.5505 L1554.5,704.5505 " fill="#FEFFDD" style="stroke:#181818;stroke-width:0.5;"/><path d="M1797.5,704.5505 L1797.5,714.5505 L1807.5,714.5505 L1797.5,704.5505 " fill="#FEFFDD" style="stroke:#181818;stroke-width:1.0;"/><text fill="#000000" font-family="sans-serif" font-size="13" lengthAdjust="spacing" textLength="74" x="1560.5" y="722.1188">Projections:</text><text fill="#000000" font-family="sans-serif" font-size="13" lengthAdjust="spacing" textLength="232" x="1560.5" y="737.4294">- Transform events into read models</text><text fill="#000000" font-family="sans-serif" font-size="13" lengthAdjust="spacing" textLength="196" x="1560.5" y="752.7399">- Can be rebuilt from event log</text><text fill="#000000" font-family="sans-serif" font-size="13" lengthAdjust="spacing" textLength="176" x="1560.5" y="768.0505">- Multiple specialized views</text><text fill="#000000" font-family="sans-serif" font-size="13" lengthAdjust="spacing" textLength="146" x="1560.5" y="783.361">- Eventually consistent</text></g><g id="elem_GMN49"><path d="M1705.5,440.6105 L1705.5,527.1632 L1902.5,527.1632 L1902.5,450.6105 L1892.5,440.6105 L1705.5,440.6105 " fill="#FEFFDD" style="stroke:#181818;stroke-width:0.5;"/><path d="M1892.5,440.6105 L1892.5,450.6105 L1902.5,450.6105 L1892.5,440.6105 " fill="#FEFFDD" style="stroke:#181818;stroke-width:1.0;"/><text fill="#000000" font-family="sans-serif" font-size="13" lengthAdjust="spacing" textLength="69" x="1711.5" y="458.1788">Snapshots:</text><text fill="#000000" font-family="sans-serif" font-size="13" lengthAdjust="spacing" textLength="174" x="1711.5" y="473.4894">- Performance optimization</text><text fill="#000000" font-family="sans-serif" font-size="13" lengthAdjust="spacing" textLength="155" x="1711.5" y="488.7999">- Periodic state captures</text><text fill="#000000" font-family="sans-serif" font-size="13" lengthAdjust="spacing" textLength="176" x="1711.5" y="504.1105">- Reduces event replay time</text><text fill="#000000" font-family="sans-serif" font-size="13" lengthAdjust="spacing" textLength="133" x="1711.5" y="519.421">- Not source of truth</text></g><g id="elem_GMN52"><path d="M200,704.5505 L200,743.8305 L165.36,747.8305 L200,751.8305 L200,791.1032 A0,0 0 0 0 200,791.1032 L426,791.1032 A0,0 0 0 0 426,791.1032 L426,714.5505 L416,704.5505 L200,704.5505 A0,0 0 0 0 200,704.5505 " fill="#FEFFDD" style="stroke:#181818;stroke-width:0.5;"/><path d="M416,704.5505 L416,714.5505 L426,714.5505 L416,704.5505 " fill="#FEFFDD" style="stroke:#181818;stroke-width:0.5;"/><text fill="#000000" font-family="sans-serif" font-size="13" lengthAdjust="spacing" textLength="115" x="206" y="722.1188">Event Subscribers:</text><text fill="#000000" font-family="sans-serif" font-size="13" lengthAdjust="spacing" textLength="205" x="206" y="737.4294">- Integration with other systems</text><text fill="#000000" font-family="sans-serif" font-size="13" lengthAdjust="spacing" textLength="143" x="206" y="752.7399">- Analytics processing</text><text fill="#000000" font-family="sans-serif" font-size="13" lengthAdjust="spacing" textLength="94" x="206" y="768.0505">- Notifications</text><text fill="#000000" font-family="sans-serif" font-size="13" lengthAdjust="spacing" textLength="124" x="206" y="783.361">- Workflow triggers</text></g><!--link command_handler to aggregate--><g id="link_command_handler_aggregate"><path d="M575.89,219.9505 C621.3,219.9505 676.65,219.9505 721.8,219.9505 " fill="none" id="command_handler-to-aggregate" style="stroke:#181818;stroke-width:1.0;"/><polygon fill="#181818" points="726.59,219.9505,717.59,215.9505,721.59,219.9505,717.59,223.9505,726.59,219.9505" style="stroke:#181818;stroke-width:1.0;"/><text fill="#000000" font-family="sans-serif" font-size="13" lengthAdjust="spacing" textLength="116" x="594" y="213.5188">1. Loads/executes</text></g><!--link aggregate to event_store_client--><g id="link_aggregate_event_store_client"><path d="M746.54,168.4505 C706,137.4205 649.81,100.8305 593,84.3505 C504.22,58.5905 468.8,45.3205 385,84.3505 C349.96,100.6705 321.85,133.6405 302.31,162.9905 " fill="none" id="aggregate-to-event_store_client" style="stroke:#181818;stroke-width:1.0;"/><polygon fill="#181818" points="299.59,167.1505,307.8685,161.8151,302.3305,162.9684,301.1772,157.4303,299.59,167.1505" style="stroke:#181818;stroke-width:1.0;"/><text fill="#000000" font-family="sans-serif" font-size="13" lengthAdjust="spacing" textLength="96" x="499" y="57.2988">2. Emits events</text></g><!--link event_store_client to event_log--><g id="link_event_store_client_event_log"><path d="M269.07,271.4505 C267.43,314.3305 265.08,376.0005 263.34,421.6805 " fill="none" id="event_store_client-to-event_log" style="stroke:#181818;stroke-width:1.0;"/><polygon fill="#181818" points="263.15,426.5005,267.4813,417.6551,263.3356,421.5039,259.4868,417.3582,263.15,426.5005" style="stroke:#181818;stroke-width:1.0;"/><text fill="#000000" font-family="sans-serif" font-size="13" lengthAdjust="spacing" textLength="116" x="268.77" y="316.7388">3. Appends events</text></g><!--link event_log to event_publisher--><g id="link_event_log_event_publisher"><path d="M329.98,483.8905 C358.53,483.8905 392.54,483.8905 425.14,483.8905 " fill="none" id="event_log-to-event_publisher" style="stroke:#181818;stroke-width:1.0;"/><polygon fill="#181818" points="430.13,483.8905,421.13,479.8905,425.13,483.8905,421.13,487.8905,430.13,483.8905" style="stroke:#181818;stroke-width:1.0;"/><text fill="#000000" font-family="sans-serif" font-size="13" lengthAdjust="spacing" textLength="66" x="347.75" y="477.4588">4. Notifies</text></g><!--link event_publisher to projection_engine--><g id="link_event_publisher_projection_engine"><path d="M547.84,535.3905 C546.83,579.6905 545.35,644.0505 544.3,690.1105 " fill="none" id="event_publisher-to-projection_engine" style="stroke:#181818;stroke-width:1.0;"/><polygon fill="#181818" points="544.19,694.9705,548.3946,686.0642,544.3043,689.9718,540.3967,685.8814,544.19,694.9705" style="stroke:#181818;stroke-width:1.0;"/><text fill="#000000" font-family="sans-serif" font-size="13" lengthAdjust="spacing" textLength="121" x="547.89" y="585.1788">5. Publishes events</text></g><!--link event_publisher to external_systems--><g id="link_event_publisher_external_systems"><path d="M431.63,534.6005 C404.17,545.1105 374.82,555.4705 347,563.6105 C275.22,584.6005 243.73,554.4005 182,596.6105 C146.14,621.1305 120.74,663.9305 105.11,697.5905 " fill="none" id="event_publisher-to-external_systems" style="stroke:#181818;stroke-width:1.0;"/><polygon fill="#181818" points="103.12,701.9605,110.4857,695.4224,105.189,697.4086,103.2028,692.112,103.12,701.9605" style="stroke:#181818;stroke-width:1.0;"/><text fill="#000000" font-family="sans-serif" font-size="13" lengthAdjust="spacing" textLength="121" x="298.94" y="585.1788">5. Publishes events</text></g><!--link projection_engine to order_projection--><g id="link_projection_engine_order_projection"><path d="M588.83,696.1905 C619.83,665.3305 663.64,628.9605 711,612.2305 C800.26,580.7005 1053.13,568.3205 1137,612.2305 C1168.64,628.8005 1191.76,661.3905 1207.15,690.4705 " fill="none" id="projection_engine-to-order_projection" style="stroke:#181818;stroke-width:1.0;"/><polygon fill="#181818" points="1209.43,694.8905,1208.8696,685.0576,1207.1426,690.4444,1201.7558,688.7174,1209.43,694.8905" style="stroke:#181818;stroke-width:1.0;"/><text fill="#000000" font-family="sans-serif" font-size="13" lengthAdjust="spacing" textLength="67" x="897.5" y="585.1788">6. Updates</text></g><!--link projection_engine to payment_projection--><g id="link_projection_engine_payment_projection"><path d="M588.83,696.1905 C619.83,665.3305 663.64,628.9605 711,612.2305 C839.86,566.7105 1203.29,552.0505 1326,612.2305 C1359.6,628.7105 1385.51,661.6905 1403.19,690.9905 " fill="none" id="projection_engine-to-payment_projection" style="stroke:#181818;stroke-width:1.0;"/><polygon fill="#181818" points="1405.63,695.1205,1404.4919,685.3376,1403.0849,690.8167,1397.6058,689.4097,1405.63,695.1205" style="stroke:#181818;stroke-width:1.0;"/><text fill="#000000" font-family="sans-serif" font-size="13" lengthAdjust="spacing" textLength="67" x="971.5" y="585.1788">6. Updates</text></g><!--link projection_engine to delivery_projection--><g id="link_projection_engine_delivery_projection"><path d="M625.35,747.8305 C655.84,747.8305 690.61,747.8305 721.99,747.8305 " fill="none" id="projection_engine-to-delivery_projection" style="stroke:#181818;stroke-width:1.0;"/><polygon fill="#181818" points="726.7,747.8305,717.7,743.8305,721.7,747.8305,717.7,751.8305,726.7,747.8305" style="stroke:#181818;stroke-width:1.0;"/><text fill="#000000" font-family="sans-serif" font-size="13" lengthAdjust="spacing" textLength="67" x="643.25" y="741.3988">6. Updates</text></g><!--link projection_engine to analytics_projection--><g id="link_projection_engine_analytics_projection"><path d="M588.83,696.1905 C619.83,665.3305 663.64,628.9605 711,612.2305 C798.17,581.4405 835.63,572.2805 919,612.2305 C953.23,628.6305 980.12,661.6105 998.63,690.9405 " fill="none" id="projection_engine-to-analytics_projection" style="stroke:#181818;stroke-width:1.0;"/><polygon fill="#181818" points="1001.19,695.0805,999.8652,685.3211,998.5631,690.8261,993.0582,689.5241,1001.19,695.0805" style="stroke:#181818;stroke-width:1.0;"/><text fill="#000000" font-family="sans-serif" font-size="13" lengthAdjust="spacing" textLength="67" x="823.5" y="585.1788">6. Updates</text></g><!--reverse link read_models to order_projection--><g id="link_read_models_order_projection"><path d="M1119.32,544.7305 C1125.84,553.5705 1132.26,562.7105 1138,571.6105 C1164.14,612.1305 1189.5,660.7305 1207.12,696.4605 " fill="none" id="read_models-backto-order_projection" style="stroke:#181818;stroke-width:1.0;"/><polygon fill="#181818" points="1116.59,541.0605,1118.7516,550.6692,1119.574,545.0724,1125.1707,545.8948,1116.59,541.0605" style="stroke:#181818;stroke-width:1.0;"/><text fill="#000000" font-family="sans-serif" font-size="13" lengthAdjust="spacing" textLength="72" x="1147.57" y="585.1788">7. Writes to</text></g><!--reverse link read_models to payment_projection--><g id="link_read_models_payment_projection"><path d="M1162.02,521.9305 C1229.55,549.8905 1312.21,585.3005 1326,596.6105 C1359.22,623.8505 1386.6,664.1305 1405.06,696.1305 " fill="none" id="read_models-backto-payment_projection" style="stroke:#181818;stroke-width:1.0;"/><polygon fill="#181818" points="1157.77,520.1705,1164.5502,527.3139,1162.3883,522.0864,1167.6158,519.9245,1157.77,520.1705" style="stroke:#181818;stroke-width:1.0;"/><text fill="#000000" font-family="sans-serif" font-size="13" lengthAdjust="spacing" textLength="72" x="1310.2" y="585.1788">7. Writes to</text></g><!--reverse link read_models to delivery_projection--><g id="link_read_models_delivery_projection"><path d="M980.68,542.9705 C964.05,551.3005 946.43,558.7005 929,563.6105 C908.87,569.2705 755.47,556.5105 741,571.6105 C707.76,606.3005 736.21,658.1605 766.96,696.4605 " fill="none" id="read_models-backto-delivery_projection" style="stroke:#181818;stroke-width:1.0;"/><polygon fill="#181818" points="984.93,540.8005,975.095,541.3231,980.4751,543.0707,978.7274,548.4509,984.93,540.8005" style="stroke:#181818;stroke-width:1.0;"/><text fill="#000000" font-family="sans-serif" font-size="13" lengthAdjust="spacing" textLength="72" x="742" y="585.1788">7. Writes to</text></g><!--reverse link read_models to analytics_projection--><g id="link_read_models_analytics_projection"><path d="M1060.94,546.1405 C1053.44,591.8505 1043.31,653.5605 1036.27,696.4305 " fill="none" id="read_models-backto-analytics_projection" style="stroke:#181818;stroke-width:1.0;"/><polygon fill="#181818" points="1061.74,541.2905,1056.3303,549.5206,1060.9273,546.224,1064.2239,550.821,1061.74,541.2905" style="stroke:#181818;stroke-width:1.0;"/><text fill="#000000" font-family="sans-serif" font-size="13" lengthAdjust="spacing" textLength="72" x="1056.86" y="585.1788">7. Writes to</text></g><!--reverse link read_models to query_api--><g id="link_read_models_query_api"><path d="M1162.32,483.8905 C1200.82,483.8905 1244.75,483.8905 1279.89,483.8905 " fill="none" id="read_models-backto-query_api" style="stroke:#181818;stroke-width:1.0;"/><polygon fill="#181818" points="1157.71,483.8905,1166.71,487.8905,1162.71,483.8905,1166.71,479.8905,1157.71,483.8905" style="stroke:#181818;stroke-width:1.0;"/><text fill="#000000" font-family="sans-serif" font-size="13" lengthAdjust="spacing" textLength="87" x="1174.5" y="477.4588">8. Reads from</text></g><!--link event_store_client to snapshot_store--><g id="link_event_store_client_snapshot_store"><path d="M337.59,271.6005 C352.52,280.8305 368.77,289.3605 385,295.1705 C400.74,300.8005 669.37,320.0905 684,328.1705 C724.49,350.5305 756.44,392.2305 777.62,426.7105 " fill="none" id="event_store_client-to-snapshot_store" style="stroke:#181818;stroke-width:1.0;"/><polygon fill="#181818" points="780.14,430.8905,778.9011,421.1198,777.5507,426.6131,772.0574,425.2627,780.14,430.8905" style="stroke:#181818;stroke-width:1.0;"/><text fill="#000000" font-family="sans-serif" font-size="13" lengthAdjust="spacing" textLength="157" x="630.99" y="316.7388">Creates/loads snapshots</text></g><!--reverse link aggregate to snapshot_store--><g id="link_aggregate_snapshot_store"><path d="M807,277.8305 C807,323.9305 807,388.2805 807,432.5405 " fill="none" id="aggregate-backto-snapshot_store" style="stroke:#181818;stroke-width:1.0;"/><polygon fill="#181818" points="807,272.9705,803.0257,281.9819,807.0143,277.9704,811.0257,281.959,807,272.9705" style="stroke:#181818;stroke-width:1.0;"/><text fill="#000000" font-family="sans-serif" font-size="13" lengthAdjust="spacing" textLength="89" x="808" y="316.7388">Restores state</text></g><!--link event_log to GMN43--><g id="link_event_log_GMN43"><path d="M297.38,427.9905 C327.84,386.8605 375.44,334.3305 432.5,311.6705 C482.89,291.6605 1358.11,291.6605 1408.5,311.6705 C1467.93,335.2705 1511.87,397.6305 1536.22,440.4605 " fill="none" id="event_log-GMN43" style="stroke:#181818;stroke-width:1.0;stroke-dasharray:7.0,7.0;"/></g><!--link projection_engine to GMN46--><g id="link_projection_engine_GMN46"><path d="M581.83,696.2005 C615.55,656.0005 668.33,603.2805 728.5,580.1105 C769.41,564.3605 1476.76,563.9305 1517.5,580.1105 C1577.59,603.9705 1626.11,662.8905 1654.25,704.1205 " fill="none" id="projection_engine-GMN46" style="stroke:#181818;stroke-width:1.0;stroke-dasharray:7.0,7.0;"/></g><!--link snapshot_store to GMN49--><g id="link_snapshot_store_GMN49"><path d="M842.83,432.5105 C875.18,391.0205 926.92,335.7205 987.5,311.6705 C1022.77,297.6605 1635.23,297.6605 1670.5,311.6705 C1727.46,334.2905 1765.79,397.2405 1786.26,440.4305 " fill="none" id="snapshot_store-GMN49" style="stroke:#181818;stroke-width:1.0;stroke-dasharray:7.0,7.0;"/></g><!--SRC=[dLVRRjiu47ttLt3TXsw1scdQjCqMQG1Vb3Q0OxksWw3OBWHQOcnk9L9BKaczHVzzXnTP5zDsi7emnD7CcU4Cvt3y70tEq0sFIOA6v9uogYXdilLRh1S4ZNfV9xUByEvwyJaS1P-2yN3xQVvvSXTEWzbyCWwdazbYrhjUj5hFDLwGa9GmXUPgav0IR70M3YOtqyau62_2gmdy32QZoGmzUsKUlrx_Kw5r_hRVlsfeZHUzwt4mEufMw9LePs_EXyEtLQtvr_aYkAb1NPd7erJYd9w-E-yFgoek9uTnd5A9y-hyxFNxVbMbFxaT3tkphzk8pTD8yGsE1A-ac3E5uKM4VPwp68lDxoJ42SNo9I9XWfSaUO44YHHcguIWziUFJjf65nTBPt9vYR14pgu2dMQSWSyTHFsYIBHc-YKcCX9-7z_OXQJ_aW-dho__T1P_NPneqUKtzeqvMnr9LFWw4ifm-QHWOgpm4il_5qjXx0zblf6Af67mmv-MWzcekI4_514C9w4qY7vlCvA4Ct1qBtXgDiehPRLYr15qjLQTI_CPVK3jei8rbD4nb8JS7mKP7WE9-ICx1d9x32JFV13G1ffUA5krv7VACYnmMidppnQ2vmhQOS0JBkf7QWyH6PC-ZhwlXEw4OuP5xpOzLTgew5a3p4LCnAxEJgTNj0s1rhHZBDSaRhhSFJm-FlFlRzVssH_cQVrgLLAxxQ6VFfWzcG44HHMKOw9tuve51G_cSk2vYA1yQ8gLZi0GMv5hsV8m6SwoX4POtr0lKRjNhjelN5GbHq7LKipYS0q_2H6WFx0IzDbAsY2Q4_508w9Vfu97H4eYaREKxHSDIBnQ2RB2Ye2wtK-la6Y48KyXNdkNwdK_bn2-b2ZXAnhje16TX50gBaWO9HGMOECoeuLeO8GQgNoxPf0f72c97gbQ8uE130RWGx9zz5_wgJlOJPfcKwCD4MzrHtpLjjacBEvmbcoSGvq__I8HJX8RYjopoonV9XJEhTYYJWj9imnEBXqWWgwN-H8uaYw9sCMN36TopSiDpft0xL7NnHtSQi15tL1XB_VcBnFyRs0LFHNPOrAiF8Ukr0q9Mm5EpG85HhRtuEr9eI62i8JUdhuIkLtpqzvg289Zb9e3sKJDy2OrfQdYJgtm87AXSm0RPFI1Y4qTVEYa1z6tIWVWCP3LHj58rl5xXVYWWr9B4zhUgl-Jw_WbZNK9l-W5ciF2spCwrD24ga_8J0TkI40sJzyaKpI52ID6zy2OsWKbk_Mshd56jvvxqsjjFWlcYvDF0cVhBoEzjaGcAq2_D8S6ZiyTsyfMTKIfSxsEjwbkZcUjum0Jxcb3j79DCuawgE3IguG_jknGiaEuLReyxGAFu5YUa1yaofK9rffLjBoC-BgBWfIgIdUu6SYZN2MlDrraAMkFfT7QPQUpBXfpHUzjFZqxT_HbcrOF7suEQYBvgE1j5pNvpKNb0V2KQh_zp4Sz7k9urqMt6HnySj3GomrFC_Mt_jDiz_HrpTXJ4TiZsvDuwo7CUeU-xw8xGG4FBXSNpwsN3vzWvjtl4-pyUprgEAgoGrtxl8iqzKYaXsP_fegxKTRENBs7TYxK0RY164uItR-r-zBkf6bGRViPaVR2bKeFIIOeQ2yYMmn-aVcZWlXzsRX0XTkfumCiEkWwJNDWq4GZDqSGes36IA9HbCZLsiWqcIO4FE0yfWe-O9gO3m7JK91G0cmhWFGSTxO06EcOMet8Teufm5Hc01lZGc0cWTBJOcYX3CQMyWQJDYZCq1AWoJAdYJ9bSWEStNW7tUI9eX0uaXc9AFppqrV50oMF5i1a9eTXQmCpAfCKQ86flP7Nwm80s-hReAT4w90nqycp5vCvBCL7ocCQsSAX26SgXpgQRpCIvr51GB2TBC4R1FQs751U91ibsHTYa-AsrQ_SF-uKmDox4YO-E_bo1II9IhiEAY_sh2Hd5n7mkVsZO5NlkFX-3tm1uT7L2foK4Vu7]--></g></svg>