<?xml version="1.0" encoding="us-ascii" standalone="no"?><svg xmlns="http://www.w3.org/2000/svg" xmlns:xlink="http://www.w3.org/1999/xlink" contentStyleType="text/css" height="1765px" preserveAspectRatio="none" style="width:1632px;height:1765px;background:#FFFFFF;" version="1.1" viewBox="0 0 1632 1765" width="1632px" zoomAndPan="magnify"><defs/><g><rect fill="#FFFFFF" height="363.7266" style="stroke:#181818;stroke-width:1.0;" width="10" x="279" y="156.1094"/><rect fill="#FFFFFF" height="585.8555" style="stroke:#181818;stroke-width:1.0;" width="10" x="279" y="609.7676"/><rect fill="#FFFFFF" height="363.7266" style="stroke:#181818;stroke-width:1.0;" width="10" x="279" y="1285.5547"/><rect fill="#FFFFFF" height="305.1055" style="stroke:#181818;stroke-width:1.0;" width="10" x="554" y="185.4199"/><rect fill="#FFFFFF" height="527.2344" style="stroke:#181818;stroke-width:1.0;" width="10" x="554" y="639.0781"/><rect fill="#FFFFFF" height="305.1055" style="stroke:#181818;stroke-width:1.0;" width="10" x="554" y="1314.8652"/><rect fill="#FFFFFF" height="12" style="stroke:#181818;stroke-width:1.0;" width="10" x="852" y="214.7305"/><rect fill="#FFFFFF" height="12" style="stroke:#181818;stroke-width:1.0;" width="10" x="852" y="1402.7969"/><rect fill="#FFFFFF" height="12" style="stroke:#181818;stroke-width:1.0;" width="10" x="941" y="273.3516"/><rect fill="#FFFFFF" height="70.6211" style="stroke:#181818;stroke-width:1.0;" width="10" x="941" y="390.5938"/><rect fill="#FFFFFF" height="70.6211" style="stroke:#181818;stroke-width:1.0;" width="10" x="941" y="809.9414"/><rect fill="#FFFFFF" height="70.6211" style="stroke:#181818;stroke-width:1.0;" width="10" x="941" y="1000.7598"/><rect fill="#FFFFFF" height="70.6211" style="stroke:#181818;stroke-width:1.0;" width="10" x="941" y="1461.418"/><rect fill="#FFFFFF" height="12" style="stroke:#181818;stroke-width:1.0;" width="10" x="1041.5" y="331.9727"/><rect fill="#FFFFFF" height="12" style="stroke:#181818;stroke-width:1.0;" width="10" x="1041.5" y="668.3887"/><rect fill="#FFFFFF" height="12" style="stroke:#181818;stroke-width:1.0;" width="10" x="1041.5" y="1125.002"/><rect fill="#FFFFFF" height="12" style="stroke:#181818;stroke-width:1.0;" width="10" x="1041.5" y="1344.1758"/><rect fill="#FFFFFF" height="12" style="stroke:#181818;stroke-width:1.0;" width="10" x="1041.5" y="1578.6602"/><rect fill="#FFFFFF" height="12" style="stroke:#181818;stroke-width:1.0;" width="10" x="1189" y="727.0098"/><rect fill="#FFFFFF" height="12" style="stroke:#181818;stroke-width:1.0;" width="10" x="1347.5" y="927.1836"/><rect fill="#FFFFFF" height="12" style="stroke:#181818;stroke-width:1.0;" width="10" x="1516" y="419.9043"/><rect fill="#FFFFFF" height="12" style="stroke:#181818;stroke-width:1.0;" width="10" x="1516" y="839.252"/><rect fill="#FFFFFF" height="12" style="stroke:#181818;stroke-width:1.0;" width="10" x="1516" y="1030.0703"/><rect fill="#FFFFFF" height="12" style="stroke:#181818;stroke-width:1.0;" width="10" x="1516" y="1490.7285"/><rect fill="none" height="325.3711" style="stroke:#000000;stroke-width:1.5;" width="1156" x="459" y="771.3203"/><line style="stroke:#181818;stroke-width:0.5;stroke-dasharray:5.0,5.0;" x1="28" x2="28" y1="81.4883" y2="1684.5918"/><line style="stroke:#181818;stroke-width:0.5;stroke-dasharray:5.0,5.0;" x1="284" x2="284" y1="81.4883" y2="1684.5918"/><line style="stroke:#181818;stroke-width:0.5;stroke-dasharray:5.0,5.0;" x1="559" x2="559" y1="81.4883" y2="1684.5918"/><line style="stroke:#181818;stroke-width:0.5;stroke-dasharray:5.0,5.0;" x1="857" x2="857" y1="81.4883" y2="1684.5918"/><line style="stroke:#181818;stroke-width:0.5;stroke-dasharray:5.0,5.0;" x1="946" x2="946" y1="81.4883" y2="1684.5918"/><line style="stroke:#181818;stroke-width:0.5;stroke-dasharray:5.0,5.0;" x1="1046" x2="1046" y1="81.4883" y2="1684.5918"/><line style="stroke:#181818;stroke-width:0.5;stroke-dasharray:5.0,5.0;" x1="1194" x2="1194" y1="81.4883" y2="1684.5918"/><line style="stroke:#181818;stroke-width:0.5;stroke-dasharray:5.0,5.0;" x1="1352" x2="1352" y1="81.4883" y2="1684.5918"/><line style="stroke:#181818;stroke-width:0.5;stroke-dasharray:5.0,5.0;" x1="1521" x2="1521" y1="81.4883" y2="1684.5918"/><text fill="#000000" font-family="sans-serif" font-size="14" lengthAdjust="spacing" textLength="40" x="5" y="78.5352">Client</text><ellipse cx="28" cy="13.5" fill="#E2E2F0" rx="8" ry="8" style="stroke:#181818;stroke-width:0.5;"/><path d="M28,21.5 L28,48.5 M15,29.5 L41,29.5 M28,48.5 L15,63.5 M28,48.5 L41,63.5 " fill="none" style="stroke:#181818;stroke-width:0.5;"/><text fill="#000000" font-family="sans-serif" font-size="14" lengthAdjust="spacing" textLength="40" x="5" y="1697.127">Client</text><ellipse cx="28" cy="1708.5801" fill="#E2E2F0" rx="8" ry="8" style="stroke:#181818;stroke-width:0.5;"/><path d="M28,1716.5801 L28,1743.5801 M15,1724.5801 L41,1724.5801 M28,1743.5801 L15,1758.5801 M28,1743.5801 L41,1758.5801 " fill="none" style="stroke:#181818;stroke-width:0.5;"/><rect fill="#E2E2F0" height="30.4883" rx="2.5" ry="2.5" style="stroke:#181818;stroke-width:0.5;" width="124" x="222" y="50"/><text fill="#000000" font-family="sans-serif" font-size="14" lengthAdjust="spacing" textLength="110" x="229" y="70.5352">OrderController</text><rect fill="#E2E2F0" height="30.4883" rx="2.5" ry="2.5" style="stroke:#181818;stroke-width:0.5;" width="124" x="222" y="1683.5918"/><text fill="#000000" font-family="sans-serif" font-size="14" lengthAdjust="spacing" textLength="110" x="229" y="1704.127">OrderController</text><rect fill="#E2E2F0" height="30.4883" rx="2.5" ry="2.5" style="stroke:#181818;stroke-width:0.5;" width="180" x="469" y="50"/><text fill="#000000" font-family="sans-serif" font-size="14" lengthAdjust="spacing" textLength="166" x="476" y="70.5352">OrderApplicationService</text><rect fill="#E2E2F0" height="30.4883" rx="2.5" ry="2.5" style="stroke:#181818;stroke-width:0.5;" width="180" x="469" y="1683.5918"/><text fill="#000000" font-family="sans-serif" font-size="14" lengthAdjust="spacing" textLength="166" x="476" y="1704.127">OrderApplicationService</text><rect fill="#E2E2F0" height="30.4883" rx="2.5" ry="2.5" style="stroke:#181818;stroke-width:0.5;" width="104" x="805" y="50"/><text fill="#000000" font-family="sans-serif" font-size="14" lengthAdjust="spacing" textLength="90" x="812" y="70.5352">OrderFactory</text><rect fill="#E2E2F0" height="30.4883" rx="2.5" ry="2.5" style="stroke:#181818;stroke-width:0.5;" width="104" x="805" y="1683.5918"/><text fill="#000000" font-family="sans-serif" font-size="14" lengthAdjust="spacing" textLength="90" x="812" y="1704.127">OrderFactory</text><rect fill="#E2E2F0" height="30.4883" rx="2.5" ry="2.5" style="stroke:#181818;stroke-width:0.5;" width="54" x="919" y="50"/><text fill="#000000" font-family="sans-serif" font-size="14" lengthAdjust="spacing" textLength="40" x="926" y="70.5352">Order</text><rect fill="#E2E2F0" height="30.4883" rx="2.5" ry="2.5" style="stroke:#181818;stroke-width:0.5;" width="54" x="919" y="1683.5918"/><text fill="#000000" font-family="sans-serif" font-size="14" lengthAdjust="spacing" textLength="40" x="926" y="1704.127">Order</text><rect fill="#E2E2F0" height="30.4883" rx="2.5" ry="2.5" style="stroke:#181818;stroke-width:0.5;" width="127" x="983" y="50"/><text fill="#000000" font-family="sans-serif" font-size="14" lengthAdjust="spacing" textLength="113" x="990" y="70.5352">OrderRepository</text><rect fill="#E2E2F0" height="30.4883" rx="2.5" ry="2.5" style="stroke:#181818;stroke-width:0.5;" width="127" x="983" y="1683.5918"/><text fill="#000000" font-family="sans-serif" font-size="14" lengthAdjust="spacing" textLength="113" x="990" y="1704.127">OrderRepository</text><rect fill="#E2E2F0" height="30.4883" rx="2.5" ry="2.5" style="stroke:#181818;stroke-width:0.5;" width="148" x="1120" y="50"/><text fill="#000000" font-family="sans-serif" font-size="14" lengthAdjust="spacing" textLength="134" x="1127" y="70.5352">PaymentServicePort</text><rect fill="#E2E2F0" height="30.4883" rx="2.5" ry="2.5" style="stroke:#181818;stroke-width:0.5;" width="148" x="1120" y="1683.5918"/><text fill="#000000" font-family="sans-serif" font-size="14" lengthAdjust="spacing" textLength="134" x="1127" y="1704.127">PaymentServicePort</text><rect fill="#E2E2F0" height="30.4883" rx="2.5" ry="2.5" style="stroke:#181818;stroke-width:0.5;" width="149" x="1278" y="50"/><text fill="#000000" font-family="sans-serif" font-size="14" lengthAdjust="spacing" textLength="135" x="1285" y="70.5352">LogisticsServicePort</text><rect fill="#E2E2F0" height="30.4883" rx="2.5" ry="2.5" style="stroke:#181818;stroke-width:0.5;" width="149" x="1278" y="1683.5918"/><text fill="#000000" font-family="sans-serif" font-size="14" lengthAdjust="spacing" textLength="135" x="1285" y="1704.127">LogisticsServicePort</text><rect fill="#E2E2F0" height="30.4883" rx="2.5" ry="2.5" style="stroke:#181818;stroke-width:0.5;" width="168" x="1437" y="50"/><text fill="#000000" font-family="sans-serif" font-size="14" lengthAdjust="spacing" textLength="154" x="1444" y="70.5352">DomainEventPublisher</text><rect fill="#E2E2F0" height="30.4883" rx="2.5" ry="2.5" style="stroke:#181818;stroke-width:0.5;" width="168" x="1437" y="1683.5918"/><text fill="#000000" font-family="sans-serif" font-size="14" lengthAdjust="spacing" textLength="154" x="1444" y="1704.127">DomainEventPublisher</text><rect fill="#FFFFFF" height="363.7266" style="stroke:#181818;stroke-width:1.0;" width="10" x="279" y="156.1094"/><rect fill="#FFFFFF" height="585.8555" style="stroke:#181818;stroke-width:1.0;" width="10" x="279" y="609.7676"/><rect fill="#FFFFFF" height="363.7266" style="stroke:#181818;stroke-width:1.0;" width="10" x="279" y="1285.5547"/><rect fill="#FFFFFF" height="305.1055" style="stroke:#181818;stroke-width:1.0;" width="10" x="554" y="185.4199"/><rect fill="#FFFFFF" height="527.2344" style="stroke:#181818;stroke-width:1.0;" width="10" x="554" y="639.0781"/><rect fill="#FFFFFF" height="305.1055" style="stroke:#181818;stroke-width:1.0;" width="10" x="554" y="1314.8652"/><rect fill="#FFFFFF" height="12" style="stroke:#181818;stroke-width:1.0;" width="10" x="852" y="214.7305"/><rect fill="#FFFFFF" height="12" style="stroke:#181818;stroke-width:1.0;" width="10" x="852" y="1402.7969"/><rect fill="#FFFFFF" height="12" style="stroke:#181818;stroke-width:1.0;" width="10" x="941" y="273.3516"/><rect fill="#FFFFFF" height="70.6211" style="stroke:#181818;stroke-width:1.0;" width="10" x="941" y="390.5938"/><rect fill="#FFFFFF" height="70.6211" style="stroke:#181818;stroke-width:1.0;" width="10" x="941" y="809.9414"/><rect fill="#FFFFFF" height="70.6211" style="stroke:#181818;stroke-width:1.0;" width="10" x="941" y="1000.7598"/><rect fill="#FFFFFF" height="70.6211" style="stroke:#181818;stroke-width:1.0;" width="10" x="941" y="1461.418"/><rect fill="#FFFFFF" height="12" style="stroke:#181818;stroke-width:1.0;" width="10" x="1041.5" y="331.9727"/><rect fill="#FFFFFF" height="12" style="stroke:#181818;stroke-width:1.0;" width="10" x="1041.5" y="668.3887"/><rect fill="#FFFFFF" height="12" style="stroke:#181818;stroke-width:1.0;" width="10" x="1041.5" y="1125.002"/><rect fill="#FFFFFF" height="12" style="stroke:#181818;stroke-width:1.0;" width="10" x="1041.5" y="1344.1758"/><rect fill="#FFFFFF" height="12" style="stroke:#181818;stroke-width:1.0;" width="10" x="1041.5" y="1578.6602"/><rect fill="#FFFFFF" height="12" style="stroke:#181818;stroke-width:1.0;" width="10" x="1189" y="727.0098"/><rect fill="#FFFFFF" height="12" style="stroke:#181818;stroke-width:1.0;" width="10" x="1347.5" y="927.1836"/><rect fill="#FFFFFF" height="12" style="stroke:#181818;stroke-width:1.0;" width="10" x="1516" y="419.9043"/><rect fill="#FFFFFF" height="12" style="stroke:#181818;stroke-width:1.0;" width="10" x="1516" y="839.252"/><rect fill="#FFFFFF" height="12" style="stroke:#181818;stroke-width:1.0;" width="10" x="1516" y="1030.0703"/><rect fill="#FFFFFF" height="12" style="stroke:#181818;stroke-width:1.0;" width="10" x="1516" y="1490.7285"/><rect fill="#EEEEEE" height="3" style="stroke:#EEEEEE;stroke-width:1.0;" width="1625" x="0" y="112.1436"/><line style="stroke:#000000;stroke-width:1.0;" x1="0" x2="1625" y1="112.1436" y2="112.1436"/><line style="stroke:#000000;stroke-width:1.0;" x1="0" x2="1625" y1="115.1436" y2="115.1436"/><rect fill="#EEEEEE" height="23.3105" style="stroke:#000000;stroke-width:2.0;" width="70" x="777.5" y="101.4883"/><text fill="#000000" font-family="sans-serif" font-size="13" font-weight="bold" lengthAdjust="spacing" textLength="52" x="783.5" y="118.0566">&#24314;&#31435;&#35330;&#21934;</text><polygon fill="#181818" points="267,152.1094,277,156.1094,267,160.1094,271,156.1094" style="stroke:#181818;stroke-width:1.0;"/><line style="stroke:#181818;stroke-width:1.0;" x1="28" x2="273" y1="156.1094" y2="156.1094"/><text fill="#000000" font-family="sans-serif" font-size="13" lengthAdjust="spacing" textLength="206" x="35" y="151.3672">createOrder(CreateOrderRequest)</text><polygon fill="#181818" points="542,181.4199,552,185.4199,542,189.4199,546,185.4199" style="stroke:#181818;stroke-width:1.0;"/><line style="stroke:#181818;stroke-width:1.0;" x1="289" x2="548" y1="185.4199" y2="185.4199"/><text fill="#000000" font-family="sans-serif" font-size="13" lengthAdjust="spacing" textLength="220" x="296" y="180.6777">createOrder(CreateOrderCommand)</text><polygon fill="#181818" points="840,210.7305,850,214.7305,840,218.7305,844,214.7305" style="stroke:#181818;stroke-width:1.0;"/><line style="stroke:#181818;stroke-width:1.0;" x1="564" x2="846" y1="214.7305" y2="214.7305"/><text fill="#000000" font-family="sans-serif" font-size="13" lengthAdjust="spacing" textLength="81" x="571" y="209.9883">createOrder()</text><polygon fill="#181818" points="575,222.7305,565,226.7305,575,230.7305,571,226.7305" style="stroke:#181818;stroke-width:1.0;"/><line style="stroke:#181818;stroke-width:1.0;stroke-dasharray:2.0,2.0;" x1="569" x2="856" y1="226.7305" y2="226.7305"/><text fill="#000000" font-family="sans-serif" font-size="13" lengthAdjust="spacing" textLength="35" x="581" y="240.2988">Order</text><polygon fill="#181818" points="929,269.3516,939,273.3516,929,277.3516,933,273.3516" style="stroke:#181818;stroke-width:1.0;"/><line style="stroke:#181818;stroke-width:1.0;" x1="564" x2="935" y1="273.3516" y2="273.3516"/><text fill="#000000" font-family="sans-serif" font-size="13" lengthAdjust="spacing" textLength="101" x="571" y="268.6094">addItems(items)</text><polygon fill="#181818" points="575,281.3516,565,285.3516,575,289.3516,571,285.3516" style="stroke:#181818;stroke-width:1.0;"/><line style="stroke:#181818;stroke-width:1.0;stroke-dasharray:2.0,2.0;" x1="569" x2="945" y1="285.3516" y2="285.3516"/><text fill="#000000" font-family="sans-serif" font-size="13" lengthAdjust="spacing" textLength="27" x="581" y="298.9199">void</text><polygon fill="#181818" points="1029.5,327.9727,1039.5,331.9727,1029.5,335.9727,1033.5,331.9727" style="stroke:#181818;stroke-width:1.0;"/><line style="stroke:#181818;stroke-width:1.0;" x1="564" x2="1035.5" y1="331.9727" y2="331.9727"/><text fill="#000000" font-family="sans-serif" font-size="13" lengthAdjust="spacing" textLength="69" x="571" y="327.2305">save(order)</text><polygon fill="#181818" points="575,339.9727,565,343.9727,575,347.9727,571,343.9727" style="stroke:#181818;stroke-width:1.0;"/><line style="stroke:#181818;stroke-width:1.0;stroke-dasharray:2.0,2.0;" x1="569" x2="1045.5" y1="343.9727" y2="343.9727"/><text fill="#000000" font-family="sans-serif" font-size="13" lengthAdjust="spacing" textLength="35" x="581" y="357.541">Order</text><polygon fill="#181818" points="929,386.5938,939,390.5938,929,394.5938,933,390.5938" style="stroke:#181818;stroke-width:1.0;"/><line style="stroke:#181818;stroke-width:1.0;" x1="564" x2="935" y1="390.5938" y2="390.5938"/><text fill="#000000" font-family="sans-serif" font-size="13" lengthAdjust="spacing" textLength="46" x="571" y="385.8516">create()</text><polygon fill="#181818" points="1504,415.9043,1514,419.9043,1504,423.9043,1508,419.9043" style="stroke:#181818;stroke-width:1.0;"/><line style="stroke:#181818;stroke-width:1.0;" x1="951" x2="1510" y1="419.9043" y2="419.9043"/><text fill="#000000" font-family="sans-serif" font-size="13" lengthAdjust="spacing" textLength="172" x="958" y="415.1621">publish(OrderCreatedEvent)</text><polygon fill="#181818" points="962,427.9043,952,431.9043,962,435.9043,958,431.9043" style="stroke:#181818;stroke-width:1.0;"/><line style="stroke:#181818;stroke-width:1.0;stroke-dasharray:2.0,2.0;" x1="956" x2="1520" y1="431.9043" y2="431.9043"/><text fill="#000000" font-family="sans-serif" font-size="13" lengthAdjust="spacing" textLength="27" x="968" y="445.4727">void</text><polygon fill="#181818" points="575,457.2148,565,461.2148,575,465.2148,571,461.2148" style="stroke:#181818;stroke-width:1.0;"/><line style="stroke:#181818;stroke-width:1.0;stroke-dasharray:2.0,2.0;" x1="569" x2="945" y1="461.2148" y2="461.2148"/><text fill="#000000" font-family="sans-serif" font-size="13" lengthAdjust="spacing" textLength="27" x="581" y="474.7832">void</text><polygon fill="#181818" points="300,486.5254,290,490.5254,300,494.5254,296,490.5254" style="stroke:#181818;stroke-width:1.0;"/><line style="stroke:#181818;stroke-width:1.0;stroke-dasharray:2.0,2.0;" x1="294" x2="558" y1="490.5254" y2="490.5254"/><text fill="#000000" font-family="sans-serif" font-size="13" lengthAdjust="spacing" textLength="95" x="306" y="504.0938">OrderResponse</text><polygon fill="#181818" points="39,515.8359,29,519.8359,39,523.8359,35,519.8359" style="stroke:#181818;stroke-width:1.0;"/><line style="stroke:#181818;stroke-width:1.0;stroke-dasharray:2.0,2.0;" x1="33" x2="283" y1="519.8359" y2="519.8359"/><text fill="#000000" font-family="sans-serif" font-size="13" lengthAdjust="spacing" textLength="95" x="45" y="533.4043">OrderResponse</text><rect fill="#EEEEEE" height="3" style="stroke:#EEEEEE;stroke-width:1.0;" width="1625" x="0" y="565.8018"/><line style="stroke:#000000;stroke-width:1.0;" x1="0" x2="1625" y1="565.8018" y2="565.8018"/><line style="stroke:#000000;stroke-width:1.0;" x1="0" x2="1625" y1="568.8018" y2="568.8018"/><rect fill="#EEEEEE" height="23.3105" style="stroke:#000000;stroke-width:2.0;" width="70" x="777.5" y="555.1465"/><text fill="#000000" font-family="sans-serif" font-size="13" font-weight="bold" lengthAdjust="spacing" textLength="52" x="783.5" y="571.7148">&#34389;&#29702;&#25903;&#20184;</text><polygon fill="#181818" points="267,605.7676,277,609.7676,267,613.7676,271,609.7676" style="stroke:#181818;stroke-width:1.0;"/><line style="stroke:#181818;stroke-width:1.0;" x1="28" x2="273" y1="609.7676" y2="609.7676"/><text fill="#000000" font-family="sans-serif" font-size="13" lengthAdjust="spacing" textLength="137" x="35" y="605.0254">processOrder(orderId)</text><polygon fill="#181818" points="542,635.0781,552,639.0781,542,643.0781,546,639.0781" style="stroke:#181818;stroke-width:1.0;"/><line style="stroke:#181818;stroke-width:1.0;" x1="289" x2="548" y1="639.0781" y2="639.0781"/><text fill="#000000" font-family="sans-serif" font-size="13" lengthAdjust="spacing" textLength="137" x="296" y="634.3359">processOrder(orderId)</text><polygon fill="#181818" points="1029.5,664.3887,1039.5,668.3887,1029.5,672.3887,1033.5,668.3887" style="stroke:#181818;stroke-width:1.0;"/><line style="stroke:#181818;stroke-width:1.0;" x1="564" x2="1035.5" y1="668.3887" y2="668.3887"/><text fill="#000000" font-family="sans-serif" font-size="13" lengthAdjust="spacing" textLength="104" x="571" y="663.6465">findById(orderId)</text><polygon fill="#181818" points="575,676.3887,565,680.3887,575,684.3887,571,680.3887" style="stroke:#181818;stroke-width:1.0;"/><line style="stroke:#181818;stroke-width:1.0;stroke-dasharray:2.0,2.0;" x1="569" x2="1045.5" y1="680.3887" y2="680.3887"/><text fill="#000000" font-family="sans-serif" font-size="13" lengthAdjust="spacing" textLength="35" x="581" y="693.957">Order</text><polygon fill="#181818" points="1177,723.0098,1187,727.0098,1177,731.0098,1181,727.0098" style="stroke:#181818;stroke-width:1.0;"/><line style="stroke:#181818;stroke-width:1.0;" x1="564" x2="1183" y1="727.0098" y2="727.0098"/><text fill="#000000" font-family="sans-serif" font-size="13" lengthAdjust="spacing" textLength="143" x="571" y="722.2676">processPayment(order)</text><polygon fill="#181818" points="575,735.0098,565,739.0098,575,743.0098,571,739.0098" style="stroke:#181818;stroke-width:1.0;"/><line style="stroke:#181818;stroke-width:1.0;stroke-dasharray:2.0,2.0;" x1="569" x2="1193" y1="739.0098" y2="739.0098"/><text fill="#000000" font-family="sans-serif" font-size="13" lengthAdjust="spacing" textLength="92" x="581" y="752.5781">PaymentResult</text><path d="M459,771.3203 L521,771.3203 L521,778.6309 L511,788.6309 L459,788.6309 L459,771.3203 " fill="#EEEEEE" style="stroke:#000000;stroke-width:1.5;"/><rect fill="none" height="325.3711" style="stroke:#000000;stroke-width:1.5;" width="1156" x="459" y="771.3203"/><text fill="#000000" font-family="sans-serif" font-size="13" font-weight="bold" lengthAdjust="spacing" textLength="17" x="474" y="784.8887">alt</text><text fill="#000000" font-family="sans-serif" font-size="11" font-weight="bold" lengthAdjust="spacing" textLength="52" x="536" y="783.9551">[&#25903;&#20184;&#25104;&#21151;]</text><polygon fill="#181818" points="929,805.9414,939,809.9414,929,813.9414,933,809.9414" style="stroke:#181818;stroke-width:1.0;"/><line style="stroke:#181818;stroke-width:1.0;" x1="564" x2="935" y1="809.9414" y2="809.9414"/><text fill="#000000" font-family="sans-serif" font-size="13" lengthAdjust="spacing" textLength="166" x="571" y="805.1992">updateStatus(CONFIRMED)</text><polygon fill="#181818" points="1504,835.252,1514,839.252,1504,843.252,1508,839.252" style="stroke:#181818;stroke-width:1.0;"/><line style="stroke:#181818;stroke-width:1.0;" x1="951" x2="1510" y1="839.252" y2="839.252"/><text fill="#000000" font-family="sans-serif" font-size="13" lengthAdjust="spacing" textLength="183" x="958" y="834.5098">publish(StatusChangedEvent)</text><polygon fill="#181818" points="962,847.252,952,851.252,962,855.252,958,851.252" style="stroke:#181818;stroke-width:1.0;"/><line style="stroke:#181818;stroke-width:1.0;stroke-dasharray:2.0,2.0;" x1="956" x2="1520" y1="851.252" y2="851.252"/><text fill="#000000" font-family="sans-serif" font-size="13" lengthAdjust="spacing" textLength="27" x="968" y="864.8203">void</text><polygon fill="#181818" points="575,876.5625,565,880.5625,575,884.5625,571,880.5625" style="stroke:#181818;stroke-width:1.0;"/><line style="stroke:#181818;stroke-width:1.0;stroke-dasharray:2.0,2.0;" x1="569" x2="945" y1="880.5625" y2="880.5625"/><text fill="#000000" font-family="sans-serif" font-size="13" lengthAdjust="spacing" textLength="27" x="581" y="894.1309">void</text><polygon fill="#181818" points="1335.5,923.1836,1345.5,927.1836,1335.5,931.1836,1339.5,927.1836" style="stroke:#181818;stroke-width:1.0;"/><line style="stroke:#181818;stroke-width:1.0;" x1="564" x2="1341.5" y1="927.1836" y2="927.1836"/><text fill="#000000" font-family="sans-serif" font-size="13" lengthAdjust="spacing" textLength="139" x="571" y="922.4414">arrangeDelivery(order)</text><polygon fill="#181818" points="575,935.1836,565,939.1836,575,943.1836,571,939.1836" style="stroke:#181818;stroke-width:1.0;"/><line style="stroke:#181818;stroke-width:1.0;stroke-dasharray:2.0,2.0;" x1="569" x2="1351.5" y1="939.1836" y2="939.1836"/><text fill="#000000" font-family="sans-serif" font-size="13" lengthAdjust="spacing" textLength="90" x="581" y="952.752">DeliveryStatus</text><line style="stroke:#000000;stroke-width:1.0;stroke-dasharray:2.0,2.0;" x1="459" x2="1615" y1="965.4941" y2="965.4941"/><text fill="#000000" font-family="sans-serif" font-size="11" font-weight="bold" lengthAdjust="spacing" textLength="52" x="464" y="976.1289">[&#25903;&#20184;&#22833;&#25943;]</text><polygon fill="#181818" points="929,996.7598,939,1000.7598,929,1004.7598,933,1000.7598" style="stroke:#181818;stroke-width:1.0;"/><line style="stroke:#181818;stroke-width:1.0;" x1="564" x2="935" y1="1000.7598" y2="1000.7598"/><text fill="#000000" font-family="sans-serif" font-size="13" lengthAdjust="spacing" textLength="134" x="571" y="996.0176">updateStatus(FAILED)</text><polygon fill="#181818" points="1504,1026.0703,1514,1030.0703,1504,1034.0703,1508,1030.0703" style="stroke:#181818;stroke-width:1.0;"/><line style="stroke:#181818;stroke-width:1.0;" x1="951" x2="1510" y1="1030.0703" y2="1030.0703"/><text fill="#000000" font-family="sans-serif" font-size="13" lengthAdjust="spacing" textLength="183" x="958" y="1025.3281">publish(StatusChangedEvent)</text><polygon fill="#181818" points="962,1038.0703,952,1042.0703,962,1046.0703,958,1042.0703" style="stroke:#181818;stroke-width:1.0;"/><line style="stroke:#181818;stroke-width:1.0;stroke-dasharray:2.0,2.0;" x1="956" x2="1520" y1="1042.0703" y2="1042.0703"/><text fill="#000000" font-family="sans-serif" font-size="13" lengthAdjust="spacing" textLength="27" x="968" y="1055.6387">void</text><polygon fill="#181818" points="575,1067.3809,565,1071.3809,575,1075.3809,571,1071.3809" style="stroke:#181818;stroke-width:1.0;"/><line style="stroke:#181818;stroke-width:1.0;stroke-dasharray:2.0,2.0;" x1="569" x2="945" y1="1071.3809" y2="1071.3809"/><text fill="#000000" font-family="sans-serif" font-size="13" lengthAdjust="spacing" textLength="27" x="581" y="1084.9492">void</text><polygon fill="#181818" points="1029.5,1121.002,1039.5,1125.002,1029.5,1129.002,1033.5,1125.002" style="stroke:#181818;stroke-width:1.0;"/><line style="stroke:#181818;stroke-width:1.0;" x1="564" x2="1035.5" y1="1125.002" y2="1125.002"/><text fill="#000000" font-family="sans-serif" font-size="13" lengthAdjust="spacing" textLength="69" x="571" y="1120.2598">save(order)</text><polygon fill="#181818" points="575,1133.002,565,1137.002,575,1141.002,571,1137.002" style="stroke:#181818;stroke-width:1.0;"/><line style="stroke:#181818;stroke-width:1.0;stroke-dasharray:2.0,2.0;" x1="569" x2="1045.5" y1="1137.002" y2="1137.002"/><text fill="#000000" font-family="sans-serif" font-size="13" lengthAdjust="spacing" textLength="35" x="581" y="1150.5703">Order</text><polygon fill="#181818" points="300,1162.3125,290,1166.3125,300,1170.3125,296,1166.3125" style="stroke:#181818;stroke-width:1.0;"/><line style="stroke:#181818;stroke-width:1.0;stroke-dasharray:2.0,2.0;" x1="294" x2="558" y1="1166.3125" y2="1166.3125"/><text fill="#000000" font-family="sans-serif" font-size="13" lengthAdjust="spacing" textLength="95" x="306" y="1179.8809">OrderResponse</text><polygon fill="#181818" points="39,1191.623,29,1195.623,39,1199.623,35,1195.623" style="stroke:#181818;stroke-width:1.0;"/><line style="stroke:#181818;stroke-width:1.0;stroke-dasharray:2.0,2.0;" x1="33" x2="283" y1="1195.623" y2="1195.623"/><text fill="#000000" font-family="sans-serif" font-size="13" lengthAdjust="spacing" textLength="95" x="45" y="1209.1914">OrderResponse</text><rect fill="#EEEEEE" height="3" style="stroke:#EEEEEE;stroke-width:1.0;" width="1625" x="0" y="1241.5889"/><line style="stroke:#000000;stroke-width:1.0;" x1="0" x2="1625" y1="1241.5889" y2="1241.5889"/><line style="stroke:#000000;stroke-width:1.0;" x1="0" x2="1625" y1="1244.5889" y2="1244.5889"/><rect fill="#EEEEEE" height="23.3105" style="stroke:#000000;stroke-width:2.0;" width="96" x="764.5" y="1230.9336"/><text fill="#000000" font-family="sans-serif" font-size="13" font-weight="bold" lengthAdjust="spacing" textLength="78" x="770.5" y="1247.502">&#28155;&#21152;&#35330;&#21934;&#38917;&#30446;</text><polygon fill="#181818" points="267,1281.5547,277,1285.5547,267,1289.5547,271,1285.5547" style="stroke:#181818;stroke-width:1.0;"/><line style="stroke:#181818;stroke-width:1.0;" x1="28" x2="273" y1="1285.5547" y2="1285.5547"/><text fill="#000000" font-family="sans-serif" font-size="13" lengthAdjust="spacing" textLength="232" x="35" y="1280.8125">addOrderItem(AddOrderItemRequest)</text><polygon fill="#181818" points="542,1310.8652,552,1314.8652,542,1318.8652,546,1314.8652" style="stroke:#181818;stroke-width:1.0;"/><line style="stroke:#181818;stroke-width:1.0;" x1="289" x2="548" y1="1314.8652" y2="1314.8652"/><text fill="#000000" font-family="sans-serif" font-size="13" lengthAdjust="spacing" textLength="246" x="296" y="1310.123">addOrderItem(AddOrderItemCommand)</text><polygon fill="#181818" points="1029.5,1340.1758,1039.5,1344.1758,1029.5,1348.1758,1033.5,1344.1758" style="stroke:#181818;stroke-width:1.0;"/><line style="stroke:#181818;stroke-width:1.0;" x1="564" x2="1035.5" y1="1344.1758" y2="1344.1758"/><text fill="#000000" font-family="sans-serif" font-size="13" lengthAdjust="spacing" textLength="104" x="571" y="1339.4336">findById(orderId)</text><polygon fill="#181818" points="575,1352.1758,565,1356.1758,575,1360.1758,571,1356.1758" style="stroke:#181818;stroke-width:1.0;"/><line style="stroke:#181818;stroke-width:1.0;stroke-dasharray:2.0,2.0;" x1="569" x2="1045.5" y1="1356.1758" y2="1356.1758"/><text fill="#000000" font-family="sans-serif" font-size="13" lengthAdjust="spacing" textLength="35" x="581" y="1369.7441">Order</text><polygon fill="#181818" points="840,1398.7969,850,1402.7969,840,1406.7969,844,1402.7969" style="stroke:#181818;stroke-width:1.0;"/><line style="stroke:#181818;stroke-width:1.0;" x1="564" x2="846" y1="1402.7969" y2="1402.7969"/><text fill="#000000" font-family="sans-serif" font-size="13" lengthAdjust="spacing" textLength="269" x="571" y="1398.0547">createOrderItem(productId, quantity, price)</text><polygon fill="#181818" points="575,1410.7969,565,1414.7969,575,1418.7969,571,1414.7969" style="stroke:#181818;stroke-width:1.0;"/><line style="stroke:#181818;stroke-width:1.0;stroke-dasharray:2.0,2.0;" x1="569" x2="856" y1="1414.7969" y2="1414.7969"/><text fill="#000000" font-family="sans-serif" font-size="13" lengthAdjust="spacing" textLength="63" x="581" y="1428.3652">OrderItem</text><polygon fill="#181818" points="929,1457.418,939,1461.418,929,1465.418,933,1461.418" style="stroke:#181818;stroke-width:1.0;"/><line style="stroke:#181818;stroke-width:1.0;" x1="564" x2="935" y1="1461.418" y2="1461.418"/><text fill="#000000" font-family="sans-serif" font-size="13" lengthAdjust="spacing" textLength="120" x="571" y="1456.6758">addItem(orderItem)</text><polygon fill="#181818" points="1504,1486.7285,1514,1490.7285,1504,1494.7285,1508,1490.7285" style="stroke:#181818;stroke-width:1.0;"/><line style="stroke:#181818;stroke-width:1.0;" x1="951" x2="1510" y1="1490.7285" y2="1490.7285"/><text fill="#000000" font-family="sans-serif" font-size="13" lengthAdjust="spacing" textLength="192" x="958" y="1485.9863">publish(OrderItemAddedEvent)</text><polygon fill="#181818" points="962,1498.7285,952,1502.7285,962,1506.7285,958,1502.7285" style="stroke:#181818;stroke-width:1.0;"/><line style="stroke:#181818;stroke-width:1.0;stroke-dasharray:2.0,2.0;" x1="956" x2="1520" y1="1502.7285" y2="1502.7285"/><text fill="#000000" font-family="sans-serif" font-size="13" lengthAdjust="spacing" textLength="27" x="968" y="1516.2969">void</text><polygon fill="#181818" points="575,1528.0391,565,1532.0391,575,1536.0391,571,1532.0391" style="stroke:#181818;stroke-width:1.0;"/><line style="stroke:#181818;stroke-width:1.0;stroke-dasharray:2.0,2.0;" x1="569" x2="945" y1="1532.0391" y2="1532.0391"/><text fill="#000000" font-family="sans-serif" font-size="13" lengthAdjust="spacing" textLength="27" x="581" y="1545.6074">void</text><polygon fill="#181818" points="1029.5,1574.6602,1039.5,1578.6602,1029.5,1582.6602,1033.5,1578.6602" style="stroke:#181818;stroke-width:1.0;"/><line style="stroke:#181818;stroke-width:1.0;" x1="564" x2="1035.5" y1="1578.6602" y2="1578.6602"/><text fill="#000000" font-family="sans-serif" font-size="13" lengthAdjust="spacing" textLength="69" x="571" y="1573.918">save(order)</text><polygon fill="#181818" points="575,1586.6602,565,1590.6602,575,1594.6602,571,1590.6602" style="stroke:#181818;stroke-width:1.0;"/><line style="stroke:#181818;stroke-width:1.0;stroke-dasharray:2.0,2.0;" x1="569" x2="1045.5" y1="1590.6602" y2="1590.6602"/><text fill="#000000" font-family="sans-serif" font-size="13" lengthAdjust="spacing" textLength="35" x="581" y="1604.2285">Order</text><polygon fill="#181818" points="300,1615.9707,290,1619.9707,300,1623.9707,296,1619.9707" style="stroke:#181818;stroke-width:1.0;"/><line style="stroke:#181818;stroke-width:1.0;stroke-dasharray:2.0,2.0;" x1="294" x2="558" y1="1619.9707" y2="1619.9707"/><text fill="#000000" font-family="sans-serif" font-size="13" lengthAdjust="spacing" textLength="95" x="306" y="1633.5391">OrderResponse</text><polygon fill="#181818" points="39,1645.2813,29,1649.2813,39,1653.2813,35,1649.2813" style="stroke:#181818;stroke-width:1.0;"/><line style="stroke:#181818;stroke-width:1.0;stroke-dasharray:2.0,2.0;" x1="33" x2="283" y1="1649.2813" y2="1649.2813"/><text fill="#000000" font-family="sans-serif" font-size="13" lengthAdjust="spacing" textLength="95" x="45" y="1662.8496">OrderResponse</text><!--SRC=[pLNBQXin5DthAuHN4qX-mE20C_Q0mUcOyHUe8zKH7OycaiR1sq9BIJTPD7tGHRFeeb1ewQfG_qvjftzHFSQsPlnSf133c1dfd7klpdr8FATfXZWQGav4nb91peaGQ43EICAkcfopAoXvJW10iMGSrlo4abJM81BG1uefQKmpb4fO2pact6Ufv2n923UGS1EccMK9ZP6aBEqJFg8niTXcVmCuC7x75X5i0DYT3HiHoPYWAt9KnlJGUAXEKaJGOzmUgjVlbN5TDg12VOegibj5jjWGqRGzKbPx-TE4YeiYkbQx1q2Z0QUJt_DlR-w_lfY- -muR3U33arCbKHt6d219JDIUltgFo6LEX3pIsjEHMjLwWj3IclsjF9yDXoZ5Bazf2zIVOGPbeWiBG1Z0auLvimymSVUNLkeGOToHP2WyglzTCo1S6HanYaisLYQYEXHeH3oc_RZy28JHhZ0YDmnx5g_g_rJBNeUPpOHdXJ5GR5Bau7L-r6CzhaUijmyuK97B8dEscKeuamFV07VYV5CiznzlvpUlPcz__9byA1LBnbciUjGcpqZNmTjBP1_QBGoLZsSqnMVZ3ju4FJmhgecMdei-MqkoRZJrh0mMG2L9daZNi4O2b4XenPYzlfbUVmPG_LP5a6TOGViIoLnuVlWaw4JdxTQHGJcPCgIrsh0q_mAbWsLnb8Yw0lH2jKZqMgLG2W-bOgd0R1Zk0RfQByIv3g154ZeYVBmGh1I8dZbweUiAjs3OOrIzQGf912dKctxvERjzlqkzeDdfFbxfI8eVS80ySC_EVascrtTsmF-zUpd_L1xpQc0Q2tfgUatdO- -WtyhSC-eVhAChbuQ9GpKupcFPmSVmCbSt89NZOzNrwexSSwLezjvhfOXNlHqosJLEwVA_PliZgxL_]--></g></svg>