<?xml version="1.0" encoding="us-ascii" standalone="no"?><svg xmlns="http://www.w3.org/2000/svg" xmlns:xlink="http://www.w3.org/1999/xlink" contentStyleType="text/css" height="923px" preserveAspectRatio="none" style="width:3344px;height:923px;background:#FFFFFF;" version="1.1" viewBox="0 0 3344 923" width="3344px" zoomAndPan="magnify"><defs/><g><text fill="#000000" font-family="sans-serif" font-size="14" font-weight="bold" lengthAdjust="spacing" textLength="98" x="1616" y="23.5352">&#35330;&#21934;&#31995;&#32113;&#32068;&#20214;&#22294;</text><!--cluster interfaces--><g id="cluster_interfaces"><rect fill="none" height="152.95" rx="2.5" ry="2.5" style="stroke:#444444;stroke-width:1.0;stroke-dasharray:7.0,7.0;" width="562" x="1123" y="44.4883"/><text fill="#444444" font-family="sans-serif" font-size="16" font-weight="bold" lengthAdjust="spacing" textLength="48" x="1380" y="61.957">&#20171;&#38754;&#23652;</text><text fill="#444444" font-family="sans-serif" font-size="12" font-weight="bold" lengthAdjust="spacing" textLength="69" x="1369.5" y="76.9336">[Container]</text></g><!--cluster application--><g id="cluster_application"><rect fill="none" height="152.95" rx="2.5" ry="2.5" style="stroke:#444444;stroke-width:1.0;stroke-dasharray:7.0,7.0;" width="526" x="573" y="44.4883"/><text fill="#444444" font-family="sans-serif" font-size="16" font-weight="bold" lengthAdjust="spacing" textLength="48" x="812" y="61.957">&#25033;&#29992;&#23652;</text><text fill="#444444" font-family="sans-serif" font-size="12" font-weight="bold" lengthAdjust="spacing" textLength="69" x="801.5" y="76.9336">[Container]</text></g><!--cluster ports--><g id="cluster_ports"><rect fill="none" height="152.95" rx="2.5" ry="2.5" style="stroke:#444444;stroke-width:1.0;stroke-dasharray:7.0,7.0;" width="1485" x="792" y="245.4383"/><text fill="#444444" font-family="sans-serif" font-size="16" font-weight="bold" lengthAdjust="spacing" textLength="32" x="1518.5" y="262.907">&#31471;&#21475;</text><text fill="#444444" font-family="sans-serif" font-size="12" font-weight="bold" lengthAdjust="spacing" textLength="69" x="1500" y="277.8836">[Container]</text></g><!--cluster domain--><g id="cluster_domain"><rect fill="none" height="478.86" rx="2.5" ry="2.5" style="stroke:#444444;stroke-width:1.0;stroke-dasharray:7.0,7.0;" width="590" x="7" y="245.4383"/><text fill="#444444" font-family="sans-serif" font-size="16" font-weight="bold" lengthAdjust="spacing" textLength="48" x="278" y="262.907">&#38936;&#22495;&#23652;</text><text fill="#444444" font-family="sans-serif" font-size="12" font-weight="bold" lengthAdjust="spacing" textLength="69" x="267.5" y="277.8836">[Container]</text></g><!--cluster infrastructure--><g id="cluster_infrastructure"><rect fill="none" height="353.9" rx="2.5" ry="2.5" style="stroke:#444444;stroke-width:1.0;stroke-dasharray:7.0,7.0;" width="1037" x="2301" y="44.4883"/><text fill="#444444" font-family="sans-serif" font-size="16" font-weight="bold" lengthAdjust="spacing" textLength="80" x="2779.5" y="61.957">&#22522;&#30990;&#35373;&#26045;&#23652;</text><text fill="#444444" font-family="sans-serif" font-size="12" font-weight="bold" lengthAdjust="spacing" textLength="69" x="2785" y="76.9336">[Container]</text></g><!--entity rest_api--><g id="elem_rest_api"><rect fill="#85BBF0" height="85.9531" rx="2.5" ry="2.5" style="stroke:#78A8D8;stroke-width:0.5;" width="141" x="1138.5" y="95.4883"/><text fill="#000000" font-family="sans-serif" font-size="16" font-weight="bold" lengthAdjust="spacing" textLength="41" x="1148.5" y="120.957">REST</text><text fill="#000000" font-family="sans-serif" font-size="16" font-weight="bold" lengthAdjust="spacing" textLength="5" x="1189.5" y="120.957">&#160;</text><text fill="#000000" font-family="sans-serif" font-size="16" font-weight="bold" lengthAdjust="spacing" textLength="75" x="1194.5" y="120.957">API&#25511;&#21046;&#22120;</text><text fill="#000000" font-family="sans-serif" font-size="12" font-style="italic" lengthAdjust="spacing" textLength="40" x="1172" y="135.9336">[Spring</text><text fill="#000000" font-family="sans-serif" font-size="12" font-style="italic" lengthAdjust="spacing" textLength="4" x="1212" y="135.9336">&#160;</text><text fill="#000000" font-family="sans-serif" font-size="12" font-style="italic" lengthAdjust="spacing" textLength="30" x="1216" y="135.9336">MVC]</text><text fill="#000000" font-family="sans-serif" font-size="14" lengthAdjust="spacing" textLength="4" x="1207" y="152">&#160;</text><text fill="#000000" font-family="sans-serif" font-size="14" lengthAdjust="spacing" textLength="92" x="1163" y="168.4883">&#25552;&#20379;HTTP&#31471;&#40670;</text></g><!--entity order_controller--><g id="elem_order_controller"><rect fill="#85BBF0" height="85.9531" rx="2.5" ry="2.5" style="stroke:#78A8D8;stroke-width:0.5;" width="148" x="1521" y="95.4883"/><text fill="#000000" font-family="sans-serif" font-size="16" font-weight="bold" lengthAdjust="spacing" textLength="128" x="1531" y="120.957">OrderController</text><text fill="#000000" font-family="sans-serif" font-size="12" font-style="italic" lengthAdjust="spacing" textLength="64" x="1563" y="135.9336">[Controller]</text><text fill="#000000" font-family="sans-serif" font-size="14" lengthAdjust="spacing" textLength="4" x="1593" y="152">&#160;</text><text fill="#000000" font-family="sans-serif" font-size="14" lengthAdjust="spacing" textLength="112" x="1539" y="168.4883">&#34389;&#29702;&#35330;&#21934;&#30456;&#38364;&#35531;&#27714;</text></g><!--entity payment_controller--><g id="elem_payment_controller"><rect fill="#85BBF0" height="85.9531" rx="2.5" ry="2.5" style="stroke:#78A8D8;stroke-width:0.5;" width="171" x="1314.5" y="95.4883"/><text fill="#000000" font-family="sans-serif" font-size="16" font-weight="bold" lengthAdjust="spacing" textLength="151" x="1324.5" y="120.957">PaymentController</text><text fill="#000000" font-family="sans-serif" font-size="12" font-style="italic" lengthAdjust="spacing" textLength="64" x="1368" y="135.9336">[Controller]</text><text fill="#000000" font-family="sans-serif" font-size="14" lengthAdjust="spacing" textLength="4" x="1398" y="152">&#160;</text><text fill="#000000" font-family="sans-serif" font-size="14" lengthAdjust="spacing" textLength="112" x="1344" y="168.4883">&#34389;&#29702;&#25903;&#20184;&#30456;&#38364;&#35531;&#27714;</text></g><!--entity order_app_service--><g id="elem_order_app_service"><rect fill="#85BBF0" height="85.9531" rx="2.5" ry="2.5" style="stroke:#78A8D8;stroke-width:0.5;" width="218" x="865" y="95.4883"/><text fill="#000000" font-family="sans-serif" font-size="16" font-weight="bold" lengthAdjust="spacing" textLength="198" x="875" y="120.957">OrderApplicationService</text><text fill="#000000" font-family="sans-serif" font-size="12" font-style="italic" lengthAdjust="spacing" textLength="48" x="950" y="135.9336">[Service]</text><text fill="#000000" font-family="sans-serif" font-size="14" lengthAdjust="spacing" textLength="4" x="972" y="152">&#160;</text><text fill="#000000" font-family="sans-serif" font-size="14" lengthAdjust="spacing" textLength="112" x="918" y="168.4883">&#34389;&#29702;&#35330;&#21934;&#26989;&#21209;&#37007;&#36655;</text></g><!--entity payment_app_service--><g id="elem_payment_app_service"><rect fill="#85BBF0" height="85.9531" rx="2.5" ry="2.5" style="stroke:#78A8D8;stroke-width:0.5;" width="241" x="588.5" y="95.4883"/><text fill="#000000" font-family="sans-serif" font-size="16" font-weight="bold" lengthAdjust="spacing" textLength="221" x="598.5" y="120.957">PaymentApplicationService</text><text fill="#000000" font-family="sans-serif" font-size="12" font-style="italic" lengthAdjust="spacing" textLength="48" x="685" y="135.9336">[Service]</text><text fill="#000000" font-family="sans-serif" font-size="14" lengthAdjust="spacing" textLength="4" x="707" y="152">&#160;</text><text fill="#000000" font-family="sans-serif" font-size="14" lengthAdjust="spacing" textLength="112" x="653" y="168.4883">&#34389;&#29702;&#25903;&#20184;&#26989;&#21209;&#37007;&#36655;</text></g><!--entity in_port_order--><g id="elem_in_port_order"><rect fill="#85BBF0" height="85.9531" rx="2.5" ry="2.5" style="stroke:#78A8D8;stroke-width:0.5;" width="241" x="1107.5" y="296.4383"/><text fill="#000000" font-family="sans-serif" font-size="16" font-weight="bold" lengthAdjust="spacing" textLength="221" x="1117.5" y="321.907">OrderManagementUseCase</text><text fill="#000000" font-family="sans-serif" font-size="12" font-style="italic" lengthAdjust="spacing" textLength="31" x="1212.5" y="336.8836">[Port]</text><text fill="#000000" font-family="sans-serif" font-size="14" lengthAdjust="spacing" textLength="4" x="1226" y="352.95">&#160;</text><text fill="#000000" font-family="sans-serif" font-size="14" lengthAdjust="spacing" textLength="84" x="1186" y="369.4383">&#35330;&#21934;&#20837;&#31449;&#31471;&#21475;</text></g><!--entity in_port_payment--><g id="elem_in_port_payment"><rect fill="#85BBF0" height="85.9531" rx="2.5" ry="2.5" style="stroke:#78A8D8;stroke-width:0.5;" width="264" x="808" y="296.4383"/><text fill="#000000" font-family="sans-serif" font-size="16" font-weight="bold" lengthAdjust="spacing" textLength="244" x="818" y="321.907">PaymentManagementUseCase</text><text fill="#000000" font-family="sans-serif" font-size="12" font-style="italic" lengthAdjust="spacing" textLength="31" x="924.5" y="336.8836">[Port]</text><text fill="#000000" font-family="sans-serif" font-size="14" lengthAdjust="spacing" textLength="4" x="938" y="352.95">&#160;</text><text fill="#000000" font-family="sans-serif" font-size="14" lengthAdjust="spacing" textLength="84" x="898" y="369.4383">&#25903;&#20184;&#20837;&#31449;&#31471;&#21475;</text></g><!--entity out_port_db_order--><g id="elem_out_port_db_order"><rect fill="#85BBF0" height="85.9531" rx="2.5" ry="2.5" style="stroke:#78A8D8;stroke-width:0.5;" width="193" x="2067.5" y="296.4383"/><text fill="#000000" font-family="sans-serif" font-size="16" font-weight="bold" lengthAdjust="spacing" textLength="173" x="2077.5" y="321.907">OrderPersistencePort</text><text fill="#000000" font-family="sans-serif" font-size="12" font-style="italic" lengthAdjust="spacing" textLength="31" x="2148.5" y="336.8836">[Port]</text><text fill="#000000" font-family="sans-serif" font-size="14" lengthAdjust="spacing" textLength="4" x="2162" y="352.95">&#160;</text><text fill="#000000" font-family="sans-serif" font-size="14" lengthAdjust="spacing" textLength="84" x="2093" y="369.4383">&#35330;&#21934;&#20986;&#31449;&#31471;&#21475;</text><text fill="#000000" font-family="sans-serif" font-size="14" lengthAdjust="spacing" textLength="4" x="2177" y="369.4383">&#160;</text><text fill="#000000" font-family="sans-serif" font-size="14" lengthAdjust="spacing" textLength="8" x="2181" y="369.4383">-</text><text fill="#000000" font-family="sans-serif" font-size="14" lengthAdjust="spacing" textLength="4" x="2189" y="369.4383">&#160;</text><text fill="#000000" font-family="sans-serif" font-size="14" lengthAdjust="spacing" textLength="42" x="2193" y="369.4383">&#25345;&#20037;&#21270;</text></g><!--entity out_port_db_payment--><g id="elem_out_port_db_payment"><rect fill="#85BBF0" height="85.9531" rx="2.5" ry="2.5" style="stroke:#78A8D8;stroke-width:0.5;" width="216" x="1598" y="296.4383"/><text fill="#000000" font-family="sans-serif" font-size="16" font-weight="bold" lengthAdjust="spacing" textLength="196" x="1608" y="321.907">PaymentPersistencePort</text><text fill="#000000" font-family="sans-serif" font-size="12" font-style="italic" lengthAdjust="spacing" textLength="31" x="1690.5" y="336.8836">[Port]</text><text fill="#000000" font-family="sans-serif" font-size="14" lengthAdjust="spacing" textLength="4" x="1704" y="352.95">&#160;</text><text fill="#000000" font-family="sans-serif" font-size="14" lengthAdjust="spacing" textLength="84" x="1635" y="369.4383">&#25903;&#20184;&#20986;&#31449;&#31471;&#21475;</text><text fill="#000000" font-family="sans-serif" font-size="14" lengthAdjust="spacing" textLength="4" x="1719" y="369.4383">&#160;</text><text fill="#000000" font-family="sans-serif" font-size="14" lengthAdjust="spacing" textLength="8" x="1723" y="369.4383">-</text><text fill="#000000" font-family="sans-serif" font-size="14" lengthAdjust="spacing" textLength="4" x="1731" y="369.4383">&#160;</text><text fill="#000000" font-family="sans-serif" font-size="14" lengthAdjust="spacing" textLength="42" x="1735" y="369.4383">&#25345;&#20037;&#21270;</text></g><!--entity out_port_payment--><g id="elem_out_port_payment"><rect fill="#85BBF0" height="85.9531" rx="2.5" ry="2.5" style="stroke:#78A8D8;stroke-width:0.5;" width="180" x="1383" y="296.4383"/><text fill="#000000" font-family="sans-serif" font-size="16" font-weight="bold" lengthAdjust="spacing" textLength="160" x="1393" y="321.907">PaymentServicePort</text><text fill="#000000" font-family="sans-serif" font-size="12" font-style="italic" lengthAdjust="spacing" textLength="31" x="1457.5" y="336.8836">[Port]</text><text fill="#000000" font-family="sans-serif" font-size="14" lengthAdjust="spacing" textLength="4" x="1471" y="352.95">&#160;</text><text fill="#000000" font-family="sans-serif" font-size="14" lengthAdjust="spacing" textLength="56" x="1423" y="369.4383">&#20986;&#31449;&#31471;&#21475;</text><text fill="#000000" font-family="sans-serif" font-size="14" lengthAdjust="spacing" textLength="4" x="1479" y="369.4383">&#160;</text><text fill="#000000" font-family="sans-serif" font-size="14" lengthAdjust="spacing" textLength="8" x="1483" y="369.4383">-</text><text fill="#000000" font-family="sans-serif" font-size="14" lengthAdjust="spacing" textLength="4" x="1491" y="369.4383">&#160;</text><text fill="#000000" font-family="sans-serif" font-size="14" lengthAdjust="spacing" textLength="28" x="1495" y="369.4383">&#25903;&#20184;</text></g><!--entity out_port_logistics--><g id="elem_out_port_logistics"><rect fill="#85BBF0" height="85.9531" rx="2.5" ry="2.5" style="stroke:#78A8D8;stroke-width:0.5;" width="183" x="1849.5" y="296.4383"/><text fill="#000000" font-family="sans-serif" font-size="16" font-weight="bold" lengthAdjust="spacing" textLength="163" x="1859.5" y="321.907">LogisticsServicePort</text><text fill="#000000" font-family="sans-serif" font-size="12" font-style="italic" lengthAdjust="spacing" textLength="31" x="1925.5" y="336.8836">[Port]</text><text fill="#000000" font-family="sans-serif" font-size="14" lengthAdjust="spacing" textLength="4" x="1939" y="352.95">&#160;</text><text fill="#000000" font-family="sans-serif" font-size="14" lengthAdjust="spacing" textLength="56" x="1891" y="369.4383">&#20986;&#31449;&#31471;&#21475;</text><text fill="#000000" font-family="sans-serif" font-size="14" lengthAdjust="spacing" textLength="4" x="1947" y="369.4383">&#160;</text><text fill="#000000" font-family="sans-serif" font-size="14" lengthAdjust="spacing" textLength="8" x="1951" y="369.4383">-</text><text fill="#000000" font-family="sans-serif" font-size="14" lengthAdjust="spacing" textLength="4" x="1959" y="369.4383">&#160;</text><text fill="#000000" font-family="sans-serif" font-size="14" lengthAdjust="spacing" textLength="28" x="1963" y="369.4383">&#29289;&#27969;</text></g><!--entity order_aggregate--><g id="elem_order_aggregate"><rect fill="#85BBF0" height="85.9531" rx="2.5" ry="2.5" style="stroke:#78A8D8;stroke-width:0.5;" width="90" x="305" y="460.3883"/><text fill="#000000" font-family="sans-serif" font-size="16" font-weight="bold" lengthAdjust="spacing" textLength="47" x="326.5" y="485.857">Order</text><text fill="#000000" font-family="sans-serif" font-size="12" font-style="italic" lengthAdjust="spacing" textLength="67" x="316.5" y="500.8336">[Aggregate]</text><text fill="#000000" font-family="sans-serif" font-size="14" lengthAdjust="spacing" textLength="4" x="348" y="516.9">&#160;</text><text fill="#000000" font-family="sans-serif" font-size="14" lengthAdjust="spacing" textLength="70" x="315" y="533.3883">&#35330;&#21934;&#32858;&#21512;&#26681;</text></g><!--entity payment_aggregate--><g id="elem_payment_aggregate"><rect fill="#85BBF0" height="85.9531" rx="2.5" ry="2.5" style="stroke:#78A8D8;stroke-width:0.5;" width="90" x="462" y="460.3883"/><text fill="#000000" font-family="sans-serif" font-size="16" font-weight="bold" lengthAdjust="spacing" textLength="70" x="472" y="485.857">Payment</text><text fill="#000000" font-family="sans-serif" font-size="12" font-style="italic" lengthAdjust="spacing" textLength="67" x="473.5" y="500.8336">[Aggregate]</text><text fill="#000000" font-family="sans-serif" font-size="14" lengthAdjust="spacing" textLength="4" x="505" y="516.9">&#160;</text><text fill="#000000" font-family="sans-serif" font-size="14" lengthAdjust="spacing" textLength="70" x="472" y="533.3883">&#25903;&#20184;&#32858;&#21512;&#26681;</text></g><!--entity order_factory--><g id="elem_order_factory"><rect fill="#85BBF0" height="85.9531" rx="2.5" ry="2.5" style="stroke:#78A8D8;stroke-width:0.5;" width="126" x="272" y="296.4383"/><text fill="#000000" font-family="sans-serif" font-size="16" font-weight="bold" lengthAdjust="spacing" textLength="106" x="282" y="321.907">OrderFactory</text><text fill="#000000" font-family="sans-serif" font-size="12" font-style="italic" lengthAdjust="spacing" textLength="49" x="310.5" y="336.8836">[Factory]</text><text fill="#000000" font-family="sans-serif" font-size="14" lengthAdjust="spacing" textLength="4" x="333" y="352.95">&#160;</text><text fill="#000000" font-family="sans-serif" font-size="14" lengthAdjust="spacing" textLength="56" x="307" y="369.4383">&#24314;&#31435;&#35330;&#21934;</text></g><!--entity domain_events--><g id="elem_domain_events"><rect fill="#85BBF0" height="85.9531" rx="2.5" ry="2.5" style="stroke:#78A8D8;stroke-width:0.5;" width="138" x="346" y="622.3483"/><text fill="#000000" font-family="sans-serif" font-size="16" font-weight="bold" lengthAdjust="spacing" textLength="118" x="356" y="647.817">DomainEvents</text><text fill="#000000" font-family="sans-serif" font-size="12" font-style="italic" lengthAdjust="spacing" textLength="45" x="392.5" y="662.7936">[Events]</text><text fill="#000000" font-family="sans-serif" font-size="14" lengthAdjust="spacing" textLength="4" x="413" y="678.86">&#160;</text><text fill="#000000" font-family="sans-serif" font-size="14" lengthAdjust="spacing" textLength="56" x="387" y="695.3483">&#38936;&#22495;&#20107;&#20214;</text></g><!--entity order_service--><g id="elem_order_service"><rect fill="#85BBF0" height="85.9531" rx="2.5" ry="2.5" style="stroke:#78A8D8;stroke-width:0.5;" width="214" x="23" y="296.4383"/><text fill="#000000" font-family="sans-serif" font-size="16" font-weight="bold" lengthAdjust="spacing" textLength="194" x="33" y="321.907">OrderProcessingService</text><text fill="#000000" font-family="sans-serif" font-size="12" font-style="italic" lengthAdjust="spacing" textLength="48" x="106" y="336.8836">[Service]</text><text fill="#000000" font-family="sans-serif" font-size="14" lengthAdjust="spacing" textLength="4" x="128" y="352.95">&#160;</text><text fill="#000000" font-family="sans-serif" font-size="14" lengthAdjust="spacing" textLength="84" x="88" y="369.4383">&#35330;&#21934;&#34389;&#29702;&#26381;&#21209;</text></g><!--entity payment_service--><g id="elem_payment_service"><rect fill="#85BBF0" height="85.9531" rx="2.5" ry="2.5" style="stroke:#78A8D8;stroke-width:0.5;" width="147" x="433.5" y="296.4383"/><text fill="#000000" font-family="sans-serif" font-size="16" font-weight="bold" lengthAdjust="spacing" textLength="127" x="443.5" y="321.907">PaymentService</text><text fill="#000000" font-family="sans-serif" font-size="12" font-style="italic" lengthAdjust="spacing" textLength="48" x="483" y="336.8836">[Service]</text><text fill="#000000" font-family="sans-serif" font-size="14" lengthAdjust="spacing" textLength="4" x="505" y="352.95">&#160;</text><text fill="#000000" font-family="sans-serif" font-size="14" lengthAdjust="spacing" textLength="84" x="465" y="369.4383">&#25903;&#20184;&#34389;&#29702;&#26381;&#21209;</text></g><!--entity order_persistence--><g id="elem_order_persistence"><rect fill="#85BBF0" height="85.9531" rx="2.5" ry="2.5" style="stroke:#78A8D8;stroke-width:0.5;" width="225" x="3096.5" y="95.4883"/><text fill="#000000" font-family="sans-serif" font-size="16" font-weight="bold" lengthAdjust="spacing" textLength="205" x="3106.5" y="120.957">OrderPersistenceAdapter</text><text fill="#000000" font-family="sans-serif" font-size="12" font-style="italic" lengthAdjust="spacing" textLength="55" x="3181.5" y="135.9336">[Adapter]</text><text fill="#000000" font-family="sans-serif" font-size="14" lengthAdjust="spacing" textLength="4" x="3207" y="152">&#160;</text><text fill="#000000" font-family="sans-serif" font-size="14" lengthAdjust="spacing" textLength="112" x="3153" y="168.4883">&#35330;&#21934;&#25345;&#20037;&#21270;&#36969;&#37197;&#22120;</text></g><!--entity payment_persistence--><g id="elem_payment_persistence"><rect fill="#85BBF0" height="85.9531" rx="2.5" ry="2.5" style="stroke:#78A8D8;stroke-width:0.5;" width="248" x="2564" y="95.4883"/><text fill="#000000" font-family="sans-serif" font-size="16" font-weight="bold" lengthAdjust="spacing" textLength="228" x="2574" y="120.957">PaymentPersistenceAdapter</text><text fill="#000000" font-family="sans-serif" font-size="12" font-style="italic" lengthAdjust="spacing" textLength="55" x="2660.5" y="135.9336">[Adapter]</text><text fill="#000000" font-family="sans-serif" font-size="14" lengthAdjust="spacing" textLength="4" x="2686" y="152">&#160;</text><text fill="#000000" font-family="sans-serif" font-size="14" lengthAdjust="spacing" textLength="112" x="2632" y="168.4883">&#25903;&#20184;&#25345;&#20037;&#21270;&#36969;&#37197;&#22120;</text></g><!--entity payment_adapter--><g id="elem_payment_adapter"><rect fill="#85BBF0" height="85.9531" rx="2.5" ry="2.5" style="stroke:#78A8D8;stroke-width:0.5;" width="212" x="2317" y="95.4883"/><text fill="#000000" font-family="sans-serif" font-size="16" font-weight="bold" lengthAdjust="spacing" textLength="192" x="2327" y="120.957">PaymentServiceAdapter</text><text fill="#000000" font-family="sans-serif" font-size="12" font-style="italic" lengthAdjust="spacing" textLength="55" x="2395.5" y="135.9336">[Adapter]</text><text fill="#000000" font-family="sans-serif" font-size="14" lengthAdjust="spacing" textLength="4" x="2421" y="152">&#160;</text><text fill="#000000" font-family="sans-serif" font-size="14" lengthAdjust="spacing" textLength="98" x="2374" y="168.4883">&#25903;&#20184;&#26381;&#21209;&#36969;&#37197;&#22120;</text></g><!--entity logistics_adapter--><g id="elem_logistics_adapter"><rect fill="#85BBF0" height="85.9531" rx="2.5" ry="2.5" style="stroke:#78A8D8;stroke-width:0.5;" width="215" x="2846.5" y="95.4883"/><text fill="#000000" font-family="sans-serif" font-size="16" font-weight="bold" lengthAdjust="spacing" textLength="195" x="2856.5" y="120.957">LogisticsServiceAdapter</text><text fill="#000000" font-family="sans-serif" font-size="12" font-style="italic" lengthAdjust="spacing" textLength="55" x="2926.5" y="135.9336">[Adapter]</text><text fill="#000000" font-family="sans-serif" font-size="14" lengthAdjust="spacing" textLength="4" x="2952" y="152">&#160;</text><text fill="#000000" font-family="sans-serif" font-size="14" lengthAdjust="spacing" textLength="98" x="2905" y="168.4883">&#29289;&#27969;&#26381;&#21209;&#36969;&#37197;&#22120;</text></g><!--entity jpa_order_repo--><g id="elem_jpa_order_repo"><rect fill="#85BBF0" height="85.9531" rx="2.5" ry="2.5" style="stroke:#78A8D8;stroke-width:0.5;" width="181" x="3118.5" y="296.4383"/><text fill="#000000" font-family="sans-serif" font-size="16" font-weight="bold" lengthAdjust="spacing" textLength="161" x="3128.5" y="321.907">JpaOrderRepository</text><text fill="#000000" font-family="sans-serif" font-size="12" font-style="italic" lengthAdjust="spacing" textLength="69" x="3174.5" y="336.8836">[Repository]</text><text fill="#000000" font-family="sans-serif" font-size="14" lengthAdjust="spacing" textLength="4" x="3207" y="352.95">&#160;</text><text fill="#000000" font-family="sans-serif" font-size="14" lengthAdjust="spacing" textLength="92" x="3163" y="369.4383">&#35330;&#21934;JPA&#20786;&#23384;&#24235;</text></g><!--entity jpa_payment_repo--><g id="elem_jpa_payment_repo"><rect fill="#85BBF0" height="85.9531" rx="2.5" ry="2.5" style="stroke:#78A8D8;stroke-width:0.5;" width="204" x="2586" y="296.4383"/><text fill="#000000" font-family="sans-serif" font-size="16" font-weight="bold" lengthAdjust="spacing" textLength="184" x="2596" y="321.907">JpaPaymentRepository</text><text fill="#000000" font-family="sans-serif" font-size="12" font-style="italic" lengthAdjust="spacing" textLength="69" x="2653.5" y="336.8836">[Repository]</text><text fill="#000000" font-family="sans-serif" font-size="14" lengthAdjust="spacing" textLength="4" x="2686" y="352.95">&#160;</text><text fill="#000000" font-family="sans-serif" font-size="14" lengthAdjust="spacing" textLength="92" x="2642" y="369.4383">&#25903;&#20184;JPA&#20786;&#23384;&#24235;</text></g><!--entity acl--><g id="elem_acl"><rect fill="#85BBF0" height="85.9531" rx="2.5" ry="2.5" style="stroke:#78A8D8;stroke-width:0.5;" width="259" x="2824.5" y="296.4383"/><text fill="#000000" font-family="sans-serif" font-size="16" font-weight="bold" lengthAdjust="spacing" textLength="239" x="2834.5" y="321.907">LogisticsAntiCorruptionLayer</text><text fill="#000000" font-family="sans-serif" font-size="12" font-style="italic" lengthAdjust="spacing" textLength="30" x="2939" y="336.8836">[ACL]</text><text fill="#000000" font-family="sans-serif" font-size="14" lengthAdjust="spacing" textLength="4" x="2952" y="352.95">&#160;</text><text fill="#000000" font-family="sans-serif" font-size="14" lengthAdjust="spacing" textLength="70" x="2919" y="369.4383">&#29289;&#27969;&#38450;&#33104;&#23652;</text></g><!--link order_controller to in_port_order--><g id="link_order_controller_in_port_order"><path d="M1546.84,181.7683 C1533.49,191.2383 1518.4,200.0683 1503,205.4383 C1468.76,217.3783 1372.74,197.8383 1340,213.4383 C1306.1,229.5883 1277.95,261.1583 1258.35,288.5183 " fill="none" id="order_controller-to-in_port_order" style="stroke:#666666;stroke-width:1.0;"/><polygon fill="#666666" points="1253.91,294.8683,1260.9462,290.0214,1256.0243,286.59,1253.91,294.8683" style="stroke:#666666;stroke-width:1.0;"/><text fill="#666666" font-family="sans-serif" font-size="12" font-weight="bold" lengthAdjust="spacing" textLength="24" x="1341" y="226.0398">&#20351;&#29992;</text></g><!--link payment_controller to in_port_payment--><g id="link_payment_controller_in_port_payment"><path d="M1345.49,181.8583 C1330.54,191.3283 1313.81,200.1283 1297,205.4383 C1256.7,218.1683 1146.81,199.2583 1107,213.4383 C1062.12,229.4283 1019.27,261.9883 988.21,289.8583 " fill="none" id="payment_controller-to-in_port_payment" style="stroke:#666666;stroke-width:1.0;"/><polygon fill="#666666" points="982.49,295.0783,990.4249,291.91,986.3851,287.4738,982.49,295.0783" style="stroke:#666666;stroke-width:1.0;"/><text fill="#666666" font-family="sans-serif" font-size="12" font-weight="bold" lengthAdjust="spacing" textLength="24" x="1108" y="226.0398">&#20351;&#29992;</text></g><!--link order_app_service to in_port_order--><g id="link_order_app_service_in_port_order"><path d="M982.39,181.6783 C988.07,199.1983 997.48,218.0683 1013,229.4383 C1026.87,239.6083 1073.95,231.2583 1090,237.4383 C1121.27,249.4783 1151.79,270.5283 1176.14,290.3083 " fill="none" id="order_app_service-to-in_port_order" style="stroke:#666666;stroke-width:1.0;"/><polygon fill="#666666" points="1182,295.1483,1177.7527,287.7347,1173.9253,292.3555,1182,295.1483" style="stroke:#666666;stroke-width:1.0;"/><text fill="#666666" font-family="sans-serif" font-size="12" font-weight="bold" lengthAdjust="spacing" textLength="24" x="1014" y="226.0398">&#23526;&#29694;</text></g><!--link payment_app_service to in_port_payment--><g id="link_payment_app_service_in_port_payment"><path d="M758.27,181.8983 C795.07,213.5883 845.42,256.9483 883.78,289.9983 " fill="none" id="payment_app_service-to-in_port_payment" style="stroke:#666666;stroke-width:1.0;"/><polygon fill="#666666" points="889.66,295.0583,885.5543,287.5654,881.6398,292.1126,889.66,295.0583" style="stroke:#666666;stroke-width:1.0;"/><text fill="#666666" font-family="sans-serif" font-size="12" font-weight="bold" lengthAdjust="spacing" textLength="24" x="811.67" y="226.0398">&#23526;&#29694;</text></g><!--link order_app_service to out_port_db_order--><g id="link_order_app_service_out_port_db_order"><path d="M1053.56,181.7883 C1075.47,191.4583 1099.64,200.3683 1123,205.4383 C1163.18,214.1683 1821.98,210.5983 1863,213.4383 C1946.59,219.2383 1973.71,202.7883 2050,237.4383 C2076.71,249.5683 2101.68,270.1483 2121.41,289.5883 " fill="none" id="order_app_service-to-out_port_db_order" style="stroke:#666666;stroke-width:1.0;"/><polygon fill="#666666" points="2126.82,295.0383,2123.3041,287.2512,2119.0508,291.4831,2126.82,295.0383" style="stroke:#666666;stroke-width:1.0;"/><text fill="#666666" font-family="sans-serif" font-size="12" font-weight="bold" lengthAdjust="spacing" textLength="24" x="2029.48" y="226.0398">&#20351;&#29992;</text></g><!--link order_app_service to out_port_payment--><g id="link_order_app_service_out_port_payment"><path d="M1059.2,181.8683 C1079.7,190.7483 1101.81,199.2783 1123,205.4383 C1192.05,225.5083 1211.63,220.6483 1283,229.4383 C1301.39,231.6983 1349.13,229.7783 1366,237.4383 C1391.8,249.1583 1415.33,269.6783 1433.71,289.1683 " fill="none" id="order_app_service-to-out_port_payment" style="stroke:#666666;stroke-width:1.0;"/><polygon fill="#666666" points="1438.97,294.8883,1435.7618,286.9695,1431.346,291.0316,1438.97,294.8883" style="stroke:#666666;stroke-width:1.0;"/><text fill="#666666" font-family="sans-serif" font-size="12" font-weight="bold" lengthAdjust="spacing" textLength="24" x="1284" y="226.0398">&#20351;&#29992;</text></g><!--link order_app_service to out_port_logistics--><g id="link_order_app_service_out_port_logistics"><path d="M1053.97,181.8783 C1075.77,191.4783 1099.79,200.3383 1123,205.4383 C1176.51,217.2083 1561.49,207.9683 1616,213.4383 C1654.68,217.3283 1663.41,224.6783 1702,229.4383 C1730.73,232.9783 1805.39,226.0483 1832,237.4383 C1858.52,248.7883 1882.67,269.4883 1901.45,289.1983 " fill="none" id="order_app_service-to-out_port_logistics" style="stroke:#666666;stroke-width:1.0;"/><polygon fill="#666666" points="1906.84,295.0083,1903.5918,287.1058,1899.1966,291.1901,1906.84,295.0083" style="stroke:#666666;stroke-width:1.0;"/><text fill="#666666" font-family="sans-serif" font-size="12" font-weight="bold" lengthAdjust="spacing" textLength="24" x="1703" y="226.0398">&#20351;&#29992;</text></g><!--link payment_app_service to out_port_db_payment--><g id="link_payment_app_service_out_port_db_payment"><path d="M782.77,181.8883 C802.96,191.4883 825.28,200.3383 847,205.4383 C903.58,218.7283 1312,209.7083 1370,213.4383 C1381.77,214.1983 1570.12,232.8883 1581,237.4383 C1609.68,249.4383 1637.08,270.1283 1658.87,289.6683 " fill="none" id="payment_app_service-to-out_port_db_payment" style="stroke:#666666;stroke-width:1.0;"/><polygon fill="#666666" points="1664.63,294.9383,1660.7541,287.324,1656.7031,291.75,1664.63,294.9383" style="stroke:#666666;stroke-width:1.0;"/><text fill="#666666" font-family="sans-serif" font-size="12" font-weight="bold" lengthAdjust="spacing" textLength="24" x="1523.27" y="226.0398">&#20351;&#29992;</text></g><!--link order_app_service to order_aggregate--><g id="link_order_app_service_order_aggregate"><path d="M895.36,181.9183 C879.49,190.0283 862.83,198.2283 847,205.4383 C811.78,221.4983 792.74,209.4483 766,237.4383 C711.15,294.8383 767.62,353.9683 708,406.3883 C618.39,485.1883 558.67,424.0683 445,460.3883 C431.33,464.7583 416.98,470.4683 403.7,476.2583 " fill="none" id="order_app_service-to-order_aggregate" style="stroke:#666666;stroke-width:1.0;"/><polygon fill="#666666" points="396.52,479.4483,405.0485,478.9344,402.6077,473.4533,396.52,479.4483" style="stroke:#666666;stroke-width:1.0;"/><text fill="#666666" font-family="sans-serif" font-size="12" font-weight="bold" lengthAdjust="spacing" textLength="24" x="767" y="344.0198">&#20351;&#29992;</text></g><!--link order_app_service to order_factory--><g id="link_order_app_service_order_factory"><path d="M904.57,181.9283 C886.43,191.2083 866.48,199.9083 847,205.4383 C800.8,218.5583 458.5,215.0783 416,237.4383 C394.24,248.8883 376.28,268.9983 362.85,288.2783 " fill="none" id="order_app_service-to-order_factory" style="stroke:#666666;stroke-width:1.0;"/><polygon fill="#666666" points="358.4,294.9183,365.3486,289.9466,360.3662,286.6036,358.4,294.9183" style="stroke:#666666;stroke-width:1.0;"/><text fill="#666666" font-family="sans-serif" font-size="12" font-weight="bold" lengthAdjust="spacing" textLength="24" x="752.63" y="226.0398">&#20351;&#29992;</text></g><!--link payment_app_service to payment_aggregate--><g id="link_payment_app_service_payment_aggregate"><path d="M696.78,181.5383 C679.77,236.1683 645.6,333.1783 598,406.3883 C586.93,423.4183 572.65,440.1383 558.69,454.7283 " fill="none" id="payment_app_service-to-payment_aggregate" style="stroke:#666666;stroke-width:1.0;"/><polygon fill="#666666" points="553.37,460.1983,561.1029,456.5648,556.8071,452.3761,553.37,460.1983" style="stroke:#666666;stroke-width:1.0;"/><text fill="#666666" font-family="sans-serif" font-size="12" font-weight="bold" lengthAdjust="spacing" textLength="24" x="678.18" y="344.0198">&#20351;&#29992;</text></g><!--link order_aggregate to domain_events--><g id="link_order_aggregate_domain_events"><path d="M367.25,546.8083 C375.55,567.2283 385.56,591.8683 394.27,613.2983 " fill="none" id="order_aggregate-to-domain_events" style="stroke:#666666;stroke-width:1.0;"/><polygon fill="#666666" points="397.21,620.5583,396.9762,612.0175,391.418,614.2772,397.21,620.5583" style="stroke:#666666;stroke-width:1.0;"/><text fill="#666666" font-family="sans-serif" font-size="12" font-weight="bold" lengthAdjust="spacing" textLength="48" x="385.45" y="588.9498">&#30332;&#24067;&#20107;&#20214;</text></g><!--link payment_aggregate to domain_events--><g id="link_payment_aggregate_domain_events"><path d="M482.59,546.8083 C470.74,567.4083 456.42,592.3083 444.02,613.8683 " fill="none" id="payment_aggregate-to-domain_events" style="stroke:#666666;stroke-width:1.0;"/><polygon fill="#666666" points="440.12,620.6483,446.7047,615.2039,441.5012,612.2167,440.12,620.6483" style="stroke:#666666;stroke-width:1.0;"/><text fill="#666666" font-family="sans-serif" font-size="12" font-weight="bold" lengthAdjust="spacing" textLength="48" x="464.76" y="588.9498">&#30332;&#24067;&#20107;&#20214;</text></g><!--link order_factory to order_aggregate--><g id="link_order_factory_order_aggregate"><path d="M338.9,382.5483 C340.84,403.4583 343.2,428.8983 345.24,450.9483 " fill="none" id="order_factory-to-order_aggregate" style="stroke:#666666;stroke-width:1.0;"/><polygon fill="#666666" points="345.95,458.6583,348.1934,450.4141,342.2194,450.9718,345.95,458.6583" style="stroke:#666666;stroke-width:1.0;"/><text fill="#666666" font-family="sans-serif" font-size="12" font-weight="bold" lengthAdjust="spacing" textLength="24" x="343.95" y="426.9898">&#24314;&#31435;</text></g><!--link order_service to order_aggregate--><g id="link_order_service_order_aggregate"><path d="M187.52,382.7583 C221.48,407.7583 264.18,439.1883 297.27,463.5583 " fill="none" id="order_service-to-order_aggregate" style="stroke:#666666;stroke-width:1.0;"/><polygon fill="#666666" points="303.39,468.0583,298.7259,460.8996,295.1689,465.7316,303.39,468.0583" style="stroke:#666666;stroke-width:1.0;"/><text fill="#666666" font-family="sans-serif" font-size="12" font-weight="bold" lengthAdjust="spacing" textLength="24" x="247.6" y="426.9898">&#25805;&#20316;</text></g><!--link payment_service to payment_aggregate--><g id="link_payment_service_payment_aggregate"><path d="M507,382.5483 C507,403.4583 507,428.8983 507,450.9483 " fill="none" id="payment_service-to-payment_aggregate" style="stroke:#666666;stroke-width:1.0;"/><polygon fill="#666666" points="507,458.6583,510,450.6583,504,450.6583,507,458.6583" style="stroke:#666666;stroke-width:1.0;"/><text fill="#666666" font-family="sans-serif" font-size="12" font-weight="bold" lengthAdjust="spacing" textLength="24" x="508" y="426.9898">&#25805;&#20316;</text></g><!--link order_persistence to out_port_db_order--><g id="link_order_persistence_out_port_db_order"><path d="M3139.74,181.8283 C3120.72,191.4283 3099.63,200.2983 3079,205.4383 C3033.17,216.8583 2701.19,211.3883 2654,213.4383 C2634.36,214.2883 2319.45,230.6683 2301,237.4383 C2269.44,249.0183 2238.87,270.2483 2214.65,290.2583 " fill="none" id="order_persistence-to-out_port_db_order" style="stroke:#666666;stroke-width:1.0;"/><polygon fill="#666666" points="2208.83,295.1683,2216.8827,292.3128,2213.0196,287.722,2208.83,295.1683" style="stroke:#666666;stroke-width:1.0;"/><text fill="#666666" font-family="sans-serif" font-size="12" font-weight="bold" lengthAdjust="spacing" textLength="24" x="2655" y="226.0398">&#23526;&#29694;</text></g><!--link payment_persistence to out_port_db_payment--><g id="link_payment_persistence_out_port_db_payment"><path d="M2612.36,181.7783 C2591.49,191.4383 2568.4,200.3583 2546,205.4383 C2507.37,214.1983 1869.57,198.2183 1833,213.4383 C1795.77,228.9283 1763.53,261.0483 1740.85,288.8483 " fill="none" id="payment_persistence-to-out_port_db_payment" style="stroke:#666666;stroke-width:1.0;"/><polygon fill="#666666" points="1735.94,294.9983,1743.2716,290.6111,1738.5791,286.8721,1735.94,294.9983" style="stroke:#666666;stroke-width:1.0;"/><text fill="#666666" font-family="sans-serif" font-size="12" font-weight="bold" lengthAdjust="spacing" textLength="24" x="1834" y="226.0398">&#23526;&#29694;</text></g><!--link payment_adapter to out_port_payment--><g id="link_payment_adapter_out_port_payment"><path d="M2316.7,149.2483 C2173.31,162.3883 1909.94,186.2983 1685,205.4383 C1663.01,207.3083 1605.8,203.6783 1586,213.4383 C1552.31,230.0583 1523.98,261.4483 1504.12,288.6183 " fill="none" id="payment_adapter-to-out_port_payment" style="stroke:#666666;stroke-width:1.0;"/><polygon fill="#666666" points="1499.62,294.9183,1506.7131,290.1551,1501.8321,286.6656,1499.62,294.9183" style="stroke:#666666;stroke-width:1.0;"/><text fill="#666666" font-family="sans-serif" font-size="12" font-weight="bold" lengthAdjust="spacing" textLength="24" x="1587" y="226.0398">&#23526;&#29694;</text></g><!--link logistics_adapter to out_port_logistics--><g id="link_logistics_adapter_out_port_logistics"><path d="M2887.58,181.8683 C2869.29,191.4583 2848.97,200.3283 2829,205.4383 C2801.82,212.3983 2352.02,211.9883 2324,213.4383 C2201.92,219.7483 2161.75,187.8983 2050,237.4383 C2023.74,249.0783 1999.7,269.7083 1980.91,289.2883 " fill="none" id="logistics_adapter-to-out_port_logistics" style="stroke:#666666;stroke-width:1.0;"/><polygon fill="#666666" points="1975.53,295.0583,1983.1784,291.2501,1978.7885,287.16,1975.53,295.0583" style="stroke:#666666;stroke-width:1.0;"/><text fill="#666666" font-family="sans-serif" font-size="12" font-weight="bold" lengthAdjust="spacing" textLength="24" x="2325" y="226.0398">&#23526;&#29694;</text></g><!--link order_persistence to jpa_order_repo--><g id="link_order_persistence_jpa_order_repo"><path d="M3209,181.6583 C3209,212.2783 3209,253.8983 3209,286.5483 " fill="none" id="order_persistence-to-jpa_order_repo" style="stroke:#666666;stroke-width:1.0;"/><polygon fill="#666666" points="3209,294.4283,3212,286.4283,3206,286.4283,3209,294.4283" style="stroke:#666666;stroke-width:1.0;"/><text fill="#666666" font-family="sans-serif" font-size="12" font-weight="bold" lengthAdjust="spacing" textLength="24" x="3210" y="226.0398">&#20351;&#29992;</text></g><!--link payment_persistence to jpa_payment_repo--><g id="link_payment_persistence_jpa_payment_repo"><path d="M2688,181.6583 C2688,212.2783 2688,253.8983 2688,286.5483 " fill="none" id="payment_persistence-to-jpa_payment_repo" style="stroke:#666666;stroke-width:1.0;"/><polygon fill="#666666" points="2688,294.4283,2691,286.4283,2685,286.4283,2688,294.4283" style="stroke:#666666;stroke-width:1.0;"/><text fill="#666666" font-family="sans-serif" font-size="12" font-weight="bold" lengthAdjust="spacing" textLength="24" x="2689" y="226.0398">&#20351;&#29992;</text></g><!--link logistics_adapter to acl--><g id="link_logistics_adapter_acl"><path d="M2954,181.6583 C2954,212.2783 2954,253.8983 2954,286.5483 " fill="none" id="logistics_adapter-to-acl" style="stroke:#666666;stroke-width:1.0;"/><polygon fill="#666666" points="2954,294.4283,2957,286.4283,2951,286.4283,2954,294.4283" style="stroke:#666666;stroke-width:1.0;"/><text fill="#666666" font-family="sans-serif" font-size="12" font-weight="bold" lengthAdjust="spacing" textLength="24" x="2955" y="226.0398">&#20351;&#29992;</text></g><text fill="#000000" font-family="sans-serif" font-size="14" font-weight="bold" lengthAdjust="spacing" textLength="51" x="3166" y="761.8334">Legend</text><text fill="#FFFFFF" font-family="sans-serif" font-size="14" lengthAdjust="spacing" textLength="4" x="3217" y="761.8334">&#160;</text><rect fill="#08427B" height="16.4883" style="stroke:none;stroke-width:1.0;" width="147" x="3166" y="764.7866"/><text fill="#FFFFFF" font-family="sans-serif" font-size="14" lengthAdjust="spacing" textLength="48" x="3170" y="778.3217">person</text><rect fill="#1168BD" height="16.4883" style="stroke:none;stroke-width:1.0;" width="147" x="3166" y="781.2748"/><text fill="#FFFFFF" font-family="sans-serif" font-size="14" lengthAdjust="spacing" textLength="47" x="3170" y="794.81">system</text><rect fill="#438DD5" height="16.4883" style="stroke:none;stroke-width:1.0;" width="147" x="3166" y="797.7631"/><text fill="#FFFFFF" font-family="sans-serif" font-size="14" lengthAdjust="spacing" textLength="65" x="3170" y="811.2983">container</text><rect fill="#85BBF0" height="16.4883" style="stroke:none;stroke-width:1.0;" width="147" x="3166" y="814.2514"/><text fill="#FFFFFF" font-family="sans-serif" font-size="14" lengthAdjust="spacing" textLength="78" x="3170" y="827.7866">component</text><rect fill="#686868" height="16.4883" style="stroke:none;stroke-width:1.0;" width="147" x="3166" y="830.7397"/><text fill="#FFFFFF" font-family="sans-serif" font-size="14" lengthAdjust="spacing" textLength="109" x="3170" y="844.2748">external person</text><rect fill="#999999" height="16.4883" style="stroke:none;stroke-width:1.0;" width="147" x="3166" y="847.228"/><text fill="#FFFFFF" font-family="sans-serif" font-size="14" lengthAdjust="spacing" textLength="108" x="3170" y="860.7631">external system</text><rect fill="#B3B3B3" height="16.4883" style="stroke:none;stroke-width:1.0;" width="147" x="3166" y="863.7163"/><text fill="#FFFFFF" font-family="sans-serif" font-size="14" lengthAdjust="spacing" textLength="126" x="3170" y="877.2514">external container</text><rect fill="#CCCCCC" height="16.4883" style="stroke:none;stroke-width:1.0;" width="147" x="3166" y="880.2045"/><text fill="#FFFFFF" font-family="sans-serif" font-size="14" lengthAdjust="spacing" textLength="139" x="3170" y="893.7397">external component</text><line style="stroke:#FFFFFF;stroke-width:1.0;" x1="3166" x2="3313" y1="748.2983" y2="748.2983"/><line style="stroke:#FFFFFF;stroke-width:1.0;" x1="3166" x2="3313" y1="764.7866" y2="764.7866"/><line style="stroke:#FFFFFF;stroke-width:1.0;" x1="3166" x2="3313" y1="781.2748" y2="781.2748"/><line style="stroke:#FFFFFF;stroke-width:1.0;" x1="3166" x2="3313" y1="797.7631" y2="797.7631"/><line style="stroke:#FFFFFF;stroke-width:1.0;" x1="3166" x2="3313" y1="814.2514" y2="814.2514"/><line style="stroke:#FFFFFF;stroke-width:1.0;" x1="3166" x2="3313" y1="830.7397" y2="830.7397"/><line style="stroke:#FFFFFF;stroke-width:1.0;" x1="3166" x2="3313" y1="847.228" y2="847.228"/><line style="stroke:#FFFFFF;stroke-width:1.0;" x1="3166" x2="3313" y1="863.7163" y2="863.7163"/><line style="stroke:#FFFFFF;stroke-width:1.0;" x1="3166" x2="3313" y1="880.2045" y2="880.2045"/><line style="stroke:#FFFFFF;stroke-width:1.0;" x1="3166" x2="3313" y1="896.6928" y2="896.6928"/><line style="stroke:#FFFFFF;stroke-width:1.0;" x1="3166" x2="3166" y1="748.2983" y2="896.6928"/><line style="stroke:#FFFFFF;stroke-width:1.0;" x1="3313" x2="3313" y1="748.2983" y2="896.6928"/><!--SRC=[bLPRRzCm57xlhmXxOPD0lF28a4eODnMejWBYAJAfgOAw979If0dniB6oeJ8s2HWh38Qu5arZ6cW8LWP_9awQVu4Tvz8uJZhsqjZp-SvtFf-BZsYwscpLeNHAFdb2Fgd8nenfw52tJvTAbVBDgzTgoesBjGjAPVByv9MpunEbagtPJIWDUlDuxQltlU_jxNfx2qx_1zvOAvLaGxU1faEad35QUXsWsN5Djo6w3LHe7PF6d7x7V_qExtuOcv3kbIJo5piSHz2o5M1gvDZKv7HDAbSlkay-uwKVkDiR8vlJ9jBqXdJvkanNxiggy-VLXLgjwctj-FqtOnCSd87gX8PA226ZsOI8s5obMtAyGs7Igq7tkRVwC8pjrK__nSPWg-FkpcV0JJ0xGtxJy5MsETg1-sp7wQzp3kuBrGEcsTHKO6k6JeDUVEGzwudbO_6Iyue5qLrDXL70vGHYclqdK3Fv78xQ_RYDErr_VcNmUoStwhIJCEn3kc6nSsx4iPi6icdIa0l6A-y58MkwGiyeGUXHk9U13XgGChfcGHbOWUygEHPm28B4xO_ULZU2pG4DWqq2B0HcOHK26osR8TTlfHbN8R8qouQw2YCuZk_YVWmh7PVSntFEhpP-l5Re8iE_m4t8_h_TP7o4rytZyyY1ktpOfj4WH3MLNdub-ZuSjFVeYxitbvjITME6x10p_-qwtjmihAH60y46iECwejxAqMPoEOEvbtXroNtxAxzSXf12dJ9OJ99yBCQ9j57RGBCHetDiIUs7Fd6VAD9Xv38uJ005tYKBAk_PO3qPBAbnyiKKSlOxfBVdqE4QJHKPfCjRf4ddD02c5si36yka0UHAbkakOiHGjJJY_PmnT1i1oqOjrMuX2emtzxqFJmQzRNVje2WFpAHi10LRhWFJ3dCZ-GnxQLH0_jmNlxrCnrXUl6adsO8LkmbxwU7T06QRaRKGFj0r7pikrY5qlcZ5-AnMH-7VCG5hbmg2fa7CBfaWk8KfihIqAElJAtO1bwfblF0DRw_Z_IqXRgHBWXpgKeJDP2d41cfpM8MoRckoWL3BfDEn0cP3AUHA8eE__ctGNWqIaMRmKIb-AWsM5kEvxxrS86y6v-zyQGes1KySVY8w1t-98O6anqMFbkoqYqq8XzWluS1Qh8X0wZd0Cy0xdxoLFnm3eKL28MKZy26QfAb8Ysm4aOuo6Pv7GaLpsOsMDHv48vNDZgMH0N13OpHtqSWQPXwpnUtF_eDUbd1YnqyQh_iR_tmGpvCKXV-ougBAoi86OEfqWOZkqsNdO8DZL2X8R444uQP8OPsachmeXuMrackLKo-PNY_8_9I1e84BCpysoeQTamqfwfa-Bip6Z0dNebD60kQiyyQd_W40]--></g></svg>