<?xml version="1.0" encoding="us-ascii" standalone="no"?><svg xmlns="http://www.w3.org/2000/svg" xmlns:xlink="http://www.w3.org/1999/xlink" contentStyleType="text/css" height="1784px" preserveAspectRatio="none" style="width:1433px;height:1784px;background:#FFFFFF;" version="1.1" viewBox="0 0 1433 1784" width="1433px" zoomAndPan="magnify"><defs/><g><text fill="#000000" font-family="sans-serif" font-size="14" font-weight="bold" lengthAdjust="spacing" textLength="200" x="609.75" y="23.5352">Order System CQRS Pattern</text><!--cluster system--><g id="cluster_system"><rect fill="none" height="1549.09" rx="2.5" ry="2.5" style="stroke:#444444;stroke-width:1.0;stroke-dasharray:7.0,7.0;" width="734" x="7" y="229.8083"/><text fill="#444444" font-family="sans-serif" font-size="14" font-style="italic" lengthAdjust="spacing" textLength="80" x="334" y="245.3434">&#171;boundary&#187;</text><text fill="#444444" font-family="sans-serif" font-size="16" font-weight="bold" lengthAdjust="spacing" textLength="110" x="319" y="263.7653">Order System</text></g><!--cluster command_side--><g id="cluster_command_side"><rect fill="none" height="771.77" rx="2.5" ry="2.5" style="stroke:#444444;stroke-width:1.0;stroke-dasharray:7.0,7.0;" width="391" x="318" y="299.8083"/><text fill="#444444" font-family="sans-serif" font-size="14" font-style="italic" lengthAdjust="spacing" textLength="80" x="473.5" y="315.3434">&#171;boundary&#187;</text><text fill="#444444" font-family="sans-serif" font-size="16" font-weight="bold" lengthAdjust="spacing" textLength="123" x="452" y="333.7653">Command Side</text></g><!--cluster event_bus--><g id="cluster_event_bus"><rect fill="none" height="188.44" rx="2.5" ry="2.5" style="stroke:#444444;stroke-width:1.0;stroke-dasharray:7.0,7.0;" width="209" x="39" y="1148.5783"/><text fill="#444444" font-family="sans-serif" font-size="14" font-style="italic" lengthAdjust="spacing" textLength="80" x="103.5" y="1164.1134">&#171;boundary&#187;</text><text fill="#444444" font-family="sans-serif" font-size="16" font-weight="bold" lengthAdjust="spacing" textLength="80" x="103.5" y="1182.5353">Event Bus</text></g><!--cluster query_side--><g id="cluster_query_side"><rect fill="none" height="598.32" rx="2.5" ry="2.5" style="stroke:#444444;stroke-width:1.0;stroke-dasharray:7.0,7.0;" width="421" x="288" y="1148.5783"/><text fill="#444444" font-family="sans-serif" font-size="14" font-style="italic" lengthAdjust="spacing" textLength="80" x="458.5" y="1164.1134">&#171;boundary&#187;</text><text fill="#444444" font-family="sans-serif" font-size="16" font-weight="bold" lengthAdjust="spacing" textLength="88" x="454.5" y="1182.5353">Query Side</text></g><!--entity command_api--><g id="elem_command_api"><rect fill="#85BBF0" height="102.4414" rx="2.5" ry="2.5" style="stroke:#181818;stroke-width:0.5;" width="154" x="511" y="361.8083"/><text fill="#000000" font-family="sans-serif" font-size="14" font-style="italic" lengthAdjust="spacing" textLength="92" x="542" y="385.3434">&#171;component&#187;</text><text fill="#000000" font-family="sans-serif" font-size="16" font-weight="bold" lengthAdjust="spacing" textLength="116" x="521" y="403.7653">Command API</text><text fill="#000000" font-family="sans-serif" font-size="12" lengthAdjust="spacing" textLength="94" x="521" y="418.7419">[REST/GraphQL]</text><text fill="#000000" font-family="sans-serif" font-size="14" lengthAdjust="spacing" textLength="4" x="521" y="434.8083">&#160;</text><text fill="#000000" font-family="sans-serif" font-size="14" lengthAdjust="spacing" textLength="134" x="521" y="451.2966">Handles commands</text></g><!--entity command_handlers--><g id="elem_command_handlers"><rect fill="#85BBF0" height="102.4414" rx="2.5" ry="2.5" style="stroke:#181818;stroke-width:0.5;" width="182" x="495" y="553.2483"/><text fill="#000000" font-family="sans-serif" font-size="14" font-style="italic" lengthAdjust="spacing" textLength="92" x="540" y="576.7834">&#171;component&#187;</text><text fill="#000000" font-family="sans-serif" font-size="16" font-weight="bold" lengthAdjust="spacing" textLength="162" x="505" y="595.2053">Command Handlers</text><text fill="#000000" font-family="sans-serif" font-size="12" lengthAdjust="spacing" textLength="54" x="505" y="610.1819">[Services]</text><text fill="#000000" font-family="sans-serif" font-size="14" lengthAdjust="spacing" textLength="4" x="505" y="626.2483">&#160;</text><text fill="#000000" font-family="sans-serif" font-size="14" lengthAdjust="spacing" textLength="131" x="505" y="642.7366">Process commands</text></g><!--entity domain_model--><g id="elem_domain_model"><rect fill="#85BBF0" height="102.4414" rx="2.5" ry="2.5" style="stroke:#181818;stroke-width:0.5;" width="139" x="342.5" y="749.1883"/><text fill="#000000" font-family="sans-serif" font-size="14" font-style="italic" lengthAdjust="spacing" textLength="92" x="366" y="772.7234">&#171;component&#187;</text><text fill="#000000" font-family="sans-serif" font-size="16" font-weight="bold" lengthAdjust="spacing" textLength="119" x="352.5" y="791.1453">Domain Model</text><text fill="#000000" font-family="sans-serif" font-size="12" lengthAdjust="spacing" textLength="73" x="352.5" y="806.1219">[Aggregates]</text><text fill="#000000" font-family="sans-serif" font-size="14" lengthAdjust="spacing" textLength="4" x="352.5" y="822.1883">&#160;</text><text fill="#000000" font-family="sans-serif" font-size="14" lengthAdjust="spacing" textLength="96" x="352.5" y="838.6766">Business logic</text></g><!--entity event_publisher--><g id="elem_event_publisher"><rect fill="#85BBF0" height="102.4414" rx="2.5" ry="2.5" style="stroke:#181818;stroke-width:0.5;" width="189" x="342.5" y="945.1283"/><text fill="#000000" font-family="sans-serif" font-size="14" font-style="italic" lengthAdjust="spacing" textLength="92" x="391" y="968.6634">&#171;component&#187;</text><text fill="#000000" font-family="sans-serif" font-size="16" font-weight="bold" lengthAdjust="spacing" textLength="128" x="352.5" y="987.0853">Event Publisher</text><text fill="#000000" font-family="sans-serif" font-size="12" lengthAdjust="spacing" textLength="48" x="352.5" y="1002.0619">[Service]</text><text fill="#000000" font-family="sans-serif" font-size="14" lengthAdjust="spacing" textLength="4" x="352.5" y="1018.1283">&#160;</text><text fill="#000000" font-family="sans-serif" font-size="14" lengthAdjust="spacing" textLength="169" x="352.5" y="1034.6166">Publishes domain events</text></g><!--entity write_db--><g id="elem_write_db"><path d="M517,754.6883 C517,744.6883 597,744.6883 597,744.6883 C597,744.6883 677,744.6883 677,754.6883 L677,846.1297 C677,856.1297 597,856.1297 597,856.1297 C597,856.1297 517,856.1297 517,846.1297 L517,754.6883 " fill="#85BBF0" style="stroke:#181818;stroke-width:0.5;"/><path d="M517,754.6883 C517,764.6883 597,764.6883 597,764.6883 C597,764.6883 677,764.6883 677,754.6883 " fill="none" style="stroke:#181818;stroke-width:0.5;"/><text fill="#000000" font-family="sans-serif" font-size="14" font-style="italic" lengthAdjust="spacing" textLength="76" x="559" y="782.2234">&#171;database&#187;</text><text fill="#000000" font-family="sans-serif" font-size="16" font-weight="bold" lengthAdjust="spacing" textLength="121" x="527" y="800.6453">Write Database</text><text fill="#000000" font-family="sans-serif" font-size="12" lengthAdjust="spacing" textLength="72" x="527" y="815.6219">[SQL/NoSQL]</text><text fill="#000000" font-family="sans-serif" font-size="14" lengthAdjust="spacing" textLength="4" x="527" y="831.6883">&#160;</text><text fill="#000000" font-family="sans-serif" font-size="14" lengthAdjust="spacing" textLength="140" x="527" y="848.1766">Optimized for writes</text></g><!--entity event_broker--><g id="elem_event_broker"><rect fill="#85BBF0" height="102.4414" rx="2.5" ry="2.5" style="stroke:#181818;stroke-width:0.5;" width="142" x="63" y="1210.5783"/><text fill="#000000" font-family="sans-serif" font-size="14" font-style="italic" lengthAdjust="spacing" textLength="92" x="88" y="1234.1134">&#171;component&#187;</text><text fill="#000000" font-family="sans-serif" font-size="16" font-weight="bold" lengthAdjust="spacing" textLength="103" x="73" y="1252.5353">Event Broker</text><text fill="#000000" font-family="sans-serif" font-size="12" lengthAdjust="spacing" textLength="104" x="73" y="1267.5119">[Kafka/RabbitMQ]</text><text fill="#000000" font-family="sans-serif" font-size="14" lengthAdjust="spacing" textLength="4" x="73" y="1283.5783">&#160;</text><text fill="#000000" font-family="sans-serif" font-size="14" lengthAdjust="spacing" textLength="122" x="73" y="1300.0666">Distributes events</text></g><!--entity query_api--><g id="elem_query_api"><rect fill="#85BBF0" height="102.4414" rx="2.5" ry="2.5" style="stroke:#181818;stroke-width:0.5;" width="130" x="534" y="1210.5783"/><text fill="#000000" font-family="sans-serif" font-size="14" font-style="italic" lengthAdjust="spacing" textLength="92" x="553" y="1234.1134">&#171;component&#187;</text><text fill="#000000" font-family="sans-serif" font-size="16" font-weight="bold" lengthAdjust="spacing" textLength="81" x="544" y="1252.5353">Query API</text><text fill="#000000" font-family="sans-serif" font-size="12" lengthAdjust="spacing" textLength="94" x="544" y="1267.5119">[REST/GraphQL]</text><text fill="#000000" font-family="sans-serif" font-size="14" lengthAdjust="spacing" textLength="4" x="544" y="1283.5783">&#160;</text><text fill="#000000" font-family="sans-serif" font-size="14" lengthAdjust="spacing" textLength="110" x="544" y="1300.0666">Handles queries</text></g><!--entity query_handlers--><g id="elem_query_handlers"><rect fill="#85BBF0" height="102.4414" rx="2.5" ry="2.5" style="stroke:#181818;stroke-width:0.5;" width="147" x="523.5" y="1420.0183"/><text fill="#000000" font-family="sans-serif" font-size="14" font-style="italic" lengthAdjust="spacing" textLength="92" x="551" y="1443.5534">&#171;component&#187;</text><text fill="#000000" font-family="sans-serif" font-size="16" font-weight="bold" lengthAdjust="spacing" textLength="127" x="533.5" y="1461.9753">Query Handlers</text><text fill="#000000" font-family="sans-serif" font-size="12" lengthAdjust="spacing" textLength="54" x="533.5" y="1476.9519">[Services]</text><text fill="#000000" font-family="sans-serif" font-size="14" lengthAdjust="spacing" textLength="4" x="533.5" y="1493.0183">&#160;</text><text fill="#000000" font-family="sans-serif" font-size="14" lengthAdjust="spacing" textLength="107" x="533.5" y="1509.5066">Process queries</text></g><!--entity read_models--><g id="elem_read_models"><rect fill="#85BBF0" height="102.4414" rx="2.5" ry="2.5" style="stroke:#181818;stroke-width:0.5;" width="172" x="505" y="1615.9583"/><text fill="#000000" font-family="sans-serif" font-size="14" font-style="italic" lengthAdjust="spacing" textLength="92" x="545" y="1639.4934">&#171;component&#187;</text><text fill="#000000" font-family="sans-serif" font-size="16" font-weight="bold" lengthAdjust="spacing" textLength="104" x="515" y="1657.9153">Read Models</text><text fill="#000000" font-family="sans-serif" font-size="12" lengthAdjust="spacing" textLength="40" x="515" y="1672.8919">[DTOs]</text><text fill="#000000" font-family="sans-serif" font-size="14" lengthAdjust="spacing" textLength="4" x="515" y="1688.9583">&#160;</text><text fill="#000000" font-family="sans-serif" font-size="14" lengthAdjust="spacing" textLength="152" x="515" y="1705.4466">Optimized for reading</text></g><!--entity projections--><g id="elem_projections"><rect fill="#85BBF0" height="102.4414" rx="2.5" ry="2.5" style="stroke:#181818;stroke-width:0.5;" width="165" x="312.5" y="1420.0183"/><text fill="#000000" font-family="sans-serif" font-size="14" font-style="italic" lengthAdjust="spacing" textLength="92" x="349" y="1443.5534">&#171;component&#187;</text><text fill="#000000" font-family="sans-serif" font-size="16" font-weight="bold" lengthAdjust="spacing" textLength="91" x="322.5" y="1461.9753">Projections</text><text fill="#000000" font-family="sans-serif" font-size="12" lengthAdjust="spacing" textLength="54" x="322.5" y="1476.9519">[Services]</text><text fill="#000000" font-family="sans-serif" font-size="14" lengthAdjust="spacing" textLength="4" x="322.5" y="1493.0183">&#160;</text><text fill="#000000" font-family="sans-serif" font-size="14" lengthAdjust="spacing" textLength="145" x="322.5" y="1509.5066">Updates read models</text></g><!--entity read_db--><g id="elem_read_db"><path d="M312.5,1621.4583 C312.5,1611.4583 391,1611.4583 391,1611.4583 C391,1611.4583 469.5,1611.4583 469.5,1621.4583 L469.5,1712.8997 C469.5,1722.8997 391,1722.8997 391,1722.8997 C391,1722.8997 312.5,1722.8997 312.5,1712.8997 L312.5,1621.4583 " fill="#85BBF0" style="stroke:#181818;stroke-width:0.5;"/><path d="M312.5,1621.4583 C312.5,1631.4583 391,1631.4583 391,1631.4583 C391,1631.4583 469.5,1631.4583 469.5,1621.4583 " fill="none" style="stroke:#181818;stroke-width:0.5;"/><text fill="#000000" font-family="sans-serif" font-size="14" font-style="italic" lengthAdjust="spacing" textLength="76" x="353" y="1648.9934">&#171;database&#187;</text><text fill="#000000" font-family="sans-serif" font-size="16" font-weight="bold" lengthAdjust="spacing" textLength="120" x="322.5" y="1667.4153">Read Database</text><text fill="#000000" font-family="sans-serif" font-size="12" lengthAdjust="spacing" textLength="72" x="322.5" y="1682.3919">[SQL/NoSQL]</text><text fill="#000000" font-family="sans-serif" font-size="14" lengthAdjust="spacing" textLength="4" x="322.5" y="1698.4583">&#160;</text><text fill="#000000" font-family="sans-serif" font-size="14" lengthAdjust="spacing" textLength="137" x="322.5" y="1714.9466">Optimized for reads</text></g><!--entity customer--><g id="elem_customer"><ellipse cx="873" cy="51.4883" fill="#08427B" rx="8" ry="8" style="stroke:#181818;stroke-width:0.5;"/><path d="M873,59.4883 L873,86.4883 M860,67.4883 L886,67.4883 M873,86.4883 L860,101.4883 M873,86.4883 L886,101.4883 " fill="none" style="stroke:#181818;stroke-width:0.5;"/><text fill="#FFFFFF" font-family="sans-serif" font-size="16" font-weight="bold" lengthAdjust="spacing" textLength="79" x="832" y="118.457">Customer</text><text fill="#FFFFFF" font-family="sans-serif" font-size="14" lengthAdjust="spacing" textLength="4" x="832" y="135.3672">&#160;</text><text fill="#FFFFFF" font-family="sans-serif" font-size="14" lengthAdjust="spacing" textLength="82" x="832" y="151.8555">System user</text></g><!--entity payment_system--><g id="elem_payment_system"><rect fill="#999999" height="88.3086" rx="2.5" ry="2.5" style="stroke:#181818;stroke-width:0.5;" width="157" x="757.5" y="756.2583"/><text fill="#FFFFFF" font-family="sans-serif" font-size="14" font-style="italic" lengthAdjust="spacing" textLength="125" x="773.5" y="779.7934">&#171;external_system&#187;</text><text fill="#FFFFFF" font-family="sans-serif" font-size="16" font-weight="bold" lengthAdjust="spacing" textLength="133" x="767.5" y="798.2153">Payment System</text><text fill="#FFFFFF" font-family="sans-serif" font-size="14" lengthAdjust="spacing" textLength="4" x="767.5" y="815.1255">&#160;</text><text fill="#FFFFFF" font-family="sans-serif" font-size="14" lengthAdjust="spacing" textLength="137" x="767.5" y="831.6138">Processes payments</text></g><!--entity logistics_system--><g id="elem_logistics_system"><rect fill="#999999" height="88.3086" rx="2.5" ry="2.5" style="stroke:#181818;stroke-width:0.5;" width="156" x="950" y="756.2583"/><text fill="#FFFFFF" font-family="sans-serif" font-size="14" font-style="italic" lengthAdjust="spacing" textLength="125" x="965.5" y="779.7934">&#171;external_system&#187;</text><text fill="#FFFFFF" font-family="sans-serif" font-size="16" font-weight="bold" lengthAdjust="spacing" textLength="136" x="960" y="798.2153">Logistics System</text><text fill="#FFFFFF" font-family="sans-serif" font-size="14" lengthAdjust="spacing" textLength="4" x="960" y="815.1255">&#160;</text><text fill="#FFFFFF" font-family="sans-serif" font-size="14" lengthAdjust="spacing" textLength="124" x="960" y="831.6138">Handles deliveries</text></g><g id="elem_GMN34"><path d="M1211.5,369.7483 L1211.5,456.301 L1426.5,456.301 L1426.5,379.7483 L1416.5,369.7483 L1211.5,369.7483 " fill="#FEFFDD" style="stroke:#181818;stroke-width:0.5;"/><path d="M1416.5,369.7483 L1416.5,379.7483 L1426.5,379.7483 L1416.5,369.7483 " fill="#FEFFDD" style="stroke:#181818;stroke-width:1.0;"/><text fill="#000000" font-family="sans-serif" font-size="13" lengthAdjust="spacing" textLength="98" x="1217.5" y="387.3166">Command Side:</text><text fill="#000000" font-family="sans-serif" font-size="13" lengthAdjust="spacing" textLength="194" x="1217.5" y="402.6272">- Handles business operations</text><text fill="#000000" font-family="sans-serif" font-size="13" lengthAdjust="spacing" textLength="142" x="1217.5" y="417.9377">- Validates commands</text><text fill="#000000" font-family="sans-serif" font-size="13" lengthAdjust="spacing" textLength="152" x="1217.5" y="433.2483">- Maintains consistency</text><text fill="#000000" font-family="sans-serif" font-size="13" lengthAdjust="spacing" textLength="170" x="1217.5" y="448.5588">- Generates domain events</text></g><g id="elem_GMN37"><path d="M757.5,1218.5183 L757.5,1305.071 L958.5,1305.071 L958.5,1228.5183 L948.5,1218.5183 L757.5,1218.5183 " fill="#FEFFDD" style="stroke:#181818;stroke-width:0.5;"/><path d="M948.5,1218.5183 L948.5,1228.5183 L958.5,1228.5183 L948.5,1218.5183 " fill="#FEFFDD" style="stroke:#181818;stroke-width:1.0;"/><text fill="#000000" font-family="sans-serif" font-size="13" lengthAdjust="spacing" textLength="71" x="763.5" y="1236.0866">Query Side:</text><text fill="#000000" font-family="sans-serif" font-size="13" lengthAdjust="spacing" textLength="150" x="763.5" y="1251.3972">- Optimized for reading</text><text fill="#000000" font-family="sans-serif" font-size="13" lengthAdjust="spacing" textLength="180" x="763.5" y="1266.7077">- Denormalized data models</text><text fill="#000000" font-family="sans-serif" font-size="13" lengthAdjust="spacing" textLength="146" x="763.5" y="1282.0183">- Eventually consistent</text><text fill="#000000" font-family="sans-serif" font-size="13" lengthAdjust="spacing" textLength="176" x="763.5" y="1297.3288">- Multiple specialized views</text></g><g id="elem_GMN40"><path d="M993.5,1226.1783 L993.5,1297.4205 L1218.5,1297.4205 L1218.5,1236.1783 L1208.5,1226.1783 L993.5,1226.1783 " fill="#FEFFDD" style="stroke:#181818;stroke-width:0.5;"/><path d="M1208.5,1226.1783 L1208.5,1236.1783 L1218.5,1236.1783 L1208.5,1226.1783 " fill="#FEFFDD" style="stroke:#181818;stroke-width:1.0;"/><text fill="#000000" font-family="sans-serif" font-size="13" lengthAdjust="spacing" textLength="64" x="999.5" y="1243.7466">Event Bus:</text><text fill="#000000" font-family="sans-serif" font-size="13" lengthAdjust="spacing" textLength="204" x="999.5" y="1259.0572">- Asynchronous communication</text><text fill="#000000" font-family="sans-serif" font-size="13" lengthAdjust="spacing" textLength="124" x="999.5" y="1274.3677">- Event distribution</text><text fill="#000000" font-family="sans-serif" font-size="13" lengthAdjust="spacing" textLength="160" x="999.5" y="1289.6783">- Decoupling mechanism</text></g><!--link customer to command_api--><g id="link_customer_command_api"><path d="M831.78,115.3683 C786.43,134.2583 714.02,170.1983 669,221.8083 C635.45,260.2683 614.18,314.6983 601.9,355.4783 " fill="none" id="customer-to-command_api" style="stroke:#181818;stroke-width:1.0;"/><polygon fill="#181818" points="600.5,360.1983,606.8806,352.6957,601.9131,355.4021,599.2068,350.4347,600.5,360.1983" style="stroke:#181818;stroke-width:1.0;"/><text fill="#000000" font-family="sans-serif" font-size="13" lengthAdjust="spacing" textLength="110" x="707.51" y="198.3766">Sends commands</text><text fill="#000000" font-family="sans-serif" font-size="10" font-style="italic" lengthAdjust="spacing" textLength="59" x="733.01" y="210.7868">[HTTP/JSON]</text></g><!--link command_api to command_handlers--><g id="link_command_api_command_handlers"><path d="M587.47,464.2983 C587.2,489.6683 586.88,520.5383 586.6,546.7583 " fill="none" id="command_api-to-command_handlers" style="stroke:#181818;stroke-width:1.0;"/><polygon fill="#181818" points="586.55,551.4483,590.627,542.4829,586.5929,546.4485,582.6273,542.4143,586.55,551.4483" style="stroke:#181818;stroke-width:1.0;"/><text fill="#000000" font-family="sans-serif" font-size="13" lengthAdjust="spacing" textLength="60" x="588.12" y="507.8166">Routes to</text><text fill="#000000" font-family="sans-serif" font-size="10" font-style="italic" lengthAdjust="spacing" textLength="6" x="615.12" y="520.2268">[]</text></g><!--link command_handlers to domain_model--><g id="link_command_handlers_domain_model"><path d="M540.51,656.1683 C516.24,683.2283 486.34,716.5583 461.48,744.2583 " fill="none" id="command_handlers-to-domain_model" style="stroke:#181818;stroke-width:1.0;"/><polygon fill="#181818" points="458.23,747.8783,467.2162,743.8473,461.5677,744.1554,461.2596,738.507,458.23,747.8783" style="stroke:#181818;stroke-width:1.0;"/><text fill="#000000" font-family="sans-serif" font-size="13" lengthAdjust="spacing" textLength="30" x="510.42" y="699.2566">Uses</text><text fill="#000000" font-family="sans-serif" font-size="10" font-style="italic" lengthAdjust="spacing" textLength="6" x="522.42" y="711.6668">[]</text></g><!--link domain_model to event_publisher--><g id="link_domain_model_event_publisher"><path d="M418.54,852.1183 C421.97,878.7183 426.18,911.3983 429.71,938.8183 " fill="none" id="domain_model-to-event_publisher" style="stroke:#181818;stroke-width:1.0;"/><polygon fill="#181818" points="430.31,943.4483,433.1228,934.0096,429.6688,938.4896,425.1888,935.0356,430.31,943.4483" style="stroke:#181818;stroke-width:1.0;"/><text fill="#000000" font-family="sans-serif" font-size="13" lengthAdjust="spacing" textLength="107" x="427" y="899.6966">Generates events</text><text fill="#000000" font-family="sans-serif" font-size="10" font-style="italic" lengthAdjust="spacing" textLength="6" x="477.5" y="912.1068">[]</text></g><!--link command_handlers to write_db--><g id="link_command_handlers_write_db"><path d="M588.88,656.1683 C590.3,681.2183 592.02,711.6283 593.52,737.9883 " fill="none" id="command_handlers-to-write_db" style="stroke:#181818;stroke-width:1.0;"/><polygon fill="#181818" points="593.78,742.7283,597.26,733.5147,593.4948,737.7364,589.2731,733.9711,593.78,742.7283" style="stroke:#181818;stroke-width:1.0;"/><text fill="#000000" font-family="sans-serif" font-size="13" lengthAdjust="spacing" textLength="84" x="593.16" y="699.2566">Persists state</text><text fill="#000000" font-family="sans-serif" font-size="10" font-style="italic" lengthAdjust="spacing" textLength="6" x="632.16" y="711.6668">[]</text></g><!--link event_publisher to event_broker--><g id="link_event_publisher_event_broker"><path d="M342.2,1039.7383 C298.06,1062.7283 247.04,1094.3083 209,1132.5783 C188.55,1153.1483 171.59,1180.3983 159,1204.4783 " fill="none" id="event_publisher-to-event_broker" style="stroke:#181818;stroke-width:1.0;"/><polygon fill="#181818" points="156.75,1208.8583,164.4161,1202.6752,159.0316,1204.4092,157.2976,1199.0247,156.75,1208.8583" style="stroke:#181818;stroke-width:1.0;"/><text fill="#000000" font-family="sans-serif" font-size="13" lengthAdjust="spacing" textLength="105" x="247.95" y="1109.1466">Publishes events</text><text fill="#000000" font-family="sans-serif" font-size="10" font-style="italic" lengthAdjust="spacing" textLength="6" x="297.45" y="1121.5568">[]</text></g><!--link customer to query_api--><g id="link_customer_query_api"><path d="M914.28,120.3683 C993.48,162.8983 1159,268.8883 1159,412.0283 C1159,412.0283 1159,412.0283 1159,997.3583 C1159,1223.6983 845,991.4983 668,1132.5783 C644.94,1150.9583 628.56,1179.2183 617.57,1204.5383 " fill="none" id="customer-to-query_api" style="stroke:#181818;stroke-width:1.0;"/><polygon fill="#181818" points="615.76,1208.8283,622.9391,1202.0858,617.7003,1204.2201,615.566,1198.9813,615.76,1208.8283" style="stroke:#181818;stroke-width:1.0;"/><text fill="#000000" font-family="sans-serif" font-size="13" lengthAdjust="spacing" textLength="87" x="1160" y="699.2566">Sends queries</text><text fill="#000000" font-family="sans-serif" font-size="10" font-style="italic" lengthAdjust="spacing" textLength="59" x="1174" y="711.6668">[HTTP/JSON]</text></g><!--link query_api to query_handlers--><g id="link_query_api_query_handlers"><path d="M598.51,1313.2783 C598.22,1343.5183 597.85,1382.0483 597.55,1413.3683 " fill="none" id="query_api-to-query_handlers" style="stroke:#181818;stroke-width:1.0;"/><polygon fill="#181818" points="597.5,1418.0183,601.577,1409.0529,597.5429,1413.0185,593.5773,1408.9843,597.5,1418.0183" style="stroke:#181818;stroke-width:1.0;"/><text fill="#000000" font-family="sans-serif" font-size="13" lengthAdjust="spacing" textLength="60" x="599" y="1374.5866">Routes to</text><text fill="#000000" font-family="sans-serif" font-size="10" font-style="italic" lengthAdjust="spacing" textLength="6" x="626" y="1386.9968">[]</text></g><!--link query_handlers to read_models--><g id="link_query_handlers_read_models"><path d="M595.43,1522.9383 C594.61,1549.4383 593.61,1581.9483 592.76,1609.2983 " fill="none" id="query_handlers-to-read_models" style="stroke:#181818;stroke-width:1.0;"/><polygon fill="#181818" points="592.61,1614.2583,596.8907,1605.3884,592.7671,1609.2607,588.8947,1605.1371,592.61,1614.2583" style="stroke:#181818;stroke-width:1.0;"/><text fill="#000000" font-family="sans-serif" font-size="13" lengthAdjust="spacing" textLength="30" x="595.36" y="1566.0266">Uses</text><text fill="#000000" font-family="sans-serif" font-size="10" font-style="italic" lengthAdjust="spacing" textLength="6" x="607.36" y="1578.4368">[]</text></g><!--link query_handlers to read_db--><g id="link_query_handlers_read_db"><path d="M543.15,1522.9383 C515.87,1548.6083 482.6,1579.9383 454.13,1606.7383 " fill="none" id="query_handlers-to-read_db" style="stroke:#181818;stroke-width:1.0;"/><polygon fill="#181818" points="450.71,1609.9683,459.9989,1606.6946,454.3443,1606.5343,454.5045,1600.8797,450.71,1609.9683" style="stroke:#181818;stroke-width:1.0;"/><text fill="#000000" font-family="sans-serif" font-size="13" lengthAdjust="spacing" textLength="71" x="507.33" y="1566.0266">Reads from</text><text fill="#000000" font-family="sans-serif" font-size="10" font-style="italic" lengthAdjust="spacing" textLength="6" x="539.83" y="1578.4368">[]</text></g><!--link projections to read_db--><g id="link_projections_read_db"><path d="M389.92,1522.6883 C389.12,1532.5483 388.42,1542.8183 388,1552.4583 C387.26,1569.4983 387.36,1587.9983 387.82,1605.0183 " fill="none" id="projections-to-read_db" style="stroke:#181818;stroke-width:1.0;"/><polygon fill="#181818" points="387.96,1609.6983,391.6753,1600.5771,387.8029,1604.7007,383.6793,1600.8284,387.96,1609.6983" style="stroke:#181818;stroke-width:1.0;"/><text fill="#000000" font-family="sans-serif" font-size="13" lengthAdjust="spacing" textLength="51" x="389" y="1566.0266">Updates</text><text fill="#000000" font-family="sans-serif" font-size="10" font-style="italic" lengthAdjust="spacing" textLength="6" x="411.5" y="1578.4368">[]</text></g><!--link event_broker to projections--><g id="link_event_broker_projections"><path d="M171.09,1313.0983 C182.45,1326.8483 195.52,1341.1983 209,1353.0183 C238.57,1378.9383 274.47,1402.9883 306.82,1422.4683 " fill="none" id="event_broker-to-projections" style="stroke:#181818;stroke-width:1.0;"/><polygon fill="#181818" points="311.09,1425.0283,305.4305,1416.9678,306.8025,1422.4558,301.3146,1423.8278,311.09,1425.0283" style="stroke:#181818;stroke-width:1.0;"/><text fill="#000000" font-family="sans-serif" font-size="13" lengthAdjust="spacing" textLength="52" x="257.56" y="1374.5866">Triggers</text><text fill="#000000" font-family="sans-serif" font-size="10" font-style="italic" lengthAdjust="spacing" textLength="6" x="280.56" y="1386.9968">[]</text></g><!--link command_handlers to payment_system--><g id="link_command_handlers_payment_system"><path d="M651.36,656.1683 C689.57,685.8183 737.5,722.9983 774.95,752.0483 " fill="none" id="command_handlers-to-payment_system" style="stroke:#181818;stroke-width:1.0;"/><polygon fill="#181818" points="778.73,754.9883,774.0685,746.3124,774.7786,751.9245,769.1665,752.6346,778.73,754.9883" style="stroke:#181818;stroke-width:1.0;"/><text fill="#000000" font-family="sans-serif" font-size="13" lengthAdjust="spacing" textLength="94" x="726.97" y="699.2566">Integrates with</text><text fill="#000000" font-family="sans-serif" font-size="10" font-style="italic" lengthAdjust="spacing" textLength="6" x="770.97" y="711.6668">[]</text></g><!--link command_handlers to logistics_system--><g id="link_command_handlers_logistics_system"><path d="M677.47,630.7083 C723.99,644.7483 780.93,663.8083 830,685.6883 C872.79,704.7783 918.27,730.4783 954.84,752.6183 " fill="none" id="command_handlers-to-logistics_system" style="stroke:#181818;stroke-width:1.0;"/><polygon fill="#181818" points="958.87,755.0683,953.262,746.972,954.599,752.4685,949.1024,753.8056,958.87,755.0683" style="stroke:#181818;stroke-width:1.0;"/><text fill="#000000" font-family="sans-serif" font-size="13" lengthAdjust="spacing" textLength="94" x="887.18" y="699.2566">Integrates with</text><text fill="#000000" font-family="sans-serif" font-size="10" font-style="italic" lengthAdjust="spacing" textLength="6" x="931.18" y="711.6668">[]</text></g><!--link command_side to GMN34--><g id="link_command_side_GMN34"><path d="M709.5608,413.0283 C712.2144,413.0283 714.8679,413.0283 717.5215,413.0283 C722.8287,413.0283 728.1359,413.0283 733.443,413.0283 C744.0573,413.0283 754.6716,413.0283 765.2858,413.0283 C786.5143,413.0283 807.7427,413.0283 828.9709,413.0283 C871.4275,413.0283 913.8838,413.0283 956.34,413.0283 C1041.2525,413.0283 1126.165,413.0283 1211.08,413.0283 " fill="none" id="command_side-GMN34" style="stroke:#181818;stroke-width:1.0;stroke-dasharray:7.0,7.0;"/></g><!--link query_side to GMN37--><g id="link_query_side_GMN37"><path d="M709.2102,1261.7983 C709.2826,1261.7983 709.355,1261.7983 709.4273,1261.7983 C709.7169,1261.7983 710.0064,1261.7983 710.2959,1261.7983 C710.875,1261.7983 711.4541,1261.7983 712.0331,1261.7983 C713.1913,1261.7983 714.3494,1261.7983 715.5075,1261.7983 C720.14,1261.7983 724.7725,1261.7983 729.405,1261.7983 C738.67,1261.7983 747.935,1261.7983 757.2,1261.7983 " fill="none" id="query_side-GMN37" style="stroke:#181818;stroke-width:1.0;stroke-dasharray:7.0,7.0;"/></g><!--link event_bus to GMN40--><g id="link_event_bus_GMN40"><path d="M248.1691,1210.6575 C248.2284,1210.4163 248.2882,1210.1747 248.3485,1209.9327 C248.4689,1209.4486 248.591,1208.963 248.7149,1208.4759 C248.9626,1207.5017 249.2171,1206.5215 249.4787,1205.536 C250.5249,1201.5941 251.6836,1197.5675 252.9663,1193.4995 C263.2275,1160.9558 281.425,1125.7633 313.5,1110.0783 C377.88,1078.5883 892.48,1082.1783 958.5,1110.0783 C1013.83,1133.4483 1058.65,1188.8583 1083.82,1225.8383 " fill="none" id="event_bus-GMN40" style="stroke:#181818;stroke-width:1.0;stroke-dasharray:7.0,7.0;"/></g><!--SRC=[jLTjRzis4FwkNy6v7x803TnswPOLQG3RSbwsn79iPqMn3W8jCJONILH9AgbNzB_l-2ABUd5S39W-619vzzp3uzr3-W2DZj4DYqc2V79FCoefouJtGwm-2BeUV0pk5k67gyLbU3s-64_yxTJyClWGJiUpUJ09fy5iCHjSBJplGE6D4vAIJAAvt2Ia0XiTXwFWPXfCnfD5U1x0poYu3cRenIlzTDiDBqghaxV3uNd3Qh8ON4t6ixrefLs5TlpJYU-_TQtc7-UByKqDwbm_7KOLpklNFvyCVTV4vkHv76jKuRmwENxpoz0r6GPt4tym-xXbh9z6Yczmn5cLuYdXWcK_aX0d58kNY8G9Nf94lSH4HFmGuKWoZdhltzkfJzcdp4xs41R8kbRRl16IfE6G5LcC-QO5VOWuYIJELWbnK7lez7HfNSxEkd17B9CONlZ_0PtcB8FiTEP1acYTEGdfYl4fEnNq7_BkzPkpFwt7NwTzDNHMozVfQLJ6saF5NtuNcHXBlCJYlt4fdRkfs8qSVv7FbKTtDcfXo1T9U8QJK6Z4xcWpaa2OUyvIlKpMNlKXClFewEXCcw1tgBUDsE_RLRzghRhVxwacKE92ivKd7cYMOuvJX_jN3y5p3YKsOWdZzMtQ8KFQPOYZXnLNrRNFiUpSPYIdDCkErS2CnuItRLfzxbXh-QnPnrYiITmCsTwGBZNhNb_RzyMl-l6-UKvgjtNvjGjcHsPg24PtThetzB2-n4vLLV2IIjZjG2NBrZSQtSxcQ8gbMfRdMJsC2Y5PIlXBr1lPrnwyMvT2mEUXvpMbpgG4xDm0lKExY0FLt2dEOZIdCT537PeM6PjGW8sAxhXiaOnhgLcb1ywfup2ONYd6i_5yqR_WE5_VNgllIvY38nPP9m7Bs8suriPSEB2NTaXdW_176X7zFkKCtlRWnYo5rOQfkZs0Zwy_pML2OGnMAqvMM1h4OI4WCm2Pi1MDEl788_o6UR5CA9Ivsgon6a7JSiHXgKdQSO4C4wG1NAxj8A33JvnAaBCb87nGhyYtnQtXRw_x4pOtsGroILEGd1ZTGn5glnBzcxV5Fq269gnmLnMObIqBiLqJ6E_OVslBsOEJWg7-L9n-n_SFk3_3ooMLDxTgnAT2SheiW5mz0pMEjmNXcsTBzREoA0krCjz1qrYR8ZN6UqfKEL3INKa6pAbFWxYlEf-3v0J7fZGLtWo-J6Lg07yHYFO6AnSuKJhXSix-XkD5NOuDWVAhoUqkZrN9Qp1aukyhI4rLrwEc-PtbgBogdVwcZiIn5NChLS9pplmSRzI5CToAsjGCbB9MfHN8MsC5xq2epXMIHg82kIw779Xoms7fzB7S8607LmAiKxQckK17TVbKzuLAfUiQE2UWG9KKgH2BnRJ_6vm7WAmzNViEkPintHsIAUU6JsNMqBCxONRKsjTdsrfrGQ2RiDE4puLoD4WTKP13WOG4RyUh5QAX39NyrG9sPDhf_NgUtIOsMIvRgYF9Zd6hNxiIt3IgTsGZkvt6svuGIDqK7VDQErQsjlbQIInpLk_Y1QUhbPKNaxX60zKJkMChMurrbKcoCfNmHENwsJheQAbkTo0tOJ3cPV2BWFXQ8dQFtEk5XsejzGw-Zr3PZClo-6MvgbBz9r_D_m7NTYDOPN_fuHieTNK-gE5CbIV9eesUgSgyTkXwK3r8SVCQ3AjJ1TohGZJiElLNp_WaOpm5ScfItJwjbkf9VIOME4as5JrfU1U9f3dS2KLE8chT7obvsarmUpO3mFPiDlG6OfD5QyuoLfZy51cDTF8g6YWkZzzos2SHAtBrtmIbyBy5PrIaLVH_0G00]--></g></svg>