<svg xmlns="http://www.w3.org/2000/svg" xmlns:xlink="http://www.w3.org/1999/xlink" contentStyleType="text/css" height="945px" preserveAspectRatio="none" style="width:2001px;height:945px;background:#FFFFFF;" version="1.1" viewBox="0 0 2001 945" width="2001px" zoomAndPan="magnify"><title>&#35330;&#21934;&#31995;&#32113;&#20107;&#20214;&#39080;&#26292;&#22294; - &#27969;&#31243;&#24314;&#27169;&#38542;&#27573;</title><defs><filter height="1" id="b1ncakp7x7j3wv0" width="1" x="0" y="0"><feFlood flood-color="#FFD700" result="flood"/><feComposite in="SourceGraphic" in2="flood" operator="over"/></filter><filter height="1" id="b1ncakp7x7j3wv1" width="1" x="0" y="0"><feFlood flood-color="#32CD32" result="flood"/><feComposite in="SourceGraphic" in2="flood" operator="over"/></filter><filter height="1" id="b1ncakp7x7j3wv2" width="1" x="0" y="0"><feFlood flood-color="#1E90FF" result="flood"/><feComposite in="SourceGraphic" in2="flood" operator="over"/></filter><filter height="1" id="b1ncakp7x7j3wv3" width="1" x="0" y="0"><feFlood flood-color="#FFFF00" result="flood"/><feComposite in="SourceGraphic" in2="flood" operator="over"/></filter><filter height="1" id="b1ncakp7x7j3wv4" width="1" x="0" y="0"><feFlood flood-color="#FFA500" result="flood"/><feComposite in="SourceGraphic" in2="flood" operator="over"/></filter><filter height="1" id="b1ncakp7x7j3wv5" width="1" x="0" y="0"><feFlood flood-color="#800080" result="flood"/><feComposite in="SourceGraphic" in2="flood" operator="over"/></filter></defs><g><text fill="#000000" font-family="sans-serif" font-size="20" font-weight="bold" lengthAdjust="spacing" textLength="325.957" x="830.5215" y="29.3359">&#35330;&#21934;&#31995;&#32113;&#20107;&#20214;&#39080;&#26292;&#22294; - &#27969;&#31243;&#24314;&#27169;&#38542;&#27573;</text><!--entity Customer--><g id="elem_Customer"><rect fill="#FFD700" height="36.4883" rx="12.5" ry="12.5" style="stroke:#000000;stroke-width:0.5;" width="48" x="28" y="138.3047"/><text fill="#000000" font-family="sans-serif" font-size="14" font-weight="bold" lengthAdjust="spacing" textLength="28" x="38" y="161.8398">&#23458;&#25142;</text></g><!--entity Admin--><g id="elem_Admin"><rect fill="#FFD700" height="36.4883" rx="12.5" ry="12.5" style="stroke:#000000;stroke-width:0.5;" width="90" x="7" y="67.3047"/><text fill="#000000" font-family="sans-serif" font-size="14" font-weight="bold" lengthAdjust="spacing" textLength="70" x="17" y="90.8398">&#31995;&#32113;&#31649;&#29702;&#21729;</text></g><!--entity ProductCatalogReadModel--><g id="elem_ProductCatalogReadModel"><rect fill="#32CD32" height="36.4883" rx="12.5" ry="12.5" style="stroke:#000000;stroke-width:0.5;" width="76" x="158" y="138.3047"/><text fill="#000000" font-family="sans-serif" font-size="14" font-weight="bold" lengthAdjust="spacing" textLength="56" x="168" y="161.8398">&#29986;&#21697;&#30446;&#37636;</text></g><!--entity OrderSummaryReadModel--><g id="elem_OrderSummaryReadModel"><rect fill="#32CD32" height="36.4883" rx="12.5" ry="12.5" style="stroke:#000000;stroke-width:0.5;" width="76" x="795" y="174.3047"/><text fill="#000000" font-family="sans-serif" font-size="14" font-weight="bold" lengthAdjust="spacing" textLength="56" x="805" y="197.8398">&#35330;&#21934;&#25688;&#35201;</text></g><!--entity InventoryStatusReadModel--><g id="elem_InventoryStatusReadModel"><rect fill="#32CD32" height="36.4883" rx="12.5" ry="12.5" style="stroke:#000000;stroke-width:0.5;" width="76" x="1262" y="600.3047"/><text fill="#000000" font-family="sans-serif" font-size="14" font-weight="bold" lengthAdjust="spacing" textLength="56" x="1272" y="623.8398">&#24235;&#23384;&#29376;&#24907;</text></g><!--entity PaymentStatusReadModel--><g id="elem_PaymentStatusReadModel"><rect fill="#32CD32" height="36.4883" rx="12.5" ry="12.5" style="stroke:#000000;stroke-width:0.5;" width="76" x="1768" y="572.3047"/><text fill="#000000" font-family="sans-serif" font-size="14" font-weight="bold" lengthAdjust="spacing" textLength="56" x="1778" y="595.8398">&#25903;&#20184;&#29376;&#24907;</text></g><!--entity CreateOrderCommand--><g id="elem_CreateOrderCommand"><rect fill="#1E90FF" height="36.4883" rx="12.5" ry="12.5" style="stroke:#000000;stroke-width:0.5;" width="76" x="370" y="138.3047"/><text fill="#000000" font-family="sans-serif" font-size="14" font-weight="bold" lengthAdjust="spacing" textLength="56" x="380" y="161.8398">&#24314;&#31435;&#35330;&#21934;</text></g><!--entity AddOrderItemCommand--><g id="elem_AddOrderItemCommand"><rect fill="#1E90FF" height="36.4883" rx="12.5" ry="12.5" style="stroke:#000000;stroke-width:0.5;" width="104" x="932" y="217.3047"/><text fill="#000000" font-family="sans-serif" font-size="14" font-weight="bold" lengthAdjust="spacing" textLength="84" x="942" y="240.8398">&#28155;&#21152;&#35330;&#21934;&#38917;&#30446;</text></g><!--entity SubmitOrderCommand--><g id="elem_SubmitOrderCommand"><rect fill="#1E90FF" height="36.4883" rx="12.5" ry="12.5" style="stroke:#000000;stroke-width:0.5;" width="76" x="264" y="209.3047"/><text fill="#000000" font-family="sans-serif" font-size="14" font-weight="bold" lengthAdjust="spacing" textLength="56" x="274" y="232.8398">&#25552;&#20132;&#35330;&#21934;</text></g><!--entity CheckInventoryCommand--><g id="elem_CheckInventoryCommand"><rect fill="#1E90FF" height="36.4883" rx="12.5" ry="12.5" style="stroke:#000000;stroke-width:0.5;" width="76" x="795" y="428.3047"/><text fill="#000000" font-family="sans-serif" font-size="14" font-weight="bold" lengthAdjust="spacing" textLength="56" x="805" y="451.8398">&#27298;&#26597;&#24235;&#23384;</text></g><!--entity ReserveInventoryCommand--><g id="elem_ReserveInventoryCommand"><rect fill="#1E90FF" height="36.4883" rx="12.5" ry="12.5" style="stroke:#000000;stroke-width:0.5;" width="76" x="1413" y="407.3047"/><text fill="#000000" font-family="sans-serif" font-size="14" font-weight="bold" lengthAdjust="spacing" textLength="56" x="1423" y="430.8398">&#38928;&#30041;&#24235;&#23384;</text></g><!--entity ProcessPaymentCommand--><g id="elem_ProcessPaymentCommand"><rect fill="#1E90FF" height="36.4883" rx="12.5" ry="12.5" style="stroke:#000000;stroke-width:0.5;" width="76" x="1262" y="529.3047"/><text fill="#000000" font-family="sans-serif" font-size="14" font-weight="bold" lengthAdjust="spacing" textLength="56" x="1272" y="552.8398">&#34389;&#29702;&#25903;&#20184;</text></g><!--entity ConfirmOrderCommand--><g id="elem_ConfirmOrderCommand"><rect fill="#1E90FF" height="36.4883" rx="12.5" ry="12.5" style="stroke:#000000;stroke-width:0.5;" width="76" x="1919" y="466.3047"/><text fill="#000000" font-family="sans-serif" font-size="14" font-weight="bold" lengthAdjust="spacing" textLength="56" x="1929" y="489.8398">&#30906;&#35469;&#35330;&#21934;</text></g><!--entity CancelOrderCommand--><g id="elem_CancelOrderCommand"><rect fill="#1E90FF" height="36.4883" rx="12.5" ry="12.5" style="stroke:#000000;stroke-width:0.5;" width="76" x="370" y="280.3047"/><text fill="#000000" font-family="sans-serif" font-size="14" font-weight="bold" lengthAdjust="spacing" textLength="56" x="380" y="303.8398">&#21462;&#28040;&#35330;&#21934;</text></g><!--entity OrderAggregate--><g id="elem_OrderAggregate"><rect fill="#FFFF00" height="36.4883" rx="12.5" ry="12.5" style="stroke:#000000;stroke-width:0.5;" width="48" x="507" y="263.3047"/><text fill="#000000" font-family="sans-serif" font-size="14" font-weight="bold" lengthAdjust="spacing" textLength="28" x="517" y="286.8398">&#35330;&#21934;</text></g><!--entity InventoryAggregate--><g id="elem_InventoryAggregate"><rect fill="#FFFF00" height="36.4883" rx="12.5" ry="12.5" style="stroke:#000000;stroke-width:0.5;" width="48" x="960" y="434.3047"/><text fill="#000000" font-family="sans-serif" font-size="14" font-weight="bold" lengthAdjust="spacing" textLength="28" x="970" y="457.8398">&#24235;&#23384;</text></g><!--entity PaymentAggregate--><g id="elem_PaymentAggregate"><rect fill="#FFFF00" height="36.4883" rx="12.5" ry="12.5" style="stroke:#000000;stroke-width:0.5;" width="48" x="1427" y="529.3047"/><text fill="#000000" font-family="sans-serif" font-size="14" font-weight="bold" lengthAdjust="spacing" textLength="28" x="1437" y="552.8398">&#25903;&#20184;</text></g><!--entity OrderCreatedEvent--><g id="elem_OrderCreatedEvent"><rect fill="#FFA500" height="36.4883" rx="12.5" ry="12.5" style="stroke:#000000;stroke-width:0.5;" width="90" x="630" y="174.3047"/><text fill="#000000" font-family="sans-serif" font-size="14" font-weight="bold" lengthAdjust="spacing" textLength="70" x="640" y="197.8398">&#35330;&#21934;&#24050;&#24314;&#31435;</text></g><!--entity OrderItemAddedEvent--><g id="elem_OrderItemAddedEvent"><rect fill="#FFA500" height="36.4883" rx="12.5" ry="12.5" style="stroke:#000000;stroke-width:0.5;" width="118" x="616" y="742.3047"/><text fill="#000000" font-family="sans-serif" font-size="14" font-weight="bold" lengthAdjust="spacing" textLength="98" x="626" y="765.8398">&#35330;&#21934;&#38917;&#30446;&#24050;&#28155;&#21152;</text></g><!--entity OrderSubmittedEvent--><g id="elem_OrderSubmittedEvent"><rect fill="#FFA500" height="36.4883" rx="12.5" ry="12.5" style="stroke:#000000;stroke-width:0.5;" width="90" x="630" y="409.3047"/><text fill="#000000" font-family="sans-serif" font-size="14" font-weight="bold" lengthAdjust="spacing" textLength="70" x="640" y="432.8398">&#35330;&#21934;&#24050;&#25552;&#20132;</text></g><!--entity InventoryCheckedEvent--><g id="elem_InventoryCheckedEvent"><rect fill="#FFA500" height="36.4883" rx="12.5" ry="12.5" style="stroke:#000000;stroke-width:0.5;" width="90" x="1097" y="458.3047"/><text fill="#000000" font-family="sans-serif" font-size="14" font-weight="bold" lengthAdjust="spacing" textLength="70" x="1107" y="481.8398">&#24235;&#23384;&#24050;&#27298;&#26597;</text></g><!--entity InventoryReservedEvent--><g id="elem_InventoryReservedEvent"><rect fill="#FFA500" height="36.4883" rx="12.5" ry="12.5" style="stroke:#000000;stroke-width:0.5;" width="90" x="1097" y="529.3047"/><text fill="#000000" font-family="sans-serif" font-size="14" font-weight="bold" lengthAdjust="spacing" textLength="70" x="1107" y="552.8398">&#24235;&#23384;&#24050;&#38928;&#30041;</text></g><!--entity PaymentRequestedEvent--><g id="elem_PaymentRequestedEvent"><rect fill="#FFA500" height="36.4883" rx="12.5" ry="12.5" style="stroke:#000000;stroke-width:0.5;" width="90" x="1603" y="458.3047"/><text fill="#000000" font-family="sans-serif" font-size="14" font-weight="bold" lengthAdjust="spacing" textLength="70" x="1613" y="481.8398">&#25903;&#20184;&#24050;&#35531;&#27714;</text></g><!--entity PaymentCompletedEvent--><g id="elem_PaymentCompletedEvent"><rect fill="#FFA500" height="36.4883" rx="12.5" ry="12.5" style="stroke:#000000;stroke-width:0.5;" width="90" x="1603" y="600.3047"/><text fill="#000000" font-family="sans-serif" font-size="14" font-weight="bold" lengthAdjust="spacing" textLength="70" x="1613" y="623.8398">&#25903;&#20184;&#24050;&#23436;&#25104;</text></g><!--entity OrderConfirmedEvent--><g id="elem_OrderConfirmedEvent"><rect fill="#FFA500" height="36.4883" rx="12.5" ry="12.5" style="stroke:#000000;stroke-width:0.5;" width="90" x="630" y="103.3047"/><text fill="#000000" font-family="sans-serif" font-size="14" font-weight="bold" lengthAdjust="spacing" textLength="70" x="640" y="126.8398">&#35330;&#21934;&#24050;&#30906;&#35469;</text></g><!--entity OrderCancelledEvent--><g id="elem_OrderCancelledEvent"><rect fill="#FFA500" height="36.4883" rx="12.5" ry="12.5" style="stroke:#000000;stroke-width:0.5;" width="90" x="1603" y="529.3047"/><text fill="#000000" font-family="sans-serif" font-size="14" font-weight="bold" lengthAdjust="spacing" textLength="70" x="1613" y="552.8398">&#35330;&#21934;&#24050;&#21462;&#28040;</text></g><!--entity InventoryReservationPolicy--><g id="elem_InventoryReservationPolicy"><rect fill="#800080" height="36.4883" rx="12.5" ry="12.5" style="stroke:#000000;stroke-width:0.5;" width="104" x="1248" y="458.3047"/><text fill="#000000" font-family="sans-serif" font-size="14" font-weight="bold" lengthAdjust="spacing" textLength="84" x="1258" y="481.8398">&#24235;&#23384;&#38928;&#30041;&#31574;&#30053;</text></g><!--entity PaymentProcessingPolicy--><g id="elem_PaymentProcessingPolicy"><rect fill="#800080" height="36.4883" rx="12.5" ry="12.5" style="stroke:#000000;stroke-width:0.5;" width="104" x="1754" y="643.3047"/><text fill="#000000" font-family="sans-serif" font-size="14" font-weight="bold" lengthAdjust="spacing" textLength="84" x="1764" y="666.8398">&#25903;&#20184;&#34389;&#29702;&#31574;&#30053;</text></g><!--entity OrderCancellationPolicy--><g id="elem_OrderCancellationPolicy"><rect fill="#800080" height="36.4883" rx="12.5" ry="12.5" style="stroke:#000000;stroke-width:0.5;" width="104" x="1754" y="501.3047"/><text fill="#000000" font-family="sans-serif" font-size="14" font-weight="bold" lengthAdjust="spacing" textLength="84" x="1764" y="524.8398">&#35330;&#21934;&#21462;&#28040;&#31574;&#30053;</text></g><!--link Customer to ProductCatalogReadModel--><g id="link_Customer_ProductCatalogReadModel"><path d="M76.45,156.5547 C98.5,156.5547 125.89,156.5547 151.62,156.5547 " fill="none" id="Customer-to-ProductCatalogReadModel" style="stroke:#181818;stroke-width:1;"/><polygon fill="#181818" points="157.62,156.5547,148.62,152.5547,152.62,156.5547,148.62,160.5547,157.62,156.5547" style="stroke:#181818;stroke-width:1;"/></g><!--link ProductCatalogReadModel to CreateOrderCommand--><g id="link_ProductCatalogReadModel_CreateOrderCommand"><path d="M234.06,156.5547 C272.21,156.5547 325.33,156.5547 363.6,156.5547 " fill="none" id="ProductCatalogReadModel-to-CreateOrderCommand" style="stroke:#181818;stroke-width:1;"/><polygon fill="#181818" points="369.6,156.5547,360.6,152.5547,364.6,156.5547,360.6,160.5547,369.6,156.5547" style="stroke:#181818;stroke-width:1;"/></g><!--link CreateOrderCommand to OrderAggregate--><g id="link_CreateOrderCommand_OrderAggregate"><path d="M442.82,175.1647 C454.42,182.4847 466.99,191.5447 477,201.5547 C495.38,219.9247 508.1633,240.3493 517.5933,257.6093 " fill="none" id="CreateOrderCommand-to-OrderAggregate" style="stroke:#181818;stroke-width:1;"/><polygon fill="#181818" points="520.47,262.8747,519.6651,253.0588,518.0727,258.4869,512.6446,256.8944,520.47,262.8747" style="stroke:#181818;stroke-width:1;"/></g><!--link OrderAggregate to OrderCreatedEvent--><g id="link_OrderAggregate_OrderCreatedEvent"><path d="M552.31,262.8547 C561.84,254.5747 573.6,245.0247 585,237.5547 C599.91,227.7747 611.8371,221.2045 627.2171,213.7045 " fill="none" id="OrderAggregate-to-OrderCreatedEvent" style="stroke:#181818;stroke-width:1;"/><polygon fill="#181818" points="632.61,211.0747,622.7673,211.4242,628.1159,213.2662,626.2738,218.6148,632.61,211.0747" style="stroke:#181818;stroke-width:1;"/></g><!--link OrderCreatedEvent to OrderSummaryReadModel--><g id="link_OrderCreatedEvent_OrderSummaryReadModel"><path d="M720.29,192.5547 C743.8,192.5547 766.37,192.5547 788.73,192.5547 " fill="none" id="OrderCreatedEvent-to-OrderSummaryReadModel" style="stroke:#181818;stroke-width:1;"/><polygon fill="#181818" points="794.73,192.5547,785.73,188.5547,789.73,192.5547,785.73,196.5547,794.73,192.5547" style="stroke:#181818;stroke-width:1;"/></g><!--link Customer to OrderSummaryReadModel--><g id="link_Customer_OrderSummaryReadModel"><path d="M76.2,138.0847 C114.58,107.7147 187.77,50.5547 195,50.5547 C195,50.5547 195,50.5547 676,50.5547 C748.51,50.5547 799.3498,130.2041 819.9398,168.6941 " fill="none" id="Customer-to-OrderSummaryReadModel" style="stroke:#181818;stroke-width:1;"/><polygon fill="#181818" points="822.77,173.9847,822.0518,164.1621,820.4115,169.5759,814.9977,167.9356,822.77,173.9847" style="stroke:#181818;stroke-width:1;"/></g><!--link OrderSummaryReadModel to AddOrderItemCommand--><g id="link_OrderSummaryReadModel_AddOrderItemCommand"><path d="M871.21,203.2947 C889.49,208.5647 906.0249,213.3422 925.8949,219.0722 " fill="none" id="OrderSummaryReadModel-to-AddOrderItemCommand" style="stroke:#181818;stroke-width:1;"/><polygon fill="#181818" points="931.66,220.7347,924.1207,214.3976,926.8558,219.3493,921.9041,222.0843,931.66,220.7347" style="stroke:#181818;stroke-width:1;"/></g><!--link AddOrderItemCommand to OrderAggregate--><g id="link_AddOrderItemCommand_OrderAggregate"><path d="M931.83,240.7747 C834.28,250.7147 631.159,271.4357 561.269,278.5657 " fill="none" id="AddOrderItemCommand-to-OrderAggregate" style="stroke:#181818;stroke-width:1;"/><polygon fill="#181818" points="555.3,279.1747,564.6595,282.2406,560.2742,278.6672,563.8476,274.2819,555.3,279.1747" style="stroke:#181818;stroke-width:1;"/></g><!--link OrderAggregate to OrderItemAddedEvent--><g id="link_OrderAggregate_OrderItemAddedEvent"><path d="M532,300.0747 C532.33,373.9547 536.86,646.9747 585,715.5547 C592.86,726.7447 599.0514,732.4808 611.1814,738.9808 " fill="none" id="OrderAggregate-to-OrderItemAddedEvent" style="stroke:#181818;stroke-width:1;"/><polygon fill="#181818" points="616.47,741.8147,610.4265,734.0381,612.0629,739.4531,606.6479,741.0895,616.47,741.8147" style="stroke:#181818;stroke-width:1;"/></g><!--link Customer to SubmitOrderCommand--><g id="link_Customer_SubmitOrderCommand"><path d="M76.16,165.1647 C97.31,172.8747 129.52,184.2047 158,192.5547 C193.56,202.9747 228.8683,211.499 257.8683,218.069 " fill="none" id="Customer-to-SubmitOrderCommand" style="stroke:#181818;stroke-width:1;"/><polygon fill="#181818" points="263.72,219.3947,255.8262,213.505,258.8436,218.2899,254.0586,221.3073,263.72,219.3947" style="stroke:#181818;stroke-width:1;"/></g><!--link SubmitOrderCommand to OrderAggregate--><g id="link_SubmitOrderCommand_OrderAggregate"><path d="M340.37,233.4447 C375.86,239.4247 430.54,249.6247 477,262.5547 C486.89,265.3047 491.9522,266.9142 501.1222,270.3042 " fill="none" id="SubmitOrderCommand-to-OrderAggregate" style="stroke:#181818;stroke-width:1;"/><polygon fill="#181818" points="506.75,272.3847,499.6954,265.5121,502.0602,270.6509,496.9214,273.0158,506.75,272.3847" style="stroke:#181818;stroke-width:1;"/></g><!--link OrderAggregate to OrderSubmittedEvent--><g id="link_OrderAggregate_OrderSubmittedEvent"><path d="M542.02,300.0547 C551.68,316.9247 567.4,341.9647 585,360.5547 C602.69,379.2247 621.0445,393.2315 639.3845,405.5915 " fill="none" id="OrderAggregate-to-OrderSubmittedEvent" style="stroke:#181818;stroke-width:1;"/><polygon fill="#181818" points="644.36,408.9447,639.1322,400.5979,640.2137,406.1504,634.6612,407.2319,644.36,408.9447" style="stroke:#181818;stroke-width:1;"/></g><!--link OrderSubmittedEvent to CheckInventoryCommand--><g id="link_OrderSubmittedEvent_CheckInventoryCommand"><path d="M720.29,432.9447 C743.8,435.8047 766.4142,438.5575 788.7742,441.2875 " fill="none" id="OrderSubmittedEvent-to-CheckInventoryCommand" style="stroke:#181818;stroke-width:1;"/><polygon fill="#181818" points="794.73,442.0147,786.2811,436.9534,789.7669,441.4087,785.3116,444.8945,794.73,442.0147" style="stroke:#181818;stroke-width:1;"/></g><!--link CheckInventoryCommand to InventoryAggregate--><g id="link_CheckInventoryCommand_InventoryAggregate"><path d="M871.21,448.0447 C898.97,449.1647 930.0349,450.4116 953.7149,451.3716 " fill="none" id="CheckInventoryCommand-to-InventoryAggregate" style="stroke:#181818;stroke-width:1;"/><polygon fill="#181818" points="959.71,451.6147,950.8794,447.2534,954.7141,451.4122,950.5554,455.2468,959.71,451.6147" style="stroke:#181818;stroke-width:1;"/></g><!--link InventoryAggregate to InventoryCheckedEvent--><g id="link_InventoryAggregate_InventoryCheckedEvent"><path d="M1008.35,456.1447 C1031.64,459.7247 1062.0699,464.4013 1090.8299,468.8313 " fill="none" id="InventoryAggregate-to-InventoryCheckedEvent" style="stroke:#181818;stroke-width:1;"/><polygon fill="#181818" points="1096.76,469.7447,1088.4739,464.4212,1091.8183,468.9835,1087.256,472.3279,1096.76,469.7447" style="stroke:#181818;stroke-width:1;"/></g><!--link InventoryCheckedEvent to InventoryReservationPolicy--><g id="link_InventoryCheckedEvent_InventoryReservationPolicy"><path d="M1187.29,476.5547 C1206.11,476.5547 1222.18,476.5547 1241.71,476.5547 " fill="none" id="InventoryCheckedEvent-to-InventoryReservationPolicy" style="stroke:#181818;stroke-width:1;"/><polygon fill="#181818" points="1247.71,476.5547,1238.71,472.5547,1242.71,476.5547,1238.71,480.5547,1247.71,476.5547" style="stroke:#181818;stroke-width:1;"/></g><!--link InventoryReservationPolicy to ReserveInventoryCommand--><g id="link_InventoryReservationPolicy_ReserveInventoryCommand"><path d="M1352.28,458.9947 C1372.14,452.1947 1388.7836,446.5086 1407.0636,440.2486 " fill="none" id="InventoryReservationPolicy-to-ReserveInventoryCommand" style="stroke:#181818;stroke-width:1;"/><polygon fill="#181818" points="1412.74,438.3047,1402.9295,437.4363,1408.0097,439.9246,1405.5213,445.0048,1412.74,438.3047" style="stroke:#181818;stroke-width:1;"/></g><!--link ReserveInventoryCommand to InventoryAggregate--><g id="link_ReserveInventoryCommand_InventoryAggregate"><path d="M1412.56,425.3747 C1343.75,425.3947 1192.63,427.0347 1066,439.5547 C1046.44,441.4847 1030.3334,444.0423 1014.2034,446.9723 " fill="none" id="ReserveInventoryCommand-to-InventoryAggregate" style="stroke:#181818;stroke-width:1;"/><polygon fill="#181818" points="1008.3,448.0447,1017.87,450.3718,1013.2195,447.1511,1016.4402,442.5006,1008.3,448.0447" style="stroke:#181818;stroke-width:1;"/></g><!--link InventoryAggregate to InventoryReservedEvent--><g id="link_InventoryAggregate_InventoryReservedEvent"><path d="M1008.35,466.7747 C1035.47,483.2847 1075.1657,507.4535 1105.0957,525.6835 " fill="none" id="InventoryAggregate-to-InventoryReservedEvent" style="stroke:#181818;stroke-width:1;"/><polygon fill="#181818" points="1110.22,528.8047,1104.6143,520.7068,1105.9498,526.2037,1100.4528,527.5392,1110.22,528.8047" style="stroke:#181818;stroke-width:1;"/></g><!--link InventoryReservedEvent to InventoryStatusReadModel--><g id="link_InventoryReservedEvent_InventoryStatusReadModel"><path d="M1183.99,566.2047 C1208.09,577.1747 1232.8687,588.4499 1256.2987,599.1099 " fill="none" id="InventoryReservedEvent-to-InventoryStatusReadModel" style="stroke:#181818;stroke-width:1;"/><polygon fill="#181818" points="1261.76,601.5947,1255.2245,594.2267,1257.2089,599.5241,1251.9115,601.5084,1261.76,601.5947" style="stroke:#181818;stroke-width:1;"/></g><!--link InventoryReservedEvent to ProcessPaymentCommand--><g id="link_InventoryReservedEvent_ProcessPaymentCommand"><path d="M1187.29,547.5547 C1210.8,547.5547 1233.37,547.5547 1255.73,547.5547 " fill="none" id="InventoryReservedEvent-to-ProcessPaymentCommand" style="stroke:#181818;stroke-width:1;"/><polygon fill="#181818" points="1261.73,547.5547,1252.73,543.5547,1256.73,547.5547,1252.73,551.5547,1261.73,547.5547" style="stroke:#181818;stroke-width:1;"/></g><!--link ProcessPaymentCommand to PaymentAggregate--><g id="link_ProcessPaymentCommand_PaymentAggregate"><path d="M1338.21,547.5547 C1365.97,547.5547 1397.03,547.5547 1420.71,547.5547 " fill="none" id="ProcessPaymentCommand-to-PaymentAggregate" style="stroke:#181818;stroke-width:1;"/><polygon fill="#181818" points="1426.71,547.5547,1417.71,543.5547,1421.71,547.5547,1417.71,551.5547,1426.71,547.5547" style="stroke:#181818;stroke-width:1;"/></g><!--link PaymentAggregate to PaymentRequestedEvent--><g id="link_PaymentAggregate_PaymentRequestedEvent"><path d="M1475.23,538.8047 C1488.11,533.9747 1504.43,527.8847 1519,522.5547 C1546.72,512.3947 1572.2303,503.2147 1596.8703,494.4047 " fill="none" id="PaymentAggregate-to-PaymentRequestedEvent" style="stroke:#181818;stroke-width:1;"/><polygon fill="#181818" points="1602.52,492.3847,1592.6987,491.6483,1597.8119,494.0681,1595.3921,499.1812,1602.52,492.3847" style="stroke:#181818;stroke-width:1;"/></g><!--link PaymentAggregate to PaymentCompletedEvent--><g id="link_PaymentAggregate_PaymentCompletedEvent"><path d="M1475.23,556.2947 C1488.11,561.1247 1504.43,567.2147 1519,572.5547 C1546.72,582.7047 1572.2303,591.8846 1596.8703,600.6946 " fill="none" id="PaymentAggregate-to-PaymentCompletedEvent" style="stroke:#181818;stroke-width:1;"/><polygon fill="#181818" points="1602.52,602.7147,1595.3921,595.9181,1597.8119,601.0313,1592.6987,603.4511,1602.52,602.7147" style="stroke:#181818;stroke-width:1;"/><text fill="#000000" font-family="sans-serif" font-size="13" lengthAdjust="spacing" textLength="52" x="1520" y="569.123">&#25903;&#20184;&#25104;&#21151;</text></g><!--link PaymentAggregate to OrderCancelledEvent--><g id="link_PaymentAggregate_OrderCancelledEvent"><path d="M1475.13,547.5547 C1506.51,547.5547 1557.18,547.5547 1596.84,547.5547 " fill="none" id="PaymentAggregate-to-OrderCancelledEvent" style="stroke:#181818;stroke-width:1;"/><polygon fill="#181818" points="1602.84,547.5547,1593.84,543.5547,1597.84,547.5547,1593.84,551.5547,1602.84,547.5547" style="stroke:#181818;stroke-width:1;"/><text fill="#000000" font-family="sans-serif" font-size="13" lengthAdjust="spacing" textLength="52" x="1520" y="544.123">&#25903;&#20184;&#22833;&#36133;</text></g><!--link PaymentCompletedEvent to PaymentStatusReadModel--><g id="link_PaymentCompletedEvent_PaymentStatusReadModel"><path d="M1693.29,610.6047 C1716.8,606.3847 1739.4642,602.3138 1761.8242,598.3038 " fill="none" id="PaymentCompletedEvent-to-PaymentStatusReadModel" style="stroke:#181818;stroke-width:1;"/><polygon fill="#181818" points="1767.73,597.2447,1758.1652,594.8962,1762.8085,598.1273,1759.5774,602.7706,1767.73,597.2447" style="stroke:#181818;stroke-width:1;"/></g><!--link PaymentCompletedEvent to PaymentProcessingPolicy--><g id="link_PaymentCompletedEvent_PaymentProcessingPolicy"><path d="M1693.29,630.7547 C1712.11,635.9447 1728.3955,640.4412 1747.9255,645.8212 " fill="none" id="PaymentCompletedEvent-to-PaymentProcessingPolicy" style="stroke:#181818;stroke-width:1;"/><polygon fill="#181818" points="1753.71,647.4147,1746.0955,641.1681,1748.8896,646.0868,1743.9709,648.8808,1753.71,647.4147" style="stroke:#181818;stroke-width:1;"/></g><!--link PaymentProcessingPolicy to ConfirmOrderCommand--><g id="link_PaymentProcessingPolicy_ConfirmOrderCommand"><path d="M1838.08,642.8947 C1845.02,638.0247 1852.07,632.4647 1858,626.5547 C1896.81,587.8447 1927.3062,537.1652 1943.2062,508.4152 " fill="none" id="PaymentProcessingPolicy-to-ConfirmOrderCommand" style="stroke:#181818;stroke-width:1;"/><polygon fill="#181818" points="1946.11,503.1647,1938.254,509.1046,1943.6902,507.5401,1945.2547,512.9763,1946.11,503.1647" style="stroke:#181818;stroke-width:1;"/></g><!--link ConfirmOrderCommand to OrderAggregate--><g id="link_ConfirmOrderCommand_OrderAggregate"><path d="M1948.13,465.8547 C1929.81,425.6447 1880.23,334.5547 1807,334.5547 C674,334.5547 674,334.5547 674,334.5547 C629.79,334.5547 587.653,314.7128 560.333,299.0228 " fill="none" id="ConfirmOrderCommand-to-OrderAggregate" style="stroke:#181818;stroke-width:1;"/><polygon fill="#181818" points="555.13,296.0347,560.9424,303.9855,559.4658,298.5248,564.9266,297.0482,555.13,296.0347" style="stroke:#181818;stroke-width:1;"/></g><!--link OrderAggregate to OrderConfirmedEvent--><g id="link_OrderAggregate_OrderConfirmedEvent"><path d="M541.03,263.1847 C554.54,237.0847 582.11,188.8247 616,156.5547 C622.39,150.4647 624.9299,148.1373 632.5199,143.3673 " fill="none" id="OrderAggregate-to-OrderConfirmedEvent" style="stroke:#181818;stroke-width:1;"/><polygon fill="#181818" points="637.6,140.1747,627.8515,141.5769,633.3666,142.8352,632.1083,148.3503,637.6,140.1747" style="stroke:#181818;stroke-width:1;"/></g><!--link CancelOrderCommand to OrderAggregate--><g id="link_CancelOrderCommand_OrderAggregate"><path d="M446.29,293.3147 C466.01,290.5447 483.6682,288.0581 500.7782,285.6581 " fill="none" id="CancelOrderCommand-to-OrderAggregate" style="stroke:#181818;stroke-width:1;"/><polygon fill="#181818" points="506.72,284.8247,497.2516,282.1136,501.7685,285.5192,498.3629,290.0361,506.72,284.8247" style="stroke:#181818;stroke-width:1;"/></g><!--link OrderAggregate to OrderCancelledEvent--><g id="link_OrderAggregate_OrderCancelledEvent"><path d="M534.3,300.1447 C544.69,379.9547 590.37,689.5547 674,689.5547 C674,689.5547 674,689.5547 1452,689.5547 C1462.37,689.5547 1568.6045,608.2762 1618.3545,569.7862 " fill="none" id="OrderAggregate-to-OrderCancelledEvent" style="stroke:#181818;stroke-width:1;"/><polygon fill="#181818" points="1623.1,566.1147,1613.534,568.4582,1619.1454,569.1743,1618.4293,574.7856,1623.1,566.1147" style="stroke:#181818;stroke-width:1;"/></g><!--link OrderCancelledEvent to OrderCancellationPolicy--><g id="link_OrderCancelledEvent_OrderCancellationPolicy"><path d="M1693.29,539.6047 C1712.11,536.2247 1728.2746,533.326 1747.8046,529.816 " fill="none" id="OrderCancelledEvent-to-OrderCancellationPolicy" style="stroke:#181818;stroke-width:1;"/><polygon fill="#181818" points="1753.71,528.7547,1744.1444,526.4098,1748.7888,529.6391,1745.5595,534.2836,1753.71,528.7547" style="stroke:#181818;stroke-width:1;"/></g><rect fill="#DDDDDD" height="129.418" id="_legend" rx="7.5" ry="7.5" style="stroke:#000000;stroke-width:1;" width="330.9473" x="1644.0527" y="795.793"/><text fill="#000000" font-family="sans-serif" font-size="14" font-weight="bold" lengthAdjust="spacing" textLength="56" x="1653.667" y="816.3281">&#20803;&#32032;&#39006;&#22411;</text><text fill="#000000" font-family="sans-serif" font-size="14" font-weight="bold" lengthAdjust="spacing" textLength="28" x="1718.8955" y="816.3281">&#38991;&#33394;</text><text fill="#000000" font-family="sans-serif" font-size="14" font-weight="bold" lengthAdjust="spacing" textLength="28" x="1769.7549" y="816.3281">&#35498;&#26126;</text><text fill="#000000" font-family="sans-serif" font-size="14" lengthAdjust="spacing" textLength="4.4297" x="1649.0527" y="832.8164">&#160;</text><text fill="#000000" filter="url(#b1ncakp7x7j3wv0)" font-family="sans-serif" font-size="14" lengthAdjust="spacing" textLength="13.2891" x="1653.4824" y="832.8164">&#160;&#160;&#160;</text><text fill="#000000" font-family="sans-serif" font-size="14" lengthAdjust="spacing" textLength="4.4297" x="1666.7715" y="832.8164">&#160;</text><text fill="#000000" font-family="sans-serif" font-size="14" lengthAdjust="spacing" textLength="42" x="1718.7109" y="832.8164">&#21443;&#33287;&#32773;</text><text fill="#000000" font-family="sans-serif" font-size="14" lengthAdjust="spacing" textLength="126" x="1769.5703" y="832.8164">&#22519;&#34892;&#21629;&#20196;&#30340;&#20154;&#25110;&#31995;&#32113;</text><text fill="#000000" font-family="sans-serif" font-size="14" lengthAdjust="spacing" textLength="4.4297" x="1649.0527" y="849.3047">&#160;</text><text fill="#000000" filter="url(#b1ncakp7x7j3wv1)" font-family="sans-serif" font-size="14" lengthAdjust="spacing" textLength="13.2891" x="1653.4824" y="849.3047">&#160;&#160;&#160;</text><text fill="#000000" font-family="sans-serif" font-size="14" lengthAdjust="spacing" textLength="4.4297" x="1666.7715" y="849.3047">&#160;</text><text fill="#000000" font-family="sans-serif" font-size="14" lengthAdjust="spacing" textLength="42" x="1718.7109" y="849.3047">&#35712;&#27169;&#22411;</text><text fill="#000000" font-family="sans-serif" font-size="14" lengthAdjust="spacing" textLength="140" x="1769.5703" y="849.3047">&#29992;&#25142;&#26597;&#30475;&#30340;&#20449;&#24687;&#25110;&#35222;&#22294;</text><text fill="#000000" font-family="sans-serif" font-size="14" lengthAdjust="spacing" textLength="4.4297" x="1649.0527" y="865.793">&#160;</text><text fill="#000000" filter="url(#b1ncakp7x7j3wv2)" font-family="sans-serif" font-size="14" lengthAdjust="spacing" textLength="13.2891" x="1653.4824" y="865.793">&#160;&#160;&#160;</text><text fill="#000000" font-family="sans-serif" font-size="14" lengthAdjust="spacing" textLength="4.4297" x="1666.7715" y="865.793">&#160;</text><text fill="#000000" font-family="sans-serif" font-size="14" lengthAdjust="spacing" textLength="28" x="1718.7109" y="865.793">&#21629;&#20196;</text><text fill="#000000" font-family="sans-serif" font-size="14" lengthAdjust="spacing" textLength="140" x="1769.5703" y="865.793">&#35320;&#30332;&#20107;&#20214;&#30340;&#34892;&#28858;&#25110;&#24847;&#22294;</text><text fill="#000000" font-family="sans-serif" font-size="14" lengthAdjust="spacing" textLength="4.4297" x="1649.0527" y="882.2813">&#160;</text><text fill="#000000" filter="url(#b1ncakp7x7j3wv3)" font-family="sans-serif" font-size="14" lengthAdjust="spacing" textLength="13.2891" x="1653.4824" y="882.2813">&#160;&#160;&#160;</text><text fill="#000000" font-family="sans-serif" font-size="14" lengthAdjust="spacing" textLength="4.4297" x="1666.7715" y="882.2813">&#160;</text><text fill="#000000" font-family="sans-serif" font-size="14" lengthAdjust="spacing" textLength="28" x="1718.7109" y="882.2813">&#32858;&#21512;</text><text fill="#000000" font-family="sans-serif" font-size="14" lengthAdjust="spacing" textLength="126" x="1769.5703" y="882.2813">&#30906;&#20445;&#26989;&#21209;&#35215;&#21063;&#30340;&#23526;&#39636;</text><text fill="#000000" font-family="sans-serif" font-size="14" lengthAdjust="spacing" textLength="4.4297" x="1649.0527" y="898.7695">&#160;</text><text fill="#000000" filter="url(#b1ncakp7x7j3wv4)" font-family="sans-serif" font-size="14" lengthAdjust="spacing" textLength="13.2891" x="1653.4824" y="898.7695">&#160;&#160;&#160;</text><text fill="#000000" font-family="sans-serif" font-size="14" lengthAdjust="spacing" textLength="4.4297" x="1666.7715" y="898.7695">&#160;</text><text fill="#000000" font-family="sans-serif" font-size="14" lengthAdjust="spacing" textLength="28" x="1718.7109" y="898.7695">&#20107;&#20214;</text><text fill="#000000" font-family="sans-serif" font-size="14" lengthAdjust="spacing" textLength="112" x="1769.5703" y="898.7695">&#31995;&#32113;&#20013;&#30332;&#29983;&#30340;&#20107;&#24773;</text><text fill="#000000" font-family="sans-serif" font-size="14" lengthAdjust="spacing" textLength="4.4297" x="1649.0527" y="915.2578">&#160;</text><text fill="#000000" filter="url(#b1ncakp7x7j3wv5)" font-family="sans-serif" font-size="14" lengthAdjust="spacing" textLength="13.2891" x="1653.4824" y="915.2578">&#160;&#160;&#160;</text><text fill="#000000" font-family="sans-serif" font-size="14" lengthAdjust="spacing" textLength="4.4297" x="1666.7715" y="915.2578">&#160;</text><text fill="#000000" font-family="sans-serif" font-size="14" lengthAdjust="spacing" textLength="28" x="1718.7109" y="915.2578">&#31574;&#30053;</text><text fill="#000000" font-family="sans-serif" font-size="14" lengthAdjust="spacing" textLength="196" x="1769.5703" y="915.2578">&#30070;&#20107;&#20214;&#30332;&#29983;&#26178;&#25033;&#22519;&#34892;&#30340;&#26989;&#21209;&#35215;&#21063;</text><line style="stroke:#000000;stroke-width:1;" x1="1649.0527" x2="1970" y1="802.793" y2="802.793"/><line style="stroke:#000000;stroke-width:1;" x1="1649.0527" x2="1970" y1="819.2813" y2="819.2813"/><line style="stroke:#000000;stroke-width:1;" x1="1649.0527" x2="1970" y1="835.7695" y2="835.7695"/><line style="stroke:#000000;stroke-width:1;" x1="1649.0527" x2="1970" y1="852.2578" y2="852.2578"/><line style="stroke:#000000;stroke-width:1;" x1="1649.0527" x2="1970" y1="868.7461" y2="868.7461"/><line style="stroke:#000000;stroke-width:1;" x1="1649.0527" x2="1970" y1="885.2344" y2="885.2344"/><line style="stroke:#000000;stroke-width:1;" x1="1649.0527" x2="1970" y1="901.7227" y2="901.7227"/><line style="stroke:#000000;stroke-width:1;" x1="1649.0527" x2="1970" y1="918.2109" y2="918.2109"/><line style="stroke:#000000;stroke-width:1;" x1="1649.0527" x2="1649.0527" y1="802.793" y2="918.2109"/><line style="stroke:#000000;stroke-width:1;" x1="1714.2813" x2="1714.2813" y1="802.793" y2="918.2109"/><line style="stroke:#000000;stroke-width:1;" x1="1765.1406" x2="1765.1406" y1="802.793" y2="918.2109"/><line style="stroke:#000000;stroke-width:1;" x1="1970" x2="1970" y1="802.793" y2="918.2109"/><!--SRC=[dLVRJXj76BwVfrY5YrwXkaHHKvGYKH9BkQY2u0aMxyHPiTvDr-j8jAd4CPWimQI0nI45x09588n8ETLkmyjuPjTlqJaOCxCxDb2kblN__OTl_wC5NtgQvsYkcNxbQORfmfHdEZO0sL7JVgsxUaQZhtGxRK7j5w2Hlo4dPni3Zcj3L-jvn5xzuBW6T0SSot6r4KjFZRAtISVsXhqn0XnnB0FyAYhrJA-baCcPFqEj9z46nwN3_KbKh0H_rOApathLhzVE6-Lzl7wAFXMrRWsVJGJxFgfLyNwfiRw0AsS0VAMXmcJzSY4Sdm4tOJn0bJBEdp_GzAmsaCjwJeP4qfLCFlqsaH35kAMWKWeMtw6b4fFlDpActH8c1iBZ6Z68Ddq9kLn6InF1HgKnFyrWWwvZv5BUWExfbfCUWhhnesD0I-jws3Fmz66FYELHue-huTu4mxwWt0xdCXdT7Uk8HDL3TBGQ-EDuncV8v_ORQ7kEEpRiwLuksn6Cbu_hDH4yg8zb8FqGQYZbzkE_zTgEv46j6XpwF09Ehmjr3xxWsK4Yi0sjwvjdtoMIISdsHGszt-QmnlOCuQt9jS6GppsOwOGkBDQhEuBHuTn8nlHkDNfGnbkxd3FkwokO6crHrW7Ps5uCLjO4v13CGlSDl0isN5iXsSJ9liwC5CnccsntG0RbQdZmGUJMiL-QRkQsE56XYC_p8awtKz1ImcW-JwoZnNmy8MzIiJ-TTc6QV5PQ1icaN3C2AoqwEW94AZW7SN7Y5g_tk5leuZDFkXl_UCuPpwXrggB_aMnHp3C2vybt0wVPHZBlLWKKoZ9FB5AQU9riSteeb6MVp1DBmBk0UGBAu6OEjaTpeWawFFJnoQJ8-13yAGUptbt0g3AFyuiYcEJGQmjwT-6Bfx3mfNW6tmNAirY0iYIseb2IAS5HCLZPZVF6IUE_ggZJwTmRT2mpDQPrFKua4eyL3F3o5PGqIMXMiMcdssjeni824JI8uQXy827nqHPURUA5NLgYbJBwi8Bo6tJOiPz0QunrT_Ur6pQWtH2Yc7YZ1ehUJINb7W0YBQ4b8LOXYDTbIouws5YyV1wmC1kblqcTgi9KmzNJaiehnWbGZPXx12dt2kOw7qRCTPNJyTa45EFg7Yx8FGUe-X3xlghXnePuTOaK1_vZd0x3t-ORvMbI9TUUAoSYLHVlxK3HxYL9iRi1TS-Jv6DL2JeKB4MscSAWtNJ-dt58ZHQqwRyI8h92TS8ejm6MLxm1xqpJxO5_7VNcmBH41Yc8JLP1Icx-7KKZhRwtwHKP2EZzbXgfQjQzhMXEmjDTe5Okc8toToiWser1koxDAYE-He5MamrAbR2oSrqEYeNhFXrHcdOtDlX4kBOHNyxkOq8Y6gZ8ZygA1KRRmSQN-XSVM30DYMbs5PARxEtt6fgP2awt6wLDSkhG_nkbGZZtcJw51mTuTK5xI-Mq9oFa-kjjtaTzv9XxyZLzqqT-GeMfC3zBJZ7wl7KHbkRv0H6iJzUhLPmlydjBLiIl3LbHM1dd9nTv3fRtoIb7UbVmoQUAhafuufZe2lUAz2oKTF4bD-8KSu4g_VCoMFk7hvb44V4kcAHEuUb2J15VIoDEiRsPUbIkrgz-nxj7o5yBzmfeRfQeGyTxZSFbg1QwiiXQk7sgXL-vbqV4gM1vYt7auwaPMGLV4MGLVBMW3oldpN2O2hmsYMVdEF54dUWWKKg-Dl_cu3y0]--></g></svg>